<svg width="227" height="272" viewBox="0 0 227 272" fill="none" xmlns="http://www.w3.org/2000/svg">
<path d="M207.908 272L34.668 257.817L53.7603 22.0002L227 36.1831L207.908 272Z" fill="url(#paint0_linear)"/>
<path d="M205.831 268.634L37.2579 254.829L55.8373 25.3666L224.41 39.168L205.831 268.634Z" fill="#EF0404"/>
<path d="M215.794 232.348L45.1023 265.32L0.718506 32.972L171.411 0L215.794 232.348Z" fill="url(#paint1_linear)"/>
<path d="M212.897 229.663L46.8042 261.749L3.61633 35.6567L169.709 3.57486L212.897 229.663Z" fill="#E0E0E0"/>
<path d="M195.163 17.5493H21.35V254.147H195.163V17.5493Z" fill="url(#paint2_linear)"/>
<path d="M192.824 20.7356H23.6924V250.957H192.824V20.7356Z" fill="white"/>
<path d="M80.6864 60.4582C80.8704 75.8633 93.4418 88.2022 108.762 88.0114C124.083 87.8207 136.361 75.185 136.17 59.7764C136.11 54.0498 134.287 48.4802 130.948 43.8235C127.609 39.1667 122.916 35.6483 117.505 33.7457L117.59 40.9307C117.628 43.429 116.673 45.8405 114.933 47.6368C113.194 49.4331 110.812 50.4678 108.31 50.5143C105.811 50.5284 103.409 49.5548 101.627 47.806C99.846 46.0573 98.8303 43.6756 98.8023 41.1815L98.7174 33.9965C93.356 36.028 88.7503 39.6567 85.5248 44.3904C82.2993 49.124 80.6101 54.7335 80.6864 60.4582Z" fill="url(#paint3_linear)"/>
<path d="M136.18 57.5227C136.18 42.1141 123.761 29.6162 108.437 29.6162C93.1128 29.6162 80.6935 42.107 80.6935 57.5227C80.6835 63.2503 82.4389 68.8422 85.7216 73.5395C89.0042 78.2368 93.6551 81.8119 99.0429 83.7795V76.5945C99.0409 74.1003 100.028 71.7068 101.788 69.9369C103.548 68.167 105.939 67.1645 108.437 67.1487C110.935 67.1645 113.325 68.167 115.086 69.9369C116.846 71.7068 117.833 74.1003 117.831 76.5945V83.7831C123.219 81.8152 127.871 78.2395 131.153 73.5416C134.436 68.8436 136.191 63.2509 136.18 57.5227Z" fill="#EF0404"/>
<path d="M108.455 64.411C114.344 64.411 119.119 59.6095 119.119 53.6864C119.119 47.7634 114.344 42.9619 108.455 42.9619C102.565 42.9619 97.7903 47.7634 97.7903 53.6864C97.7903 59.6095 102.565 64.411 108.455 64.411Z" fill="white" stroke="white" stroke-miterlimit="10"/>
<path d="M108.437 67.1487C105.939 67.1645 103.548 68.167 101.788 69.9369C100.028 71.7068 99.0409 74.1003 99.0428 76.5945V83.7831C105.114 85.9717 111.76 85.9717 117.831 83.7831V76.5945C117.833 74.1003 116.846 71.7068 115.086 69.9369C113.325 68.167 110.935 67.1645 108.437 67.1487Z" fill="white" stroke="white" stroke-miterlimit="10"/>
<path d="M97.6983 53.093C96.8419 51.4254 96.4497 49.5589 96.5625 47.6883C96.684 45.8129 97.5316 44.0583 98.9261 42.7958C100.479 41.4641 102.585 40.9943 104.619 40.8318C106.654 40.6693 108.716 40.7682 110.719 40.369C112.377 40.0296 113.951 39.3637 115.348 38.4103C116.745 37.4568 117.938 36.2349 118.857 34.816C118.984 36.3879 119.112 37.9952 118.811 39.5354C118.51 41.0755 117.718 42.6086 116.38 43.4211C118.001 42.6687 117.824 44.4349 117.474 45.4911C118.277 46.4661 120.226 46.6286 120.325 47.8897C120.425 49.1508 120.407 50.4542 119.919 51.6164C119.43 52.7786 119.954 54.831 118.701 54.9193" fill="white"/>
<path d="M97.6983 53.093C96.8419 51.4254 96.4497 49.5589 96.5625 47.6883C96.684 45.8129 97.5316 44.0583 98.9261 42.7958C100.479 41.4641 102.585 40.9943 104.619 40.8318C106.654 40.6693 108.716 40.7682 110.719 40.369C112.377 40.0296 113.951 39.3637 115.348 38.4103C116.745 37.4568 117.938 36.2349 118.857 34.816C118.984 36.3879 119.112 37.9952 118.811 39.5354C118.51 41.0755 117.718 42.6086 116.38 43.4211C118.001 42.6687 117.824 44.4349 117.474 45.4911C118.277 46.4661 120.226 46.6286 120.325 47.8897C120.425 49.1508 120.407 50.4542 119.919 51.6164C119.43 52.7786 119.954 54.831 118.701 54.9193" stroke="white" stroke-miterlimit="10"/>
<path d="M116.975 43.1879C116.975 43.1879 124.405 43.8415 119.119 54.9475L116.975 43.1879Z" fill="white"/>
<path d="M62.5105 202.764H39.5366V225.866H62.5105V202.764Z" fill="url(#paint4_linear)"/>
<path d="M60.5254 204.756H41.5144V223.874H60.5254V204.756Z" fill="#EF0404"/>
<path d="M136.18 107.168H80.7289V111.153H136.18V107.168Z" fill="black"/>
<path d="M174.206 112.746H80.7289V116.73H174.206V112.746Z" fill="#E0E0E0"/>
<path d="M174.206 118.32H80.7289V122.305H174.206V118.32Z" fill="#E0E0E0"/>
<path d="M136.18 156.958H80.7289V160.943H136.18V156.958Z" fill="black"/>
<path d="M174.206 162.532H80.7289V166.517H174.206V162.532Z" fill="#E0E0E0"/>
<path d="M174.206 168.11H80.7289V172.095H174.206V168.11Z" fill="#E0E0E0"/>
<path d="M136.18 206.745H80.7289V210.729H136.18V206.745Z" fill="#EF0404"/>
<path d="M174.206 212.322H80.7289V216.307H174.206V212.322Z" fill="#E0E0E0"/>
<path d="M174.206 217.9H80.7289V221.885H174.206V217.9Z" fill="#E0E0E0"/>
<defs>
<linearGradient id="paint0_linear" x1="121.242" y1="264.932" x2="140.399" y2="29.0205" gradientUnits="userSpaceOnUse">
<stop stop-color="#808080" stop-opacity="0.25"/>
<stop offset="0.54" stop-color="#808080" stop-opacity="0.12"/>
<stop offset="1" stop-color="#808080" stop-opacity="0.1"/>
</linearGradient>
<linearGradient id="paint1_linear" x1="184755" y1="179945" x2="151269" y2="5281.99" gradientUnits="userSpaceOnUse">
<stop stop-color="#808080" stop-opacity="0.25"/>
<stop offset="0.54" stop-color="#808080" stop-opacity="0.12"/>
<stop offset="1" stop-color="#808080" stop-opacity="0.1"/>
</linearGradient>
<linearGradient id="paint2_linear" x1="90044.2" y1="170240" x2="90044.2" y2="11771.7" gradientUnits="userSpaceOnUse">
<stop stop-color="#808080" stop-opacity="0.25"/>
<stop offset="0.54" stop-color="#808080" stop-opacity="0.12"/>
<stop offset="1" stop-color="#808080" stop-opacity="0.1"/>
</linearGradient>
<linearGradient id="paint3_linear" x1="110.196" y1="87.561" x2="107.378" y2="33.1056" gradientUnits="userSpaceOnUse">
<stop stop-opacity="0.12"/>
<stop offset="0.55" stop-opacity="0.09"/>
<stop offset="1" stop-opacity="0.02"/>
</linearGradient>
<linearGradient id="paint4_linear" x1="8222.13" y1="14974.4" x2="8222.13" y2="13463.5" gradientUnits="userSpaceOnUse">
<stop stop-color="#808080" stop-opacity="0.25"/>
<stop offset="0.54" stop-color="#808080" stop-opacity="0.12"/>
<stop offset="1" stop-color="#808080" stop-opacity="0.1"/>
</linearGradient>
</defs>
</svg>
