<svg width="428" height="317" viewBox="0 0 428 317" fill="none" xmlns="http://www.w3.org/2000/svg">
<g clip-path="url(#clip0)">
<path d="M394.302 77.0582C345.724 9.65591 243.107 -17.6854 142.187 11.7618C88.8334 27.3297 37.3907 58.5222 11.8969 118.921C-33.676 226.89 62.01 261.373 124.578 272.363C154.833 277.677 183.327 286.604 209.366 298.758C256.212 320.624 339.133 339.999 401.66 248.918C446.981 182.903 426.659 121.955 394.302 77.0582Z" fill="white"/>
<path d="M112.668 90.3935C112.532 89.3222 112.257 88.2731 111.85 87.2725C111.798 87.0833 111.707 86.9069 111.583 86.7546C111.459 86.6023 111.305 86.4774 111.13 86.3879C110.896 86.3273 110.65 86.3245 110.415 86.38L106.746 86.9398C106.439 86.9538 106.144 87.0677 105.908 87.2642C105.431 87.7653 105.901 88.5723 105.886 89.2637C105.87 90.0412 105.177 90.6722 104.426 90.881C103.659 91.0355 102.868 91.0257 102.105 90.8523L96.9745 90.0573C98.4856 89.5762 99.8306 88.6813 100.856 87.4745C101.531 86.677 101.89 85.1879 100.915 84.8103C100.625 84.7309 100.322 84.7067 100.023 84.7389C97.6989 84.7569 95.8696 82.8216 93.6934 82.0065C92.3005 81.5186 90.7886 81.4823 89.3738 81.9028C87.959 82.3234 86.7138 83.1792 85.8163 84.348L88.5495 84.4794C88.8067 84.4652 89.0617 84.533 89.2776 84.673C89.8766 85.1637 89.1319 86.1063 89.2163 86.8747C89.3259 87.8731 90.6553 88.0862 91.6575 88.1872C92.6596 88.2881 93.9309 89.1 93.4489 89.9818C88.412 91.7117 83.2865 86.6002 77.9968 87.2294C76.658 87.3887 75.3938 87.9131 74.0867 88.2429C66.1019 90.2573 57.8471 84.8826 49.6902 86.0209C47.8769 86.3291 46.0946 86.7978 44.3647 87.4214C43.2545 87.7848 42.0965 88.1776 41.2899 89.0206C40.4832 89.8635 40.1762 91.3051 40.9404 92.1865C38.8342 92.3594 36.7139 92.1585 34.678 91.5929C35.2286 91.8981 35.6866 92.3453 36.0039 92.8878C36.3213 93.4303 36.4864 94.048 36.4818 94.676C33.1932 95.2108 29.9916 96.1842 26.9632 97.57C27.5284 98.5072 28.1886 99.3841 28.9334 100.187L24.77 102.854C26.1766 103.207 26.9038 105.12 26.0859 106.314C27.5443 105.667 28.4482 103.994 30.0078 103.654C31.0295 103.432 32.0691 103.849 33.0384 104.24C34.0077 104.632 35.073 105.011 36.0764 104.718C37.0798 104.424 37.8199 103.126 37.1823 102.3C41.4711 101.052 45.9034 100.362 50.3695 100.245C50.7141 100.202 51.0635 100.268 51.3682 100.434C51.9496 100.837 51.7966 101.705 51.7653 102.41C51.734 103.115 52.285 104.041 52.9168 103.724C52.1735 104.366 52.8089 105.576 53.522 106.252C54.2351 106.928 55.0946 107.861 54.658 108.74C54.5441 108.969 54.3508 109.153 54.2412 109.384C53.9176 110.068 54.4314 110.864 55.0375 111.318C55.6435 111.772 56.3859 112.089 56.8069 112.718C57.2279 113.346 57.0367 114.446 56.2839 114.534L54.1441 111.825C53.4131 112.581 52.9119 113.528 52.6987 114.556C54.9677 116.406 55.309 120.17 53.4094 122.396C52.4386 123.533 51.0582 124.224 49.8533 125.111C48.6484 125.998 47.5336 127.261 47.5366 128.754C47.5418 131.334 47.3304 133.731 48.3 136.123C50.0879 140.534 52.1521 144.828 54.4804 148.98C55.0918 150.071 55.882 151.266 57.1206 151.453C55.5553 147.654 54.1461 143.795 52.8932 139.877C53.7093 139.88 54.6523 139.944 55.1307 140.604C55.5268 141.15 55.4417 141.892 55.5648 142.554C55.7214 143.196 55.9824 143.808 56.3376 144.366L63.8127 157.643C64.4323 158.743 65.1431 159.925 66.3274 160.37C67.0846 160.655 67.9607 160.602 68.6576 161.012C69.2039 161.334 69.5718 161.904 70.1287 162.207C71.7034 163.064 73.8931 161.421 75.3646 162.444C75.7854 162.736 76.0531 163.201 76.4408 163.536C77.7999 164.709 80.0294 163.924 81.5983 164.799C82.6095 165.364 83.1335 166.492 83.6729 167.515C85.0239 170.076 87.2098 172.586 90.1051 172.79C91.0145 172.854 91.9435 172.682 92.8325 172.883C93.7215 173.085 94.5966 173.859 94.4539 174.757C94.2092 176.296 94.972 177.982 94.7671 179.527C94.394 182.341 90.3904 183.578 90.0465 186.396C89.9712 187.013 90.089 187.65 89.9417 188.254C89.7611 188.994 89.2036 189.597 89.0054 190.333C88.63 191.727 89.6319 193.115 90.7325 194.053C91.833 194.991 93.1459 195.8 93.7476 197.113C94.3836 198.501 94.0712 200.119 94.278 201.631C94.7295 204.932 97.5888 207.379 100.531 208.957C101.428 209.437 102.39 209.903 102.971 210.737C103.728 211.825 103.653 213.26 103.906 214.561C104.525 217.746 107.214 220.37 107.29 223.614C107.345 225.919 106.059 228.011 105.292 230.186C104.572 232.27 104.311 234.484 104.528 236.678C104.745 238.872 105.433 240.993 106.547 242.897C107.121 243.864 107.808 244.776 108.214 245.824C108.939 247.695 108.704 249.821 109.373 251.713C110.256 254.214 112.685 256.279 112.452 258.921C113.555 261.203 115.989 262.325 118.438 263.005L122.825 264.222C123.665 264.456 124.543 264.691 125.398 264.522C126.254 264.353 127.07 263.645 127.048 262.775C124.897 262.292 122.676 261.777 120.902 260.47C119.129 259.162 117.914 256.834 118.587 254.74C118.899 253.769 119.563 252.647 118.932 251.845C118.57 251.386 117.909 251.266 117.502 250.846C116.866 250.192 117.084 249.094 117.542 248.306C117.999 247.517 118.659 246.813 118.844 245.921C118.937 245.422 118.874 244.906 118.665 244.443C118.456 243.981 118.11 243.593 117.674 243.332C118.487 243.025 119.227 242.552 119.845 241.942C120.417 241.292 120.68 240.289 120.231 239.55C121.565 239.719 123.14 239.801 124.016 238.784C124.715 237.971 124.667 236.756 124.391 235.722C124.115 234.687 123.648 233.682 123.633 232.611C126.711 232.757 129.795 232.652 132.855 232.299C132.413 230.813 131.407 229.557 130.051 228.798C131.438 228.564 132.7 226.91 133.138 225.577C133.576 224.245 133.465 222.795 133.194 221.419C133.09 221.065 133.076 220.69 133.152 220.33C133.308 219.833 133.797 219.531 134.249 219.272L141.13 215.332C141.54 215.127 141.912 214.853 142.23 214.522C142.951 213.678 142.844 212.403 142.475 211.357C142.106 210.311 141.514 209.328 141.372 208.228C140.947 204.939 144.478 202.58 145.669 199.484C146.137 198.269 146.232 196.948 146.323 195.65C146.42 194.255 146.427 192.636 145.354 191.737C144.324 190.876 142.716 191.068 141.639 190.267C140.652 189.532 140.311 188.106 139.232 187.512C138.253 186.974 137.025 187.316 135.935 187.063C134.017 186.617 132.809 184.412 130.85 184.208C129.745 184.093 128.494 184.632 127.588 183.99C126.79 183.424 126.758 182.287 126.606 181.323C126.339 179.823 125.619 178.442 124.541 177.363C123.463 176.285 122.079 175.562 120.576 175.291C119.437 175.109 118.196 175.178 117.227 174.554C116.245 173.922 115.795 172.738 115.023 171.862C113.78 170.45 111.823 169.949 109.989 169.519L102.53 167.771C101.206 167.46 99.4992 167.296 98.7886 168.452C98.5783 168.892 98.4294 169.359 98.346 169.84C98.0798 170.709 97.544 171.472 96.8156 172.019C96.0872 172.566 95.2037 172.868 94.2922 172.883C93.6671 171.819 92.6543 171.038 91.4652 170.701C90.7089 170.491 89.8993 170.468 89.1779 170.159C88.785 169.968 88.4355 169.698 88.1505 169.368C87.8656 169.037 87.6513 168.652 87.5208 168.236C87.3903 167.82 87.3463 167.382 87.3915 166.948C87.4367 166.515 87.5702 166.095 87.7838 165.715C88.2138 164.951 88.3799 164.068 88.2564 163.201C88.1329 162.334 87.7266 161.532 87.1004 160.918C85.8319 159.782 83.997 159.508 82.2961 159.621C81.8506 158.652 82.5955 157.559 83.3981 156.854C84.2008 156.15 85.1754 155.458 85.3502 154.406C85.6252 152.751 83.508 151.495 81.9006 151.988C80.2931 152.481 79.2671 154.038 78.5889 155.573C78.1997 156.453 77.8689 157.381 77.2551 158.123C76.6413 158.866 75.6528 159.397 74.7179 159.159C73.3942 158.822 72.883 157.253 72.5901 155.923C72.197 154.138 71.8017 152.328 71.8841 150.502C71.9664 148.676 72.5837 146.801 73.934 145.565C76.1343 143.551 79.5097 143.749 82.4791 144.07C81.7776 143.282 81.951 141.954 82.7016 141.212C83.0978 140.861 83.574 140.611 84.0887 140.485C84.6035 140.359 85.1413 140.36 85.6556 140.488C86.5504 140.674 87.3565 141.154 87.9441 141.852C88.7879 142.878 89.0279 144.263 89.6657 145.428C90.3035 146.592 91.7377 147.585 92.9116 146.961C93.9256 146.421 94.0865 145.019 93.8342 143.901C93.5818 142.783 93.0458 141.696 93.1372 140.554C93.3117 138.374 95.5777 137.062 97.5774 136.164C99.5771 135.266 101.867 134.059 102.184 131.895C102.194 131.472 102.275 131.053 102.421 130.655C102.643 130.303 102.951 130.014 103.316 129.815C109.152 125.969 115.086 122.077 121.756 119.975C122.103 119.866 122.144 119.987 122.497 119.902C122.992 119.617 122.664 118.827 122.19 118.51C121.715 118.192 121.081 117.948 120.961 117.391C120.872 116.981 121.114 116.579 121.177 116.164C121.332 115.146 120.11 114.206 119.161 114.613C118.626 113.906 119.686 113.084 120.543 112.848C123.117 112.142 125.76 111.711 128.426 111.564C128.734 111.515 129.049 111.569 129.323 111.716C129.771 112.026 129.713 112.735 129.396 113.176C129.079 113.618 128.585 113.895 128.19 114.269C127.758 114.688 127.449 115.218 127.299 115.801C127.148 116.383 127.161 116.995 127.336 117.571C128.727 118.277 130.24 119.004 131.782 118.755C133.323 118.506 134.691 116.779 133.967 115.4C133.292 114.116 131.265 113.826 130.917 112.418C130.509 110.77 132.849 109.305 132.322 107.69C132.091 106.983 131.384 106.567 130.842 106.057C130.201 105.431 129.766 104.627 129.592 103.749C129.418 102.872 129.515 101.963 129.869 101.142C128.986 101.296 128.078 101.238 127.222 100.971C126.366 100.704 125.587 100.236 124.95 99.6067C123.773 98.4227 122.835 96.555 121.164 96.608C119.631 96.6566 118.31 98.4401 116.877 97.896C116.524 97.7621 116.152 97.4897 115.81 97.6493C115.698 97.7218 115.604 97.8188 115.535 97.9328C115.466 98.0468 115.424 98.175 115.413 98.3076C115.048 100.044 115.675 102.023 114.726 103.524C113.693 105.157 111.303 105.384 110.051 106.856C109.371 107.656 109.108 108.733 108.483 109.576C107.858 110.419 106.531 110.955 105.782 110.22C106.15 109.465 106.251 108.607 106.067 107.787C105.883 106.967 105.426 106.233 104.77 105.706C104.074 105.253 103.323 104.889 102.536 104.623C101.657 104.251 100.82 103.786 100.041 103.236C99.6502 103.001 99.333 102.663 99.1244 102.258C98.9594 101.752 98.9817 101.204 99.1871 100.713C99.5673 99.6255 100.238 98.6626 101.127 97.9279C102.016 97.1932 103.089 96.7146 104.231 96.5437C105.23 96.4082 106.392 96.456 107.053 95.6974C107.402 95.296 107.586 94.6892 108.093 94.5261C108.418 94.4611 108.755 94.5025 109.054 94.6441L112.781 95.9521C113.197 96.1393 113.654 96.2148 114.108 96.1711C114.334 96.1408 114.539 96.0268 114.683 95.8518C114.828 95.6769 114.9 95.454 114.887 95.2278C114.768 94.6107 113.815 94.3146 113.902 93.6921C113.951 93.4904 114.059 93.3081 114.214 93.1693C115.559 91.7419 117.204 90.6287 119.031 89.9094C120.858 89.19 122.821 88.8823 124.782 89.0083C125.252 89.7786 124.508 90.6908 123.889 91.3484C123.27 92.006 122.773 93.181 123.521 93.6872C123.828 93.8433 124.169 93.9199 124.513 93.91C125.431 94.0338 126.323 94.3035 127.155 94.7088C128.442 95.2676 129.706 95.879 130.944 96.5431C130.835 95.7289 130.73 94.8712 131.04 94.1099C131.349 93.3486 132.229 92.7515 132.997 93.048C133.737 93.3337 134.117 94.3113 134.906 94.4009C135.958 94.5203 136.374 92.9702 135.934 92.0095C135.494 91.0487 134.624 90.2442 134.552 89.1906C134.503 88.4799 134.774 87.5984 134.205 87.168C134.002 87.0388 133.772 86.9584 133.533 86.9331L119.316 84.3245C118.471 84.1696 117.252 84.2883 117.214 85.1434C117.193 85.6207 117.621 86.0929 117.432 86.5318C117.229 87.0002 116.565 86.9574 116.082 87.1231C115.331 87.3801 114.955 88.2687 115.027 89.0566C115.159 89.8395 115.463 90.5837 115.917 91.2356C114.992 90.85 113.592 90.7791 112.668 90.3935Z" fill="black"/>
<path d="M101.324 78.3597C100.427 78.0639 99.4611 78.0501 98.5565 78.3202C97.6519 78.5904 96.8524 79.1314 96.2666 79.8699C96.0325 80.1772 95.8359 80.6009 96.0318 80.9336C96.3128 81.4107 97.0287 81.2223 97.5566 81.0516C98.3324 80.7753 99.1768 80.7552 99.9649 80.9943C100.461 81.164 100.904 81.4639 101.402 81.6272C101.644 81.7282 101.909 81.7616 102.169 81.7237C102.429 81.6859 102.674 81.5782 102.877 81.4122C103.219 81.0648 103.24 80.5246 103.241 80.0381C103.264 79.8753 103.251 79.7092 103.202 79.5521C103.154 79.395 103.07 79.2507 102.958 79.1298C102.759 79.0147 102.535 78.9487 102.305 78.9372C101.79 78.8421 101.324 78.5708 100.988 78.1701" fill="black"/>
<path d="M106.45 76.9365C106.249 76.9256 106.049 76.9664 105.869 77.0549C105.689 77.1433 105.534 77.2766 105.421 77.4418C105.307 77.607 105.238 77.7985 105.22 77.9981C105.202 78.1976 105.236 78.3984 105.318 78.5812C105.934 78.7487 106.578 78.7906 107.211 78.7042C107.526 78.6554 107.82 78.5144 108.056 78.2992C108.291 78.084 108.457 77.8041 108.534 77.4949C107.789 77.63 107.02 77.4836 106.377 77.0842" fill="black"/>
<path d="M123.65 74.5596C121.973 74.9152 120.344 75.4669 118.796 76.2035C119.526 76.4831 120.146 76.9889 120.565 77.6464C120.984 78.3039 121.181 79.0783 121.125 79.8555C121.06 80.1538 121.067 80.4635 121.147 80.7584C121.326 81.1893 121.842 81.3509 122.296 81.4615C123.112 81.7091 123.964 81.8175 124.816 81.7822C125.242 81.76 125.656 81.6321 126.02 81.4102C126.385 81.1883 126.687 80.8794 126.902 80.5113C127.025 80.162 127.17 79.8206 127.335 79.489C128.424 77.8361 131.657 79.8347 132.826 78.2372C133.238 77.6744 133.2 76.8273 133.737 76.3814C134.014 76.1871 134.336 76.0647 134.673 76.0252C137.023 75.5596 139.397 75.2225 141.784 75.0153C142.915 74.9172 144.389 74.5123 144.398 73.3803C140.138 72.5461 135.721 73.1386 131.834 75.0657C130.433 75.7652 128.581 77.2367 127.231 76.3093C126.726 75.9621 126.751 75.0271 126.056 74.6366C125.345 74.2374 124.404 74.3998 123.65 74.5596Z" fill="black"/>
<path d="M137.581 77.1574L139.581 77.5405C139.213 77.5243 138.846 77.5865 138.503 77.723C138.161 77.8595 137.852 78.0672 137.597 78.3322C137.342 78.5972 137.146 78.9134 137.024 79.2597C136.901 79.6061 136.853 79.9746 136.884 80.3407C138.757 80.9645 140.799 80.3574 142.771 80.4404C144.744 80.5233 147.039 81.9283 146.702 83.8682C146.601 84.4547 146.261 85.0409 146.437 85.6095C146.561 86.008 146.914 86.2908 147.113 86.6578C147.527 87.4226 147.196 88.3901 146.672 89.0853C146.149 89.7806 145.445 90.3353 144.986 91.0742C143.843 92.9119 144.492 95.2877 145.173 97.3407C145.37 98.1164 145.733 98.8403 146.238 99.4621C147.247 100.531 148.891 100.624 150.363 100.646C151.434 100.661 152.662 100.609 153.339 99.781C154.224 98.7003 153.605 97.0143 154.188 95.746C154.717 94.5941 156.064 94.0999 157.285 93.7494C159.522 93.1074 161.801 92.5615 163.916 91.5916C166.542 90.3873 168.996 88.5105 171.882 88.3555C172.692 88.312 173.522 88.4073 174.301 88.1861C175.081 87.9649 175.822 87.2925 175.763 86.4861C175.713 85.7971 175.128 85.2912 174.671 84.7718C174.215 84.2524 173.856 83.4537 174.276 82.9042L181.841 81.4953C181.304 80.0381 180.887 78.119 182.119 77.1705C182.563 76.8283 183.159 76.6915 183.537 76.2778C184.182 75.5726 183.858 74.3579 183.113 73.7583C182.368 73.1586 181.361 73.0194 180.408 72.9403C177.09 72.6657 173.754 72.8472 170.431 73.0288C163.934 73.3839 157.438 73.739 150.941 74.0941C149.633 74.1655 148.123 74.0563 146.924 74.5012C145.908 74.8779 145.186 75.5693 144.025 75.8122C141.881 76.2606 139.521 75.9572 137.581 77.1574Z" fill="black"/>
<path d="M173.406 92.9183C173.202 92.8861 172.994 92.9332 172.824 93.0499C172.711 93.1733 172.645 93.3311 172.634 93.4974C172.505 94.2315 172.659 94.9871 173.065 95.6129C173.272 95.9199 173.557 96.1661 173.891 96.326C174.226 96.4858 174.597 96.5535 174.967 96.522C175.867 96.4075 176.531 95.6416 177.358 95.2678C178.634 94.6922 184.053 93.795 180.304 91.7759C179.013 91.08 178.178 91.6943 177.16 92.1526C176.002 92.7434 174.704 93.0082 173.406 92.9183Z" fill="black"/>
<path d="M206.235 76.0175C205.797 76.1958 205.431 76.5136 205.194 76.9213C205.084 77.1283 205.059 77.3693 205.123 77.5944C205.187 77.8196 205.335 78.0116 205.537 78.1309C205.7 78.19 205.873 78.2174 206.047 78.2116L207.827 78.2647C208.583 78.2872 209.527 78.4477 209.73 79.1742C209.881 79.7136 209.543 80.4067 209.951 80.7922C210.126 80.9271 210.336 81.0089 210.556 81.0276C211.142 81.1777 211.755 81.1974 212.349 81.0853C213.644 80.739 212.964 79.951 213.372 79.2494C213.996 78.1758 213.887 78.8257 214.987 78.2104C215.799 77.756 216.848 76.9317 216.17 75.7736C214.992 73.7597 207.974 75.1523 206.235 76.0175Z" fill="black"/>
<path d="M241.359 75.005L240.326 75.1425C237.995 75.4526 235.652 75.7655 233.408 76.4632C234.379 76.8462 235.398 77.0956 236.437 77.2045C237.009 77.2324 237.577 77.313 238.135 77.445C239.126 77.7393 240.125 78.4991 241.082 78.1099C241.676 77.8685 241.87 77.252 242.362 76.9253C242.701 76.6997 243.99 76.3346 244.134 76.1069C245.298 74.266 242.254 74.8859 241.359 75.005Z" fill="black"/>
<path d="M245.897 79.688C244.516 80.4575 243.236 81.3927 242.083 82.4725C241.598 82.9276 241.102 83.4936 241.146 84.1566C241.204 85.0378 242.146 85.5489 242.961 85.8932L246.265 87.2877C246.665 86.7245 246.299 85.9471 245.884 85.3936C245.47 84.8402 244.978 84.1998 245.161 83.5338C245.37 82.7738 246.299 82.5148 247.079 82.3838C248.348 82.1705 251.774 82.1876 251.362 80.1471C250.877 77.7428 247.171 78.9775 245.897 79.688Z" fill="black"/>
<path d="M245.232 215.75C244.918 216.658 244.888 217.727 245.432 218.52C246.042 219.409 247.264 219.741 248.321 219.515C249.373 219.236 250.311 218.635 251.003 217.796C251.636 217.093 252.156 216.297 252.546 215.437C253.09 214.096 253.474 212.695 253.689 211.265L254.715 205.895C254.944 204.695 254.935 201.016 252.723 202.215C252.119 202.542 250.72 205.128 250.086 205.861C248.945 207.182 248.794 208.464 248.193 210.065C247.441 212.07 245.928 213.742 245.232 215.75Z" fill="black"/>
<path d="M362.065 243.228C361.341 242.946 360.638 242.613 359.963 242.23C359.285 244.087 358.925 246.045 358.897 248.021L363.85 245.226C364.595 244.806 365.44 244.222 365.424 243.368C365.43 243.263 365.409 243.157 365.36 243.063C365.312 242.969 365.239 242.89 365.15 242.834C365.04 242.79 364.92 242.776 364.803 242.793C364.068 242.854 363.399 243.214 362.706 243.465C362.013 243.716 361.203 243.848 360.567 243.476" fill="black"/>
<path d="M388.192 244.887C387.649 245.035 387.118 245.225 386.604 245.455C385.467 246.032 384.694 247.127 383.671 247.887C382.693 248.614 381.514 249.013 380.358 249.401C380.017 249.7 380.174 250.304 380.543 250.568C380.94 250.793 381.396 250.895 381.851 250.861C383.053 250.888 384.319 250.899 385.371 250.32C385.965 249.937 386.519 249.498 387.029 249.009C388.259 247.985 389.737 247.309 391.2 246.657C391.733 246.456 392.225 246.163 392.654 245.79C393.573 244.887 393.638 243.494 392.312 243.186C391.241 242.938 389.212 244.558 388.192 244.887Z" fill="black"/>
<path d="M399.736 237.368C399.796 236.746 399.713 236.12 399.494 235.535C399.275 234.95 398.926 234.423 398.472 233.992C398.459 235.236 398.421 236.56 397.72 237.588C397.22 238.321 396.437 238.815 395.889 239.513C395.342 240.211 395.099 241.317 395.741 241.929C396.151 242.24 396.651 242.412 397.167 242.419C398.445 242.569 399.925 242.652 400.821 241.732C401.31 241.229 401.548 240.485 402.145 240.115C402.367 240.022 402.566 239.881 402.726 239.701C402.972 239.31 402.581 238.795 402.14 238.655C401.699 238.514 401.214 238.58 400.771 238.446C400.328 238.313 399.922 237.816 400.149 237.414" fill="black"/>
<path d="M379.219 191.786C378.548 191.948 377.854 191.989 377.169 191.906C376.031 191.698 375.145 190.843 374.227 190.141C372.043 188.483 369.388 187.559 366.644 187.5C364.147 187.453 361.628 188.127 359.176 187.657C359.336 188.545 360.099 189.211 360.912 189.607C361.726 190.003 362.623 190.203 363.441 190.591C364.75 191.218 365.788 192.295 366.365 193.624C366.628 194.237 366.794 194.904 367.193 195.439C368.008 196.532 369.553 196.772 370.916 196.683C372.694 196.566 374.55 196.056 376.204 196.717C377.469 197.222 378.374 198.326 379.431 199.185C380.487 200.043 381.975 200.68 383.188 200.061C381.928 199.654 380.831 198.856 380.058 197.784C379.285 196.712 378.876 195.422 378.89 194.102C380.08 194.211 383.506 194.168 383.322 192.153C383.166 190.445 380.24 191.601 379.219 191.786Z" fill="black"/>
<path d="M363.656 205.684C363.867 204.529 365.023 203.508 364.663 202.39C364.414 201.617 363.515 201.236 362.701 201.216C361.887 201.197 361.087 201.439 360.273 201.462C359.743 201.434 359.212 201.441 358.683 201.484C357.067 201.749 356.071 203.438 354.548 204.039C353.622 204.404 352.581 204.334 351.618 204.587C349.432 205.16 348.049 207.219 346.521 208.88C344.052 211.552 340.835 213.422 337.287 214.25C336.044 214.537 334.708 214.72 333.72 215.525C332.412 216.591 332.089 218.418 331.798 220.078C330.994 224.661 329.765 229.16 328.127 233.517L333.318 234.178C334.305 234.303 335.328 234.426 336.279 234.135C336.97 233.875 337.624 233.527 338.226 233.1C340.538 231.669 343.125 230.738 345.821 230.367C347.18 230.181 348.605 230.147 349.881 230.65C351.157 231.154 352.251 232.297 352.358 233.661C352.91 233.49 353.498 233.471 354.059 233.607C354.62 233.743 355.134 234.029 355.545 234.434C356.358 235.26 356.891 236.319 357.067 237.463C357.204 238.171 357.341 239.019 358 239.316C358.537 239.559 359.154 239.298 359.742 239.251C361.738 239.092 363.394 241.412 365.356 241.012C367.46 240.584 367.976 237.442 370.028 236.813C371.207 236.451 372.861 236.891 373.425 235.798C373.923 234.834 372.93 233.722 373.032 232.643C373.158 231.314 374.73 230.75 375.942 230.183C380.119 228.229 382.102 222.623 380.077 218.488C378.878 216.038 376.518 214.11 376.082 211.418C375.747 209.348 376.566 206.933 375.242 205.303C374.568 204.474 373.428 204.017 373.027 203.027C372.775 202.405 372.876 201.698 372.74 201.04C372.604 200.382 372.029 199.694 371.377 199.865C369.486 200.36 368.883 206.185 367.87 207.6C366.331 209.752 363.172 208.334 363.656 205.684Z" fill="black"/>
<path d="M328.701 193.987C328.055 193.806 327.349 193.628 326.73 193.886C326.111 194.145 325.749 195.051 326.246 195.501C330.134 195.35 334.046 195.2 337.901 195.726C342.342 196.333 346.738 197.835 351.199 197.393C348.651 196.644 346.06 196.044 343.442 195.599L339.074 194.767C337.903 194.522 336.719 194.34 335.528 194.22C333.036 194.015 331.151 194.672 328.701 193.987Z" fill="black"/>
<path d="M332.593 180.485C332.271 180.458 331.871 180.435 331.704 180.711C331.544 180.976 331.727 181.325 331.641 181.621C331.524 182.026 330.992 182.13 330.573 182.075C330.154 182.02 329.7 181.888 329.329 182.089C329.141 182.217 328.999 182.403 328.926 182.618C328.852 182.834 328.851 183.067 328.921 183.283C329.073 183.712 329.319 184.103 329.64 184.426C330.19 185.116 330.815 185.742 331.506 186.291C332.842 187.275 334.652 187.749 335.494 189.177C335.613 189.453 335.795 189.698 336.027 189.891C336.431 190.147 336.958 189.952 337.393 189.754L338.917 189.06C339.192 188.961 339.437 188.795 339.63 188.576C339.979 188.105 339.765 187.435 339.472 186.927C339.18 186.419 338.806 185.894 338.868 185.311C338.98 184.274 340.319 183.876 340.869 182.988C341.424 182.093 341.063 180.94 341.127 179.889C341.201 178.661 341.975 177.063 340.73 176.145C339.671 175.365 338.66 176.086 337.9 176.947C336.297 178.763 335.539 180.73 332.593 180.485Z" fill="black"/>
<path d="M341.849 162.13C342.37 163.124 343.455 163.717 344.023 164.685C344.638 165.735 344.568 167.09 345.236 168.107C345.921 169.15 347.299 169.704 347.683 170.891C348.102 172.187 347.151 173.761 347.909 174.893C348.051 175.078 348.229 175.232 348.433 175.345C348.638 175.457 348.863 175.527 349.095 175.548C349.328 175.569 349.562 175.542 349.783 175.468C350.004 175.395 350.208 175.276 350.381 175.12C350.701 174.773 350.872 174.315 350.858 173.843C350.844 173.372 350.646 172.925 350.306 172.598C349.857 172.189 349.212 172.013 348.837 171.536C348.642 171.261 348.512 170.945 348.457 170.613C348.253 169.653 348.285 168.659 348.552 167.715C348.653 167.475 348.678 167.211 348.625 166.957C348.457 166.468 347.792 166.433 347.326 166.206C346.267 165.691 346.293 164.2 346.478 163.04C346.355 163.813 343.595 162.499 343.306 162.061C342.732 161.192 343.044 159.515 342.93 158.554C341.691 159.149 341.213 160.915 341.849 162.13Z" fill="black"/>
<path d="M314.045 177.423C313.536 176.854 312.768 176.259 312.085 176.602C311.564 176.864 311.421 177.583 311.625 178.128C311.874 178.657 312.257 179.112 312.736 179.449C314.16 180.619 315.692 181.675 316.934 183.036C319.156 185.471 320.333 188.756 322.749 190.999C323.235 191.519 323.878 191.866 324.58 191.987C325.284 192.052 326.075 191.603 326.156 190.903C326.223 190.326 325.819 189.809 325.425 189.382C324.486 188.364 323.459 187.427 322.572 186.363C322.163 185.954 321.906 185.419 321.843 184.844C321.839 184.272 322.363 183.672 322.919 183.814C322.242 183.641 321.74 182.517 320.747 182.306C319.917 182.129 319.716 182.642 318.728 182.219C316.843 181.413 315.365 178.896 314.045 177.423Z" fill="black"/>
<path d="M358.326 122.057C357.785 121.896 357.254 121.707 356.734 121.49C355.335 121.071 353.483 122.096 353.67 123.541C353.794 124.501 354.69 125.148 355.184 125.981C355.918 127.216 355.723 128.782 355.337 130.165C355.242 130.593 355.062 130.998 354.808 131.355C354.452 131.732 354.026 132.038 353.554 132.254C351.664 133.311 349.998 134.723 348.647 136.411C348.5 136.567 348.398 136.759 348.35 136.968C348.284 137.456 348.775 137.811 349.053 138.218C349.671 139.122 349.225 140.338 349.286 141.43C349.276 141.584 349.307 141.739 349.374 141.878C349.441 142.017 349.543 142.137 349.669 142.227C350.042 142.415 350.483 142.095 350.684 141.731C351.354 140.521 350.85 138.58 352.106 137.996C352.343 137.886 352.631 137.84 352.79 137.631C353.041 137.301 352.799 136.812 352.926 136.418C353.117 135.825 353.93 135.799 354.554 135.825C355.628 135.87 356.702 135.727 357.727 135.404C358.129 135.308 358.495 135.097 358.778 134.797C359.153 134.33 359.12 133.666 359.045 133.072C358.669 130.11 357.728 127.248 356.273 124.639C357.377 124.779 358.577 124.901 359.529 124.328C360.062 124.007 360.702 123.046 360.437 122.393C360.019 121.36 359.264 122.229 358.326 122.057Z" fill="black"/>
<path d="M216.879 138.345C217.011 139.051 217.141 139.794 216.909 140.474C216.677 141.154 215.947 141.722 215.257 141.514C214.722 141.352 214.413 140.816 214.033 140.407C211.92 138.133 207.154 139.449 205.849 136.636C205.316 135.487 205.678 134.112 205.315 132.9C205.085 132.199 204.629 131.594 204.018 131.18C203.407 130.766 202.675 130.566 201.937 130.612C201.264 130.708 200.609 130.903 199.993 131.19C195.867 132.838 191.535 133.918 187.116 134.402C186.276 134.453 185.445 134.603 184.642 134.851C182.827 135.506 181.587 137.184 180.705 138.895C179.823 140.607 179.172 142.46 177.989 143.98C176.746 145.578 175.004 146.697 173.379 147.908C172.753 148.31 172.232 148.855 171.858 149.497C171.506 150.218 171.526 151.057 171.553 151.858L171.885 161.595C171.928 162.847 171.982 164.144 172.544 165.265C173.246 166.665 174.632 167.581 175.594 168.817C176.576 170.088 177.087 171.658 177.042 173.261C177.021 173.905 176.957 174.668 177.461 175.073C177.767 175.271 178.125 175.373 178.49 175.368L191.699 176.446C194.022 176.635 196.597 176.947 198.114 178.712C198.83 179.545 199.405 180.743 200.502 180.833C200.972 180.871 201.43 180.678 201.901 180.641C203.087 180.548 204.13 181.446 204.788 182.435C205.784 183.943 206.236 185.744 206.07 187.542C205.962 188.671 205.612 189.768 205.536 190.9C205.248 195.204 208.908 198.944 208.979 203.258C209.02 205.795 207.812 208.165 206.635 210.415C208.535 213.286 206.979 217.109 207.736 220.466C208.454 223.65 211.116 226.143 211.78 229.34C212.084 230.803 212.101 232.603 213.395 233.357C213.963 233.633 214.592 233.759 215.223 233.722C219.027 233.767 222.787 232.913 226.196 231.231C227.796 230.439 229.454 229.257 229.734 227.498C229.959 226.08 229.237 224.493 229.972 223.257C230.837 221.801 233.054 221.916 234.327 220.797C236.393 218.98 234.782 215.516 235.619 212.899C236.371 210.547 238.961 209.298 240.245 207.187C240.75 206.279 241.112 205.3 241.32 204.282C241.908 201.851 242.274 199.371 242.413 196.873C242.447 195.356 242.56 193.841 242.749 192.335C244.133 183.762 252.634 178.021 255.394 169.784C255.657 168.998 255.781 167.95 255.079 167.505C254.663 167.307 254.191 167.258 253.743 167.365L247.654 168.131C246.898 168.226 246.096 168.315 245.401 168.002C244.707 167.688 244.209 166.812 244.577 166.147C245.612 164.279 243.484 161.919 242.539 160.005C239.994 154.85 236.963 149.949 233.487 145.367C233.265 145.131 233.125 144.829 233.09 144.508L234.819 144.565C234.235 142.478 233.273 140.194 231.239 139.43C230.093 139 228.824 139.149 227.601 139.215C224.099 139.406 220.345 138.879 216.879 138.345Z" fill="black"/>
<path d="M227.604 91.3101C228.521 92.2804 229.547 93.3092 230.873 93.4783C233.215 93.7771 234.899 91.3624 235.971 89.2649C236.011 89.7996 236.258 90.2978 236.66 90.6535C237.063 91.0092 237.588 91.1943 238.126 91.1696C238.704 91.0726 239.255 90.8575 239.746 90.5378C244.386 88.0095 249.583 86.6698 254.871 86.6392C254.82 86.2399 254.919 85.8359 255.15 85.5052C255.38 85.1746 255.725 84.9407 256.118 84.8488C257.193 84.6363 258.162 85.563 258.68 86.5258C259.199 87.4885 259.522 88.6044 260.346 89.325C261.17 90.0456 262.765 90.0142 263.091 88.9707C263.403 87.9689 262.356 87.1145 261.487 86.5239C260.617 85.9332 259.701 84.84 260.286 83.9684C264.729 82.9878 269.199 82.0035 273.745 81.8086C274.519 81.8354 275.29 81.703 276.011 81.4194C276.704 81.0802 277.255 80.3102 277.069 79.5629C276.077 79.7954 275.038 79.7281 274.084 79.3695C273.131 79.0109 272.306 78.3772 271.715 77.5493C278.023 77.0303 284.732 76.5879 290.322 79.5474C290.993 80.9834 287.574 82.1781 288.489 83.4733C288.78 83.8864 289.365 83.9348 289.872 83.9442C293.756 84.0161 297.664 84.0866 301.505 83.5018C302.908 83.2881 304.326 82.9864 305.735 83.1597C308.082 83.4483 310.09 85.01 312.399 85.5191C313.339 85.7264 314.393 85.7334 315.185 85.1883C315.977 84.6432 316.318 83.402 315.669 82.6934C317.843 80.5686 321.452 81.0952 324.32 82.1125C327.188 83.1297 329.906 84.7702 332.941 84.997C335.118 85.1596 337.326 84.5757 339.477 84.9468C340.829 85.18 342.087 85.7796 343.408 86.148C345.907 86.8448 348.55 86.6977 351.144 86.7313C357.764 86.8202 364.311 88.1174 370.462 90.5588C371.262 90.8185 371.995 91.2504 372.61 91.8239C373.182 92.435 373.474 93.3846 373.089 94.1276L366.733 93.2016C367.332 94.3771 368.881 94.5774 370.139 94.9829C371.398 95.3884 372.702 96.7738 371.946 97.8554C370.583 97.4226 369.347 98.7816 368.659 100.032C367.97 101.282 367.131 102.78 365.702 102.856C364.423 102.924 362.876 101.838 362.042 102.808C363.194 104.257 364.181 105.83 364.983 107.497C365.807 109.208 366.394 111.364 365.28 112.904C365.105 113.179 364.84 113.384 364.529 113.485C363.62 113.714 363.029 112.605 362.377 111.933C361.555 111.086 360.312 110.846 359.199 110.448C358.086 110.051 356.914 109.269 356.827 108.094C356.773 107.363 357.16 106.683 357.445 106.007C357.925 104.867 358.134 103.633 358.058 102.4C357.996 101.408 357.717 100.376 357.002 99.6829C356.287 98.9897 355.054 98.7698 354.287 99.4047C353.929 99.7009 353.642 100.175 353.177 100.192C352.356 100.224 351.725 98.7961 351.064 99.2834C351.142 99.8027 351.034 100.333 350.759 100.781C348.788 102.491 345.758 101.767 343.216 102.371C342.008 102.716 340.85 103.22 339.775 103.87C339.373 104.041 339.03 104.328 338.791 104.693C338.474 105.308 338.824 106.095 339.383 106.504C339.976 106.867 340.643 107.094 341.335 107.168C344.434 107.754 347.578 108.66 350.025 110.644C352.471 112.629 354.076 115.91 353.301 118.959L347.19 113.136C347.422 115.581 347.554 118.033 347.585 120.491C347.625 120.971 347.559 121.454 347.391 121.906C346.956 122.865 345.775 123.188 344.74 123.4C344.452 123.454 344.179 123.569 343.939 123.736C343.699 123.903 343.497 124.119 343.346 124.37C343.196 124.621 343.1 124.9 343.066 125.19C343.031 125.48 343.058 125.774 343.146 126.053C343.514 127.248 344.43 128.179 345.27 129.108C346.109 130.036 346.935 131.091 347.045 132.336C347.155 133.581 346.213 134.984 344.962 134.898C344.014 134.832 343.311 133.986 342.907 133.129C342.502 132.271 342.262 131.316 341.654 130.588C339.815 128.382 335.685 129.327 334.038 126.976C333.618 127.451 333.327 128.025 333.192 128.644C333.057 129.263 333.083 129.905 333.268 130.511C334.034 130.033 335.083 130.477 335.659 131.172C336.235 131.868 336.506 132.759 336.958 133.539C337.569 134.593 338.54 135.527 338.625 136.74C338.602 137.199 338.61 137.659 338.648 138.117C338.799 138.852 339.423 139.38 339.855 139.995C340.86 141.425 340.811 143.389 340.162 145.012C339.514 146.634 338.35 147.99 337.197 149.305C335.182 151.601 333.127 153.883 330.739 155.79C330.057 156.334 329.33 156.869 328.906 157.629C328.481 158.39 328.459 159.458 329.112 160.036C328.645 160.06 327.808 160.288 327.341 160.312C327.177 158.445 327.142 156.569 327.235 154.698C325.393 153.816 323.41 156.178 323.648 158.201C323.885 160.224 325.353 161.847 326.398 163.598C327.162 164.878 327.73 166.37 327.475 167.838C327.22 169.306 325.906 170.66 324.417 170.53C322.05 170.324 321.06 166.936 318.716 166.548C318.509 166.5 318.292 166.521 318.099 166.609C317.751 166.799 317.69 167.264 317.671 167.659C317.575 169.599 317.492 171.616 318.252 173.405C319.363 176.022 322.233 178.22 321.631 180.998C318.387 179.494 316.701 175.867 315.935 172.383C315.169 168.898 315.042 165.24 313.669 161.947C312.626 163.279 310.436 162.177 309.483 160.78C308.58 159.455 308.024 157.922 307.148 156.58C306.272 155.237 304.93 154.034 303.326 153.961C301.643 153.883 300.184 155.035 298.901 156.122C297.845 157.017 296.762 157.947 296.145 159.183C295.248 160.982 295.482 163.104 295.439 165.113C295.392 167.285 294.931 169.577 293.446 171.167C291.961 172.757 289.221 173.311 287.583 171.878C286.728 171.13 286.314 170.012 285.946 168.939C284.168 163.766 282.688 158.497 281.512 153.157C281.237 154.376 280.163 155.947 279.138 155.229C278.908 155.036 278.722 154.796 278.591 154.526C276.678 151.294 273.136 149.355 269.557 148.192C265.978 147.03 262.213 146.487 258.673 145.21C256.69 144.493 254.796 143.552 253.027 142.405C252.577 143.066 252.314 143.835 252.266 144.633C252.218 145.43 252.387 146.225 252.756 146.934C253.541 148.321 255.318 149.123 256.839 148.638C257.624 148.388 258.288 147.844 259.068 147.575C259.848 147.306 260.894 147.438 261.235 148.187C261.562 148.904 261.068 149.772 261.313 150.521C261.686 151.661 263.41 151.749 264.014 152.786C264.462 153.558 264.093 154.583 263.452 155.206C262.812 155.829 261.957 156.171 261.175 156.605C258.637 158.012 256.833 160.414 254.615 162.282C252.397 164.151 249.268 165.516 246.625 164.317C247.255 161.136 243.455 158.8 242.756 155.634C242.526 154.592 242.645 153.484 242.316 152.469C241.841 150.998 240.532 149.987 239.459 148.872C238.157 147.506 237.143 145.894 236.476 144.13C235.809 142.366 235.503 140.487 235.576 138.604C235.634 137.295 235.876 135.965 235.577 134.69C235.278 133.414 234.218 132.179 232.906 132.237C229.908 132.369 226.132 132.592 224.559 130.044C223.997 129.134 223.753 127.802 224.565 127.105C225.137 126.614 225.982 126.66 226.734 126.734L233.489 127.396C235.068 127.551 236.776 127.679 238.132 126.856C239.487 126.032 240.075 123.846 238.819 122.878C237.902 122.17 236.259 122.208 235.992 121.083C235.77 120.145 236.811 119.082 236.249 118.298C235.846 117.736 234.94 117.892 234.391 118.313C233.842 118.734 233.444 119.35 232.829 119.669C231.752 120.228 230.464 119.696 229.304 119.334C228.145 118.973 226.59 118.942 226.028 120.016C225.399 121.217 226.586 122.79 225.961 123.994C225.136 125.585 222.341 124.679 221.182 126.048C219.852 127.618 222.087 129.96 221.638 131.966C221.066 132.249 220.429 132.379 219.791 132.343C219.153 132.308 218.535 132.107 217.998 131.762C217.47 131.404 217.049 130.91 216.78 130.332C216.51 129.754 216.404 129.114 216.47 128.48C216.581 127.577 217.053 126.656 216.737 125.803C216.481 125.113 215.787 124.703 215.142 124.347L208.578 120.731C207.968 121.858 208.739 123.255 209.702 124.102C210.666 124.949 211.873 125.586 212.506 126.701C212.906 127.473 212.996 128.368 212.757 129.204C212.517 130.039 211.967 130.752 211.219 131.197C211.125 131.262 211.018 131.305 210.906 131.325C210.793 131.345 210.678 131.34 210.568 131.311C210.463 131.249 210.372 131.167 210.299 131.07C210.227 130.973 210.175 130.862 210.146 130.745C208.988 127.79 207.249 124.876 204.469 123.332C201.689 121.789 197.695 122.106 195.872 124.706C195.439 125.324 195.148 126.028 194.771 126.681C192.767 130.151 188.471 131.793 184.457 131.686C184.065 131.708 183.674 131.616 183.332 131.423C182.683 130.976 182.713 130.028 182.812 129.248L183.233 125.939C183.318 125.274 183.441 124.539 183.968 124.125C184.712 123.54 185.784 123.909 186.731 123.895C187.449 123.862 188.138 123.609 188.707 123.172C189.276 122.734 189.695 122.133 189.91 121.449C190.101 120.759 190.1 120.03 189.906 119.34C189.713 118.651 189.334 118.027 188.811 117.536C188.377 117.129 187.794 116.619 188.024 116.071C188.115 115.919 188.239 115.79 188.386 115.691C188.533 115.592 188.7 115.526 188.875 115.499C190.576 115.006 192.374 114.877 194.046 114.296C195.719 113.715 197.341 112.526 197.737 110.805C197.858 110.277 197.914 109.638 198.389 109.377C198.627 109.276 198.883 109.224 199.142 109.223C200.049 109.094 200.875 108.632 201.457 107.927C202.039 107.221 202.335 106.325 202.287 105.413C203.088 104.854 204.211 105.265 204.987 105.859C205.762 106.453 206.447 107.238 207.391 107.494C209.149 107.971 210.848 106.419 212.671 106.411C213.437 106.408 214.231 106.679 214.952 106.419C215.682 106.157 216.119 105.431 216.68 104.895C217.241 104.359 218.225 104.032 218.743 104.61L218.302 101.352C219.19 101.576 220.116 101.607 221.018 101.445C221.92 101.282 222.776 100.929 223.529 100.41L217.829 98.489C217.63 98.4396 217.447 98.3419 217.296 98.2048C216.881 97.7598 217.293 97.0663 217.63 96.5604C218.436 95.3503 218.571 93.3569 217.246 92.7544C216.341 92.3432 215.302 92.8368 214.433 93.3197L210.272 95.6331C210.14 96.4217 211.107 96.8687 211.707 97.3999C212.069 97.7213 212.326 98.1445 212.443 98.614C212.56 99.0835 212.532 99.5773 212.362 100.031C212.192 100.484 211.889 100.875 211.492 101.153C211.095 101.432 210.623 101.584 210.138 101.59C210.412 101.945 210.603 102.357 210.695 102.796C210.788 103.234 210.78 103.688 210.673 104.123L207.874 104.324C207.56 104.387 207.233 104.323 206.966 104.147C206.666 103.882 206.707 103.417 206.638 103.024C206.47 102.075 205.538 101.409 204.587 101.239C203.636 101.068 202.662 101.287 201.72 101.503C201.32 101.646 200.881 101.636 200.488 101.475C200.263 101.329 200.092 101.113 200.001 100.861C199.588 99.8626 199.974 98.689 200.637 97.8351C201.3 96.9813 202.208 96.3571 203.024 95.6463C204.974 93.9401 206.407 91.7243 207.16 89.2489C208.701 88.6051 210.297 87.7303 211.838 87.0864C214.214 85.8869 216.879 85.3721 219.532 85.6L224.751 85.6994C226.296 85.7288 227.883 85.7665 229.312 86.3539C230.741 86.9413 231.997 88.2118 232.095 89.7497C232.125 89.9239 232.11 90.1026 232.051 90.2693C231.993 90.436 231.893 90.5852 231.761 90.7027C231.559 90.8125 231.33 90.8639 231.101 90.851C229.66 90.9015 229.045 91.2596 227.604 91.3101Z" fill="black"/>
<path d="M186.004 107.62C186.207 107.428 186.354 107.183 186.428 106.913C186.501 106.643 186.499 106.357 186.42 106.089C185.924 105.898 185.384 105.849 184.861 105.947C184.339 106.045 183.854 106.287 183.462 106.646C183.153 106.957 182.886 107.309 182.67 107.69C181.984 108.806 181.377 110.139 181.775 111.386C181.807 111.522 181.866 111.65 181.949 111.763C182.032 111.876 182.136 111.971 182.256 112.043C182.434 112.114 182.627 112.144 182.818 112.131C183.574 112.13 184.328 112.083 185.078 111.992C185.539 111.936 186.074 111.806 186.252 111.379C186.486 110.817 185.919 110.182 186.084 109.596C186.193 109.334 186.358 109.099 186.567 108.907C186.67 108.811 186.75 108.691 186.8 108.559C186.849 108.426 186.867 108.284 186.851 108.143C186.785 107.868 186.363 107.713 186.211 107.951" fill="black"/>
<path d="M189.921 102.556C189.25 102.402 188.558 102.359 187.873 102.427C187.722 102.423 187.571 102.457 187.437 102.526C187.306 102.622 187.211 102.759 187.168 102.915C187.023 103.378 187.059 103.878 187.267 104.316C187.476 104.754 187.843 105.098 188.294 105.279C188.54 105.335 188.776 105.43 188.993 105.559C189.572 106.007 189.203 106.923 189.312 107.646C189.436 108.458 190.224 109.139 190.079 109.947C189.965 110.584 189.283 111.088 189.393 111.726C189.508 112.393 190.358 112.594 191.035 112.647C191.427 112.716 191.831 112.67 192.198 112.514C192.566 112.264 192.827 111.886 192.932 111.454C193.209 110.632 193.326 109.763 193.275 108.897C193.272 108.502 193.173 108.115 192.986 107.768C192.782 107.493 192.556 107.234 192.31 106.996C191.013 105.491 192.379 103.246 189.921 102.556Z" fill="black"/>
<path opacity="0.8" d="M360.546 220.449C360.546 220.449 261.167 163.568 218.383 174.345C218.383 174.345 127.711 184.075 117.202 205.48C117.202 205.48 88.3793 115.668 77.871 112.674" stroke="#EF0404" stroke-width="2" stroke-miterlimit="10"/>
<path opacity="0.8" d="M117.202 205.48C133.866 161.173 283.985 112.076 283.985 112.076C262.668 117.464 218.383 174.345 218.383 174.345C218.383 174.345 124.708 106.388 77.871 112.674C77.871 112.674 284.135 119.41 360.546 220.449" stroke="#EF0404" stroke-width="2" stroke-miterlimit="10"/>
<path d="M77.871 117.015C80.2754 117.015 82.2245 115.072 82.2245 112.674C82.2245 110.277 80.2754 108.333 77.871 108.333C75.4666 108.333 73.5175 110.277 73.5175 112.674C73.5175 115.072 75.4666 117.015 77.871 117.015Z" fill="#EF0404"/>
<path d="M117.202 209.821C119.607 209.821 121.556 207.878 121.556 205.48C121.556 203.083 119.607 201.139 117.202 201.139C114.798 201.139 112.849 203.083 112.849 205.48C112.849 207.878 114.798 209.821 117.202 209.821Z" fill="#EF0404"/>
<path d="M283.985 116.417C286.39 116.417 288.339 114.473 288.339 112.076C288.339 109.678 286.39 107.735 283.985 107.735C281.581 107.735 279.632 109.678 279.632 112.076C279.632 114.473 281.581 116.417 283.985 116.417Z" fill="#EF0404"/>
<path d="M360.546 224.79C362.951 224.79 364.9 222.846 364.9 220.449C364.9 218.051 362.951 216.108 360.546 216.108C358.142 216.108 356.193 218.051 356.193 220.449C356.193 222.846 358.142 224.79 360.546 224.79Z" fill="#EF0404"/>
<path d="M218.383 178.686C220.787 178.686 222.736 176.743 222.736 174.345C222.736 171.948 220.787 170.004 218.383 170.004C215.979 170.004 214.03 171.948 214.03 174.345C214.03 176.743 215.979 178.686 218.383 178.686Z" fill="#EF0404"/>
</g>
<defs>
<clipPath id="clip0">
<rect width="428" height="317" fill="white"/>
</clipPath>
</defs>
</svg>
