<svg width="52" height="50" viewBox="0 0 52 50" fill="none" xmlns="http://www.w3.org/2000/svg">
<path d="M22.89 28.4241L21.8216 30.7639C23.0513 30.2099 24.3348 29.7839 25.6517 29.4925C26.8539 29.1793 28.0717 28.9297 29.3002 28.7447C27.6719 26.9325 26.2262 24.9643 24.984 22.8686C24.984 22.8686 23.937 26.0791 22.89 28.4241Z" fill="white"/>
<path d="M10.2991 39.9412C12.9701 41.5438 17.0566 33.5844 17.0566 33.5844C15.6303 33.734 7.75641 38.4188 10.2991 39.9412Z" fill="white"/>
<path d="M25.1549 11.891C25.1549 9.75427 24.4338 9.44978 23.8088 9.44978C23.1838 9.44978 22.3878 10.1496 22.3878 12.5908C22.3878 15.032 23.3387 17.7244 23.8088 18.2265C23.8088 18.2265 25.1816 14.0331 25.1549 11.891Z" fill="white"/>
<path d="M41.453 2.13675H9.82906C7.78893 2.13675 5.83237 2.94719 4.38978 4.38977C2.94719 5.83236 2.13675 7.78893 2.13675 9.82906V40.1709C2.13675 42.2111 2.94719 44.1676 4.38978 45.6102C5.83237 47.0528 7.78893 47.8632 9.82906 47.8632H41.453C42.4632 47.8632 43.4634 47.6643 44.3967 47.2777C45.33 46.8911 46.178 46.3245 46.8923 45.6102C47.6066 44.8959 48.1732 44.0479 48.5598 43.1147C48.9463 42.1814 49.1453 41.1811 49.1453 40.1709V9.82906C49.1453 8.81889 48.9463 7.81861 48.5598 6.88534C48.1732 5.95206 47.6066 5.10407 46.8923 4.38977C46.178 3.67548 45.33 3.10887 44.3967 2.72229C43.4634 2.33572 42.4632 2.13675 41.453 2.13675ZM38.6699 33.6538C34.5833 33.8034 30.3419 29.5406 30.3419 29.5406C30.3419 29.5406 28.6004 29.813 27.1368 30.1656C25.6731 30.5182 21.0524 31.7682 21.0524 31.7682C19.7276 34.024 18.2535 36.1887 16.64 38.2479C13.6111 42.2329 10.2083 41.9338 9.23611 40.5983C8.10363 39.0652 8.97436 37.532 11.1218 35.5342C13.2692 33.5363 18.2105 31.8857 18.2105 31.8857C18.2105 31.8857 19.2308 30.1068 20.6677 26.7094C22.1047 23.312 23.2372 19.8184 23.2372 19.8184C22.3973 17.8763 21.8154 15.8325 21.5064 13.7393C21.1912 10.6197 21.5438 8.52564 23.937 8.49893C26.3301 8.47222 27.078 10.2724 27.1421 13.3867C27.2062 16.5011 25.5395 21.4637 25.5395 21.4637C26.9391 24.4818 30.7799 28.3707 30.7799 28.3707C30.7799 28.3707 32.0246 28.0502 37.1581 27.922C42.2917 27.7938 42.5 30.6891 42.5481 30.9402C42.5962 31.1912 42.7618 33.4829 38.6699 33.6538Z" fill="white"/>
<path d="M31.8056 29.2788C34.9626 32.2863 40.1015 33.4402 40.1015 30.609C40.1015 27.7778 31.8056 29.2788 31.8056 29.2788Z" fill="white"/>
</svg>
