<svg width="52" height="50" viewBox="0 0 52 50" fill="none" xmlns="http://www.w3.org/2000/svg">
<path d="M41.9916 2.13672H10.3676C8.32747 2.13672 6.3709 2.94716 4.92832 4.38974C3.48573 5.83233 2.67529 7.7889 2.67529 9.82903V40.1709C2.67529 42.2111 3.48573 44.1676 4.92832 45.6102C6.3709 47.0528 8.32747 47.8632 10.3676 47.8632H41.9916C43.0017 47.8632 44.002 47.6643 44.9353 47.2777C45.8686 46.8911 46.7166 46.3245 47.4309 45.6102C48.1452 44.8959 48.7118 44.0479 49.0983 43.1147C49.4849 42.1814 49.6839 41.1811 49.6839 40.1709V9.82903C49.6839 8.81886 49.4849 7.81858 49.0983 6.88531C48.7118 5.95203 48.1452 5.10404 47.4309 4.38974C46.7166 3.67545 45.8686 3.10884 44.9353 2.72226C44.002 2.33569 43.0017 2.13672 41.9916 2.13672ZM25.3356 16.891H20.0525V35.828C20.0474 35.9057 20.0143 35.9789 19.9593 36.0339C19.9042 36.089 19.831 36.1221 19.7533 36.1271H16.7245C16.6468 36.1221 16.5736 36.089 16.5185 36.0339C16.4635 35.9789 16.4304 35.9057 16.4253 35.828L16.5642 16.891H10.9499C10.8722 16.886 10.799 16.8529 10.744 16.7978C10.6889 16.7428 10.6558 16.6696 10.6508 16.5919L10.9499 13.8675C10.9548 13.7893 10.9877 13.7154 11.0427 13.6595C11.0976 13.6035 11.1709 13.5693 11.249 13.563H24.8815C25.0364 13.563 25.0364 13.563 25.186 13.7179V13.8889L25.4852 16.6132C25.4852 16.7415 25.4852 16.7415 25.3356 16.891ZM40.6401 36.1218H36.8634C36.7857 36.1168 36.7125 36.0836 36.6574 36.0286C36.6024 35.9735 36.5692 35.9003 36.5642 35.8226C35.4958 34.4498 32.7822 30.5182 31.4093 28.6966V35.828C31.4093 35.9776 31.4093 35.9776 31.2597 36.1271H28.0813C27.9317 36.1271 27.9317 36.1271 27.7822 35.9776V13.8889C27.7822 13.7393 27.7822 13.7393 27.9317 13.5844H31.1102C31.1883 13.5907 31.2616 13.6249 31.3165 13.6808C31.3715 13.7368 31.4044 13.8106 31.4093 13.8889L31.2597 27.0673L36.2597 20.2404C36.2597 20.0908 36.4146 20.0908 36.5642 20.0908H39.8922C40.1914 20.0908 40.1914 20.2404 40.0418 20.39C39.2886 21.4583 35.6401 25.844 34.4382 27.2169V27.5214L40.7896 35.828C40.9446 35.9776 40.7896 36.1271 40.6401 36.1271V36.1218Z" fill="white"/>
</svg>
