<svg width="52" height="50" viewBox="0 0 52 50" fill="none" xmlns="http://www.w3.org/2000/svg">
<path d="M12.7307 15.2137C12.0742 15.1967 11.4174 15.2252 10.7649 15.2991V32.0513C11.3632 32.0513 11.876 32.1368 12.5598 32.1368C16.4914 32.1368 19.3974 29.3162 19.5042 23.3333C19.4615 17.5214 16.4914 15.2137 12.7307 15.2137Z" fill="white"/>
<path d="M41.6836 2.13672H10.0597C8.01961 2.13672 6.06305 2.94716 4.62046 4.38974C3.17787 5.83233 2.36743 7.7889 2.36743 9.82903V40.1709C2.36743 42.2111 3.17787 44.1676 4.62046 45.6102C6.06305 47.0528 8.01961 47.8632 10.0597 47.8632H41.6836C42.6938 47.8632 43.6941 47.6643 44.6274 47.2777C45.5606 46.8911 46.4086 46.3245 47.1229 45.6102C47.8372 44.8959 48.4038 44.0479 48.7904 43.1147C49.177 42.1814 49.3759 41.1811 49.3759 40.1709V9.82903C49.3759 8.81886 49.177 7.81858 48.7904 6.88531C48.4038 5.95203 47.8372 5.10404 47.1229 4.38974C46.4086 3.67545 45.5606 3.10884 44.6274 2.72226C43.6941 2.33569 42.6938 2.13672 41.6836 2.13672ZM12.4529 35.5342C10.658 35.5342 8.00846 35.5342 7.06829 35.4487C6.89735 35.4487 6.89735 35.3632 6.89735 35.1923V12.2222C6.89735 12.0513 6.89735 11.9658 7.15376 11.9658C7.92299 11.9658 10.3161 11.8803 12.7093 11.8803C19.8888 11.8803 23.393 16.4957 23.393 23.2479C23.393 32.6496 17.2392 35.5342 12.4529 35.5342ZM45.8076 18.2051L41.5982 35.0427C41.5982 35.2137 41.5127 35.2991 41.2563 35.2991L37.8375 35.3846C37.5811 35.3846 37.4956 35.2991 37.4956 35.0427C36.47 29.1667 35.5298 24.9573 35.1879 22.1367C34.7606 24.8077 33.9059 29.0812 32.4529 35.1282C32.3674 35.2991 32.2819 35.3846 32.111 35.3846H28.6922C28.4358 35.3846 28.3503 35.3846 28.2648 35.1282L24.5255 18.2906C24.5255 18.1197 24.5255 18.0342 24.7819 18.0342H28.2007C28.3717 18.0342 28.4571 18.1197 28.4571 18.2051C29.8247 25.812 30.3375 29.7436 30.5939 31.282H30.7648C30.9999 29.4872 31.7477 25.641 33.3076 18.2906C33.393 18.1197 33.393 18.0342 33.564 18.0342H37.1537C37.3247 18.0342 37.3247 18.1197 37.4101 18.2906C38.6922 25.235 39.5469 29.5726 39.7178 31.3675H39.8033C40.1452 29.1453 40.5725 26.0684 42.111 18.2051C42.1064 18.176 42.1076 18.1463 42.1146 18.1176C42.1215 18.089 42.134 18.062 42.1514 18.0382C42.1687 18.0144 42.1906 17.9942 42.2157 17.9789C42.2409 17.9635 42.2688 17.9533 42.2979 17.9487H45.6366C45.8076 17.9487 45.893 18.0342 45.8076 18.2051Z" fill="white"/>
</svg>
