<svg width="52" height="50" viewBox="0 0 52 50" fill="none" xmlns="http://www.w3.org/2000/svg">
<path d="M32.9316 20.187C32.3405 20.189 31.7526 20.2735 31.1848 20.438V30.9402C31.5482 31.0489 31.9283 31.0905 32.3066 31.063C34.5555 31.063 36.9327 29.4605 36.9327 25.3098C36.9327 21.9391 35.4316 20.187 32.9316 20.187Z" fill="white"/>
<path d="M42.1197 2.13672H10.4958C8.45565 2.13672 6.49908 2.94716 5.05649 4.38974C3.6139 5.83233 2.80347 7.7889 2.80347 9.82903V40.1709C2.80347 42.2111 3.6139 44.1676 5.05649 45.6102C6.49908 47.0528 8.45565 47.8632 10.4958 47.8632H42.1197C43.1299 47.8632 44.1302 47.6643 45.0635 47.2777C45.9967 46.8911 46.8447 46.3245 47.559 45.6102C48.2733 44.8959 48.8399 44.0479 49.2265 43.1147C49.6131 42.1814 49.8121 41.1811 49.8121 40.1709V9.82903C49.8121 8.81886 49.6131 7.81858 49.2265 6.88531C48.8399 5.95203 48.2733 5.10404 47.559 4.38974C46.8447 3.67545 45.9967 3.10884 45.0635 2.72226C44.1302 2.33569 43.1299 2.13672 42.1197 2.13672ZM17.3067 34.188C15.5379 34.369 13.7551 34.0213 12.1838 33.1891C12.1069 33.1297 12.0444 33.0537 12.001 32.9667C11.9575 32.8798 11.9342 32.7842 11.9328 32.687V29.4391C11.9328 29.3109 12.0556 29.188 12.1838 29.3109C13.6651 30.2954 15.4053 30.8178 17.1838 30.812C19.6838 30.812 20.6828 29.562 20.6828 28.0609C20.6828 26.8109 20.0578 25.6891 17.6806 24.3216L16.4306 23.6966C12.9531 21.688 11.9328 19.6902 11.9328 17.1902C11.9328 13.6859 14.3099 10.9348 18.9306 10.9348C20.4656 10.9023 21.993 11.1578 23.4338 11.688C23.5567 11.8109 23.6849 11.8109 23.6849 12.062V15.187C23.6849 15.3152 23.5567 15.438 23.4338 15.3152C22.0825 14.6196 20.5782 14.2743 19.0588 14.3109C16.4306 14.3109 15.5599 15.812 15.5599 16.9391C15.5599 18.1891 16.1849 19.188 18.5567 20.438L19.6838 21.063C23.5567 23.1998 24.5556 25.3365 24.5556 27.8098C24.5556 31.5598 21.8099 34.188 17.3067 34.188ZM32.0556 34.188C31.7595 34.2086 31.4625 34.1649 31.1849 34.0598V38.6859C31.18 38.7508 31.152 38.8119 31.1059 38.8579C31.0598 38.904 30.9988 38.932 30.9338 38.937L27.8088 39.188C27.5578 39.188 27.5578 39.188 27.5578 38.937V20.0641C27.5742 19.4367 27.5331 18.809 27.4349 18.1891C27.4349 18.1891 27.3067 18.0609 27.4349 18.0609C29.3112 17.3402 31.3011 16.9603 33.311 16.9391C38.0653 16.9391 40.6881 20.438 40.6881 25.0641C40.6828 31.1859 36.4574 34.188 32.0556 34.188Z" fill="white"/>
</svg>
