<svg width="52" height="50" viewBox="0 0 52 50" fill="none" xmlns="http://www.w3.org/2000/svg">
<path d="M42.1454 2.13672H10.5214C8.48128 2.13672 6.52471 2.94716 5.08213 4.38974C3.63954 5.83233 2.8291 7.7889 2.8291 9.82903V40.1709C2.8291 42.2111 3.63954 44.1676 5.08213 45.6102C6.52471 47.0528 8.48128 47.8632 10.5214 47.8632H42.1454C43.1555 47.8632 44.1558 47.6643 45.0891 47.2777C46.0224 46.8911 46.8704 46.3245 47.5847 45.6102C48.299 44.8959 48.8656 44.0479 49.2521 43.1147C49.6387 42.1814 49.8377 41.1811 49.8377 40.1709V9.82903C49.8377 8.81886 49.6387 7.81858 49.2521 6.88531C48.8656 5.95203 48.299 5.10404 47.5847 4.38974C46.8704 3.67545 46.0224 3.10884 45.0891 2.72226C44.1558 2.33569 43.1555 2.13672 42.1454 2.13672ZM20.1582 35.3526C20.1582 35.5716 20.1155 35.6357 19.8697 35.6357H16.467C16.2479 35.6357 16.1785 35.5288 16.1785 35.3526V11.6186C16.1785 11.3996 16.2907 11.3355 16.467 11.3355H19.8911C20.0674 11.3355 20.1582 11.3996 20.1582 11.5972V35.3526ZM36.483 35.1763C36.4911 35.2366 36.4779 35.2979 36.4458 35.3495C36.4136 35.4012 36.3644 35.4401 36.3067 35.4594C35.2385 35.8075 34.1174 35.9648 32.9947 35.9241C27.8238 35.9241 24.795 32.1047 24.795 26.6667C24.795 21.3248 28.2244 17.3451 33.4809 17.3451C34.4438 17.2868 35.4094 17.3989 36.3334 17.6763C36.3979 17.7127 36.4494 17.7683 36.481 17.8352C36.5126 17.9022 36.5226 17.9773 36.5097 18.0502L36.4616 21.0791C36.4616 21.2553 36.3548 21.2981 36.1999 21.2553C35.3901 20.9422 34.5247 20.7986 33.6571 20.8333C30.7832 20.8333 28.8174 22.8472 28.8174 26.4904C28.8174 30.8013 31.296 32.281 33.7479 32.281C34.5854 32.3152 35.4223 32.2032 36.2212 31.9498C36.3975 31.907 36.4883 31.9925 36.4883 32.1261L36.483 35.1763Z" fill="white"/>
</svg>
