<svg width="52" height="50" viewBox="0 0 52 50" fill="none" xmlns="http://www.w3.org/2000/svg">
<path d="M22.8899 28.424L21.8215 30.7638C23.0512 30.2098 24.3347 29.7838 25.6516 29.4924C26.8538 29.1792 28.0716 28.9296 29.3001 28.7446C27.6718 26.9324 26.2261 24.9642 24.9839 22.8685C24.9839 22.8685 23.9369 26.079 22.8899 28.424ZM10.299 39.9411C12.97 41.5437 17.0565 33.5843 17.0565 33.5843C15.6302 33.7339 7.75631 38.4187 10.299 39.9411ZM25.1548 11.8909C25.1548 9.7542 24.4337 9.44971 23.8087 9.44971C23.1837 9.44971 22.3877 10.1495 22.3877 12.5907C22.3877 15.0319 23.3386 17.7243 23.8087 18.2264C23.8087 18.2264 25.1815 14.033 25.1548 11.8909Z" fill="white"/>
<path d="M41.453 2.13672H9.82903C7.7889 2.13672 5.83234 2.94716 4.38975 4.38974C2.94716 5.83233 2.13672 7.7889 2.13672 9.82903V40.1709C2.13672 42.2111 2.94716 44.1676 4.38975 45.6102C5.83234 47.0528 7.7889 47.8632 9.82903 47.8632H41.453C42.4632 47.8632 43.4634 47.6643 44.3967 47.2777C45.33 46.8911 46.178 46.3245 46.8923 45.6102C47.6066 44.8959 48.1732 44.0479 48.5598 43.1147C48.9463 42.1814 49.1453 41.1811 49.1453 40.1709V9.82903C49.1453 8.81886 48.9463 7.81858 48.5598 6.88531C48.1732 5.95203 47.6066 5.10404 46.8923 4.38974C46.178 3.67545 45.33 3.10884 44.3967 2.72226C43.4634 2.33569 42.4632 2.13672 41.453 2.13672ZM38.6699 33.6538C34.5833 33.8034 30.3419 29.5406 30.3419 29.5406C30.3419 29.5406 28.6004 29.813 27.1368 30.1656C25.6731 30.5182 21.0524 31.7682 21.0524 31.7682C19.7276 34.024 18.2535 36.1887 16.64 38.2479C13.6111 42.2329 10.2083 41.9338 9.23608 40.5983C8.1036 39.0652 8.97433 37.532 11.1218 35.5342C13.2692 33.5363 18.2105 31.8857 18.2105 31.8857C18.2105 31.8857 19.2308 30.1068 20.6677 26.7094C22.1047 23.312 23.2372 19.8184 23.2372 19.8184C22.3973 17.8763 21.8154 15.8325 21.5064 13.7393C21.1912 10.6197 21.5438 8.52561 23.937 8.4989C26.3301 8.47219 27.078 10.2724 27.1421 13.3867C27.2062 16.5011 25.5395 21.4637 25.5395 21.4637C26.9391 24.4818 30.7799 28.3707 30.7799 28.3707C30.7799 28.3707 32.0246 28.0502 37.1581 27.922C42.2917 27.7938 42.5 30.6891 42.5481 30.9402C42.5962 31.1912 42.7618 33.4829 38.6699 33.6538Z" fill="white"/>
<path d="M31.8057 29.2789C34.9627 32.2864 40.1016 33.4403 40.1016 30.6091C40.1016 27.7779 31.8057 29.2789 31.8057 29.2789Z" fill="white"/>
</svg>
