<svg width="52" height="50" viewBox="0 0 52 50" fill="none" xmlns="http://www.w3.org/2000/svg">
<path d="M35.359 21.9017C34.8772 21.8786 34.3966 21.968 33.9553 22.1627C33.514 22.3574 33.124 22.6521 32.8162 23.0235C32.1781 23.8291 31.8049 24.8125 31.7479 25.8387H36.6571C37.2687 25.8648 37.8814 25.8415 38.4893 25.7692C38.5159 25.6104 38.5267 25.4494 38.5214 25.2885C38.533 24.4455 38.2726 23.6213 37.7788 22.938C37.2981 22.2382 36.4808 21.9017 35.359 21.9017ZM19.0342 21.5491C19.3541 21.264 19.6072 20.9116 19.7752 20.5173C19.9433 20.123 20.0222 19.6965 20.0064 19.2682C20.0064 17.0994 18.5997 16.0167 15.7863 16.0203C14.4989 16.0203 13.5961 16.0203 13.1154 16.0897V22.4359H15.9466C17.3639 22.4359 18.3931 22.1403 19.0342 21.5491ZM19.7981 26.5972C18.9932 25.9598 17.7699 25.641 16.1282 25.641H13.094V32.9541C13.5961 33.0021 14.4829 33.0235 15.7649 33.0235C19.2621 33.0235 21.0124 31.7771 21.016 29.2842C21.043 28.7715 20.9465 28.2598 20.7346 27.7922C20.5226 27.3246 20.2014 26.9148 19.7981 26.5972Z" fill="white"/>
<path d="M41.5555 2.13672H9.93157C7.89144 2.13672 5.93487 2.94716 4.49228 4.38974C3.0497 5.83233 2.23926 7.7889 2.23926 9.82903V40.1709C2.23926 42.2111 3.0497 44.1676 4.49228 45.6102C5.93487 47.0528 7.89144 47.8632 9.93157 47.8632H41.5555C42.5656 47.8632 43.5659 47.6643 44.4992 47.2777C45.4325 46.8911 46.2804 46.3245 46.9947 45.6102C47.709 44.8959 48.2756 44.0479 48.6622 43.1147C49.0488 42.1814 49.2478 41.1811 49.2478 40.1709V9.82903C49.2478 8.81886 49.0488 7.81858 48.6622 6.88531C48.2756 5.95203 47.709 5.10404 46.9947 4.38974C46.2804 3.67545 45.4325 3.10884 44.4992 2.72226C43.5659 2.33569 42.5656 2.13672 41.5555 2.13672ZM31.0854 14.0438H39.4882V16.3782H31.0854V14.0438ZM22.907 34.4231C21.1548 35.609 18.7011 36.2019 15.5458 36.2019C12.9176 36.2019 10.7506 36.1788 9.04481 36.1325C8.88456 36.1325 8.80443 36.0096 8.80443 35.8226V13.2532C8.80443 13.0449 8.87387 12.9327 9.01276 12.906C10.9073 12.849 13.2239 12.8205 15.9625 12.8205C17.3917 12.7835 18.8182 12.9636 20.1933 13.3547C21.1686 13.6114 22.0575 14.1241 22.7681 14.8397C23.2762 15.3878 23.675 16.0278 23.9433 16.7254C24.1787 17.3853 24.2962 18.0815 24.2905 18.782C24.3352 19.9122 23.9732 21.021 23.2702 21.907C22.6029 22.716 21.7219 23.3212 20.7275 23.6538V23.7233C22.0061 24.0275 23.1829 24.661 24.1409 25.5609C24.6258 26.0413 25.0027 26.6194 25.2468 27.2567C25.4909 27.8941 25.5965 28.5761 25.5565 29.2575C25.6 30.2742 25.3787 31.2848 24.9142 32.1903C24.4498 33.0958 23.7581 33.8652 22.907 34.4231ZM42.5437 28.1143C42.5387 28.1863 42.5079 28.2541 42.4568 28.3052C42.4057 28.3562 42.338 28.3871 42.2659 28.3921C41.0838 28.5083 39.8958 28.5547 38.7082 28.531H31.7638C31.746 29.1536 31.8547 29.7733 32.0833 30.3527C32.312 30.9321 32.6558 31.459 33.0939 31.9017C33.9593 32.7422 35.2218 33.1624 36.8813 33.1624C38.3523 33.1943 39.8121 32.8987 41.1548 32.297C41.2937 32.2543 41.3631 32.313 41.3631 32.4733V35.0641C41.3742 35.1457 41.3603 35.2287 41.323 35.3022C41.2858 35.3757 41.2272 35.4361 41.1548 35.4754C39.5088 36.1856 37.7278 36.5283 35.9358 36.4797C34.5529 36.5101 33.1779 36.2631 31.892 35.7532C30.8357 35.3437 29.9054 34.664 29.1943 33.782C28.5586 32.9724 28.0737 32.055 27.7627 31.0737C27.4462 30.0479 27.2895 28.9795 27.298 27.906C27.228 25.5966 28.0051 23.3413 29.4828 21.5652C30.9465 19.8486 32.9461 18.9904 35.4817 18.9904C37.8785 18.9904 39.6751 19.7026 40.8717 21.1271C42.0721 22.5319 42.7163 24.3277 42.6826 26.1752C42.6842 26.8241 42.6378 27.4723 42.5437 28.1143Z" fill="white"/>
</svg>
