<svg width="52" height="50" viewBox="0 0 52 50" fill="none" xmlns="http://www.w3.org/2000/svg">
<path d="M41.7093 2.13672H10.0853C8.04525 2.13672 6.08868 2.94716 4.64609 4.38974C3.2035 5.83233 2.39307 7.7889 2.39307 9.82903V40.1709C2.39307 42.2111 3.2035 44.1676 4.64609 45.6102C6.08868 47.0528 8.04525 47.8632 10.0853 47.8632H41.7093C42.7194 47.8632 43.7197 47.6643 44.653 47.2777C45.5863 46.8911 46.4343 46.3245 47.1486 45.6102C47.8628 44.8959 48.4295 44.0479 48.816 43.1147C49.2026 42.1814 49.4016 41.1811 49.4016 40.1709V9.82903C49.4016 8.81886 49.2026 7.81858 48.816 6.88531C48.4295 5.95203 47.8628 5.10404 47.1486 4.38974C46.4343 3.67545 45.5863 3.10884 44.653 2.72226C43.7197 2.33569 42.7194 2.13672 41.7093 2.13672ZM18.9529 36.1271C17.1291 36.1944 15.3172 35.8071 13.6804 35C13.6096 34.9471 13.5529 34.8774 13.5157 34.7972C13.4784 34.7171 13.4616 34.6289 13.4667 34.5406V31.1592C13.4686 31.1272 13.4797 31.0965 13.4986 31.0707C13.5176 31.0449 13.5436 31.0251 13.5736 31.0138C13.6036 31.0025 13.6362 31.0001 13.6674 31.007C13.6987 31.0138 13.7274 31.0296 13.7499 31.0523C15.2834 32.0981 17.0968 32.6566 18.9529 32.6549C21.5276 32.6549 22.5853 31.3141 22.5853 29.797C22.5853 28.4615 21.9123 27.3665 19.4443 25.9188L18.1783 25.2511C14.5458 23.2051 13.4881 21.1271 13.4881 18.4829C13.4881 14.8878 15.9935 11.9925 20.7157 11.9925C22.7937 11.9925 24.3375 12.313 25.2189 12.8045C25.3952 12.8739 25.4326 12.9808 25.4326 13.1944V16.3675C25.4346 16.4012 25.4266 16.4346 25.4096 16.4638C25.3927 16.4929 25.3675 16.5163 25.3372 16.5312C25.307 16.546 25.273 16.5516 25.2396 16.5472C25.2062 16.5428 25.1748 16.5286 25.1494 16.5064C23.8199 15.7574 22.3103 15.3878 20.7851 15.438C18.0714 15.438 17.19 16.9925 17.19 18.2265C17.19 19.562 17.8578 20.5502 20.2937 21.891L21.4208 22.4893C25.4379 24.7115 26.4635 26.859 26.4635 29.5032C26.4742 33.4135 23.6163 36.1271 18.9529 36.1271ZM38.3172 21.5812C38.3172 21.7575 38.2103 21.7949 38.0714 21.7949H34.9785V30.7479C34.9785 32.1955 35.47 32.8526 36.7787 32.8526C37.1804 32.8573 37.581 32.8088 37.9699 32.7083C38.0768 32.6763 38.1836 32.7457 38.1836 32.922V35.3205C38.1909 35.4028 38.1707 35.4851 38.1263 35.5547C38.0818 35.6242 38.0156 35.6771 37.9379 35.7051C37.1013 36.0083 36.2152 36.1514 35.3257 36.1271C32.6548 36.1271 31.1323 34.7169 31.1323 31.4049V21.7895H29.1024C28.9261 21.7895 28.8834 21.7201 28.8834 21.5438V18.6966C28.8834 18.5203 28.9208 18.4135 29.1291 18.4135H31.1591C31.1883 17.0571 31.2935 15.7035 31.4742 14.359C31.4742 14.1132 31.5811 14.0438 31.72 14.0064L34.893 13.5844C35.0373 13.547 35.1388 13.5844 35.1388 13.7607C35.0693 14.781 35.0373 16.5117 34.9999 18.4135H38.0928C38.2691 18.4135 38.3385 18.4829 38.3385 18.6592L38.3172 21.5812Z" fill="white"/>
</svg>
