<svg width="52" height="50" viewBox="0 0 52 50" fill="none" xmlns="http://www.w3.org/2000/svg">
<path d="M18.8504 15.1281C18.1655 15.1031 17.4796 15.1317 16.7991 15.2136V23.5042H18.5085C21.0085 23.5042 23.3803 22.6495 23.3803 19.2307C23.3803 16.4956 21.6709 15.1281 18.8504 15.1281Z" fill="white"/>
<path d="M41.8633 2.13672H10.2394C8.1993 2.13672 6.24273 2.94716 4.80014 4.38974C3.35755 5.83233 2.54712 7.7889 2.54712 9.82903V40.1709C2.54712 42.2111 3.35755 44.1676 4.80014 45.6102C6.24273 47.0528 8.1993 47.8632 10.2394 47.8632H41.8633C42.8735 47.8632 43.8738 47.6643 44.8071 47.2777C45.7403 46.8911 46.5883 46.3245 47.3026 45.6102C48.0169 44.8959 48.5835 44.0479 48.9701 43.1147C49.3567 42.1814 49.5556 41.1811 49.5556 40.1709V9.82903C49.5556 8.81886 49.3567 7.81858 48.9701 6.88531C48.5835 5.95203 48.0169 5.10404 47.3026 4.38974C46.5883 3.67545 45.7403 3.10884 44.8071 2.72226C43.8738 2.33569 42.8735 2.13672 41.8633 2.13672ZM18.4659 27.0085H16.8633V35.2137C16.8679 35.2428 16.8667 35.2725 16.8598 35.3012C16.8528 35.3298 16.8403 35.3568 16.823 35.3806C16.8056 35.4044 16.7837 35.4246 16.7586 35.4399C16.7334 35.4553 16.7055 35.4655 16.6764 35.4701H13.2309C13.2017 35.4746 13.172 35.4734 13.1434 35.4665C13.1147 35.4596 13.0877 35.4471 13.0639 35.4297C13.0401 35.4124 13.02 35.3905 13.0046 35.3653C12.9893 35.3402 12.979 35.3122 12.9744 35.2831C12.9692 35.2603 12.9692 35.2365 12.9744 35.2137L13.0599 12.1367C13.0599 11.9658 13.4018 11.8803 13.5941 11.8803C14.9616 11.7949 17.0129 11.7949 19.0642 11.7949C24.9403 11.7949 27.2693 15.0427 27.2693 19.2308C27.2693 24.7009 23.3377 27.0085 18.4659 27.0085ZM33.9146 35.7265C32.3774 35.7947 30.8481 35.4712 29.4702 34.7863C29.2992 34.7009 29.2992 34.6154 29.2992 34.4444V31.282C29.2992 31.1111 29.3847 31.0256 29.5556 31.1111C30.8198 31.9563 32.3085 32.4029 33.8291 32.3932C35.5386 32.3932 36.2223 31.7094 36.2223 30.7906C36.2223 30.0214 35.6881 29.3376 33.5514 28.2265C30.5599 26.7735 29.2779 25.3205 29.2779 22.8419C29.2779 20.1068 31.4146 17.7991 35.1539 17.7991C36.4628 17.7454 37.7694 17.9487 39.0001 18.3974C39.0382 18.4111 39.0732 18.4323 39.1031 18.4596C39.133 18.487 39.1571 18.5201 39.174 18.5569C39.1909 18.5937 39.2003 18.6336 39.2016 18.674C39.2029 18.7145 39.1962 18.7549 39.1817 18.7927C39.184 18.8033 39.184 18.8142 39.1817 18.8248V21.7308C39.1817 21.9017 39.0962 21.9872 38.8398 21.9017C37.7246 21.2921 36.4781 20.9622 35.2074 20.9402C33.498 20.9402 32.9851 21.7949 32.9851 22.4786C32.9851 23.1624 33.4125 23.7607 35.6561 24.9573C38.9894 26.5598 40.1005 28.1197 40.1005 30.4273C40.0685 33.8462 37.5044 35.7265 33.9146 35.7265Z" fill="white"/>
</svg>
