<svg width="52" height="50" viewBox="0 0 52 50" fill="none" xmlns="http://www.w3.org/2000/svg">
<path d="M20.3195 15.7051C19.8708 18.1624 18.7811 22.2436 17.9104 25.4701H22.8463C22.264 23.1624 20.8751 18.1624 20.3623 15.7051H20.3195Z" fill="white"/>
<path d="M41.7349 2.13672H10.111C8.07088 2.13672 6.11431 2.94716 4.67173 4.38974C3.22914 5.83233 2.4187 7.7889 2.4187 9.82903V40.1709C2.4187 42.2111 3.22914 44.1676 4.67173 45.6102C6.11431 47.0528 8.07088 47.8632 10.111 47.8632H41.7349C42.7451 47.8632 43.7454 47.6643 44.6787 47.2777C45.6119 46.8911 46.4599 46.3245 47.1742 45.6102C47.8885 44.8959 48.4551 44.0479 48.8417 43.1147C49.2283 42.1814 49.4272 41.1811 49.4272 40.1709V9.82903C49.4272 8.81886 49.2283 7.81858 48.8417 6.88531C48.4551 5.95203 47.8885 5.10404 47.1742 4.38974C46.4599 3.67545 45.6119 3.10884 44.6787 2.72226C43.7454 2.33569 42.7451 2.13672 41.7349 2.13672ZM29.1655 35.3419H25.7253C25.5544 35.3419 25.4475 35.2778 25.4262 35.1282L23.7168 28.8462H17.0287L15.3834 35.0855C15.381 35.1212 15.371 35.1561 15.3543 35.1878C15.3375 35.2194 15.3142 35.2473 15.2861 35.2694C15.2579 35.2916 15.2253 35.3075 15.1906 35.3164C15.1558 35.3252 15.1196 35.3266 15.0843 35.3205H12.0341C11.8204 35.3205 11.799 35.2564 11.8204 35.0214L17.7125 14.3162C17.8603 13.7586 17.9322 13.1837 17.9262 12.6068C17.9262 12.4786 17.9903 12.3932 18.0971 12.3932H22.4561C22.5843 12.3932 22.6698 12.4359 22.6911 12.6068L29.3364 35.0427C29.3792 35.2564 29.3364 35.3419 29.1655 35.3419ZM40.0629 21.3675C40.0629 21.5385 39.9988 21.5812 39.8279 21.5812C38.497 21.5044 37.1624 21.6415 35.8749 21.9872V35.1282C35.8749 35.2991 35.8108 35.3632 35.6399 35.3632H32.3706C32.1997 35.3632 32.1356 35.2991 32.1356 35.1282V21.859C32.1356 21.6239 32.1356 21.0043 32.0287 19.8291C32.0183 19.7699 32.03 19.7089 32.0615 19.6577C32.093 19.6065 32.1421 19.5687 32.1997 19.5513C34.6307 18.619 37.2083 18.127 39.8119 18.0983C39.9828 18.0983 40.0469 18.141 40.0469 18.312L40.0629 21.3675Z" fill="white"/>
</svg>
