<svg width="52" height="50" viewBox="0 0 52 50" fill="none" xmlns="http://www.w3.org/2000/svg">
<path d="M16.0557 25.2991H21.077C20.4787 22.9059 19.0257 17.7777 18.5129 15.2136C18.0856 17.6922 16.9104 21.9657 16.0557 25.2991ZM35.6924 20.8332C33.6411 20.8332 32.7864 22.6281 32.53 24.5084H36.889H38.4915V24.1666C38.4915 22.97 37.9146 20.8332 35.6924 20.8332Z" fill="white"/>
<path d="M42.0172 2.13672H10.3933C8.35311 2.13672 6.39654 2.94716 4.95396 4.38974C3.51137 5.83233 2.70093 7.7889 2.70093 9.82903V40.1709C2.70093 42.2111 3.51137 44.1676 4.95396 45.6102C6.39654 47.0528 8.35311 47.8632 10.3933 47.8632H42.0172C43.0274 47.8632 44.0276 47.6643 44.9609 47.2777C45.8942 46.8911 46.7422 46.3245 47.4565 45.6102C48.1708 44.8959 48.7374 44.0479 49.124 43.1147C49.5105 42.1814 49.7095 41.1811 49.7095 40.1709V9.82903C49.7095 8.81886 49.5105 7.81858 49.124 6.88531C48.7374 5.95203 48.1708 5.10404 47.4565 4.38974C46.7422 3.67545 45.8942 3.10884 44.9609 2.72226C44.0276 2.33569 43.0274 2.13672 42.0172 2.13672ZM27.4873 35.3632H23.983C23.9167 35.3628 23.8514 35.3472 23.7922 35.3176C23.7329 35.2879 23.6812 35.2451 23.6411 35.1923L21.9317 28.7179H15.0941L13.3847 35.1282C13.3847 35.2991 13.2992 35.3846 13.0428 35.3846H9.88042C9.70948 35.3846 9.62401 35.2991 9.70948 35.0427L15.7779 13.8462C15.9121 13.2867 15.9696 12.7117 15.9488 12.1367C15.9488 11.9658 16.0343 11.9658 16.1198 11.9658H20.5642C20.7351 11.9658 20.7351 11.9658 20.8206 12.1367L27.6582 35.1068C27.6582 35.2564 27.6582 35.3632 27.4873 35.3632ZM41.9104 27.0299C41.909 27.0862 41.886 27.1397 41.8463 27.1795C41.8065 27.2193 41.7529 27.2422 41.6967 27.2436C40.5057 27.3859 39.3061 27.443 38.1069 27.4145H32.53C32.53 30.3205 33.983 32.2863 37.1454 32.2863C38.3414 32.3296 39.5317 32.1032 40.6283 31.6239C40.7992 31.5385 40.8847 31.6239 40.8847 31.7949V34.4658C40.8806 34.6241 40.82 34.7757 40.7138 34.8932C39.6027 35.4914 38.1497 35.6624 36.4403 35.6624C30.7992 35.6624 28.6625 31.4744 28.6625 26.859C28.6625 21.8162 31.3334 17.7137 35.842 17.7137C40.4574 17.7137 42.0813 21.6453 42.0813 24.8077C42.0966 25.5522 42.0393 26.2965 41.9104 27.0299Z" fill="white"/>
</svg>
