<svg width="53" height="50" viewBox="0 0 53 50" fill="none" xmlns="http://www.w3.org/2000/svg">
<path d="M17.3738 15.4915C16.4978 15.4915 15.6431 15.5342 15.1516 15.5556V22.6496H17.2243C19.7029 22.6496 21.4978 21.6667 21.4978 19.1026C21.5191 16.6239 19.8952 15.4915 17.3738 15.4915Z" fill="white"/>
<path d="M42.2991 2.13672H10.6752C8.63509 2.13672 6.67852 2.94716 5.23594 4.38974C3.79335 5.83233 2.98291 7.7889 2.98291 9.82903V40.1709C2.98291 42.2111 3.79335 44.1676 5.23594 45.6102C6.67852 47.0528 8.63509 47.8632 10.6752 47.8632H42.2991C43.3093 47.8632 44.3096 47.6643 45.2429 47.2777C46.1761 46.8911 47.0241 46.3245 47.7384 45.6102C48.4527 44.8959 49.0193 44.0479 49.4059 43.1147C49.7925 42.1814 49.9915 41.1811 49.9915 40.1709V9.82903C49.9915 8.81886 49.7925 7.81858 49.4059 6.88531C49.0193 5.95203 48.4527 5.10404 47.7384 4.38974C47.0241 3.67545 46.1761 3.10884 45.2429 2.72226C44.3096 2.33569 43.3093 2.13672 42.2991 2.13672ZM26.2735 35.0214H22.7479C22.5128 35.0214 22.406 34.9573 22.3419 34.8504C21.5513 33.4829 19.1368 28.782 17.5342 25.9402H15.1517V34.7863C15.1517 34.9573 15.0876 35.0214 14.9167 35.0214H11.7756C11.562 35.0214 11.4979 34.9573 11.4979 34.7436V12.8205C11.4979 12.6496 11.562 12.5214 11.7115 12.5214C13.3782 12.4573 14.9167 12.4145 17.4594 12.4145C22.3312 12.4145 25.2586 14.5513 25.2586 18.8248C25.2771 20.1655 24.8747 21.4783 24.1081 22.5784C23.3415 23.6784 22.2493 24.5104 20.985 24.9573C21.968 26.6667 25.3013 32.7137 26.391 34.765C26.5192 34.8932 26.5192 35.0214 26.2842 35.0214H26.2735ZM41.2949 33.953C39.3022 34.8158 37.1622 35.2873 34.9915 35.3419C31.8932 35.3419 28.9231 34.1453 28.9231 29.3803V18.6966C28.9231 18.5256 28.9872 18.4188 29.1581 18.4188H32.4167C32.5876 18.4188 32.6517 18.5256 32.6517 18.6966V28.9316C32.6517 30.9402 33.4423 32.0299 35.5363 32.0299C36.2667 32.0406 36.9923 31.91 37.6731 31.6453V18.6538C37.6731 18.4829 37.7372 18.3761 37.9081 18.3761H41.1133C41.3269 18.3761 41.3483 18.4829 41.3483 18.6538V31.5812C41.3483 31.8162 41.391 32.5427 41.4551 33.7179C41.4765 33.8248 41.4444 33.9103 41.3056 33.9316L41.2949 33.953Z" fill="white"/>
</svg>
