<svg width="53" height="50" viewBox="0 0 53 50" fill="none" xmlns="http://www.w3.org/2000/svg">
<path d="M20.0514 16.1326C19.218 16.1326 18.4488 16.1753 18.0642 16.1967V24.2522C18.5556 24.295 18.9189 24.295 19.7522 24.295C22.1881 24.295 24.4744 23.4403 24.4744 20.1283C24.4317 17.4787 22.8078 16.1326 20.0514 16.1326Z" fill="white"/>
<path d="M42.2735 2.13672H10.6496C8.60946 2.13672 6.65289 2.94716 5.2103 4.38974C3.76771 5.83233 2.95728 7.7889 2.95728 9.82903V40.1709C2.95728 42.2111 3.76771 44.1676 5.2103 45.6102C6.65289 47.0528 8.60946 47.8632 10.6496 47.8632H42.2735C43.2837 47.8632 44.284 47.6643 45.2172 47.2777C46.1505 46.8911 46.9985 46.3245 47.7128 45.6102C48.4271 44.8959 48.9937 44.0479 49.3803 43.1147C49.7669 42.1814 49.9658 41.1811 49.9658 40.1709V9.82903C49.9658 8.81886 49.7669 7.81858 49.3803 6.88531C48.9937 5.95203 48.4271 5.10404 47.7128 4.38974C46.9985 3.67545 46.1505 3.10884 45.2172 2.72226C44.284 2.33569 43.2837 2.13672 42.2735 2.13672ZM19.6453 27.6282C18.8547 27.6282 18.5769 27.5855 18.0427 27.5855V35.5983C18.0427 35.7692 17.9786 35.8333 17.8077 35.8333H14.6026C14.4316 35.8333 14.3675 35.7692 14.3675 35.5983V13.1624C14.3675 13.0342 14.4103 12.9273 14.5812 12.9273C15.9274 12.8632 17.8932 12.8205 19.9231 12.8205C25.6496 12.8205 28.171 16.0256 28.171 20.0641C28.171 25.3632 24.3248 27.6282 19.6453 27.6282ZM39.047 15.7906C39.047 15.9615 38.9829 16.0256 38.812 16.0043C38.51 15.9383 38.2022 15.9025 37.8932 15.8974C36.6966 15.8974 36.0983 16.7521 36.0983 18.4188V19.4872H38.812C38.9829 19.4872 39.0256 19.5299 39.0256 19.6581V22.5214C39.0256 22.6923 38.9829 22.735 38.812 22.7564H36.0769V35.5769C36.0769 35.7051 36.0342 35.812 35.8419 35.812H32.594C32.5623 35.8153 32.5303 35.8116 32.5002 35.8009C32.4702 35.7903 32.4429 35.7731 32.4204 35.7506C32.3978 35.728 32.3806 35.7007 32.37 35.6707C32.3594 35.6407 32.3556 35.6086 32.359 35.5769V22.7564H30.4145C30.2863 22.7564 30.2436 22.6923 30.2436 22.5214V19.7009C30.2436 19.5299 30.2863 19.4872 30.4145 19.4872H32.3376V18.4188C32.3024 17.2764 32.5367 16.1419 33.0214 15.1068C33.8761 13.3547 35.3504 12.5641 37.4231 12.5641C37.8995 12.5394 38.3766 12.5972 38.8333 12.735C39.0043 12.7991 39.047 12.8632 39.047 13.0342V15.7906Z" fill="white"/>
</svg>
