<svg width="47" height="50" viewBox="0 0 47 50" fill="none" xmlns="http://www.w3.org/2000/svg">
<g clip-path="url(#clip0)">
<path d="M27.75 49.5L26.25 48L22 46.25C21.75 46.25 21.5 46 21.5 45.75C21.5 45.5 21.5 45.25 21.5 45L23 41.75L21.5 36L17.75 33L13.25 34.5L10.75 38.5L10 42C10 42.25 9.75003 42.5 9.25003 42.75L7.00003 43.25C12.5 48.75 20.25 51 27.75 49.5ZM6.50003 34.25L11.75 28.25L12.5 22L8.50004 19.5C8.25004 19.5 8.25003 19.25 8.00003 19L6.25003 14L5.25003 12.25C-0.749966 19.5 -1.49996 29.75 3.00003 38L6.50003 34.25ZM41.25 12.25C40.5 13.5 39.75 14.5 38.75 15.75C40.25 16.25 41 17.25 41 18.25C41 20 38.75 21.5 35.75 21.5C32.75 21.5 30.25 20 30.25 18.25C30.25 17.25 31.25 16.25 32.5 15.75C30.25 13 27.5 9 27.5 6.25C27.5 5.5 27.5 4.75 27.75 4C27.25 4 26.75 3.75 26 3.75L25 7.5C25 7.5 25 7.75 24.75 7.75L21.25 12.25L21 12.5L17 14V16.75L18.5 19L22.5 22.25L28.5 21.5C29 21.5 29.25 21.75 29.5 22L31.25 25.5C31.25 25.75 31.25 25.75 31.25 26V33L33.75 38.75L38.75 41.25C39 41.5 39.25 41.75 39.25 42.25L39 44C47.75 35.5 48.75 21.75 41.25 12.25Z" fill="white"/>
<path d="M8.25 41.25L9 38.25V38L11.75 33.5C11.75 33.25 12 33.25 12.25 33L17.5 31.25C17.75 31.25 18 31.25 18.25 31.5L23 35C23.25 35 23.25 35.25 23.25 35.5L25 41.75C25 42 25 42.25 25 42.5L23.5 45L27 46.5C27 46.5 27.25 46.5 27.25 46.75L29.5 49.25C32.25 48.5 34.5 47.25 36.75 45.5L37.5 42.5L32.75 40C32.5 40 32.5 39.75 32.25 39.5L29.5 33.25V33V26.25L28 23.5L22.5 24C22.25 24 22 24 21.75 23.75L17.25 20.25L17 20L15.25 17.5C15.25 17.25 15 17.25 15 17V13.5C15 13 15.25 12.75 15.5 12.5L20 10.75L23.25 6.5L24.5 3.5H23.25C16.75 3.5 10.75 6 6.25 10.75L7.75 12.75V13L9.5 18L13.75 20.5C14 20.75 14.25 21 14.25 21.5L13.5 28.75C13.5 29 13.5 29 13.25 29.25L8 35.5L4 39.5C4.5 40.25 5.25 41.25 5.75 42L8.25 41.25ZM35 18.5L33.75 17.25C32.5 17.5 32 18 32 18.25C32 18.5 33.25 19.5 35.5 19.5C37.75 19.5 39 18.75 39 18.25C39 17.75 38.75 17.5 37.5 17.25L36.25 18.5C36 18.75 35.5 18.75 35 18.5ZM35.75 16.5C38 14 42 9 42 6.25C42 2.75 39.25 0 35.75 0C32.25 0 29.5 2.75 29.5 6.25C29.5 9 33.5 14 35.75 16.5ZM35.75 2.75C37.75 2.75 39.25 4.25 39.25 6.25C39.25 8.25 37.75 9.75 35.75 9.75C33.75 9.75 32.25 8.25 32.25 6.25C32.25 4.25 33.75 2.75 35.75 2.75Z" fill="white"/>
<path d="M35.75 8.00012C36.7165 8.00012 37.5 7.21662 37.5 6.25012C37.5 5.28362 36.7165 4.50012 35.75 4.50012C34.7835 4.50012 34 5.28362 34 6.25012C34 7.21662 34.7835 8.00012 35.75 8.00012Z" fill="white"/>
</g>
<defs>
<clipPath id="clip0">
<rect width="46.5" height="50" fill="white"/>
</clipPath>
</defs>
</svg>
