<svg width="52" height="50" viewBox="0 0 52 50" fill="none" xmlns="http://www.w3.org/2000/svg">
<path d="M41.9915 2.13675H10.3675C8.32741 2.13675 6.37084 2.94719 4.92826 4.38977C3.48567 5.83236 2.67523 7.78893 2.67523 9.82906V40.1709C2.67523 42.2111 3.48567 44.1676 4.92826 45.6102C6.37084 47.0528 8.32741 47.8632 10.3675 47.8632H41.9915C43.0016 47.8632 44.0019 47.6643 44.9352 47.2777C45.8685 46.8911 46.7165 46.3245 47.4308 45.6102C48.1451 44.8959 48.7117 44.0479 49.0982 43.1147C49.4848 42.1814 49.6838 41.1811 49.6838 40.1709V9.82906C49.6838 8.81889 49.4848 7.81861 49.0982 6.88534C48.7117 5.95206 48.1451 5.10407 47.4308 4.38977C46.7165 3.67548 45.8685 3.10887 44.9352 2.72229C44.0019 2.33572 43.0016 2.13675 41.9915 2.13675ZM27.2906 35.1923H23.7863C23.6154 35.1923 23.5299 35.1923 23.4445 35.0214L21.6496 28.6111L14.812 28.6966L13.1026 35.1068C13.1026 35.2778 13.0171 35.2778 12.7607 35.2778H9.61968C9.44874 35.2778 9.36327 35.1923 9.44874 34.9359L15.4957 13.6752C15.6352 13.1167 15.6928 12.5409 15.6667 11.9658C15.6667 11.7949 15.7522 11.7949 15.8376 11.7949H20.3675C20.5385 11.7949 20.5385 11.7949 20.6239 11.9658L27.4616 34.9359C27.4616 35.1068 27.4616 35.1923 27.2906 35.1923ZM42.5043 34.9573C42.5089 34.9864 42.5076 35.0161 42.5007 35.0447C42.4938 35.0734 42.4813 35.1004 42.4639 35.1242C42.4466 35.148 42.4247 35.1682 42.3995 35.1835C42.3744 35.1989 42.3464 35.2091 42.3173 35.2137C42.2945 35.2189 42.2707 35.2189 42.2479 35.2137H39C38.9709 35.2182 38.9412 35.217 38.9125 35.2101C38.8839 35.2032 38.8569 35.1907 38.8331 35.1733C38.8093 35.1559 38.7891 35.1341 38.7738 35.1089C38.7584 35.0838 38.7482 35.0558 38.7436 35.0267C38.7383 35.0039 38.7383 34.9801 38.7436 34.9573V24.188C38.7436 22.1367 38.0598 21.0256 35.9231 21.0256C35.1052 21.012 34.2925 21.1571 33.5299 21.453V35.1282C33.5299 35.2991 33.4445 35.3846 33.359 35.3846H29.8547C29.8256 35.3892 29.7959 35.388 29.7672 35.381C29.7386 35.3741 29.7116 35.3616 29.6878 35.3442C29.664 35.3269 29.6438 35.305 29.6285 35.2798C29.6131 35.2547 29.6029 35.2268 29.5983 35.1976C29.5931 35.1748 29.5931 35.1511 29.5983 35.1282L29.5128 21.453C29.5128 21.282 29.5128 20.5128 29.4274 19.2308C29.4274 19.0598 29.5128 19.0598 29.5983 18.9744C31.6863 18.0965 33.916 17.6042 36.1795 17.5214C39.171 17.5214 42.5043 18.7179 42.5043 23.8462V34.9573Z" fill="white"/>
<path d="M15.7521 25.2137H20.7949C20.1966 22.8205 18.7436 17.6923 18.2308 15.2137C17.8034 17.6923 16.6282 21.9658 15.7521 25.2137Z" fill="white"/>
</svg>
