<svg width="51" height="50" viewBox="0 0 51 50" fill="none" xmlns="http://www.w3.org/2000/svg">
<path d="M25.75 49.2188C12.3711 49.2188 1.53125 38.3789 1.53125 25C1.53125 11.6211 12.3711 0.78125 25.75 0.78125C39.1289 0.78125 49.9688 11.6211 49.9688 25C49.9688 38.3789 39.1289 49.2188 25.75 49.2188ZM37.0781 20.7031H25.75V13.7793C25.75 12.7344 24.4805 12.207 23.748 12.9492L12.5859 24.1699C12.127 24.6289 12.127 25.3613 12.5859 25.8203L23.748 37.041C24.4902 37.7832 25.75 37.2559 25.75 36.2109V29.2969H37.0781C37.7227 29.2969 38.25 28.7695 38.25 28.125V21.875C38.25 21.2305 37.7227 20.7031 37.0781 20.7031Z" fill="white"/>
</svg>
