<svg width="51" height="50" viewBox="0 0 51 50" fill="none" xmlns="http://www.w3.org/2000/svg">
<path d="M49.9688 25C49.9688 38.3789 39.1289 49.2188 25.75 49.2188C12.3711 49.2188 1.53125 38.3789 1.53125 25C1.53125 11.6211 12.3711 0.78125 25.75 0.78125C39.1289 0.78125 49.9688 11.6211 49.9688 25ZM21.4531 13.6719V25H14.5293C13.4844 25 12.957 26.2695 13.6992 27.002L24.9199 38.1641C25.3789 38.623 26.1113 38.623 26.5703 38.1641L37.791 27.002C38.5332 26.2598 38.0059 25 36.9609 25H30.0469V13.6719C30.0469 13.0273 29.5195 12.5 28.875 12.5H22.625C21.9805 12.5 21.4531 13.0273 21.4531 13.6719Z" fill="white"/>
</svg>
