<svg width="52" height="50" viewBox="0 0 52 50" fill="none" xmlns="http://www.w3.org/2000/svg">
<path d="M15.7778 25.2137H20.8205C20.2222 22.8205 18.7906 17.6923 18.2564 15.2137C17.8291 17.6923 16.6325 21.9658 15.7778 25.2137Z" fill="white"/>
<path d="M42.0171 2.13675H10.3932C8.35303 2.13675 6.39646 2.94719 4.95388 4.38977C3.51129 5.83236 2.70085 7.78893 2.70085 9.82906V40.1709C2.70085 42.2111 3.51129 44.1676 4.95388 45.6102C6.39646 47.0528 8.35303 47.8632 10.3932 47.8632H42.0171C43.0273 47.8632 44.0275 47.6643 44.9608 47.2777C45.8941 46.8911 46.7421 46.3245 47.4564 45.6102C48.1707 44.8959 48.7373 44.0479 49.1239 43.1147C49.5104 42.1814 49.7094 41.1811 49.7094 40.1709V9.82906C49.7094 8.81889 49.5104 7.81861 49.1239 6.88534C48.7373 5.95206 48.1707 5.10407 47.4564 4.38977C46.7421 3.67548 45.8941 3.10887 44.9608 2.72229C44.0275 2.33572 43.0273 2.13675 42.0171 2.13675ZM27.3162 35.2137H23.812C23.641 35.2137 23.5556 35.2137 23.4701 35.0427L21.6752 28.6325L14.8376 28.7179L13.1282 35.1282C13.1282 35.2991 13.0427 35.2991 12.7863 35.2991H9.6453C9.47436 35.2991 9.38889 35.2137 9.47436 34.9573L15.5214 13.6752C15.6608 13.1167 15.7184 12.5409 15.6923 11.9658C15.6923 11.7949 15.7778 11.7949 15.8632 11.7949H20.3932C20.5641 11.7949 20.5641 11.7949 20.6496 11.9658L27.4872 34.9359C27.4872 35.1282 27.4872 35.2137 27.3162 35.2137ZM42.359 34.2735C40.2719 35.1543 38.0417 35.6467 35.7778 35.7265C32.7863 35.7265 29.453 34.5299 29.453 29.4017V18.2906C29.4484 18.2615 29.4496 18.2318 29.4566 18.2031C29.4635 18.1745 29.476 18.1475 29.4934 18.1237C29.5107 18.0998 29.5326 18.0797 29.5578 18.0643C29.5829 18.049 29.6108 18.0387 29.64 18.0342H32.9573C32.9864 18.0296 33.0161 18.0308 33.0447 18.0378C33.0734 18.0447 33.1004 18.0572 33.1242 18.0746C33.148 18.0919 33.1682 18.1138 33.1835 18.139C33.1989 18.1641 33.2091 18.192 33.2137 18.2212C33.2189 18.244 33.2189 18.2677 33.2137 18.2906V29.0598C33.2137 31.1111 33.8974 32.2222 36.0342 32.2222C36.852 32.2359 37.6648 32.0907 38.4273 31.7949V18.1197C38.4273 17.9487 38.5128 17.8632 38.5983 17.8632H42.1026C42.1317 17.8587 42.1614 17.8599 42.19 17.8668C42.2187 17.8737 42.2457 17.8863 42.2695 17.9036C42.2933 17.921 42.3135 17.9429 42.3288 17.968C42.3442 17.9932 42.3544 18.0211 42.359 18.0502C42.3642 18.0731 42.3642 18.0968 42.359 18.1197L42.4444 31.7949C42.4444 31.9658 42.4444 32.735 42.5299 34.0171C42.5299 34.188 42.4444 34.188 42.359 34.2735Z" fill="white"/>
</svg>
