<svg width="39" height="50" viewBox="0 0 39 50" fill="none" xmlns="http://www.w3.org/2000/svg">
<g clip-path="url(#clip0)">
<path d="M10.2344 35.4131C9.38573 34.5644 9.82811 34.8037 7.78123 34.2559C6.85252 34.0068 6.03612 33.5283 5.29783 32.9551L0.867167 43.8184C0.438456 44.8701 1.23924 46.0127 2.374 45.9697L7.51952 45.7734L11.0586 49.5117C11.8398 50.3359 13.2109 50.0791 13.6396 49.0273L18.7226 36.5644C17.6641 37.1543 16.4892 37.5 15.2744 37.5C13.3701 37.5 11.581 36.7588 10.2344 35.4131ZM38.1328 43.8184L33.7022 32.9551C32.9639 33.5293 32.1475 34.0068 31.2188 34.2559C29.1611 34.8066 29.6123 34.5664 28.7656 35.4131C27.4189 36.7588 25.6289 37.5 23.7246 37.5C22.5098 37.5 21.335 37.1533 20.2764 36.5644L25.3594 49.0273C25.7881 50.0791 27.1602 50.3359 27.9404 49.5117L31.4805 45.7734L36.626 45.9697C37.7607 46.0127 38.5615 44.8691 38.1328 43.8184ZM26.4336 33.2031C27.9258 31.6846 28.0967 31.8154 30.2217 31.2363C31.5781 30.8662 32.6387 29.7871 33.002 28.4062C33.7324 25.6328 33.543 25.9678 35.5361 23.9385C36.5293 22.9277 36.917 21.4541 36.5537 20.0732C35.8242 17.3018 35.8232 17.6885 36.5537 14.9141C36.917 13.5332 36.5293 12.0596 35.5361 11.0488C33.543 9.01953 33.7324 9.35351 33.002 6.58105C32.6387 5.20019 31.5781 4.12109 30.2217 3.75097C27.499 3.00781 27.8271 3.20214 25.832 1.17187C24.8389 0.161127 23.3906 -0.234381 22.0342 0.135736C19.3125 0.877924 19.6924 0.8789 16.9658 0.135736C15.6094 -0.234381 14.1611 0.16015 13.168 1.17187C11.1748 3.20117 11.5029 3.00781 8.77928 3.75097C7.42284 4.12109 6.36229 5.20019 5.99901 6.58105C5.26951 9.35351 5.45799 9.01953 3.46483 11.0488C2.47166 12.0596 2.08299 13.5332 2.44725 14.9141C3.17674 17.6836 3.17772 17.2969 2.44725 20.0723C2.08396 21.4531 2.47166 22.9268 3.46483 23.9385C5.45799 25.9678 5.26854 25.6328 5.99901 28.4062C6.36229 29.7871 7.42284 30.8662 8.77928 31.2363C10.9648 31.832 11.1279 31.7383 12.5664 33.2031C13.8584 34.5185 15.8711 34.7539 17.4238 33.7715C18.0447 33.3773 18.765 33.168 19.5005 33.168C20.236 33.168 20.9562 33.3773 21.5771 33.7715C23.1289 34.7539 25.1416 34.5185 26.4336 33.2031ZM10.2871 17.1836C10.2871 12.0049 14.4121 7.80663 19.5 7.80663C24.5879 7.80663 28.7129 12.0049 28.7129 17.1836C28.7129 22.3623 24.5879 26.5605 19.5 26.5605C14.4121 26.5605 10.2871 22.3623 10.2871 17.1836Z" fill="white"/>
</g>
<defs>
<clipPath id="clip0">
<rect width="37.5" height="50" fill="white" transform="translate(0.75)"/>
</clipPath>
</defs>
</svg>
