<svg width="63" height="50" viewBox="0 0 63 50" fill="none" xmlns="http://www.w3.org/2000/svg">
<g clip-path="url(#clip0)">
<path d="M18.1182 19.8252C18.0479 22.0371 19.1533 23.0166 19.1807 23.6387C19.1676 23.7653 19.1245 23.8869 19.0549 23.9935C18.9852 24.1 18.891 24.1883 18.7803 24.251L17.5303 25.126C17.3685 25.2394 17.1778 25.3044 16.9805 25.3135C16.9385 25.3115 16.1807 25.4922 14.9805 22.8125C14.2482 23.7265 13.3166 24.4609 12.2568 24.9594C11.197 25.4579 10.0372 25.7073 8.86622 25.6885C7.27637 25.7754 2.96778 24.7861 3.18946 20.1992C3.03419 16.4609 6.51563 14.1387 10.1162 14.335C10.8096 14.3369 12.2256 14.3711 14.7051 14.9473V13.4219C14.9678 10.8379 13.2695 8.833 10.3291 9.13379C10.0947 9.13476 8.43458 9.08496 5.85254 10.1211C5.13379 10.4512 5.042 10.3965 4.80274 10.3965C4.07911 10.3965 4.37696 8.29882 4.51563 8.0332C5.02442 7.4082 8.01758 6.24121 10.9551 6.25781C12.9192 6.0841 14.8728 6.69028 16.3936 7.94531C17.0118 8.6368 17.4834 9.44641 17.78 10.3252C18.0765 11.2041 18.1919 12.1339 18.1191 13.0586L18.1182 19.8252ZM9.67872 22.9883C12.8457 22.9424 14.1865 21.0381 14.4922 20.0127C14.7324 19.0312 14.6924 18.4102 14.6924 17.3369C13.7481 17.1104 12.3887 16.8633 10.8291 16.8613C9.34961 16.75 6.64747 17.4111 6.75293 20.0117C6.63184 21.6514 7.83887 23.0781 9.67872 22.9883ZM26.3701 25.2393C25.6025 25.3096 25.2451 24.7647 25.1318 24.2266L20.2686 8.14746C20.1738 7.87597 20.1113 7.5957 20.0811 7.30957C20.0631 7.1916 20.0927 7.07134 20.1634 6.9752C20.2341 6.87907 20.3401 6.81493 20.458 6.79687C20.4814 6.79296 20.25 6.79687 22.6309 6.79687C23.4883 6.71093 23.7676 7.38574 23.8564 7.80957L27.3447 21.5625L30.583 7.80957C30.6348 7.49511 30.8701 6.72851 31.833 6.80957H33.5088C33.7207 6.79199 34.5938 6.76074 34.7471 7.82226L38.0107 21.751L41.6113 7.82226C41.6582 7.60937 41.8769 6.71191 42.8496 6.80957H44.7754C44.8584 6.79687 45.376 6.73046 45.2881 7.64746C45.2461 7.82812 45.6211 6.60644 40.1367 24.2393C40.0244 24.7773 39.666 25.3223 38.8984 25.252H37.0732C36.0049 25.3643 35.8516 24.3086 35.835 24.2022L32.5967 10.8105L29.3955 24.1885C29.3799 24.2949 29.2266 25.3506 28.1572 25.2383H26.3701V25.2393ZM53.0771 25.7891C52.5029 25.79 49.7646 25.7598 47.4756 24.5889C47.2476 24.4923 47.0533 24.3302 46.9176 24.1232C46.7818 23.9161 46.7105 23.6734 46.7129 23.4258V22.376C46.7129 21.5508 47.3184 21.7021 47.5752 21.8008C48.5557 22.1973 49.1846 22.498 50.3887 22.7383C53.9678 23.4736 55.542 22.5137 55.9277 22.3008C57.2119 21.5381 57.3135 19.793 56.4404 18.8877C55.417 18.0293 54.9287 17.9971 51.2519 16.8369C50.7988 16.7109 46.9844 15.5078 46.9756 11.7236C46.916 8.96582 49.4219 6.2373 53.7646 6.25976C55.0019 6.25878 58.2988 6.66308 59.1914 7.78515C59.3232 7.98925 59.3887 8.22949 59.3789 8.47265V9.45996C59.3789 9.89355 59.2207 10.1103 58.9033 10.1103C58.1504 10.0264 56.8144 9.01953 54.1025 9.06054C53.4297 9.02539 50.207 9.14941 50.3516 11.499C50.3096 13.3506 52.9502 14.0449 53.2519 14.125C56.8125 15.1963 58.0029 15.374 59.416 17.0137C61.0898 19.1865 60.1875 21.7305 59.8408 22.4277C57.9775 26.0889 53.1592 25.791 53.0771 25.7891ZM57.0029 36.0293C50.1641 41.0801 40.2363 43.7686 31.7598 43.7686C20.3223 43.844 9.27032 39.6384 0.776374 31.9785C0.138679 31.4033 0.701179 30.6152 1.47657 31.0537C10.8989 36.4435 21.5669 39.2755 32.4219 39.2686C40.5281 39.2251 48.5458 37.5807 56.0146 34.4297C57.165 33.9414 58.1406 35.1914 57.0029 36.0293ZM59.8535 32.7783C58.9785 31.6533 54.0644 32.2529 51.8643 32.5156C51.2012 32.5908 51.0889 32.0156 51.6894 31.5908C55.6025 28.8398 62.0293 29.6279 62.7676 30.5527C63.5049 31.4775 62.5674 37.917 58.9043 40.9932C58.3418 41.4688 57.8037 41.2178 58.0537 40.5928C58.8779 38.5176 60.7285 33.9043 59.8535 32.7783Z" fill="white"/>
</g>
<defs>
<clipPath id="clip0">
<rect width="62.5" height="50" fill="white" transform="translate(0.5)"/>
</clipPath>
</defs>
</svg>
