<svg width="63" height="50" viewBox="0 0 63 50" fill="none" xmlns="http://www.w3.org/2000/svg">
<g clip-path="url(#clip0)">
<path d="M18.1181 19.8252C18.0478 22.0371 19.1532 23.0166 19.1806 23.6387C19.1675 23.7653 19.1244 23.8869 19.0548 23.9935C18.9851 24.1 18.8909 24.1883 18.7802 24.251L17.5302 25.126C17.3684 25.2394 17.1777 25.3044 16.9804 25.3135C16.9384 25.3115 16.1806 25.4922 14.9804 22.8125C14.2481 23.7265 13.3165 24.4609 12.2567 24.9594C11.1969 25.4579 10.0371 25.7073 8.86617 25.6885C7.27632 25.7754 2.96773 24.7861 3.18941 20.1992C3.03414 16.4609 6.51558 14.1387 10.1161 14.335C10.8095 14.3369 12.2255 14.3711 14.705 14.9473V13.4219C14.9677 10.8379 13.2694 8.83303 10.329 9.13382C10.0946 9.13479 8.43453 9.08499 5.85249 10.1211C5.13374 10.4512 5.04195 10.3965 4.80269 10.3965C4.07906 10.3965 4.37691 8.29885 4.51558 8.03323C5.02437 7.40823 8.01753 6.24124 10.955 6.25784C12.9191 6.08413 14.8727 6.69031 16.3935 7.94534C17.0117 8.63683 17.4833 9.44644 17.7799 10.3252C18.0764 11.2041 18.1918 12.1339 18.119 13.0586L18.1181 19.8252ZM9.67867 22.9883C12.8456 22.9424 14.1864 21.0381 14.4921 20.0127C14.7323 19.0312 14.6923 18.4102 14.6923 17.3369C13.748 17.1104 12.3886 16.8633 10.829 16.8613C9.34956 16.75 6.64742 17.4111 6.75288 20.0117C6.63179 21.6514 7.83882 23.0781 9.67867 22.9883ZM26.37 25.2393C25.6024 25.3096 25.245 24.7647 25.1317 24.2266L20.2685 8.14749C20.1737 7.876 20.1112 7.59573 20.081 7.3096C20.063 7.19163 20.0926 7.07137 20.1633 6.97523C20.234 6.8791 20.34 6.81496 20.4579 6.7969C20.4813 6.79299 20.2499 6.7969 22.6308 6.7969C23.4882 6.71096 23.7675 7.38577 23.8563 7.8096L27.3446 21.5625L30.5829 7.8096C30.6347 7.49514 30.87 6.72854 31.8329 6.8096H33.5087C33.7206 6.79202 34.5936 6.76077 34.747 7.82229L38.0106 21.751L41.6112 7.82229C41.6581 7.6094 41.8768 6.71194 42.8495 6.8096H44.7753C44.8583 6.7969 45.3759 6.73049 45.288 7.64749C45.246 7.82815 45.621 6.60647 40.1366 24.2393C40.0243 24.7773 39.6659 25.3223 38.8983 25.252H37.0731C36.0048 25.3643 35.8515 24.3086 35.8349 24.2022L32.5966 10.8105L29.3954 24.1885C29.3798 24.2949 29.2265 25.3506 28.1571 25.2383H26.37V25.2393ZM53.077 25.7891C52.5028 25.79 49.7645 25.7598 47.4755 24.5889C47.2475 24.4923 47.0532 24.3302 46.9175 24.1232C46.7817 23.9161 46.7104 23.6734 46.7128 23.4258V22.376C46.7128 21.5508 47.3183 21.7021 47.5751 21.8008C48.5556 22.1973 49.1845 22.498 50.3886 22.7383C53.9677 23.4736 55.5419 22.5137 55.9276 22.3008C57.2118 21.5381 57.3134 19.793 56.4403 18.8877C55.4169 18.0293 54.9286 17.9971 51.2518 16.8369C50.7987 16.7109 46.9843 15.5078 46.9755 11.7236C46.9159 8.96585 49.4218 6.23733 53.7645 6.25979C55.0018 6.25881 58.2987 6.66311 59.1913 7.78518C59.3231 7.98928 59.3886 8.22952 59.3788 8.47268V9.45999C59.3788 9.89358 59.2206 10.1103 58.9032 10.1103C58.1503 10.0264 56.8143 9.01956 54.1024 9.06057C53.4296 9.02542 50.2069 9.14944 50.3515 11.499C50.3095 13.3506 52.9501 14.0449 53.2518 14.125C56.8124 15.1963 58.0028 15.374 59.4159 17.0137C61.0897 19.1865 60.1874 21.7305 59.8407 22.4277C57.9774 26.0889 53.1591 25.791 53.077 25.7891ZM57.0028 36.0293C50.164 41.0801 40.2362 43.7686 31.7597 43.7686C20.3222 43.844 9.27028 39.6384 0.77632 31.9785C0.138625 31.4033 0.701125 30.6152 1.47652 31.0537C10.8988 36.4435 21.5668 39.2755 32.4218 39.2686C40.528 39.2251 48.5457 37.5807 56.0145 34.4297C57.1649 33.9414 58.1405 35.1914 57.0028 36.0293ZM59.8534 32.7783C58.9784 31.6533 54.0643 32.2529 51.8641 32.5156C51.2011 32.5908 51.0888 32.0156 51.6893 31.5908C55.6024 28.8398 62.0292 29.6279 62.7675 30.5527C63.5048 31.4775 62.5673 37.917 58.9042 40.9932C58.3417 41.4688 57.8036 41.2178 58.0536 40.5928C58.8778 38.5176 60.7284 33.9043 59.8534 32.7783Z" fill="white"/>
</g>
<defs>
<clipPath id="clip0">
<rect width="63" height="50" fill="white"/>
</clipPath>
</defs>
</svg>
