<svg width="44" height="50" viewBox="0 0 44 50" fill="none" xmlns="http://www.w3.org/2000/svg">
<path d="M1.8125 12.8906H42.4375C43.3005 12.8906 44 12.1911 44 11.3281V7.42188C44 6.55888 43.3005 5.85938 42.4375 5.85938H1.8125C0.949512 5.85938 0.25 6.55888 0.25 7.42188V11.3281C0.25 12.1911 0.949512 12.8906 1.8125 12.8906ZM1.8125 28.5156H42.4375C43.3005 28.5156 44 27.8161 44 26.9531V23.0469C44 22.1839 43.3005 21.4844 42.4375 21.4844H1.8125C0.949512 21.4844 0.25 22.1839 0.25 23.0469V26.9531C0.25 27.8161 0.949512 28.5156 1.8125 28.5156ZM1.8125 44.1406H42.4375C43.3005 44.1406 44 43.4411 44 42.5781V38.6719C44 37.8089 43.3005 37.1094 42.4375 37.1094H1.8125C0.949512 37.1094 0.25 37.8089 0.25 38.6719V42.5781C0.25 43.4411 0.949512 44.1406 1.8125 44.1406Z" fill="white"/>
</svg>
