<svg width="57" height="50" viewBox="0 0 57 50" fill="none" xmlns="http://www.w3.org/2000/svg">
<g clip-path="url(#clip0)">
<path d="M22.6562 23.1641C25.7617 21.6797 27.3828 19.4336 27.3828 15.9375C27.3828 9.04297 22.2461 7.36328 16.3184 7.36328H0V41.9727H16.7773C23.0664 41.9727 28.9746 38.9551 28.9746 31.9238C28.9746 27.5781 26.9141 24.3652 22.6562 23.1641ZM7.60742 13.2715H14.7461C17.4902 13.2715 19.9609 14.043 19.9609 17.2266C19.9609 20.166 18.0371 21.3477 15.3223 21.3477H7.60742V13.2715ZM15.7422 36.0938H7.60742V26.5625H15.8984C19.248 26.5625 21.3672 27.959 21.3672 31.5039C21.3672 35 18.8379 36.0938 15.7422 36.0938ZM50.752 12.5879H36.7188V9.17969H50.752V12.5879ZM56.25 29.8047C56.25 22.3926 51.9141 16.2109 44.0527 16.2109C36.416 16.2109 31.2305 21.9531 31.2305 29.4727C31.2305 37.2754 36.1426 42.627 44.0527 42.627C50.0391 42.627 53.916 39.9316 55.7812 34.1992H49.707C49.0527 36.3379 46.3574 37.4707 44.2676 37.4707C40.2344 37.4707 38.1152 35.1074 38.1152 31.0938H56.1914C56.2207 30.6836 56.25 30.2441 56.25 29.8047ZM38.125 26.7578C38.3496 23.4668 40.5371 21.4062 43.8379 21.4062C47.2949 21.4062 49.0332 23.4375 49.3262 26.7578H38.125Z" fill="white"/>
</g>
<defs>
<clipPath id="clip0">
<rect width="56.25" height="50" fill="white"/>
</clipPath>
</defs>
</svg>
