<svg width="45" height="50" viewBox="0 0 45 50" fill="none" xmlns="http://www.w3.org/2000/svg">
<g clip-path="url(#clip0)">
<path d="M22.6244 50C26.0736 50 28.8715 47.2021 28.8715 43.75H16.3773C16.3773 47.2021 19.1752 50 22.6244 50ZM43.6586 35.3799C41.7718 33.3525 38.2416 30.3027 38.2416 20.3125C38.2416 12.7246 32.9212 6.65039 25.7474 5.16016V3.125C25.7474 1.39941 24.349 0 22.6244 0C20.8998 0 19.5013 1.39941 19.5013 3.125V5.16016C12.3275 6.65039 7.00721 12.7246 7.00721 20.3125C7.00721 30.3027 3.47693 33.3525 1.59022 35.3799C1.00428 36.0098 0.744513 36.7627 0.749396 37.5C0.760138 39.1016 2.01697 40.625 3.88416 40.625H41.3646C43.2318 40.625 44.4896 39.1016 44.4994 37.5C44.5043 36.7627 44.2445 36.0088 43.6586 35.3799Z" fill="white"/>
</g>
<defs>
<clipPath id="clip0">
<rect width="43.75" height="50" fill="white" transform="translate(0.75)"/>
</clipPath>
</defs>
</svg>
