<svg width="63" height="50" viewBox="0 0 63 50" fill="none" xmlns="http://www.w3.org/2000/svg">
<g clip-path="url(#clip0)">
<path d="M39.5624 9.375C40.4895 9.375 41.3958 9.10009 42.1667 8.58502C42.9375 8.06995 43.5383 7.33786 43.8931 6.48133C44.2479 5.6248 44.3407 4.6823 44.1599 3.77302C43.979 2.86373 43.5326 2.0285 42.877 1.37294C42.2215 0.71738 41.3862 0.270939 40.4769 0.0900711C39.5676 -0.0907971 38.6251 0.00203103 37.7686 0.356817C36.9121 0.711603 36.18 1.31241 35.6649 2.08327C35.1499 2.85412 34.8749 3.7604 34.8749 4.6875C34.8749 5.9307 35.3688 7.12299 36.2479 8.00206C37.127 8.88114 38.3192 9.375 39.5624 9.375ZM39.1718 21.1914C39.726 21.6352 40.415 21.8763 41.1249 21.875H47.3749C48.2037 21.875 48.9986 21.5458 49.5847 20.9597C50.1707 20.3737 50.4999 19.5788 50.4999 18.75C50.4999 17.9212 50.1707 17.1263 49.5847 16.5403C48.9986 15.9542 48.2037 15.625 47.3749 15.625H42.2206L35.2656 10.0586C34.6979 9.60287 33.9888 9.36004 33.2609 9.37217C32.5331 9.3843 31.8324 9.65062 31.2802 10.125L20.3427 19.5C19.9764 19.8141 19.6877 20.2088 19.4994 20.6531C19.3112 21.0975 19.2283 21.5794 19.2575 22.0611C19.2866 22.5428 19.4269 23.0112 19.6674 23.4296C19.9079 23.848 20.242 24.205 20.6435 24.4727L28.6249 29.7969V40.625C28.6249 41.4538 28.9542 42.2487 29.5402 42.8347C30.1263 43.4208 30.9211 43.75 31.7499 43.75C32.5787 43.75 33.3736 43.4208 33.9597 42.8347C34.5457 42.2487 34.8749 41.4538 34.8749 40.625V28.125C34.8749 27.6106 34.7478 27.1042 34.505 26.6507C34.2623 26.1973 33.9113 25.8107 33.4833 25.5254L29.4443 22.833L35.1328 17.958L39.1718 21.1914ZM50.4999 25C48.0277 25 45.6109 25.7331 43.5553 27.1066C41.4997 28.4802 39.8975 30.4324 38.9515 32.7165C38.0054 35.0005 37.7578 37.5139 38.2401 39.9386C38.7224 42.3634 39.913 44.5907 41.6611 46.3388C43.4093 48.087 45.6366 49.2775 48.0613 49.7598C50.4861 50.2421 52.9994 49.9946 55.2835 49.0485C57.5676 48.1024 59.5198 46.5002 60.8933 44.4446C62.2668 42.389 62.9999 39.9723 62.9999 37.5C62.9999 34.1848 61.683 31.0054 59.3388 28.6612C56.9946 26.317 53.8152 25 50.4999 25ZM50.4999 43.75C49.2638 43.75 48.0554 43.3834 47.0276 42.6967C45.9998 42.0099 45.1987 41.0338 44.7257 39.8918C44.2527 38.7497 44.1289 37.4931 44.37 36.2807C44.6112 35.0683 45.2065 33.9547 46.0805 33.0806C46.9546 32.2065 48.0682 31.6113 49.2806 31.3701C50.493 31.1289 51.7497 31.2527 52.8917 31.7258C54.0338 32.1988 55.0099 32.9999 55.6966 34.0277C56.3834 35.0555 56.7499 36.2639 56.7499 37.5C56.7499 39.1576 56.0915 40.7473 54.9194 41.9194C53.7473 43.0915 52.1575 43.75 50.4999 43.75ZM12.9999 25C10.5277 25 8.11093 25.7331 6.05532 27.1066C3.9997 28.4802 2.39755 30.4324 1.45145 32.7165C0.505355 35.0005 0.257813 37.5139 0.740129 39.9386C1.22244 42.3634 2.41295 44.5907 4.16111 46.3388C5.90927 48.087 8.13655 49.2775 10.5613 49.7598C12.9861 50.2421 15.4994 49.9946 17.7835 49.0485C20.0676 48.1024 22.0198 46.5002 23.3933 44.4446C24.7668 42.389 25.4999 39.9723 25.4999 37.5C25.4999 34.1848 24.183 31.0054 21.8388 28.6612C19.4946 26.317 16.3152 25 12.9999 25ZM12.9999 43.75C11.7638 43.75 10.5554 43.3834 9.52763 42.6967C8.49982 42.0099 7.69875 41.0338 7.2257 39.8918C6.75265 38.7497 6.62888 37.4931 6.87004 36.2807C7.11119 35.0683 7.70645 33.9547 8.58053 33.0806C9.45461 32.2065 10.5682 31.6113 11.7806 31.3701C12.993 31.1289 14.2497 31.2527 15.3917 31.7258C16.5338 32.1988 17.5099 32.9999 18.1966 34.0277C18.8834 35.0555 19.2499 36.2639 19.2499 37.5C19.2499 39.1576 18.5915 40.7473 17.4194 41.9194C16.2473 43.0915 14.6575 43.75 12.9999 43.75Z" fill="white"/>
</g>
<defs>
<clipPath id="clip0">
<rect width="62.5" height="50" fill="white" transform="translate(0.5)"/>
</clipPath>
</defs>
</svg>
