<svg width="51" height="50" viewBox="0 0 51 50" fill="none" xmlns="http://www.w3.org/2000/svg">
<path d="M31.75 32.8125C31.75 33.6758 31.0508 34.375 30.1875 34.375H20.8125C19.9492 34.375 19.25 33.6758 19.25 32.8125V28.125H0.5V42.1875C0.5 44.6875 2.6875 46.875 5.1875 46.875H45.8125C48.3125 46.875 50.5 44.6875 50.5 42.1875V28.125H31.75V32.8125ZM45.8125 12.5H38V7.8125C38 5.3125 35.8125 3.125 33.3125 3.125H17.6875C15.1875 3.125 13 5.3125 13 7.8125V12.5H5.1875C2.6875 12.5 0.5 14.6875 0.5 17.1875V25H50.5V17.1875C50.5 14.6875 48.3125 12.5 45.8125 12.5ZM31.75 12.5H19.25V9.375H31.75V12.5Z" fill="white"/>
</svg>
