<svg width="51" height="50" viewBox="0 0 51 50" fill="none" xmlns="http://www.w3.org/2000/svg">
<g clip-path="url(#clip0)">
<path d="M50.25 14.0625V42.1875C50.25 44.7754 48.1504 46.875 45.5625 46.875H4.9375C2.34961 46.875 0.25 44.7754 0.25 42.1875V14.0625C0.25 11.4746 2.34961 9.375 4.9375 9.375H13.5312L14.7324 6.16211C15.416 4.33594 17.1641 3.125 19.1172 3.125H31.373C33.3262 3.125 35.0742 4.33594 35.7578 6.16211L36.9688 9.375H45.5625C48.1504 9.375 50.25 11.4746 50.25 14.0625ZM36.9688 28.125C36.9688 21.6602 31.7148 16.4062 25.25 16.4062C18.7852 16.4062 13.5312 21.6602 13.5312 28.125C13.5312 34.5898 18.7852 39.8438 25.25 39.8438C31.7148 39.8438 36.9688 34.5898 36.9688 28.125ZM33.8438 28.125C33.8438 32.8613 29.9863 36.7188 25.25 36.7188C20.5137 36.7188 16.6562 32.8613 16.6562 28.125C16.6562 23.3887 20.5137 19.5312 25.25 19.5312C29.9863 19.5312 33.8438 23.3887 33.8438 28.125Z" fill="white"/>
</g>
<defs>
<clipPath id="clip0">
<rect width="50" height="50" fill="white" transform="translate(0.25)"/>
</clipPath>
</defs>
</svg>
