<svg width="51" height="50" viewBox="0 0 51 50" fill="none" xmlns="http://www.w3.org/2000/svg">
<g clip-path="url(#clip0)">
<path d="M49.417 35.1807C49.2646 35.1006 46.2539 33.5313 41.9189 32.6602C48.1934 25.3242 50.127 16.8721 50.2129 16.4844C50.3281 15.9639 50.1699 15.4199 49.793 15.042C49.4971 14.7451 49.0977 14.583 48.6875 14.583C48.5762 14.583 48.4639 14.5947 48.3516 14.6201C47.9727 14.7031 39.9004 16.5332 32.6699 22.4092C32.6709 22.2666 32.6709 22.123 32.6709 21.9795C32.6709 10.3789 26.8135 1.1084 26.5645 0.719727C26.4234 0.499056 26.229 0.317456 25.9993 0.191672C25.7696 0.0658887 25.5119 -2.83021e-05 25.25 9.11585e-09C24.7178 9.11585e-09 24.2217 0.271484 23.9346 0.719727C23.6855 1.1084 17.8281 10.3789 17.8281 21.9795C17.8281 22.123 17.8291 22.2666 17.8291 22.4092C10.5996 16.5342 2.52734 14.7041 2.14746 14.6201C2.03613 14.5957 1.92383 14.583 1.81152 14.583C1.40136 14.583 1.00195 14.7451 0.706052 15.042C0.52057 15.2278 0.384942 15.4574 0.311713 15.7095C0.238485 15.9616 0.230022 16.2281 0.287106 16.4844C0.373044 16.8721 2.30664 25.3242 8.58105 32.6602C4.24609 33.5313 1.23633 35.1006 1.083 35.1807C0.831778 35.3134 0.62148 35.512 0.474729 35.7553C0.327978 35.9986 0.250326 36.2773 0.250125 36.5614C0.249924 36.8455 0.327182 37.1243 0.473589 37.3678C0.619996 37.6113 0.830013 37.8103 1.08105 37.9434C1.32031 38.0693 7.01465 41.041 14.1172 41.041C14.7168 41.041 15.2852 41.0313 15.8262 41.0107C14.7158 43.1816 14.2129 44.752 14.1846 44.8408C14.0088 45.3955 14.1562 46.002 14.5664 46.4141C14.768 46.6163 15.021 46.7595 15.2982 46.8282C15.5753 46.8969 15.866 46.8884 16.1387 46.8037C16.3174 46.748 19.8223 45.6328 23.6875 42.9668V49.2188C23.6875 49.6504 24.0371 50 24.4687 50H26.0312C26.4629 50 26.8125 49.6504 26.8125 49.2188V42.9678C30.6777 45.6338 34.1826 46.748 34.3613 46.8047C34.634 46.8894 34.9247 46.8979 35.2018 46.8292C35.479 46.7605 35.732 46.6173 35.9336 46.415C36.3437 46.0029 36.4912 45.3965 36.3154 44.8418C36.2871 44.7529 35.7832 43.1826 34.6738 41.0117C35.2148 41.0322 35.7842 41.042 36.3828 41.042C43.4844 41.042 49.1797 38.0703 49.4189 37.9443C49.9307 37.6729 50.251 37.1416 50.25 36.5625C50.249 35.9824 49.9287 35.4502 49.417 35.1807Z" fill="white"/>
</g>
<defs>
<clipPath id="clip0">
<rect width="51" height="50" fill="white"/>
</clipPath>
</defs>
</svg>
