<svg width="51" height="50" viewBox="0 0 51 50" fill="none" xmlns="http://www.w3.org/2000/svg">
<path d="M49.327 17.1875H43.4803L41.8554 13.125C40.1854 8.94824 36.2001 6.25 31.7011 6.25H19.2987C14.8007 6.25 10.8143 8.94824 9.14345 13.125L7.51845 17.1875H1.67274C0.910046 17.1875 0.350475 17.9043 0.536022 18.6436L1.12196 20.9873C1.25184 21.5088 1.72059 21.875 2.25868 21.875H4.21864C2.90712 23.0205 2.06239 24.6855 2.06239 26.5625V31.25C2.06239 32.8242 2.66395 34.2451 3.62489 35.3447V40.625C3.62489 42.3506 5.0243 43.75 6.74989 43.75H9.87489C11.6005 43.75 12.9999 42.3506 12.9999 40.625V37.5H37.9999V40.625C37.9999 42.3506 39.3993 43.75 41.1249 43.75H44.2499C45.9755 43.75 47.3749 42.3506 47.3749 40.625V35.3447C48.3358 34.2461 48.9374 32.8252 48.9374 31.25V26.5625C48.9374 24.6855 48.0927 23.0205 46.7821 21.875H48.7421C49.2802 21.875 49.7489 21.5088 49.8788 20.9873L50.4647 18.6436C50.6493 17.9043 50.0897 17.1875 49.327 17.1875ZM14.9462 15.4463C15.6581 13.667 17.3817 12.5 19.2987 12.5H31.7011C33.618 12.5 35.3417 13.667 36.0536 15.4463L37.9999 20.3125H12.9999L14.9462 15.4463ZM9.87489 31.2305C7.99989 31.2305 6.74989 29.9844 6.74989 28.1152C6.74989 26.2461 7.99989 25 9.87489 25C11.7499 25 14.5624 27.8037 14.5624 29.6729C14.5624 31.542 11.7499 31.2305 9.87489 31.2305ZM41.1249 31.2305C39.2499 31.2305 36.4374 31.542 36.4374 29.6729C36.4374 27.8037 39.2499 25 41.1249 25C42.9999 25 44.2499 26.2461 44.2499 28.1152C44.2499 29.9844 42.9999 31.2305 41.1249 31.2305Z" fill="white"/>
</svg>
