<svg width="51" height="50" viewBox="0 0 51 50" fill="none" xmlns="http://www.w3.org/2000/svg">
<g clip-path="url(#clip0)">
<path d="M49.3271 17.1875H43.4804L41.8554 13.125C40.1855 8.94824 36.2002 6.25 31.7012 6.25H19.2988C14.8008 6.25 10.8144 8.94824 9.14354 13.125L7.51854 17.1875H1.67283C0.910137 17.1875 0.350566 17.9043 0.536113 18.6436L1.12205 20.9873C1.25193 21.5088 1.72068 21.875 2.25877 21.875H4.21873C2.90721 23.0205 2.06248 24.6855 2.06248 26.5625V31.25C2.06248 32.8242 2.66404 34.2451 3.62498 35.3447V40.625C3.62498 42.3506 5.02439 43.75 6.74998 43.75H9.87498C11.6006 43.75 13 42.3506 13 40.625V37.5H38V40.625C38 42.3506 39.3994 43.75 41.125 43.75H44.25C45.9756 43.75 47.375 42.3506 47.375 40.625V35.3447C48.3359 34.2461 48.9375 32.8252 48.9375 31.25V26.5625C48.9375 24.6855 48.0928 23.0205 46.7822 21.875H48.7422C49.2803 21.875 49.749 21.5088 49.8789 20.9873L50.4648 18.6436C50.6494 17.9043 50.0898 17.1875 49.3271 17.1875ZM14.9463 15.4463C15.6582 13.667 17.3818 12.5 19.2988 12.5H31.7012C33.6181 12.5 35.3418 13.667 36.0537 15.4463L38 20.3125H13L14.9463 15.4463ZM9.87498 31.2305C7.99998 31.2305 6.74998 29.9844 6.74998 28.1152C6.74998 26.2461 7.99998 25 9.87498 25C11.75 25 14.5625 27.8037 14.5625 29.6729C14.5625 31.542 11.75 31.2305 9.87498 31.2305ZM41.125 31.2305C39.25 31.2305 36.4375 31.542 36.4375 29.6729C36.4375 27.8037 39.25 25 41.125 25C43 25 44.25 26.2461 44.25 28.1152C44.25 29.9844 43 31.2305 41.125 31.2305Z" fill="white"/>
</g>
<defs>
<clipPath id="clip0">
<rect width="50" height="50" fill="white" transform="translate(0.5)"/>
</clipPath>
</defs>
</svg>
