<svg width="63" height="50" viewBox="0 0 63 50" fill="none" xmlns="http://www.w3.org/2000/svg">
<path d="M41.125 20.3125C40.816 20.3125 40.5139 20.4041 40.2569 20.5758C40 20.7475 39.7997 20.9915 39.6814 21.2771C39.5632 21.5626 39.5322 21.8767 39.5925 22.1798C39.6528 22.4829 39.8016 22.7613 40.0201 22.9799C40.2387 23.1984 40.5171 23.3472 40.8202 23.4075C41.1233 23.4678 41.4374 23.4368 41.7229 23.3186C42.0085 23.2003 42.2525 23 42.4242 22.7431C42.5959 22.4861 42.6875 22.184 42.6875 21.875C42.6875 21.4606 42.5229 21.0632 42.2299 20.7701C41.9368 20.4771 41.5394 20.3125 41.125 20.3125ZM61.4375 31.25H56.75V15.625C56.75 11.481 55.1038 7.50671 52.1735 4.57646C49.2433 1.6462 45.269 0 41.125 0H6.75C5.0924 0 3.50269 0.65848 2.33058 1.83058C1.15848 3.00269 0.5 4.5924 0.5 6.25V31.25C0.5 32.9076 1.15848 34.4973 2.33058 35.6694C3.50269 36.8415 5.0924 37.5 6.75 37.5H9.875C9.875 39.9864 10.8627 42.371 12.6209 44.1291C14.379 45.8873 16.7636 46.875 19.25 46.875C21.7364 46.875 24.121 45.8873 25.8791 44.1291C27.6373 42.371 28.625 39.9864 28.625 37.5H61.4375C61.8519 37.5 62.2493 37.3354 62.5424 37.0424C62.8354 36.7493 63 36.3519 63 35.9375V32.8125C63 32.3981 62.8354 32.0007 62.5424 31.7076C62.2493 31.4146 61.8519 31.25 61.4375 31.25ZM19.25 42.1875C18.3229 42.1875 17.4166 41.9126 16.6458 41.3975C15.8749 40.8824 15.2741 40.1504 14.9193 39.2938C14.5645 38.4373 14.4717 37.4948 14.6526 36.5855C14.8334 35.6762 15.2799 34.841 15.9354 34.1854C16.591 33.5299 17.4262 33.0834 18.3355 32.9026C19.2448 32.7217 20.1873 32.8145 21.0438 33.1693C21.9004 33.5241 22.6324 34.1249 23.1475 34.8958C23.6626 35.6666 23.9375 36.5729 23.9375 37.5C23.9362 38.7428 23.4419 39.9343 22.5631 40.8131C21.6843 41.6919 20.4928 42.1862 19.25 42.1875ZM25.5 18.75C25.5 19.5788 25.1708 20.3737 24.5847 20.9597C23.9987 21.5458 23.2038 21.875 22.375 21.875H9.875C9.0462 21.875 8.25134 21.5458 7.66529 20.9597C7.07924 20.3737 6.75 19.5788 6.75 18.75V12.5C6.75 11.6712 7.07924 10.8763 7.66529 10.2903C8.25134 9.70424 9.0462 9.375 9.875 9.375H22.375C23.2038 9.375 23.9987 9.70424 24.5847 10.2903C25.1708 10.8763 25.5 11.6712 25.5 12.5V18.75ZM44.25 31.25H31.75V12.5C31.75 11.6712 32.0792 10.8763 32.6653 10.2903C33.2513 9.70424 34.0462 9.375 34.875 9.375H41.125C41.9538 9.375 42.7487 9.70424 43.3347 10.2903C43.9208 10.8763 44.25 11.6712 44.25 12.5V31.25Z" fill="white"/>
</svg>
