<svg width="52" height="50" viewBox="0 0 52 50" fill="none" xmlns="http://www.w3.org/2000/svg">
<path d="M41.5812 2.13675H9.95726C7.91713 2.13675 5.96057 2.94719 4.51798 4.38977C3.07539 5.83236 2.26495 7.78893 2.26495 9.82906V40.1709C2.26495 42.2111 3.07539 44.1676 4.51798 45.6102C5.96057 47.0528 7.91713 47.8632 9.95726 47.8632H41.5812C42.5914 47.8632 43.5916 47.6643 44.5249 47.2777C45.4582 46.8911 46.3062 46.3245 47.0205 45.6102C47.7348 44.8959 48.3014 44.0479 48.688 43.1147C49.0745 42.1814 49.2735 41.1811 49.2735 40.1709V9.82906C49.2735 8.81889 49.0745 7.81861 48.688 6.88534C48.3014 5.95206 47.7348 5.10407 47.0205 4.38977C46.3062 3.67548 45.4582 3.10887 44.5249 2.72229C43.5916 2.33572 42.5914 2.13675 41.5812 2.13675ZM24.6047 16.9605C24.6047 17.2169 24.4765 17.2169 24.3803 17.1848C23.3387 16.7381 22.2119 16.5248 21.0791 16.5598C17.2917 16.5598 14.7703 19.4391 14.7703 24.391C14.7703 30.5021 18.2318 32.3184 21.0791 32.3184C22.1244 32.3626 23.1694 32.2234 24.1667 31.907C24.2949 31.8429 24.3964 31.8429 24.3964 32.0673V34.7382C24.4071 34.8148 24.3897 34.8927 24.3475 34.9575C24.3053 35.0223 24.241 35.0696 24.1667 35.0908C23.0088 35.4661 21.7929 35.6308 20.5769 35.5769C15.5288 35.5769 11.0684 32.2756 11.0684 24.5139C11.0844 17.8365 15.0267 13.3547 21.047 13.3547C22.1876 13.2874 23.3304 13.4416 24.4124 13.8088C24.5726 13.8729 24.6047 13.969 24.6047 14.1613V16.9605ZM39.3857 35.0107C39.3857 35.2083 39.3216 35.2724 39.1613 35.2724H36.0897C35.9295 35.2724 35.86 35.1709 35.86 35.0107V25.2083C35.86 23.2692 35.0534 22.2009 33.4989 22.2009C32.5446 22.1831 31.6196 22.5309 30.9135 23.1731V35.0427C30.9135 35.2083 30.8494 35.2724 30.7158 35.2724H27.6122C27.5804 35.2776 27.5478 35.2753 27.517 35.2658C27.4862 35.2562 27.4581 35.2397 27.4348 35.2174C27.4115 35.1952 27.3937 35.1678 27.3828 35.1375C27.3718 35.1072 27.3681 35.0747 27.3718 35.0427V13.8889C27.3718 13.7553 27.4038 13.6912 27.5961 13.6912H30.6998C30.7268 13.6866 30.7545 13.6884 30.7806 13.6967C30.8068 13.705 30.8305 13.7194 30.8499 13.7388C30.8693 13.7582 30.8837 13.7819 30.892 13.808C30.9002 13.8342 30.9021 13.8619 30.8974 13.8889V20.2991C31.9763 19.4577 33.3115 19.0127 34.6795 19.0385C36.7842 19.0385 39.3697 20.1068 39.3697 24.8291L39.3857 35.0107Z" fill="white"/>
</svg>
