<svg width="50" height="50" viewBox="0 0 50 50" fill="none" xmlns="http://www.w3.org/2000/svg">
<path d="M49.2188 25C49.2188 38.3789 38.3789 49.2188 25 49.2188C11.6211 49.2188 0.78125 38.3789 0.78125 25C0.78125 11.6211 11.6211 0.78125 25 0.78125C38.3789 0.78125 49.2188 11.6211 49.2188 25ZM26.6602 36.123L39.8926 22.8906C40.8105 21.9727 40.8105 20.4883 39.8926 19.5801L38.2324 17.9199C37.3145 17.002 35.8301 17.002 34.9219 17.9199L25 27.8418L15.0781 17.9199C14.1602 17.002 12.6758 17.002 11.7676 17.9199L10.1074 19.5801C9.18945 20.498 9.18945 21.9824 10.1074 22.8906L23.3398 36.123C24.2578 37.041 25.7422 37.041 26.6602 36.123Z" fill="white"/>
</svg>
