<svg width="50" height="50" viewBox="0 0 50 50" fill="none" xmlns="http://www.w3.org/2000/svg">
<path d="M25 49.2188C11.6211 49.2188 0.78125 38.3789 0.78125 25C0.78125 11.6211 11.6211 0.78125 25 0.78125C38.3789 0.78125 49.2188 11.6211 49.2188 25C49.2188 38.3789 38.3789 49.2188 25 49.2188ZM13.877 26.6602L27.1094 39.8926C28.0273 40.8105 29.5117 40.8105 30.4199 39.8926L32.0801 38.2324C32.998 37.3145 32.998 35.8301 32.0801 34.9219L22.1582 25L32.0801 15.0781C32.998 14.1602 32.998 12.6758 32.0801 11.7676L30.4199 10.1074C29.502 9.18945 28.0176 9.18945 27.1094 10.1074L13.877 23.3398C12.959 24.2578 12.959 25.7422 13.877 26.6602Z" fill="white"/>
</svg>
