<svg width="38" height="50" viewBox="0 0 38 50" fill="none" xmlns="http://www.w3.org/2000/svg">
<g clip-path="url(#clip0)">
<path d="M32.8125 6.25H25C25 2.80273 22.1973 0 18.75 0C15.3027 0 12.5 2.80273 12.5 6.25H4.6875C2.09961 6.25 0 8.34961 0 10.9375V45.3125C0 47.9004 2.09961 50 4.6875 50H32.8125C35.4004 50 37.5 47.9004 37.5 45.3125V10.9375C37.5 8.34961 35.4004 6.25 32.8125 6.25ZM18.75 3.90625C20.0488 3.90625 21.0938 4.95117 21.0938 6.25C21.0938 7.54883 20.0488 8.59375 18.75 8.59375C17.4512 8.59375 16.4062 7.54883 16.4062 6.25C16.4062 4.95117 17.4512 3.90625 18.75 3.90625ZM30.5859 26.543L16.6211 40.3906C16.1621 40.8496 15.4199 40.8398 14.9609 40.3809L6.89453 32.2461C6.43555 31.7871 6.44531 31.0449 6.9043 30.5859L9.67773 27.832C10.1367 27.373 10.8789 27.3828 11.3379 27.8418L15.8301 32.373L26.1816 22.0996C26.6406 21.6406 27.3828 21.6504 27.8418 22.1094L30.5957 24.8828C31.0547 25.3516 31.0449 26.084 30.5859 26.543Z" fill="white"/>
</g>
<defs>
<clipPath id="clip0">
<rect width="37.5" height="50" fill="white"/>
</clipPath>
</defs>
</svg>
