<svg width="50" height="50" viewBox="0 0 50 50" fill="none" xmlns="http://www.w3.org/2000/svg">
<path d="M45.3125 0C47.9014 0 50 2.09863 50 4.6875V32.8125C50 35.4014 47.9014 37.5 45.3125 37.5H17.1875C14.5986 37.5 12.5 35.4014 12.5 32.8125V4.6875C12.5 2.09863 14.5986 0 17.1875 0H45.3125ZM17.1875 40.625C12.8797 40.625 9.375 37.1203 9.375 32.8125V12.5H4.6875C2.09863 12.5 0 14.5986 0 17.1875V45.3125C0 47.9014 2.09863 50 4.6875 50H32.8125C35.4014 50 37.5 47.9014 37.5 45.3125V40.625H17.1875Z" fill="white"/>
</svg>
