<svg width="57" height="50" viewBox="0 0 57 50" fill="none" xmlns="http://www.w3.org/2000/svg">
<path d="M50.3535 22.0215C49.6797 18.3887 46.5156 15.625 42.6875 15.625C41.4863 15.625 40.3535 15.918 39.3379 16.4062C37.6387 14.0527 34.8848 12.5 31.75 12.5C26.5742 12.5 22.375 16.6992 22.375 21.875C22.375 21.9238 22.3945 21.9824 22.3945 22.0313C18.8203 22.7539 16.125 25.8984 16.125 29.6875C16.125 34.0039 19.6211 37.5 23.9375 37.5H48.9375C53.2539 37.5 56.75 34.0039 56.75 29.6875C56.75 25.8594 53.9961 22.6855 50.3535 22.0215ZM12.6191 25.3809C8.9668 21.7285 8.9668 15.7812 12.6191 12.1191C15.998 8.74023 21.3203 8.52539 24.9922 11.3965C26.9453 10.1367 29.25 9.375 31.75 9.375C31.8184 9.375 31.877 9.39453 31.9453 9.39453L32.8145 6.78711C33.1465 5.79102 32.1992 4.85352 31.2031 5.18555L23.8496 7.63672L20.3828 0.703125C19.9141 -0.234375 18.5762 -0.234375 18.1074 0.703125L14.6406 7.63672L7.28711 5.18555C6.29102 4.85352 5.35352 5.80078 5.68555 6.79687L8.13672 14.1504L1.20313 17.6172C0.265624 18.0859 0.265624 19.4238 1.20313 19.8926L8.13672 23.3594L5.68555 30.7129C5.35352 31.709 6.30078 32.6465 7.29687 32.3242L13.0781 30.4004C13.0586 30.166 13.0098 29.9414 13.0098 29.6973C13.0098 28.4766 13.2344 27.3047 13.6152 26.1914C13.2637 25.9277 12.9219 25.6836 12.6191 25.3809ZM19.4355 19.7168C19.8555 17.3242 20.9785 15.1855 22.5508 13.4668C21.5938 12.8613 20.4609 12.5 19.25 12.5C15.8027 12.5 13 15.3027 13 18.75C13 20.5762 13.8008 22.207 15.0605 23.3496C16.1641 21.7969 17.6582 20.5273 19.4355 19.7168ZM51.7207 40.8301C50.9785 40.4102 50.0215 40.6543 49.5918 41.416L46.0176 47.666C45.5879 48.418 45.8516 49.3652 46.6035 49.7949C46.8477 49.9316 47.1113 50 47.375 50C47.9121 50 48.4395 49.7168 48.7324 49.209L52.3066 42.959C52.7266 42.207 52.4727 41.2598 51.7207 40.8301ZM42.3457 40.8301C41.6035 40.4102 40.6465 40.6543 40.2168 41.416L36.6426 47.666C36.2129 48.418 36.4766 49.3652 37.2285 49.7949C37.4727 49.9316 37.7363 50 38 50C38.5371 50 39.0645 49.7168 39.3574 49.209L42.9316 42.959C43.3516 42.207 43.0977 41.2598 42.3457 40.8301ZM32.9707 40.8301C32.2285 40.4102 31.2715 40.6543 30.8418 41.416L27.2676 47.666C26.8379 48.418 27.1016 49.3652 27.8535 49.7949C28.0977 49.9316 28.3613 50 28.625 50C29.1621 50 29.6895 49.7168 29.9824 49.209L33.5566 42.959C33.9766 42.207 33.7227 41.2598 32.9707 40.8301ZM23.5957 40.8301C22.8535 40.4102 21.8965 40.6543 21.4668 41.416L17.8926 47.666C17.4629 48.418 17.7266 49.3652 18.4785 49.7949C18.7227 49.9316 18.9863 50 19.25 50C19.7871 50 20.3145 49.7168 20.6074 49.209L24.1816 42.959C24.6016 42.207 24.3477 41.2598 23.5957 40.8301Z" fill="white"/>
</svg>
