<svg width="57" height="50" viewBox="0 0 57 50" fill="none" xmlns="http://www.w3.org/2000/svg">
<path d="M34.2285 22.0215C33.5547 18.3887 30.3906 15.625 26.5625 15.625C25.3613 15.625 24.2285 15.918 23.2129 16.4062C21.5137 14.0527 18.7598 12.5 15.625 12.5C10.4492 12.5 6.25 16.6992 6.25 21.875C6.25 21.9238 6.26953 21.9824 6.26953 22.0313C2.69531 22.7441 0 25.8984 0 29.6875C0 34.0039 3.49609 37.5 7.8125 37.5H32.8125C37.1289 37.5 40.625 34.0039 40.625 29.6875C40.625 25.8594 37.8711 22.6855 34.2285 22.0215ZM55.459 21.8555C48.584 23.1543 42.2754 17.9199 42.2754 11.0352C42.2754 7.07031 44.4141 3.41797 47.8906 1.45508C48.4277 1.15234 48.291 0.341797 47.6855 0.234375C46.8359 0.078125 45.9668 0 45.0977 0C37.4902 0 31.3184 5.97656 30.9961 13.4668C33.6035 14.6289 35.7031 16.7676 36.748 19.4922C40.3711 20.8887 42.9981 24.1211 43.6035 27.9687C44.1016 28.0176 44.5801 28.1152 45.0879 28.1152C49.4531 28.1152 53.4473 26.1426 56.084 22.9102C56.4941 22.4414 56.0645 21.7383 55.459 21.8555ZM35.5957 40.8301C34.8535 40.4102 33.8965 40.6543 33.4668 41.416L29.8926 47.666C29.4629 48.418 29.7266 49.3652 30.4785 49.7949C30.7227 49.9316 30.9863 50 31.25 50C31.7871 50 32.3145 49.7168 32.6074 49.209L36.1816 42.959C36.6016 42.207 36.3477 41.2598 35.5957 40.8301ZM26.2207 40.8301C25.4785 40.4102 24.5215 40.6543 24.0918 41.416L20.5176 47.666C20.0879 48.418 20.3516 49.3652 21.1035 49.7949C21.3477 49.9316 21.6113 50 21.875 50C22.4121 50 22.9395 49.7168 23.2324 49.209L26.8066 42.959C27.2266 42.207 26.9727 41.2598 26.2207 40.8301ZM16.8457 40.8301C16.1035 40.4102 15.1465 40.6543 14.7168 41.416L11.1426 47.666C10.7129 48.418 10.9766 49.3652 11.7285 49.7949C11.9727 49.9316 12.2363 50 12.5 50C13.0371 50 13.5645 49.7168 13.8574 49.209L17.4316 42.959C17.8516 42.207 17.5977 41.2598 16.8457 40.8301ZM7.4707 40.8301C6.72852 40.4102 5.77148 40.6543 5.3418 41.416L1.76758 47.666C1.33789 48.418 1.60156 49.3652 2.35352 49.7949C2.59766 49.9316 2.86133 50 3.125 50C3.66211 50 4.18945 49.7168 4.48242 49.209L8.05664 42.959C8.47656 42.207 8.22266 41.2598 7.4707 40.8301Z" fill="white"/>
</svg>
