<svg width="57" height="50" viewBox="0 0 57 50" fill="none" xmlns="http://www.w3.org/2000/svg">
<path d="M33.7266 34.4434C34.2832 33.5059 34.625 32.4219 34.625 31.25C34.625 27.8027 31.8223 25 28.375 25C26.6953 25 25.1719 25.6738 24.0488 26.748C22.457 23.8574 19.4102 21.875 15.875 21.875C10.6992 21.875 6.5 26.0742 6.5 31.25C6.5 31.4453 6.54883 31.6211 6.55859 31.8066C2.89648 33.0859 0.25 36.5332 0.25 40.625C0.25 45.8008 4.44922 50 9.625 50H33.0625C37.3789 50 40.875 46.5039 40.875 42.1875C40.875 38.0957 37.7207 34.7852 33.7266 34.4434ZM55.4551 29.1406C46.3633 30.8691 38.0234 23.8965 38.0234 14.7168C38.0234 9.42383 40.8555 4.56055 45.4551 1.94336C46.168 1.54297 45.9824 0.46875 45.1816 0.3125C44.0391 0.107422 42.8965 0 41.7539 0C31.4121 0 23.0137 8.38867 23.0137 18.75C23.0137 19.5801 23.082 20.3906 23.1895 21.1914C23.7656 21.6113 24.3223 22.0605 24.8203 22.5781C25.9336 22.1191 27.1348 21.875 28.375 21.875C33.541 21.875 37.75 26.084 37.75 31.25C37.75 31.6016 37.7305 31.9531 37.6914 32.2949C39.9961 33.3496 41.832 35.1758 42.916 37.4316C48.2285 37.0996 53.043 34.5703 56.3047 30.5566C56.8223 29.9219 56.2559 28.9844 55.4551 29.1406Z" fill="white"/>
</svg>
