<svg width="51" height="50" viewBox="0 0 51 50" fill="none" xmlns="http://www.w3.org/2000/svg">
<g clip-path="url(#clip0)">
<path d="M41.125 12.5C41.0664 12.5 41.0176 12.5195 40.9688 12.5195C41.0762 12.0117 41.125 11.4844 41.125 10.9375C41.125 6.62109 37.6289 3.125 33.3125 3.125C30.9102 3.125 28.791 4.22852 27.3555 5.9375C25.5391 2.42188 21.916 0 17.6875 0C11.6426 0 6.75 4.89258 6.75 10.9375C6.75 11.6504 6.82812 12.334 6.95508 13.0078C3.21484 14.2383 0.5 17.7246 0.5 21.875C0.5 27.0508 4.69922 31.25 9.875 31.25H41.125C46.3008 31.25 50.5 27.0508 50.5 21.875C50.5 16.6992 46.3008 12.5 41.125 12.5ZM9.09375 36.543C7.84375 40.8789 5.1875 42.0508 5.1875 45.1074C5.1875 47.8125 7.28711 50 9.875 50C12.4629 50 14.5625 47.8125 14.5625 45.1074C14.5625 42.041 11.9062 40.8984 10.6562 36.543C10.4414 35.752 9.33789 35.7129 9.09375 36.543ZM24.7188 36.543C23.4688 40.8789 20.8125 42.0508 20.8125 45.1074C20.8125 47.8125 22.9121 50 25.5 50C28.0879 50 30.1875 47.8125 30.1875 45.1074C30.1875 42.041 27.5312 40.8984 26.2812 36.543C26.0664 35.752 24.9629 35.7129 24.7188 36.543ZM40.3438 36.543C39.0938 40.8789 36.4375 42.0508 36.4375 45.1074C36.4375 47.8125 38.5371 50 41.125 50C43.7129 50 45.8125 47.8125 45.8125 45.1074C45.8125 42.041 43.1562 40.8984 41.9062 36.543C41.6914 35.752 40.5879 35.7129 40.3438 36.543Z" fill="white"/>
</g>
<defs>
<clipPath id="clip0">
<rect width="50" height="50" fill="white" transform="translate(0.5)"/>
</clipPath>
</defs>
</svg>
