<svg width="38" height="50" viewBox="0 0 38 50" fill="none" xmlns="http://www.w3.org/2000/svg">
<g clip-path="url(#clip0)">
<path d="M37.75 14.0625C37.75 9.74609 34.2539 6.25 29.9375 6.25C25.6211 6.25 22.125 9.74609 22.125 14.0625C22.125 17.6172 24.498 20.6152 27.7402 21.5625C27.6816 23.1348 27.3301 24.3457 26.666 25.166C25.1621 27.041 21.8516 27.3535 18.3457 27.6758C15.5918 27.9297 12.7402 28.2031 10.4062 29.3262V15.2637C13.5801 14.2676 15.875 11.3086 15.875 7.8125C15.875 3.49609 12.3789 0 8.0625 0C3.74609 0 0.25 3.49609 0.25 7.8125C0.25 11.3086 2.54492 14.2676 5.71875 15.2637V34.7266C2.54492 35.7324 0.25 38.6914 0.25 42.1875C0.25 46.5039 3.74609 50 8.0625 50C12.3789 50 15.875 46.5039 15.875 42.1875C15.875 38.8672 13.8047 36.0254 10.875 34.9023C11.1777 34.3945 11.6367 33.9453 12.3301 33.5938C13.9121 32.793 16.2754 32.5781 18.7852 32.3438C22.9062 31.9629 27.5742 31.5234 30.3281 28.1055C31.6953 26.4062 32.3887 24.2188 32.4375 21.4746C35.5234 20.4199 37.75 17.5 37.75 14.0625ZM8.0625 6.25C8.92188 6.25 9.625 6.95312 9.625 7.8125C9.625 8.67188 8.92188 9.375 8.0625 9.375C7.20312 9.375 6.5 8.67188 6.5 7.8125C6.5 6.95312 7.20312 6.25 8.0625 6.25ZM8.0625 43.75C7.20312 43.75 6.5 43.0469 6.5 42.1875C6.5 41.3281 7.20312 40.625 8.0625 40.625C8.92188 40.625 9.625 41.3281 9.625 42.1875C9.625 43.0469 8.92188 43.75 8.0625 43.75ZM29.9375 12.5C30.7969 12.5 31.5 13.2031 31.5 14.0625C31.5 14.9219 30.7969 15.625 29.9375 15.625C29.0781 15.625 28.375 14.9219 28.375 14.0625C28.375 13.2031 29.0781 12.5 29.9375 12.5Z" fill="white"/>
</g>
<defs>
<clipPath id="clip0">
<rect width="37.5" height="50" fill="white" transform="translate(0.25)"/>
</clipPath>
</defs>
</svg>
