<svg width="51" height="50" viewBox="0 0 51 50" fill="none" xmlns="http://www.w3.org/2000/svg">
<g clip-path="url(#clip0)">
<path d="M49.3013 15.5969L26.4497 0.36249C25.6697 -0.117491 24.8373 -0.121885 24.0502 0.36249L1.19863 15.5969C0.612695 15.9874 0.25 16.685 0.25 17.3825V32.6168C0.25 33.3143 0.612695 34.0119 1.19873 34.4025L24.0503 49.6391C24.8303 50.119 25.6627 50.1234 26.4498 49.6391L49.3014 34.4025C49.8873 34.012 50.2501 33.3143 50.2501 32.6168V17.3825C50.25 16.685 49.8873 15.9874 49.3013 15.5969ZM27.3984 6.16591L44.2232 17.3825L36.7177 22.4049L27.3984 16.1827V6.16591ZM23.1016 6.16591V16.1827L13.7823 22.4049L6.27676 17.3825L23.1016 6.16591ZM4.54688 21.4004L9.93193 24.9997L4.54688 28.599V21.4004ZM23.1016 43.8335L6.27676 32.6169L13.7823 27.5945L23.1016 33.8167V43.8335ZM25.25 30.0778L17.6606 24.9997L25.25 19.9216L32.8394 24.9997L25.25 30.0778ZM27.3984 43.8335V33.8167L36.7177 27.5945L44.2232 32.6169L27.3984 43.8335ZM45.9531 28.599L40.5681 24.9997L45.9531 21.4004V28.599Z" fill="white"/>
</g>
<defs>
<clipPath id="clip0">
<rect width="51" height="50" fill="white"/>
</clipPath>
</defs>
</svg>
