<svg width="51" height="50" viewBox="0 0 51 50" fill="none" xmlns="http://www.w3.org/2000/svg">
<g clip-path="url(#clip0)">
<path d="M25.25 3.125C11.4414 3.125 0.25 12.2168 0.25 23.4375C0.25 28.2812 2.33984 32.7148 5.81641 36.2012C4.5957 41.123 0.513672 45.5078 0.464844 45.5566C0.25 45.7812 0.191406 46.1133 0.318359 46.4062C0.445312 46.6992 0.71875 46.875 1.03125 46.875C7.50586 46.875 12.3594 43.7695 14.7617 41.8555C17.9551 43.0566 21.5 43.75 25.25 43.75C39.0586 43.75 50.25 34.6582 50.25 23.4375C50.25 12.2168 39.0586 3.125 25.25 3.125Z" fill="white"/>
</g>
<defs>
<clipPath id="clip0">
<rect width="50" height="50" fill="white" transform="translate(0.25)"/>
</clipPath>
</defs>
</svg>
