<svg width="44" height="50" viewBox="0 0 44 50" fill="none" xmlns="http://www.w3.org/2000/svg">
<path d="M31.5 43.75V47.6562C31.5 48.9507 30.4507 50 29.1562 50H2.59375C1.29932 50 0.25 48.9507 0.25 47.6562V11.7188C0.25 10.4243 1.29932 9.375 2.59375 9.375H9.625V38.2812C9.625 41.2968 12.0782 43.75 15.0938 43.75H31.5ZM31.5 10.1562V0H15.0938C13.7993 0 12.75 1.04932 12.75 2.34375V38.2812C12.75 39.5757 13.7993 40.625 15.0938 40.625H41.6562C42.9507 40.625 44 39.5757 44 38.2812V12.5H33.8438C32.5547 12.5 31.5 11.4453 31.5 10.1562ZM43.3136 7.12607L36.8739 0.686426C36.4344 0.246916 35.8383 3.24996e-06 35.2167 0H34.625V9.375H44V8.7833C44 8.16173 43.7531 7.56561 43.3136 7.12607Z" fill="white"/>
</svg>
