<svg width="45" height="50" viewBox="0 0 45 50" fill="none" xmlns="http://www.w3.org/2000/svg">
<path d="M29.775 23.75C29.775 25.275 28.65 26.525 27.225 26.525C25.825 26.525 24.675 25.275 24.675 23.75C24.675 22.225 25.8 20.975 27.225 20.975C28.65 20.975 29.775 22.225 29.775 23.75ZM18.1 20.975C16.675 20.975 15.55 22.225 15.55 23.75C15.55 25.275 16.7 26.525 18.1 26.525C19.525 26.525 20.65 25.275 20.65 23.75C20.675 22.225 19.525 20.975 18.1 20.975ZM44.5 5.15V50C38.2018 44.4342 40.216 46.2766 32.9 39.475L34.225 44.1H5.875C3.05 44.1 0.75 41.8 0.75 38.95V5.15C0.75 2.3 3.05 0 5.875 0H39.375C42.2 0 44.5 2.3 44.5 5.15ZM37.375 28.85C37.375 20.8 33.775 14.275 33.775 14.275C30.175 11.575 26.75 11.65 26.75 11.65L26.4 12.05C30.65 13.35 32.625 15.225 32.625 15.225C26.6864 11.9702 19.7105 11.9696 13.95 14.5C13.025 14.925 12.475 15.225 12.475 15.225C12.475 15.225 14.55 13.25 19.05 11.95L18.8 11.65C18.8 11.65 15.375 11.575 11.775 14.275C11.775 14.275 8.175 20.8 8.175 28.85C8.175 28.85 10.275 32.475 15.8 32.65C15.8 32.65 16.725 31.525 17.475 30.575C14.3 29.625 13.1 27.625 13.1 27.625C13.4678 27.8824 14.0742 28.2161 14.125 28.25C18.3447 30.6131 24.3387 31.3873 29.725 29.125C30.6 28.8 31.575 28.325 32.6 27.65C32.6 27.65 31.35 29.7 28.075 30.625C28.825 31.575 29.725 32.65 29.725 32.65C35.25 32.475 37.375 28.85 37.375 28.85Z" fill="white"/>
</svg>
