<svg width="52" height="50" viewBox="0 0 52 50" fill="none" xmlns="http://www.w3.org/2000/svg">
<path d="M12.7307 15.2137C12.0742 15.1967 11.4174 15.2252 10.7649 15.2991V32.0513C11.3632 32.0513 11.876 32.1368 12.5598 32.1368C16.4914 32.1368 19.3974 29.3162 19.5042 23.3333C19.4615 17.5214 16.4914 15.2137 12.7307 15.2137Z" fill="white"/>
<path d="M41.6837 2.13675H10.0598C8.01967 2.13675 6.06311 2.94719 4.62052 4.38977C3.17793 5.83236 2.36749 7.78893 2.36749 9.82906V40.1709C2.36749 42.2111 3.17793 44.1676 4.62052 45.6102C6.06311 47.0528 8.01967 47.8632 10.0598 47.8632H41.6837C42.6939 47.8632 43.6942 47.6643 44.6274 47.2777C45.5607 46.8911 46.4087 46.3245 47.123 45.6102C47.8373 44.8959 48.4039 44.0479 48.7905 43.1147C49.1771 42.1814 49.376 41.1811 49.376 40.1709V9.82906C49.376 8.81889 49.1771 7.81861 48.7905 6.88534C48.4039 5.95206 47.8373 5.10407 47.123 4.38977C46.4087 3.67548 45.5607 3.10887 44.6274 2.72229C43.6942 2.33572 42.6939 2.13675 41.6837 2.13675ZM12.453 35.5342C10.6581 35.5342 8.00852 35.5342 7.06835 35.4487C6.89741 35.4487 6.89741 35.3632 6.89741 35.1923V12.2222C6.89741 12.0513 6.89741 11.9658 7.15382 11.9658C7.92305 11.9658 10.3162 11.8803 12.7094 11.8803C19.8889 11.8803 23.3931 16.4957 23.3931 23.2479C23.3931 32.6496 17.2393 35.5342 12.453 35.5342ZM45.8077 18.2051L41.5983 35.0427C41.5983 35.2137 41.5128 35.2991 41.2564 35.2991L37.8376 35.3846C37.5812 35.3846 37.4957 35.2991 37.4957 35.0427C36.4701 29.1667 35.5299 24.9573 35.188 22.1367C34.7607 24.8077 33.906 29.0812 32.453 35.1282C32.3675 35.2991 32.282 35.3846 32.1111 35.3846H28.6923C28.4359 35.3846 28.3504 35.3846 28.2649 35.1282L24.5256 18.2906C24.5256 18.1197 24.5256 18.0342 24.782 18.0342H28.2008C28.3718 18.0342 28.4572 18.1197 28.4572 18.2051C29.8248 25.812 30.3376 29.7436 30.594 31.282H30.7649C31 29.4872 31.7478 25.641 33.3077 18.2906C33.3931 18.1197 33.3931 18.0342 33.5641 18.0342H37.1538C37.3248 18.0342 37.3248 18.1197 37.4102 18.2906C38.6923 25.235 39.547 29.5726 39.7179 31.3675H39.8034C40.1453 29.1453 40.5726 26.0684 42.1111 18.2051C42.1065 18.176 42.1077 18.1463 42.1147 18.1176C42.1216 18.089 42.1341 18.062 42.1515 18.0382C42.1688 18.0144 42.1907 17.9942 42.2158 17.9789C42.241 17.9635 42.2689 17.9533 42.298 17.9487H45.6367C45.8077 17.9487 45.8931 18.0342 45.8077 18.2051Z" fill="white"/>
</svg>
