<svg width="63" height="50" viewBox="0 0 63 50" fill="none" xmlns="http://www.w3.org/2000/svg">
<path d="M10.1562 9.375H5.46875C4.16992 9.375 3.125 10.4199 3.125 11.7188V21.875H0.78125C0.351562 21.875 0 22.2266 0 22.6562V27.3438C0 27.7734 0.351562 28.125 0.78125 28.125H3.125V38.2812C3.125 39.5801 4.16992 40.625 5.46875 40.625H10.1562C11.4551 40.625 12.5 39.5801 12.5 38.2812V11.7188C12.5 10.4199 11.4551 9.375 10.1562 9.375ZM61.7188 21.875H59.375V11.7188C59.375 10.4199 58.3301 9.375 57.0312 9.375H52.3438C51.0449 9.375 50 10.4199 50 11.7188V38.2812C50 39.5801 51.0449 40.625 52.3438 40.625H57.0312C58.3301 40.625 59.375 39.5801 59.375 38.2812V28.125H61.7188C62.1484 28.125 62.5 27.7734 62.5 27.3438V22.6562C62.5 22.2266 62.1484 21.875 61.7188 21.875ZM44.5312 3.125H39.8438C38.5449 3.125 37.5 4.16992 37.5 5.46875V21.875H25V5.46875C25 4.16992 23.9551 3.125 22.6562 3.125H17.9688C16.6699 3.125 15.625 4.16992 15.625 5.46875V44.5312C15.625 45.8301 16.6699 46.875 17.9688 46.875H22.6562C23.9551 46.875 25 45.8301 25 44.5312V28.125H37.5V44.5312C37.5 45.8301 38.5449 46.875 39.8438 46.875H44.5312C45.8301 46.875 46.875 45.8301 46.875 44.5312V5.46875C46.875 4.16992 45.8301 3.125 44.5312 3.125Z" fill="white"/>
</svg>
