<svg width="57" height="50" viewBox="0 0 57 50" fill="none" xmlns="http://www.w3.org/2000/svg">
<g clip-path="url(#clip0)">
<path d="M39.8164 8.12493L48.625 16.9335C48.9961 17.3046 48.9961 17.9101 48.625 18.2812L27.2969 39.6093L18.2344 40.6151C17.0234 40.7519 15.998 39.7265 16.1348 38.5155L17.1406 29.453L38.4688 8.12493C38.8398 7.75384 39.4453 7.75384 39.8164 8.12493ZM55.6367 5.88861L50.8711 1.12299C49.3867 -0.361389 46.9746 -0.361389 45.4805 1.12299L42.0234 4.58001C41.6523 4.95111 41.6523 5.55658 42.0234 5.92767L50.832 14.7363C51.2031 15.1074 51.8086 15.1074 52.1797 14.7363L55.6367 11.2792C57.1211 9.78509 57.1211 7.37298 55.6367 5.88861ZM38 33.8085V43.7499H6.75V12.4999H29.1914C29.5039 12.4999 29.7969 12.373 30.0215 12.1581L33.9277 8.25189C34.6699 7.5097 34.1426 6.24994 33.0977 6.24994H5.1875C2.59961 6.24994 0.5 8.34954 0.5 10.9374V45.3124C0.5 47.9003 2.59961 49.9999 5.1875 49.9999H39.5625C42.1504 49.9999 44.25 47.9003 44.25 45.3124V29.9023C44.25 28.8573 42.9902 28.3398 42.248 29.0722L38.3418 32.9784C38.127 33.203 38 33.496 38 33.8085Z" fill="white"/>
</g>
<defs>
<clipPath id="clip0">
<rect width="56.25" height="50" fill="white" transform="translate(0.5)"/>
</clipPath>
</defs>
</svg>
