<svg width="32" height="50" viewBox="0 0 32 50" fill="none" xmlns="http://www.w3.org/2000/svg">
<g clip-path="url(#clip0)">
<path d="M31.0924 40.4067C30.9641 39.7593 30.3272 39.345 29.6838 39.4918C28.6397 39.73 27.0059 40.0204 25.2477 40.0204C19.7044 40.0204 15.2937 36.6229 13.3862 31.6758H24.4887C24.7548 31.6758 25.0131 31.5852 25.2209 31.4189C25.4287 31.2526 25.5737 31.0205 25.632 30.7608L26.2544 27.9913C26.419 27.2587 25.8619 26.5625 25.111 26.5625H12.002C11.8838 25.1633 11.8639 23.8001 12.0153 22.437H26.3311C26.5983 22.437 26.8576 22.3457 27.0658 22.1781C27.274 22.0105 27.4187 21.7768 27.4759 21.5157L28.1118 18.61C28.2718 17.8791 27.7152 17.1875 26.967 17.1875H13.4633C15.4782 12.7938 19.5854 9.86035 24.9495 9.86035C26.3642 9.86035 27.739 10.0801 28.6459 10.2651C29.2529 10.389 29.8517 10.0212 30.0133 9.42305L31.1843 5.09023C31.3622 4.43193 30.9436 3.76055 30.2735 3.6335C29.0915 3.40938 27.1865 3.125 25.1284 3.125C15.6378 3.125 7.97949 9.00898 5.15186 17.1875H1.92188C1.27471 17.1875 0.75 17.7122 0.75 18.3594V21.2651C0.75 21.9123 1.27471 22.437 1.92188 22.437H4.02822C3.92969 23.7658 3.91289 25.2971 4.01055 26.5625H1.92188C1.27471 26.5625 0.75 27.0872 0.75 27.7344V30.5039C0.75 31.1511 1.27471 31.6758 1.92188 31.6758H4.8627C7.30654 40.4973 14.9359 46.875 25.1284 46.875C27.6969 46.875 29.8708 46.4313 31.0953 46.1145C31.6976 45.9587 32.0745 45.3617 31.9535 44.7515L31.0924 40.4067Z" fill="white"/>
</g>
<defs>
<clipPath id="clip0">
<rect width="31.25" height="50" fill="white" transform="translate(0.75)"/>
</clipPath>
</defs>
</svg>
