<svg width="45" height="50" viewBox="0 0 45 50" fill="none" xmlns="http://www.w3.org/2000/svg">
<g clip-path="url(#clip0)">
<path d="M0.75 17.5781V5.46875C0.75 4.16992 1.79492 3.125 3.09375 3.125H15.2031C15.8477 3.125 16.375 3.65234 16.375 4.29688V8.20312C16.375 8.84766 15.8477 9.375 15.2031 9.375H7V17.5781C7 18.2227 6.47266 18.75 5.82812 18.75H1.92188C1.27734 18.75 0.75 18.2227 0.75 17.5781ZM28.875 4.29688V8.20312C28.875 8.84766 29.4023 9.375 30.0469 9.375H38.25V17.5781C38.25 18.2227 38.7773 18.75 39.4219 18.75H43.3281C43.9727 18.75 44.5 18.2227 44.5 17.5781V5.46875C44.5 4.16992 43.4551 3.125 42.1562 3.125H30.0469C29.4023 3.125 28.875 3.65234 28.875 4.29688ZM43.3281 31.25H39.4219C38.7773 31.25 38.25 31.7773 38.25 32.4219V40.625H30.0469C29.4023 40.625 28.875 41.1523 28.875 41.7969V45.7031C28.875 46.3477 29.4023 46.875 30.0469 46.875H42.1562C43.4551 46.875 44.5 45.8301 44.5 44.5312V32.4219C44.5 31.7773 43.9727 31.25 43.3281 31.25ZM16.375 45.7031V41.7969C16.375 41.1523 15.8477 40.625 15.2031 40.625H7V32.4219C7 31.7773 6.47266 31.25 5.82812 31.25H1.92188C1.27734 31.25 0.75 31.7773 0.75 32.4219V44.5312C0.75 45.8301 1.79492 46.875 3.09375 46.875H15.2031C15.8477 46.875 16.375 46.3477 16.375 45.7031Z" fill="white"/>
</g>
<defs>
<clipPath id="clip0">
<rect width="43.75" height="50" fill="white" transform="translate(0.75)"/>
</clipPath>
</defs>
</svg>
