<svg width="50" height="50" viewBox="0 0 50 50" fill="none" xmlns="http://www.w3.org/2000/svg">
<path d="M25.0537 0.78125C11.3789 0.78125 0.78125 10.7754 0.78125 24.2744C0.78125 31.335 3.68262 37.4365 8.40527 41.6514C9.2207 42.3848 9.05273 42.8096 9.19141 47.3379C9.20233 47.6551 9.29068 47.9648 9.44878 48.24C9.60687 48.5152 9.8299 48.7475 10.0984 48.9167C10.3669 49.0859 10.6727 49.1869 10.9892 49.2108C11.3057 49.2346 11.6232 49.1807 11.9141 49.0537C17.0811 46.7783 17.1475 46.5986 18.0234 46.8369C32.9932 50.957 49.2188 41.377 49.2188 24.2744C49.2188 10.7754 38.7295 0.78125 25.0537 0.78125ZM39.6279 18.8604L32.499 30.1465C32.2298 30.5709 31.8759 30.9351 31.4593 31.2163C31.0428 31.4975 30.5727 31.6897 30.0784 31.7807C29.5841 31.8717 29.0764 31.8597 28.587 31.7454C28.0976 31.631 27.6371 31.4168 27.2344 31.1162L21.5625 26.8711C21.3089 26.6809 21.0005 26.5781 20.6836 26.5781C20.3666 26.5781 20.0582 26.6809 19.8047 26.8711L12.1514 32.6758C11.1299 33.4502 9.79199 32.2266 10.4805 31.1455L17.6094 19.8594C17.8785 19.4349 18.2324 19.0705 18.6489 18.7892C19.0655 18.508 19.5356 18.3158 20.0299 18.2247C20.5242 18.1337 21.032 18.1457 21.5214 18.2601C22.0108 18.3746 22.4713 18.5889 22.874 18.8896L28.5439 23.1338C28.7975 23.324 29.1059 23.4268 29.4229 23.4268C29.7398 23.4268 30.0482 23.324 30.3018 23.1338L37.959 17.335C38.9785 16.5557 40.3164 17.7783 39.6279 18.8604Z" fill="white"/>
</svg>
