<svg width="50" height="50" viewBox="0 0 50 50" fill="none" xmlns="http://www.w3.org/2000/svg">
<g clip-path="url(#clip0)">
<path d="M25.0117 24.0196C23.7178 24.0196 22.668 25.0684 22.668 26.3633C22.7793 33.419 21.873 40.2208 19.9629 47.0225C19.6963 47.9717 20.1728 50.0001 22.2207 50.0001C23.2441 50.0001 24.1846 49.3243 24.4756 48.2891C25.7969 43.6104 27.5068 36.042 27.3545 26.3633C27.3555 25.0694 26.3066 24.0196 25.0117 24.0196ZM24.9277 16.0381C18.9453 16.0313 14.7705 20.6348 14.8535 25.9102C14.9268 30.5919 14.4873 35.2764 13.5478 39.8311C13.2852 41.0987 14.1016 42.3399 15.3682 42.6006C16.6426 42.8614 17.875 42.0479 18.1377 40.7803C19.1475 35.8887 19.6191 30.8604 19.541 25.837C19.501 23.3028 21.4863 20.711 24.8584 20.7256C27.916 20.7715 30.4395 23.2003 30.4853 26.1426C30.5605 30.835 30.2109 35.5499 29.4492 40.1612C29.2373 41.4366 30.1025 42.6436 31.3789 42.8545C33.3291 43.1797 33.9971 41.3799 34.0723 40.9239C34.8809 36.0381 35.25 31.0401 35.1729 26.0694C35.0869 20.6202 30.4912 16.1202 24.9277 16.0381ZM14.1182 14.1065C13.1123 13.292 11.6406 13.4424 10.8213 14.4463C8.31933 17.5225 6.97461 21.4073 7.03711 25.3838C7.09472 29.0538 6.7959 32.7344 6.14746 36.3262C5.91894 37.6006 6.76367 38.8194 8.03808 39.0499C10.002 39.3917 10.6816 37.6036 10.7617 37.1592C11.4639 33.2686 11.7871 29.2823 11.7246 25.3106C11.6787 22.3926 12.623 19.6583 14.459 17.4034C15.2744 16.3995 15.1221 14.9239 14.1182 14.1065ZM24.8086 8.01959C23.3037 7.97955 21.7939 8.16021 20.3379 8.50494C19.0791 8.80377 18.2998 10.0655 18.5967 11.3262C18.8955 12.585 20.1592 13.3604 21.418 13.0674C22.4971 12.8126 23.6123 12.6993 24.7383 12.7071C32.1045 12.8174 38.1885 18.7129 38.3008 25.8497C38.3584 29.5489 38.1758 33.2823 37.7559 36.9463C37.6094 38.2325 38.5322 39.3956 39.8174 39.542C41.4502 39.7325 42.3086 38.3819 42.4131 37.4805C42.8568 33.5956 43.049 29.6861 42.9883 25.7764C42.8359 16.1329 34.6807 8.16607 24.8086 8.01959ZM49.4248 19.8799C49.1455 18.6182 47.9102 17.8096 46.6309 18.0958C45.3672 18.3751 44.5684 19.6251 44.8477 20.8897C45.3076 22.9805 45.3271 24.543 45.3066 26.9053C45.2959 28.2012 46.3369 29.2579 47.6309 29.2686H47.6504C48.9365 29.2686 49.9834 28.2325 49.9941 26.9444C50.0117 24.7784 50.0332 22.6368 49.4248 19.8799ZM45.5068 11.0206C40.751 4.24419 32.9687 0.126031 24.6885 0.00200772C17.873 -0.0800235 11.5693 2.43267 6.88086 7.1231C2.35254 11.6573 -0.0878931 17.6797 0.0136694 24.087L0.00195069 26.1836C-0.0361352 27.4776 0.981443 28.5577 2.27539 28.5948C2.29785 28.5967 2.32226 28.5967 2.3457 28.5967C3.60742 28.5967 4.64941 27.5909 4.68652 26.3213L4.70215 24.0128C4.62109 18.8858 6.57324 14.0655 10.1982 10.4385C13.9834 6.64947 19.1182 4.61138 24.6201 4.69048C31.4023 4.79107 37.7773 8.16314 41.6729 13.7129C42.416 14.7735 43.876 15.0264 44.9365 14.2852C45.9951 13.5411 46.251 12.0792 45.5068 11.0206Z" fill="white"/>
</g>
<defs>
<clipPath id="clip0">
<rect width="50" height="50" fill="white"/>
</clipPath>
</defs>
</svg>
