<svg width="57" height="50" viewBox="0 0 57 50" fill="none" xmlns="http://www.w3.org/2000/svg">
<g clip-path="url(#clip0)">
<path d="M31.9435 9.375C23.1573 9.375 15.4845 14.7236 11.214 19.2998L2.68567 12.8496C1.5011 11.9531 -0.267456 12.9082 0.0352784 14.2813L2.3966 25L0.0343019 35.7197C-0.268432 37.0928 1.50012 38.0469 2.68469 37.1514L11.213 30.7012C15.4835 35.2764 23.1573 40.625 31.9435 40.625C45.3673 40.625 56.2501 28.125 56.2501 25C56.2501 21.875 45.3673 9.375 31.9435 9.375ZM40.4815 27.3438C39.1876 27.3438 38.1378 26.2939 38.1378 25C38.1378 23.7051 39.1876 22.6562 40.4815 22.6562C41.7765 22.6562 42.8253 23.7051 42.8253 25C42.8253 26.2939 41.7755 27.3438 40.4815 27.3438Z" fill="white"/>
</g>
<defs>
<clipPath id="clip0">
<rect width="57" height="50" fill="white"/>
</clipPath>
</defs>
</svg>
