<svg width="57" height="50" viewBox="0 0 57 50" fill="none" xmlns="http://www.w3.org/2000/svg">
<g clip-path="url(#clip0)">
<path d="M31.9434 9.375C23.1572 9.375 15.4844 14.7236 11.2139 19.2998L2.68555 12.8496C1.50098 11.9531 -0.267578 12.9082 0.0351564 14.2813L2.39648 25L0.0341799 35.7197C-0.268555 37.0928 1.5 38.0469 2.68457 37.1514L11.2129 30.7012C15.4834 35.2764 23.1572 40.625 31.9434 40.625C45.3672 40.625 56.25 28.125 56.25 25C56.25 21.875 45.3672 9.375 31.9434 9.375ZM40.4814 27.3438C39.1875 27.3438 38.1377 26.2939 38.1377 25C38.1377 23.7051 39.1875 22.6562 40.4814 22.6562C41.7764 22.6562 42.8252 23.7051 42.8252 25C42.8252 26.2939 41.7754 27.3438 40.4814 27.3438Z" fill="white"/>
</g>
<defs>
<clipPath id="clip0">
<rect width="56.25" height="50" fill="white"/>
</clipPath>
</defs>
</svg>
