<svg width="51" height="50" viewBox="0 0 51 50" fill="none" xmlns="http://www.w3.org/2000/svg">
<g clip-path="url(#clip0)">
<path d="M34.3872 9.64698C29.1541 9.64698 24.8321 6.25021 18.2527 6.25021C15.8157 6.25021 13.6327 6.67833 11.6077 7.42335C11.8884 6.69041 12.0078 5.90562 11.9579 5.12238C11.7849 2.34542 9.5084 0.117983 6.72832 0.00489722C3.604 -0.122251 1.03125 2.37286 1.03125 5.46896C1.03125 7.32696 1.95869 8.96749 3.375 9.95577V47.6564C3.375 48.9509 4.42432 50.0002 5.71875 50.0002H7.28125C8.57568 50.0002 9.625 48.9509 9.625 47.6564V38.4377C12.3897 37.2596 15.8342 36.2773 20.8003 36.2773C26.0335 36.2773 30.3554 39.6741 36.9348 39.6741C41.6388 39.6741 45.3983 38.0829 48.8981 35.6841C49.7461 35.1029 50.25 34.138 50.25 33.11V9.36984C50.25 7.08536 47.88 5.57394 45.8081 6.53624C42.4548 8.09366 38.3419 9.64698 34.3872 9.64698Z" fill="white"/>
</g>
<defs>
<clipPath id="clip0">
<rect width="51" height="50" fill="white"/>
</clipPath>
</defs>
</svg>
