<svg width="51" height="50" viewBox="0 0 51 50" fill="none" xmlns="http://www.w3.org/2000/svg">
<g clip-path="url(#clip0)">
<path d="M33.5625 43.75H2.3125C1.45312 43.75 0.75 44.4531 0.75 45.3125V48.4375C0.75 49.2969 1.45312 50 2.3125 50H33.5625C34.4219 50 35.125 49.2969 35.125 48.4375V45.3125C35.125 44.4531 34.4219 43.75 33.5625 43.75ZM48.9141 10.4785L41.0039 2.56836C40.3984 1.96289 39.4023 1.96289 38.7969 2.56836L37.6934 3.67187C37.0879 4.27734 37.0879 5.27344 37.6934 5.87891L41.375 9.56055V15.625C41.375 18.3691 43.416 20.6348 46.0625 21.0156V36.7188C46.0625 38.0078 45.0078 39.0625 43.7188 39.0625C42.4297 39.0625 41.375 38.0078 41.375 36.7188V33.5938C41.375 28.8477 37.5273 25 32.7812 25H32V6.25C32 2.80273 29.1973 0 25.75 0H10.125C6.67773 0 3.875 2.80273 3.875 6.25V40.625H32V29.6875H32.7812C34.9395 29.6875 36.6875 31.4355 36.6875 33.5938V36.3086C36.6875 39.9902 39.3242 43.3398 42.9863 43.7207C47.1855 44.1406 50.75 40.8398 50.75 36.7188V14.9023C50.75 13.2422 50.0859 11.6504 48.9141 10.4785ZM25.75 18.75H10.125V6.25H25.75V18.75Z" fill="white"/>
</g>
<defs>
<clipPath id="clip0">
<rect width="50" height="50" fill="white" transform="translate(0.75)"/>
</clipPath>
</defs>
</svg>
