<svg width="45" height="50" viewBox="0 0 45 50" fill="none" xmlns="http://www.w3.org/2000/svg">
<path d="M43.6749 23.0519L24.5782 3.95036C24.0495 3.42218 23.3328 3.12549 22.5855 3.12549C21.8382 3.12549 21.1215 3.42218 20.5929 3.95036L16.6221 7.91813L21.6534 12.9494C24.296 12.0568 26.7979 14.5871 25.8907 17.215L30.7403 22.0646C34.0831 20.9123 36.7149 25.0919 34.2042 27.6007C31.6173 30.1876 27.3477 27.3205 28.7354 23.9542L24.2091 19.4337V31.3332C26.6798 32.5578 26.3829 35.4201 25.0958 36.7042C24.4669 37.3327 23.6142 37.6858 22.7252 37.6858C21.8361 37.6858 20.9834 37.3327 20.3546 36.7042C18.6387 34.9855 19.2735 32.1232 21.4532 31.2355V19.2238C19.422 18.3927 19.0509 16.2218 19.6329 14.8292L14.6729 9.86344L1.57527 22.963C1.04685 23.4916 0.75 24.2083 0.75 24.9557C0.75 25.7031 1.04685 26.4199 1.57527 26.9484L20.6778 46.0499C21.2063 46.5781 21.9229 46.8747 22.67 46.8747C23.4171 46.8747 24.1337 46.5781 24.6622 46.0499L43.6749 27.0372C44.2033 26.5087 44.5002 25.7919 44.5002 25.0446C44.5002 24.2972 44.2033 23.5804 43.6749 23.0519Z" fill="white"/>
</svg>
