<svg width="49" height="50" viewBox="0 0 49 50" fill="none" xmlns="http://www.w3.org/2000/svg">
<g clip-path="url(#clip0)">
<path d="M16.7012 38.8086C16.7012 39.0039 16.4766 39.1602 16.1934 39.1602C15.8711 39.1895 15.6465 39.0332 15.6465 38.8086C15.6465 38.6133 15.8711 38.457 16.1543 38.457C16.4473 38.4277 16.7012 38.584 16.7012 38.8086ZM13.6641 38.3691C13.5957 38.5645 13.791 38.7891 14.084 38.8477C14.3379 38.9453 14.6309 38.8477 14.6895 38.6523C14.748 38.457 14.5625 38.2324 14.2695 38.1445C14.0156 38.0762 13.7324 38.1738 13.6641 38.3691ZM17.9805 38.2031C17.6973 38.2715 17.502 38.457 17.5312 38.6816C17.5605 38.877 17.8145 39.0039 18.1074 38.9355C18.3906 38.8672 18.5859 38.6816 18.5566 38.4863C18.5273 38.3008 18.2637 38.1738 17.9805 38.2031ZM24.4062 0.78125C10.8613 0.78125 0.5 11.0645 0.5 24.6094C0.5 35.4395 7.31641 44.707 17.0527 47.9688C18.3027 48.1934 18.7422 47.4219 18.7422 46.7871C18.7422 46.1816 18.7129 42.8418 18.7129 40.791C18.7129 40.791 11.877 42.2559 10.4414 37.8809C10.4414 37.8809 9.32812 35.0391 7.72656 34.3066C7.72656 34.3066 5.49023 32.7734 7.88281 32.8027C7.88281 32.8027 10.3145 32.998 11.6523 35.3223C13.791 39.0918 17.375 38.0078 18.7715 37.3633C18.9961 35.8008 19.6309 34.7168 20.334 34.0723C14.875 33.4668 9.36719 32.6758 9.36719 23.2812C9.36719 20.5957 10.1094 19.248 11.6719 17.5293C11.418 16.8945 10.5879 14.2773 11.9258 10.8984C13.9668 10.2637 18.6641 13.5352 18.6641 13.5352C20.6172 12.9883 22.7168 12.7051 24.7969 12.7051C26.877 12.7051 28.9766 12.9883 30.9297 13.5352C30.9297 13.5352 35.627 10.2539 37.668 10.8984C39.0059 14.2871 38.1758 16.8945 37.9219 17.5293C39.4844 19.2578 40.4414 20.6055 40.4414 23.2812C40.4414 32.7051 34.6895 33.457 29.2305 34.0723C30.1289 34.8438 30.8906 36.3086 30.8906 38.6035C30.8906 41.8945 30.8613 45.9668 30.8613 46.7676C30.8613 47.4023 31.3105 48.1738 32.5508 47.9492C42.3164 44.707 48.9375 35.4395 48.9375 24.6094C48.9375 11.0645 37.9512 0.78125 24.4062 0.78125ZM9.99219 34.4629C9.86523 34.5605 9.89453 34.7852 10.0605 34.9707C10.2168 35.127 10.4414 35.1953 10.5684 35.0684C10.6953 34.9707 10.666 34.7461 10.5 34.5605C10.3438 34.4043 10.1191 34.3359 9.99219 34.4629ZM8.9375 33.6719C8.86914 33.7988 8.9668 33.9551 9.16211 34.0527C9.31836 34.1504 9.51367 34.1211 9.58203 33.9844C9.65039 33.8574 9.55273 33.7012 9.35742 33.6035C9.16211 33.5449 9.00586 33.5742 8.9375 33.6719ZM12.1016 37.1484C11.9453 37.2754 12.0039 37.5684 12.2285 37.7539C12.4531 37.9785 12.7363 38.0078 12.8633 37.8516C12.9902 37.7246 12.9316 37.4316 12.7363 37.2461C12.5215 37.0215 12.2285 36.9922 12.1016 37.1484ZM10.9883 35.7129C10.832 35.8105 10.832 36.0645 10.9883 36.2891C11.1445 36.5137 11.4082 36.6113 11.5352 36.5137C11.6914 36.3867 11.6914 36.1328 11.5352 35.9082C11.3984 35.6836 11.1445 35.5859 10.9883 35.7129Z" fill="white"/>
</g>
<defs>
<clipPath id="clip0">
<rect width="48.4375" height="50" fill="white" transform="translate(0.5)"/>
</clipPath>
</defs>
</svg>
