<svg width="50" height="50" viewBox="0 0 50 50" fill="none" xmlns="http://www.w3.org/2000/svg">
<g clip-path="url(#clip0)">
<path d="M10.2736 2.43164C9.97086 1.5625 8.74039 1.5625 8.42789 2.43164L2.91031 19.502H15.8009C15.7912 19.502 10.2736 2.43164 10.2736 2.43164ZM0.0880485 28.0957C-0.165858 28.877 0.117345 29.7461 0.781407 30.2442L24.9904 48.2129L2.90054 19.502L0.0880485 28.0957ZM15.7912 19.502L25.0002 48.2129L34.2091 19.502H15.7912ZM49.9123 28.0957L47.0998 19.502L25.0002 48.2129L49.2091 30.2442C49.883 29.7461 50.1564 28.877 49.9123 28.0957ZM41.5724 2.43164C41.2697 1.5625 40.0392 1.5625 39.7267 2.43164L34.1994 19.502H47.09L41.5724 2.43164Z" fill="white"/>
</g>
<defs>
<clipPath id="clip0">
<rect width="50" height="50" fill="white"/>
</clipPath>
</defs>
</svg>
