<svg width="57" height="50" viewBox="0 0 57 50" fill="none" xmlns="http://www.w3.org/2000/svg">
<g clip-path="url(#clip0)">
<path d="M56.8144 27.38L52.3857 9.63488C51.8086 7.32043 50.2773 5.33312 48.1865 4.18469C46.0928 3.03918 43.5996 2.80676 41.332 3.56652L39.8428 4.06262C39.0234 4.33508 38.5811 5.22082 38.8545 6.03918L39.3486 7.5216C39.6211 8.33996 40.5059 8.78234 41.3242 8.50988L42.6113 8.08117C43.6729 7.72766 44.8574 7.73254 45.8496 8.25012C46.8545 8.77453 47.5654 9.67199 47.8389 10.7716L51.5947 25.7931C49.4277 25.128 46.7324 24.5763 43.665 24.5763C40.2695 24.5763 36.4404 25.2618 32.4492 27.1876H25.3027C21.3115 25.2599 17.4824 24.5753 14.0859 24.5753C11.0176 24.5753 8.32227 25.1271 6.15527 25.7921L9.91113 10.7696C10.1836 9.67102 10.8965 8.77258 11.9014 8.24914C12.8936 7.73156 14.0771 7.72668 15.1387 8.08019L16.4248 8.50891C17.2432 8.78137 18.1279 8.33898 18.4004 7.52063L18.8945 6.0382C19.168 5.21984 18.7256 4.3341 17.9062 4.06164L16.417 3.56555C14.1494 2.80578 11.6562 3.03723 9.5625 4.18371C7.47168 5.33313 5.94043 7.31945 5.36328 9.63293L0.935547 27.38C0.812432 27.8748 0.750123 28.3828 0.75 28.8927L0.75 35.753C0.75 41.8956 5.78711 46.8751 12 46.8751H15.625C21.5117 46.8751 26.4033 42.3888 26.8438 36.5851L27.1299 32.8126H30.6211L30.9072 36.5851C31.3467 42.3888 36.2383 46.8751 42.125 46.8751H45.75C51.9629 46.8751 57 41.8956 57 35.754V28.8937C57 28.3829 56.9375 27.8751 56.8144 27.38ZM20.6113 36.1124C20.4189 38.6427 18.2285 40.6251 15.625 40.6251H12C9.24316 40.6251 7 38.4396 7 35.753V32.087C8.76953 31.4532 11.2402 30.8253 14.0879 30.8253C16.418 30.8253 18.7031 31.2482 20.917 32.087L20.6113 36.1124ZM50.75 35.754C50.75 38.4405 48.5068 40.6251 45.75 40.6251H42.125C39.5205 40.6251 37.3301 38.6427 37.1387 36.1124L36.833 32.087C39.0469 31.2482 41.333 30.8253 43.6641 30.8253C46.5078 30.8253 48.9795 31.4542 50.749 32.088V35.754H50.75Z" fill="white"/>
</g>
<defs>
<clipPath id="clip0">
<rect width="56.25" height="50" fill="white" transform="translate(0.75)"/>
</clipPath>
</defs>
</svg>
