<svg width="57" height="50" viewBox="0 0 57 50" fill="none" xmlns="http://www.w3.org/2000/svg">
<path d="M56.8145 27.3801L52.3857 9.635C51.8086 7.32055 50.2773 5.33324 48.1865 4.18481C46.0928 3.0393 43.5996 2.80688 41.332 3.56664L39.8428 4.06274C39.0234 4.3352 38.5811 5.22094 38.8545 6.0393L39.3486 7.52172C39.6211 8.34008 40.5059 8.78246 41.3242 8.51L42.6113 8.08129C43.6729 7.72778 44.8574 7.73266 45.8496 8.25024C46.8545 8.77465 47.5654 9.67211 47.8389 10.7717L51.5947 25.7932C49.4277 25.1281 46.7324 24.5764 43.665 24.5764C40.2695 24.5764 36.4404 25.2619 32.4492 27.1877H25.3027C21.3115 25.26 17.4824 24.5754 14.0859 24.5754C11.0176 24.5754 8.32227 25.1272 6.15527 25.7922L9.91113 10.7697C10.1836 9.67114 10.8965 8.7727 11.9014 8.24926C12.8936 7.73168 14.0771 7.7268 15.1387 8.08032L16.4248 8.50903C17.2432 8.78149 18.1279 8.3391 18.4004 7.52075L18.8945 6.03832C19.168 5.21996 18.7256 4.33422 17.9062 4.06176L16.417 3.56567C14.1494 2.8059 11.6562 3.03735 9.5625 4.18383C7.47168 5.33325 5.94043 7.31957 5.36328 9.63305L0.935547 27.3801C0.812432 27.8749 0.750123 28.3829 0.75 28.8928V35.7531C0.75 41.8957 5.78711 46.8752 12 46.8752H15.625C21.5117 46.8752 26.4033 42.3889 26.8438 36.5852L27.1299 32.8127H30.6211L30.9072 36.5852C31.3467 42.3889 36.2383 46.8752 42.125 46.8752H45.75C51.9629 46.8752 57 41.8957 57 35.7541V28.8938C57 28.383 56.9375 27.8752 56.8145 27.3801ZM20.6113 36.1125C20.4189 38.6428 18.2285 40.6252 15.625 40.6252H12C9.24316 40.6252 7 38.4397 7 35.7531V32.0871C8.76953 31.4533 11.2402 30.8254 14.0879 30.8254C16.418 30.8254 18.7031 31.2483 20.917 32.0871L20.6113 36.1125ZM50.75 35.7541C50.75 38.4406 48.5068 40.6252 45.75 40.6252H42.125C39.5205 40.6252 37.3301 38.6428 37.1387 36.1125L36.833 32.0871C39.0469 31.2483 41.333 30.8254 43.6641 30.8254C46.5078 30.8254 48.9795 31.4543 50.749 32.0881V35.7541H50.75Z" fill="white"/>
</svg>
