<svg width="49" height="50" viewBox="0 0 49 50" fill="none" xmlns="http://www.w3.org/2000/svg">
<g clip-path="url(#clip0)">
<path d="M24.5312 0.78125C11.1523 0.78125 0.3125 11.6211 0.3125 25C0.3125 38.3789 11.1523 49.2188 24.5312 49.2188C37.9102 49.2188 48.75 38.3789 48.75 25C48.75 11.6211 37.9102 0.78125 24.5312 0.78125ZM44.0625 25C44.0625 27.1973 43.6816 29.3164 43.0078 31.2891H41.0254C40.6055 31.2891 40.2051 31.123 39.9121 30.8203L36.7871 27.6367C36.3477 27.1875 36.3477 26.4551 36.7969 26.0059L38.0176 24.7852V23.9355C38.0176 23.6426 37.9004 23.3594 37.6953 23.1543L36.7773 22.2363C36.5723 22.0312 36.2891 21.9141 35.9961 21.9141H34.4336C33.8281 21.9141 33.3301 21.416 33.3301 20.8105C33.3301 20.5176 33.4473 20.2344 33.6523 20.0293L34.5703 19.1113C34.7754 18.9062 35.0586 18.7891 35.3516 18.7891H38.4766C39.082 18.7891 39.5801 18.291 39.5801 17.6855V16.7676C39.5801 16.1621 39.082 15.6641 38.4766 15.6641H34.8926C34.0332 15.6641 33.3301 16.3672 33.3301 17.2266V17.666C33.3301 18.3398 32.9004 18.9355 32.2656 19.1504L29.1797 20.1758C28.8574 20.2832 28.6426 20.5762 28.6426 20.918V21.1328C28.6426 21.5625 28.291 21.9141 27.8613 21.9141H26.2988C25.8691 21.9141 25.5176 21.5625 25.5176 21.1328C25.5176 20.7031 25.166 20.3516 24.7363 20.3516H24.4336C24.1406 20.3516 23.8672 20.5176 23.7305 20.7812L22.8125 22.6074C22.5488 23.1348 22.0117 23.4668 21.416 23.4668H19.2578C18.3984 23.4668 17.6953 22.7637 17.6953 21.9043V19.4336C17.6953 19.0234 17.8613 18.623 18.1543 18.3301L20.1172 16.3672C20.5664 15.918 20.8203 15.3027 20.8203 14.6582C20.8203 14.3262 21.0352 14.0234 21.3574 13.916L25.2637 12.6172C25.4297 12.5586 25.5762 12.4707 25.6934 12.3535L28.3105 9.73633C28.5156 9.53125 28.6328 9.24805 28.6328 8.95508C28.6328 8.34961 28.1348 7.85156 27.5293 7.85156H25.5078L23.9453 9.41406V10.1953C23.9453 10.625 23.5938 10.9766 23.1641 10.9766H21.6016C21.1719 10.9766 20.8203 10.625 20.8203 10.1953V8.24219C20.8203 7.99805 20.9375 7.76367 21.1328 7.61719L23.9551 5.49805C24.1406 5.48828 24.3262 5.46875 24.5117 5.46875C35.3027 5.46875 44.0625 14.2285 44.0625 25ZM13.0176 14.5605C13.0176 14.2676 13.1348 13.9844 13.3398 13.7793L15.8203 11.2988C16.0254 11.0938 16.3086 10.9766 16.6016 10.9766C17.207 10.9766 17.7051 11.4746 17.7051 12.0801V13.6426C17.7051 13.9355 17.5879 14.2188 17.3828 14.4238L16.4648 15.3418C16.2598 15.5469 15.9766 15.6641 15.6836 15.6641H14.1211C13.5156 15.6641 13.0176 15.166 13.0176 14.5605ZM25.5176 44.4824V43.7891C25.5176 42.9297 24.8145 42.2266 23.9551 42.2266H21.9824C20.9277 42.2266 19.375 41.709 18.5254 41.0742L16.3574 39.4434C15.2344 38.6035 14.5801 37.2852 14.5801 35.8887V33.5547C14.5801 31.9922 15.4004 30.5469 16.7383 29.7461L20.9277 27.2363C21.6211 26.8262 22.4121 26.6016 23.2129 26.6016H26.2598C27.3242 26.6016 28.3496 26.9824 29.1504 27.666L33.3691 31.2891H35.1562C35.9863 31.2891 36.7773 31.6211 37.3633 32.207L39.0527 33.8965C39.3848 34.2285 39.8438 34.4141 40.3125 34.4141H41.6211C38.457 40.166 32.4609 44.1309 25.5176 44.4824Z" fill="white"/>
</g>
<defs>
<clipPath id="clip0">
<rect width="48.4375" height="50" fill="white" transform="translate(0.3125)"/>
</clipPath>
</defs>
</svg>
