<svg width="50" height="50" viewBox="0 0 50 50" fill="none" xmlns="http://www.w3.org/2000/svg">
<g clip-path="url(#clip0)">
<path d="M33.6113 15.625C32.1953 6.9043 28.8555 0.78125 24.9688 0.78125C21.082 0.78125 17.7422 6.9043 16.3262 15.625H33.6113ZM15.5938 25C15.5938 27.168 15.7109 29.248 15.916 31.25H34.0117C34.2168 29.248 34.334 27.168 34.334 25C34.334 22.832 34.2168 20.752 34.0117 18.75H15.916C15.7109 20.752 15.5938 22.832 15.5938 25ZM47.3027 15.625C44.5098 8.99414 38.8555 3.86719 31.873 1.79688C34.2559 5.09766 35.8965 10.0684 36.7559 15.625H47.3027ZM18.0547 1.79688C11.082 3.86719 5.41797 8.99414 2.63477 15.625H13.1816C14.0312 10.0684 15.6719 5.09766 18.0547 1.79688ZM48.3477 18.75H37.1465C37.3516 20.8008 37.4688 22.9004 37.4688 25C37.4688 27.0996 37.3516 29.1992 37.1465 31.25H48.3379C48.875 29.248 49.1777 27.168 49.1777 25C49.1777 22.832 48.875 20.752 48.3477 18.75ZM12.4688 25C12.4688 22.9004 12.5859 20.8008 12.791 18.75H1.58984C1.0625 20.752 0.75 22.832 0.75 25C0.75 27.168 1.0625 29.248 1.58984 31.25H12.7812C12.5859 29.1992 12.4688 27.0996 12.4688 25ZM16.3262 34.375C17.7422 43.0957 21.082 49.2188 24.9688 49.2188C28.8555 49.2188 32.1953 43.0957 33.6113 34.375H16.3262ZM31.8828 48.2031C38.8555 46.1328 44.5195 41.0059 47.3125 34.375H36.7656C35.9062 39.9316 34.2656 44.9023 31.8828 48.2031ZM2.63477 34.375C5.42773 41.0059 11.082 46.1328 18.0645 48.2031C15.6816 44.9023 14.041 39.9316 13.1816 34.375H2.63477Z" fill="white"/>
</g>
<defs>
<clipPath id="clip0">
<rect width="48.4375" height="50" fill="white" transform="translate(0.75)"/>
</clipPath>
</defs>
</svg>
