<svg width="49" height="50" viewBox="0 0 49 50" fill="none" xmlns="http://www.w3.org/2000/svg">
<path d="M24.6562 0.78125C11.2803 0.78125 0.4375 11.624 0.4375 25C0.4375 38.376 11.2803 49.2188 24.6562 49.2188C38.0322 49.2188 48.875 38.376 48.875 25C48.875 11.624 38.0322 0.78125 24.6562 0.78125ZM32.6924 35.7031C32.3115 36.082 31.9121 36.4795 31.5879 36.8047C31.2959 37.0977 31.0898 37.459 30.9854 37.8506C30.8379 38.4033 30.7188 38.9619 30.5195 39.498L28.8213 44.0732C27.4775 44.3662 26.0869 44.5312 24.6562 44.5312V41.8574C24.8213 40.625 23.9102 38.3164 22.4463 36.8525C21.8604 36.2666 21.5312 35.4717 21.5312 34.6426V31.5166C21.5312 30.3799 20.9189 29.335 19.9238 28.7852C18.5205 28.0088 16.5244 26.9238 15.1572 26.2354C14.0361 25.6709 12.999 24.9521 12.0664 24.1113L11.9883 24.041C11.3214 23.439 10.7292 22.759 10.2246 22.0156C9.30859 20.6709 7.81641 18.459 6.84668 17.0215C8.8457 12.5781 12.4482 9.00977 16.9248 7.07129L19.2695 8.24414C20.3086 8.76367 21.5312 8.00879 21.5312 6.84668V5.74316C22.3115 5.61719 23.1055 5.53711 23.9131 5.50684L26.6768 8.27051C27.2871 8.88086 27.2871 9.87012 26.6768 10.4805L26.2188 10.9375L25.209 11.9473C24.9043 12.252 24.9043 12.7471 25.209 13.0518L25.667 13.5098C25.9717 13.8145 25.9717 14.3096 25.667 14.6143L24.8857 15.3955C24.7391 15.5419 24.5403 15.6241 24.333 15.624H23.4551C23.252 15.624 23.0566 15.7031 22.9102 15.8457L21.9414 16.7881C21.8227 16.9037 21.7437 17.0541 21.716 17.2175C21.6883 17.3809 21.7132 17.5489 21.7871 17.6973L23.3096 20.7432C23.5693 21.2627 23.1914 21.874 22.6113 21.874H22.0605C21.8721 21.874 21.6904 21.8057 21.5488 21.6826L20.6426 20.8955C20.4375 20.7176 20.1896 20.5961 19.9234 20.543C19.6571 20.49 19.3816 20.5071 19.124 20.5928L16.0801 21.6074C15.8477 21.6849 15.6456 21.8336 15.5024 22.0323C15.3592 22.2311 15.2822 22.4699 15.2822 22.7148C15.2822 23.1572 15.5322 23.5605 15.9277 23.7588L17.0098 24.2998C17.9287 24.7598 18.9424 24.999 19.9697 24.999C20.9971 24.999 22.1758 27.6641 23.0947 28.124H29.6133C30.4424 28.124 31.2363 28.4531 31.8232 29.0391L33.1602 30.376C33.7187 30.9347 34.0324 31.6924 34.0322 32.4824C34.032 33.081 33.9136 33.6737 33.6836 34.2264C33.4537 34.7792 33.1168 35.281 32.6924 35.7031ZM41.1602 26.7822C40.5947 26.6406 40.1016 26.2939 39.7783 25.8086L38.0225 23.1748C37.7655 22.79 37.6284 22.3377 37.6284 21.875C37.6284 21.4123 37.7655 20.96 38.0225 20.5752L39.9355 17.7061C40.1621 17.3672 40.4727 17.0918 40.8379 16.9102L42.1055 16.2764C43.4258 18.9053 44.1875 21.8623 44.1875 25C44.1875 25.8467 44.1152 26.6758 44.0098 27.4941L41.1602 26.7822Z" fill="white"/>
</svg>
