<svg width="49" height="50" viewBox="0 0 49 50" fill="none" xmlns="http://www.w3.org/2000/svg">
<g clip-path="url(#clip0)">
<path d="M24.2188 0.78125C10.8428 0.78125 0 11.624 0 25C0 38.376 10.8428 49.2188 24.2188 49.2188C37.5947 49.2188 48.4375 38.376 48.4375 25C48.4375 11.624 37.5947 0.78125 24.2188 0.78125ZM39.8438 21.8262V22.5029C39.8438 23.0762 39.5195 23.6006 39.0068 23.8564L37.5039 24.6084C37.2652 24.7278 36.9992 24.782 36.7328 24.7654C36.4665 24.7487 36.2093 24.6619 35.9873 24.5137L34.209 23.3281C34.0171 23.2004 33.7987 23.118 33.5702 23.0874C33.3418 23.0568 33.1093 23.0786 32.8906 23.1514L32.6318 23.2373C31.6846 23.5527 31.2979 24.6816 31.8516 25.5127L33.1445 27.4521C33.4248 27.873 33.8975 28.126 34.4033 28.126H35.2051C36.041 28.126 36.7188 28.8037 36.7188 29.6396V30.7471C36.7188 31.0742 36.6123 31.3936 36.416 31.6553L34.5859 34.0947C34.4473 34.2803 34.3525 34.4951 34.3096 34.7227L33.8896 36.9521C33.8291 37.2734 33.666 37.5664 33.4248 37.7881C32.4993 38.6356 31.6796 39.5917 30.9834 40.6357L29.7109 42.5449C29.4635 42.9162 29.1282 43.2206 28.7348 43.4311C28.3415 43.6417 27.9022 43.7519 27.4561 43.752C26.4297 43.752 25.4912 43.1719 25.0322 42.2539C24.4972 41.1839 24.2187 40.004 24.2188 38.8076V35.8887C24.2188 35.0527 23.541 34.375 22.7051 34.375H20.1777C18.7627 34.375 17.4062 33.8125 16.4053 32.8125C15.405 31.8118 14.843 30.4549 14.8428 29.04V27.667C14.8428 25.9883 15.6338 24.4072 16.9766 23.3994L19.6699 21.3789C20.5935 20.6863 21.7167 20.3118 22.8711 20.3115H22.958C23.7861 20.3115 24.6035 20.5039 25.3437 20.875L26.7812 21.5938C27.1406 21.7734 27.5557 21.8027 27.9365 21.6758L32.5566 20.1357C33.1748 19.9297 33.5918 19.3516 33.5918 18.7002C33.5918 17.8643 32.9141 17.1865 32.0781 17.1865H31.0928C30.6914 17.1865 30.3066 17.0273 30.0225 16.7432L29.3467 16.0674C29.2061 15.9268 29.0393 15.8153 28.8556 15.7392C28.672 15.6631 28.4751 15.624 28.2764 15.624H19.4824C18.6465 15.624 17.9688 14.9463 17.9688 14.1104V13.6807C17.9688 12.9863 18.4414 12.3809 19.1152 12.2119L20.5264 11.8594C20.8916 11.7676 21.21 11.5439 21.4189 11.2305L22.208 10.0479C22.4883 9.62695 22.9609 9.37402 23.4668 9.37402H25.8311C26.667 9.37402 27.3447 8.69629 27.3447 7.86035V5.74121C35.0811 6.99512 41.2949 12.7949 43.1572 20.3125H41.3574C40.5215 20.3125 39.8438 20.9902 39.8438 21.8262Z" fill="white"/>
</g>
<defs>
<clipPath id="clip0">
<rect width="48.4375" height="50" fill="white"/>
</clipPath>
</defs>
</svg>
