<svg width="63" height="50" viewBox="0 0 63 50" fill="none" xmlns="http://www.w3.org/2000/svg">
<g clip-path="url(#clip0)">
<path d="M60.9629 14.9609L33.7227 6.59174C32.2383 6.13568 30.6367 6.13568 29.1533 6.59174L1.91211 14.9609C-0.386719 15.6669 -0.386719 18.707 1.91211 19.413L6.66113 20.872C5.61914 22.1601 4.97852 23.7314 4.91504 25.4521C3.97461 25.9911 3.3125 26.9638 3.3125 28.1249C3.3125 29.1777 3.86719 30.0634 4.66602 30.6298L2.17285 41.8486C1.95605 42.8242 2.69824 43.7499 3.69727 43.7499H9.17676C10.1768 43.7499 10.9189 42.8242 10.7021 41.8486L8.20898 30.6298C9.00781 30.0634 9.5625 29.1777 9.5625 28.1249C9.5625 26.9951 8.93066 26.0497 8.0332 25.5009C8.10742 24.0341 8.85742 22.7372 10.0537 21.915L29.1523 27.7831C30.0371 28.0546 31.7344 28.3935 33.7217 27.7831L60.9629 19.414C63.2627 18.707 63.2627 15.6679 60.9629 14.9609ZM34.6396 30.7704C31.8535 31.6259 29.4795 31.1533 28.2344 30.7704L14.0723 26.4199L12.6875 37.4999C12.6875 40.9521 21.082 43.7499 31.4375 43.7499C41.793 43.7499 50.1875 40.9521 50.1875 37.4999L48.8027 26.4189L34.6396 30.7704Z" fill="white"/>
</g>
<defs>
<clipPath id="clip0">
<rect width="62.5" height="50" fill="white" transform="translate(0.1875)"/>
</clipPath>
</defs>
</svg>
