<svg width="51" height="50" viewBox="0 0 51 50" fill="none" xmlns="http://www.w3.org/2000/svg">
<g clip-path="url(#clip0)">
<path d="M49.7724 3.80879L46.8788 0.915238C46.5887 0.62498 46.2441 0.39473 45.8649 0.23764C45.4857 0.080549 45.0793 -0.000305176 44.6689 -0.000305176C44.2584 -0.000305176 43.852 0.080549 43.4728 0.23764C43.0936 0.39473 42.7491 0.62498 42.4589 0.915238L37.9394 5.43965C37.5605 5.81747 37.2753 6.27864 37.1064 6.78633L35.9189 10.3518L28.4716 17.799C27.2841 16.9436 25.9814 16.2619 24.5556 15.9299C21.289 15.1701 18.0126 15.8439 15.7783 18.0783C14.8668 18.9935 14.1888 20.1146 13.8017 21.3469C13.2158 23.1594 11.5351 24.5393 9.68549 24.7121C7.37104 24.9338 5.21967 25.8303 3.57123 27.4895C-0.8858 31.9338 -0.0840416 39.9416 5.33393 45.3566C10.7519 50.7717 18.7538 51.5627 23.2031 47.1213C24.8632 45.4729 25.7578 43.3225 25.9814 40.9973C26.1533 39.1564 27.5331 37.4689 29.3437 36.882C30.5762 36.4942 31.6975 35.816 32.6132 34.9045C34.8466 32.6701 35.5175 29.4006 34.7617 26.1398C34.4306 24.7102 33.749 23.4055 32.8906 22.2141L40.3359 14.7688L43.8984 13.5813C44.4061 13.4124 44.8672 13.1271 45.2451 12.7482L49.7695 8.22481C50.3549 7.63928 50.684 6.84538 50.6845 6.01741C50.6851 5.18944 50.357 4.39509 49.7724 3.80879ZM20.9999 34.3752C20.0728 34.3752 19.1666 34.1003 18.3957 33.5852C17.6249 33.0701 17.024 32.3381 16.6693 31.4815C16.3145 30.625 16.2216 29.6825 16.4025 28.7732C16.5834 27.8639 17.0298 27.0287 17.6854 26.3731C18.3409 25.7176 19.1762 25.2711 20.0855 25.0903C20.9947 24.9094 21.9372 25.0022 22.7938 25.357C23.6503 25.7118 24.3824 26.3126 24.8975 27.0835C25.4125 27.8543 25.6874 28.7606 25.6874 29.6877C25.6874 30.9309 25.1936 32.1232 24.3145 33.0023C23.4354 33.8813 22.2431 34.3752 20.9999 34.3752Z" fill="white"/>
</g>
<defs>
<clipPath id="clip0">
<rect width="50" height="50" fill="white" transform="translate(0.6875)"/>
</clipPath>
</defs>
</svg>
