<svg width="51" height="50" viewBox="0 0 51 50" fill="none" xmlns="http://www.w3.org/2000/svg">
<g clip-path="url(#clip0)">
<path d="M49.7725 3.80885L46.8789 0.915299C46.5888 0.625041 46.2442 0.394791 45.865 0.237701C45.4858 0.08061 45.0794 -0.000244141 44.669 -0.000244141C44.2585 -0.000244141 43.8521 0.08061 43.4729 0.237701C43.0937 0.394791 42.7492 0.625041 42.459 0.915299L37.9395 5.43971C37.5606 5.81753 37.2754 6.2787 37.1065 6.78639L35.919 10.3519L28.4717 17.7991C27.2842 16.9437 25.9815 16.262 24.5557 15.93C21.2891 15.1702 18.0127 15.844 15.7784 18.0784C14.8669 18.9936 14.1889 20.1147 13.8018 21.347C13.2159 23.1595 11.5352 24.5394 9.68555 24.7122C7.3711 24.9339 5.21973 25.8304 3.57129 27.4896C-0.885739 31.9339 -0.0839801 39.9417 5.33399 45.3567C10.752 50.7718 18.7539 51.5628 23.2032 47.1214C24.8633 45.473 25.7579 43.3226 25.9815 40.9974C26.1534 39.1565 27.5332 37.469 29.3438 36.8821C30.5763 36.4943 31.6976 35.8161 32.6133 34.9046C34.8467 32.6702 35.5176 29.4007 34.7618 26.1399C34.4307 24.7103 33.7491 23.4056 32.8907 22.2142L40.336 14.7689L43.8985 13.5814C44.4062 13.4125 44.8673 13.1272 45.2452 12.7483L49.7696 8.22487C50.355 7.63934 50.6841 6.84544 50.6846 6.01747C50.6852 5.1895 50.3571 4.39515 49.7725 3.80885ZM21 34.3753C20.0729 34.3753 19.1667 34.1004 18.3958 33.5853C17.625 33.0702 17.0241 32.3382 16.6694 31.4816C16.3146 30.6251 16.2217 29.6826 16.4026 28.7733C16.5835 27.864 17.0299 27.0288 17.6855 26.3732C18.341 25.7177 19.1763 25.2712 20.0856 25.0904C20.9948 24.9095 21.9373 25.0023 22.7939 25.3571C23.6504 25.7119 24.3825 26.3127 24.8976 27.0836C25.4126 27.8544 25.6875 28.7607 25.6875 29.6878C25.6875 30.931 25.1937 32.1233 24.3146 33.0024C23.4355 33.8814 22.2432 34.3753 21 34.3753Z" fill="white"/>
</g>
<defs>
<clipPath id="clip0">
<rect width="51" height="50" fill="white"/>
</clipPath>
</defs>
</svg>
