<svg width="45" height="50" viewBox="0 0 45 50" fill="none" xmlns="http://www.w3.org/2000/svg">
<g clip-path="url(#clip0)">
<path d="M43.7213 17.7841L44.4188 13.8778C44.5471 13.1596 43.9948 12.5 43.2652 12.5H35.9596L37.3876 4.50283C37.5158 3.78457 36.9636 3.125 36.234 3.125H32.266C31.9909 3.125 31.7246 3.22178 31.5137 3.39837C31.3028 3.57496 31.1607 3.82012 31.1124 4.09092L29.6107 12.5H19.9784L21.4064 4.50283C21.5347 3.78457 20.9825 3.125 20.2528 3.125H16.2848C16.0098 3.125 15.7435 3.22178 15.5326 3.39837C15.3216 3.57496 15.1796 3.82012 15.1312 4.09092L13.6296 12.5H5.90536C5.63028 12.5 5.36397 12.5968 5.15306 12.7734C4.94215 12.95 4.80009 13.1951 4.75174 13.4659L4.05419 17.3722C3.92596 18.0904 4.47821 18.75 5.2078 18.75H12.5135L10.2813 31.25H2.55712C2.28204 31.25 2.01573 31.3468 1.80482 31.5234C1.59391 31.7 1.45185 31.9451 1.4035 32.2159L0.705943 36.1222C0.577721 36.8404 1.12997 37.5 1.85956 37.5H9.16522L7.73719 45.4972C7.60897 46.2154 8.16122 46.875 8.89081 46.875H12.8588C13.1339 46.875 13.4002 46.7782 13.6111 46.6016C13.822 46.425 13.964 46.1799 14.0124 45.9091L15.5141 37.5H25.1464L23.7183 45.4972C23.59 46.2154 24.1423 46.875 24.872 46.875H28.8399C29.115 46.875 29.3813 46.7782 29.5922 46.6016C29.8031 46.425 29.9452 46.1799 29.9935 45.9091L31.4952 37.5H39.2194C39.4945 37.5 39.7608 37.4032 39.9717 37.2266C40.1826 37.05 40.3247 36.8049 40.373 36.5341L41.0706 32.6278C41.1988 31.9096 40.6466 31.25 39.917 31.25H32.6113L34.8434 18.75H42.5677C42.8427 18.75 43.109 18.6532 43.32 18.4766C43.5309 18.3 43.6729 18.0549 43.7213 17.7841ZM26.2625 31.25H16.6303L18.8624 18.75H28.4946L26.2625 31.25Z" fill="white"/>
</g>
<defs>
<clipPath id="clip0">
<rect width="43.75" height="50" fill="white" transform="translate(0.6875)"/>
</clipPath>
</defs>
</svg>
