<svg width="51" height="50" viewBox="0 0 51 50" fill="none" xmlns="http://www.w3.org/2000/svg">
<path d="M25.4375 3.125C11.6211 3.125 0.4375 14.3063 0.4375 28.125V32.8125C0.437493 33.3929 0.599096 33.9617 0.904201 34.4554C1.20931 34.9491 1.64586 35.3481 2.16494 35.6076L3.56953 36.3099C3.76592 42.178 8.58408 46.875 14.5 46.875H16.8438C18.1382 46.875 19.1875 45.8257 19.1875 44.5312V27.3438C19.1875 26.0493 18.1382 25 16.8438 25H14.5C11.4393 25 8.67275 26.2577 6.6875 28.2839V28.125C6.6875 17.7862 15.0987 9.375 25.4375 9.375C35.7763 9.375 44.1875 17.7862 44.1875 28.125V28.2839C42.2022 26.2577 39.4357 25 36.375 25H34.0312C32.7368 25 31.6875 26.0493 31.6875 27.3438V44.5312C31.6875 45.8257 32.7368 46.875 34.0312 46.875H36.375C42.2909 46.875 47.1091 42.1779 47.3055 36.3099L48.71 35.6076C49.2291 35.3481 49.6656 34.9491 49.9708 34.4554C50.2759 33.9618 50.4375 33.3929 50.4375 32.8125V28.125C50.4375 14.3087 39.2562 3.125 25.4375 3.125Z" fill="white"/>
</svg>
