<svg width="38" height="50" viewBox="0 0 38 50" fill="none" xmlns="http://www.w3.org/2000/svg">
<g clip-path="url(#clip0)">
<path d="M8.34245 46.1162C7.92448 47.792 8.94206 49.4883 10.6159 49.9063C10.8708 49.9707 11.1257 49.999 11.3776 49.999C12.777 49.999 14.0505 49.0518 14.4069 47.6328L16.8718 37.7725L11.7175 32.6182L8.34245 46.1162ZM9.79655 26.9639L13.8161 11.4258C14.03 10.6035 13.5095 9.77051 12.652 9.56445C8.36687 8.53711 4.02409 11.0361 2.95281 15.1475L0.48503 24.7305C0.271163 25.5527 0.791671 26.3857 1.64909 26.5918L7.85613 28.0811C8.71452 28.2861 9.58269 27.7861 9.79655 26.9639ZM36.3747 15.625H34.8122C33.9489 15.625 33.2497 16.3242 33.2497 17.1875V18.75H29.8561L25.2878 14.1816C24.2048 13.0967 22.7624 12.5 21.2292 12.5C18.5905 12.5 16.3005 14.2871 15.6599 16.8477L13.031 27.3672C12.9002 27.8908 12.9072 28.4393 13.0513 28.9593C13.1954 29.4794 13.4717 29.9533 13.8532 30.335L22.3122 38.7939V46.875C22.3122 48.6006 23.7116 50 25.4372 50C27.1628 50 28.5622 48.6006 28.5622 46.875V38.7939C28.5622 37.125 27.9118 35.5557 26.7311 34.375L22.1589 29.8027C22.1735 29.7539 22.2067 29.7158 22.2194 29.665L24.1618 21.8945L26.3522 24.085C26.9382 24.6709 27.7331 25.001 28.5612 25.001H33.2487V48.4385C33.2487 49.3018 33.9479 50.001 34.8112 50.001H36.3737C37.237 50.001 37.9362 49.3018 37.9362 48.4385V17.1875C37.9372 16.3242 37.238 15.625 36.3747 15.625ZM23.8747 9.375C26.4636 9.375 28.5622 7.27637 28.5622 4.6875C28.5622 2.09863 26.4636 0 23.8747 0C21.2858 0 19.1872 2.09863 19.1872 4.6875C19.1872 7.27637 21.2858 9.375 23.8747 9.375Z" fill="white"/>
</g>
<defs>
<clipPath id="clip0">
<rect width="38" height="50" fill="white"/>
</clipPath>
</defs>
</svg>
