<svg width="38" height="50" viewBox="0 0 38 50" fill="none" xmlns="http://www.w3.org/2000/svg">
<g clip-path="url(#clip0)">
<path d="M8.34257 46.1162C7.9246 47.792 8.94218 49.4883 10.616 49.9062C10.8709 49.9707 11.1258 49.999 11.3777 49.999C12.7771 49.999 14.0506 49.0518 14.407 47.6328L16.8719 37.7725L11.7176 32.6182L8.34257 46.1162ZM9.79667 26.9639L13.8162 11.4258C14.0301 10.6035 13.5096 9.77051 12.6521 9.56445C8.36699 8.53711 4.02421 11.0361 2.95293 15.1475L0.485152 24.7305C0.271285 25.5527 0.791793 26.3857 1.64921 26.5918L7.85625 28.0811C8.71464 28.2861 9.58281 27.7861 9.79667 26.9639ZM36.3748 15.625H34.8123C33.949 15.625 33.2498 16.3242 33.2498 17.1875V18.75H29.8562L25.2879 14.1816C24.2049 13.0967 22.7625 12.5 21.2293 12.5C18.5906 12.5 16.3006 14.2871 15.66 16.8477L13.0311 27.3672C12.9003 27.8908 12.9073 28.4393 13.0514 28.9593C13.1955 29.4794 13.4718 29.9533 13.8533 30.335L22.3123 38.7939V46.875C22.3123 48.6006 23.7117 50 25.4373 50C27.1629 50 28.5623 48.6006 28.5623 46.875V38.7939C28.5623 37.125 27.9119 35.5557 26.7312 34.375L22.159 29.8027C22.1736 29.7539 22.2068 29.7158 22.2195 29.665L24.1619 21.8945L26.3523 24.085C26.9383 24.6709 27.7332 25.001 28.5613 25.001H33.2488V48.4385C33.2488 49.3018 33.948 50.001 34.8113 50.001H36.3738C37.2371 50.001 37.9363 49.3018 37.9363 48.4385V17.1875C37.9373 16.3242 37.2381 15.625 36.3748 15.625ZM23.8748 9.375C26.4637 9.375 28.5623 7.27637 28.5623 4.6875C28.5623 2.09863 26.4637 0 23.8748 0C21.2859 0 19.1873 2.09863 19.1873 4.6875C19.1873 7.27637 21.2859 9.375 23.8748 9.375Z" fill="white"/>
</g>
<defs>
<clipPath id="clip0">
<rect width="37.5" height="50" fill="white" transform="translate(0.4375)"/>
</clipPath>
</defs>
</svg>
