<svg width="58" height="50" viewBox="0 0 58 50" fill="none" xmlns="http://www.w3.org/2000/svg">
<g clip-path="url(#clip0)">
<path d="M28.3174 14.4787L10.3125 29.3078V45.3127C10.3125 45.7271 10.4771 46.1245 10.7701 46.4175C11.0632 46.7106 11.4606 46.8752 11.875 46.8752L22.8183 46.8469C23.2314 46.8448 23.6268 46.6793 23.9181 46.3865C24.2095 46.0937 24.373 45.6974 24.373 45.2844V35.9377C24.373 35.5233 24.5377 35.1259 24.8307 34.8328C25.1237 34.5398 25.5211 34.3752 25.9355 34.3752H32.1855C32.5999 34.3752 32.9974 34.5398 33.2904 34.8328C33.5834 35.1259 33.748 35.5233 33.748 35.9377V45.2775C33.7474 45.4831 33.7873 45.6868 33.8656 45.877C33.9438 46.0671 34.0588 46.2399 34.2039 46.3855C34.3491 46.5312 34.5216 46.6467 34.7115 46.7255C34.9013 46.8043 35.1049 46.8449 35.3105 46.8449L46.25 46.8752C46.6644 46.8752 47.0618 46.7106 47.3548 46.4175C47.6479 46.1245 47.8125 45.7271 47.8125 45.3127V29.2971L29.8115 14.4787C29.5999 14.3081 29.3362 14.2151 29.0644 14.2151C28.7926 14.2151 28.529 14.3081 28.3174 14.4787ZM56.7578 24.5578L48.5937 17.8283V4.30194C48.5937 3.99114 48.4703 3.69307 48.2505 3.4733C48.0307 3.25353 47.7326 3.13007 47.4218 3.13007H41.9531C41.6423 3.13007 41.3442 3.25353 41.1245 3.4733C40.9047 3.69307 40.7812 3.99114 40.7812 4.30194V11.3928L32.0381 4.1994C31.199 3.50895 30.1462 3.13145 29.0596 3.13145C27.9729 3.13145 26.9201 3.50895 26.081 4.1994L1.36133 24.5578C1.24266 24.6559 1.14449 24.7764 1.07241 24.9124C1.00033 25.0485 0.955762 25.1974 0.941252 25.3506C0.926742 25.5039 0.942573 25.6585 0.987841 25.8057C1.03311 25.9528 1.10693 26.0896 1.20508 26.2082L3.69531 29.2355C3.79319 29.3546 3.91359 29.4531 4.0496 29.5255C4.18562 29.598 4.33459 29.6429 4.48798 29.6576C4.64137 29.6724 4.79616 29.6568 4.94351 29.6117C5.09086 29.5666 5.22786 29.4928 5.34668 29.3947L28.3174 10.4748C28.529 10.3042 28.7926 10.2112 29.0644 10.2112C29.3362 10.2112 29.5999 10.3042 29.8115 10.4748L52.7832 29.3947C52.9018 29.4929 53.0386 29.5667 53.1857 29.6119C53.3329 29.6572 53.4875 29.6731 53.6407 29.6585C53.794 29.644 53.9429 29.5995 54.0789 29.5274C54.215 29.4553 54.3355 29.3571 54.4336 29.2385L56.9238 26.2111C57.0218 26.0918 57.0953 25.9543 57.1401 25.8066C57.1848 25.6588 57.1999 25.5036 57.1845 25.3499C57.169 25.1963 57.1234 25.0472 57.0502 24.9113C56.977 24.7753 56.8776 24.6552 56.7578 24.5578Z" fill="white"/>
</g>
<defs>
<clipPath id="clip0">
<rect width="56.25" height="50" fill="white" transform="translate(0.9375)"/>
</clipPath>
</defs>
</svg>
