<svg width="50" height="50" viewBox="0 0 50 50" fill="none" xmlns="http://www.w3.org/2000/svg">
<path d="M45.3125 43.75H4.6875C2.09863 43.75 0 41.6514 0 39.0625V10.9375C0 8.34863 2.09863 6.25 4.6875 6.25H45.3125C47.9014 6.25 50 8.34863 50 10.9375V39.0625C50 41.6514 47.9014 43.75 45.3125 43.75ZM10.9375 11.7188C7.91719 11.7188 5.46875 14.1672 5.46875 17.1875C5.46875 20.2078 7.91719 22.6562 10.9375 22.6562C13.9578 22.6562 16.4062 20.2078 16.4062 17.1875C16.4062 14.1672 13.9578 11.7188 10.9375 11.7188ZM6.25 37.5H43.75V26.5625L35.2036 18.0161C34.746 17.5585 34.004 17.5585 33.5463 18.0161L20.3125 31.25L14.8911 25.8286C14.4335 25.371 13.6915 25.371 13.2338 25.8286L6.25 32.8125V37.5Z" fill="white"/>
</svg>
