<svg width="57" height="50" viewBox="0 0 57 50" fill="none" xmlns="http://www.w3.org/2000/svg">
<g clip-path="url(#clip0)">
<path d="M55.7127 23.8191L45.3916 8.3373C44.9635 7.69523 44.3835 7.16878 43.7032 6.80465C43.0228 6.44053 42.263 6.25001 41.4913 6.25H15.2587C14.487 6.25 13.7273 6.44052 13.0469 6.80464C12.3665 7.16877 11.7866 7.69523 11.3585 8.3373L1.0373 23.8191C0.523934 24.5891 0.249989 25.4938 0.25 26.4192L0.25 39.0625C0.25 41.6514 2.34863 43.75 4.9375 43.75H51.8125C54.4014 43.75 56.5 41.6514 56.5 39.0625V26.4192C56.5 25.4938 56.2261 24.5891 55.7127 23.8191ZM16.0949 12.5H40.6552L48.9885 25H36.9688L33.8438 31.25H22.9062L19.7812 25H7.76152L16.0949 12.5Z" fill="white"/>
</g>
<defs>
<clipPath id="clip0">
<rect width="56.25" height="50" fill="white" transform="translate(0.25)"/>
</clipPath>
</defs>
</svg>
