<svg width="52" height="50" viewBox="0 0 52 50" fill="none" xmlns="http://www.w3.org/2000/svg">
<path d="M42.1453 2.13675H10.5213C8.48122 2.13675 6.52465 2.94719 5.08207 4.38977C3.63948 5.83236 2.82904 7.78893 2.82904 9.82906V40.1709C2.82904 42.2111 3.63948 44.1676 5.08207 45.6102C6.52465 47.0528 8.48122 47.8632 10.5213 47.8632H42.1453C43.1554 47.8632 44.1557 47.6643 45.089 47.2777C46.0223 46.8911 46.8703 46.3245 47.5846 45.6102C48.2989 44.8959 48.8655 44.0479 49.252 43.1147C49.6386 42.1814 49.8376 41.1811 49.8376 40.1709V9.82906C49.8376 8.81889 49.6386 7.81861 49.252 6.88534C48.8655 5.95206 48.2989 5.10407 47.5846 4.38977C46.8703 3.67548 46.0223 3.10887 45.089 2.72229C44.1557 2.33572 43.1554 2.13675 42.1453 2.13675ZM20.1581 35.3526C20.1581 35.5716 20.1154 35.6357 19.8696 35.6357H16.4669C16.2478 35.6357 16.1784 35.5288 16.1784 35.3526V11.6186C16.1784 11.3996 16.2906 11.3355 16.4669 11.3355H19.891C20.0673 11.3355 20.1581 11.3996 20.1581 11.5972V35.3526ZM36.4829 35.1763C36.491 35.2366 36.4778 35.2979 36.4457 35.3495C36.4135 35.4012 36.3643 35.4401 36.3066 35.4594C35.2384 35.8075 34.1173 35.9648 32.9946 35.9241C27.8237 35.9241 24.7949 32.1047 24.7949 26.6667C24.7949 21.3248 28.2243 17.3451 33.4808 17.3451C34.4437 17.2868 35.4093 17.3989 36.3333 17.6763C36.3978 17.7127 36.4493 17.7683 36.4809 17.8352C36.5125 17.9022 36.5225 17.9773 36.5096 18.0502L36.4615 21.0791C36.4615 21.2553 36.3547 21.2981 36.1998 21.2553C35.39 20.9422 34.5246 20.7986 33.657 20.8333C30.7831 20.8333 28.8173 22.8472 28.8173 26.4904C28.8173 30.8013 31.2959 32.281 33.7478 32.281C34.5853 32.3153 35.4222 32.2032 36.2211 31.9498C36.3974 31.907 36.4882 31.9925 36.4882 32.1261L36.4829 35.1763Z" fill="white"/>
</svg>
