<svg width="52" height="50" viewBox="0 0 52 50" fill="none" xmlns="http://www.w3.org/2000/svg">
<path d="M26.6666 26.6667C26.6666 30.7051 28.6324 32.3077 31.1111 32.3077C31.635 32.3138 32.1559 32.227 32.6495 32.0513V21.1966C32.231 21.0863 31.8003 21.0288 31.3675 21.0256C28.6324 21.0256 26.6666 23.1624 26.6666 26.6667Z" fill="white"/>
<path d="M41.7094 2.13675H10.0854C8.04531 2.13675 6.08874 2.94719 4.64615 4.38977C3.20356 5.83236 2.39313 7.78893 2.39313 9.82906V40.1709C2.39313 42.2111 3.20356 44.1676 4.64615 45.6102C6.08874 47.0528 8.04531 47.8632 10.0854 47.8632H41.7094C42.7195 47.8632 43.7198 47.6643 44.6531 47.2777C45.5864 46.8911 46.4344 46.3245 47.1487 45.6102C47.8629 44.8959 48.4296 44.0479 48.8161 43.1147C49.2027 42.1814 49.4017 41.1811 49.4017 40.1709V9.82906C49.4017 8.81889 49.2027 7.81861 48.8161 6.88534C48.4296 5.95206 47.8629 5.10407 47.1487 4.38977C46.4344 3.67548 45.5864 3.10887 44.6531 2.72229C43.7198 2.33572 42.7195 2.13675 41.7094 2.13675ZM18.8889 12.1367V35.0427C18.8889 35.2137 18.8889 35.2991 18.6324 35.2991H15.3846C15.3617 35.3044 15.338 35.3044 15.3151 35.2991C15.286 35.2946 15.2581 35.2843 15.2329 35.269C15.2078 35.2536 15.1859 35.2335 15.1685 35.2097C15.1512 35.1859 15.1387 35.1589 15.1317 35.1302C15.1248 35.1016 15.1236 35.0718 15.1282 35.0427V12.1367C15.1229 12.1139 15.1229 12.0902 15.1282 12.0673C15.1327 12.0382 15.143 12.0103 15.1583 11.9851C15.1737 11.96 15.1938 11.9381 15.2176 11.9207C15.2415 11.9033 15.2685 11.8908 15.2971 11.8839C15.3257 11.877 15.3555 11.8758 15.3846 11.8803H18.7179C18.953 11.8803 18.953 11.9658 18.8889 12.1367ZM36.5812 34.359C34.8137 35.1863 32.8913 35.6305 30.9401 35.6624C26.2393 35.6624 22.8205 32.7564 22.8205 26.7735C22.8205 21.7094 26.2393 17.6923 31.6239 17.6923H32.735V12.0513C32.7376 12.0068 32.7564 11.9648 32.7879 11.9332C32.8194 11.9017 32.8614 11.8829 32.9059 11.8803H36.4102C36.5812 11.8803 36.5812 11.9658 36.5812 12.0513V32.0513C36.5602 32.7393 36.6176 33.4275 36.7521 34.1026C36.7521 34.2735 36.7521 34.2735 36.5812 34.359Z" fill="white"/>
</svg>
