<svg width="50" height="50" viewBox="0 0 50 50" fill="none" xmlns="http://www.w3.org/2000/svg">
<path d="M25 0.78125C11.6253 0.78125 0.78125 11.6292 0.78125 25C0.78125 38.3786 11.6253 49.2188 25 49.2188C38.3747 49.2188 49.2188 38.3786 49.2188 25C49.2188 11.6292 38.3747 0.78125 25 0.78125ZM25 11.5234C27.2652 11.5234 29.1016 13.3598 29.1016 15.625C29.1016 17.8902 27.2652 19.7266 25 19.7266C22.7348 19.7266 20.8984 17.8902 20.8984 15.625C20.8984 13.3598 22.7348 11.5234 25 11.5234ZM30.4688 36.3281C30.4688 36.9753 29.944 37.5 29.2969 37.5H20.7031C20.056 37.5 19.5312 36.9753 19.5312 36.3281V33.9844C19.5312 33.3372 20.056 32.8125 20.7031 32.8125H21.875V26.5625H20.7031C20.056 26.5625 19.5312 26.0378 19.5312 25.3906V23.0469C19.5312 22.3997 20.056 21.875 20.7031 21.875H26.9531C27.6003 21.875 28.125 22.3997 28.125 23.0469V32.8125H29.2969C29.944 32.8125 30.4688 33.3372 30.4688 33.9844V36.3281Z" fill="white"/>
</svg>
