<svg width="45" height="50" viewBox="0 0 45 50" fill="none" xmlns="http://www.w3.org/2000/svg">
<path d="M22.3847 13.7696C16.1738 13.7696 11.164 18.7793 11.164 24.9903C11.164 31.2012 16.1738 36.211 22.3847 36.211C28.5957 36.211 33.6054 31.2012 33.6054 24.9903C33.6054 18.7793 28.5957 13.7696 22.3847 13.7696ZM22.3847 32.2852C18.371 32.2852 15.0898 29.0137 15.0898 24.9903C15.0898 20.9668 18.3613 17.6953 22.3847 17.6953C26.4082 17.6953 29.6796 20.9668 29.6796 24.9903C29.6796 29.0137 26.3984 32.2852 22.3847 32.2852ZM36.6816 13.3106C36.6816 14.7657 35.5097 15.9278 34.0644 15.9278C32.6093 15.9278 31.4472 14.7559 31.4472 13.3106C31.4472 11.8653 32.6191 10.6934 34.0644 10.6934C35.5097 10.6934 36.6816 11.8653 36.6816 13.3106ZM44.1132 15.9668C43.9472 12.461 43.1464 9.35547 40.5781 6.79688C38.0195 4.23828 34.914 3.4375 31.4082 3.26172C27.7949 3.05664 16.9648 3.05664 13.3515 3.26172C9.85547 3.42773 6.75 4.22852 4.18165 6.78711C1.61329 9.3457 0.822266 12.4512 0.646485 15.9571C0.441406 19.5703 0.441406 30.4004 0.646485 34.0137C0.8125 37.5196 1.61329 40.625 4.18165 43.1836C6.75 45.7422 9.84571 46.543 13.3515 46.7188C16.9648 46.9239 27.7949 46.9239 31.4082 46.7188C34.914 46.5528 38.0195 45.752 40.5781 43.1836C43.1367 40.625 43.9375 37.5196 44.1132 34.0137C44.3183 30.4004 44.3183 19.5801 44.1132 15.9668ZM39.4453 37.8907C38.6836 39.8047 37.2089 41.2793 35.2851 42.0508C32.4043 43.1934 25.5683 42.9297 22.3847 42.9297C19.2011 42.9297 12.3554 43.1836 9.48438 42.0508C7.57032 41.2891 6.09571 39.8145 5.32422 37.8907C4.18165 35.0098 4.44532 28.1739 4.44532 24.9903C4.44532 21.8067 4.19141 14.961 5.32422 12.0899C6.08594 10.1758 7.56055 8.70117 9.48438 7.92969C12.3652 6.78711 19.2011 7.05078 22.3847 7.05078C25.5683 7.05078 32.414 6.79688 35.2851 7.92969C37.1992 8.69141 38.6738 10.166 39.4453 12.0899C40.5878 14.9707 40.3242 21.8067 40.3242 24.9903C40.3242 28.1739 40.5878 35.0196 39.4453 37.8907Z" fill="white"/>
</svg>
