<svg width="50" height="50" viewBox="0 0 50 50" fill="none" xmlns="http://www.w3.org/2000/svg">
<path d="M0 0V50H50V0H0ZM27.169 38.9269C27.169 43.8356 24.3151 46.0046 20.2055 46.0046C16.4384 46.0046 14.2694 44.0639 13.1279 41.6667L16.895 39.3836C17.5799 40.6393 18.2648 41.7808 19.863 41.7808C21.347 41.7808 22.3744 41.21 22.3744 38.8128V22.8311H27.0548V38.9269H27.169ZM38.242 46.0046C33.9041 46.0046 31.0502 43.9498 29.6804 41.21L33.4475 39.0411C34.4749 40.6393 35.7306 41.895 38.1279 41.895C40.0685 41.895 41.3242 40.9817 41.3242 39.6119C41.3242 38.0137 40.0685 37.4429 37.8995 36.5297L36.758 36.0731C33.3333 34.589 31.1644 32.7626 31.1644 28.9954C31.1644 25.4566 33.9041 22.8311 38.0137 22.8311C40.9817 22.8311 43.1507 23.8584 44.6347 26.5982L40.9817 28.9954C40.1827 27.5114 39.2694 26.9406 38.0137 26.9406C36.6438 26.9406 35.7306 27.8539 35.7306 28.9954C35.7306 30.3653 36.6438 30.9361 38.5845 31.8493L39.726 32.3059C43.7215 34.0183 46.0046 35.7306 46.0046 39.726C46.0046 43.7215 42.6941 46.0046 38.242 46.0046Z" fill="white"/>
</svg>
