<svg width="58" height="50" viewBox="0 0 58 50" fill="none" xmlns="http://www.w3.org/2000/svg">
<path d="M50.8041 23.1897C50.3424 22.9337 50.2509 22.6283 50.1809 22.1373C49.9512 20.5272 49.8353 18.8542 49.2925 17.3429C45.7872 7.58146 34.2545 3.34035 25.1862 8.39308C22.5133 9.88234 20.4039 11.9447 18.7904 14.6336C18.4795 14.4863 18.2574 14.369 18.0263 14.2736C15.0867 13.0607 12.2598 13.2853 9.69323 15.1689C7.19997 16.9986 6.13639 19.5193 6.50221 22.6306C6.53688 22.926 6.31012 23.3748 6.06139 23.5627C2.18327 26.4916 0.589615 31.1862 1.9694 35.7321C3.32008 40.1822 7.586 43.5247 12.2827 43.6846C15.2408 43.7853 18.2043 43.7379 21.1654 43.7372C29.3725 43.7352 37.5804 43.7891 45.7865 43.6903C50.9295 43.6284 55.172 40.0895 56.3541 35.1656C57.481 30.4709 55.2658 25.6637 50.8041 23.1897ZM52.8653 38.51C51.085 40.7006 48.7302 41.9526 45.9044 41.9914C40.3503 42.0677 34.7943 42.0139 29.2391 42.0139C29.2391 42.0822 13.3184 42.0294 13.2501 42.0289C8.96676 41.9965 5.75602 40.0986 3.95563 36.17C2.10973 32.1422 3.56462 27.2982 7.29411 24.8316C8.19079 24.2385 8.5153 23.7021 8.28005 22.5722C7.74391 19.9979 8.71491 17.889 10.8601 16.4217C13.1049 14.8862 15.4912 14.8449 17.8947 16.1206C18.8975 16.6528 19.3212 17.2499 20.0625 15.8738C21.4513 13.2958 23.4372 11.3107 25.9874 9.8881C35.5049 4.57892 48.2891 10.6272 48.4717 22.8468C48.4837 23.6427 48.7073 24.0605 49.4335 24.3989C55.0546 27.019 56.7046 33.7859 52.8653 38.51ZM44.2922 30.6487C43.7211 33.6914 40.9111 36.0292 37.7818 36.0291C36.1262 36.029 34.6511 35.39 33.4772 34.3001C30.7724 31.7891 26.5299 26.9778 24.1084 25.1803C22.1498 23.7264 20.0078 23.9759 18.2224 25.5496C13.34 29.8534 19.7712 37.4417 24.7715 33.0875C25.2157 32.7008 25.5372 32.1556 26.0161 31.8332C26.8153 31.2952 28.044 31.7469 27.302 32.8705C25.6069 35.4373 22.4846 36.6007 19.6006 35.7319C16.7786 34.8819 14.831 32.2194 14.8519 28.8785C14.9715 26.6827 16.0593 24.6735 18.3103 23.4132C20.5149 22.179 22.8385 22.1294 24.8524 23.6548C29.8125 27.4121 32.2331 31.6377 35.3305 33.542C37.7288 35.0165 40.6288 34.261 42.0515 31.8324C44.867 27.0269 38.6734 21.577 34.3496 25.6352C33.96 26.0008 33.6741 26.5074 33.2353 26.7797C32.1635 27.4448 31.5426 26.378 31.9844 25.7687C34.0062 22.9802 36.9126 21.8194 40.1164 23.0134C43.1856 24.1573 44.9121 27.346 44.2922 30.6487Z" fill="white"/>
</svg>
