<svg width="50" height="50" viewBox="0 0 50 50" fill="none" xmlns="http://www.w3.org/2000/svg">
<g clip-path="url(#clip0)">
<path d="M49.3935 8.58003L47.7167 10.6136C45.4513 13.3606 44.0599 16.6428 43.6497 20.1569C44.3275 20.7991 44.7913 21.691 44.8805 22.7078C44.9518 23.564 44.8805 25.5262 43.4356 28.8976C41.6696 32.9825 36.2826 35.5868 35.7831 35.8544C35.355 36.122 34.8733 36.2468 34.3739 36.2468C33.8209 36.2468 33.2679 36.0684 32.7863 35.7295C29.7717 33.4998 26.9711 30.9489 24.5094 28.1127L23.2608 26.6856C23.1716 26.5964 23.1002 26.4894 23.0289 26.3824L21.7802 24.9553C20.4602 23.457 19.051 22.0477 17.5526 20.7277L17.5348 20.7456C16.5002 21.3342 12.9326 24.5986 13.2715 27.631C16.5537 32.1797 18.0878 37.6917 17.624 43.3464C17.4991 44.8269 16.2148 45.915 14.7342 45.7902C13.2537 45.6653 12.1655 44.381 12.2904 42.9004C12.5401 39.9215 12.0585 36.9782 10.9169 34.3025C10.025 37.4063 8.50874 40.2961 6.42169 42.8112L4.74491 44.8447C4.20977 45.4869 3.46057 45.808 2.6757 45.808C2.06921 45.808 1.46271 45.6118 0.963249 45.2015C-0.178385 44.2561 -0.338927 42.5793 0.606489 41.4377L2.28326 39.4041C4.6914 36.4966 6.11844 32.9825 6.40385 29.2186V29.1651C5.85087 28.5408 5.47627 27.7559 5.40492 26.864C5.33357 26.0078 5.42276 24.0456 6.86764 20.6742C8.4909 16.9282 13.3428 14.306 14.538 13.6817C14.6093 13.646 14.6807 13.5925 14.7699 13.5568C15.6261 13.1466 16.6786 13.2179 17.4991 13.8244C20.5137 16.0542 23.3143 18.605 25.7759 21.4413L27.0246 22.8683C27.1138 22.9575 27.1852 23.0645 27.2565 23.1715L28.5052 24.5986C29.8252 26.097 31.2344 27.5062 32.7149 28.8262C33.6782 28.1662 35.3728 26.9889 36.0507 25.7045C37.0853 23.7602 36.9069 22.7791 36.889 22.6186C33.482 18.0164 31.8766 12.4152 32.3582 6.67137C32.483 5.19081 33.7674 4.10269 35.2479 4.22755C36.7285 4.35242 37.8166 5.63676 37.6918 7.11732C37.442 10.0963 37.9236 13.0395 39.0653 15.7152C39.9572 12.6114 41.4734 9.72167 43.5605 7.20651L45.2372 5.17297C45.7724 4.5308 46.5216 4.20972 47.3065 4.20972C47.9129 4.20972 48.5194 4.40594 49.0189 4.81621C50.1784 5.76163 50.3389 7.45624 49.3935 8.58003ZM23.3321 13.8601C25.5619 13.4141 27.0068 11.2379 26.5608 9.00815C26.1149 6.77839 23.9386 5.33351 21.7089 5.77946C19.4791 6.22541 18.0342 8.40165 18.4802 10.6314C18.9261 12.8612 21.1024 14.306 23.3321 13.8601ZM26.9711 35.6938C24.7413 36.1398 23.2965 38.316 23.7424 40.5458C24.1884 42.7755 26.3646 44.2204 28.5944 43.7745C30.8241 43.3285 32.269 41.1523 31.823 38.9225C31.3771 36.6928 29.2009 35.2479 26.9711 35.6938Z" fill="white"/>
</g>
<defs>
<clipPath id="clip0">
<rect width="50" height="50" fill="white"/>
</clipPath>
</defs>
</svg>
