<svg width="50" height="50" viewBox="0 0 50 50" fill="none" xmlns="http://www.w3.org/2000/svg">
<g clip-path="url(#clip0)">
<path d="M50 17.1876C50 26.68 42.3049 34.375 32.8125 34.375C31.7168 34.375 30.6455 34.2713 29.6067 34.0753L27.2618 36.7134C27.0419 36.9608 26.7721 37.1588 26.4702 37.2943C26.1683 37.4299 25.841 37.5 25.5101 37.5H21.875V41.4062C21.875 42.7007 20.8257 43.75 19.5312 43.75H15.625V47.6562C15.625 48.9507 14.5757 50 13.2812 50H2.34375C1.04932 50 0 48.9507 0 47.6562V40.0333C0 39.4117 0.246973 38.8155 0.686426 38.376L16.4874 22.575C15.9285 20.8803 15.625 19.0694 15.625 17.1875C15.625 7.69512 23.32 9.76572e-05 32.8124 9.32868e-10C42.3328 -9.76553e-05 50 7.66709 50 17.1876ZM32.8125 12.5C32.8125 15.0889 34.9111 17.1875 37.5 17.1875C40.0889 17.1875 42.1875 15.0889 42.1875 12.5C42.1875 9.91113 40.0889 7.8125 37.5 7.8125C34.9111 7.8125 32.8125 9.91113 32.8125 12.5Z" fill="white"/>
</g>
<defs>
<clipPath id="clip0">
<rect width="50" height="50" fill="white"/>
</clipPath>
</defs>
</svg>
