<svg width="38" height="50" viewBox="0 0 38 50" fill="none" xmlns="http://www.w3.org/2000/svg">
<g clip-path="url(#clip0)">
<path d="M14.5723 11.1719C14.5723 5.68359 11.3984 3.125 7.4043 3.125C2.74609 3.125 0.1875 6.66016 0.1875 11.0742V38.7109C0.1875 43.3301 2.6582 46.8555 7.50195 46.8555C11.3887 46.8555 14.5723 44.3555 14.5723 38.7109V31.2402L25.5195 44.7461C27.7363 47.4023 32.5605 47.7441 35.5977 44.7461C38.2344 42.0508 38.2637 38.1641 36.3203 35.7422L27.4531 24.5312L34.7676 14.043C36.4668 11.6309 36.4766 7.88086 33.752 5.27344C30.793 2.44141 25.7051 2.1875 22.6582 6.52344L14.5723 18.0664V11.1719Z" fill="white"/>
</g>
<defs>
<clipPath id="clip0">
<rect width="37.5" height="50" fill="white" transform="translate(0.1875)"/>
</clipPath>
</defs>
</svg>
