<svg width="63" height="50" viewBox="0 0 63 50" fill="none" xmlns="http://www.w3.org/2000/svg">
<path d="M15.1035 23.0664C14.7617 21.8848 14.3418 19.8242 14.3418 19.8242H14.293C14.293 19.8242 13.873 21.8848 13.5312 23.0664L12.4473 26.7285H16.168L15.1035 23.0664ZM60.4062 9.375H33.0625V40.625H60.4062C61.7051 40.625 62.75 39.5801 62.75 38.2812V11.7188C62.75 10.4199 61.7051 9.375 60.4062 9.375ZM58.0625 21.0938C58.0625 21.7383 57.5352 22.2656 56.8906 22.2656H55.7773C55.1035 24.5703 53.6582 26.8945 51.6074 29.0918C52.4277 29.7168 53.2773 30.3125 54.1562 30.8496C54.6934 31.1816 54.8691 31.875 54.5566 32.4316L53.7852 33.7891C53.4531 34.3652 52.7207 34.5508 52.1543 34.209C50.9238 33.4473 49.7617 32.6367 48.6973 31.7773C47.6328 32.627 46.4805 33.4473 45.2402 34.209C44.6738 34.5508 43.9414 34.3652 43.6094 33.7891L42.8379 32.4316C42.5254 31.8848 42.7012 31.1816 43.248 30.8496C44.1562 30.293 45.0059 29.707 45.7969 29.0918C45.0254 28.2715 44.3418 27.4316 43.7461 26.582C43.3555 26.0254 43.5313 25.2539 44.1074 24.9121L44.7422 24.5312L45.4551 24.1113C45.9824 23.7988 46.666 23.9453 47.0176 24.4434C47.5059 25.127 48.0723 25.8105 48.7168 26.4844C50.0352 25.0977 51.041 23.6621 51.6465 22.2656H40.4844C39.8398 22.2656 39.3125 21.7383 39.3125 21.0938V19.5312C39.3125 18.8867 39.8398 18.3594 40.4844 18.3594H46.7344V16.7969C46.7344 16.1523 47.2617 15.625 47.9062 15.625H49.4688C50.1133 15.625 50.6406 16.1523 50.6406 16.7969V18.3594H56.8906C57.5352 18.3594 58.0625 18.8867 58.0625 19.5312V21.0938ZM0.25 11.7188V38.2812C0.25 39.5801 1.29492 40.625 2.59375 40.625H29.9375V9.375H2.59375C1.29492 9.375 0.25 10.4199 0.25 11.7188ZM6.00195 32.8223L11.6172 16.3086C11.7832 15.8301 12.2227 15.5176 12.7305 15.5176H15.9043C16.4023 15.5176 16.8516 15.8398 17.0176 16.3086L22.6328 32.8223C22.8867 33.584 22.3301 34.375 21.5195 34.375H19.2832C19.0305 34.3748 18.7846 34.293 18.5822 34.1416C18.3798 33.9903 18.2318 33.7775 18.1602 33.5352L17.2422 30.4199H11.3633L10.4746 33.5254C10.3281 34.0234 9.86914 34.375 9.35156 34.375H7.11523C6.31445 34.375 5.74805 33.584 6.00195 32.8223Z" fill="white"/>
</svg>
