<svg width="53" height="50" viewBox="0 0 53 50" fill="none" xmlns="http://www.w3.org/2000/svg">
<path d="M42.2992 2.13676H10.6752C9.66387 2.13252 8.66168 2.32859 7.72649 2.71366C6.79131 3.09873 5.94163 3.66518 5.22649 4.38033C4.51134 5.09547 3.94489 5.94515 3.55982 6.88033C3.17475 7.81552 2.97868 8.81771 2.98292 9.82906V40.1709C2.97868 41.1823 3.17475 42.1845 3.55982 43.1197C3.94489 44.0549 4.51134 44.9045 5.22649 45.6197C5.94163 46.3348 6.79131 46.9013 7.72649 47.2864C8.66168 47.6714 9.66387 47.8675 10.6752 47.8633H42.2992C43.3105 47.8675 44.3127 47.6714 45.2479 47.2864C46.1831 46.9013 47.0327 46.3348 47.7479 45.6197C48.463 44.9045 49.0295 44.0549 49.4146 43.1197C49.7996 42.1845 49.9957 41.1823 49.9915 40.1709V9.82906C49.9957 8.81771 49.7996 7.81552 49.4146 6.88033C49.0295 5.94515 48.463 5.09547 47.7479 4.38033C47.0327 3.66518 46.1831 3.09873 45.2479 2.71366C44.3127 2.32859 43.3105 2.13252 42.2992 2.13676ZM27.0748 35.0962C27.0667 35.1736 27.0286 35.2449 26.9688 35.2948C26.9089 35.3447 26.832 35.3692 26.7543 35.3633H15.0556V35.3098C14.7885 35.3098 14.7351 35.203 14.7351 34.9893V12.0192C14.7351 11.859 14.7885 11.7521 15.0021 11.7521H18.3675C18.5278 11.7521 18.5812 11.8056 18.5812 12.0192V31.7842H27.3953C27.5556 31.7842 27.609 31.8376 27.609 32.0513L27.0748 35.0962ZM39.0406 20.9402C39.0406 21.1004 38.9872 21.1538 38.7735 21.1538C37.438 21.1004 35.4615 21.2607 34.7137 21.5812V35.0427C34.7137 35.203 34.6603 35.3098 34.4466 35.3098H31.1346C30.9744 35.3098 30.8675 35.2564 30.8675 35.0427V21.4744C30.8675 21.2073 30.8675 20.6197 30.7607 19.391C30.7607 19.2842 30.8141 19.1239 30.9209 19.1239C33.4254 18.1509 36.0867 17.644 38.7735 17.6282C38.9338 17.6282 39.0406 17.6816 39.0406 17.8419V20.9402Z" fill="white"/>
</svg>
