<svg width="36" height="50" viewBox="0 0 36 50" fill="none" xmlns="http://www.w3.org/2000/svg">
<g clip-path="url(#clip0)">
<path d="M10.1309 44.3693C10.1318 44.9836 10.3135 45.5852 10.6543 46.0969L12.3232 48.6057C12.6083 49.0345 12.995 49.3863 13.4489 49.6296C13.9028 49.8729 14.4098 50.0002 14.9248 50.0002H20.9512C21.4662 50.0002 21.9732 49.8729 22.427 49.6296C22.8809 49.3863 23.2676 49.0345 23.5527 48.6057L25.2217 46.0969C25.5624 45.5851 25.7444 44.9842 25.7451 44.3693L25.749 40.6242H10.126L10.1309 44.3693ZM0.75 17.1867C0.75 21.5197 2.35645 25.4729 5.00391 28.4934C6.61719 30.3342 9.14062 34.1799 10.1025 37.424C10.1064 37.4494 10.1094 37.4748 10.1133 37.5002H25.7617C25.7656 37.4748 25.7686 37.4504 25.7725 37.424C26.7344 34.1799 29.2578 30.3342 30.8711 28.4934C33.5186 25.4729 35.125 21.5197 35.125 17.1867C35.125 7.67599 27.4014 -0.0300681 17.8838 -0.000771233C7.92187 0.0295022 0.75 8.10177 0.75 17.1867ZM17.9375 9.37423C13.6299 9.37423 10.125 12.8791 10.125 17.1867C10.125 18.05 9.42578 18.7492 8.5625 18.7492C7.69922 18.7492 7 18.05 7 17.1867C7 11.1555 11.9062 6.24923 17.9375 6.24923C18.8008 6.24923 19.5 6.94845 19.5 7.81173C19.5 8.67501 18.8008 9.37423 17.9375 9.37423Z" fill="white"/>
</g>
<defs>
<clipPath id="clip0">
<rect width="34.375" height="50" fill="white" transform="translate(0.75)"/>
</clipPath>
</defs>
</svg>
