<svg width="51" height="50" viewBox="0 0 51 50" fill="none" xmlns="http://www.w3.org/2000/svg">
<g clip-path="url(#clip0)">
<path d="M32.0203 18.1042C37.8549 23.9449 37.7748 33.309 32.0554 39.0602C32.0447 39.0719 32.032 39.0846 32.0203 39.0963L25.4578 45.6588C19.6697 51.4469 10.2528 51.4461 4.46557 45.6588C-1.32251 39.8717 -1.32251 30.4538 4.46557 24.6666L8.08921 21.043C9.05014 20.0821 10.705 20.7208 10.7546 22.0788C10.8179 23.8094 11.1283 25.5482 11.7009 27.2273C11.8949 27.7958 11.7563 28.4248 11.3315 28.8496L10.0535 30.1276C7.31655 32.8645 7.23071 37.3209 9.94067 40.0846C12.6774 42.8755 17.1756 42.8921 19.9333 40.1344L26.4958 33.5729C29.2489 30.8199 29.2373 26.3701 26.4958 23.6286C26.1344 23.2678 25.7704 22.9875 25.486 22.7917C25.2848 22.6536 25.1187 22.4703 25.0009 22.2566C24.8831 22.0429 24.8169 21.8046 24.8076 21.5607C24.7689 20.5288 25.1345 19.4654 25.9499 18.65L28.006 16.5938C28.5452 16.0546 29.391 15.9884 30.0162 16.4248C30.7321 16.9247 31.4028 17.4867 32.0203 18.1042ZM45.7834 4.34028C39.9962 -1.44702 30.5793 -1.4478 24.7913 4.34028L18.2288 10.9028C18.217 10.9145 18.2043 10.9272 18.1936 10.9389C12.4743 16.6901 12.3941 26.0542 18.2288 31.895C18.8462 32.5124 19.5168 33.0743 20.2328 33.5743C20.858 34.0106 21.7039 33.9443 22.2429 33.4052L24.299 31.3491C25.1144 30.5336 25.48 29.4703 25.4413 28.4383C25.432 28.1945 25.3658 27.9562 25.248 27.7424C25.1302 27.5287 24.9641 27.3454 24.7629 27.2073C24.4786 27.0115 24.1145 26.7312 23.7531 26.3705C21.0116 23.629 21 19.1791 23.7531 16.4261L30.3156 9.8646C33.0733 7.10688 37.5714 7.12349 40.3082 9.9144C43.0182 12.6781 42.9325 17.1345 40.1954 19.8714L38.9174 21.1495C38.4926 21.5743 38.354 22.2032 38.548 22.7717C39.1206 24.4508 39.431 26.1896 39.4943 27.9203C39.544 29.2783 41.1988 29.9169 42.1597 28.956L45.7833 25.3324C51.5715 19.5454 51.5715 10.1274 45.7834 4.34028Z" fill="white"/>
</g>
<defs>
<clipPath id="clip0">
<rect width="50" height="50" fill="white" transform="translate(0.125)"/>
</clipPath>
</defs>
</svg>
