<svg width="45" height="50" viewBox="0 0 45 50" fill="none" xmlns="http://www.w3.org/2000/svg">
<g clip-path="url(#clip0)">
<path d="M22.0002 12.0411C22.0978 12.0899 22.1759 12.2071 22.2931 12.2071C22.4005 12.2071 22.5666 12.168 22.5763 12.0606C22.5959 11.9239 22.3908 11.836 22.2638 11.7774C22.0978 11.7091 21.883 11.6798 21.7267 11.7676C21.6877 11.7872 21.6486 11.836 21.6681 11.8751C21.6974 12.002 21.8927 11.9825 22.0002 12.0411ZM19.8615 12.2071C19.9787 12.2071 20.0568 12.0899 20.1544 12.0411C20.2619 11.9825 20.4572 12.002 20.4962 11.8848C20.5158 11.8458 20.4767 11.7969 20.4377 11.7774C20.2814 11.6895 20.0666 11.7188 19.9005 11.7872C19.7736 11.8458 19.5685 11.9337 19.588 12.0704C19.5978 12.168 19.7638 12.2169 19.8615 12.2071ZM41.4533 39.4337C41.1017 39.043 40.9357 38.3008 40.7501 37.5098C40.5744 36.7188 40.3693 35.8692 39.7248 35.3223C39.5978 35.2149 39.4709 35.1172 39.3341 35.0391C39.2072 34.961 39.0705 34.8926 38.9337 34.8438C39.8322 32.1778 39.4806 29.5215 38.5724 27.1192C37.4591 24.1798 35.5158 21.6114 34.0314 19.8536C32.3615 17.754 30.7404 15.7618 30.7697 12.8223C30.8185 8.33987 31.2677 0.00979387 23.3673 2.82396e-05C13.3673 -0.019503 15.8673 10.0977 15.7599 13.2032C15.5939 15.4883 15.1349 17.2852 13.5626 19.5215C11.7169 21.7188 9.11925 25.2637 7.88878 28.9649C7.30285 30.713 7.02941 32.4903 7.28331 34.17C6.64855 34.7364 6.17003 35.6055 5.66222 36.1426C5.25206 36.5626 4.65636 36.7188 4.00206 36.9532C3.34777 37.1876 2.63488 37.5391 2.19542 38.3692C1.99034 38.7501 1.92199 39.1602 1.92199 39.5801C1.92199 39.961 1.98058 40.3516 2.03917 40.7325C2.15636 41.5235 2.28331 42.2657 2.1173 42.7637C1.60949 44.17 1.54113 45.1465 1.90245 45.8594C2.27355 46.5723 3.01574 46.8848 3.86534 47.0606C5.5548 47.4122 7.84972 47.3243 9.65636 48.2813C11.59 49.2969 13.5529 49.6583 15.1154 49.2969C16.2482 49.043 17.1759 48.3594 17.6447 47.3243C18.8654 47.3145 20.213 46.7969 22.3615 46.6797C23.8166 46.5626 25.6427 47.1973 27.7423 47.0801C27.8009 47.3048 27.8791 47.5294 27.9865 47.7344V47.7442C28.797 49.3751 30.3107 50.1172 31.922 49.9903C33.5431 49.8633 35.2521 48.9161 36.6388 47.2657C37.9669 45.6641 40.1544 45.0001 41.6095 44.1212C42.3322 43.6817 42.9181 43.1348 42.9669 42.334C43.006 41.5333 42.5373 40.6446 41.4533 39.4337ZM22.2834 8.52542C23.2404 6.35745 25.6232 6.39651 26.5802 8.48635C27.215 9.87307 26.9318 11.504 26.1603 12.4317C26.0041 12.3536 25.5841 12.1778 24.9298 11.9532C25.0373 11.836 25.2326 11.6895 25.3107 11.504C25.7794 10.3516 25.2912 8.86721 24.422 8.83792C23.7091 8.78909 23.0646 9.8926 23.2697 11.0841C22.8693 10.8887 22.3517 10.7423 22.0002 10.6544C21.9025 9.9805 21.9709 9.22854 22.2834 8.52542ZM18.3087 7.40237C19.2951 7.40237 20.34 8.78909 20.174 10.6739C19.8322 10.7716 19.4806 10.918 19.1779 11.1231C19.2951 10.254 18.8556 9.16018 18.2404 9.20901C17.4201 9.27737 17.2834 11.2794 18.0646 11.9532C18.1623 12.0313 18.2502 11.9337 17.4884 12.4903C15.965 11.0645 16.463 7.40237 18.3087 7.40237ZM16.9806 13.3301C17.5861 12.8809 18.3087 12.3536 18.3576 12.3048C18.8166 11.8751 19.6759 10.918 21.0822 10.918C21.7755 10.918 22.6056 11.1426 23.6115 11.7872C24.2267 12.1876 24.715 12.2169 25.8185 12.6954C26.6388 13.0372 27.1564 13.6426 26.8439 14.4727C26.59 15.1661 25.7697 15.879 24.6271 16.2403C23.5431 16.5919 22.6935 17.8028 20.8966 17.6954C20.5158 17.6758 20.213 17.5977 19.9591 17.4903C19.1779 17.1485 18.7677 16.4747 18.006 16.0255C17.1662 15.5567 16.7169 15.0098 16.5705 14.5313C16.4337 14.0528 16.5705 13.6524 16.9806 13.3301ZM17.3029 45.9473C17.0392 49.3751 13.0158 49.3067 9.94933 47.7051C7.02941 46.1622 3.25011 47.0704 2.47863 45.5665C2.24425 45.1075 2.24425 44.3262 2.73253 42.9883V42.9688C2.96691 42.2266 2.79113 41.4063 2.67394 40.6348C2.55675 39.8731 2.49816 39.17 2.76183 38.6817C3.10363 38.0274 3.59191 37.793 4.20714 37.5782C5.213 37.2169 5.35949 37.2462 6.1212 36.6114C6.65831 36.0547 7.04894 35.3516 7.51769 34.8536C8.01574 34.3165 8.49425 34.0626 9.2462 34.1798C10.0373 34.2969 10.7209 34.8438 11.3849 35.7423L13.299 39.2188C14.2267 41.1622 17.508 43.9454 17.3029 45.9473ZM17.1662 43.418C16.7658 42.7735 16.2287 42.0899 15.7599 41.504C16.4533 41.504 17.1466 41.2891 17.3908 40.6348C17.6154 40.0294 17.3908 39.1798 16.6681 38.2032C15.3498 36.4258 12.9279 35.0294 12.9279 35.0294C11.6095 34.209 10.8673 33.2032 10.5255 32.1094C10.1837 31.0157 10.2326 29.834 10.4962 28.6719C11.0041 26.4356 12.3127 24.2579 13.1525 22.8907C13.3771 22.7247 13.2306 23.2032 12.3029 24.9219C11.4728 26.4942 9.92003 30.127 12.049 32.9688C12.1076 30.9473 12.5861 28.8868 13.3966 26.963C14.5685 24.2872 17.0392 19.6485 17.2345 15.9571C17.3419 16.0352 17.6837 16.2696 17.84 16.3575C18.2892 16.6212 18.631 17.0118 19.0705 17.3633C20.2814 18.3399 21.8537 18.2618 23.2111 17.4805C23.8166 17.1387 24.3048 16.7481 24.7638 16.6016C25.7306 16.2989 26.5021 15.7618 26.9416 15.1368C27.6935 18.1055 29.4513 22.3926 30.5744 24.4825C31.1701 25.5958 32.3615 27.9493 32.8791 30.7911C33.2013 30.7813 33.5627 30.8301 33.9435 30.9278C35.2912 27.4415 32.8009 23.6817 31.6681 22.6368C31.2091 22.1876 31.1896 21.9923 31.4142 22.002C32.6447 23.0958 34.2658 25.293 34.8517 27.7637C35.1251 28.8965 35.174 30.0782 34.8908 31.2501C36.4923 31.9141 38.3966 32.9981 37.8888 34.6485C37.674 34.6387 37.5763 34.6485 37.4787 34.6485C37.7912 33.6622 37.0978 32.9298 35.2521 32.0997C33.338 31.2598 31.7365 31.2598 31.5119 33.3204C30.3302 33.7305 29.7248 34.7559 29.422 35.9864C29.1486 37.0801 29.0705 38.3985 28.9923 39.8829C28.9435 40.6348 28.6408 41.6407 28.3283 42.7149C25.1935 44.9512 20.838 45.9278 17.1662 43.418ZM42.3029 42.295C42.215 43.9356 38.2794 44.2383 36.131 46.836C34.8419 48.3692 33.2599 49.2188 31.8732 49.3262C30.4865 49.4337 29.2853 48.8575 28.5822 47.4415C28.1232 46.3575 28.3478 45.1856 28.6896 43.8965C29.0509 42.5098 29.588 41.084 29.6564 39.9317C29.7345 38.4473 29.8224 37.1485 30.0666 36.1524C30.3205 35.1465 30.7111 34.4727 31.4044 34.0919C31.4337 34.0723 31.4728 34.0626 31.5021 34.043C31.5802 35.3321 32.215 36.6407 33.338 36.9239C34.5685 37.2462 36.3361 36.1915 37.088 35.3321C37.9669 35.3028 38.6212 35.2442 39.2951 35.8301C40.2619 36.6602 39.9884 38.7891 40.965 39.8926C42.0002 41.0255 42.3322 41.7969 42.3029 42.295ZM17.3615 14.5216C17.5568 14.7071 17.8205 14.961 18.1427 15.2149C18.7873 15.7227 19.6857 16.2501 20.8087 16.2501C21.9416 16.2501 23.006 15.6739 23.9142 15.1954C24.3927 14.9415 24.9787 14.5118 25.3595 14.1798C25.7404 13.8477 25.9357 13.5645 25.6623 13.5352C25.3888 13.5059 25.4084 13.7891 25.0763 14.0333C24.6466 14.3458 24.1291 14.7559 23.7189 14.9903C22.9962 15.4005 21.8146 15.9864 20.799 15.9864C19.7834 15.9864 18.9728 15.5176 18.3673 15.0391C18.0646 14.795 17.8107 14.5508 17.6154 14.3653C17.4689 14.2286 17.4298 13.9161 17.1955 13.8868C17.0587 13.877 17.0197 14.2481 17.3615 14.5216Z" fill="white"/>
</g>
<defs>
<clipPath id="clip0">
<rect width="45" height="50" fill="white"/>
</clipPath>
</defs>
</svg>
