<svg width="45" height="50" viewBox="0 0 45 50" fill="none" xmlns="http://www.w3.org/2000/svg">
<g clip-path="url(#clip0)">
<path d="M22.0001 12.041C22.0977 12.0898 22.1758 12.207 22.293 12.207C22.4004 12.207 22.5665 12.1679 22.5762 12.0605C22.5958 11.9238 22.3907 11.8359 22.2637 11.7773C22.0977 11.709 21.8829 11.6797 21.7266 11.7675C21.6875 11.7871 21.6485 11.8359 21.668 11.875C21.6973 12.0019 21.8926 11.9824 22.0001 12.041ZM19.8614 12.207C19.9786 12.207 20.0567 12.0898 20.1543 12.041C20.2618 11.9824 20.4571 12.0019 20.4961 11.8847C20.5157 11.8457 20.4766 11.7968 20.4376 11.7773C20.2813 11.6894 20.0665 11.7187 19.9004 11.7871C19.7735 11.8457 19.5684 11.9336 19.5879 12.0703C19.5977 12.1679 19.7637 12.2168 19.8614 12.207ZM41.4532 39.4336C41.1016 39.0429 40.9356 38.3007 40.75 37.5097C40.5743 36.7187 40.3692 35.8691 39.7247 35.3222C39.5977 35.2148 39.4708 35.1171 39.334 35.039C39.2071 34.9609 39.0704 34.8925 38.9336 34.8437C39.8321 32.1777 39.4805 29.5215 38.5723 27.1191C37.459 24.1797 35.5157 21.6113 34.0313 19.8535C32.3614 17.7539 30.7403 15.7617 30.7696 12.8222C30.8184 8.33981 31.2676 0.00973283 23.3672 -3.27955e-05C13.3672 -0.019564 15.8672 10.0976 15.7598 13.2031C15.5938 15.4882 15.1348 17.2851 13.5625 19.5215C11.7168 21.7187 9.11919 25.2636 7.88872 28.9648C7.30278 30.7129 7.02935 32.4902 7.28325 34.1699C6.64849 34.7363 6.16997 35.6054 5.66216 36.1425C5.252 36.5625 4.6563 36.7187 4.002 36.9531C3.34771 37.1875 2.63482 37.539 2.19536 38.3691C1.99028 38.75 1.92193 39.1601 1.92193 39.58C1.92193 39.9609 1.98052 40.3515 2.03911 40.7324C2.1563 41.5234 2.28325 42.2656 2.11724 42.7636C1.60943 44.1699 1.54107 45.1464 1.90239 45.8593C2.27349 46.5722 3.01568 46.8847 3.86528 47.0605C5.55474 47.4121 7.84966 47.3242 9.6563 48.2812C11.5899 49.2968 13.5528 49.6582 15.1153 49.2968C16.2481 49.0429 17.1758 48.3593 17.6446 47.3242C18.8653 47.3144 20.2129 46.7968 22.3614 46.6796C23.8165 46.5625 25.6426 47.1972 27.7422 47.08C27.8008 47.3046 27.879 47.5293 27.9864 47.7343V47.7441C28.7969 49.375 30.3106 50.1171 31.9219 49.9902C33.543 49.8632 35.252 48.916 36.6387 47.2656C37.9669 45.664 40.1543 45 41.6094 44.1211C42.3321 43.6816 42.918 43.1347 42.9668 42.3339C43.0059 41.5332 42.5372 40.6445 41.4532 39.4336ZM22.2833 8.52536C23.2403 6.35739 25.6231 6.39645 26.5801 8.48629C27.2149 9.87301 26.9317 11.5039 26.1602 12.4316C26.004 12.3535 25.584 12.1777 24.9297 11.9531C25.0372 11.8359 25.2325 11.6894 25.3106 11.5039C25.7793 10.3515 25.2911 8.86715 24.4219 8.83786C23.709 8.78903 23.0645 9.89254 23.2696 11.084C22.8692 10.8886 22.3516 10.7422 22.0001 10.6543C21.9024 9.98044 21.9708 9.22848 22.2833 8.52536ZM18.3086 7.40231C19.295 7.40231 20.3399 8.78903 20.1739 10.6738C19.8321 10.7715 19.4805 10.9179 19.1778 11.123C19.295 10.2539 18.8555 9.16012 18.2403 9.20895C17.42 9.27731 17.2833 11.2793 18.0645 11.9531C18.1622 12.0312 18.2501 11.9336 17.4883 12.4902C15.9649 11.0644 16.4629 7.40231 18.3086 7.40231ZM16.9805 13.33C17.586 12.8808 18.3086 12.3535 18.3575 12.3047C18.8165 11.875 19.6758 10.9179 21.0821 10.9179C21.7754 10.9179 22.6055 11.1425 23.6114 11.7871C24.2266 12.1875 24.7149 12.2168 25.8184 12.6953C26.6387 13.0371 27.1563 13.6425 26.8438 14.4726C26.5899 15.166 25.7696 15.8789 24.627 16.2402C23.543 16.5918 22.6934 17.8027 20.8965 17.6953C20.5157 17.6757 20.2129 17.5976 19.959 17.4902C19.1778 17.1484 18.7676 16.4746 18.0059 16.0254C17.1661 15.5566 16.7168 15.0097 16.5704 14.5312C16.4336 14.0527 16.5704 13.6523 16.9805 13.33ZM17.3028 45.9472C17.0391 49.375 13.0157 49.3066 9.94927 47.705C7.02935 46.1621 3.25005 47.0703 2.47857 45.5664C2.24419 45.1074 2.24419 44.3261 2.73247 42.9882V42.9687C2.96685 42.2265 2.79107 41.4062 2.67388 40.6347C2.55669 39.873 2.4981 39.1699 2.76177 38.6816C3.10357 38.0273 3.59185 37.7929 4.20708 37.5781C5.21294 37.2168 5.35943 37.2461 6.12114 36.6113C6.65825 36.0546 7.04888 35.3515 7.51763 34.8535C8.01568 34.3164 8.49419 34.0625 9.24614 34.1796C10.0372 34.2968 10.7208 34.8437 11.3848 35.7421L13.2989 39.2187C14.2266 41.1621 17.5079 43.9453 17.3028 45.9472ZM17.1661 43.4179C16.7657 42.7734 16.2286 42.0898 15.7598 41.5039C16.4532 41.5039 17.1465 41.289 17.3907 40.6347C17.6153 40.0293 17.3907 39.1797 16.668 38.2031C15.3497 36.4257 12.9278 35.0293 12.9278 35.0293C11.6094 34.209 10.8672 33.2031 10.5254 32.1093C10.1836 31.0156 10.2325 29.8339 10.4961 28.6718C11.004 26.4355 12.3126 24.2578 13.1524 22.8906C13.377 22.7246 13.2305 23.2031 12.3028 24.9218C11.4727 26.4941 9.91997 30.1269 12.0489 32.9687C12.1075 30.9472 12.586 28.8867 13.3965 26.9629C14.5684 24.2871 17.0391 19.6484 17.2344 15.957C17.3418 16.0351 17.6836 16.2695 17.8399 16.3574C18.2891 16.6211 18.6309 17.0117 19.0704 17.3632C20.2813 18.3398 21.8536 18.2617 23.211 17.4804C23.8165 17.1386 24.3047 16.748 24.7637 16.6015C25.7305 16.2988 26.502 15.7617 26.9415 15.1367C27.6934 18.1054 29.4512 22.3925 30.5743 24.4824C31.17 25.5957 32.3614 27.9492 32.879 30.791C33.2012 30.7812 33.5626 30.83 33.9434 30.9277C35.2911 27.4414 32.8008 23.6816 31.668 22.6367C31.209 22.1875 31.1895 21.9922 31.4141 22.0019C32.6446 23.0957 34.2657 25.2929 34.8516 27.7636C35.125 28.8964 35.1739 30.0781 34.8907 31.25C36.4922 31.914 38.3965 32.998 37.8887 34.6484C37.6739 34.6386 37.5762 34.6484 37.4786 34.6484C37.7911 33.6621 37.0977 32.9297 35.252 32.0996C33.3379 31.2597 31.7364 31.2597 31.5118 33.3203C30.3301 33.7304 29.7247 34.7558 29.4219 35.9863C29.1485 37.08 29.0704 38.3984 28.9922 39.8828C28.9434 40.6347 28.6407 41.6406 28.3282 42.7148C25.1934 44.9511 20.8379 45.9277 17.1661 43.4179ZM42.3028 42.2949C42.2149 43.9355 38.2793 44.2382 36.1309 46.8359C34.8418 48.3691 33.2598 49.2187 31.8731 49.3261C30.4864 49.4336 29.2852 48.8574 28.5821 47.4414C28.1231 46.3574 28.3477 45.1855 28.6895 43.8964C29.0508 42.5097 29.5879 41.0839 29.6563 39.9316C29.7344 38.4472 29.8223 37.1484 30.0665 36.1523C30.3204 35.1465 30.711 34.4726 31.4043 34.0918C31.4336 34.0722 31.4727 34.0625 31.502 34.0429C31.5801 35.332 32.2149 36.6406 33.3379 36.9238C34.5684 37.2461 36.336 36.1914 37.0879 35.332C37.9668 35.3027 38.6211 35.2441 39.295 35.83C40.2618 36.6601 39.9883 38.789 40.9649 39.8925C42 41.0254 42.3321 41.7968 42.3028 42.2949ZM17.3614 14.5215C17.5567 14.707 17.8204 14.9609 18.1426 15.2148C18.7872 15.7226 19.6856 16.25 20.8086 16.25C21.9415 16.25 23.0059 15.6738 23.9141 15.1953C24.3926 14.9414 24.9786 14.5117 25.3594 14.1797C25.7403 13.8476 25.9356 13.5644 25.6622 13.5351C25.3887 13.5058 25.4083 13.789 25.0762 14.0332C24.6465 14.3457 24.129 14.7558 23.7188 14.9902C22.9961 15.4004 21.8145 15.9863 20.7989 15.9863C19.7833 15.9863 18.9727 15.5175 18.3672 15.039C18.0645 14.7949 17.8106 14.5507 17.6153 14.3652C17.4688 14.2285 17.4297 13.916 17.1954 13.8867C17.0586 13.8769 17.0196 14.248 17.3614 14.5215Z" fill="white"/>
</g>
<defs>
<clipPath id="clip0">
<rect width="43.75" height="50" fill="white" transform="translate(0.4375)"/>
</clipPath>
</defs>
</svg>
