<svg width="50" height="50" viewBox="0 0 50 50" fill="none" xmlns="http://www.w3.org/2000/svg">
<path d="M17.5957 22.5956C16.1244 22.5956 14.9641 23.086 14.1268 24.0549C13.2775 25.0238 12.7632 26.3276 12.7393 28.0382V29.1626C12.7393 30.9209 13.2417 32.0095 14.1029 33.0142C14.9522 34.019 16.1244 34.5214 17.6316 34.5214C19.1388 34.5214 20.2991 34.043 21.1244 33.098C21.9498 32.153 22.4522 30.9927 22.4761 29.2104V28.074C22.4761 26.2559 21.9737 25.0118 21.1364 24.031C20.2871 23.074 19.1149 22.5956 17.5957 22.5956ZM24.5455 16.0286C24.5455 16.2917 24.6412 16.4951 24.8326 16.6506C25.024 16.7941 25.2632 16.8779 25.5622 16.8779C25.8493 16.8779 26.1125 16.8061 26.3637 16.6745C26.6149 16.5429 26.8062 16.3635 26.9139 16.1482V15.1434H26.2082C25.0957 15.1195 24.5455 15.4185 24.5455 16.0286Z" fill="white"/>
<path d="M48.5048 24.402C48.5048 11.1843 37.7991 0.478516 24.5814 0.478516C11.3637 0.478516 0.657959 11.1843 0.657959 24.402C0.657959 24.6053 0.657959 24.7967 0.669921 25C0.669921 25.2034 0.657959 25.3948 0.657959 25.5981C0.657959 38.8158 11.3637 49.5216 24.5814 49.5216C37.7991 49.5216 48.5048 38.8158 48.5048 25.5981C48.5048 25.3948 48.5048 25.2034 48.4929 25C48.5048 24.7967 48.5048 24.6053 48.5048 24.402ZM28.9714 14.9522C28.9714 14.4737 29.067 14.0551 29.2465 13.6843C29.4259 13.3134 29.6891 13.0264 30.0359 12.823C30.3828 12.6197 30.7776 12.512 31.2441 12.512C31.8182 12.512 32.2967 12.6795 32.6795 13.0024C33.0623 13.3374 33.2656 13.756 33.2895 14.2823H32.4642C32.4403 13.9594 32.3087 13.7082 32.0934 13.5048C31.8661 13.3015 31.591 13.1938 31.256 13.1938C30.8135 13.1938 30.4666 13.3493 30.2273 13.6603C29.9881 13.9713 29.8565 14.4139 29.8565 14.9881V15.1436C29.8565 15.7058 29.9761 16.1484 30.2154 16.4474C30.4546 16.7465 30.8015 16.902 31.256 16.902C31.567 16.902 31.8422 16.8063 32.0694 16.6268C32.2967 16.4474 32.4283 16.2201 32.4522 15.945H33.2776C33.2656 16.2321 33.158 16.4953 32.9785 16.7465C32.7871 16.9977 32.5479 17.201 32.2369 17.3565C31.9259 17.512 31.6029 17.5838 31.256 17.5838C30.5623 17.5838 30.0001 17.3565 29.5934 16.9139C29.1867 16.4713 28.9714 15.8613 28.9714 15.0838V14.9522V14.9522ZM15.4426 12.5957H16.2441L16.268 13.134C16.6269 12.7154 17.1293 12.5 17.7393 12.5C18.4331 12.5 18.9115 12.7632 19.1627 13.2895C19.3302 13.0503 19.5455 12.8589 19.8087 12.7154C20.0718 12.5718 20.3828 12.5 20.7537 12.5C21.8422 12.5 22.4044 13.0742 22.4163 14.2106V17.5H21.5671V14.2584C21.5671 13.9115 21.4833 13.6484 21.3278 13.4689C21.1604 13.2895 20.8972 13.2058 20.5025 13.2058C20.1915 13.2058 19.9283 13.3015 19.713 13.4809C19.5096 13.6723 19.3781 13.9115 19.3541 14.2345V17.4881H18.5048V14.2704C18.5048 13.5527 18.146 13.2058 17.4403 13.2058C16.8781 13.2058 16.4953 13.445 16.2919 13.9115V17.4881H15.4426V12.5957V12.5957ZM24.713 29.0551C24.713 30.5503 24.4259 31.8661 23.8398 32.9785C23.2537 34.091 22.4283 34.9522 21.3637 35.5383C20.2991 36.1244 19.0551 36.4235 17.6316 36.4235C16.2441 36.4235 15.012 36.1244 13.9355 35.5383C12.8589 34.9402 12.0216 34.1029 11.4355 33.0024C10.8374 31.902 10.5383 30.634 10.5264 29.1866V28.0862C10.5264 26.6149 10.8254 25.3111 11.4115 24.1866C11.9977 23.0622 12.835 22.189 13.9115 21.591C14.9881 20.9929 16.2321 20.6938 17.6197 20.6938C19.0312 20.6938 20.2871 20.9929 21.3637 21.579C22.4403 22.1771 23.2776 23.0264 23.8517 24.1508C24.4379 25.2752 24.7249 26.579 24.7249 28.0742V29.0551H24.713ZM24.1388 17.189C23.8039 16.9139 23.6364 16.567 23.6364 16.1484C23.6364 15.634 23.8517 15.2393 24.2584 14.9642C24.6771 14.6771 25.2632 14.5455 26.0288 14.5455H26.9139V14.1627C26.9139 13.8637 26.8182 13.6364 26.6269 13.457C26.4355 13.2776 26.1604 13.1938 25.7895 13.1938C25.4666 13.1938 25.1915 13.2656 24.9761 13.4211C24.7608 13.5766 24.6532 13.756 24.6532 13.9713H23.7441C23.7441 13.7321 23.8398 13.4929 24.0192 13.2656C24.2106 13.0383 24.4618 12.8589 24.7848 12.7273C25.1077 12.5957 25.4546 12.524 25.8493 12.524C26.4594 12.524 26.9379 12.6675 27.2848 12.9426C27.6316 13.2297 27.8111 13.6125 27.823 14.1149V16.3756C27.823 16.8302 27.8828 17.189 28.0144 17.4522V17.524H27.0694C27.0216 17.4283 26.9737 17.2608 26.9379 17.0096C26.5192 17.4163 26.0168 17.6197 25.4307 17.6197C24.9044 17.5957 24.4737 17.4642 24.1388 17.189ZM32.213 36.4235C26.8422 36.4235 26.3637 32.7871 26.3278 31.9857H28.469C28.5168 32.8111 29.39 34.6053 32.213 34.6053C34.5336 34.6053 35.6819 33.0981 35.6819 32.3565C35.6819 30.1675 33.3493 29.7847 31.8541 29.402C29.9761 28.9355 28.7082 28.5527 27.8709 27.835C27.0455 27.1053 26.7226 25.957 26.7226 24.8924C26.7226 22.7991 28.5168 20.7058 32.1053 20.7058C33.2058 20.7058 34.1986 20.9091 35.0599 21.3158C35.9211 21.7225 36.591 22.2847 37.0694 22.9905C37.5001 23.6364 37.5599 24.3302 37.6077 25.0718H35.4666C35.4068 24.2704 34.8565 22.5359 32.1053 22.5359C29.6173 22.5359 28.8996 24.0551 28.8996 24.8326C28.8996 26.8063 31.0527 27.0216 32.3924 27.3804C33.7321 27.7393 37.8948 28.0503 37.8828 32.0933C37.8948 33.3374 36.8661 36.4235 32.213 36.4235Z" fill="white"/>
</svg>
