<svg width="44" height="50" viewBox="0 0 44 50" fill="none" xmlns="http://www.w3.org/2000/svg">
<path d="M32.4734 23.7812C32.7749 23.742 33.0802 23.742 33.3816 23.7812C33.5438 23.4071 33.5721 22.7626 33.4256 22.0614C33.2078 21.0194 32.9129 20.3876 32.3045 20.4862C31.6961 20.5849 31.6727 21.3397 31.8904 22.3827C32.0135 22.9687 32.2313 23.4706 32.4764 23.7812H32.4734ZM27.243 24.6093C27.6795 24.8046 27.9461 24.9276 28.0516 24.8173C28.2361 24.6278 27.7117 23.9003 26.868 23.539C26.3808 23.3371 25.8498 23.2641 25.3263 23.3271C24.8027 23.39 24.3042 23.5868 23.8787 23.8983C23.5858 24.1112 23.3113 24.4081 23.3504 24.5878C23.4334 24.953 24.327 24.3231 25.5574 24.2479C26.241 24.205 26.8074 24.4188 27.243 24.6103V24.6093ZM26.3641 25.1103C25.4783 25.2489 24.8992 25.7479 25.0486 26.0966C25.1365 26.1298 25.1629 26.1757 25.5574 26.0175C26.1402 25.7975 26.77 25.7319 27.3856 25.827C27.6707 25.8603 27.8065 25.8778 27.868 25.7792C28.0106 25.5624 27.3104 24.9979 26.365 25.1103H26.3641ZM31.6541 26.7802C31.9842 26.1093 30.5897 25.4198 30.2576 26.0966C29.9256 26.7733 31.324 27.452 31.6561 26.7772L31.6541 26.7802ZM33.1834 24.7811C32.4354 24.7685 32.407 26.3241 33.158 26.3368C33.909 26.3495 33.9373 24.7929 33.1854 24.7782L33.1834 24.7811ZM11.8172 32.4862C11.6883 32.5165 11.2313 32.6278 10.99 32.2567C10.4822 31.4755 12.075 30.2665 11.283 28.7636C10.3943 27.0575 8.5662 27.4413 7.86015 28.2226C7.00956 29.1601 7.00858 30.5214 7.37186 30.5741C7.78886 30.6298 7.7703 29.9423 8.09257 29.4384C8.18262 29.2994 8.29931 29.1797 8.43591 29.0861C8.57251 28.9926 8.72629 28.927 8.88839 28.8932C9.05048 28.8594 9.21766 28.8581 9.38027 28.8893C9.54287 28.9205 9.69768 28.9837 9.83573 29.0751C10.9676 29.8163 9.96952 30.8095 10.0584 31.87C10.1942 33.4989 11.8572 33.4687 12.1658 32.7489C12.1858 32.7134 12.1946 32.6727 12.1911 32.6321C12.1876 32.5916 12.172 32.553 12.1463 32.5214C12.1492 32.6083 12.2127 32.3944 11.8192 32.4833L11.8172 32.4862ZM41.0867 30.8192C40.7596 29.6737 40.8358 29.9188 40.4246 28.8153C40.6639 28.4569 41.9178 26.4716 40.1248 24.5917C39.1092 23.5253 36.8143 22.9765 36.1111 22.7812C35.9647 21.6688 36.5652 17.0487 34.0096 14.6757C36.0399 12.5712 37.3065 10.2528 37.3035 8.26452C37.2977 4.4403 32.6014 3.28405 26.8133 5.67956L25.5877 6.20007C25.5818 6.19518 23.3699 4.02526 23.3367 3.99597C16.74 -1.75794 -3.89181 21.1728 2.70487 26.7431L4.14628 27.9647C3.75728 29.0085 3.6201 30.1294 3.74589 31.2362C4.07401 34.4979 7.26151 37.1366 10.3406 37.1327C15.9783 50.1269 36.5027 50.1483 41.8143 37.4257C41.9842 36.9892 42.7039 35.0224 42.7039 33.287C42.7039 31.5517 41.7186 30.8192 41.0897 30.8192H41.0867ZM10.2274 35.5224C7.99882 35.4628 5.59257 33.4569 5.35331 31.078C4.75077 25.0907 12.6053 23.7274 13.5565 29.8739C13.9998 32.7685 13.1004 35.5858 10.2244 35.5194L10.2274 35.5224ZM8.41972 24.37C6.93925 24.6581 5.63456 25.497 4.83573 26.6601C4.35917 26.2626 3.46854 25.4882 3.31327 25.1952C2.04276 22.7685 4.7039 18.0663 6.56522 15.4091C11.1658 8.84362 18.3699 3.87487 21.7068 4.77624C22.2488 4.92956 24.0447 7.01159 24.0447 7.01159C24.0447 7.01159 20.7098 8.8612 17.619 11.4403C13.4529 14.6483 10.3055 19.3104 8.41972 24.37ZM31.7479 34.2479C31.7479 34.2479 28.2576 34.7655 24.9598 33.5575C25.5662 31.5888 27.5965 34.1532 34.3738 32.2089C35.867 31.7812 37.8279 30.9394 39.3543 29.7333C39.6828 30.492 39.9163 31.2884 40.0496 32.1044C40.407 32.0399 41.4412 32.0536 41.1668 33.872C40.8455 35.8124 40.0213 37.3876 38.6346 38.8368C37.7684 39.7754 36.7373 40.5469 35.5926 41.1132C34.9549 41.4473 34.2905 41.7275 33.6063 41.9511C28.3807 43.6581 23.0301 41.7811 21.3016 37.7519C21.1614 37.4443 21.0455 37.1263 20.9549 36.8007C20.2195 34.1444 20.8436 30.9579 22.7947 28.952C22.9149 28.8241 23.0369 28.6737 23.0369 28.4843C23.0199 28.3211 22.9546 28.1668 22.8494 28.0409C22.1658 27.0517 19.8035 25.3651 20.2781 22.1005C20.6199 19.7567 22.6697 18.1054 24.5818 18.203L25.0701 18.2313C25.8983 18.2802 26.6219 18.3866 27.3045 18.4149C28.4461 18.4638 29.4725 18.2987 30.6873 17.286C31.0975 16.9442 31.4266 16.6474 31.9822 16.5526C32.2069 16.497 32.4405 16.4877 32.6688 16.5253C32.8971 16.5629 33.1154 16.6467 33.3104 16.7714C34.2869 17.4198 34.4236 18.9911 34.4744 20.1395C34.5027 20.7958 34.5818 22.3856 34.6092 22.8378C34.6707 23.8798 34.9441 24.0263 35.4988 24.205C35.8104 24.3075 36.0994 24.3837 36.5252 24.5038C37.8152 24.8661 38.576 25.2343 39.0643 25.706C39.3133 25.9499 39.4758 26.2684 39.5272 26.6132C39.6795 27.7235 38.6658 29.0936 35.9813 30.3397C31.4197 32.4569 26.8328 31.7509 26.1688 31.6757C24.201 31.411 23.0799 33.953 24.2596 35.6942C26.4705 38.9569 36.2127 37.6474 39.0418 33.6093C39.1092 33.5116 39.0535 33.454 38.9705 33.5116C34.8914 36.3026 29.492 37.2431 26.4256 36.0507C25.9598 35.87 24.9871 35.4218 24.869 34.4228C29.1268 35.7401 31.8025 34.495 31.8025 34.495C31.8025 34.495 32.0008 34.2226 31.7479 34.2479ZM16.9168 15.3808C18.5516 13.4911 20.5652 11.8476 22.369 10.9247C22.3826 10.9166 22.3985 10.9133 22.4142 10.9153C22.4299 10.9173 22.4445 10.9245 22.4557 10.9357C22.4669 10.9468 22.474 10.9614 22.476 10.9771C22.478 10.9928 22.4747 11.0087 22.4666 11.0224C22.324 11.2821 22.0477 11.8368 21.9598 12.2577C21.9563 12.2722 21.9573 12.2874 21.9626 12.3013C21.968 12.3152 21.9774 12.3271 21.9897 12.3355C22.002 12.3438 22.0166 12.3483 22.0315 12.3482C22.0464 12.3481 22.0609 12.3434 22.0731 12.3349C23.1951 11.5702 25.1473 10.7509 26.8582 10.6454C26.8743 10.6443 26.8904 10.6484 26.904 10.6572C26.9176 10.6659 26.928 10.6788 26.9337 10.6939C26.9394 10.709 26.9401 10.7256 26.9356 10.7411C26.9312 10.7567 26.9218 10.7704 26.909 10.7802C26.6261 10.9982 26.3729 11.2523 26.1561 11.536C26.1482 11.5468 26.1435 11.5596 26.1424 11.5729C26.1413 11.5862 26.1438 11.5996 26.1497 11.6116C26.1557 11.6235 26.1648 11.6336 26.176 11.6408C26.1873 11.648 26.2003 11.6519 26.2137 11.6522C27.4158 11.661 29.1102 12.0819 30.2176 12.7011C30.2918 12.7431 30.2391 12.8876 30.1551 12.869C23.3631 11.3124 18.1356 14.6786 17.0203 15.4892C17.0055 15.4987 16.9877 15.5027 16.9701 15.5003C16.9526 15.4979 16.9365 15.4894 16.9248 15.4762C16.913 15.463 16.9063 15.4461 16.9059 15.4284C16.9055 15.4107 16.9115 15.3935 16.9227 15.3798L16.9168 15.3808Z" fill="white"/>
</svg>
