<svg width="20" height="50" viewBox="0 0 20 50" fill="none" xmlns="http://www.w3.org/2000/svg">
<path d="M10.25 0C13.7018 0 16.5 2.79824 16.5 6.25C16.5 9.70176 13.7018 12.5 10.25 12.5C6.79824 12.5 4 9.70176 4 6.25C4 2.79824 6.79824 0 10.25 0ZM14.9375 14.0625H13.8281C11.6103 15.0823 8.98535 15.1264 6.67188 14.0625H5.5625C2.97363 14.0625 0.875 16.1611 0.875 18.75V32.0312C0.875 33.3257 1.92432 34.375 3.21875 34.375H4.78125V47.6562C4.78125 48.9507 5.83057 50 7.125 50H13.375C14.6694 50 15.7188 48.9507 15.7188 47.6562V34.375H17.2812C18.5757 34.375 19.625 33.3257 19.625 32.0312V18.75C19.625 16.1611 17.5264 14.0625 14.9375 14.0625Z" fill="white"/>
</svg>
