<svg width="39" height="50" viewBox="0 0 39 50" fill="none" xmlns="http://www.w3.org/2000/svg">
<path d="M17.698 48.9912C3.50879 28.421 0.875 26.3099 0.875 18.75C0.875 8.39463 9.26963 0 19.625 0C29.9804 0 38.375 8.39463 38.375 18.75C38.375 26.3099 35.7412 28.421 21.552 48.9912C20.6208 50.3363 18.6291 50.3362 17.698 48.9912ZM19.625 26.5625C23.9397 26.5625 27.4375 23.0647 27.4375 18.75C27.4375 14.4353 23.9397 10.9375 19.625 10.9375C15.3103 10.9375 11.8125 14.4353 11.8125 18.75C11.8125 23.0647 15.3103 26.5625 19.625 26.5625Z" fill="white"/>
</svg>
