<svg width="50" height="50" viewBox="0 0 50 50" fill="none" xmlns="http://www.w3.org/2000/svg">
<g clip-path="url(#clip0)">
<path d="M21.8512 12.7686L15.1003 1.51758C14.8227 1.05475 14.43 0.671698 13.9604 0.405746C13.4907 0.139794 12.9603 6.62623e-06 12.4206 0H1.56608C0.301435 0 -0.4388 1.42285 0.285809 2.45898L11.152 17.9824C14.0544 15.2705 17.7458 13.4092 21.8512 12.7686ZM48.4352 0H37.5807C36.4831 0 35.4655 0.576172 34.901 1.51758L28.1501 12.7686C32.2555 13.4092 35.9469 15.2705 38.8493 17.9814L49.7155 2.45898C50.4401 1.42285 49.6999 0 48.4352 0ZM25.0007 15.625C15.5085 15.625 7.81315 23.3203 7.81315 32.8125C7.81315 42.3047 15.5085 50 25.0007 50C34.4928 50 42.1882 42.3047 42.1882 32.8125C42.1882 23.3203 34.4928 15.625 25.0007 15.625ZM34.0358 30.9824L30.3317 34.5918L31.2077 39.6914C31.3639 40.6055 30.401 41.3037 29.5817 40.8721L25.0007 38.4648L20.4206 40.8721C19.6003 41.3066 18.6384 40.6045 18.7946 39.6914L19.6706 34.5918L15.9665 30.9824C15.3005 30.334 15.6686 29.2022 16.5866 29.0693L21.7067 28.3232L23.9948 23.6826C24.2009 23.2646 24.5993 23.0586 24.9987 23.0586C25.4001 23.0586 25.8014 23.2676 26.0075 23.6826L28.2956 28.3232L33.4157 29.0693C34.3337 29.2022 34.7018 30.334 34.0358 30.9824Z" fill="white"/>
</g>
<defs>
<clipPath id="clip0">
<rect width="50" height="50" fill="white"/>
</clipPath>
</defs>
</svg>
