<svg width="52" height="50" viewBox="0 0 52 50" fill="none" xmlns="http://www.w3.org/2000/svg">
<path d="M20.437 16.8162V19.5833H23.188V19.5726V16.8162H20.4423H20.437Z" fill="white"/>
<path d="M25.9444 22.3504H25.9338V25.1175H28.6795V22.3504H25.9444Z" fill="white"/>
<path d="M20.437 16.8162V16.8109V14.0491H17.6912V16.8162H20.437Z" fill="white"/>
<path d="M41.735 2.13675H10.1111C8.07098 2.13675 6.11441 2.94719 4.67183 4.38977C3.22924 5.83236 2.4188 7.78893 2.4188 9.82906V40.1709C2.4188 42.2111 3.22924 44.1676 4.67183 45.6102C6.11441 47.0528 8.07098 47.8632 10.1111 47.8632H41.735C42.7452 47.8632 43.7455 47.6643 44.6788 47.2777C45.612 46.8911 46.46 46.3245 47.1743 45.6102C47.8886 44.8959 48.4552 44.0479 48.8418 43.1147C49.2284 42.1814 49.4273 41.1811 49.4273 40.1709V9.82906C49.4273 8.81889 49.2284 7.81861 48.8418 6.88534C48.4552 5.95206 47.8886 5.10407 47.1743 4.38977C46.46 3.67548 45.612 3.10887 44.6788 2.72229C43.7455 2.33572 42.7452 2.13675 41.735 2.13675ZM31.4306 14.0491H34.1763V16.8162H31.4306V14.0491ZM39.6731 27.8579H36.922V30.625H39.6731V33.3921H36.922V30.625H34.1763V27.8579H31.4306V25.1068H28.6795V27.8419H31.4199V30.5983H34.1656V33.36H36.9113V36.1218H39.6624V38.6806H12.1731V11.282H14.9402V14.0491H17.6912V11.282H20.437V14.0491H23.188V16.8162H25.9231V14.0491H28.6688V16.8162H25.9231V19.5833H28.6688V22.3504H31.4199V19.5833H34.1656V22.3504H31.4306V25.1068H34.1763V27.8739H36.922V25.1068H39.6731V27.8579ZM39.6731 22.3504H36.922V19.5833H39.6731V22.3504Z" fill="white"/>
<path d="M23.188 19.5833V22.3504H25.9338V22.3397V19.5833H23.1934H23.188Z" fill="white"/>
</svg>
