<svg width="97" height="50" viewBox="0 0 97 50" fill="none" xmlns="http://www.w3.org/2000/svg">
<path d="M0.666504 45.4174H3.83568V32.9023L8.74545 43.8046C9.3244 45.1204 10.1177 45.5903 11.674 45.5903C13.2304 45.5903 13.9898 45.1241 14.5688 43.8046L19.4635 32.9023V45.4249H22.6327V32.9249C22.6327 31.7031 22.144 31.1129 21.1289 30.8084C18.7192 30.0565 17.1026 30.7069 16.3733 32.3347L11.5688 43.1054L6.91839 32.3309C6.21538 30.7031 4.56876 30.0527 2.17027 30.8046C1.16275 31.1091 0.666504 31.6993 0.666504 32.9174V45.4174ZM25.2831 35.2294H28.4522V42.1279C28.4259 42.5038 28.5725 43.3798 30.3094 43.4099C31.1966 43.4099 37.1515 43.4099 37.2041 43.4099V35.1956H40.3808C40.3808 35.1956 40.3808 46.3948 40.3808 46.4437C40.3808 49.2031 36.9522 49.8046 35.3658 49.8497H25.3545V47.7181H35.3808C37.4222 47.5001 37.1816 46.4888 37.1816 46.1467V45.3121H30.4447C27.3094 45.2858 25.3131 43.9174 25.2868 42.3422C25.2868 42.2031 25.3545 35.2971 25.2868 35.2294H25.2831ZM42.8282 45.4174H51.9409C52.9495 45.427 53.9484 45.2193 54.8695 44.8084C56.2417 44.1805 56.9109 43.3271 56.9109 42.2068V39.8911C56.9109 38.9775 56.159 38.1241 54.6552 37.5527C53.7865 37.2377 52.8687 37.0799 51.9447 37.0866H48.1026C46.8206 37.0866 46.2229 36.7106 46.0613 35.8459C46.0336 35.7534 46.0221 35.6567 46.0274 35.5602V34.1204C46.023 34.0301 46.0345 33.9398 46.0613 33.8535C46.2116 33.2031 46.5462 33.0189 47.674 32.9136C47.768 32.9136 47.8883 32.9136 47.9823 32.9136H57.0349V30.782H48.1327C47.2709 30.7392 46.4076 30.828 45.5725 31.0452C43.6928 31.6354 42.8545 32.5753 42.8545 34.1993V36.049C42.8545 37.4738 44.4748 38.6805 47.1853 38.9775C47.4898 38.9775 47.7943 39.0151 48.0988 39.0151H51.3921C51.5041 39.0101 51.6163 39.0177 51.7267 39.0377C52.7342 39.1204 53.1628 39.3008 53.4673 39.6655C53.5454 39.737 53.6076 39.8242 53.6497 39.9213C53.6918 40.0185 53.7129 40.1235 53.7116 40.2294V42.079C53.694 42.23 53.6439 42.3754 53.5647 42.5052C53.4855 42.635 53.3792 42.7461 53.253 42.8309C52.866 43.1218 52.3949 43.2788 51.9109 43.2783C51.7906 43.2783 51.6966 43.3008 51.5763 43.3008H42.8244V45.4136L42.8282 45.4174ZM76.6891 41.7294C76.6891 43.9023 78.3056 45.1129 81.5763 45.3685C81.8808 45.3911 82.1853 45.4061 82.4898 45.4061H90.7605V43.2933H82.4222C80.5613 43.2933 79.862 42.8272 79.862 41.7069V30.7858H76.6891V41.7294ZM58.9334 41.8384V34.3196C58.9334 32.4061 60.2793 31.2444 62.9372 30.876C63.2211 30.8352 63.5075 30.8151 63.7943 30.8159H69.8094C70.1062 30.8152 70.4026 30.8353 70.6966 30.876C73.3545 31.252 74.7003 32.4023 74.7003 34.3196V41.8384C74.7003 43.3911 74.1289 44.2219 72.8206 44.767L75.9447 47.5866H72.2605L69.7342 45.3046L67.1928 45.4663H63.8094C63.1736 45.4631 62.5412 45.3733 61.9297 45.1993C59.9071 44.6505 58.9222 43.5903 58.9222 41.8384H58.9334ZM62.3582 41.6505C62.3656 41.7614 62.3858 41.8712 62.4184 41.9775C62.6064 42.8535 63.4259 43.3422 64.674 43.3422H67.5537L64.9222 40.955H68.6026L70.9034 43.0377C71.1043 42.9383 71.2805 42.7952 71.4191 42.619C71.5576 42.4427 71.655 42.2377 71.7041 42.0189C71.7225 41.9235 71.7276 41.8261 71.7191 41.7294V34.5001C71.7233 34.4039 71.7132 34.3076 71.6891 34.2144C71.5011 33.3986 70.6815 32.9324 69.456 32.9324H64.6816C63.2718 32.9324 62.3582 33.5414 62.3582 34.5001V41.6429V41.6505ZM93.5237 27.2784C91.5763 27.2257 90.0838 27.4062 88.8131 27.9438C88.4372 28.0941 87.8733 28.0979 87.8169 28.5528C88.0124 28.7596 88.0462 29.0716 88.1928 29.3272C88.5321 29.8952 88.9627 30.4032 89.4673 30.831C89.9652 31.2331 90.4835 31.6096 91.0199 31.9588C91.971 32.5415 93.0387 32.8723 93.956 33.4626C94.4973 33.8084 95.0349 34.2408 95.5612 34.628C95.8244 34.8197 96.0011 35.1167 96.3394 35.237V35.1806C96.159 34.955 96.1139 34.643 95.9635 34.4062L95.2417 33.6844C94.527 32.733 93.6713 31.8963 92.7041 31.2032C91.9522 30.6581 90.2492 29.9212 89.9334 29.0415L89.877 28.9851C90.4389 28.8984 90.9942 28.7727 91.5387 28.6092C92.3733 28.3836 93.1176 28.4438 93.9785 28.2332L95.144 27.8987V27.6769C94.7079 27.2295 94.3921 26.6393 93.9221 26.237C92.6649 25.142 91.332 24.1371 89.9334 23.2295C89.159 22.7408 88.2041 22.4212 87.3846 22.0077C87.1101 21.8686 86.6327 21.7972 86.4409 21.5641C86.0549 20.9676 85.7216 20.3387 85.4447 19.6844C84.7492 18.346 84.065 16.8836 83.4485 15.4738C83.0312 14.5114 82.753 13.5641 82.2304 12.7032C79.7154 8.56785 77.0049 6.06785 72.8094 3.61296C71.9184 3.09041 70.8432 2.88364 69.7079 2.61672L67.877 2.50394C67.5011 2.3498 67.1252 1.89492 66.768 1.67311C65.377 0.793416 61.8131 -1.11636 60.7831 1.39116C60.1327 2.98138 61.753 4.51146 62.3206 5.33101C62.7862 5.89605 63.199 6.5026 63.5537 7.14304C63.7455 7.56033 63.7793 7.97762 63.9297 8.41747C64.2902 9.53168 64.7157 10.6238 65.2041 11.6881C65.4625 12.2105 65.7591 12.7131 66.0913 13.1919C66.2981 13.4701 66.6477 13.5941 66.7003 14.0227C66.3582 14.5039 66.3244 15.2445 66.1477 15.8535C65.2793 18.5829 65.6064 21.9776 66.8658 24.0002C67.2417 24.6205 68.1628 25.9513 69.4184 25.44C70.5124 24.9964 70.2643 23.6129 70.58 22.3949C70.6515 22.1167 70.6064 21.9137 70.7455 21.7295V21.8047L71.7455 23.8009C72.607 25.0607 73.6745 26.1664 74.9034 27.0716C75.4785 27.5077 75.9372 28.2596 76.6778 28.5114V28.4588H76.6214C76.4785 28.2332 76.2455 28.1393 76.0688 27.9588C75.6073 27.5114 75.1801 27.0302 74.7906 26.519C73.7791 25.1066 72.878 23.6185 72.0951 22.0678C71.7191 21.316 71.3695 20.5002 71.0424 19.7408C70.9184 19.4475 70.9184 19.0077 70.6665 18.8535C70.2906 19.4099 69.7793 19.8611 69.5011 20.519C69.0575 21.5678 69.0011 22.846 68.8394 24.1769C68.7417 24.2107 68.783 24.1769 68.7267 24.2295C67.956 24.0453 67.6853 23.252 67.3958 22.5678C66.6393 20.4838 66.5617 18.2138 67.174 16.0829C67.3394 15.5716 68.0876 13.955 67.7831 13.4814C67.6402 13.0077 67.1627 12.7295 66.8996 12.3535C66.5504 11.8684 66.253 11.348 66.0124 10.8009C65.4184 9.45507 65.1402 7.94755 64.5086 6.58665C64.1594 5.92504 63.7518 5.29597 63.2906 4.70695C62.8282 4.06785 62.3131 3.57913 61.9597 2.82725C61.8319 2.55281 61.659 2.11296 61.847 1.83101C61.865 1.75178 61.9049 1.67918 61.962 1.62139C62.0191 1.5636 62.0913 1.52292 62.1703 1.50394C62.4898 1.25582 63.3883 1.58289 63.7229 1.72574C64.5557 2.052 65.3541 2.46001 66.1064 2.94379C66.4823 3.17687 66.8319 3.6468 67.268 3.77462H67.768C68.5462 3.95507 69.4222 3.83101 70.1477 4.05281C71.3813 4.44707 72.5561 5.006 73.6402 5.71447C76.8624 7.76766 79.4827 10.6383 81.2342 14.034C81.5199 14.5829 81.644 15.1092 81.8996 15.6956C82.4071 16.8686 83.05 18.0904 83.5612 19.2408C84.0093 20.392 84.5857 21.4892 85.2793 22.5114C85.6552 23.0152 87.1101 23.2859 87.7718 23.5641C88.3389 23.7513 88.8938 23.9735 89.4334 24.2295C90.2755 24.737 91.0876 25.3573 91.8733 25.8911C92.2492 26.1693 93.4748 26.7784 93.5349 27.2784H93.5237Z" fill="white"/>
<path fill-rule="evenodd" clip-rule="evenodd" d="M68.7642 6.16167C68.4274 6.15611 68.0913 6.19402 67.7642 6.27445V6.33084H67.8206C68.0517 6.68305 68.3107 7.01619 68.595 7.32708L69.1514 8.49249L69.2078 8.4361C69.3878 8.29167 69.5279 8.10358 69.6148 7.88973C69.7016 7.67588 69.7324 7.44337 69.704 7.2143C69.5649 7.07144 69.5461 6.89099 69.4258 6.71806C69.2679 6.48497 68.9559 6.34212 68.7604 6.16167H68.7642ZM92.2341 43.2331C92.2334 43.6959 92.37 44.1485 92.6266 44.5336C92.8833 44.9187 93.2484 45.219 93.6759 45.3965C94.1033 45.5739 94.5738 45.6206 95.0277 45.5305C95.4816 45.4403 95.8986 45.2176 96.2259 44.8903C96.5531 44.5631 96.7759 44.1461 96.866 43.6921C96.9561 43.2382 96.9095 42.7677 96.7321 42.3403C96.5546 41.9128 96.2543 41.5477 95.8692 41.291C95.4841 41.0344 95.0315 40.8978 94.5687 40.8985C94.261 40.8945 93.9556 40.9521 93.6705 41.068C93.3854 41.1839 93.1265 41.3557 92.9089 41.5733C92.6913 41.7909 92.5195 42.0499 92.4036 42.3349C92.2877 42.62 92.2301 42.9254 92.2341 43.2331ZM96.3694 43.2331C96.3628 43.5907 96.2506 43.9384 96.0471 44.2325C95.8436 44.5266 95.5577 44.7541 95.2254 44.8864C94.8931 45.0186 94.5291 45.0498 94.1791 44.9759C93.8291 44.9021 93.5088 44.7266 93.2582 44.4713C93.0076 44.2161 92.838 43.8925 92.7707 43.5412C92.7033 43.19 92.7412 42.8266 92.8796 42.4968C93.0179 42.167 93.2506 41.8854 93.5485 41.6873C93.8463 41.4892 94.196 41.3835 94.5536 41.3835C94.7965 41.3804 95.0375 41.4263 95.2623 41.5183C95.487 41.6104 95.691 41.7469 95.8618 41.9195C96.0327 42.0921 96.167 42.2974 96.2568 42.5231C96.3466 42.7488 96.39 42.9903 96.3845 43.2331H96.3694ZM95.1852 44.5677H95.7078L94.9559 43.3948C95.3657 43.3534 95.6777 43.1542 95.6777 42.6654C95.6777 42.1767 95.3356 41.9136 94.6739 41.9136H93.6326V44.579H94.0837V43.4248H94.501L95.2003 44.579L95.1852 44.5677ZM94.0574 43.0414V42.2895H94.5724C94.8431 42.2895 95.1664 42.3384 95.1664 42.6654C95.1664 43.0414 94.8732 43.0714 94.5348 43.0714L94.0574 43.0414Z" fill="white"/>
</svg>
