<svg width="83" height="50" viewBox="0 0 83 50" fill="none" xmlns="http://www.w3.org/2000/svg">
<g clip-path="url(#clip0)">
<path d="M19.5469 13.0421H35.178V14.288H20.9871V23.6246H34.3366V24.8706H20.9871V35.1295H35.3398V36.3754H19.5469V13.0421V13.0421ZM36.5696 13.0421H38.2362L45.5987 23.301L53.123 13.0421L63.3333 0L46.5372 24.3689L55.1942 36.3592H53.4628L45.5825 25.4369L37.6699 36.3592H35.9709L44.6926 24.3689L36.5696 13.0421ZM55.8091 14.2718V13.0259H73.6084V14.2718H65.4045V36.3592H63.9644V14.2718H55.8091ZM0 13.0421H1.79612L26.4887 49.9838L16.2783 36.3754L1.50485 14.8058L1.44013 36.3754H0V13.0421ZM73.479 34.7573C73.1877 34.7573 72.9612 34.5307 72.9612 34.2395C72.9612 33.9482 73.1877 33.7217 73.479 33.7217C73.7702 33.7217 73.9968 33.9482 73.9968 34.2395C73.9968 34.5307 73.7702 34.7573 73.479 34.7573ZM74.8867 33.3819H75.6472C75.6634 33.8026 75.9547 34.0777 76.4078 34.0777C76.9094 34.0777 77.1845 33.7702 77.1845 33.2201V29.6602H77.9612V33.2201C77.9612 34.2395 77.3786 34.822 76.4078 34.822C75.5016 34.822 74.8867 34.2557 74.8867 33.3819ZM78.9968 33.3495H79.7735C79.8382 33.835 80.3074 34.1262 80.9871 34.1262C81.6181 34.1262 82.0712 33.8026 82.0712 33.3495C82.0712 32.9612 81.7799 32.7346 81.1165 32.5728L80.4693 32.411C79.5631 32.2006 79.1424 31.7638 79.1424 31.0194C79.1424 30.1295 79.8705 29.5307 80.9709 29.5307C81.9903 29.5307 82.7346 30.1295 82.7832 30.9709H82.0226C81.9417 30.5016 81.5372 30.2104 80.9547 30.2104C80.3398 30.2104 79.9191 30.5016 79.9191 30.9547C79.9191 31.3107 80.178 31.521 80.8414 31.6667L81.3916 31.7961C82.4272 32.0388 82.8479 32.4595 82.8479 33.2201C82.8479 34.1748 82.1036 34.7896 80.9061 34.7896C79.7896 34.822 79.0453 34.2395 78.9968 33.3495Z" fill="white"/>
</g>
<defs>
<clipPath id="clip0">
<rect width="82.8479" height="50" fill="white"/>
</clipPath>
</defs>
</svg>
