<svg width="44" height="50" viewBox="0 0 44 50" fill="none" xmlns="http://www.w3.org/2000/svg">
<g clip-path="url(#clip0)">
<path d="M22.0623 49.6093C21.408 49.6093 20.744 49.4336 20.1678 49.1015L14.1424 45.5371C13.244 45.0293 13.6834 44.8535 13.9764 44.7558C15.1776 44.3359 15.4217 44.248 16.701 43.5156C16.8377 43.4375 17.0135 43.4668 17.1502 43.5547L21.7791 46.2988C21.9451 46.3965 22.1795 46.3965 22.3358 46.2988L40.3729 35.8886C40.5389 35.791 40.6463 35.5957 40.6463 35.4004V14.58C40.6463 14.375 40.5389 14.1894 40.3631 14.082L22.3358 3.68161C22.1697 3.58395 21.9451 3.58395 21.7791 3.68161L3.76154 14.0918C3.58575 14.1894 3.47833 14.3847 3.47833 14.5898V35.4004C3.47833 35.5957 3.58575 35.791 3.76154 35.8789L8.70294 38.7304C11.3885 40.0683 13.0291 38.4961 13.0291 36.9043V16.3574C13.0291 16.0644 13.2635 15.8398 13.5565 15.8398H15.8416C16.1248 15.8398 16.369 16.0644 16.369 16.3574V36.914C16.369 40.4883 14.4158 42.539 11.0272 42.539C9.98224 42.539 9.16193 42.539 6.87677 41.4062L2.15021 38.6816C0.978332 38.0078 0.255676 36.748 0.255676 35.3906V14.58C0.255676 13.2324 0.978332 11.9629 2.15021 11.289L20.1678 0.878876C21.3104 0.234344 22.824 0.234344 23.9568 0.878876L41.994 11.2988C43.1658 11.9726 43.8885 13.2324 43.8885 14.5898V35.4004C43.8885 36.748 43.1658 38.0078 41.994 38.6914L23.9568 49.1015C23.3807 49.4336 22.7264 49.6093 22.0623 49.6093ZM36.6229 29.0918C36.6229 25.1953 33.9861 24.1601 28.449 23.4277C22.8436 22.6855 22.2772 22.3047 22.2772 20.9961C22.2772 19.9121 22.7557 18.4668 26.9061 18.4668C30.6072 18.4668 31.9744 19.2675 32.5408 21.7675C32.5897 22.0019 32.8045 22.1777 33.0486 22.1777H35.3924C35.5389 22.1777 35.6756 22.1191 35.7733 22.0117C35.8709 21.9043 35.9197 21.7578 35.91 21.6113C35.5486 17.3047 32.6873 15.3027 26.9061 15.3027C21.7596 15.3027 18.6932 17.4707 18.6932 21.1133C18.6932 25.0586 21.7498 26.1523 26.6815 26.6406C32.5897 27.2168 33.0486 28.0859 33.0486 29.248C33.0486 31.2597 31.4275 32.1191 27.6287 32.1191C22.8533 32.1191 21.8084 30.9179 21.4568 28.5449C21.4178 28.291 21.2029 28.1054 20.9393 28.1054H18.6053C18.3123 28.1054 18.0877 28.3398 18.0877 28.623C18.0877 31.6601 19.7381 35.2832 27.6385 35.2832C33.3416 35.2734 36.6229 33.0175 36.6229 29.0918Z" fill="white"/>
</g>
<defs>
<clipPath id="clip0">
<rect width="43.75" height="50" fill="white" transform="translate(0.1875)"/>
</clipPath>
</defs>
</svg>
