<svg width="49" height="50" viewBox="0 0 49 50" fill="none" xmlns="http://www.w3.org/2000/svg">
<g clip-path="url(#clip0)">
<path d="M30.6543 3.19336C14.0332 3.19336 5.98633 25.0488 16.25 37.8711C19.8145 42.3047 24.9023 45.2539 30.6543 45.2539C34.1992 45.2539 37.5195 44.1699 40.3613 42.2852C36.084 46.1133 30.4102 48.4375 24.2188 48.4375C23.8379 48.4375 23.4375 48.4375 23.0566 48.4082C10.2148 47.8125 0 37.2168 0 24.2188C0 10.8398 10.8398 0 24.2188 0H24.2969C30.459 0.0292969 36.084 2.35352 40.3516 6.16211C37.5195 4.26758 34.1895 3.19336 30.6543 3.19336ZM40.5957 42.0312C36.6016 44.4434 31.7383 44.3359 27.7051 41.4648C33.1934 39.4629 37.2461 32.5195 37.2461 24.2188C37.2461 15.9473 33.2227 9.00391 27.7344 6.97266C31.8164 4.12109 36.6406 4.01367 40.7129 6.48438C51.0547 16.123 51.0156 32.4316 40.5957 42.0312Z" fill="white"/>
</g>
<defs>
<clipPath id="clip0">
<rect width="48.4375" height="50" fill="white"/>
</clipPath>
</defs>
</svg>
