<svg width="38" height="50" viewBox="0 0 38 50" fill="none" xmlns="http://www.w3.org/2000/svg">
<path d="M11.3164 28.8965C10.9746 30.7715 9.61718 39.5118 9.21679 41.9825C9.18749 42.1583 9.11913 42.2266 8.92382 42.2266H1.63866C0.896481 42.2266 0.359371 41.5821 0.457028 40.8692L6.17968 4.5508C6.32616 3.6133 7.16601 2.90041 8.13281 2.90041C23.0059 2.90041 24.2559 2.53908 28.0547 4.01369C33.9238 6.28908 34.461 11.7774 32.3516 17.7149C30.252 23.8282 25.2715 26.4551 18.6699 26.5333C14.4317 26.6016 11.8828 25.8497 11.3164 28.8965ZM35.3106 14.8438C35.1348 14.7169 35.0664 14.668 35.0176 14.9708C34.8223 16.084 34.5195 17.168 34.1582 18.252C30.2617 29.3653 19.461 28.3985 14.1875 28.3985C13.5918 28.3985 13.2012 28.7208 13.1231 29.3165C10.916 43.0274 10.4766 45.8887 10.4766 45.8887C10.3789 46.5821 10.8184 47.1485 11.5117 47.1485H17.7129C18.5527 47.1485 19.2461 46.5333 19.4121 45.6934C19.4805 45.1661 19.3047 46.2891 20.8184 36.7774C21.2676 34.629 22.2149 34.8536 23.6797 34.8536C30.6133 34.8536 36.0235 32.0411 37.6348 23.8868C38.2695 20.4883 38.084 16.9141 35.3106 14.8438Z" fill="white"/>
</svg>
