<svg width="51" height="50" viewBox="0 0 51 50" fill="none" xmlns="http://www.w3.org/2000/svg">
<g clip-path="url(#clip0)">
<path d="M48.9336 2.40242L38.7773 0.0586732C37.6738 -0.195233 36.541 0.380939 36.0918 1.41609L31.4043 12.3536C30.9941 13.3106 31.2676 14.4337 32.0781 15.0879L37.9961 19.9317C34.4805 27.4219 28.3379 33.6524 20.6914 37.2364L15.8477 31.3184C15.1836 30.5079 14.0703 30.2344 13.1133 30.6446L2.17582 35.3321C1.1309 35.7911 0.554728 36.9239 0.808634 38.0274L3.15239 48.1836C3.39653 49.2383 4.33403 50.0001 5.43754 50.0001C30.4473 50.0001 50.75 29.7364 50.75 4.68758C50.75 3.59383 49.998 2.64656 48.9336 2.40242Z" fill="white"/>
</g>
<defs>
<clipPath id="clip0">
<rect width="51" height="50" fill="white"/>
</clipPath>
</defs>
</svg>
