<svg width="51" height="50" viewBox="0 0 51 50" fill="none" xmlns="http://www.w3.org/2000/svg">
<g clip-path="url(#clip0)">
<path d="M48.9337 2.4023L38.7774 0.0585512C37.6739 -0.195355 36.5411 0.380817 36.0919 1.41597L31.4044 12.3535C30.9942 13.3105 31.2677 14.4336 32.0782 15.0878L37.9962 19.9316C34.4806 27.4218 28.338 33.6523 20.6915 37.2363L15.8478 31.3183C15.1837 30.5078 14.0704 30.2343 13.1134 30.6445L2.17588 35.332C1.13096 35.791 0.554789 36.9238 0.808695 38.0273L3.15245 48.1835C3.39659 49.2382 4.33409 50 5.4376 50C30.4474 50 50.7501 29.7363 50.7501 4.68746C50.7501 3.59371 49.9981 2.64644 48.9337 2.4023Z" fill="white"/>
</g>
<defs>
<clipPath id="clip0">
<rect width="50" height="50" fill="white" transform="translate(0.75)"/>
</clipPath>
</defs>
</svg>
