<svg width="52" height="50" viewBox="0 0 52 50" fill="none" xmlns="http://www.w3.org/2000/svg">
<path d="M18.8504 15.1282C18.1655 15.1032 17.4796 15.1318 16.7991 15.2137V23.5043H18.5085C21.0085 23.5043 23.3803 22.6496 23.3803 19.2308C23.3803 16.4957 21.6709 15.1282 18.8504 15.1282Z" fill="white"/>
<path d="M41.8632 2.13675H10.2393C8.19918 2.13675 6.24261 2.94719 4.80002 4.38977C3.35743 5.83236 2.547 7.78893 2.547 9.82906V40.1709C2.547 42.2111 3.35743 44.1676 4.80002 45.6102C6.24261 47.0528 8.19918 47.8632 10.2393 47.8632H41.8632C42.8734 47.8632 43.8737 47.6643 44.807 47.2777C45.7402 46.8911 46.5882 46.3245 47.3025 45.6102C48.0168 44.8959 48.5834 44.0479 48.97 43.1147C49.3566 42.1814 49.5555 41.1811 49.5555 40.1709V9.82906C49.5555 8.81889 49.3566 7.81861 48.97 6.88534C48.5834 5.95206 48.0168 5.10407 47.3025 4.38977C46.5882 3.67548 45.7402 3.10887 44.807 2.72229C43.8737 2.33572 42.8734 2.13675 41.8632 2.13675ZM18.4658 27.0085H16.8632V35.2137C16.8678 35.2428 16.8666 35.2725 16.8597 35.3012C16.8527 35.3298 16.8402 35.3568 16.8229 35.3806C16.8055 35.4044 16.7836 35.4246 16.7585 35.4399C16.7333 35.4553 16.7054 35.4655 16.6763 35.4701H13.2308C13.2016 35.4746 13.1719 35.4734 13.1433 35.4665C13.1146 35.4596 13.0876 35.4471 13.0638 35.4297C13.04 35.4124 13.0199 35.3905 13.0045 35.3653C12.9892 35.3402 12.9789 35.3122 12.9743 35.2831C12.9691 35.2603 12.9691 35.2365 12.9743 35.2137L13.0598 12.1367C13.0598 11.9658 13.4017 11.8803 13.594 11.8803C14.9615 11.7949 17.0128 11.7949 19.0641 11.7949C24.9402 11.7949 27.2692 15.0427 27.2692 19.2308C27.2692 24.7009 23.3376 27.0085 18.4658 27.0085ZM33.9145 35.7265C32.3773 35.7947 30.848 35.4712 29.4701 34.7863C29.2991 34.7009 29.2991 34.6154 29.2991 34.4444V31.282C29.2991 31.1111 29.3846 31.0256 29.5555 31.1111C30.8197 31.9563 32.3084 32.4029 33.829 32.3932C35.5385 32.3932 36.2222 31.7094 36.2222 30.7906C36.2222 30.0214 35.688 29.3376 33.5513 28.2265C30.5598 26.7735 29.2778 25.3205 29.2778 22.8419C29.2778 20.1068 31.4145 17.7991 35.1538 17.7991C36.4627 17.7454 37.7693 17.9487 39 18.3974C39.0381 18.4111 39.0731 18.4323 39.103 18.4597C39.1329 18.487 39.157 18.5201 39.1739 18.5569C39.1908 18.5937 39.2002 18.6336 39.2015 18.674C39.2028 18.7145 39.1961 18.7549 39.1816 18.7927C39.1839 18.8033 39.1839 18.8142 39.1816 18.8248V21.7308C39.1816 21.9017 39.0961 21.9872 38.8397 21.9017C37.7245 21.2921 36.478 20.9622 35.2073 20.9402C33.4979 20.9402 32.985 21.7949 32.985 22.4786C32.985 23.1624 33.4124 23.7607 35.656 24.9573C38.9893 26.5598 40.1004 28.1197 40.1004 30.4273C40.0684 33.8462 37.5043 35.7265 33.9145 35.7265Z" fill="white"/>
</svg>
