<svg width="50" height="50" viewBox="0 0 50 50" fill="none" xmlns="http://www.w3.org/2000/svg">
<path d="M49.375 25C49.375 38.3789 38.5352 49.2188 25.1562 49.2188C22.6562 49.2188 20.2539 48.8379 17.9883 48.1348C18.9746 46.5234 20.4492 43.8867 20.9961 41.7871C21.2891 40.6543 22.5 36.0254 22.5 36.0254C23.291 37.5293 25.5957 38.8086 28.0469 38.8086C35.3516 38.8086 40.6152 32.0898 40.6152 23.7402C40.6152 15.7422 34.082 9.75586 25.6836 9.75586C15.2344 9.75586 9.67773 16.7676 9.67773 24.4141C9.67773 27.9688 11.5723 32.3926 14.5898 33.7988C15.0488 34.0137 15.293 33.916 15.4004 33.4766C15.4785 33.1445 15.8887 31.4941 16.0742 30.7324C16.1328 30.4883 16.1035 30.2734 15.9082 30.0391C14.9219 28.8184 14.1211 26.5918 14.1211 24.5117C14.1211 19.1699 18.1641 14.0039 25.0586 14.0039C31.0059 14.0039 35.1758 18.0566 35.1758 23.8574C35.1758 30.4102 31.8652 34.9512 27.5586 34.9512C25.1855 34.9512 23.3984 32.9883 23.9746 30.5762C24.6582 27.6953 25.9766 24.5898 25.9766 22.5098C25.9766 20.6543 24.9805 19.1016 22.9102 19.1016C20.4785 19.1016 18.5254 21.6113 18.5254 24.9805C18.5254 27.1289 19.248 28.5742 19.248 28.5742C19.248 28.5742 16.8555 38.7109 16.416 40.6055C15.9277 42.6953 16.123 45.6445 16.3281 47.5586C7.32422 44.0332 0.9375 35.2637 0.9375 25C0.9375 11.6211 11.7773 0.78125 25.1562 0.78125C38.5352 0.78125 49.375 11.6211 49.375 25Z" fill="white"/>
</svg>
