<svg width="57" height="50" viewBox="0 0 57 50" fill="none" xmlns="http://www.w3.org/2000/svg">
<g clip-path="url(#clip0)">
<path d="M47.6253 18.75H36.4641L26.2005 0.787109C26.0636 0.547956 25.866 0.349209 25.6276 0.210989C25.3892 0.0727686 25.1186 -1.7278e-05 24.843 3.07648e-09H18.4466C17.4085 3.07648e-09 16.6594 0.993164 16.9446 1.99121L21.7327 18.75H11.6878L7.46898 13.125C7.17406 12.7314 6.71019 12.5 6.21898 12.5H2.3137C1.2971 12.5 0.551011 13.4551 0.798081 14.4414L3.87523 25L0.798081 35.5586C0.551011 36.5449 1.2971 37.5 2.3137 37.5H6.21898C6.71117 37.5 7.17406 37.2686 7.46898 36.875L11.6878 31.25H21.7327L16.9446 48.0078C16.6594 49.0059 17.4085 50 18.4466 50H24.843C25.4036 50 25.9212 49.6992 26.1995 49.2129L36.4641 31.25H47.6253C51.0774 31.25 57.0003 28.4521 57.0003 25C57.0003 21.5479 51.0774 18.75 47.6253 18.75Z" fill="white"/>
</g>
<defs>
<clipPath id="clip0">
<rect width="57" height="50" fill="white"/>
</clipPath>
</defs>
</svg>
