<svg width="57" height="50" viewBox="0 0 57 50" fill="none" xmlns="http://www.w3.org/2000/svg">
<g clip-path="url(#clip0)">
<path d="M47.6252 18.75H36.464L26.2004 0.787109C26.0635 0.547956 25.8659 0.349209 25.6275 0.210989C25.3891 0.0727686 25.1185 -1.7278e-05 24.8429 3.07649e-09L18.4465 3.07649e-09C17.4084 3.07649e-09 16.6593 0.993164 16.9445 1.99121L21.7326 18.75H11.6877L7.46892 13.125C7.174 12.7314 6.71013 12.5 6.21892 12.5H2.31364C1.29704 12.5 0.55095 13.4551 0.79802 14.4414L3.87517 25L0.79802 35.5586C0.55095 36.5449 1.29704 37.5 2.31364 37.5H6.21892C6.71111 37.5 7.174 37.2686 7.46892 36.875L11.6877 31.25H21.7326L16.9445 48.0078C16.6593 49.0059 17.4084 50 18.4465 50H24.8429C25.4035 50 25.9211 49.6992 26.1994 49.2129L36.464 31.25H47.6252C51.0773 31.25 57.0002 28.4521 57.0002 25C57.0002 21.5479 51.0773 18.75 47.6252 18.75Z" fill="white"/>
</g>
<defs>
<clipPath id="clip0">
<rect width="56.25" height="50" fill="white" transform="translate(0.75)"/>
</clipPath>
</defs>
</svg>
