<svg width="53" height="50" viewBox="0 0 53 50" fill="none" xmlns="http://www.w3.org/2000/svg">
<path d="M20.0513 16.1325C19.2179 16.1325 18.4487 16.1752 18.0641 16.1966V24.2521C18.5555 24.2949 18.9188 24.2949 19.7521 24.2949C22.188 24.2949 24.4743 23.4402 24.4743 20.1282C24.4316 17.4786 22.8077 16.1325 20.0513 16.1325Z" fill="white"/>
<path d="M42.2735 2.13675H10.6496C8.60946 2.13675 6.65289 2.94719 5.2103 4.38977C3.76771 5.83236 2.95728 7.78893 2.95728 9.82906V40.1709C2.95728 42.2111 3.76771 44.1676 5.2103 45.6102C6.65289 47.0528 8.60946 47.8632 10.6496 47.8632H42.2735C43.2837 47.8632 44.284 47.6643 45.2172 47.2777C46.1505 46.8911 46.9985 46.3245 47.7128 45.6102C48.4271 44.8959 48.9937 44.0479 49.3803 43.1147C49.7669 42.1814 49.9658 41.1811 49.9658 40.1709V9.82906C49.9658 8.81889 49.7669 7.81861 49.3803 6.88534C48.9937 5.95206 48.4271 5.10407 47.7128 4.38977C46.9985 3.67548 46.1505 3.10887 45.2172 2.72229C44.284 2.33572 43.2837 2.13675 42.2735 2.13675ZM19.6453 27.6282C18.8547 27.6282 18.5769 27.5855 18.0427 27.5855V35.5983C18.0427 35.7692 17.9786 35.8333 17.8077 35.8333H14.6026C14.4316 35.8333 14.3675 35.7692 14.3675 35.5983V13.1624C14.3675 13.0342 14.4103 12.9273 14.5812 12.9273C15.9274 12.8632 17.8932 12.8205 19.9231 12.8205C25.6496 12.8205 28.171 16.0256 28.171 20.0641C28.171 25.3632 24.3248 27.6282 19.6453 27.6282ZM39.047 15.7906C39.047 15.9615 38.9829 16.0256 38.812 16.0043C38.51 15.9383 38.2022 15.9025 37.8932 15.8974C36.6966 15.8974 36.0983 16.7521 36.0983 18.4188V19.4872H38.812C38.9829 19.4872 39.0257 19.5299 39.0257 19.6581V22.5214C39.0257 22.6923 38.9829 22.735 38.812 22.7564H36.0769V35.5769C36.0769 35.7051 36.0342 35.812 35.8419 35.812H32.594C32.5623 35.8153 32.5303 35.8116 32.5002 35.8009C32.4702 35.7903 32.4429 35.7731 32.4204 35.7506C32.3978 35.728 32.3806 35.7007 32.37 35.6707C32.3594 35.6407 32.3556 35.6086 32.359 35.5769V22.7564H30.4145C30.2863 22.7564 30.2436 22.6923 30.2436 22.5214V19.7009C30.2436 19.5299 30.2863 19.4872 30.4145 19.4872H32.3376V18.4188C32.3024 17.2764 32.5367 16.1419 33.0214 15.1068C33.8761 13.3547 35.3504 12.5641 37.4231 12.5641C37.8995 12.5394 38.3766 12.5972 38.8333 12.735C39.0043 12.7991 39.047 12.8632 39.047 13.0342V15.7906Z" fill="white"/>
</svg>
