<svg width="51" height="50" viewBox="0 0 51 50" fill="none" xmlns="http://www.w3.org/2000/svg">
<path d="M27.1572 44.375C27.626 45.625 28.5635 47.8125 32.0791 47.1094C35.0479 46.4844 36.1416 45.3907 36.6104 42.5L37.8603 32.7344C37.7822 30.1563 39.1885 29.6875 39.9697 29.4532C39.8634 29.2785 39.7317 29.1205 39.5791 28.9844C38.919 28.2466 38.3905 27.401 38.0166 26.4844L37.4697 25.3907C35.9853 22.8125 33.0166 17.3438 34.9697 14.5313C35.9072 13.2813 37.626 12.7344 40.2822 12.9688C39.4229 10.5469 35.751 3.28128 27.1572 3.20315C25.9793 3.13559 24.8004 3.31627 23.6968 3.73348C22.5932 4.1507 21.5896 4.79513 20.751 5.62503C18.1729 8.20315 17.4697 12.2657 17.3135 14.4532C18.4842 13.8284 19.752 13.4058 21.0635 13.2032C23.4072 12.9688 25.0479 13.9844 25.5166 16.1719C26.7666 21.9532 25.5947 24.5313 24.7354 26.4063C24.5714 26.7309 24.4405 27.0711 24.3447 27.4219L24.2666 27.6563C24.0322 28.3594 23.7979 28.9844 23.6416 29.5313C24.1156 29.4464 24.604 29.5007 25.0479 29.6875C25.4281 29.8689 25.7646 30.1304 26.0343 30.4541C26.304 30.7777 26.5005 31.1558 26.6104 31.5625C26.6687 31.7387 26.6951 31.9239 26.6885 32.1094V32.1875C26.4541 37.9688 26.6885 43.2813 27.1572 44.375Z" fill="white"/>
<path d="M17.626 28.5937C16.8574 27.7942 16.2818 26.8294 15.9433 25.7732C15.6048 24.717 15.5123 23.5974 15.6729 22.5C15.9076 20.5822 15.9599 18.6464 15.8291 16.7187V16.0937C15.8291 15.7812 15.6729 8.82812 19.7354 4.76562L19.8135 4.68749C17.3916 3.90624 11.2979 2.34374 7.62598 4.92187C5.36036 6.56249 4.34473 9.53124 4.50098 13.8281C4.98483 17.5637 5.79523 21.2497 6.92286 24.8437C8.64161 30.3906 10.5166 33.9062 12.2354 34.4531C12.4697 34.5312 13.251 34.7656 14.4229 33.4375C15.9854 31.5625 17.4697 29.9219 18.1729 29.1406L17.626 28.5937Z" fill="white"/>
<path d="M45.0479 32.3438C45.7534 32.019 46.4106 31.5984 47.001 31.0938C44.1104 31.7188 42.0791 31.6406 40.9072 30.8594C40.8291 30.7813 40.751 30.7813 40.751 30.7031C40.6593 30.7653 40.5486 30.7929 40.4385 30.7813C39.8135 30.9375 39.1885 31.1719 39.2666 32.8125C39.8135 33.2813 43.1729 33.2031 45.0479 32.3438Z" fill="white"/>
<path d="M32.9385 3.12506C35.0744 4.14745 36.9713 5.60795 38.5057 7.41159C40.0402 9.21522 41.1778 11.3216 41.8447 13.5938C41.857 13.7541 41.8302 13.9149 41.7666 14.0626C41.7733 14.9275 41.6948 15.7911 41.5322 16.6407C41.4028 17.3634 41.3245 18.0944 41.2979 18.8282C41.2979 19.6094 41.376 20.3907 41.4541 21.2501C41.6885 23.3594 42.001 25.6251 40.5947 28.0469L40.6729 28.1251C40.751 28.2032 40.751 28.2813 40.8291 28.3594C46.376 19.6094 48.251 9.53131 46.5322 7.26568C42.3916 1.95318 36.0635 2.42193 32.9385 3.12506Z" fill="white"/>
<path d="M25.0479 32.8126C25.1345 32.67 25.1879 32.5098 25.2041 32.3438C25.2245 32.2085 25.1968 32.0703 25.126 31.9532C25.0052 31.5697 24.7571 31.239 24.4229 31.0157C24.3423 30.9596 24.2508 30.921 24.1544 30.9024C24.058 30.8838 23.9587 30.8856 23.8631 30.9077C23.7674 30.9297 23.6774 30.9716 23.5989 31.0306C23.5204 31.0896 23.4551 31.1643 23.4072 31.2501L23.3291 31.3282C23.1125 31.6041 22.8776 31.8651 22.626 32.1094C21.7666 33.2032 21.376 33.5938 18.876 34.0625C18.5218 34.1069 18.1782 34.2126 17.8604 34.3751C18.1443 34.5654 18.4628 34.6981 18.7979 34.7657C20.6729 35.3125 23.3291 35.3126 25.0479 32.8126Z" fill="white"/>
<path d="M24.1104 16.4844C24.0593 16.0509 23.8735 15.6443 23.5792 15.322C23.2849 14.9996 22.8968 14.7777 22.4697 14.6875C20.5166 14.2188 17.8604 15.7032 17.2354 16.1719V16.5625C17.4059 18.5934 17.3536 20.6368 17.0791 22.6563C16.9451 23.5416 17.0163 24.4458 17.2872 25.2992C17.5581 26.1526 18.0215 26.9323 18.6416 27.5782C19.1014 28.0712 19.6577 28.4643 20.276 28.7331C20.8942 29.0019 21.5612 29.1407 22.2354 29.1407C22.4236 28.4485 22.6585 27.7699 22.9385 27.1094L23.0166 26.875C23.1729 26.4844 23.3291 26.1719 23.4854 25.7813C24.1885 24.0625 25.2041 21.875 24.1104 16.4844ZM22.2354 17.1094H22.0791C21.6773 17.0277 21.3175 16.8062 21.0635 16.4844C20.9393 16.3255 20.8585 16.1371 20.8291 15.9375C20.8291 15.8594 20.9072 15.7813 20.9854 15.625C21.347 15.4417 21.7602 15.3866 22.1572 15.4688C22.5694 15.4747 22.9625 15.6431 23.251 15.9375C23.3053 16.0325 23.3324 16.1407 23.3291 16.25C23.4072 16.5625 22.8604 17.1094 22.2354 17.1094Z" fill="white"/>
<path d="M39.8916 18.7501C39.9231 17.9648 40.0014 17.1822 40.126 16.4063C40.2425 15.7605 40.3208 15.1083 40.3603 14.4532C38.7197 14.2188 36.8447 14.2969 36.0635 15.3907C34.5791 17.5001 37.4697 22.5782 38.6416 24.7657C38.8975 25.1568 39.1072 25.5763 39.2666 26.0157C39.349 26.2736 39.4818 26.5126 39.6572 26.7188C40.2871 25.0205 40.4226 23.1785 40.0478 21.4063C39.9697 20.5469 39.8916 19.6094 39.8916 18.7501ZM37.9385 16.4844H37.7822C37.5052 16.4796 37.2349 16.3985 37.001 16.2501C36.8447 16.0938 36.6885 15.9376 36.6885 15.7813C36.6103 15.4688 37.2354 15.1563 37.7822 15.0782C38.1533 14.9868 38.5453 15.0428 38.876 15.2344C38.9541 15.3126 39.0322 15.3907 39.0322 15.4688C39.1103 15.7813 38.5635 16.4063 37.9385 16.4844Z" fill="white"/>
</svg>
