<svg width="51" height="50" viewBox="0 0 51 50" fill="none" xmlns="http://www.w3.org/2000/svg">
<path d="M27.1572 44.3751C27.626 45.6251 28.5635 47.8126 32.0791 47.1095C35.0479 46.4845 36.1416 45.3908 36.6104 42.5001L37.8603 32.7345C37.7822 30.1564 39.1885 29.6876 39.9697 29.4533C39.8634 29.2786 39.7317 29.1206 39.5791 28.9845C38.919 28.2467 38.3905 27.4011 38.0166 26.4845L37.4697 25.3908C35.9853 22.8126 33.0166 17.3439 34.9697 14.5314C35.9072 13.2814 37.626 12.7345 40.2822 12.9689C39.4229 10.547 35.751 3.2814 27.1572 3.20327C25.9793 3.13571 24.8004 3.31639 23.6968 3.7336C22.5932 4.15082 21.5896 4.79525 20.751 5.62515C18.1729 8.20327 17.4697 12.2658 17.3135 14.4533C18.4842 13.8285 19.752 13.4059 21.0635 13.2033C23.4072 12.9689 25.0479 13.9845 25.5166 16.172C26.7666 21.9533 25.5947 24.5314 24.7354 26.4064C24.5714 26.731 24.4405 27.0712 24.3447 27.422L24.2666 27.6564C24.0322 28.3595 23.7979 28.9845 23.6416 29.5314C24.1156 29.4465 24.604 29.5008 25.0479 29.6876C25.4281 29.869 25.7646 30.1305 26.0343 30.4542C26.304 30.7778 26.5005 31.1559 26.6104 31.5626C26.6687 31.7388 26.6951 31.924 26.6885 32.1095V32.1876C26.4541 37.9689 26.6885 43.2814 27.1572 44.3751Z" fill="white"/>
<path d="M17.626 28.5936C16.8574 27.7941 16.2818 26.8293 15.9433 25.7731C15.6048 24.7169 15.5123 23.5973 15.6729 22.4999C15.9076 20.5821 15.9599 18.6463 15.8291 16.7186V16.0936C15.8291 15.7811 15.6729 8.828 19.7354 4.7655L19.8135 4.68737C17.3916 3.90612 11.2979 2.34362 7.62595 4.92175C5.36033 6.56237 4.3447 9.53112 4.50095 13.828C4.9848 17.5636 5.7952 21.2496 6.92283 24.8436C8.64158 30.3905 10.5166 33.9061 12.2354 34.453C12.4697 34.5311 13.251 34.7655 14.4229 33.4374C15.9854 31.5624 17.4697 29.9218 18.1729 29.1405L17.626 28.5936ZM45.0479 32.3437C45.7534 32.0189 46.4106 31.5983 47.001 31.0937C44.1104 31.7187 42.0791 31.6405 40.9072 30.8593C40.8291 30.7812 40.751 30.7812 40.751 30.703C40.6593 30.7652 40.5486 30.7928 40.4385 30.7812C39.8135 30.9374 39.1885 31.1718 39.2666 32.8124C39.8135 33.2812 43.1729 33.203 45.0479 32.3437ZM32.9385 3.12494C35.0744 4.14733 36.9713 5.60783 38.5057 7.41147C40.0402 9.2151 41.1778 11.3215 41.8447 13.5937C41.857 13.754 41.8302 13.9148 41.7666 14.0625C41.7733 14.9274 41.6948 15.791 41.5322 16.6406C41.4028 17.3633 41.3245 18.0943 41.2979 18.8281C41.2979 19.6093 41.376 20.3906 41.4541 21.25C41.6885 23.3593 42.001 25.625 40.5947 28.0468L40.6729 28.125C40.751 28.2031 40.751 28.2812 40.8291 28.3593C46.376 19.6093 48.251 9.53119 46.5322 7.26556C42.3916 1.95306 36.0635 2.42181 32.9385 3.12494ZM25.0479 32.8125C25.1345 32.6699 25.1879 32.5097 25.2041 32.3437C25.2245 32.2084 25.1968 32.0702 25.126 31.9531C25.0052 31.5696 24.7571 31.2389 24.4229 31.0156C24.3423 30.9595 24.2508 30.9209 24.1544 30.9023C24.058 30.8837 23.9587 30.8855 23.8631 30.9076C23.7674 30.9296 23.6774 30.9715 23.5989 31.0305C23.5204 31.0895 23.4551 31.1642 23.4072 31.25L23.3291 31.3281C23.1125 31.604 22.8776 31.865 22.626 32.1093C21.7666 33.2031 21.376 33.5937 18.876 34.0624C18.5218 34.1068 18.1782 34.2125 17.8604 34.375C18.1443 34.5653 18.4628 34.698 18.7979 34.7656C20.6729 35.3124 23.3291 35.3125 25.0479 32.8125Z" fill="white"/>
<path d="M24.1103 16.4844C24.0592 16.0509 23.8734 15.6443 23.5791 15.322C23.2848 14.9996 22.8967 14.7777 22.4696 14.6875C20.5165 14.2188 17.8603 15.7032 17.2353 16.1719V16.5625C17.4058 18.5934 17.3535 20.6368 17.079 22.6563C16.945 23.5416 17.0162 24.4458 17.2871 25.2992C17.558 26.1526 18.0214 26.9323 18.6415 27.5782C19.1013 28.0712 19.6576 28.4643 20.2759 28.7331C20.8941 29.0019 21.5611 29.1407 22.2353 29.1407C22.4235 28.4485 22.6584 27.7699 22.9384 27.1094L23.0165 26.875C23.1728 26.4844 23.329 26.1719 23.4853 25.7813C24.1884 24.0625 25.204 21.875 24.1103 16.4844ZM22.2353 17.1094H22.079C21.6772 17.0277 21.3174 16.8062 21.0634 16.4844C20.9392 16.3255 20.8584 16.1371 20.829 15.9375C20.829 15.8594 20.9071 15.7813 20.9853 15.625C21.3469 15.4417 21.7601 15.3866 22.1571 15.4688C22.5693 15.4747 22.9624 15.6431 23.2509 15.9375C23.3052 16.0325 23.3323 16.1407 23.329 16.25C23.4071 16.5625 22.8603 17.1094 22.2353 17.1094ZM39.8915 18.7501C39.923 17.9648 40.0013 17.1822 40.1259 16.4063C40.2424 15.7605 40.3207 15.1083 40.3602 14.4532C38.7196 14.2188 36.8446 14.2969 36.0634 15.3907C34.579 17.5001 37.4696 22.5782 38.6415 24.7657C38.8974 25.1568 39.1071 25.5763 39.2665 26.0157C39.3489 26.2736 39.4817 26.5126 39.6571 26.7188C40.287 25.0205 40.4225 23.1785 40.0477 21.4063C39.9696 20.5469 39.8915 19.6094 39.8915 18.7501ZM37.9384 16.4844H37.7821C37.5051 16.4796 37.2348 16.3985 37.0009 16.2501C36.8446 16.0938 36.6884 15.9376 36.6884 15.7813C36.6102 15.4688 37.2353 15.1563 37.7821 15.0782C38.1532 14.9868 38.5452 15.0428 38.8759 15.2344C38.954 15.3126 39.0321 15.3907 39.0321 15.4688C39.1102 15.7813 38.5634 16.4063 37.9384 16.4844Z" fill="white"/>
</svg>
