<svg width="52" height="50" viewBox="0 0 52 50" fill="none" xmlns="http://www.w3.org/2000/svg">
<path d="M20.4968 15.7906C19.6421 15.7906 18.8301 15.8333 18.4455 15.8547V24.1026C18.9369 24.1453 19.3216 24.1453 20.1763 24.1453C22.6763 24.1453 24.984 23.2692 24.984 19.8718C25.0053 17.1581 23.36 15.7906 20.4968 15.7906Z" fill="white"/>
<path d="M41.5812 2.13675H9.95726C7.91713 2.13675 5.96057 2.94719 4.51798 4.38977C3.07539 5.83236 2.26495 7.78893 2.26495 9.82906V40.1709C2.26495 42.2111 3.07539 44.1676 4.51798 45.6102C5.96057 47.0528 7.91713 47.8632 9.95726 47.8632H41.5812C42.5914 47.8632 43.5916 47.6643 44.5249 47.2777C45.4582 46.8911 46.3062 46.3245 47.0205 45.6102C47.7348 44.8959 48.3014 44.0479 48.688 43.1147C49.0745 42.1814 49.2735 41.1811 49.2735 40.1709V9.82906C49.2735 8.81889 49.0745 7.81861 48.688 6.88534C48.3014 5.95206 47.7348 5.10407 47.0205 4.38977C46.3062 3.67548 45.4582 3.10887 44.5249 2.72229C43.5916 2.33572 42.5914 2.13675 41.5812 2.13675ZM20.0908 27.5641C19.2788 27.5641 19.0224 27.5214 18.4241 27.5214V35.7479C18.4241 35.9188 18.36 36.0043 18.1677 36.0043H14.8985C14.7276 36.0043 14.6421 35.9402 14.6421 35.7479V12.7778C14.6421 12.6282 14.6848 12.5214 14.8558 12.5214C16.2233 12.4573 18.2105 12.4145 20.3259 12.4145C26.2447 12.4145 28.8301 15.6624 28.8301 19.8291C28.8301 25.235 24.9199 27.5641 20.0908 27.5641ZM38.1464 35.7051C38.1464 35.9188 38.1036 35.9829 37.9754 36.047C37.3748 36.2373 36.7462 36.324 36.1165 36.3034C34.2575 36.3034 32.5908 35.5983 32.5908 32.2222V12.7137C32.5908 12.5641 32.6335 12.5 32.8472 12.5H36.1592C36.3729 12.5 36.437 12.5641 36.437 12.7137V31.9017C36.437 32.7564 36.7575 33.0556 37.3985 33.0556C37.5923 33.0509 37.7853 33.0295 37.9754 32.9914C38.125 32.9914 38.1464 33.0342 38.1464 33.2051V35.7051Z" fill="white"/>
</svg>
