<svg width="52" height="50" viewBox="0 0 52 50" fill="none" xmlns="http://www.w3.org/2000/svg">
<path d="M19.7265 14.8718C19.0415 14.8468 18.3557 14.8754 17.6752 14.9573V23.2479H19.3846C21.8632 23.2479 24.2564 22.3932 24.2564 18.9744C24.2564 16.2393 22.547 14.8718 19.7265 14.8718Z" fill="white"/>
<path d="M41.8632 2.13675H10.2393C8.19918 2.13675 6.24261 2.94719 4.80002 4.38977C3.35743 5.83236 2.547 7.78893 2.547 9.82906V40.1709C2.547 42.2111 3.35743 44.1676 4.80002 45.6102C6.24261 47.0528 8.19918 47.8632 10.2393 47.8632H41.8632C42.8734 47.8632 43.8737 47.6643 44.807 47.2777C45.7402 46.8911 46.5882 46.3245 47.3025 45.6102C48.0168 44.8959 48.5834 44.0479 48.97 43.1147C49.3566 42.1814 49.5555 41.1811 49.5555 40.1709V9.82906C49.5555 8.81889 49.3566 7.81861 48.97 6.88534C48.5834 5.95206 48.0168 5.10407 47.3025 4.38977C46.5882 3.67548 45.7402 3.10887 44.807 2.72229C43.8737 2.33572 42.8734 2.13675 41.8632 2.13675ZM19.2137 26.7521H17.6111V34.9573C17.6157 34.9864 17.6144 35.0161 17.6075 35.0447C17.6006 35.0734 17.5881 35.1004 17.5707 35.1242C17.5534 35.148 17.5315 35.1682 17.5063 35.1835C17.4812 35.1989 17.4532 35.2091 17.4241 35.2137C17.4013 35.2189 17.3775 35.2189 17.3547 35.2137H14.0855C14.0563 35.2182 14.0266 35.217 13.998 35.2101C13.9693 35.2032 13.9423 35.1907 13.9185 35.1733C13.8947 35.1559 13.8746 35.1341 13.8592 35.1089C13.8439 35.0838 13.8336 35.0558 13.829 35.0267C13.8238 35.0039 13.8238 34.9801 13.829 34.9573V11.8803C13.829 11.7094 13.829 11.6239 14 11.6239C15.3675 11.5385 17.4188 11.5385 19.4701 11.5385C25.3461 11.5385 27.9316 14.7863 27.9316 18.9744C27.9316 24.4444 24 26.7521 19.2137 26.7521ZM39.4701 20.7692C39.4701 20.9402 39.3846 20.9402 39.2137 20.9402C37.8604 20.8655 36.5039 21.0098 35.1966 21.3675V34.7863C35.2011 34.8154 35.1999 34.8452 35.193 34.8738C35.1861 34.9024 35.1736 34.9294 35.1562 34.9533C35.1388 34.9771 35.117 34.9972 35.0918 35.0126C35.0666 35.0279 35.0387 35.0382 35.0096 35.0427C34.9868 35.048 34.963 35.048 34.9402 35.0427H31.6068C31.5777 35.0473 31.548 35.0461 31.5193 35.0392C31.4907 35.0322 31.4637 35.0197 31.4399 35.0024C31.4161 34.985 31.3959 34.9631 31.3806 34.938C31.3652 34.9128 31.355 34.8849 31.3504 34.8558C31.3452 34.8329 31.3452 34.8092 31.3504 34.7863V21.282C31.3504 21.0256 31.3504 20.4273 31.2649 19.2308C31.2649 19.0598 31.2649 19.0598 31.4359 18.9744C33.9193 18.0239 36.5546 17.5316 39.2137 17.5214C39.3846 17.5214 39.4701 17.5214 39.4701 17.6923V20.7692Z" fill="white"/>
</svg>
