<svg width="45" height="50" viewBox="0 0 45 50" fill="none" xmlns="http://www.w3.org/2000/svg">
<g clip-path="url(#clip0)">
<path d="M43.3242 19.58C42.5723 16.5624 41.1465 14.2871 38.1094 14.2871H34.1934V18.916C34.1934 22.5097 31.1465 25.5371 27.6699 25.5371H17.2402C14.3887 25.5371 12.0254 27.9785 12.0254 30.8398V40.7812C12.0254 43.6132 14.4863 45.2734 17.2402 46.0839C20.541 47.0507 23.7148 47.2265 27.6699 46.0839C30.2969 45.3222 32.8848 43.789 32.8848 40.7812V36.8066H22.4648V35.4785H38.1094C41.1465 35.4785 42.2695 33.3593 43.3242 30.1855C44.418 26.914 44.3691 23.7695 43.3242 19.58ZM28.3242 39.4531C29.4082 39.4531 30.2871 40.3417 30.2871 41.4355C30.2871 42.539 29.4082 43.4277 28.3242 43.4277C27.25 43.4277 26.3613 42.5292 26.3613 41.4355C26.3711 40.332 27.25 39.4531 28.3242 39.4531ZM16.7617 24.2285H27.1914C30.0918 24.2285 32.4063 21.8359 32.4063 18.9257V8.97455C32.4063 6.14252 30.0234 4.02338 27.1914 3.54486C23.6953 2.96869 19.8965 2.99799 16.7617 3.55463C12.3476 4.33588 11.5469 5.96674 11.5469 8.98432V12.9589H21.9863V14.2871H7.63085C4.59373 14.2871 1.93748 16.1132 1.1074 19.58C0.150372 23.5546 0.11131 26.0351 1.1074 30.1855C1.84959 33.2714 3.61717 35.4785 6.65428 35.4785H10.2383V30.7128C10.2383 27.2656 13.2168 24.2285 16.7617 24.2285ZM16.1074 10.3027C15.0234 10.3027 14.1445 9.41401 14.1445 8.32026C14.1543 7.21674 15.0234 6.32807 16.1074 6.32807C17.1816 6.32807 18.0703 7.22651 18.0703 8.32026C18.0703 9.41401 17.1914 10.3027 16.1074 10.3027Z" fill="white"/>
</g>
<defs>
<clipPath id="clip0">
<rect width="43.75" height="50" fill="white" transform="translate(0.375)"/>
</clipPath>
</defs>
</svg>
