<svg width="50" height="50" viewBox="0 0 50 50" fill="none" xmlns="http://www.w3.org/2000/svg">
<path d="M45.3125 3.125H32.8125C30.2246 3.125 28.125 5.22461 28.125 7.8125V20.3125C28.125 22.9004 30.2246 25 32.8125 25H40.625V31.25C40.625 34.6973 37.8223 37.5 34.375 37.5H33.5938C32.2949 37.5 31.25 38.5449 31.25 39.8438V44.5312C31.25 45.8301 32.2949 46.875 33.5938 46.875H34.375C43.0078 46.875 50 39.8828 50 31.25V7.8125C50 5.22461 47.9004 3.125 45.3125 3.125ZM17.1875 3.125H4.6875C2.09961 3.125 0 5.22461 0 7.8125V20.3125C0 22.9004 2.09961 25 4.6875 25H12.5V31.25C12.5 34.6973 9.69727 37.5 6.25 37.5H5.46875C4.16992 37.5 3.125 38.5449 3.125 39.8438V44.5312C3.125 45.8301 4.16992 46.875 5.46875 46.875H6.25C14.8828 46.875 21.875 39.8828 21.875 31.25V7.8125C21.875 5.22461 19.7754 3.125 17.1875 3.125Z" fill="white"/>
</svg>
