<svg width="40" height="50" viewBox="0 0 40 50" fill="none" xmlns="http://www.w3.org/2000/svg">
<g clip-path="url(#clip0)">
<path d="M36.453 22.7051L36.0916 22.0703C36.1014 17.5391 34.0018 15.6934 31.5506 14.2871C32.2928 14.0918 33.0545 13.9356 33.2694 12.9981C34.5487 12.6758 34.8123 12.0801 34.9393 11.4551C35.2713 11.2305 36.3846 10.6055 36.2674 9.53128C36.8924 9.1016 37.244 8.54496 37.0584 7.76371C37.7323 7.03128 37.9081 6.42581 37.6248 5.86917C38.4354 4.86331 38.0741 4.34574 37.7323 3.82816C38.3377 2.73441 37.8006 1.56253 36.1112 1.75785C35.4373 0.771518 33.9725 0.996128 33.7479 0.996128C33.494 0.683628 33.162 0.41019 32.1366 0.537143C31.4725 -0.0585596 30.7303 0.0488623 29.9588 0.332065C29.0506 -0.380826 28.4452 0.195346 27.7518 0.41019C26.6483 0.0586279 26.3944 0.537143 25.8573 0.742221C24.6561 0.488315 24.285 1.03519 23.7088 1.61136L23.035 1.6016C21.2186 2.65628 20.3202 4.80472 19.9979 5.90824C19.6756 4.80472 18.7772 2.65628 16.9608 1.6016L16.287 1.61136C15.7108 1.03519 15.3397 0.488315 14.1385 0.742221C13.5916 0.546909 13.3475 0.0586279 12.244 0.41019C11.7948 0.273471 11.3748 -0.0194971 10.8866 -0.00973148C10.6327 3.41376e-05 10.3495 0.0879248 10.037 0.332065C9.26548 0.0390966 8.5233 -0.0585596 7.85923 0.537143C6.83384 0.41019 6.49205 0.673862 6.24791 0.996128C6.0233 0.996128 4.55845 0.771518 3.88462 1.75785C2.19517 1.56253 1.66783 2.73441 2.2733 3.82816C1.9315 4.3555 1.57017 4.87308 2.38072 5.86917C2.09752 6.42581 2.2733 7.03128 2.94712 7.76371C2.77134 8.54496 3.12291 9.1016 3.73814 9.53128C3.62095 10.6055 4.73423 11.2305 5.06627 11.4551C5.19322 12.0801 5.45689 12.6661 6.73619 12.9981C6.95103 13.9258 7.71275 14.0918 8.45494 14.2871C6.00377 15.6934 3.90416 17.5391 3.91392 22.0703L3.55259 22.7051C0.740092 24.3848 -1.7892 29.8047 2.16587 34.1993C2.41978 35.5762 2.85923 36.5625 3.24009 37.6563C3.81627 42.0703 7.5858 44.1309 8.57213 44.375C10.0272 45.4688 11.5799 46.5039 13.6698 47.2266C15.6522 49.2383 17.8006 50 19.9491 50H20.0467C22.2049 50 24.3436 49.2383 26.3163 47.2266C28.4159 46.5039 29.9588 45.4688 31.4139 44.375C32.41 44.1309 36.1698 42.0703 36.7459 37.6563C37.1268 36.5625 37.5663 35.5762 37.8202 34.1993C41.785 29.795 39.2557 24.3848 36.453 22.7051ZM34.285 21.9239C34.1385 23.75 24.6268 15.5664 26.2674 15.293C30.7303 14.5606 34.4315 17.168 34.285 21.9239ZM30.0858 31.0157C27.6932 32.5586 24.2459 31.5625 22.3905 28.7891C20.535 26.0157 20.9647 22.5196 23.3573 20.9766C25.7498 19.4336 29.1971 20.4297 31.0526 23.2032C32.9081 25.9766 32.4784 29.4727 30.0858 31.0157ZM23.4549 2.86136C23.5331 3.27152 23.6307 3.52542 23.7381 3.60355C24.2655 3.03714 24.6952 2.46097 25.3788 1.9141C25.3788 2.23636 25.2127 2.57816 25.6229 2.83207C25.9842 2.34378 26.4823 1.90433 27.1366 1.53324C26.8241 2.08011 27.078 2.24613 27.2538 2.47074C27.7518 2.04105 28.2303 1.61136 29.1483 1.26957C28.8944 1.5723 28.5428 1.87503 28.9139 2.2266C29.4315 1.90433 29.9491 1.58207 31.1698 1.35746C30.8963 1.66019 30.3202 1.97269 30.6717 2.27542C31.3163 2.03128 32.0389 1.84574 32.8299 1.74808C32.4491 2.06058 32.1366 2.36332 32.4491 2.60746C33.1424 2.39261 34.0995 2.10941 35.0272 2.35355L34.4413 2.94925C34.3729 3.02738 35.8182 3.00785 36.7752 3.02738C36.4237 3.51566 36.0721 3.97464 35.867 4.80472C35.9647 4.90238 36.4334 4.84378 36.8827 4.80472C36.4237 5.77152 35.6327 6.00589 35.4471 6.42582C35.7303 6.64066 36.1112 6.58206 36.5409 6.43558C36.2088 7.10941 35.5252 7.57816 34.9784 8.12503C35.1151 8.22269 35.3592 8.28128 35.9256 8.21292C35.4178 8.75003 34.8123 9.23831 34.0897 9.67777C34.2166 9.82425 34.6561 9.82425 35.0663 9.83402C34.412 10.4688 33.5721 10.8008 32.7811 11.2207C33.1717 11.4844 33.4549 11.4258 33.7577 11.4258C33.201 11.8848 32.2538 12.1192 31.3748 12.4024C31.5409 12.666 31.7069 12.7344 32.0682 12.8028C31.1405 13.3203 29.8026 13.086 29.4315 13.3496C29.5194 13.6133 29.7831 13.7793 30.0858 13.916C28.5819 14.0039 24.4901 13.8575 23.6991 10.7618C25.2323 9.0723 28.035 7.09964 32.8495 4.64847C29.0995 5.89847 25.7206 7.57816 22.8885 9.87308C19.5389 8.32035 21.8338 4.4141 23.4549 2.86136ZM20.0956 14.0528C22.4588 14.0235 25.3788 15.7911 25.369 17.4414C25.3592 18.9063 23.3182 20.0879 20.1151 20.0684C16.9803 20.0293 14.8709 18.584 14.8807 17.1582C14.8807 15.9961 17.4393 13.9844 20.0956 14.0528ZM8.08384 12.8028C8.44517 12.7344 8.61119 12.6563 8.7772 12.4024C7.8983 12.1289 6.95103 11.8848 6.39439 11.4258C6.69712 11.4258 6.98033 11.4942 7.37095 11.2207C6.57994 10.8008 5.74009 10.4688 5.0858 9.83402C5.49595 9.82425 5.93541 9.83402 6.06236 9.67777C5.3397 9.23831 4.73423 8.75003 4.22642 8.21292C4.79283 8.28128 5.03697 8.22269 5.17369 8.12503C4.62681 7.57816 3.93345 7.10941 3.61119 6.43558C4.03111 6.58206 4.42173 6.63089 4.70494 6.42582C4.51939 6.01566 3.72837 5.77152 3.26939 4.80472C3.71861 4.84378 4.18736 4.90238 4.28502 4.80472C4.07994 3.97464 3.71861 3.50589 3.37681 3.02738C4.33384 3.01761 5.77916 3.02738 5.7108 2.94925L5.12486 2.35355C6.05259 2.10941 7.00962 2.39261 7.70298 2.60746C8.01548 2.36332 7.69322 2.06058 7.32212 1.74808C8.11314 1.8555 8.82603 2.03128 9.48033 2.27542C9.82213 1.97269 9.25572 1.66019 8.98228 1.35746C10.203 1.58207 10.7206 1.90433 11.2381 2.2266C11.6092 1.87503 11.2577 1.5723 11.0038 1.26957C11.9217 1.6016 12.4002 2.04105 12.8983 2.47074C13.0643 2.24613 13.328 2.08011 13.0155 1.53324C13.6698 1.90433 14.1678 2.34378 14.5291 2.83207C14.9295 2.57816 14.7733 2.2266 14.7733 1.9141C15.4569 2.46097 15.8866 3.03714 16.4139 3.60355C16.5213 3.52542 16.6092 3.27152 16.6971 2.86136C18.3182 4.4141 20.6131 8.32035 17.2831 9.87308C14.451 7.57816 11.0721 5.89847 7.32212 4.64847C12.1366 7.08988 14.9393 9.0723 16.4725 10.7618C15.6913 13.8672 11.5897 14.0039 10.0858 13.916C10.3885 13.7793 10.6522 13.6035 10.7401 13.3496C10.3495 13.0762 9.02134 13.3106 8.08384 12.8028ZM13.953 15.1563C15.5936 15.4297 6.08189 23.6036 5.93541 21.7871C5.78892 17.0313 9.49986 14.4141 13.953 15.1563ZM3.85533 33.3985C1.54087 31.5625 0.798685 26.2012 5.0858 23.7989C7.67369 23.1153 5.9647 34.3262 3.85533 33.3985ZM12.742 42.9883C11.4432 43.7598 8.26939 43.4473 6.0233 40.2637C4.50962 37.5879 4.70494 34.8731 5.76939 34.0723C7.36119 33.1153 9.82212 34.4043 11.7166 36.5723C13.367 38.5254 14.119 41.9727 12.742 42.9883ZM10.1639 31.2989C7.77134 29.7559 7.34166 26.2598 9.19713 23.4864C11.0526 20.7129 14.4998 19.7168 16.8924 21.2598C19.285 22.8028 19.7147 26.2989 17.8592 29.0723C15.994 31.8457 12.5467 32.8418 10.1639 31.2989ZM20.1444 48.4375C17.2733 48.5547 14.4608 46.1231 14.4998 45.2832C14.4608 44.043 17.9959 43.0762 20.2909 43.1348C22.6053 43.0371 25.7206 43.8672 25.7303 44.9805C25.7791 46.0547 22.9178 48.4864 20.1444 48.4375ZM25.8963 36.2403C25.9159 39.1407 23.3377 41.4942 20.1541 41.5137C16.9706 41.5332 14.3729 39.1895 14.3534 36.2989V36.2403C14.3338 33.3399 16.912 30.9864 20.0956 30.9668C23.2791 30.9473 25.8768 33.291 25.8963 36.1817V36.2403ZM33.9237 40.4102C31.453 43.7891 28.1034 43.9161 26.8631 42.9786C25.5643 41.7676 26.5506 38.0078 28.3377 35.9473C30.3788 33.6719 32.5663 32.1875 34.0897 33.3496C35.1151 34.3555 35.7206 38.1446 33.9237 40.4102ZM36.16 33.2618C34.0604 34.1797 32.3514 22.9786 34.9295 23.6621C39.2166 26.0743 38.4745 31.4356 36.16 33.2618Z" fill="white"/>
</g>
<defs>
<clipPath id="clip0">
<rect width="40" height="50" fill="white"/>
</clipPath>
</defs>
</svg>
