<svg width="51" height="50" viewBox="0 0 51 50" fill="none" xmlns="http://www.w3.org/2000/svg">
<g clip-path="url(#clip0)">
<path d="M41.7109 17.3047C41.1836 17.129 40.6562 16.9629 40.1289 16.8067C40.2168 16.4454 40.2949 16.084 40.373 15.7227C41.5742 9.9024 40.7832 5.22467 38.1172 3.6817C35.5488 2.20709 31.3594 3.74029 27.1211 7.4317C26.7012 7.79303 26.291 8.17389 25.9004 8.55475C25.6367 8.30084 25.3633 8.04694 25.0898 7.80279C20.6465 3.85748 16.1934 2.19733 13.5273 3.75006C10.9688 5.23444 10.207 9.63873 11.2812 15.1465C11.3887 15.6934 11.5059 16.2305 11.6426 16.7774C11.0176 16.9532 10.4023 17.1485 9.82617 17.3536C4.61133 19.1602 0.871094 22.0118 0.871094 24.961C0.871094 28.0079 4.85547 31.0645 10.2754 32.92C10.7148 33.0665 11.1543 33.2129 11.6035 33.3399C11.457 33.9258 11.3301 34.502 11.2129 35.0977C10.1875 40.5176 10.9883 44.8145 13.5469 46.2891C16.1836 47.8126 20.6172 46.2501 24.9336 42.4708C25.2754 42.168 25.6172 41.8555 25.959 41.5235C26.3887 41.9434 26.8379 42.3438 27.2871 42.7344C31.4668 46.3282 35.5977 47.7833 38.1465 46.3087C40.7832 44.7852 41.6426 40.1661 40.5293 34.5411C40.4414 34.1114 40.3438 33.6719 40.2363 33.2227C40.5488 33.1348 40.8516 33.0372 41.1543 32.9395C46.7891 31.0743 50.8711 28.0567 50.8711 24.961C50.8711 22.002 47.0234 19.1309 41.7109 17.3047ZM28.498 9.01373C32.1309 5.84967 35.5195 4.60944 37.0625 5.49811C38.7129 6.44537 39.3477 10.2735 38.3125 15.3028C38.2441 15.6348 38.1758 15.9571 38.0879 16.2794C35.9199 15.7911 33.7227 15.4395 31.5156 15.2442C30.2461 13.4278 28.8594 11.6895 27.3555 10.0587C27.7363 9.69733 28.1074 9.35553 28.498 9.01373ZM17.1992 30.0294C17.6973 30.879 18.2051 31.7286 18.7422 32.5587C17.2188 32.3926 15.7051 32.1485 14.2109 31.8262C14.6406 30.42 15.1777 28.9649 15.8027 27.4805C16.252 28.3399 16.7109 29.1895 17.1992 30.0294ZM14.2402 18.2813C15.6465 17.9688 17.1406 17.7149 18.6934 17.5196C18.1758 18.3301 17.668 19.1602 17.1895 20.0001C16.7109 20.8301 16.2422 21.6797 15.8027 22.5391C15.1875 21.084 14.6699 19.6583 14.2402 18.2813ZM16.916 25.0098C17.5605 23.6622 18.2637 22.3438 19.0059 21.045C19.748 19.7462 20.5488 18.4864 21.3887 17.2462C22.8535 17.1387 24.3477 17.0801 25.8711 17.0801C27.3945 17.0801 28.8984 17.1387 30.3535 17.2462C31.1836 18.4766 31.9746 19.7364 32.7266 21.0254C33.4785 22.3145 34.1816 23.6329 34.8457 24.9708C34.1914 26.3184 33.4883 27.6465 32.7363 28.9551C31.9941 30.254 31.2031 31.5137 30.373 32.7637C28.918 32.8712 27.4043 32.92 25.8711 32.92C24.3379 32.92 22.8535 32.8712 21.418 32.7833C20.5684 31.543 19.7676 30.2735 19.0156 28.9747C18.2637 27.6758 17.5703 26.3575 16.916 25.0098ZM34.5527 30.0098C35.0508 29.1504 35.5195 28.2813 35.9785 27.4024C36.6035 28.8184 37.1504 30.254 37.6289 31.7286C36.1152 32.0704 34.582 32.334 33.0391 32.5098C33.5664 31.6895 34.0645 30.8497 34.5527 30.0098ZM35.959 22.5391C35.5 21.6797 35.0312 20.8204 34.543 19.9805C34.0645 19.1504 33.5664 18.3301 33.0488 17.5196C34.6211 17.7149 36.125 17.9786 37.5312 18.3008C37.082 19.7462 36.5547 21.1524 35.959 22.5391ZM25.8906 11.5528C26.916 12.6661 27.8828 13.838 28.7812 15.0489C26.8477 14.961 24.9043 14.961 22.9707 15.0489C23.9277 13.7891 24.9141 12.6172 25.8906 11.5528ZM14.5625 5.56647C16.2031 4.60944 19.8457 5.97662 23.6836 9.37506C23.9277 9.5899 24.1719 9.82428 24.4258 10.0587C22.9121 11.6895 21.5156 13.4278 20.2363 15.2442C18.0293 15.4395 15.8418 15.7813 13.6738 16.2598C13.5469 15.7618 13.4395 15.254 13.332 14.7462C12.4141 10.0196 13.0195 6.45514 14.5625 5.56647ZM12.1699 31.3087C11.7598 31.1915 11.3594 31.0645 10.959 30.9278C8.87891 30.2735 6.51562 29.2383 4.80664 27.8809C3.82031 27.1973 3.15625 26.1426 2.9707 24.961C2.9707 23.1739 6.05664 20.8887 10.5098 19.336C11.0664 19.1407 11.6328 18.9649 12.1992 18.7989C12.8633 20.918 13.6641 22.9981 14.5918 25.0098C13.6543 27.0508 12.8438 29.1602 12.1699 31.3087ZM23.5566 40.879C21.9453 42.3536 20.0801 43.5254 18.0488 44.3262C16.9648 44.8438 15.7148 44.8926 14.6016 44.4532C13.0488 43.5547 12.4043 40.1075 13.2832 35.4688C13.3906 34.9219 13.5078 34.3751 13.6445 33.8379C15.832 34.3067 18.0391 34.629 20.2754 34.795C21.5645 36.6212 22.9805 38.3692 24.4941 40.0098C24.1816 40.3126 23.8691 40.6055 23.5566 40.879ZM25.9492 38.5059C24.9531 37.4317 23.957 36.2403 22.9902 34.961C23.9277 35.0001 24.8945 35.0196 25.8711 35.0196C26.877 35.0196 27.8633 35.0001 28.8398 34.9512C27.9414 36.1915 26.9746 37.3731 25.9492 38.5059ZM38.7129 41.4356C38.625 42.627 38.0391 43.7403 37.1016 44.4922C35.5488 45.3907 32.2383 44.2188 28.6641 41.1524C28.2539 40.8008 27.8438 40.42 27.4238 40.0294C28.918 38.379 30.2949 36.6309 31.5449 34.795C33.7812 34.6094 36.0078 34.2676 38.2051 33.7696C38.3027 34.17 38.3906 34.5704 38.4688 34.961C38.9473 37.0704 39.0254 39.2676 38.7129 41.4356ZM40.4902 30.9376C40.2168 31.0254 39.9434 31.1133 39.6602 31.1915C38.9766 29.0626 38.1367 26.9825 37.1699 24.961C38.1074 22.9688 38.8984 20.918 39.5625 18.8184C40.0703 18.9649 40.5586 19.1212 41.0273 19.2774C45.5781 20.8399 48.7715 23.1641 48.7715 24.9415C48.7715 26.8555 45.3633 29.3262 40.4902 30.9376ZM25.8711 29.4727C28.3418 29.4727 30.3437 27.4708 30.3437 25.0001C30.3437 22.5294 28.3418 20.5274 25.8711 20.5274C23.4004 20.5274 21.3984 22.5294 21.3984 25.0001C21.3984 27.4708 23.4004 29.4727 25.8711 29.4727Z" fill="white"/>
</g>
<defs>
<clipPath id="clip0">
<rect width="50" height="50" fill="white" transform="translate(0.871094)"/>
</clipPath>
</defs>
</svg>
