<svg width="38" height="50" viewBox="0 0 38 50" fill="none" xmlns="http://www.w3.org/2000/svg">
<g clip-path="url(#clip0)">
<path d="M35 0.312445L31.25 4.68744L25.9375 0.312445C25.6677 0.108082 25.3385 -0.00251844 25 -0.00251844C24.6615 -0.00251844 24.3323 0.108082 24.0625 0.312445L18.75 4.68744L13.4375 0.312445C13.1677 0.108082 12.8385 -0.00251844 12.5 -0.00251844C12.1615 -0.00251844 11.8323 0.108082 11.5625 0.312445L6.25 4.68744L2.5 0.312445C1.46484 -0.45904 0 0.273382 0 1.56244V48.4375C0 49.7265 1.46484 50.4589 2.5 49.6875L6.25 45.3125L11.5625 49.6875C11.8323 49.8918 12.1615 50.0024 12.5 50.0024C12.8385 50.0024 13.1677 49.8918 13.4375 49.6875L18.75 45.3125L24.0625 49.6875C24.3323 49.8918 24.6615 50.0024 25 50.0024C25.3385 50.0024 25.6677 49.8918 25.9375 49.6875L31.25 45.3125L35 49.6875C36.0254 50.4589 37.5 49.7265 37.5 48.4375V1.56244C37.5 0.273382 36.0352 -0.45904 35 0.312445ZM31.25 35.1562C31.25 35.5859 30.8984 35.9375 30.4688 35.9375H7.03125C6.60156 35.9375 6.25 35.5859 6.25 35.1562V33.5937C6.25 33.164 6.60156 32.8125 7.03125 32.8125H30.4688C30.8984 32.8125 31.25 33.164 31.25 33.5937V35.1562ZM31.25 25.7812C31.25 26.2109 30.8984 26.5624 30.4688 26.5624H7.03125C6.60156 26.5624 6.25 26.2109 6.25 25.7812V24.2187C6.25 23.789 6.60156 23.4374 7.03125 23.4374H30.4688C30.8984 23.4374 31.25 23.789 31.25 24.2187V25.7812ZM31.25 16.4062C31.25 16.8359 30.8984 17.1874 30.4688 17.1874H7.03125C6.60156 17.1874 6.25 16.8359 6.25 16.4062V14.8437C6.25 14.414 6.60156 14.0624 7.03125 14.0624H30.4688C30.8984 14.0624 31.25 14.414 31.25 14.8437V16.4062Z" fill="white"/>
</g>
<defs>
<clipPath id="clip0">
<rect width="37.5" height="50" fill="white"/>
</clipPath>
</defs>
</svg>
