<svg width="51" height="50" viewBox="0 0 51 50" fill="none" xmlns="http://www.w3.org/2000/svg">
<path d="M49.5781 1.86462C49.462 1.32446 48.9279 0.790405 48.3861 0.674438C45.2418 0 42.78 0 40.3289 0C30.2476 0 24.2021 5.39093 19.6887 12.5H9.5115C7.91505 12.5015 6.03917 13.6597 5.32335 15.0864L0.495666 24.736C0.346474 25.0651 0.263022 25.4202 0.25 25.7812C0.250224 26.4029 0.497305 26.999 0.936917 27.4385C1.37653 27.878 1.97269 28.1249 2.59432 28.125H12.732L10.5373 30.3192C9.42738 31.4287 9.26812 33.4694 10.5373 34.7382L15.5084 39.7095C16.5979 40.802 18.6486 40.9943 19.93 39.7095L22.1248 37.5153V47.6562C22.125 48.2779 22.3721 48.874 22.8117 49.3135C23.2513 49.753 23.8475 49.9999 24.4691 50C24.8302 49.9866 25.1854 49.9032 25.5147 49.7543L35.1561 44.931C36.5847 44.2184 37.7448 42.3431 37.7448 40.7455V30.5466C44.8344 26.0239 50.2482 19.96 50.2482 9.93195C50.2573 7.4707 50.2573 5.00946 49.5781 1.86462ZM37.7539 16.4062C36.9814 16.4061 36.2263 16.1768 35.584 15.7475C34.9417 15.3181 34.4412 14.708 34.1457 13.9942C33.8502 13.2804 33.773 12.495 33.9238 11.7373C34.0746 10.9797 34.4467 10.2837 34.9931 9.73753C35.5394 9.19133 36.2354 8.81939 36.9932 8.66874C37.7509 8.51809 38.5362 8.5955 39.25 8.89119C39.9637 9.18687 40.5737 9.68754 41.0029 10.3299C41.4321 10.9723 41.6611 11.7275 41.6611 12.5C41.6605 13.536 41.2487 14.5293 40.516 15.2618C39.7834 15.9943 38.7899 16.4059 37.7539 16.4062Z" fill="white"/>
</svg>
