<svg width="51" height="50" viewBox="0 0 51 50" fill="none" xmlns="http://www.w3.org/2000/svg">
<g clip-path="url(#clip0)">
<path d="M40.875 31.25H31.5C29.7812 31.25 28.375 29.8438 28.375 28.125C28.375 26.4062 29.7812 25 31.5 25H40.875C40.875 25 50.25 14.5508 50.25 9.375C50.25 4.19922 46.0508 0 40.875 0C35.6992 0 31.5 4.19922 31.5 9.375C31.5 11.8652 33.668 15.5664 35.9238 18.75H31.5C26.334 18.75 22.125 22.959 22.125 28.125C22.125 33.291 26.334 37.5 31.5 37.5H40.875C42.5938 37.5 44 38.9062 44 40.625C44 42.3438 42.5938 43.75 40.875 43.75H18.3652C16.8027 46.1719 15.0645 48.4082 13.7461 50H40.875C46.041 50 50.25 45.791 50.25 40.625C50.25 35.459 46.041 31.25 40.875 31.25ZM40.875 6.25C42.6035 6.25 44 7.64648 44 9.375C44 11.1035 42.6035 12.5 40.875 12.5C39.1465 12.5 37.75 11.1035 37.75 9.375C37.75 7.64648 39.1465 6.25 40.875 6.25ZM9.625 25C4.44922 25 0.25 29.1992 0.25 34.375C0.25 39.5508 9.625 50 9.625 50C9.625 50 19 39.5508 19 34.375C19 29.1992 14.8008 25 9.625 25ZM9.625 37.5C7.89648 37.5 6.5 36.1035 6.5 34.375C6.5 32.6465 7.89648 31.25 9.625 31.25C11.3535 31.25 12.75 32.6465 12.75 34.375C12.75 36.1035 11.3535 37.5 9.625 37.5Z" fill="white"/>
</g>
<defs>
<clipPath id="clip0">
<rect width="50" height="50" fill="white" transform="translate(0.25)"/>
</clipPath>
</defs>
</svg>
