<svg width="64" height="50" viewBox="0 0 64 50" fill="none" xmlns="http://www.w3.org/2000/svg">
<g clip-path="url(#clip0)">
<path d="M30.3477 37.004C30.3184 37.0626 30.2891 37.1094 30.3477 37.004V37.004ZM54.6768 28.5079C52.7126 28.5072 50.7747 28.9583 49.0127 29.8262C48.4365 28.6641 47.8408 27.6485 47.7432 26.8868C47.626 25.9981 47.499 25.4708 47.6358 24.4161C47.7725 23.3614 48.3877 21.8673 48.3779 21.7598C48.3682 21.6524 48.2412 21.1153 46.9815 21.1055C45.7217 21.0958 44.6377 21.3497 44.5117 21.6817C44.2892 22.2885 44.1162 22.9123 43.9942 23.5469C43.7695 24.6895 41.4756 28.7716 40.1768 30.9005C39.7471 30.0704 39.3858 29.338 39.3076 28.752C39.1904 27.8634 39.0635 27.336 39.2002 26.2813C39.3369 25.2266 39.9522 23.7325 39.9424 23.6251C39.9326 23.5177 39.8057 22.9805 38.5469 22.9708C37.2881 22.961 36.2031 23.2149 36.0762 23.5469C35.9492 23.879 35.8125 24.6602 35.5586 25.4122C35.3047 26.1641 32.249 32.961 31.4492 34.7286C31.0391 35.627 30.6875 36.3497 30.4336 36.838C30.3945 36.9161 30.3653 36.9649 30.3457 37.004C30.375 36.9552 30.3946 36.9063 30.3946 36.9259C30.1797 37.3458 30.0528 37.5802 30.0528 37.5802V37.5899C29.8867 37.9024 29.7012 38.1856 29.6133 38.1856C29.5547 38.1856 29.4278 37.3653 29.6426 36.2423C30.1016 33.879 31.1856 30.2071 31.1758 30.0801C31.166 30.0118 31.3809 29.377 30.4629 29.0352C29.5742 28.713 29.252 29.2501 29.1738 29.2501C29.0957 29.2501 29.0371 29.4454 29.0371 29.4454C29.0371 29.4454 30.0235 25.3048 27.1436 25.3048C25.3467 25.3048 22.8467 27.2774 21.6182 29.0645C20.8467 29.4844 19.1768 30.3926 17.419 31.3594C16.7451 31.7305 16.0518 32.1114 15.3975 32.4727C15.3486 32.4239 15.3096 32.3751 15.2608 32.3262C11.7656 28.5958 5.31252 25.9591 5.58596 20.9493C5.68361 19.1231 6.31838 14.3282 17.9951 8.50789C27.5654 3.74226 35.2168 5.05085 36.5342 7.96101C38.4287 12.1114 32.4434 19.836 22.5049 20.9493C18.7168 21.3692 16.7256 19.9044 16.2276 19.3575C15.71 18.7813 15.6319 18.752 15.4365 18.8594C15.1143 19.0352 15.3194 19.543 15.4365 19.8458C15.7295 20.6173 16.9502 21.9844 19.0293 22.668C20.8555 23.2637 25.2969 23.5958 30.667 21.5157C36.7002 19.1915 41.3965 12.7169 40.0196 7.29695C38.6172 1.78914 29.4844 -0.0175041 20.8487 3.0489C15.7031 4.87507 10.1387 7.74617 6.13576 11.4864C1.38088 15.9395 0.620135 19.8165 0.932635 21.4376C2.04494 27.1895 9.97267 30.9395 13.1455 33.713C12.9893 33.8009 12.8428 33.879 12.7061 33.9571C11.1153 34.7481 5.07131 37.9122 3.55861 41.252C1.84963 45.0411 3.84182 47.7559 5.14943 48.127C9.23049 49.2598 13.4092 47.2188 15.6543 43.8692C17.8994 40.5196 17.627 36.1446 16.5918 34.1524C16.582 34.1231 16.5625 34.1036 16.5528 34.0743C16.9629 33.8302 17.3828 33.586 17.8028 33.3419C18.6123 32.8634 19.4033 32.4239 20.0967 32.043C19.7061 33.0977 19.4229 34.3673 19.2764 36.2032C19.1006 38.3516 19.9893 41.1348 21.1416 42.2286C21.6494 42.7071 22.2637 42.7169 22.6446 42.7169C23.9922 42.7169 24.5977 41.6036 25.2705 40.2755C26.1006 38.6544 26.833 36.7696 26.833 36.7696C26.833 36.7696 25.9151 41.8673 28.4248 41.8673C29.3418 41.8673 30.2598 40.6856 30.6709 40.0802V40.0899C30.6709 40.0899 30.6904 40.0509 30.7393 39.9727C30.8369 39.8262 30.8858 39.7384 30.8858 39.7384V39.7091C31.2569 39.0743 32.0674 37.6192 33.2871 35.2169C34.8692 32.1114 36.3819 28.2344 36.3819 28.2344C36.528 29.0867 36.7303 29.9284 36.9873 30.754C37.2608 31.6817 37.8369 32.6973 38.2959 33.6837C37.9248 34.1915 37.7002 34.4844 37.7002 34.4844C37.7009 34.4919 37.7044 34.4989 37.71 34.504C37.417 34.8946 37.085 35.3145 36.7432 35.7247C35.4942 37.2091 34.0088 38.9083 33.8135 39.3966C33.5791 39.9727 33.6377 40.4024 34.0869 40.7344C34.419 40.9883 35.0049 41.0274 35.6192 40.9786C36.7422 40.9005 37.5332 40.627 37.9141 40.4512C38.6162 40.1995 39.2798 39.8511 39.8858 39.4161C41.1065 38.5177 41.8487 37.2286 41.7803 35.5294C41.7412 34.5919 41.4385 33.6544 41.0674 32.7755C41.1748 32.6192 41.292 32.4532 41.3994 32.2872C43.3321 29.4649 44.8262 26.3673 44.8262 26.3673C44.9724 27.2195 45.1746 28.0612 45.4317 28.8868C45.666 29.6778 46.124 30.5469 46.544 31.3966C44.7285 32.8712 43.6055 34.5802 43.2149 35.7032C42.4922 37.7833 43.0586 38.7208 44.1231 38.9356C44.6016 39.0333 45.2852 38.8087 45.793 38.5938C46.5472 38.3426 47.2583 37.977 47.9014 37.5098C49.1221 36.6114 50.3028 35.3516 50.2246 33.6427C50.1953 32.8712 49.9805 32.0997 49.6973 31.3575C51.2305 30.713 53.2217 30.3614 55.7608 30.6544C61.1983 31.2891 62.2627 34.6876 62.0576 36.1036C61.8526 37.5196 60.71 38.3106 60.3291 38.545C59.9483 38.7794 59.8311 38.8673 59.8604 39.043C59.9092 39.2969 60.085 39.2872 60.4072 39.2286C60.8565 39.1505 63.2578 38.0762 63.3653 35.4493C63.5215 32.129 60.3291 28.4766 54.6738 28.5059L54.6768 28.5079ZM12.7647 42.6387C10.9688 44.6016 8.44924 45.3438 7.36623 44.7188C6.20412 44.043 6.6631 41.1544 8.87892 39.0626C10.2266 37.793 11.9639 36.6212 13.1162 35.8985C13.3799 35.7423 13.7608 35.5079 14.2295 35.2247C14.3076 35.1759 14.3467 35.1563 14.3467 35.1563C14.4346 35.0977 14.5322 35.0489 14.6299 34.9903C15.4395 37.9591 14.6592 40.5762 12.7647 42.6368V42.6387ZM25.8858 33.713C25.2608 35.2462 23.9434 39.1524 23.1426 38.9473C22.459 38.7716 22.0391 35.793 23.0059 32.8634C23.4942 31.3887 24.5293 29.6309 25.1445 28.9473C26.1299 27.8438 27.2139 27.4923 27.4678 27.9317C27.8096 28.5079 26.2764 32.7559 25.8858 33.713ZM36.7256 38.8887C36.4619 39.0255 36.2178 39.1134 36.1006 39.045C36.0127 38.9962 36.208 38.8106 36.208 38.8106C36.208 38.8106 37.5654 37.3555 38.1026 36.6915C38.4151 36.3009 38.7764 35.8419 39.166 35.3341C39.166 35.3829 39.1758 35.4317 39.1758 35.4903C39.1631 37.2384 37.4844 38.42 36.7227 38.8887H36.7256ZM45.083 36.9844C44.8877 36.8477 44.917 36.3887 45.5713 34.963C45.8252 34.4063 46.4102 33.4688 47.4268 32.5704C47.5419 32.9105 47.6044 33.2661 47.6123 33.6251C47.6026 35.8223 46.0303 36.6427 45.084 36.9844H45.083Z" fill="white"/>
</g>
<defs>
<clipPath id="clip0">
<rect width="62.5" height="50" fill="white" transform="translate(0.871094)"/>
</clipPath>
</defs>
</svg>
