<svg width="67" height="50" viewBox="0 0 67 50" fill="none" xmlns="http://www.w3.org/2000/svg">
<g clip-path="url(#clip0)">
<path d="M57.3698 28.724C55.0388 28.737 53.0207 29.2968 51.3279 30.1304C50.7031 28.8933 50.078 27.8125 49.974 27.0053C49.8567 26.0677 49.7135 25.4946 49.8567 24.3752C49.9999 23.2557 50.6508 21.6666 50.6508 21.5365C50.6378 21.4192 50.5076 20.8464 49.1666 20.8333C47.8255 20.8202 46.6666 21.0938 46.5364 21.4466C46.3039 22.097 46.1168 22.7627 45.9764 23.4389C45.742 24.6626 43.2943 28.9986 41.901 31.2773C41.4453 30.392 41.0546 29.6106 40.9765 28.9856C40.8594 28.0482 40.7159 27.4752 40.8594 26.3554C41.0029 25.2357 41.6533 23.6458 41.6533 23.5157C41.6402 23.3984 41.5101 22.8256 40.169 22.8125C38.8279 22.7994 37.669 23.0728 37.5389 23.4245C37.4087 23.7762 37.2655 24.6093 36.9789 25.4165C36.7053 26.224 33.4501 33.4634 32.6039 35.3514C32.1741 36.3152 31.7967 37.0832 31.5231 37.6042C31.2495 38.1253 31.5101 37.6432 31.4839 37.6952C31.2495 38.1381 31.1194 38.3853 31.1194 38.3853V38.3986C30.9373 38.724 30.7418 39.0365 30.6506 39.0365C30.5855 39.0365 30.4551 38.164 30.6773 36.9664C31.1589 34.453 32.3306 30.5338 32.3178 30.3906C32.3178 30.3256 32.5391 29.6354 31.5626 29.284C30.6119 28.9325 30.2735 29.5184 30.1954 29.5184C30.1173 29.5184 30.0522 29.7266 30.0522 29.7266C30.0522 29.7266 31.1069 25.3128 28.0338 25.3128C26.1069 25.3128 23.4506 27.409 22.1354 29.3232C21.3021 29.7789 19.5314 30.7424 17.6554 31.7712C16.9394 32.1616 16.1973 32.5784 15.4941 32.956L15.3509 32.7994C11.6266 28.828 4.73946 26.0157 5.02612 20.677C5.13012 18.737 5.80719 13.6197 18.2554 7.42183C28.4506 2.3437 36.6146 3.73703 38.0338 6.83517C40.0519 11.2618 33.6719 19.4914 23.0738 20.6752C19.0373 21.1309 16.9138 19.5685 16.3805 18.9824C15.8205 18.3704 15.7426 18.3445 15.5341 18.4616C15.1957 18.644 15.404 19.1909 15.5341 19.5162C15.8466 20.3368 17.1488 21.7949 19.3624 22.5242C21.3024 23.1621 26.0421 23.5138 31.7711 21.3002C38.1903 18.8133 43.2034 11.9122 41.7322 6.14397C40.2343 0.273299 30.4949 -1.65337 21.289 1.61463C15.8072 3.5677 9.86985 6.61463 5.59999 10.6133C0.520798 15.3514 -0.2864 19.4933 0.0533325 21.2109C1.2384 27.3442 9.68878 31.341 13.0741 34.2968C12.905 34.388 12.7488 34.4789 12.6056 34.5573C10.9128 35.3904 4.46746 38.7629 2.85279 42.3306C1.02986 46.3669 3.13946 49.2709 4.54559 49.6613C8.89465 50.8722 13.3477 48.6978 15.7565 45.117C18.1522 41.5365 17.8658 36.888 16.7592 34.7656L16.72 34.6874L18.048 33.9061C18.9074 33.3994 19.7546 32.9296 20.496 32.5258C20.0794 33.6586 19.7797 35 19.6237 36.9525C19.44 39.2448 20.3776 42.2133 21.6146 43.3866C22.1613 43.8933 22.8125 43.9074 23.2162 43.9074C24.6485 43.9074 25.2994 42.7224 26.0162 41.3032C26.9015 39.5714 27.6829 37.5664 27.6829 37.5664C27.6829 37.5664 26.7061 42.996 29.3754 42.996C30.3519 42.996 31.3285 41.733 31.7714 41.0818V41.0949C31.7714 41.0949 31.7981 41.056 31.8495 40.9648C31.9039 40.8839 31.956 40.8015 32.0058 40.7176V40.6909C32.3962 40.0138 33.2687 38.4642 34.5709 35.8992C36.2509 32.5925 37.865 28.4512 37.865 28.4512C37.865 28.4512 38.0213 29.4669 38.5031 31.1336C38.7893 32.1232 39.4143 33.204 39.8962 34.2586C39.5055 34.8056 39.2711 35.1181 39.2711 35.1181L39.2842 35.1312C38.9719 35.5477 38.6202 35.9906 38.2557 36.4333C36.9277 38.0218 35.3391 39.8317 35.1306 40.3533C34.8834 40.9666 34.9354 41.42 35.4173 41.7856C35.7687 42.0461 36.3938 42.0981 37.0578 42.0461C38.2557 41.968 39.089 41.6685 39.5058 41.4861C40.2575 41.2183 40.9676 40.8457 41.6151 40.3794C42.9172 39.416 43.7114 38.0488 43.6332 36.2258C43.5943 35.2232 43.2687 34.2336 42.865 33.2962C42.9823 33.1269 43.0996 32.9576 43.2167 32.7752C45.2738 29.7674 46.8623 26.4602 46.8623 26.4602C46.8623 26.4602 47.0186 27.4757 47.5004 29.1424C47.7476 29.9888 48.2426 30.9133 48.6852 31.8248C46.7583 33.4005 45.5474 35.2234 45.1306 36.4213C44.3623 38.6346 44.9615 39.6373 46.0943 39.8717C46.601 39.976 47.3311 39.7416 47.878 39.5072C48.6851 39.2417 49.4453 38.8506 50.1306 38.3482C51.4327 37.3848 52.6828 36.0437 52.6175 34.2338C52.5786 33.4005 52.3572 32.5805 52.0575 31.7989C53.698 31.1218 55.8204 30.7322 58.5159 31.0568C64.31 31.7338 65.4559 35.3536 65.2345 36.864C65.0132 38.3744 63.8023 39.2077 63.3985 39.4682C62.9951 39.7154 62.8652 39.8069 62.9039 39.989C62.9572 40.2626 63.1383 40.2493 63.4905 40.1973C63.9724 40.1192 66.5375 38.9605 66.6415 36.1741C66.7977 32.5928 63.3993 28.6866 57.3708 28.7256L57.3698 28.724ZM12.6824 43.789C10.7682 45.8853 8.07278 46.6797 6.92719 46.0024C5.69012 45.2861 6.17172 42.2002 8.52852 39.9736C9.96105 38.6194 11.8229 37.3696 13.0469 36.6013C13.3202 36.432 13.737 36.1848 14.2317 35.885C14.2736 35.8566 14.3171 35.8305 14.3618 35.8069C14.453 35.7536 14.5573 35.6898 14.6613 35.6248C15.5338 38.8018 14.7005 41.5882 12.6824 43.7888V43.789ZM26.6797 34.2709C26.0157 35.8976 24.6093 40.0781 23.7629 39.8442C23.0336 39.649 22.5912 36.4842 23.6197 33.36C24.1405 31.7842 25.2464 29.9093 25.8983 29.18C26.953 28.0082 28.0989 27.6176 28.3853 28.0994C28.7239 28.724 27.0962 33.2552 26.6797 34.2709ZM38.229 39.7909C37.9426 39.9341 37.6823 40.0381 37.565 39.9602C37.4738 39.9069 37.6821 39.7128 37.6821 39.7128C37.6821 39.7128 39.1274 38.1634 39.7002 37.4461C40.0258 37.0296 40.4165 36.548 40.833 36.0008V36.16C40.833 38.0349 39.0365 39.2848 38.229 39.7928V39.7909ZM47.1356 37.7597C46.9274 37.6034 46.9535 37.1216 47.6564 35.6112C47.93 35.0122 48.5551 34.0096 49.6356 33.0592C49.766 33.4496 49.8442 33.8272 49.8311 34.1792C49.8175 36.5234 48.1508 37.3957 47.1351 37.76L47.1356 37.7597Z" fill="white"/>
<g clip-path="url(#clip1)">
<path d="M15.7227 29.2533L15.6533 29.3306L15.72 29.392H15.2907C15.2649 29.4139 15.2372 29.4335 15.208 29.4506C15.1724 29.4733 15.1349 29.4929 15.096 29.5093H15.736L15.6587 29.5866L15.7227 29.6586L15.928 29.4506L15.7227 29.2533Z" fill="white"/>
<path d="M13.976 28.5759L13.952 28.5145C13.918 28.6616 13.9255 28.8152 13.9735 28.9583C14.0215 29.1014 14.1082 29.2284 14.224 29.3252H14.4373C14.2959 29.2558 14.1822 29.1405 14.1148 28.998C14.0475 28.8556 14.0305 28.6945 14.0667 28.5412L13.976 28.5759Z" fill="white"/>
<path d="M14.2667 28.4159L14.224 28.3226L14.1333 28.3626C14.2148 28.214 14.3476 28.1003 14.5069 28.0425C14.6662 27.9847 14.841 27.9869 14.9988 28.0487C15.1565 28.1104 15.2864 28.2275 15.3642 28.378C15.442 28.5285 15.4623 28.7022 15.4213 28.8666L15.504 28.8346L15.5307 28.9066C15.5564 28.811 15.5636 28.7115 15.552 28.6132C15.6547 28.5761 15.741 28.5039 15.7958 28.4094C15.8506 28.3149 15.8703 28.2042 15.8515 28.0966C15.8327 27.989 15.7766 27.8914 15.6931 27.8211C15.6095 27.7508 15.5039 27.7121 15.3947 27.7119C15.3392 27.7124 15.2842 27.7223 15.232 27.7413L15.264 27.6479L15.1733 27.6106L15.08 27.8879L15.352 27.9786L15.3787 27.8799L15.2933 27.8533L15.2907 27.8479C15.3243 27.8374 15.3594 27.832 15.3947 27.8319C15.4858 27.8321 15.5732 27.8684 15.6377 27.9329C15.7021 27.9974 15.7385 28.0847 15.7387 28.1759C15.7388 28.243 15.7191 28.3086 15.6821 28.3646C15.6451 28.4205 15.5924 28.4644 15.5307 28.4906C15.4896 28.3315 15.4012 28.1886 15.2772 28.0808C15.1532 27.973 14.9993 27.9054 14.8361 27.8869C14.6728 27.8684 14.5077 27.8999 14.3627 27.9772C14.2177 28.0545 14.0996 28.174 14.024 28.3199L13.9867 28.2212L13.8933 28.2506L14 28.5226L14.2667 28.4159Z" fill="white"/>
<path d="M15.1707 29.3919C15.2931 29.3173 15.3935 29.2115 15.4613 29.0852L15.4987 29.1812L15.592 29.1519L15.4853 28.8799L15.2187 28.9839L15.2613 29.0772L15.3573 29.0372C15.3573 29.0379 15.357 29.0386 15.3565 29.0391C15.356 29.0396 15.3554 29.0399 15.3547 29.0399C15.3505 29.0458 15.347 29.052 15.344 29.0585C15.344 29.0593 15.3437 29.0599 15.3432 29.0604C15.3427 29.0609 15.342 29.0612 15.3413 29.0612C15.3372 29.0671 15.3336 29.0733 15.3307 29.0799L15.328 29.0825C15.3253 29.0879 15.32 29.0932 15.3173 29.0985V29.1012C15.3147 29.1065 15.3093 29.1119 15.3067 29.1172C15.3067 29.1179 15.3064 29.1186 15.3059 29.1191C15.3054 29.1196 15.3047 29.1199 15.304 29.1199C15.2987 29.1252 15.296 29.1305 15.2907 29.1359L15.288 29.1385C15.2827 29.1439 15.28 29.1492 15.2747 29.1545L15.272 29.1572C15.2667 29.1625 15.264 29.1679 15.2587 29.1732L15.256 29.1759C15.2508 29.1805 15.2463 29.1859 15.2427 29.1919L15.24 29.1945C15.2353 29.1997 15.23 29.2042 15.224 29.2079L15.2213 29.2105C15.216 29.2159 15.2107 29.2185 15.2053 29.2239C15.2 29.2292 15.1947 29.2319 15.1893 29.2372L15.1867 29.2399C15.1813 29.2452 15.176 29.2479 15.1707 29.2532C15.17 29.2532 15.1693 29.2535 15.1688 29.254C15.1683 29.2545 15.168 29.2552 15.168 29.2559C15.1627 29.2612 15.1573 29.2639 15.152 29.2692C15.1468 29.2743 15.1404 29.278 15.1333 29.2799C15.1326 29.2799 15.1319 29.2801 15.1314 29.2806C15.1309 29.2811 15.1307 29.2818 15.1307 29.2825C15.1253 29.2852 15.12 29.2905 15.1147 29.2932C15.114 29.2932 15.1133 29.2935 15.1128 29.294C15.1123 29.2945 15.112 29.2952 15.112 29.2959C15.0987 29.3039 15.088 29.3092 15.0747 29.3172H15.072C15.0652 29.3197 15.0589 29.3233 15.0533 29.3279H15.0507C15.0373 29.3332 15.024 29.3412 15.0107 29.3465H15.008C15.0027 29.3492 14.9947 29.3519 14.9893 29.3545H14.9867C14.9738 29.3602 14.9604 29.3646 14.9467 29.3679C14.9387 29.3705 14.9333 29.3705 14.9253 29.3732H14.9227C14.9147 29.3759 14.9093 29.3759 14.9013 29.3785C14.8933 29.3812 14.888 29.3812 14.88 29.3839C14.8731 29.3861 14.8659 29.387 14.8587 29.3865H14.856C14.848 29.3865 14.8427 29.3892 14.8347 29.3892C14.8267 29.3892 14.8187 29.3919 14.8133 29.3919H13.6213V29.5092H14.824C14.9482 29.4988 15.068 29.4586 15.1733 29.3919H15.1707Z" fill="white"/>
</g>
</g>
<defs>
<clipPath id="clip0">
<rect width="66.6667" height="50" fill="white"/>
</clipPath>
<clipPath id="clip1">
<rect width="2.56" height="2.58231" fill="white" transform="translate(13.4933 27.3066)"/>
</clipPath>
</defs>
</svg>
