<svg width="45" height="50" viewBox="0 0 45 50" fill="none" xmlns="http://www.w3.org/2000/svg">
<g clip-path="url(#clip0)">
<path d="M38.293 10.166C38.2781 10.061 38.227 9.96455 38.1485 9.89323C38.0701 9.82191 37.9692 9.78023 37.8633 9.77536C37.668 9.77536 34.2275 9.69724 34.2275 9.69724C34.2275 9.69724 32.1172 7.66403 31.335 6.88181V49.1406L43.6094 46.0937C43.6094 46.0937 38.332 10.4004 38.293 10.166ZM28.5596 6.88181C28.3721 6.29035 28.1366 5.7152 27.8555 5.16208C26.8359 3.20798 25.3145 2.14841 23.5156 2.14841C23.3843 2.14384 23.2529 2.15698 23.125 2.18747C23.0859 2.10935 23.0078 2.07028 22.9688 1.99216C22.1875 1.13571 21.1719 0.745089 19.959 0.781222C17.6152 0.859347 15.2715 2.53903 13.3916 5.54978C12.0625 7.66111 11.0479 10.3193 10.7725 12.3916C8.0752 13.2119 6.19922 13.7988 6.16016 13.8379C4.79297 14.2676 4.75293 14.3066 4.59766 15.5957C4.48047 16.5722 0.886719 44.0937 0.886719 44.0937L30.4355 49.2187V6.41306C30.2917 6.41847 30.1483 6.43151 30.0059 6.45212C30.0059 6.45212 29.459 6.60837 28.5596 6.88181ZM23.165 8.56345C21.6025 9.0322 19.8809 9.57907 18.2002 10.0879C18.6689 8.24997 19.6074 6.41306 20.7021 5.20505C21.1318 4.77536 21.7188 4.26657 22.3828 3.95407C23.0479 5.35739 23.2041 7.27341 23.165 8.56345ZM19.959 2.38669C20.4514 2.37117 20.9386 2.49145 21.3672 2.73435C20.7422 3.04685 20.1162 3.55564 19.5303 4.14157C18.0449 5.74509 16.9111 8.24314 16.4424 10.6308C15.0342 11.0615 13.627 11.4912 12.3408 11.8818C13.1963 8.13278 16.3623 2.46482 19.959 2.38669ZM15.4248 23.8877C15.5811 26.3886 22.1875 26.9365 22.5781 32.8388C22.8516 37.4912 20.1152 40.6572 16.167 40.8926C11.3984 41.2051 8.7793 38.3906 8.7793 38.3906L9.79492 34.0937C9.79492 34.0937 12.4141 36.0879 14.5254 35.9316C15.8926 35.8535 16.4023 34.7197 16.3623 33.9375C16.167 30.6543 10.7725 30.8496 10.4209 25.4551C10.1084 20.9199 13.0791 16.3467 19.6465 15.916C22.1855 15.7597 23.4775 16.3857 23.4775 16.3857L21.9922 22.0107C21.9922 22.0107 20.3115 21.2295 18.3174 21.3857C15.4248 21.582 15.3857 23.4179 15.4248 23.8877ZM24.7285 8.09372C24.7285 6.92185 24.5723 5.24021 24.0244 3.83298C25.8232 4.18454 26.6826 6.17673 27.0742 7.3906C26.3704 7.58591 25.5885 7.82028 24.7285 8.09372Z" fill="white"/>
</g>
<defs>
<clipPath id="clip0">
<rect width="43.75" height="50" fill="white" transform="translate(0.371094)"/>
</clipPath>
</defs>
</svg>
