<svg width="45" height="50" viewBox="0 0 45 50" fill="none" xmlns="http://www.w3.org/2000/svg">
<path d="M38.293 10.1659C38.2781 10.0609 38.227 9.96443 38.1485 9.89311C38.0701 9.82179 37.9692 9.78011 37.8633 9.77524C37.668 9.77524 34.2275 9.69712 34.2275 9.69712C34.2275 9.69712 32.1172 7.66391 31.335 6.88169V49.1405L43.6094 46.0936C43.6094 46.0936 38.332 10.4003 38.293 10.1659ZM28.5596 6.88169C28.3721 6.29023 28.1366 5.71508 27.8555 5.16196C26.8359 3.20786 25.3145 2.14829 23.5156 2.14829C23.3843 2.14372 23.2529 2.15686 23.125 2.18735C23.0859 2.10923 23.0078 2.07016 22.9687 1.99204C22.1875 1.13559 21.1719 0.744967 19.959 0.7811C17.6152 0.859225 15.2715 2.53891 13.3916 5.54966C12.0625 7.66099 11.0479 10.3192 10.7725 12.3915C8.0752 13.2118 6.19922 13.7987 6.16016 13.8378C4.79297 14.2675 4.75293 14.3065 4.59766 15.5956C4.48047 16.5721 0.886719 44.0936 0.886719 44.0936L30.4355 49.2186V6.41294C30.2917 6.41835 30.1483 6.43139 30.0059 6.452C30.0059 6.452 29.459 6.60825 28.5596 6.88169ZM23.165 8.56333C21.6025 9.03208 19.8809 9.57895 18.2002 10.0878C18.6689 8.24985 19.6074 6.41294 20.7021 5.20493C21.1318 4.77524 21.7187 4.26645 22.3828 3.95395C23.0479 5.35727 23.2041 7.27329 23.165 8.56333ZM19.959 2.38657C20.4514 2.37105 20.9386 2.49133 21.3672 2.73423C20.7422 3.04673 20.1162 3.55552 19.5303 4.14145C18.0449 5.74497 16.9111 8.24302 16.4424 10.6307C15.0342 11.0614 13.627 11.4911 12.3408 11.8817C13.1963 8.13266 16.3623 2.4647 19.959 2.38657ZM15.4248 23.8876C15.5811 26.3885 22.1875 26.9364 22.5781 32.8387C22.8516 37.4911 20.1152 40.6571 16.167 40.8924C11.3984 41.2049 8.7793 38.3905 8.7793 38.3905L9.79492 34.0936C9.79492 34.0936 12.4141 36.0878 14.5254 35.9315C15.8926 35.8534 16.4023 34.7196 16.3623 33.9374C16.167 30.6542 10.7725 30.8495 10.4209 25.455C10.1084 20.9198 13.0791 16.3466 19.6465 15.9159C22.1855 15.7596 23.4775 16.3856 23.4775 16.3856L21.9922 22.0106C21.9922 22.0106 20.3115 21.2294 18.3174 21.3856C15.4248 21.5819 15.3857 23.4178 15.4248 23.8876ZM24.7285 8.0936C24.7285 6.92173 24.5723 5.24009 24.0244 3.83286C25.8232 4.18442 26.6826 6.17661 27.0742 7.39048C26.3704 7.58579 25.5885 7.82016 24.7285 8.0936Z" fill="white"/>
</svg>
