<svg width="51" height="50" viewBox="0 0 51 50" fill="none" xmlns="http://www.w3.org/2000/svg">
<path d="M2.80664 15.8398L1 18.2715H9.83789L10.5117 5.50781L2.80664 15.8398ZM38.8223 4.46289L26.2637 3.125L39.5156 17.5L38.8223 4.46289ZM11.0781 21.3184L9.98438 19.1699H1.08789L23.0508 44.7266L11.0781 21.3184ZM11.2734 18.2715H39.0078L31.0488 9.62891L25.1504 3.22266L11.2734 18.2715ZM40.3066 19.1602L27.2305 44.7266L49.1836 19.1699H40.3066V19.1602ZM40.6875 6.73828L39.7695 5.50781L39.8574 7.19727L40.4531 18.2715H49.2715L40.6875 6.73828ZM11.2051 9.13086L10.7559 17.4902L24.0176 3.125L11.459 4.46289L11.2051 9.13086ZM39.3008 19.1602H10.9805L15.1211 27.2559L25.1504 46.875L39.3008 19.1602Z" fill="white"/>
</svg>
