<svg width="44" height="50" viewBox="0 0 44 50" fill="none" xmlns="http://www.w3.org/2000/svg">
<g clip-path="url(#clip0)">
<path d="M9.3125 30.7715C9.3125 33.3008 7.24609 35.3672 4.7168 35.3672C2.1875 35.3672 0.121094 33.3008 0.121094 30.7715C0.121094 28.2422 2.1875 26.1758 4.7168 26.1758H9.3125V30.7715ZM11.6289 30.7715C11.6289 28.2422 13.6953 26.1758 16.2246 26.1758C18.7539 26.1758 20.8203 28.2422 20.8203 30.7715V42.2793C20.8203 44.8086 18.7539 46.875 16.2246 46.875C13.6953 46.875 11.6289 44.8086 11.6289 42.2793V30.7715ZM16.2246 12.3164C13.6953 12.3164 11.6289 10.25 11.6289 7.7207C11.6289 5.19141 13.6953 3.125 16.2246 3.125C18.7539 3.125 20.8203 5.19141 20.8203 7.7207V12.3164H16.2246ZM16.2246 14.6328C18.7539 14.6328 20.8203 16.6992 20.8203 19.2285C20.8203 21.7578 18.7539 23.8242 16.2246 23.8242H4.7168C2.1875 23.8242 0.121094 21.7578 0.121094 19.2285C0.121094 16.6992 2.1875 14.6328 4.7168 14.6328H16.2246ZM34.6797 19.2285C34.6797 16.6992 36.7461 14.6328 39.2754 14.6328C41.8047 14.6328 43.8711 16.6992 43.8711 19.2285C43.8711 21.7578 41.8047 23.8242 39.2754 23.8242H34.6797V19.2285ZM32.3633 19.2285C32.3633 21.7578 30.2969 23.8242 27.7676 23.8242C25.2383 23.8242 23.1719 21.7578 23.1719 19.2285V7.7207C23.1719 5.19141 25.2383 3.125 27.7676 3.125C30.2969 3.125 32.3633 5.19141 32.3633 7.7207V19.2285ZM27.7676 37.6836C30.2969 37.6836 32.3633 39.75 32.3633 42.2793C32.3633 44.8086 30.2969 46.875 27.7676 46.875C25.2383 46.875 23.1719 44.8086 23.1719 42.2793V37.6836H27.7676ZM27.7676 35.3672C25.2383 35.3672 23.1719 33.3008 23.1719 30.7715C23.1719 28.2422 25.2383 26.1758 27.7676 26.1758H39.2754C41.8047 26.1758 43.8711 28.2422 43.8711 30.7715C43.8711 33.3008 41.8047 35.3672 39.2754 35.3672H27.7676Z" fill="white"/>
</g>
<defs>
<clipPath id="clip0">
<rect width="43.75" height="50" fill="white" transform="translate(0.121094)"/>
</clipPath>
</defs>
</svg>
