<svg width="51" height="50" viewBox="0 0 51 50" fill="none" xmlns="http://www.w3.org/2000/svg">
<g clip-path="url(#clip0)">
<path d="M42.8125 9.375C45.4004 9.375 47.5 7.27539 47.5 4.6875C47.5 2.09961 45.4004 0 42.8125 0C40.2246 0 38.125 2.09961 38.125 4.6875C38.125 7.27539 40.2246 9.375 42.8125 9.375ZM45.625 24.375C46.1914 24.7949 46.8457 25 47.5 25C48.4472 25 49.3847 24.5703 50 23.75C51.0351 22.373 50.7617 20.4102 49.375 19.375L38.4961 11.2207C37.1484 10.2148 35.6543 9.42383 34.0625 8.89648L27.8418 6.82617L25.2929 1.73828C24.5215 0.195312 22.6465 -0.429688 21.1035 0.341797C19.5605 1.11328 18.9355 2.98828 19.707 4.53125L22.5488 10.2051C23.1054 11.3184 24.0722 12.1484 25.2539 12.5488L26.8554 13.0859L22.832 15.0977C20.7031 16.1621 19.375 18.3008 19.375 20.6836V25.8691L12.1387 28.2812C10.498 28.8281 9.61913 30.5957 10.166 32.2363C10.332 32.7441 10.6445 33.1543 11.0156 33.4961L7.23632 32.1191C6.28905 31.7773 5.5371 31.084 5.10741 30.166C4.56054 28.9941 3.16405 28.4863 1.99218 29.0332C0.820305 29.5801 0.312493 30.9766 0.859367 32.1484C1.8164 34.1992 3.50585 35.752 5.63475 36.5234L41.2597 49.4824C42.207 49.8242 43.1836 50 44.1601 50C45.3808 50 46.5918 49.7363 47.7246 49.1992C48.8964 48.6523 49.4043 47.2559 48.8574 46.084C48.3105 44.9121 46.914 44.4043 45.7422 44.9512C44.834 45.3809 43.8086 45.4199 42.8613 45.0781L33.9941 41.8457C34.8437 41.4453 35.5176 40.6934 35.7324 39.707L37.8711 29.7461C38.2519 27.9688 37.5586 26.1133 36.1035 25.0195L31.0254 21.2109L37.4707 18.2324L45.625 24.375ZM31.5234 29.4238L29.5996 38.4082C29.4531 39.1016 29.5898 39.7656 29.873 40.3613L13.3301 34.3457C13.5937 34.3262 13.8574 34.3066 14.1113 34.2188L22.4121 31.4453C24.3262 30.8105 25.6152 29.0234 25.6152 27.002V25L31.5234 29.4238Z" fill="white"/>
</g>
<defs>
<clipPath id="clip0">
<rect width="50" height="50" fill="white" transform="translate(0.625)"/>
</clipPath>
</defs>
</svg>
