<svg width="45" height="50" viewBox="0 0 45 50" fill="none" xmlns="http://www.w3.org/2000/svg">
<g clip-path="url(#clip0)">
<path d="M42.5898 19.8241C42.5898 8.87686 33.7128 -8.98669e-05 22.7655 -8.98669e-05C11.8183 -0.0196211 2.94132 8.84757 2.92178 19.7851C2.91429 23.9804 4.23888 28.0699 6.70471 31.4641C9.17053 34.8583 12.6503 37.3821 16.6425 38.6718V48.6034C16.6425 48.9738 16.7896 49.329 17.0515 49.5909C17.3134 49.8528 17.6686 49.9999 18.039 49.9999H27.453C27.8234 49.9999 28.1786 49.8528 28.4405 49.5909C28.7024 49.329 28.8495 48.9738 28.8495 48.6034V38.6816C32.838 37.3926 36.3159 34.8736 38.7843 31.4859C41.2527 28.0982 42.5849 24.0158 42.5898 19.8241ZM16.0663 19.8241C16.0663 10.9569 29.4745 10.9569 29.4745 19.8241C29.4648 28.6034 16.0663 28.7108 16.0663 19.8241Z" fill="white"/>
</g>
<defs>
<clipPath id="clip0">
<rect width="43.75" height="50" fill="white" transform="translate(0.871094)"/>
</clipPath>
</defs>
</svg>
