<svg width="52" height="50" viewBox="0 0 52 50" fill="none" xmlns="http://www.w3.org/2000/svg">
<path d="M41.7094 2.13675H10.0854C8.04531 2.13675 6.08874 2.94719 4.64615 4.38977C3.20356 5.83236 2.39313 7.78893 2.39313 9.82906V40.1709C2.39313 42.2111 3.20356 44.1676 4.64615 45.6102C6.08874 47.0528 8.04531 47.8632 10.0854 47.8632H41.7094C42.7195 47.8632 43.7198 47.6643 44.6531 47.2777C45.5864 46.8911 46.4344 46.3245 47.1487 45.6102C47.8629 44.8959 48.4296 44.0479 48.8161 43.1147C49.2027 42.1814 49.4017 41.1811 49.4017 40.1709V9.82906C49.4017 8.81889 49.2027 7.81861 48.8161 6.88534C48.4296 5.95206 47.8629 5.10407 47.1487 4.38977C46.4344 3.67548 45.5864 3.10887 44.6531 2.72229C43.7198 2.33572 42.7195 2.13675 41.7094 2.13675ZM18.953 36.1271C17.1292 36.1944 15.3173 35.8071 13.6805 35C13.6097 34.9471 13.553 34.8774 13.5158 34.7972C13.4785 34.7171 13.4617 34.6289 13.4668 34.5406V31.1592C13.4687 31.1272 13.4798 31.0965 13.4987 31.0707C13.5177 31.0449 13.5437 31.0251 13.5737 31.0138C13.6037 31.0025 13.6363 31.0001 13.6675 31.007C13.6988 31.0138 13.7275 31.0296 13.75 31.0523C15.2835 32.0981 17.0969 32.6566 18.953 32.6549C21.5277 32.6549 22.5854 31.3141 22.5854 29.797C22.5854 28.4615 21.9124 27.3664 19.4444 25.9188L18.1784 25.2511C14.5459 23.2051 13.4882 21.1271 13.4882 18.4829C13.4882 14.8878 15.9936 11.9925 20.7158 11.9925C22.7938 11.9925 24.3376 12.313 25.219 12.8045C25.3953 12.8739 25.4327 12.9808 25.4327 13.1944V16.3675C25.4347 16.4012 25.4267 16.4346 25.4097 16.4638C25.3928 16.4929 25.3676 16.5163 25.3373 16.5312C25.3071 16.546 25.2731 16.5516 25.2397 16.5472C25.2063 16.5428 25.1749 16.5286 25.1495 16.5064C23.82 15.7574 22.3104 15.3878 20.7852 15.438C18.0715 15.438 17.1901 16.9925 17.1901 18.2265C17.1901 19.562 17.8579 20.5502 20.2938 21.891L21.4209 22.4893C25.438 24.7115 26.4636 26.859 26.4636 29.5032C26.4743 33.4135 23.6164 36.1271 18.953 36.1271ZM38.3173 21.5812C38.3173 21.7575 38.2104 21.7949 38.0715 21.7949H34.9786V30.7479C34.9786 32.1955 35.4701 32.8526 36.7788 32.8526C37.1805 32.8573 37.5811 32.8088 37.9701 32.7083C38.0769 32.6763 38.1837 32.7457 38.1837 32.922V35.3205C38.191 35.4028 38.1708 35.4851 38.1264 35.5547C38.0819 35.6242 38.0157 35.6771 37.938 35.7051C37.1014 36.0083 36.2153 36.1514 35.3258 36.1271C32.6549 36.1271 31.1324 34.7169 31.1324 31.4049V21.7895H29.1025C28.9262 21.7895 28.8835 21.7201 28.8835 21.5438V18.6966C28.8835 18.5203 28.9209 18.4135 29.1292 18.4135H31.1592C31.1884 17.0571 31.2936 15.7035 31.4743 14.359C31.4743 14.1132 31.5812 14.0438 31.7201 14.0064L34.8931 13.5844C35.0374 13.547 35.1389 13.5844 35.1389 13.7607C35.0694 14.781 35.0374 16.5118 35 18.4135H38.0929C38.2692 18.4135 38.3386 18.4829 38.3386 18.6592L38.3173 21.5812Z" fill="white"/>
</svg>
