<svg width="51" height="50" viewBox="0 0 51 50" fill="none" xmlns="http://www.w3.org/2000/svg">
<g clip-path="url(#clip0)">
<path d="M13.125 46.875H38.125V7.8125C38.125 5.22461 36.0254 3.125 33.4375 3.125H17.8125C15.2246 3.125 13.125 5.22461 13.125 7.8125V46.875ZM19.375 9.375H31.875V12.5H19.375V9.375ZM50.625 17.1875V42.1875C50.625 44.7754 48.5254 46.875 45.9375 46.875H41.25V12.5H45.9375C48.5254 12.5 50.625 14.5996 50.625 17.1875ZM10 46.875H5.3125C2.72461 46.875 0.625 44.7754 0.625 42.1875V17.1875C0.625 14.5996 2.72461 12.5 5.3125 12.5H10V46.875Z" fill="white"/>
</g>
<defs>
<clipPath id="clip0">
<rect width="50" height="50" fill="white" transform="translate(0.625)"/>
</clipPath>
</defs>
</svg>
