<svg width="51" height="50" viewBox="0 0 51 50" fill="none" xmlns="http://www.w3.org/2000/svg">
<path d="M25.625 15.625C20.459 15.625 16.25 19.834 16.25 25C16.25 30.166 20.459 34.375 25.625 34.375C30.791 34.375 35 30.166 35 25C35 19.834 30.791 15.625 25.625 15.625ZM49.6875 23.4863L40.4395 18.8672L43.7109 9.0625C44.1504 7.73438 42.8906 6.47461 41.5723 6.92383L31.7676 10.1953L27.1387 0.9375C26.5137 -0.3125 24.7363 -0.3125 24.1113 0.9375L19.4922 10.1855L9.67773 6.91406C8.34961 6.47461 7.08984 7.73437 7.53906 9.05273L10.8105 18.8574L1.5625 23.4863C0.3125 24.1113 0.3125 25.8887 1.5625 26.5137L10.8105 31.1328L7.53906 40.9473C7.09961 42.2754 8.35937 43.5352 9.67773 43.0859L19.4824 39.8145L24.1016 49.0625C24.7266 50.3125 26.5039 50.3125 27.1289 49.0625L31.748 39.8145L41.5527 43.0859C42.8809 43.5254 44.1406 42.2656 43.6914 40.9473L40.4199 31.1426L49.668 26.5234C50.9375 25.8887 50.9375 24.1113 49.6875 23.4863ZM34.4629 33.8379C29.5898 38.7109 21.6602 38.7109 16.7871 33.8379C11.9141 28.9648 11.9141 21.0352 16.7871 16.1621C21.6602 11.2891 29.5898 11.2891 34.4629 16.1621C39.3359 21.0352 39.3359 28.9648 34.4629 33.8379Z" fill="white"/>
</svg>
