<svg width="44" height="50" viewBox="0 0 44 50" fill="none" xmlns="http://www.w3.org/2000/svg">
<path d="M43.75 15.2432C43.75 14.8027 43.7422 14.3643 43.7305 13.9229C43.7188 12.9602 43.6346 11.9998 43.4785 11.0498C43.3157 10.0987 43.0122 9.17719 42.5782 8.31543C41.6967 6.58472 40.2895 5.17786 38.5586 4.29688C37.6971 3.8622 36.7755 3.55871 35.8242 3.39648C34.874 3.23962 33.9132 3.15507 32.9502 3.14355C32.5098 3.13184 32.0713 3.12695 31.6299 3.12402H12.1231C11.6826 3.12402 11.2441 3.13184 10.8027 3.14355C10.5635 3.15039 10.3232 3.1582 10.083 3.16992C9.36078 3.19892 8.64118 3.2746 7.92872 3.39648C7.21895 3.52034 6.52454 3.72005 5.85743 3.99219C5.63217 4.08659 5.41049 4.18815 5.19239 4.29688C4.54876 4.6263 3.94601 5.03011 3.39649 5.5C3.21289 5.65723 3.03613 5.82031 2.86621 5.98828C2.18222 6.67051 1.61039 7.45658 1.17188 8.31738C0.737575 9.17905 0.434111 10.1006 0.271485 11.0518C0.116886 12.0012 0.0339699 12.961 0.0234375 13.9229C0.0107422 14.3633 0.00585938 14.8018 0.00292969 15.2432V34.7578C0.00292969 35.1982 0.0107422 35.6367 0.0234375 36.0771C0.0350785 37.0398 0.119302 38.0002 0.275391 38.9502C0.437805 39.9014 0.741278 40.823 1.17578 41.6846C2.05769 43.4139 3.46347 44.8204 5.19239 45.7031C6.05412 46.1371 6.9757 46.4402 7.92676 46.6025C8.877 46.7594 9.83776 46.844 10.8008 46.8555C11.2402 46.8672 11.6797 46.8721 12.1211 46.875H31.6319C32.0723 46.875 32.5108 46.8672 32.9522 46.8555C33.9155 46.8434 34.8765 46.7589 35.8272 46.6025C36.7782 46.4401 37.6998 46.1369 38.5615 45.7031C40.291 44.8206 41.6969 43.4137 42.5782 41.6836C43.0127 40.822 43.3161 39.9004 43.4785 38.9492C43.6354 37.9993 43.72 37.0389 43.7315 36.0762C43.7432 35.6367 43.7481 35.1973 43.751 34.7568V16.8105C43.75 16.2881 43.75 15.7656 43.75 15.2432ZM36.9258 38.7783C34.9727 34.9766 31.3369 35.9199 29.4737 36.877C29.3057 36.9746 29.1338 37.0723 28.961 37.1699L28.9199 37.1943C25.0625 39.2451 19.8838 39.3955 14.6768 37.1572C10.438 35.3193 6.85389 32.2431 4.39453 28.332C5.59106 29.2173 6.87239 29.9818 8.21973 30.6143C13.7236 33.1924 19.2549 33.0059 23.1611 30.6143C17.5947 26.332 12.9463 20.751 9.38282 16.2373C8.70396 15.4453 8.09061 14.5994 7.54883 13.708C11.8164 17.6143 18.5547 22.5186 20.9746 23.876C15.8408 18.457 11.3174 11.7725 11.5293 11.9873C19.6143 20.1338 27.0742 24.7402 27.0742 24.7402C27.3555 24.8945 27.5625 25.0186 27.7315 25.1309C27.8877 24.7322 28.0233 24.3257 28.1377 23.9131C29.4287 19.1934 27.9756 13.7979 24.6895 9.34277C32.1885 13.8428 36.6211 22.3965 34.8047 29.6309C34.7617 29.7998 34.7119 29.9629 34.6641 30.1279C38.4258 34.7568 37.4024 39.7148 36.9229 38.7793L36.9258 38.7783Z" fill="white"/>
</svg>
