<svg width="63" height="50" viewBox="0 0 63 50" fill="none" xmlns="http://www.w3.org/2000/svg">
<g clip-path="url(#clip0)">
<path d="M18.5166 30.33C18.8623 30.6484 20.0078 31.25 21.875 31.25C23.7422 31.25 24.8887 30.6484 25.2334 30.33C26.7979 28.8876 28.6025 28.125 30.4541 28.125H32.0459C33.8975 28.125 35.7031 28.8876 37.2666 30.33C37.6123 30.6484 38.7578 31.25 40.625 31.25C42.4922 31.25 43.6387 30.6484 43.9834 30.33C45.4346 28.9912 47.0967 28.2675 48.8066 28.166L37.7871 20.2949L39.5449 19.039C39.9004 18.7871 40.3535 18.6953 40.7773 18.7841L50.5771 20.8867C53.1074 21.4267 55.6006 19.8154 56.1436 17.2851C56.6855 14.7539 55.0742 12.2617 52.542 11.7187L42.7422 9.61616C39.7412 8.97358 36.5879 9.62788 34.0938 11.4111L26.2793 16.9941C25.2656 17.7158 24.3887 18.5996 23.6699 19.625L16.9678 29.1992C17.502 29.5146 18.0244 29.8759 18.5166 30.33ZM60.9375 34.375H59.375C56.832 34.375 54.9023 33.5527 53.8975 32.6269C53.0283 31.8251 51.9775 31.25 50.7949 31.25H49.2031C48.0205 31.25 46.9697 31.8251 46.1006 32.6269C45.0977 33.5527 43.168 34.375 40.625 34.375C38.082 34.375 36.1523 33.5527 35.1475 32.6269C34.2783 31.8251 33.2275 31.25 32.0449 31.25H30.4531C29.2705 31.25 28.2197 31.8251 27.3506 32.6269C26.3477 33.5527 24.418 34.375 21.875 34.375C19.332 34.375 17.4023 33.5527 16.3975 32.6269C15.5283 31.8251 14.4775 31.25 13.2949 31.25H11.7031C10.5205 31.25 9.46973 31.8251 8.60059 32.6269C7.59766 33.5527 5.66797 34.375 3.125 34.375H1.5625C0.699219 34.375 0 35.0742 0 35.9375V39.0625C0 39.9257 0.699219 40.625 1.5625 40.625H3.125C6.89648 40.625 10.2266 39.4345 12.5 37.5156C14.7734 39.4355 18.1035 40.625 21.875 40.625C25.6465 40.625 28.9766 39.4345 31.25 37.5156C33.5234 39.4355 36.8535 40.625 40.625 40.625C44.3965 40.625 47.7266 39.4345 50 37.5156C52.2734 39.4355 55.6035 40.625 59.375 40.625H60.9375C61.8008 40.625 62.5 39.9257 62.5 39.0625V35.9375C62.5 35.0742 61.8008 34.375 60.9375 34.375ZM10.9375 25C15.252 25 18.75 21.5019 18.75 17.1875C18.75 12.873 15.252 9.37495 10.9375 9.37495C6.62305 9.37495 3.125 12.873 3.125 17.1875C3.125 21.5019 6.62305 25 10.9375 25Z" fill="white"/>
</g>
<defs>
<clipPath id="clip0">
<rect width="62.5" height="50" fill="white"/>
</clipPath>
</defs>
</svg>
