<svg width="51" height="50" viewBox="0 0 51 50" fill="none" xmlns="http://www.w3.org/2000/svg">
<path d="M0.5 24.6209V4.6875C0.5 2.09863 2.59863 0 5.1875 0H25.1209C26.3641 6.50075e-06 27.5564 0.493871 28.4354 1.37295L49.1271 22.0646C50.9576 23.8951 50.9576 26.8631 49.1271 28.6937L29.1937 48.6271C27.3631 50.4576 24.3951 50.4576 22.5646 48.6271L1.87295 27.9354C0.993871 27.0564 0.500007 25.8641 0.5 24.6209ZM11.4375 6.25C8.84863 6.25 6.75 8.34863 6.75 10.9375C6.75 13.5264 8.84863 15.625 11.4375 15.625C14.0264 15.625 16.125 13.5264 16.125 10.9375C16.125 8.34863 14.0264 6.25 11.4375 6.25Z" fill="white"/>
</svg>
