<svg width="63" height="50" viewBox="0 0 63 50" fill="none" xmlns="http://www.w3.org/2000/svg">
<g clip-path="url(#clip0)">
<path d="M49.1271 22.0646L28.4354 1.37295C27.5564 0.493871 26.3641 6.50075e-06 25.1209 0H5.1875C2.59863 0 0.5 2.09863 0.5 4.6875V24.6209C0.500007 25.8641 0.993871 27.0564 1.87295 27.9354L22.5646 48.6271C24.395 50.4576 27.363 50.4577 29.1937 48.6271L49.1271 28.6937C50.9576 26.8631 50.9576 23.8951 49.1271 22.0646ZM11.4375 15.625C8.84863 15.625 6.75 13.5264 6.75 10.9375C6.75 8.34863 8.84863 6.25 11.4375 6.25C14.0264 6.25 16.125 8.34863 16.125 10.9375C16.125 13.5264 14.0264 15.625 11.4375 15.625ZM61.627 28.6937L41.6937 48.6271C39.8631 50.4576 36.8951 50.4576 35.0646 48.6271L35.0294 48.5919L52.0273 31.5939C53.6874 29.9339 54.6016 27.7268 54.6016 25.3791C54.6016 23.0314 53.6873 20.8243 52.0273 19.1643L32.863 0H37.6209C38.8641 6.50075e-06 40.0564 0.493871 40.9354 1.37295L61.627 22.0646C63.4576 23.8951 63.4576 26.8631 61.627 28.6937Z" fill="white"/>
</g>
<defs>
<clipPath id="clip0">
<rect width="62.5" height="50" fill="white" transform="translate(0.5)"/>
</clipPath>
</defs>
</svg>
