<svg width="63" height="50" viewBox="0 0 63 50" fill="none" xmlns="http://www.w3.org/2000/svg">
<path d="M25.1999 26.6996L6.1999 45.6996C5.2999 46.5996 3.7999 46.5996 2.8999 45.6996L0.699902 43.4996C-0.200098 42.5996 -0.200098 41.0996 0.699902 40.1996L15.6999 25.0996L0.699902 9.89961C-0.200098 8.99961 -0.200098 7.49961 0.699902 6.59961L2.8999 4.39961C3.7999 3.49961 5.2999 3.49961 6.1999 4.39961L25.1999 23.3996C26.0999 24.2996 26.0999 25.6996 25.1999 26.6996ZM62.4999 44.4996V41.3996C62.4999 40.0996 61.4999 39.0996 60.1999 39.0996H30.4999C29.1999 39.0996 28.1999 40.0996 28.1999 41.3996V44.4996C28.1999 45.7996 29.1999 46.7996 30.4999 46.7996H60.1999C61.4999 46.8996 62.4999 45.7996 62.4999 44.4996Z" fill="white"/>
</svg>
