<svg width="45" height="50" viewBox="0 0 45 50" fill="none" xmlns="http://www.w3.org/2000/svg">
<g clip-path="url(#clip0)">
<path d="M44.25 20.499C39.9506 20.5093 35.7567 19.1685 32.2607 16.666V34.1191C32.2595 37.3517 31.2715 40.5068 29.4288 43.1626C27.586 45.8184 24.9764 47.8484 21.9488 48.981C18.9212 50.1136 15.62 50.295 12.4866 49.5008C9.35315 48.7066 6.53686 46.9747 4.4143 44.5367C2.29174 42.0987 0.964075 39.0708 0.608829 35.8578C0.253584 32.6449 0.887693 29.4001 2.42637 26.5573C3.96504 23.7145 6.33494 21.4091 9.21918 19.9496C12.1034 18.49 15.3645 17.9458 18.5664 18.3896V27.168C17.1012 26.7071 15.5278 26.721 14.071 27.2076C12.6142 27.6943 11.3484 28.6288 10.4544 29.8778C9.56034 31.1268 9.08384 32.6263 9.09288 34.1622C9.10193 35.6982 9.59607 37.192 10.5047 38.4303C11.4134 39.6687 12.6901 40.5882 14.1526 41.0577C15.6151 41.5272 17.1885 41.5225 18.6481 41.0444C20.1078 40.5663 21.379 39.6392 22.2804 38.3955C23.1817 37.1518 23.667 35.6551 23.667 34.1191V0H32.2607C32.2548 0.725723 32.3156 1.45046 32.4424 2.16504C32.741 3.76023 33.3619 5.27774 34.2671 6.62474C35.1723 7.97174 36.3428 9.11991 37.707 9.99902C39.6478 11.2823 41.9233 11.9663 44.25 11.9658V20.499Z" fill="white"/>
</g>
<defs>
<clipPath id="clip0">
<rect width="43.75" height="50" fill="white" transform="translate(0.5)"/>
</clipPath>
</defs>
</svg>
