<svg width="51" height="50" viewBox="0 0 51 50" fill="none" xmlns="http://www.w3.org/2000/svg">
<g clip-path="url(#clip0)">
<path d="M49.4356 38.6426L38 27.207C35.7442 24.9512 32.375 24.5117 29.6602 25.8496L19.25 15.4395V9.375L6.75003 0L0.50003 6.25L9.87503 18.75H15.9395L26.3496 29.1602C25.0215 31.875 25.4512 35.2441 27.7071 37.5L39.1426 48.9355C40.5684 50.3613 42.8731 50.3613 44.2891 48.9355L49.4356 43.7891C50.8516 42.3633 50.8516 40.0586 49.4356 38.6426ZM32.8926 21.9727C35.6563 21.9727 38.2539 23.0469 40.2071 25L42.1016 26.8945C43.6446 26.2207 45.1094 25.2832 46.3789 24.0137C50.002 20.3906 51.2324 15.293 50.0801 10.6641C49.8653 9.78516 48.7617 9.48242 48.1172 10.127L40.8516 17.3926L34.2207 16.2891L33.1172 9.6582L40.3828 2.39258C41.0274 1.74805 40.7149 0.644531 39.8262 0.419922C35.1973 -0.722656 30.0996 0.507813 26.4864 4.12109C23.7032 6.9043 22.3946 10.5762 22.4629 14.2383L30.4805 22.2559C31.2715 22.0703 32.0918 21.9727 32.8926 21.9727ZM22.7461 29.9805L17.209 24.4434L2.3262 39.3359C-0.115204 41.7773 -0.115204 45.7324 2.3262 48.1738C4.76761 50.6152 8.72269 50.6152 11.1641 48.1738L23.2344 36.1035C22.4922 34.1602 22.2676 32.041 22.7461 29.9805ZM6.75003 46.0938C5.46097 46.0938 4.40628 45.0391 4.40628 43.75C4.40628 42.4512 5.4512 41.4062 6.75003 41.4062C8.04886 41.4062 9.09378 42.4512 9.09378 43.75C9.09378 45.0391 8.04886 46.0938 6.75003 46.0938Z" fill="white"/>
</g>
<defs>
<clipPath id="clip0">
<rect width="50" height="50" fill="white" transform="translate(0.5)"/>
</clipPath>
</defs>
</svg>
