<svg width="52" height="50" viewBox="0 0 52 50" fill="none" xmlns="http://www.w3.org/2000/svg">
<path d="M41.9915 2.13675H10.3675C8.32741 2.13675 6.37084 2.94719 4.92826 4.38977C3.48567 5.83236 2.67523 7.78893 2.67523 9.82906V40.1709C2.67523 42.2111 3.48567 44.1676 4.92826 45.6102C6.37084 47.0528 8.32741 47.8632 10.3675 47.8632H41.9915C43.0016 47.8632 44.0019 47.6643 44.9352 47.2777C45.8685 46.8911 46.7165 46.3245 47.4308 45.6102C48.1451 44.8959 48.7117 44.0479 49.0982 43.1147C49.4848 42.1814 49.6838 41.1811 49.6838 40.1709V9.82906C49.6838 8.81889 49.4848 7.81861 49.0982 6.88534C48.7117 5.95206 48.1451 5.10407 47.4308 4.38977C46.7165 3.67548 45.8685 3.10887 44.9352 2.72229C44.0019 2.33572 43.0016 2.13675 41.9915 2.13675ZM25.3355 16.891H20.0524V35.828C20.0473 35.9057 20.0142 35.9789 19.9592 36.0339C19.9041 36.089 19.8309 36.1221 19.7532 36.1271H16.7244C16.6467 36.1221 16.5735 36.089 16.5184 36.0339C16.4634 35.9789 16.4303 35.9057 16.4252 35.828L16.5641 16.891H10.9498C10.8721 16.886 10.7989 16.8529 10.7439 16.7978C10.6888 16.7428 10.6557 16.6696 10.6507 16.5919L10.9498 13.8675C10.9547 13.7893 10.9876 13.7154 11.0426 13.6595C11.0975 13.6035 11.1708 13.5693 11.2489 13.563H24.8814C25.0363 13.563 25.0363 13.563 25.1859 13.7179V13.8889L25.4851 16.6132C25.4851 16.7415 25.4851 16.7415 25.3355 16.891ZM40.64 36.1218H36.8633C36.7856 36.1168 36.7124 36.0836 36.6573 36.0286C36.6023 35.9735 36.5691 35.9003 36.5641 35.8226C35.4957 34.4498 32.7821 30.5182 31.4092 28.6966V35.828C31.4092 35.9776 31.4092 35.9776 31.2596 36.1271H28.0812C27.9316 36.1271 27.9316 36.1271 27.7821 35.9776V13.8889C27.7821 13.7393 27.7821 13.7393 27.9316 13.5844H31.1101C31.1882 13.5907 31.2615 13.6249 31.3164 13.6808C31.3714 13.7368 31.4043 13.8106 31.4092 13.8889L31.2596 27.0673L36.2596 20.2404C36.2596 20.0908 36.4146 20.0908 36.5641 20.0908H39.8921C40.1913 20.0908 40.1913 20.2404 40.0417 20.39C39.2885 21.4583 35.64 25.844 34.4381 27.2169V27.5214L40.7895 35.828C40.9445 35.9776 40.7895 36.1271 40.64 36.1271V36.1218Z" fill="white"/>
</svg>
