<svg width="49" height="50" viewBox="0 0 49 50" fill="none" xmlns="http://www.w3.org/2000/svg">
<path d="M24.2 0.799805C10.8 0.799805 0 11.5998 0 24.9998C0 38.3998 10.8 49.1998 24.2 49.1998C37.6 49.1998 48.4 38.3998 48.4 24.9998C48.4 11.5998 37.6 0.799805 24.2 0.799805ZM29.4 9.8998C30.3 8.3998 32.2 7.8998 33.6 8.7998C35.1 9.6998 35.6 11.5998 34.7 13.0998C33.8 14.5998 31.9 15.0998 30.5 14.1998C29 13.2998 28.5 11.2998 29.4 9.8998ZM8.5 28.0998C6.8 28.0998 5.4 26.6998 5.4 24.9998C5.4 23.2998 6.8 21.8998 8.5 21.8998C10.2 21.8998 11.6 23.2998 11.6 24.9998C11.6 26.6998 10.3 28.0998 8.5 28.0998ZM11.3 28.3998C13.5 26.6998 13.5 23.2998 11.3 21.5998C12.1 18.3998 14.1 15.6998 16.8 13.8998L19.1 17.7998C14.1 21.2998 14.1 28.7998 19.1 32.2998L16.8 36.1998C14.1 34.2998 12.1 31.5998 11.3 28.3998ZM33.6 41.2998C32.1 42.1998 30.2 41.6998 29.4 40.1998C28.5 38.6998 29 36.7998 30.5 35.8998C32 34.9998 33.9 35.4998 34.7 36.9998C35.6 38.4998 35.1 40.3998 33.6 41.2998ZM33.6 34.4998C31 33.4998 28.1 35.0998 27.7 37.8998C27.2 37.9998 23 39.2998 18.3 36.9998L20.5 33.0998C26.1 35.6998 32.6 31.9998 33.1 25.7998L37.6 25.8998C37.4 29.1998 35.9 32.2998 33.6 34.4998ZM33.1 24.1998C32.6 18.0998 26.1 14.2998 20.5 16.8998L18.3 12.9998C23 10.6998 27.2 11.8998 27.7 12.0998C28.1 14.8998 31 16.4998 33.6 15.4998C35.9 17.6998 37.3 20.7998 37.5 24.0998L33.1 24.1998Z" fill="white"/>
</svg>
