<svg width="51" height="50" viewBox="0 0 51 50" fill="none" xmlns="http://www.w3.org/2000/svg">
<path d="M49.1875 12.5V14.0625C49.1875 14.2697 49.1052 14.4685 48.9587 14.615C48.8122 14.7615 48.6135 14.8438 48.4062 14.8438H46.0625V16.0157C46.0625 16.6628 45.5378 17.1875 44.8906 17.1875H6.60938C5.96221 17.1875 5.4375 16.6628 5.4375 16.0157V14.8438H3.09375C2.88655 14.8438 2.68784 14.7615 2.54132 14.615C2.39481 14.4685 2.3125 14.2697 2.3125 14.0625V12.5C2.3125 12.3455 2.35835 12.1944 2.44424 12.0659C2.53013 11.9374 2.6522 11.8373 2.79502 11.7782L25.4513 3.1844C25.6425 3.1052 25.8575 3.1052 26.0487 3.1844L48.705 11.7782C48.8478 11.8373 48.9699 11.9374 49.0558 12.0659C49.1417 12.1944 49.1875 12.3455 49.1875 12.5ZM46.8438 42.1875H4.65625C3.36182 42.1875 2.3125 43.2369 2.3125 44.5313V46.0938C2.3125 46.301 2.39481 46.4997 2.54132 46.6462C2.68784 46.7927 2.88655 46.875 3.09375 46.875H48.4062C48.6135 46.875 48.8122 46.7927 48.9587 46.6462C49.1052 46.4997 49.1875 46.301 49.1875 46.0938V44.5313C49.1875 43.2369 48.1382 42.1875 46.8438 42.1875ZM10.125 18.75V37.5H6.60938C5.96221 37.5 5.4375 38.0248 5.4375 38.6719V40.625H46.0625V38.6719C46.0625 38.0248 45.5378 37.5 44.8906 37.5H41.375V18.75H35.125V37.5H28.875V18.75H22.625V37.5H16.375V18.75H10.125Z" fill="white"/>
</svg>
