<svg width="44" height="50" viewBox="0 0 44 50" fill="none" xmlns="http://www.w3.org/2000/svg">
<g clip-path="url(#clip0)">
<path d="M31.3789 31.3085L22.0625 40.6249L12.7461 31.3085C5.76367 31.6112 0.1875 37.3241 0.1875 44.3749V45.3124C0.1875 47.9003 2.28711 49.9999 4.875 49.9999H39.25C41.8379 49.9999 43.9375 47.9003 43.9375 45.3124V44.3749C43.9375 37.3241 38.3613 31.6112 31.3789 31.3085ZM1.51562 7.79285L2.14062 7.93933V13.6425C1.45703 14.0526 0.96875 14.7655 0.96875 15.6249C0.96875 16.4452 1.41797 17.1288 2.05273 17.5487L0.529297 23.6327C0.363281 24.3065 0.734375 24.9999 1.27148 24.9999H5.35352C5.89062 24.9999 6.26172 24.3065 6.0957 23.6327L4.57227 17.5487C5.20703 17.1288 5.65625 16.4452 5.65625 15.6249C5.65625 14.7655 5.16797 14.0526 4.48438 13.6425V8.50574L10.9297 10.0585C10.0898 11.7382 9.5625 13.6132 9.5625 15.6249C9.5625 22.5292 15.1582 28.1249 22.0625 28.1249C28.9668 28.1249 34.5625 22.5292 34.5625 15.6249C34.5625 13.6132 34.0449 11.7382 33.1953 10.0585L42.5996 7.79285C44.377 7.36316 44.377 5.14636 42.5996 4.71667L24.0059 0.224487C22.7363 -0.0782471 21.3984 -0.0782471 20.1289 0.224487L1.51562 4.70691C-0.251953 5.1366 -0.251953 7.36316 1.51562 7.79285Z" fill="white"/>
</g>
<defs>
<clipPath id="clip0">
<rect width="43.75" height="50" fill="white" transform="translate(0.1875)"/>
</clipPath>
</defs>
</svg>
