<svg width="45" height="50" viewBox="0 0 45 50" fill="none" xmlns="http://www.w3.org/2000/svg">
<path d="M38.4277 30.1069L40.7617 23.9937C41.1523 22.9683 40.4004 21.8745 39.2969 21.8745H33.584C34.6582 20.0288 35.3223 17.9097 35.3223 15.6245V15.5952C39.1504 14.8335 41.5723 13.73 41.5723 12.4995C41.5723 11.2007 38.9062 10.0483 34.7266 9.27689C33.8281 6.07377 32.0898 2.85111 30.7617 1.19096C29.834 0.0288495 28.2324 -0.332478 26.9043 0.331584L24.209 1.67924C23.3301 2.11869 22.2949 2.11869 21.416 1.67924L18.7207 0.331584C17.3926 -0.332478 15.791 0.0288495 14.8633 1.19096C13.5449 2.85111 11.7969 6.07377 10.8984 9.27689C6.72852 10.0483 4.0625 11.2007 4.0625 12.4995C4.0625 13.73 6.48437 14.8335 10.3125 15.5952V15.6245C10.3125 17.9097 10.9766 20.0288 12.0508 21.8745H6.43555C5.3125 21.8745 4.56055 23.0171 5 24.0523L7.51953 29.9312C3.60352 32.2065 0.9375 36.396 0.9375 41.2495V45.6245C0.9375 48.0366 2.90039 49.9995 5.3125 49.9995H40.3125C42.7246 49.9995 44.6875 48.0366 44.6875 45.6245V41.2495C44.6875 36.523 42.168 32.4214 38.4277 30.1069ZM18.125 46.8745L14.0625 28.1245L18.9062 31.2495L21.25 35.1558L18.125 46.8745ZM27.5 46.8745L24.375 35.1558L26.7188 31.2495L31.5625 28.1245L27.5 46.8745ZM31.5723 17.7241C31.1914 18.8862 30.8887 20.1265 29.9609 20.9858C28.9746 21.8941 25.2734 23.1733 23.7109 18.5444C23.4375 17.7241 22.207 17.7241 21.9238 18.5444C20.2637 23.4468 16.4551 21.7085 15.6738 20.9858C14.7461 20.1265 14.4336 18.8862 14.0625 17.7241C13.9844 17.48 13.4473 17.1675 13.4473 17.1577V16.103C16.2109 16.4546 19.4043 16.6694 22.8223 16.6694C26.2402 16.6694 29.4336 16.4644 32.1973 16.103V17.1577C32.1875 17.1675 31.6504 17.4702 31.5723 17.7241Z" fill="white"/>
</svg>
