<svg width="44" height="50" viewBox="0 0 44 50" fill="none" xmlns="http://www.w3.org/2000/svg">
<g clip-path="url(#clip0)">
<path d="M31.3789 31.3081L22.0625 40.6245L12.7461 31.3081C5.76367 31.6108 0.1875 37.3237 0.1875 44.3745V45.312C0.1875 47.8999 2.28711 49.9995 4.875 49.9995H39.25C41.8379 49.9995 43.9375 47.8999 43.9375 45.312V44.3745C43.9375 37.3237 38.3613 31.6108 31.3789 31.3081ZM1.51563 7.79248L2.14062 7.93896V13.6421C1.45703 14.0522 0.96875 14.7651 0.96875 15.6245C0.96875 16.4448 1.41797 17.1284 2.05273 17.5483L0.529297 23.6323C0.363281 24.3061 0.734375 24.9995 1.27148 24.9995H5.35352C5.89063 24.9995 6.26172 24.3061 6.0957 23.6323L4.57227 17.5483C5.20703 17.1284 5.65625 16.4448 5.65625 15.6245C5.65625 14.7651 5.16797 14.0522 4.48438 13.6421V8.50537L10.9297 10.0581C10.0898 11.7378 9.5625 13.6128 9.5625 15.6245C9.5625 22.5288 15.1582 28.1245 22.0625 28.1245C28.9668 28.1245 34.5625 22.5288 34.5625 15.6245C34.5625 13.6128 34.0449 11.7378 33.1953 10.0581L42.5996 7.79248C44.377 7.36279 44.377 5.14599 42.5996 4.7163L24.0059 0.224121C22.7363 -0.0786132 21.3984 -0.0786132 20.1289 0.224121L1.51563 4.70654C-0.251953 5.13623 -0.251953 7.36279 1.51563 7.79248Z" fill="white"/>
</g>
<defs>
<clipPath id="clip0">
<rect width="44" height="50" fill="white"/>
</clipPath>
</defs>
</svg>
