<svg width="44" height="50" viewBox="0 0 44 50" fill="none" xmlns="http://www.w3.org/2000/svg">
<path d="M43.918 15.0001C43.7227 19.2579 40.7539 25.088 34.9922 32.4903C29.0449 40.2247 24.0156 44.0919 19.8945 44.0919C17.3457 44.0919 15.1875 41.7384 13.4199 37.0314C9.98242 24.4142 8.51758 17.0216 5.67578 17.0216C5.34375 17.0216 4.20117 17.715 2.23828 19.0821L0.1875 16.4259C5.22656 12.0021 10.041 7.08018 13.0586 6.80674C16.4668 6.47471 18.5566 8.8087 19.3477 13.7892C22.1504 31.5138 23.3906 34.1896 28.4883 26.1622C30.3144 23.2716 31.3008 21.0743 31.4375 19.5607C31.9062 15.0782 27.9414 15.381 25.2559 16.5333C27.4043 9.49229 31.5156 6.07432 37.5801 6.26964C42.0527 6.38682 44.1719 9.30675 43.918 15.0001Z" fill="white"/>
</svg>
