<svg width="64" height="50" viewBox="0 0 64 50" fill="none" xmlns="http://www.w3.org/2000/svg">
<path d="M60.3125 6.25H4.0625C2.33691 6.25 0.9375 7.64941 0.9375 9.375V40.625C0.9375 42.3506 2.33691 43.75 4.0625 43.75H19.709C22.1689 43.75 24.3994 42.3076 25.4082 40.0645L28.1172 34.0449C28.8877 32.332 30.4639 31.25 32.1875 31.25C33.9111 31.25 35.4873 32.332 36.2578 34.0449L38.9668 40.0645C39.9756 42.3076 42.207 43.75 44.666 43.75H60.3125C62.0381 43.75 63.4375 42.3506 63.4375 40.625V9.375C63.4375 7.64941 62.0381 6.25 60.3125 6.25ZM16.5625 29.6875C13.1104 29.6875 10.3125 26.8896 10.3125 23.4375C10.3125 19.9854 13.1104 17.1875 16.5625 17.1875C20.0146 17.1875 22.8125 19.9854 22.8125 23.4375C22.8125 26.8896 20.0146 29.6875 16.5625 29.6875ZM47.8125 29.6875C44.3604 29.6875 41.5625 26.8896 41.5625 23.4375C41.5625 19.9854 44.3604 17.1875 47.8125 17.1875C51.2646 17.1875 54.0625 19.9854 54.0625 23.4375C54.0625 26.8896 51.2646 29.6875 47.8125 29.6875Z" fill="white"/>
</svg>
