<svg width="32" height="50" viewBox="0 0 32 50" fill="none" xmlns="http://www.w3.org/2000/svg">
<g clip-path="url(#clip0)">
<path d="M20.3126 9.375C22.9005 9.375 25.0001 7.27539 25.0001 4.6875C25.0001 2.09961 22.9005 0 20.3126 0C17.7247 0 15.6251 2.09961 15.6251 4.6875C15.6251 7.27539 17.7247 9.375 20.3126 9.375ZM29.5411 23.9355L27.2657 22.7832L26.3184 19.9121C24.8829 15.5566 20.879 12.5098 16.338 12.5C12.8223 12.4902 10.879 13.4863 7.22664 14.9609C5.11727 15.8105 3.38876 17.4219 2.37313 19.4727L1.71884 20.8008C0.957118 22.3438 1.57235 24.2188 3.10555 24.9902C4.62899 25.7617 6.48446 25.1367 7.25594 23.5938L7.91024 22.2656C8.25203 21.582 8.81844 21.0449 9.52156 20.7617L12.1387 19.707L10.6544 25.6348C10.1466 27.666 10.6934 29.8242 12.1095 31.377L17.9591 37.7637C18.6622 38.5352 19.1602 39.4629 19.4141 40.4688L21.2012 47.627C21.6212 49.2969 23.3204 50.3223 24.9903 49.9023C26.6602 49.4824 27.6856 47.7832 27.2657 46.1133L25.0977 37.4219C24.8438 36.416 24.3458 35.4785 23.6426 34.7168L19.1993 29.8633L20.879 23.1543L21.4161 24.7656C21.9337 26.3379 23.0469 27.6367 24.5118 28.3789L26.7872 29.5312C28.3106 30.3027 30.1661 29.6777 30.9376 28.1348C31.6895 26.6016 31.0743 24.707 29.5411 23.9355ZM7.18758 37.6758C6.87508 38.4668 6.40633 39.1797 5.80086 39.7754L0.918056 44.668C-0.302646 45.8887 -0.302646 47.8711 0.918056 49.0918C2.13876 50.3125 4.11141 50.3125 5.33211 49.0918L11.1329 43.291C11.7286 42.6953 12.1973 41.9824 12.5196 41.1914L13.838 37.8906C8.43758 32.002 10.0587 33.8086 9.20906 32.6465L7.18758 37.6758Z" fill="white"/>
</g>
<defs>
<clipPath id="clip0">
<rect width="31.25" height="50" fill="white"/>
</clipPath>
</defs>
</svg>
