<svg width="57" height="50" viewBox="0 0 57 50" fill="none" xmlns="http://www.w3.org/2000/svg">
<path d="M55.1426 37.4904C53.043 37.256 51.0313 36.465 49.4883 35.254C48.1113 34.1701 46.1484 34.1505 44.7812 35.254C41.0801 38.2228 34.3125 38.2228 30.5527 35.1076C29.2344 34.0138 27.3301 34.2189 25.9922 35.2833C22.2813 38.2228 15.5527 38.213 11.8125 35.1173C10.4941 34.0236 8.56055 34.2482 7.21289 35.3126C5.69922 36.504 3.69727 37.2755 1.57813 37.5001C0.806641 37.5783 0.25 38.2619 0.25 39.0333V42.1779C0.25 43.0665 0.992188 43.8185 1.88086 43.7404C4.69336 43.4962 7.35937 42.6271 9.63477 41.2111C15.1523 44.59 23.0137 44.5412 28.3848 41.2111C33.9023 44.59 41.7637 44.5412 47.1348 41.2111C49.4102 42.5978 52.1055 43.4865 54.8594 43.7306C55.748 43.8087 56.4902 43.0568 56.4902 42.1681V39.0822C56.5 38.3009 55.9336 37.5783 55.1426 37.4904ZM55.1426 23.4279C53.043 23.1935 51.0313 22.4025 49.4883 21.1915C48.1113 20.1076 46.1484 20.088 44.7812 21.1915C41.0801 24.1603 34.3125 24.1603 30.5527 21.0451C29.2344 19.9513 27.3301 20.1564 25.9922 21.2208C22.2813 24.1603 15.5527 24.1505 11.8125 21.0548C10.4941 19.9611 8.56055 20.1857 7.21289 21.2501C5.69922 22.4415 3.69727 23.213 1.57813 23.4376C0.806641 23.5158 0.25 24.1994 0.25 24.9708V28.1154C0.25 29.004 0.992188 29.756 1.88086 29.6779C4.69336 29.4337 7.35937 28.5646 9.63477 27.1486C15.1523 30.5275 23.0137 30.4787 28.3848 27.1486C33.9023 30.5275 41.7637 30.4787 47.1348 27.1486C49.4102 28.5353 52.1055 29.424 54.8594 29.6681C55.748 29.7462 56.4902 28.9943 56.4902 28.1056V25.0197C56.5 24.2384 55.9336 23.5158 55.1426 23.4279ZM55.1426 9.36539C53.043 9.12125 51.0313 8.34 49.4883 7.12906C48.1113 6.04508 46.1484 6.02555 44.7812 7.12906C41.0801 10.0978 34.3125 10.0978 30.5527 6.98258C29.2344 5.88883 27.3301 6.09391 25.9922 7.15836C22.2813 10.0978 15.5527 10.088 11.8125 6.99235C10.4941 5.8986 8.56055 6.1232 7.21289 7.18766C5.69922 8.37906 3.69727 9.15055 1.57813 9.37516C0.806641 9.45328 0.25 10.1369 0.25 10.9083V14.0529C0.25 14.9415 0.992188 15.6935 1.88086 15.6154C4.69336 15.3712 7.35937 14.5021 9.63477 13.0861C15.1523 16.465 23.0137 16.4162 28.3848 13.0861C33.9023 16.465 41.7637 16.4162 47.1348 13.0861C49.4102 14.4728 52.1055 15.3615 54.8594 15.6056C55.748 15.6837 56.4902 14.9318 56.4902 14.0431V10.9572C56.5 10.1759 55.9336 9.45328 55.1426 9.36539Z" fill="white"/>
</svg>
