<svg width="57" height="50" viewBox="0 0 57 50" fill="none" xmlns="http://www.w3.org/2000/svg">
<g clip-path="url(#clip0)">
<path d="M55.1426 37.4903C53.043 37.2559 51.0312 36.4649 49.4883 35.2539C48.1113 34.17 46.1484 34.1504 44.7812 35.2539C41.0801 38.2227 34.3125 38.2227 30.5527 35.1075C29.2344 34.0137 27.3301 34.2188 25.9922 35.2832C22.2812 38.2227 15.5527 38.2129 11.8125 35.1172C10.4941 34.0235 8.56055 34.2481 7.21289 35.3125C5.69922 36.5039 3.69727 37.2754 1.57812 37.5C0.806641 37.5782 0.25 38.2618 0.25 39.0332V42.1778C0.25 43.0664 0.992188 43.8184 1.88086 43.7403C4.69336 43.4961 7.35938 42.627 9.63477 41.211C15.1523 44.5899 23.0137 44.5411 28.3848 41.211C33.9023 44.5899 41.7637 44.5411 47.1348 41.211C49.4102 42.5977 52.1055 43.4864 54.8594 43.7305C55.748 43.8086 56.4902 43.0567 56.4902 42.168V39.0821C56.5 38.3008 55.9336 37.5782 55.1426 37.4903ZM55.1426 23.4278C53.043 23.1934 51.0312 22.4024 49.4883 21.1914C48.1113 20.1075 46.1484 20.0879 44.7812 21.1914C41.0801 24.1602 34.3125 24.1602 30.5527 21.045C29.2344 19.9512 27.3301 20.1563 25.9922 21.2207C22.2812 24.1602 15.5527 24.1504 11.8125 21.0547C10.4941 19.961 8.56055 20.1856 7.21289 21.25C5.69922 22.4414 3.69727 23.2129 1.57812 23.4375C0.806641 23.5157 0.25 24.1993 0.25 24.9707V28.1153C0.25 29.0039 0.992188 29.7559 1.88086 29.6778C4.69336 29.4336 7.35938 28.5645 9.63477 27.1485C15.1523 30.5274 23.0137 30.4786 28.3848 27.1485C33.9023 30.5274 41.7637 30.4786 47.1348 27.1485C49.4102 28.5352 52.1055 29.4239 54.8594 29.668C55.748 29.7461 56.4902 28.9942 56.4902 28.1055V25.0196C56.5 24.2383 55.9336 23.5157 55.1426 23.4278ZM55.1426 9.36527C53.043 9.12113 51.0312 8.33988 49.4883 7.12894C48.1113 6.04496 46.1484 6.02543 44.7812 7.12894C41.0801 10.0977 34.3125 10.0977 30.5527 6.98246C29.2344 5.88871 27.3301 6.09379 25.9922 7.15824C22.2812 10.0977 15.5527 10.0879 11.8125 6.99223C10.4941 5.89848 8.56055 6.12308 7.21289 7.18754C5.69922 8.37894 3.69727 9.15043 1.57812 9.37504C0.806641 9.45316 0.25 10.1368 0.25 10.9082V14.0528C0.25 14.9414 0.992188 15.6934 1.88086 15.6153C4.69336 15.3711 7.35938 14.502 9.63477 13.086C15.1523 16.4649 23.0137 16.4161 28.3848 13.086C33.9023 16.4649 41.7637 16.4161 47.1348 13.086C49.4102 14.4727 52.1055 15.3614 54.8594 15.6055C55.748 15.6836 56.4902 14.9317 56.4902 14.043V10.9571C56.5 10.1758 55.9336 9.45316 55.1426 9.36527Z" fill="white"/>
</g>
<defs>
<clipPath id="clip0">
<rect width="56.25" height="50" fill="white" transform="translate(0.25)"/>
</clipPath>
</defs>
</svg>
