<svg width="45" height="50" viewBox="0 0 45 50" fill="none" xmlns="http://www.w3.org/2000/svg">
<path d="M40.2478 36.6395L22.8275 46.4945V38.8206L33.6817 32.8482L40.2478 36.6395ZM41.4412 35.5604V14.954L35.0691 18.6368V31.8833L41.4412 35.5604ZM3.87692 36.6395L21.2973 46.4945V38.8206L10.4374 32.8482L3.87692 36.6395ZM2.68359 35.5604V14.954L9.05564 18.6368V31.8833L2.68359 35.5604ZM3.43157 13.6179L21.2973 3.51172V10.9286L9.84929 17.2265L9.75793 17.2778L3.43157 13.6179ZM40.6932 13.6179L22.8275 3.51172V10.9286L34.2755 17.2208L34.3668 17.2721L40.6932 13.6179ZM21.2973 37.0734L10.5858 31.181V19.5161L21.2973 25.6997V37.0734ZM22.8275 37.0734L33.5389 31.1867V19.5161L22.8275 25.6997V37.0734ZM11.311 18.1686L22.0624 12.259L32.8138 18.1686L22.0624 24.375L11.311 18.1686Z" fill="white"/>
</svg>
