<svg width="51" height="50" viewBox="0 0 51 50" fill="none" xmlns="http://www.w3.org/2000/svg">
<g clip-path="url(#clip0)">
<path d="M44.25 6.25H41.7129C43.3164 9.01172 44.25 12.208 44.25 15.625C44.25 25.9639 35.8389 34.375 25.5 34.375C15.1611 34.375 6.75 25.9639 6.75 15.625C6.75 12.208 7.68359 9.01172 9.28711 6.25H6.75C3.30371 6.25 0.5 9.05371 0.5 12.5V43.75C0.5 47.1963 3.30371 50 6.75 50H44.25C47.6963 50 50.5 47.1963 50.5 43.75V12.5C50.5 9.05371 47.6963 6.25 44.25 6.25ZM25.5 31.25C34.1299 31.25 41.125 24.2549 41.125 15.625C41.125 6.99512 34.1299 0 25.5 0C16.8701 0 9.875 6.99512 9.875 15.625C9.875 24.2549 16.8701 31.25 25.5 31.25ZM25.4707 16.4121L28.75 8.75977C29.0918 7.96191 30.0137 7.5957 30.8037 7.93848C31.5967 8.27832 31.9639 9.19727 31.625 9.98926L28.3369 17.6602C28.9893 18.3594 29.4062 19.2822 29.4062 20.3125C29.4062 22.4697 27.6572 24.2188 25.5 24.2188C23.3428 24.2188 21.5938 22.4697 21.5938 20.3125C21.5938 18.166 23.3281 16.4287 25.4707 16.4121Z" fill="white"/>
</g>
<defs>
<clipPath id="clip0">
<rect width="50" height="50" fill="white" transform="translate(0.5)"/>
</clipPath>
</defs>
</svg>
