<svg width="53" height="50" viewBox="0 0 53 50" fill="none" xmlns="http://www.w3.org/2000/svg">
<path d="M32.4914 26.7094C32.4914 30.641 34.329 32.2222 36.7222 32.2222C37.2241 32.2382 37.7245 32.1585 38.1966 31.9872V21.4316C37.804 21.2708 37.381 21.1979 36.9572 21.218C34.3077 21.218 32.4914 23.2906 32.4914 26.7094Z" fill="white"/>
<path d="M42.4273 2.13675H10.8034C8.76326 2.13675 6.8067 2.94719 5.36411 4.38977C3.92152 5.83236 3.11108 7.78893 3.11108 9.82906V40.1709C3.11108 42.2111 3.92152 44.1676 5.36411 45.6102C6.8067 47.0528 8.76326 47.8632 10.8034 47.8632H42.4273C43.4375 47.8632 44.4378 47.6643 45.371 47.2777C46.3043 46.8911 47.1523 46.3245 47.8666 45.6102C48.5809 44.8959 49.1475 44.0479 49.5341 43.1147C49.9207 42.1814 50.1196 41.1811 50.1196 40.1709V9.82906C50.1196 8.81889 49.9207 7.81861 49.5341 6.88534C49.1475 5.95206 48.5809 5.10407 47.8666 4.38977C47.1523 3.67548 46.3043 3.10887 45.371 2.72229C44.4378 2.33572 43.4375 2.13675 42.4273 2.13675ZM27.2136 35.3846H23.4743C23.379 35.3972 23.2822 35.3764 23.2004 35.3258C23.1186 35.2752 23.0568 35.1978 23.0256 35.1068C21.6581 32.2863 20.2621 29.359 18.8376 26.3248C17.5555 29.188 16.1666 32.3077 14.7778 35.1282C14.744 35.201 14.6895 35.2622 14.6211 35.304C14.5526 35.3458 14.4733 35.3664 14.3931 35.3632H10.8248C10.6111 35.3632 10.5897 35.1923 10.6966 35.0641L16.5726 23.8034L10.9102 12.5855C10.876 12.5505 10.8568 12.5035 10.8568 12.4546C10.8568 12.4057 10.876 12.3587 10.9102 12.3237C10.93 12.303 10.9542 12.287 10.981 12.2768C11.0078 12.2666 11.0366 12.2626 11.0651 12.265H14.7404C14.954 12.265 15.0609 12.3077 15.125 12.5C16.4711 15.3632 17.7959 18.1624 19.0993 21.047H19.1367C20.376 18.2265 21.7436 15.3846 23.047 12.5855C23.1538 12.4145 23.2179 12.3077 23.4316 12.3077H26.8718C27.0427 12.3077 27.1068 12.4359 27 12.6282L21.3589 23.4402L27.3419 35.0427C27.4487 35.2137 27.3846 35.3846 27.2136 35.3846ZM42.0641 34.3162C40.3569 35.1374 38.4883 35.5681 36.594 35.5769C31.9572 35.5769 28.6453 32.7137 28.6453 26.9017C28.6453 21.9231 31.8504 18.0342 37.1068 18.0342C37.4777 18.0271 37.8487 18.0413 38.2179 18.0769V12.5214C38.2179 12.4647 38.2404 12.4103 38.2805 12.3703C38.3206 12.3302 38.3749 12.3077 38.4316 12.3077H41.8718C42.0427 12.3077 42.0854 12.3718 42.0854 12.4786V32.0085C42.0729 32.7082 42.1086 33.4078 42.1923 34.1026C42.1923 34.2521 42.1923 34.2735 42.0641 34.3376V34.3162Z" fill="white"/>
</svg>
