<svg width="50" height="50" viewBox="0 0 50 50" fill="none" xmlns="http://www.w3.org/2000/svg">
<g clip-path="url(#clip0)">
<path d="M25 12.5C28.4518 12.5 31.25 9.70178 31.25 6.25C31.25 2.79822 28.4518 0 25 0C21.5482 0 18.75 2.79822 18.75 6.25C18.75 9.70178 21.5482 12.5 25 12.5Z" fill="white"/>
<path d="M37.1484 45.4785L29.4531 48.3691L33.2812 49.8047C34.9316 50.4199 36.709 49.5703 37.3047 47.9785C37.6172 47.1191 37.5293 46.2304 37.1484 45.4785ZM10.4687 34.5703C8.85742 33.9746 7.05078 34.7851 6.44531 36.3965C5.83984 38.0078 6.66016 39.8144 8.27148 40.4199L11.6406 41.6797L20.5371 38.3398L10.4687 34.5703ZM43.5547 36.4062C42.9492 34.7949 41.1426 33.9746 39.5312 34.5801L14.5313 43.955C12.9199 44.5605 12.0996 46.3672 12.7051 47.9785C13.3008 49.5703 15.0781 50.4199 16.7285 49.8047L41.7285 40.4297C43.3398 39.8144 44.1602 38.0176 43.5547 36.4062ZM46.875 25H39.4336L34.043 14.2285C33.4863 13.1055 32.3438 12.4707 31.1719 12.5H25H18.8281C17.6563 12.4707 16.5137 13.1055 15.957 14.2285L10.5664 25H3.125C1.39648 25 0 26.3965 0 28.125C0 29.8535 1.39648 31.25 3.125 31.25H12.5C13.6816 31.25 14.7656 30.5859 15.293 29.5215L18.75 22.6172V34.3457L25 36.6894L31.25 34.3457V22.6172L34.707 29.5215C35.2344 30.5762 36.3184 31.25 37.5 31.25H46.875C48.6035 31.25 50 29.8535 50 28.125C50 26.3965 48.6035 25 46.875 25Z" fill="white"/>
</g>
<defs>
<clipPath id="clip0">
<rect width="50" height="50" fill="white"/>
</clipPath>
</defs>
</svg>
