<svg width="57" height="50" viewBox="0 0 57 50" fill="none" xmlns="http://www.w3.org/2000/svg">
<path d="M54.1148 12.1175C53.5014 9.80791 51.6941 7.98896 49.3995 7.37168C45.2403 6.25 28.5625 6.25 28.5625 6.25C28.5625 6.25 11.8848 6.25 7.7255 7.37168C5.43087 7.98906 3.62364 9.80791 3.01027 12.1175C1.89581 16.3037 1.89581 25.0379 1.89581 25.0379C1.89581 25.0379 1.89581 33.7721 3.01027 37.9583C3.62364 40.2679 5.43087 42.011 7.7255 42.6283C11.8848 43.75 28.5625 43.75 28.5625 43.75C28.5625 43.75 45.2402 43.75 49.3995 42.6283C51.6941 42.011 53.5014 40.2679 54.1148 37.9583C55.2292 33.7721 55.2292 25.0379 55.2292 25.0379C55.2292 25.0379 55.2292 16.3037 54.1148 12.1175ZM23.1079 32.9679V17.1079L37.0473 25.0381L23.1079 32.9679Z" fill="white"/>
</svg>
