<svg width="57" height="50" viewBox="0 0 57 50" fill="none" xmlns="http://www.w3.org/2000/svg">
<path d="M54.1147 12.1175C53.5013 9.80791 51.694 7.98896 49.3994 7.37168C45.2402 6.25 28.5624 6.25 28.5624 6.25C28.5624 6.25 11.8847 6.25 7.72544 7.37168C5.43081 7.98906 3.62358 9.80791 3.01021 12.1175C1.89575 16.3037 1.89575 25.0379 1.89575 25.0379C1.89575 25.0379 1.89575 33.7721 3.01021 37.9583C3.62358 40.2679 5.43081 42.011 7.72544 42.6283C11.8847 43.75 28.5624 43.75 28.5624 43.75C28.5624 43.75 45.2401 43.75 49.3994 42.6283C51.694 42.011 53.5013 40.2679 54.1147 37.9583C55.2291 33.7721 55.2291 25.0379 55.2291 25.0379C55.2291 25.0379 55.2291 16.3037 54.1147 12.1175ZM23.1078 32.9679V17.1079L37.0472 25.0381L23.1078 32.9679Z" fill="white"/>
</svg>
