<?xml version="1.0" standalone="no"?>
<!DOCTYPE svg PUBLIC "-//W3C//DTD SVG 20010904//EN"
 "http://www.w3.org/TR/2001/REC-SVG-20010904/DTD/svg10.dtd">
<svg version="1.0" xmlns="http://www.w3.org/2000/svg"
 width="1250.000000pt" height="1250.000000pt" viewBox="0 0 1250.000000 1250.000000"
 preserveAspectRatio="xMidYMid meet">
<metadata>
Created by potrace 1.11, written by Peter Selinger 2001-2013
</metadata>
<g transform="translate(0.000000,1250.000000) scale(0.100000,-0.100000)"
fill="#000000" stroke="none">
<path d="M1260 6250 l0 -6250 2505 0 2505 0 0 165 0 165 -2340 0 -2340 0 0
5920 0 5920 4655 0 4655 0 0 -2960 0 -2960 165 0 165 0 0 3125 0 3125 -4985 0
-4985 0 0 -6250z"/>
<path d="M6145 11775 c-28 -7 -62 -17 -78 -23 -55 -23 -161 -103 -211 -160
-19 -22 -18 -26 59 -154 6 -9 25 -41 43 -72 19 -31 37 -56 41 -56 4 0 23 14
42 31 83 76 164 110 264 111 40 0 77 -2 84 -6 6 -4 21 -9 33 -11 13 -3 32 -9
43 -14 11 -5 52 -21 90 -36 39 -15 84 -34 100 -41 17 -8 62 -25 102 -38 98
-33 225 -31 298 5 63 32 94 50 115 69 73 65 110 104 110 115 0 6 -11 29 -25
49 -14 20 -25 41 -25 46 0 4 -4 10 -8 12 -4 2 -30 38 -56 81 -26 42 -50 77
-52 77 -3 0 -24 -18 -46 -40 -23 -22 -48 -40 -55 -40 -7 0 -13 -3 -13 -7 0 -5
-21 -17 -48 -28 -61 -26 -200 -27 -262 -2 -73 29 -295 112 -333 124 -64 19
-151 22 -212 8z"/>
<path d="M4305 11221 c-3 -2 -21 -5 -42 -7 -21 -2 -65 -10 -98 -19 -33 -8 -68
-17 -79 -20 -29 -7 -169 -77 -184 -92 -7 -7 -17 -13 -21 -13 -14 0 -151 -134
-151 -148 0 -6 -4 -12 -9 -12 -5 0 -28 -36 -50 -80 -23 -44 -39 -80 -35 -80 4
0 2 -6 -4 -12 -9 -12 -30 -79 -38 -123 -2 -11 -6 -33 -11 -50 -11 -46 -14
-1610 -2 -1680 9 -63 11 -71 23 -120 14 -56 85 -205 98 -205 4 0 8 -5 8 -12 0
-6 37 -48 83 -92 163 -159 384 -235 663 -230 77 2 150 5 164 8 14 2 40 7 59
11 19 3 42 10 52 16 11 5 19 7 19 4 0 -12 139 49 225 100 94 55 182 144 232
233 39 70 80 191 89 262 8 61 11 1640 4 1640 -3 0 -5 12 -5 28 1 15 -3 38 -7
51 -5 13 -11 40 -14 59 -3 19 -11 47 -16 61 -6 14 -12 31 -13 36 -5 24 -46
104 -55 110 -6 4 -8 10 -5 14 2 5 -4 16 -15 26 -11 10 -20 23 -20 30 0 6 -39
48 -86 93 -61 58 -107 92 -162 119 -42 21 -80 37 -84 35 -5 -1 -8 2 -8 6 0 5
-6 9 -12 10 -7 0 -24 3 -38 7 -14 3 -32 8 -40 10 -8 2 -15 4 -15 5 0 2 -28 7
-85 16 -51 7 -309 12 -315 5z m288 -502 c138 -37 234 -152 240 -286 1 -24 5
-43 8 -43 8 0 8 5 10 -655 1 -614 0 -713 -10 -730 -3 -5 -7 -21 -9 -35 -5 -34
-60 -135 -91 -166 -81 -81 -177 -117 -316 -117 -225 0 -364 118 -392 333 -9
65 -8 1240 0 1335 15 158 36 217 100 280 59 59 104 78 232 98 39 6 187 -3 228
-14z"/>
<path d="M8406 11223 c-1 -1 -20 -5 -42 -8 -21 -3 -63 -10 -91 -16 -29 -6 -54
-10 -55 -9 -7 2 -146 -59 -178 -79 -19 -11 -42 -24 -50 -28 -32 -15 -125 -103
-168 -159 -64 -83 -125 -228 -138 -324 -2 -19 -7 -55 -11 -80 -9 -55 -9 -1590
0 -1645 32 -200 123 -357 278 -480 139 -110 365 -174 602 -169 132 2 149 4
242 26 28 7 53 12 57 13 3 0 10 3 14 8 4 4 14 7 23 7 15 0 161 68 171 79 3 3
23 18 45 32 143 93 235 239 281 444 4 22 17 367 15 440 0 6 0 132 0 280 0 149
0 279 0 290 -1 51 0 311 0 320 2 37 -11 356 -15 380 -17 106 -48 201 -89 280
-17 33 -34 62 -37 65 -4 3 -13 14 -21 26 -29 43 -96 112 -144 149 -49 37 -175
103 -205 108 -8 2 -19 5 -25 8 -9 6 -52 16 -110 26 -11 2 -35 5 -52 6 -18 1
-33 4 -33 7 0 5 -259 8 -264 3z m239 -497 c51 -8 120 -32 143 -51 99 -78 133
-150 149 -313 8 -82 7 -1295 -1 -1337 -9 -46 -12 -58 -25 -90 -67 -171 -203
-254 -403 -249 -221 6 -355 124 -384 339 -10 72 -10 185 -1 185 5 0 5 5 1 12
-9 15 -9 1033 0 1137 12 131 30 189 80 254 46 61 116 98 211 113 22 3 41 7 42
8 5 5 142 -1 188 -8z"/>
<path d="M2473 11157 c-3 -4 -5 -103 -5 -219 -1 -208 -1 -211 21 -215 11 -1
65 -5 119 -7 53 -2 99 -4 102 -5 3 -1 4 -427 4 -948 -1 -982 -2 -1001 -43
-1081 -31 -60 -106 -128 -148 -133 -5 -1 -19 -6 -33 -11 -14 -6 -32 -11 -40
-13 -8 -2 -15 -4 -15 -5 0 -1 -9 -3 -20 -5 -17 -4 -40 -6 -128 -14 -4 -1 -1
-17 8 -36 8 -20 40 -104 72 -188 31 -84 58 -154 60 -156 8 -11 194 1 253 16
14 3 32 7 40 8 12 2 73 18 110 30 28 9 101 49 120 65 84 72 101 93 138 171 27
59 34 78 47 147 2 13 6 31 9 40 3 9 8 51 11 92 9 97 10 2430 1 2456 -5 16 -14
19 -53 18 -27 -1 -50 -3 -53 -4 -3 -1 -9 -1 -15 0 -20 5 -105 1 -115 -5 -5 -3
-10 -2 -10 2 0 7 -85 9 -100 3 -3 -1 -9 -1 -15 0 -20 5 -105 1 -115 -5 -5 -3
-10 -2 -10 2 0 7 -85 9 -100 3 -3 -1 -9 -2 -14 -1 -35 7 -78 6 -83 -2z"/>
<path d="M6218 11162 c-10 -2 -18 -7 -19 -10 -2 -21 -11 -62 -21 -97 -6 -22
-12 -44 -12 -50 -1 -5 -5 -23 -9 -40 -4 -16 -9 -39 -11 -50 -3 -11 -16 -69
-31 -130 -15 -60 -27 -118 -28 -127 -1 -10 -5 -18 -10 -18 -4 0 -6 -4 -3 -8 3
-5 -2 -35 -11 -68 -21 -81 -24 -96 -27 -119 -2 -11 -8 -38 -14 -60 -6 -22 -13
-51 -16 -65 -5 -28 -5 -27 -36 -155 -12 -49 -23 -97 -25 -105 -2 -8 -15 -64
-29 -125 -15 -60 -28 -119 -30 -130 -3 -11 -9 -40 -15 -65 -7 -25 -14 -54 -16
-65 -3 -11 -7 -29 -10 -40 -7 -28 -29 -123 -54 -235 -12 -52 -24 -104 -27
-115 -11 -43 -17 -71 -18 -85 -1 -9 -5 -20 -8 -25 -3 -6 -9 -26 -12 -46 -3
-20 -8 -42 -10 -50 -3 -8 -8 -25 -10 -39 -3 -14 -8 -36 -11 -50 -3 -14 -8 -36
-11 -50 -3 -14 -7 -32 -9 -40 -2 -8 -4 -16 -5 -17 -3 -4 -5 -10 -15 -63 -10
-52 -12 -58 -15 -65 -1 -3 -3 -8 -4 -12 -10 -41 -17 -71 -20 -89 -2 -11 -12
-51 -21 -88 -9 -37 -18 -72 -19 -79 -2 -7 -6 -30 -11 -52 -4 -22 -10 -44 -13
-50 -3 -5 -7 -16 -8 -25 0 -8 -5 -32 -9 -52 -7 -35 -5 -38 16 -39 119 -4 481
0 486 5 3 3 7 16 9 29 1 12 3 23 4 25 4 3 6 14 14 65 5 26 12 50 17 53 5 3 7
9 4 14 -3 5 1 36 9 69 8 34 15 64 15 66 1 3 1 6 2 8 0 1 2 9 4 17 1 8 8 40 14
71 6 30 14 66 16 80 3 13 7 35 11 49 3 14 7 34 9 45 8 45 34 147 39 153 7 7
645 9 655 2 5 -3 10 -16 13 -30 3 -14 15 -69 28 -124 28 -128 27 -121 44 -196
8 -36 24 -105 35 -155 11 -49 27 -125 37 -167 12 -57 21 -78 33 -79 9 0 130
-1 269 -2 l253 -2 -5 35 c-3 19 -13 60 -21 90 -15 53 -24 91 -27 118 -1 6 -4
12 -8 12 -3 0 -6 8 -6 18 -2 23 -11 66 -29 132 -9 30 -18 64 -20 76 -3 11 -16
65 -31 120 -14 54 -30 117 -35 139 -5 22 -13 56 -18 75 -12 43 -52 204 -55
220 -4 19 -30 113 -42 154 -8 27 -12 51 -9 54 3 3 1 10 -4 16 -5 6 -11 25 -14
41 -3 17 -10 45 -16 63 -5 18 -10 35 -10 37 -1 3 -1 6 -2 8 -1 4 -7 30 -12 57
-3 14 -10 36 -15 50 -5 14 -10 30 -11 35 -1 9 -12 68 -17 88 -1 4 -2 8 -4 10
-1 1 -3 9 -5 17 -1 8 -60 240 -130 515 -70 275 -129 509 -130 520 -2 11 -4 20
-5 20 -2 0 -10 33 -15 60 -2 11 -4 20 -5 20 -2 0 -7 19 -15 60 -6 30 -27 52
-33 35 -2 -6 -8 -7 -14 -4 -14 9 -113 8 -127 -1 -6 -3 -11 -2 -11 2 0 7 -85 9
-100 3 -3 -1 -9 -1 -15 0 -20 5 -105 1 -115 -5 -5 -3 -10 -2 -10 4 0 9 -37 7
-67 -4 -7 -2 -13 -1 -13 3 0 9 -81 9 -97 -1 -6 -4 -13 -4 -15 1 -1 4 -11 6
-20 4z m322 -834 c7 -29 15 -57 18 -63 3 -5 7 -16 8 -25 1 -17 43 -176 51
-200 3 -8 8 -24 9 -35 2 -11 6 -29 9 -40 2 -11 4 -22 4 -25 0 -3 5 -18 11 -35
7 -16 14 -38 16 -47 4 -20 5 -22 33 -125 10 -40 17 -73 14 -73 -3 0 0 -6 6
-13 6 -8 13 -27 15 -43 2 -16 6 -37 10 -46 18 -50 20 -48 -72 -49 -102 0 -306
0 -341 0 -26 1 -26 -6 2 104 8 31 12 57 9 57 -2 0 0 6 5 13 6 6 11 19 11 27 0
8 10 53 22 100 12 47 24 96 26 110 3 14 10 43 16 65 5 22 12 48 14 57 10 45
13 57 27 110 8 31 12 59 9 62 -3 3 0 6 7 6 7 0 10 4 7 8 -3 5 2 35 11 68 9 32
16 67 15 77 -2 35 16 6 28 -45z"/>
<path d="M2295 7440 l-40 -5 -1 -1442 c-1 -794 2 -1443 5 -1444 8 -1 412 -1
432 0 14 1 15 77 15 731 -1 402 2 738 5 748 5 15 10 7 24 -48 4 -15 78 -251
90 -285 14 -43 58 -184 61 -200 1 -5 9 -30 18 -54 9 -24 14 -46 11 -49 -3 -3
-1 -10 4 -16 5 -6 25 -65 45 -131 21 -66 42 -136 49 -155 6 -19 12 -39 13 -45
2 -13 44 -145 51 -165 4 -8 7 -17 8 -20 4 -19 47 -158 52 -170 4 -8 7 -17 7
-20 1 -3 7 -25 15 -50 7 -25 15 -51 17 -57 4 -15 4 -15 174 -15 176 0 180 1
185 15 2 6 29 93 60 192 31 99 63 197 71 218 7 20 12 37 9 37 -2 0 3 16 11 35
8 19 11 35 8 35 -4 0 -2 6 4 13 5 6 20 46 32 87 12 41 25 79 28 85 3 5 7 16 8
25 3 22 11 47 34 115 12 33 23 67 25 75 2 8 13 47 26 85 13 39 24 72 24 75 1
7 64 206 87 275 11 33 21 65 23 70 2 9 8 26 23 68 4 9 7 -325 6 -743 l-1 -760
31 -1 c155 -4 394 -3 407 3 14 6 16 140 16 1447 l0 1441 -21 1 c-144 4 -226 3
-226 -4 0 -5 -5 -5 -11 -2 -10 7 -42 8 -155 6 l-41 -1 -53 -152 c-28 -84 -54
-160 -57 -168 -24 -65 -135 -388 -138 -400 -2 -8 -4 -17 -5 -20 -1 -3 -2 -8
-1 -12 0 -5 -4 -8 -10 -8 -5 0 -7 -5 -4 -10 4 -6 2 -17 -4 -24 -6 -7 -12 -21
-14 -32 -2 -10 -11 -41 -21 -69 -28 -78 -29 -79 -32 -90 -1 -5 -39 -116 -84
-245 -45 -129 -83 -239 -84 -245 -2 -5 -6 -17 -9 -25 -11 -25 -108 -313 -119
-350 -15 -53 -25 -56 -38 -13 -6 21 -15 47 -20 58 -9 21 -129 375 -231 680
-33 99 -64 189 -70 200 -5 11 -11 30 -12 43 0 12 -5 22 -9 22 -4 0 -8 7 -8 15
0 14 -58 189 -77 235 -3 8 -7 20 -8 25 0 6 -4 17 -8 25 -6 14 -172 505 -184
543 -3 9 -10 17 -17 18 -57 4 -76 3 -76 -3 0 -4 -7 -5 -15 -2 -20 8 -257 11
-310 4z"/>
<path d="M4953 4955 c-43 -14 -102 -57 -109 -77 -3 -10 -10 -18 -15 -18 -5 0
-9 -9 -9 -19 0 -11 -4 -22 -9 -25 -21 -14 7 -176 31 -176 5 0 8 -5 8 -11 0
-14 23 -33 73 -60 47 -25 122 -27 168 -5 42 20 89 59 89 75 0 6 4 11 9 11 14
0 23 31 26 95 3 49 -1 68 -22 107 -47 86 -156 133 -240 103z"/>
<path d="M5858 3935 c-2 -1 -36 -5 -76 -9 -41 -3 -77 -8 -81 -11 -4 -2 -21 -7
-37 -9 -198 -37 -380 -161 -487 -332 -14 -23 -23 -45 -20 -48 4 -3 2 -6 -4 -6
-12 0 -69 -173 -77 -235 -3 -22 -8 -60 -12 -85 -7 -53 -7 -1529 0 -1580 5 -32
18 -108 21 -120 9 -36 36 -114 46 -132 7 -13 14 -25 14 -28 0 -3 17 -30 37
-60 87 -131 208 -225 364 -283 47 -18 158 -48 190 -51 11 -2 26 -6 32 -10 7
-4 12 -2 12 4 0 7 6 8 18 1 27 -14 343 -4 369 12 5 3 22 8 38 11 41 8 129 39
136 49 3 5 9 8 13 7 10 -2 100 44 104 53 2 4 10 7 18 7 8 0 14 5 14 10 0 6 5
10 11 10 15 0 97 75 148 136 27 31 82 133 95 174 5 14 9 27 11 30 5 11 19 95
17 103 -1 4 2 7 6 7 13 0 15 97 15 855 1 740 -1 811 -27 930 -14 65 -50 158
-81 209 -19 32 -35 60 -35 62 0 18 -155 171 -194 191 -17 9 -33 19 -36 22 -9
13 -139 67 -182 77 -5 1 -9 2 -10 3 -7 5 -55 14 -80 15 -16 1 -28 3 -28 6 0 3
-8 6 -17 7 -43 3 -243 10 -245 8z m174 -499 c134 -13 251 -112 280 -239 5 -23
12 -51 15 -62 12 -39 12 -1368 1 -1420 -18 -83 -53 -149 -109 -207 -59 -60
-134 -101 -186 -102 -18 -1 -33 -4 -33 -7 0 -7 -154 -3 -202 5 -48 8 -132 52
-171 90 -39 38 -79 109 -92 161 -4 17 -10 41 -13 55 -9 37 -8 1325 1 1395 11
85 12 89 19 100 3 6 9 25 13 43 3 17 10 32 13 32 4 0 13 12 20 28 26 58 134
115 238 127 32 4 60 8 62 10 3 2 44 0 144 -9z"/>
<path d="M2254 2423 l1 -1448 223 0 c190 0 223 2 226 15 2 8 3 343 3 743 -1
401 1 734 4 739 4 6 10 -5 14 -23 4 -19 13 -52 20 -74 28 -85 89 -280 91 -290
1 -5 16 -55 34 -110 18 -55 34 -107 35 -115 2 -8 4 -16 5 -17 2 -2 3 -6 4 -10
1 -5 19 -62 40 -128 21 -66 47 -149 58 -185 11 -36 35 -112 53 -170 19 -58 52
-166 75 -240 l42 -135 166 1 c92 1 170 2 173 3 9 2 22 38 69 191 23 74 46 144
50 155 10 24 29 85 34 111 3 10 10 33 16 49 6 17 13 37 15 45 2 8 10 34 19 58
8 23 16 44 16 47 0 3 2 10 5 17 13 39 47 156 50 172 3 10 9 24 16 32 6 8 9 14
6 14 -4 0 0 18 8 40 8 22 15 42 15 45 1 6 4 18 24 80 9 28 39 122 67 210 49
156 79 245 82 245 1 0 2 -341 2 -757 l0 -758 225 0 225 0 1 1448 1 1447 -227
0 c-208 0 -228 -1 -233 -17 -3 -10 -31 -92 -63 -183 -31 -91 -66 -190 -76
-220 -11 -30 -21 -63 -23 -74 -2 -10 -8 -23 -13 -30 -5 -6 -8 -19 -7 -28 2
-10 -1 -18 -5 -18 -5 0 -12 -15 -16 -32 -10 -42 -9 -40 -17 -58 -9 -19 -126
-360 -132 -380 -4 -17 -167 -489 -215 -625 -17 -49 -34 -102 -37 -117 -3 -16
-9 -28 -12 -28 -4 0 -8 -6 -8 -14 0 -22 -25 -76 -35 -76 -5 0 -7 4 -4 8 3 5
-2 22 -10 38 -9 16 -15 30 -14 32 4 6 -13 68 -21 78 -5 6 -10 19 -12 30 -2 10
-7 26 -10 34 -3 8 -17 49 -31 90 -14 41 -50 149 -81 240 -31 91 -58 170 -59
175 -2 6 -6 17 -9 25 -4 8 -26 74 -51 145 -24 72 -46 137 -49 145 -3 8 -38
112 -77 230 -39 118 -74 222 -77 230 -3 8 -7 20 -9 25 -5 20 -107 321 -118
348 l-11 27 -226 0 -227 0 2 -1447z"/>
<path d="M6979 3858 c-1 -7 -2 -110 -3 -228 l-1 -215 299 -5 299 -5 1 -1215 1
-1215 223 0 c122 0 223 2 223 5 1 3 3 550 3 1215 l2 1210 306 3 306 2 0 230 0
230 -829 0 c-656 0 -829 -3 -830 -12z"/>
<path d="M9125 3859 c-4 -5 -5 -13 -2 -16 3 -3 1 -17 -5 -32 -6 -14 -12 -37
-13 -51 -2 -14 -4 -25 -5 -25 -1 0 -4 -11 -14 -60 -1 -5 -5 -16 -9 -22 -5 -7
-6 -13 -3 -13 2 0 0 -15 -5 -32 -5 -18 -12 -48 -15 -67 -3 -19 -10 -44 -14
-57 -5 -12 -6 -25 -3 -28 4 -3 1 -6 -6 -6 -7 0 -9 -4 -6 -10 3 -5 -1 -35 -10
-67 -9 -32 -18 -69 -21 -82 -3 -12 -12 -53 -20 -90 -9 -36 -17 -73 -19 -81
-20 -89 -67 -285 -70 -290 -4 -6 -17 -79 -19 -105 0 -11 -4 -22 -7 -25 -3 -3
-13 -39 -22 -80 -9 -41 -30 -131 -47 -200 -17 -69 -33 -140 -35 -159 -3 -19
-9 -39 -13 -45 -3 -6 -5 -19 -4 -28 2 -10 -2 -18 -8 -18 -6 0 -9 -4 -6 -8 3
-4 0 -28 -5 -53 -6 -24 -12 -51 -14 -59 -2 -8 -11 -46 -20 -85 -10 -38 -18
-77 -20 -85 -2 -8 -4 -17 -5 -20 -1 -3 -2 -8 -1 -12 0 -4 -4 -20 -10 -35 -6
-15 -12 -40 -14 -55 -2 -15 -8 -44 -14 -65 -6 -21 -13 -49 -15 -63 -3 -14 -14
-61 -25 -105 -10 -44 -37 -159 -60 -255 -22 -96 -47 -198 -54 -227 -8 -29 -11
-56 -8 -60 3 -5 118 -8 256 -8 l249 0 18 75 c9 41 19 86 21 100 3 14 19 93 37
175 18 83 33 155 34 160 1 6 5 24 9 40 6 27 10 49 22 110 3 11 7 36 11 55 3
19 8 37 9 39 2 2 138 3 302 3 369 -1 378 -1 371 -8 -4 -3 -2 -20 3 -37 8 -28
16 -61 23 -104 1 -7 5 -15 8 -19 4 -3 4 -12 2 -19 -3 -7 0 -16 5 -20 6 -3 9
-10 7 -14 -3 -4 1 -32 9 -61 8 -29 12 -57 9 -61 -2 -4 0 -10 6 -14 6 -4 8 -10
5 -15 -3 -5 -1 -11 5 -15 6 -4 8 -10 6 -14 -3 -4 1 -32 9 -62 7 -30 16 -71 19
-93 4 -21 9 -43 12 -48 3 -5 7 -19 9 -31 5 -39 23 -108 30 -115 10 -10 535 -9
535 1 0 5 -11 50 -24 101 -14 50 -27 102 -30 116 -2 14 -14 61 -26 105 -23 85
-28 105 -36 145 -3 14 -9 39 -14 55 -5 17 -26 95 -46 175 -43 175 -41 165 -54
215 -6 22 -13 49 -15 60 -11 47 -15 65 -40 160 -14 55 -28 109 -31 120 -3 11
-7 29 -9 40 -3 11 -18 74 -35 140 -17 66 -49 192 -71 280 -22 88 -44 171 -49
185 -8 23 -20 78 -22 108 -1 6 -5 12 -10 12 -5 0 -7 3 -4 8 2 4 -2 32 -10 62
-9 30 -17 62 -19 70 -2 8 -11 44 -20 80 -9 36 -18 72 -20 80 -2 8 -4 15 -5 15
-2 0 -10 36 -16 74 -2 19 -8 39 -12 45 -3 6 -8 22 -10 36 -1 14 -7 36 -12 50
-5 14 -12 36 -14 50 -3 14 -20 86 -39 160 l-34 135 -321 3 c-222 1 -323 -1
-327 -9z m335 -794 c5 -14 12 -36 14 -48 2 -12 9 -42 16 -67 7 -25 14 -54 17
-65 8 -38 11 -50 13 -50 1 0 3 -7 5 -15 10 -39 15 -57 24 -87 5 -18 7 -33 5
-33 -3 0 -2 -6 3 -12 4 -7 8 -17 9 -23 2 -12 69 -265 95 -360 23 -85 24 -102
6 -86 -8 6 -17 8 -21 4 -10 -10 -116 -11 -116 -1 0 5 -6 6 -12 1 -17 -10 -208
-11 -214 -1 -3 5 -13 4 -22 0 -22 -11 -47 -9 -46 3 1 6 11 48 22 95 12 47 44
177 71 290 27 113 52 217 55 232 2 15 7 31 10 36 6 10 18 70 18 92 1 8 4 20 8
25 4 6 11 29 15 53 8 49 12 51 25 17z"/>
</g>
</svg>
