<svg width="998" height="1250" viewBox="0 0 998 1250" fill="none" xmlns="http://www.w3.org/2000/svg">
<g clip-path="url(#clip0)">
<path d="M0 0V1250H501.035V1216.93H33.0682V33.0682H963.952V625H997.02V0H0Z" fill="black"/>
<path d="M132.475 391.869C141.162 386.625 145.505 375.602 145.505 358.801V178.573L120.694 177.74V133.927H190.139V365.821C190.139 383.497 187.938 397.483 183.535 407.778C179.212 418.012 171.153 426.215 160.997 430.72C150.391 435.678 135.72 438.295 116.982 438.573L102.045 399.722C113.653 399.722 123.796 397.104 132.475 391.869Z" fill="black"/>
<path d="M379.255 408.194C362.311 421.292 341.987 427.837 318.283 427.828C303.838 427.913 289.516 425.172 276.124 419.76C262.94 414.433 251.643 405.299 243.674 393.523C235.257 381.385 231.048 365.812 231.048 346.806V213.7C231.048 185.324 238.834 163.83 254.407 149.217C269.979 134.604 291.406 127.302 318.687 127.311C345.96 127.311 367.109 135.029 382.134 150.467C397.159 165.905 404.668 187.121 404.659 214.116V346.806C404.668 374.651 396.2 395.114 379.255 408.194ZM356.313 200.48C354.592 193.354 350.326 187.104 344.318 182.904C338.258 178.636 329.44 176.503 317.866 176.503C306.292 176.503 297.483 178.569 291.439 182.702C285.451 186.734 281.18 192.851 279.457 199.861C277.521 207.159 276.553 216.734 276.553 228.586V338.952C276.553 352.184 279.92 362.588 286.654 370.164C293.388 377.74 303.788 381.528 317.854 381.528C330.808 381.528 340.939 377.534 348.245 369.545C355.551 361.557 359.2 351.086 359.192 338.131V229.003C359.2 217.428 358.241 207.921 356.313 200.48Z" fill="black"/>
<path d="M560.505 347.639H493.965L477.841 423.283H426.54L494.331 133.927H558.409L631.566 423.283H577.462L560.505 347.639ZM564.646 121.944C560.022 121.952 555.424 121.254 551.01 119.874C546.591 118.502 540.804 116.296 533.649 113.258C527.294 110.505 521.919 108.371 517.525 106.856C513.134 105.345 508.521 104.577 503.876 104.583C493.683 104.583 483.624 109.68 473.699 119.874L457.588 93.005C469.987 78.6953 483.077 71.5404 496.856 71.5404C501.618 71.5088 506.356 72.2027 510.909 73.5985C515.311 74.9874 521.098 77.1928 528.27 80.2146C535.425 82.9672 540.934 84.9663 544.798 86.2121C548.675 87.4522 552.722 88.0784 556.793 88.0682C566.986 88.0682 576.494 83.2449 585.316 73.5985L602.677 100.467C590.825 114.785 578.148 121.944 564.646 121.944V121.944ZM504.71 299.242H549.76L526.199 209.962L504.71 299.242Z" fill="black"/>
<path d="M788.485 408.194C771.532 421.292 751.208 427.837 727.513 427.828C713.077 427.91 698.764 425.169 685.379 419.76C672.195 414.433 660.898 405.299 652.929 393.523C644.512 381.385 640.303 365.812 640.303 346.806V213.7C640.303 185.324 648.089 163.83 663.662 149.217C679.234 134.604 700.661 127.302 727.942 127.311C755.215 127.311 776.364 135.029 791.389 150.467C806.414 165.905 813.923 187.121 813.914 214.116V346.806C813.906 374.651 805.429 395.114 788.485 408.194ZM765.543 200.48C763.822 193.354 759.556 187.104 753.548 182.904C747.487 178.636 738.649 176.503 727.033 176.503C715.417 176.503 706.599 178.569 700.581 182.702C694.592 186.736 690.317 192.852 688.586 199.861C686.709 207.193 685.766 216.751 685.758 228.535V338.902C685.758 352.134 689.125 362.538 695.859 370.114C702.593 377.689 712.997 381.477 727.071 381.477C740.025 381.477 750.152 377.483 757.45 369.495C764.748 361.507 768.401 351.035 768.409 338.081V229.003C768.426 217.428 767.471 207.921 765.543 200.48Z" fill="black"/>
<path d="M275.29 642.361L226.932 795.303H192.21L144.672 642.778V795.303H99.2172V505.947H144.672L209.571 697.336L275.227 505.947H320.682V795.303H275.227L275.29 642.361Z" fill="black"/>
<path d="M389.785 789.141C387.861 791.136 385.548 792.715 382.99 793.781C380.432 794.847 377.683 795.378 374.912 795.341C369.471 795.209 364.29 792.99 360.442 789.142C356.594 785.293 354.374 780.112 354.242 774.672C354.205 771.901 354.736 769.151 355.802 766.593C356.869 764.035 358.448 761.722 360.442 759.798C362.301 757.828 364.544 756.26 367.033 755.191C369.521 754.123 372.203 753.576 374.912 753.586C380.494 753.616 385.838 755.847 389.784 759.796C393.73 763.744 395.958 769.09 395.985 774.672C395.997 777.379 395.453 780.061 394.386 782.55C393.32 785.039 391.754 787.282 389.785 789.141Z" fill="black"/>
<path d="M275.29 999.508L226.932 1152.45H192.21L144.672 999.912V1152.45H99.2172V863.093H144.672L209.571 1054.48L275.227 863.093H320.682V1152.45H275.227L275.29 999.508Z" fill="black"/>
<path d="M528.056 1137.36C511.111 1150.46 490.787 1157 467.083 1156.99C452.639 1157.08 438.317 1154.34 424.924 1148.93C411.743 1143.6 400.446 1134.46 392.475 1122.69C384.057 1110.55 379.849 1094.98 379.849 1075.97V942.866C379.849 914.491 387.63 892.997 403.194 878.384C418.758 863.771 440.185 856.469 467.475 856.477C494.756 856.477 515.905 864.196 530.922 879.634C545.939 895.072 553.451 916.288 553.46 943.283V1075.97C553.476 1103.82 545.008 1124.28 528.056 1137.36ZM505.114 929.647C503.401 922.524 499.138 916.276 493.131 912.083C487.071 907.807 478.232 905.669 466.616 905.669C455 905.669 446.162 907.736 440.101 911.869C434.113 915.9 429.841 922.018 428.119 929.028C426.183 936.326 425.219 945.901 425.227 957.753V1068.18C425.227 1081.41 428.594 1091.82 435.328 1099.39C442.062 1106.97 452.466 1110.76 466.54 1110.76C479.487 1110.76 489.613 1106.76 496.919 1098.78C504.226 1090.79 507.875 1080.32 507.866 1067.36V958.169C507.959 946.595 507.041 937.088 505.114 929.647Z" fill="black"/>
<path d="M631.199 908.977H571.667V863.093H737.841V908.977H676.667V1152.45H631.212L631.199 908.977Z" fill="black"/>
<path d="M853.169 1076.81H786.616L770.493 1152.45H719.243L787.033 863.093H851.099L924.331 1152.45H870.114L853.169 1076.81ZM797.361 1028.43H842.424L818.864 939.154L797.361 1028.43Z" fill="black"/>
</g>
<defs>
<clipPath id="clip0">
<rect width="997.02" height="1250" fill="white"/>
</clipPath>
</defs>
</svg>
