<svg width="44" height="50" viewBox="0 0 44 50" fill="none" xmlns="http://www.w3.org/2000/svg">
<g clip-path="url(#clip0)">
<path d="M42.5781 15.625C43.2227 15.625 43.75 15.0977 43.75 14.4531V10.5469C43.75 9.90234 43.2227 9.375 42.5781 9.375H40.625V4.6875C40.625 2.09961 38.5254 0 35.9375 0H4.6875C2.09961 0 0 2.09961 0 4.6875V45.3125C0 47.9004 2.09961 50 4.6875 50H35.9375C38.5254 50 40.625 47.9004 40.625 45.3125V40.625H42.5781C43.2227 40.625 43.75 40.0977 43.75 39.4531V35.5469C43.75 34.9023 43.2227 34.375 42.5781 34.375H40.625V28.125H42.5781C43.2227 28.125 43.75 27.5977 43.75 26.9531V23.0469C43.75 22.4023 43.2227 21.875 42.5781 21.875H40.625V15.625H42.5781ZM20.3125 12.5C23.7598 12.5 26.5625 15.3027 26.5625 18.75C26.5625 22.1973 23.7598 25 20.3125 25C16.8652 25 14.0625 22.1973 14.0625 18.75C14.0625 15.3027 16.8652 12.5 20.3125 12.5ZM31.25 35.625C31.25 36.6602 30.2734 37.5 29.0625 37.5H11.5625C10.3516 37.5 9.375 36.6602 9.375 35.625V33.75C9.375 30.6445 12.3145 28.125 15.9375 28.125H16.4258C17.627 28.623 18.9355 28.9062 20.3125 28.9062C21.6895 28.9062 23.0078 28.623 24.1992 28.125H24.6875C28.3105 28.125 31.25 30.6445 31.25 33.75V35.625Z" fill="black"/>
</g>
<defs>
<clipPath id="clip0">
<rect width="43.75" height="50" fill="white"/>
</clipPath>
</defs>
</svg>
