<svg width="52" height="50" viewBox="0 0 52 50" fill="none" xmlns="http://www.w3.org/2000/svg">
<path d="M20.437 16.8162V19.5833H23.188V19.5726V16.8162H20.4423H20.437ZM25.9444 22.3504H25.9338V25.1175H28.6795V22.3504H25.9444ZM20.437 16.8162V16.8109V14.0491H17.6912V16.8162H20.437Z" fill="black"/>
<path d="M41.7349 2.13672H10.111C8.07088 2.13672 6.11431 2.94716 4.67173 4.38974C3.22914 5.83233 2.4187 7.7889 2.4187 9.82903V40.1709C2.4187 42.2111 3.22914 44.1676 4.67173 45.6102C6.11431 47.0528 8.07088 47.8632 10.111 47.8632H41.7349C42.7451 47.8632 43.7454 47.6643 44.6787 47.2777C45.6119 46.8911 46.4599 46.3245 47.1742 45.6102C47.8885 44.8959 48.4551 44.0479 48.8417 43.1147C49.2283 42.1814 49.4272 41.1811 49.4272 40.1709V9.82903C49.4272 8.81886 49.2283 7.81858 48.8417 6.88531C48.4551 5.95203 47.8885 5.10404 47.1742 4.38974C46.4599 3.67545 45.6119 3.10884 44.6787 2.72226C43.7454 2.33569 42.7451 2.13672 41.7349 2.13672ZM31.4305 14.0491H34.1762V16.8162H31.4305V14.0491ZM39.673 27.8579H36.9219V30.625H39.673V33.3921H36.9219V30.625H34.1762V27.8579H31.4305V25.1068H28.6794V27.8419H31.4198V30.5983H34.1655V33.36H36.9112V36.1218H39.6623V38.6806H12.173V11.282H14.9401V14.0491H17.6911V11.282H20.4369V14.0491H23.1879V16.8162H25.923V14.0491H28.6687V16.8162H25.923V19.5833H28.6687V22.3504H31.4198V19.5833H34.1655V22.3504H31.4305V25.1068H34.1762V27.8739H36.9219V25.1068H39.673V27.8579ZM39.673 22.3504H36.9219V19.5833H39.673V22.3504Z" fill="black"/>
<path d="M23.188 19.5833V22.3504H25.9338V22.3397V19.5833H23.1934H23.188Z" fill="black"/>
</svg>
