<svg width="53" height="50" viewBox="0 0 53 50" fill="none" xmlns="http://www.w3.org/2000/svg">
<path d="M30.4936 13.7447C29.0137 13.7403 27.5476 14.0289 26.1797 14.5936C24.8118 15.1584 23.5692 15.9882 22.5235 17.0353L22.203 17.3558H22.0748C21.5559 17.2676 21.0305 17.2229 20.5042 17.2222C19.2552 17.2144 18.0174 17.4581 16.8647 17.9391C15.712 18.42 14.6679 19.1282 13.7948 20.0214C12.4653 21.3502 11.5594 23.0433 11.1917 24.8868C10.824 26.7303 11.0109 28.6414 11.7289 30.3787C12.4469 32.1159 13.6637 33.6014 15.2256 34.6474C16.7876 35.6934 18.6244 36.2529 20.5042 36.2554H30.7233C33.7084 36.2249 36.5591 35.0099 38.6483 32.8775C40.7376 30.7452 41.8942 27.8703 41.8637 24.8852C41.8333 21.9001 40.6182 19.0493 38.4859 16.9601C36.3536 14.8708 33.4787 13.7142 30.4936 13.7447V13.7447ZM20.5523 34.391C19.5434 34.3844 18.5462 34.1737 17.6208 33.7716C16.6954 33.3695 15.861 32.7844 15.1677 32.0513C14.1051 30.9827 13.3821 29.6238 13.0894 28.1455C12.7968 26.6672 12.9477 25.1354 13.5231 23.7426C14.0985 22.3497 15.0727 21.1581 16.3234 20.3173C17.5741 19.4765 19.0453 19.0242 20.5523 19.0171H20.6004C20.9689 19.0215 21.3366 19.0518 21.7008 19.1079C22.1042 19.1778 22.5036 19.2687 22.8974 19.3804C23.6188 19.6164 24.3012 19.9585 24.922 20.3953C25.2208 20.6003 25.4998 20.8328 25.7553 21.0898L25.985 21.3141L26.5192 21.8483L29.0993 24.4231C29.1995 24.5224 29.2789 24.6406 29.3332 24.7708C29.3874 24.901 29.4153 25.0406 29.4153 25.1816C29.4153 25.3227 29.3874 25.4623 29.3332 25.5925C29.2789 25.7227 29.1995 25.8409 29.0993 25.9402C29.0069 26.0441 28.8933 26.1269 28.7661 26.1831C28.6389 26.2393 28.5012 26.2676 28.3621 26.266C28.2225 26.2721 28.0833 26.2459 27.9554 26.1894C27.8276 26.1329 27.7145 26.0476 27.625 25.9402L25.0448 23.3707L24.5106 22.8365C24.4145 22.7457 24.3237 22.6977 24.2809 22.6068C23.548 21.9692 22.6567 21.5411 21.7008 21.3675C21.3698 21.2923 21.0303 21.2618 20.6912 21.2767H20.5523C19.1446 21.3031 17.8029 21.8781 16.813 22.8793C16.2987 23.388 15.8905 23.9936 15.6119 24.6611C15.3332 25.3287 15.1898 26.0448 15.1898 26.7682C15.1898 27.4915 15.3332 28.2077 15.6119 28.8752C15.8905 29.5427 16.2987 30.1484 16.813 30.6571C17.324 31.1742 17.9343 31.5828 18.6072 31.8582C19.28 32.1336 20.0016 32.2701 20.7286 32.2596H21.6901L22.6143 33.1357C23.0494 33.6131 23.545 34.0315 24.0886 34.3804L20.5523 34.391ZM37.1709 31.6293C36.2089 32.5874 35.0443 33.3175 33.7628 33.766C33.3461 33.9103 32.9829 34.0011 32.5662 34.14C31.9478 34.2847 31.3155 34.3617 30.6805 34.3697H30.4936C28.3248 34.3819 26.2219 33.6248 24.5587 32.2329C24.3237 32.0513 24.0993 31.8163 23.8696 31.6346L23.4102 31.2126L22.3418 30.1442L19.4465 27.2436C19.3464 27.1443 19.2669 27.0261 19.2127 26.8959C19.1584 26.7657 19.1305 26.6261 19.1305 26.4851C19.1305 26.344 19.1584 26.2044 19.2127 26.0742C19.2669 25.944 19.3464 25.8258 19.4465 25.7265C19.5401 25.6244 19.6541 25.5431 19.7811 25.4879C19.9081 25.4327 20.0453 25.4048 20.1837 25.406C20.3229 25.4001 20.4615 25.4258 20.5892 25.4814C20.7169 25.5369 20.8304 25.6207 20.9209 25.7265L25.2959 30.1015C25.7071 30.4981 26.1542 30.8558 26.6314 31.1699C27.7626 31.8745 29.07 32.2449 30.4027 32.2383C32.3352 32.2319 34.1873 31.4642 35.5577 30.1015C36.8806 28.8421 37.6776 27.1284 37.7884 25.3053C37.8992 23.4821 37.3156 21.6845 36.1549 20.2741C34.9943 18.8638 33.3427 17.9451 31.5322 17.703C29.7218 17.4609 27.8868 17.9132 26.3963 18.969C25.7891 18.4878 25.1232 18.0857 24.4145 17.7724C26.1198 16.3819 28.2504 15.6182 30.4508 15.609C32.3081 15.6071 34.1245 16.1544 35.6716 17.1821C37.2187 18.2098 38.4273 19.672 39.1456 21.3848C39.8638 23.0976 40.0596 24.9845 39.7082 26.8083C39.3568 28.6321 38.4741 30.3112 37.1709 31.6346V31.6293Z" fill="black"/>
<path d="M42.4273 2.13675H10.8034C8.76326 2.13675 6.8067 2.94719 5.36411 4.38977C3.92152 5.83236 3.11108 7.78893 3.11108 9.82906V40.1709C3.11108 42.2111 3.92152 44.1676 5.36411 45.6102C6.8067 47.0528 8.76326 47.8632 10.8034 47.8632H42.4273C43.4375 47.8632 44.4378 47.6643 45.371 47.2777C46.3043 46.8911 47.1523 46.3245 47.8666 45.6102C48.5809 44.8959 49.1475 44.0479 49.5341 43.1147C49.9207 42.1814 50.1196 41.1811 50.1196 40.1709V9.82906C50.1196 8.81889 49.9207 7.81861 49.5341 6.88534C49.1475 5.95206 48.5809 5.10407 47.8666 4.38977C47.1523 3.67548 46.3043 3.10887 45.371 2.72229C44.4378 2.33572 43.4375 2.13675 42.4273 2.13675V2.13675ZM38.8696 33.3226C36.7108 35.4907 33.7879 36.7258 30.7286 36.7628H20.5042C18.5241 36.7621 16.5886 36.1745 14.9422 35.0742C13.2959 33.9739 12.0127 32.4104 11.2546 30.581C10.4966 28.7517 10.2978 26.7388 10.6834 24.7965C11.069 22.8542 12.0216 21.0699 13.4209 19.6688C14.3418 18.7236 15.4435 17.9735 16.6605 17.4632C17.8774 16.9529 19.1847 16.6929 20.5042 16.6987C21.0158 16.699 21.5265 16.7383 22.032 16.8162L22.1656 16.6827C24.3799 14.5048 27.3643 13.2888 30.4701 13.2987C33.576 13.3086 36.5524 14.5438 38.7528 16.7357C40.9532 18.9277 42.1998 21.8994 42.2217 25.0052C42.2435 28.111 41.0389 31.0999 38.8696 33.3226V33.3226Z" fill="black"/>
</svg>
