<svg width="53" height="50" viewBox="0 0 53 50" fill="none" xmlns="http://www.w3.org/2000/svg">
<path d="M19.5171 25.2991H24.5598C23.9615 22.9059 22.5085 17.7777 21.9957 15.2136C21.5897 17.6922 20.4145 21.9657 19.5171 25.2991Z" fill="black"/>
<path d="M42.2735 2.13672H10.6496C8.60946 2.13672 6.65289 2.94716 5.2103 4.38974C3.76771 5.83233 2.95728 7.7889 2.95728 9.82903V40.1709C2.95728 42.2111 3.76771 44.1676 5.2103 45.6102C6.65289 47.0528 8.60946 47.8632 10.6496 47.8632H42.2735C43.2837 47.8632 44.284 47.6643 45.2172 47.2777C46.1505 46.8911 46.9985 46.3245 47.7128 45.6102C48.4271 44.8959 48.9937 44.0479 49.3803 43.1147C49.7669 42.1814 49.9658 41.1811 49.9658 40.1709V9.82903C49.9658 8.81886 49.7669 7.81858 49.3803 6.88531C48.9937 5.95203 48.4271 5.10404 47.7128 4.38974C46.9985 3.67545 46.1505 3.10884 45.2172 2.72226C44.284 2.33569 43.2837 2.13672 42.2735 2.13672ZM30.9915 35.2991H27.4872C27.3162 35.2991 27.2308 35.2991 27.1453 35.1282L25.3504 28.7179H18.5983L16.8889 35.1282C16.8889 35.2991 16.8034 35.3846 16.547 35.3846H13.3846C13.2137 35.3846 13.1282 35.2991 13.2137 35.0427L19.2821 13.7607C19.4216 13.1731 19.4791 12.5691 19.453 11.9658C19.453 11.7949 19.5385 11.7949 19.6239 11.7949H24.0684C24.2393 11.7949 24.2393 11.7949 24.3248 11.9658L31.1624 35.0427C31.1624 35.2137 31.1624 35.2991 30.9915 35.2991ZM38.2564 18.2906V35.1282C38.2564 35.2991 38.2564 35.3846 38 35.3846H34.6667C34.6376 35.3892 34.6078 35.388 34.5792 35.381C34.5506 35.3741 34.5236 35.3616 34.4997 35.3442C34.4759 35.3269 34.4558 35.305 34.4404 35.2798C34.4251 35.2547 34.4148 35.2268 34.4103 35.1976C34.405 35.1748 34.405 35.1511 34.4103 35.1282V18.2906C34.4057 18.2615 34.4069 18.2318 34.4138 18.2031C34.4208 18.1745 34.4333 18.1475 34.4506 18.1237C34.468 18.0998 34.4899 18.0797 34.515 18.0643C34.5402 18.049 34.5681 18.0387 34.5972 18.0342H38C38.0291 18.0296 38.0589 18.0308 38.0875 18.0378C38.1161 18.0447 38.1431 18.0572 38.1669 18.0746C38.1908 18.0919 38.2109 18.1138 38.2263 18.139C38.2416 18.1641 38.2519 18.192 38.2564 18.2212C38.2617 18.244 38.2617 18.2677 38.2564 18.2906ZM38.5983 13.4188C38.6426 13.9635 38.4689 14.5035 38.1153 14.9201C37.7618 15.3368 37.2572 15.5961 36.7126 15.641C36.6007 15.6517 36.488 15.6517 36.3761 15.641C35.094 15.5556 34.1539 14.7863 34.1539 13.4188C34.1539 13.127 34.2113 12.838 34.323 12.5684C34.4347 12.2988 34.5984 12.0538 34.8047 11.8475C35.0111 11.6411 35.2561 11.4774 35.5257 11.3657C35.7953 11.2541 36.0843 11.1966 36.3761 11.1966C36.6679 11.1966 36.9569 11.2541 37.2265 11.3657C37.4961 11.4774 37.7411 11.6411 37.9474 11.8475C38.1538 12.0538 38.3175 12.2988 38.4291 12.5684C38.5408 12.838 38.5983 13.127 38.5983 13.4188Z" fill="black"/>
</svg>
