<svg width="53" height="50" viewBox="0 0 53 50" fill="none" xmlns="http://www.w3.org/2000/svg">
<path d="M30.4937 13.7447C29.0138 13.7403 27.5477 14.0289 26.1798 14.5936C24.8119 15.1584 23.5693 15.9882 22.5236 17.0353L22.2031 17.3558H22.0749C21.556 17.2676 21.0306 17.2229 20.5043 17.2222C19.2553 17.2144 18.0175 17.4581 16.8648 17.9391C15.7121 18.42 14.668 19.1282 13.7949 20.0214C12.4654 21.3502 11.5595 23.0433 11.1918 24.8868C10.8241 26.7303 11.011 28.6414 11.729 30.3787C12.447 32.1159 13.6638 33.6014 15.2257 34.6474C16.7877 35.6934 18.6245 36.2529 20.5043 36.2554H30.7234C33.7085 36.2249 36.5592 35.0099 38.6484 32.8775C40.7377 30.7452 41.8943 27.8703 41.8638 24.8852C41.8334 21.9001 40.6183 19.0493 38.486 16.9601C36.3537 14.8708 33.4788 13.7142 30.4937 13.7447ZM20.5524 34.391C19.5435 34.3844 18.5463 34.1737 17.6209 33.7716C16.6955 33.3695 15.8611 32.7844 15.1678 32.0513C14.1052 30.9827 13.3822 29.6238 13.0895 28.1455C12.7969 26.6672 12.9478 25.1354 13.5232 23.7426C14.0986 22.3497 15.0728 21.1581 16.3235 20.3173C17.5742 19.4765 19.0454 19.0242 20.5524 19.0171H20.6005C20.969 19.0215 21.3367 19.0518 21.7009 19.1079C22.1043 19.1778 22.5037 19.2687 22.8975 19.3804C23.6189 19.6164 24.3013 19.9585 24.9221 20.3953C25.2209 20.6003 25.4999 20.8328 25.7554 21.0898L25.9851 21.3141L26.5193 21.8483L29.0994 24.4231C29.1996 24.5224 29.279 24.6406 29.3333 24.7708C29.3875 24.901 29.4154 25.0406 29.4154 25.1816C29.4154 25.3227 29.3875 25.4623 29.3333 25.5925C29.279 25.7227 29.1996 25.8409 29.0994 25.9402C29.007 26.0441 28.8934 26.1269 28.7662 26.1831C28.639 26.2393 28.5013 26.2676 28.3622 26.266C28.2226 26.2721 28.0834 26.2459 27.9555 26.1894C27.8277 26.1329 27.7146 26.0476 27.6251 25.9402L25.0449 23.3707L24.5107 22.8365C24.4146 22.7457 24.3238 22.6977 24.281 22.6068C23.5481 21.9692 22.6568 21.5411 21.7009 21.3675C21.3699 21.2923 21.0304 21.2618 20.6913 21.2767H20.5524C19.1447 21.3031 17.803 21.8781 16.8131 22.8793C16.2988 23.388 15.8906 23.9936 15.612 24.6611C15.3333 25.3287 15.1899 26.0448 15.1899 26.7682C15.1899 27.4915 15.3333 28.2077 15.612 28.8752C15.8906 29.5427 16.2988 30.1484 16.8131 30.6571C17.3241 31.1742 17.9344 31.5828 18.6073 31.8582C19.2801 32.1336 20.0017 32.2701 20.7287 32.2596H21.6902L22.6144 33.1357C23.0495 33.6131 23.5451 34.0315 24.0887 34.3804L20.5524 34.391ZM37.171 31.6293C36.209 32.5874 35.0444 33.3175 33.7629 33.766C33.3462 33.9103 32.983 34.0011 32.5663 34.14C31.9479 34.2847 31.3156 34.3617 30.6806 34.3697H30.4937C28.3249 34.3819 26.222 33.6248 24.5588 32.2329C24.3238 32.0513 24.0994 31.8163 23.8697 31.6346L23.4103 31.2126L22.3419 30.1442L19.4466 27.2436C19.3465 27.1443 19.267 27.0261 19.2128 26.8959C19.1585 26.7657 19.1306 26.6261 19.1306 26.4851C19.1306 26.344 19.1585 26.2044 19.2128 26.0742C19.267 25.944 19.3465 25.8258 19.4466 25.7265C19.5402 25.6244 19.6542 25.5431 19.7812 25.4879C19.9082 25.4327 20.0454 25.4048 20.1838 25.406C20.323 25.4001 20.4616 25.4258 20.5893 25.4814C20.717 25.5369 20.8305 25.6207 20.921 25.7265L25.296 30.1015C25.7072 30.4981 26.1543 30.8558 26.6315 31.1699C27.7627 31.8745 29.0701 32.2449 30.4028 32.2383C32.3353 32.2319 34.1874 31.4642 35.5578 30.1015C36.8807 28.8421 37.6777 27.1284 37.7885 25.3053C37.8993 23.4821 37.3157 21.6845 36.155 20.2741C34.9944 18.8638 33.3428 17.9451 31.5323 17.703C29.7219 17.4609 27.8869 17.9132 26.3964 18.969C25.7892 18.4878 25.1233 18.0857 24.4146 17.7724C26.1199 16.3819 28.2505 15.6182 30.4509 15.609C32.3082 15.6071 34.1246 16.1544 35.6717 17.1821C37.2188 18.2098 38.4274 19.672 39.1457 21.3848C39.8639 23.0976 40.0597 24.9845 39.7083 26.8083C39.3569 28.6321 38.4742 30.3112 37.171 31.6346V31.6293Z" fill="black"/>
<path d="M42.4273 2.13672H10.8034C8.76326 2.13672 6.8067 2.94716 5.36411 4.38974C3.92152 5.83233 3.11108 7.7889 3.11108 9.82903V40.1709C3.11108 42.2111 3.92152 44.1676 5.36411 45.6102C6.8067 47.0528 8.76326 47.8632 10.8034 47.8632H42.4273C43.4375 47.8632 44.4378 47.6643 45.371 47.2777C46.3043 46.8911 47.1523 46.3245 47.8666 45.6102C48.5809 44.8959 49.1475 44.0479 49.5341 43.1147C49.9207 42.1814 50.1196 41.1811 50.1196 40.1709V9.82903C50.1196 8.81886 49.9207 7.81858 49.5341 6.88531C49.1475 5.95203 48.5809 5.10404 47.8666 4.38974C47.1523 3.67545 46.3043 3.10884 45.371 2.72226C44.4378 2.33569 43.4375 2.13672 42.4273 2.13672ZM38.8696 33.3226C36.7108 35.4907 33.7879 36.7258 30.7286 36.7628H20.5042C18.5241 36.7621 16.5886 36.1745 14.9422 35.0742C13.2959 33.9739 12.0127 32.4104 11.2546 30.581C10.4966 28.7517 10.2978 26.7388 10.6834 24.7965C11.069 22.8542 12.0216 21.0699 13.4209 19.6688C14.3418 18.7236 15.4435 17.9735 16.6605 17.4632C17.8774 16.9529 19.1847 16.6929 20.5042 16.6987C21.0158 16.699 21.5265 16.7383 22.032 16.8162L22.1656 16.6827C24.3799 14.5048 27.3643 13.2888 30.4701 13.2987C33.576 13.3086 36.5524 14.5438 38.7528 16.7357C40.9532 18.9277 42.1998 21.8994 42.2217 25.0052C42.2435 28.111 41.0389 31.0999 38.8696 33.3226Z" fill="black"/>
</svg>
