<svg width="52" height="50" viewBox="0 0 52 50" fill="none" xmlns="http://www.w3.org/2000/svg">
<path d="M41.5555 2.13672H9.93157C7.89144 2.13672 5.93487 2.94716 4.49228 4.38974C3.0497 5.83233 2.23926 7.7889 2.23926 9.82903V40.1709C2.23926 42.2111 3.0497 44.1676 4.49228 45.6102C5.93487 47.0528 7.89144 47.8632 9.93157 47.8632H41.5555C42.5656 47.8632 43.5659 47.6643 44.4992 47.2777C45.4325 46.8911 46.2804 46.3245 46.9947 45.6102C47.709 44.8959 48.2756 44.0479 48.6622 43.1147C49.0488 42.1814 49.2478 41.1811 49.2478 40.1709V9.82903C49.2478 8.81886 49.0488 7.81858 48.6622 6.88531C48.2756 5.95203 47.709 5.10404 46.9947 4.38974C46.2804 3.67545 45.4325 3.10884 44.4992 2.72226C43.5659 2.33569 42.5656 2.13672 41.5555 2.13672ZM25.2948 16.3034H16.8065V22.9701H24.424C24.6003 22.9701 24.6644 23.0395 24.6644 23.2158V26.1218C24.6688 26.1544 24.6657 26.1876 24.6551 26.2188C24.6446 26.2499 24.627 26.2783 24.6038 26.3015C24.5805 26.3248 24.5522 26.3424 24.521 26.3529C24.4898 26.3634 24.4567 26.3666 24.424 26.3622H16.8065V35.844C16.8065 36.0577 16.7478 36.1271 16.5661 36.1271H13.361C13.2435 36.1271 13.1847 36.0203 13.1847 35.844V13.1517C13.1847 12.9434 13.2114 12.9113 13.3931 12.9113H24.9636C25.1452 12.9113 25.204 12.9434 25.236 13.1517L25.5031 15.9882C25.5352 16.1966 25.4764 16.3034 25.2948 16.3034ZM32.7734 36.6026C31.2082 36.6026 29.2317 36.453 27.9657 35.5342C27.9059 35.4995 27.8575 35.4483 27.8262 35.3866C27.7949 35.325 27.7822 35.2557 27.7894 35.187V31.9818C27.7894 31.8109 27.907 31.7361 27.9978 31.8109C29.3926 32.8223 31.0833 33.3427 32.8055 33.2906C33.0398 33.3183 33.2774 33.2952 33.5021 33.2229C33.7267 33.1507 33.9332 33.0309 34.1075 32.8718C34.2819 32.7127 34.4199 32.518 34.5123 32.3008C34.6047 32.0837 34.6493 31.8492 34.6431 31.6132C34.6431 30.7051 34.3119 30.1816 32.1858 29.1667C29.1516 27.7083 27.8802 26.4423 27.8802 23.8889C27.8802 21.0577 30.017 18.6966 33.4999 18.6966C35.3055 18.6966 36.5768 18.7447 37.4048 19.3002C37.4689 19.357 37.5183 19.4285 37.549 19.5084C37.5797 19.5884 37.5907 19.6745 37.5811 19.7596V22.6496C37.5811 22.8579 37.4636 22.9647 37.314 22.8579C36.2456 22.1581 34.7446 21.9338 33.2061 21.9338C31.7531 21.9338 31.3738 22.8419 31.3738 23.5043C31.3738 24.3429 31.7531 24.8023 33.9753 25.8494C37.0202 27.3184 38.3183 28.6111 38.3183 31.1325C38.3183 34.6314 36.0426 36.6239 32.7894 36.6239L32.7734 36.6026Z" fill="black"/>
</svg>
