<svg width="52" height="50" viewBox="0 0 52 50" fill="none" xmlns="http://www.w3.org/2000/svg">
<path d="M42.1454 2.13679H10.5215C9.51012 2.13255 8.50793 2.32862 7.57275 2.71369C6.63756 3.09876 5.78788 3.66521 5.07274 4.38036C4.35759 5.0955 3.79114 5.94518 3.40607 6.88036C3.021 7.81555 2.82493 8.81774 2.82917 9.82909V40.1709C2.82493 41.1823 3.021 42.1845 3.40607 43.1197C3.79114 44.0549 4.35759 44.9045 5.07274 45.6197C5.78788 46.3348 6.63756 46.9013 7.57275 47.2863C8.50793 47.6714 9.51012 47.8675 10.5215 47.8633H42.1454C43.1567 47.8675 44.1589 47.6714 45.0941 47.2863C46.0293 46.9013 46.879 46.3348 47.5941 45.6197C48.3093 44.9045 48.8757 44.0549 49.2608 43.1197C49.6459 42.1845 49.8419 41.1823 49.8377 40.1709V9.82909C49.8419 8.81774 49.6459 7.81555 49.2608 6.88036C48.8757 5.94518 48.3093 5.0955 47.5941 4.38036C46.879 3.66521 46.0293 3.09876 45.0941 2.71369C44.1589 2.32862 43.1567 2.13255 42.1454 2.13679ZM26.921 35.0962C26.9129 35.1736 26.8749 35.2449 26.815 35.2948C26.7552 35.3447 26.6782 35.3692 26.6005 35.3632H14.9018V35.3098C14.6347 35.3098 14.5813 35.203 14.5813 34.9893V12.0192C14.5813 11.859 14.6347 11.7521 14.8484 11.7521H18.2138C18.374 11.7521 18.4274 11.8056 18.4274 12.0192V31.7842H27.2415C27.4018 31.7842 27.4552 31.8376 27.4552 32.0513L26.921 35.0962ZM38.8868 20.9402C38.8868 21.1004 38.8334 21.1538 38.6197 21.1538C37.2843 21.1004 35.3078 21.2607 34.5599 21.5812V35.0427C34.5599 35.203 34.5065 35.3098 34.2928 35.3098H30.9809C30.8206 35.3098 30.7138 35.2564 30.7138 35.0427V21.4744C30.7138 21.2073 30.7138 20.6197 30.6069 19.391C30.6069 19.2842 30.6603 19.1239 30.7672 19.1239C33.2716 18.1509 35.9329 17.644 38.6197 17.6282C38.78 17.6282 38.8868 17.6816 38.8868 17.8419V20.9402Z" fill="black"/>
</svg>
