<svg width="52" height="50" viewBox="0 0 52 50" fill="none" xmlns="http://www.w3.org/2000/svg">
<path d="M19.7266 14.8718C19.0416 14.8468 18.3558 14.8754 17.6753 14.9573V23.2479H19.3847C21.8633 23.2479 24.2565 22.3932 24.2565 18.9744C24.2565 16.2393 22.5471 14.8718 19.7266 14.8718Z" fill="black"/>
<path d="M41.8633 2.13672H10.2394C8.1993 2.13672 6.24273 2.94716 4.80014 4.38974C3.35755 5.83233 2.54712 7.7889 2.54712 9.82903V40.1709C2.54712 42.2111 3.35755 44.1676 4.80014 45.6102C6.24273 47.0528 8.1993 47.8632 10.2394 47.8632H41.8633C42.8735 47.8632 43.8738 47.6643 44.8071 47.2777C45.7403 46.8911 46.5883 46.3245 47.3026 45.6102C48.0169 44.8959 48.5835 44.0479 48.9701 43.1147C49.3567 42.1814 49.5556 41.1811 49.5556 40.1709V9.82903C49.5556 8.81886 49.3567 7.81858 48.9701 6.88531C48.5835 5.95203 48.0169 5.10404 47.3026 4.38974C46.5883 3.67545 45.7403 3.10884 44.8071 2.72226C43.8738 2.33569 42.8735 2.13672 41.8633 2.13672ZM19.2138 26.7521H17.6112V34.9573C17.6158 34.9864 17.6145 35.0161 17.6076 35.0447C17.6007 35.0734 17.5882 35.1004 17.5708 35.1242C17.5535 35.148 17.5316 35.1682 17.5064 35.1835C17.4813 35.1989 17.4533 35.2091 17.4242 35.2137C17.4014 35.2189 17.3776 35.2189 17.3548 35.2137H14.0856C14.0564 35.2182 14.0267 35.217 13.9981 35.2101C13.9694 35.2032 13.9424 35.1907 13.9186 35.1733C13.8948 35.1559 13.8747 35.1341 13.8593 35.1089C13.844 35.0838 13.8337 35.0558 13.8291 35.0267C13.8239 35.0039 13.8239 34.9801 13.8291 34.9573V11.8803C13.8291 11.7094 13.8291 11.6239 14.0001 11.6239C15.3676 11.5385 17.4189 11.5385 19.4702 11.5385C25.3462 11.5385 27.9317 14.7863 27.9317 18.9744C27.9317 24.4444 24.0001 26.7521 19.2138 26.7521ZM39.4702 20.7692C39.4702 20.9402 39.3847 20.9402 39.2138 20.9402C37.8605 20.8655 36.504 21.0098 35.1967 21.3675V34.7863C35.2012 34.8154 35.2 34.8452 35.1931 34.8738C35.1862 34.9024 35.1737 34.9294 35.1563 34.9533C35.1389 34.9771 35.1171 34.9972 35.0919 35.0126C35.0667 35.0279 35.0388 35.0382 35.0097 35.0427C34.9869 35.048 34.9631 35.048 34.9403 35.0427H31.6069C31.5778 35.0473 31.5481 35.0461 31.5194 35.0392C31.4908 35.0322 31.4638 35.0197 31.44 35.0024C31.4162 34.985 31.396 34.9631 31.3807 34.938C31.3653 34.9128 31.3551 34.8849 31.3505 34.8558C31.3453 34.8329 31.3453 34.8092 31.3505 34.7863V21.282C31.3505 21.0256 31.3505 20.4273 31.265 19.2308C31.265 19.0598 31.265 19.0598 31.436 18.9744C33.9195 18.0239 36.5547 17.5316 39.2138 17.5214C39.3847 17.5214 39.4702 17.5214 39.4702 17.6923V20.7692Z" fill="black"/>
</svg>
