<svg width="52" height="50" viewBox="0 0 52 50" fill="none" xmlns="http://www.w3.org/2000/svg">
<path d="M20.4969 15.7905C19.6422 15.7905 18.8302 15.8332 18.4456 15.8546V24.1025C18.937 24.1452 19.3217 24.1452 20.1764 24.1452C22.6764 24.1452 24.9841 23.2691 24.9841 19.8717C25.0054 17.158 23.3601 15.7905 20.4969 15.7905Z" fill="black"/>
<path d="M41.5811 2.13672H9.9572C7.91707 2.13672 5.96051 2.94716 4.51792 4.38974C3.07533 5.83233 2.26489 7.7889 2.26489 9.82903V40.1709C2.26489 42.2111 3.07533 44.1676 4.51792 45.6102C5.96051 47.0528 7.91707 47.8632 9.9572 47.8632H41.5811C42.5913 47.8632 43.5915 47.6643 44.5248 47.2777C45.4581 46.8911 46.3061 46.3245 47.0204 45.6102C47.7347 44.8959 48.3013 44.0479 48.6879 43.1147C49.0744 42.1814 49.2734 41.1811 49.2734 40.1709V9.82903C49.2734 8.81886 49.0744 7.81858 48.6879 6.88531C48.3013 5.95203 47.7347 5.10404 47.0204 4.38974C46.3061 3.67545 45.4581 3.10884 44.5248 2.72226C43.5915 2.33569 42.5913 2.13672 41.5811 2.13672ZM20.0907 27.5641C19.2787 27.5641 19.0223 27.5214 18.424 27.5214V35.7479C18.424 35.9188 18.3599 36.0043 18.1676 36.0043H14.8984C14.7275 36.0043 14.642 35.9402 14.642 35.7479V12.7778C14.642 12.6282 14.6847 12.5214 14.8557 12.5214C16.2232 12.4573 18.2104 12.4145 20.3258 12.4145C26.2446 12.4145 28.83 15.6624 28.83 19.8291C28.83 25.235 24.9198 27.5641 20.0907 27.5641ZM38.1463 35.7051C38.1463 35.9188 38.1035 35.9829 37.9753 36.047C37.3747 36.2373 36.7461 36.324 36.1164 36.3034C34.2574 36.3034 32.5907 35.5983 32.5907 32.2222V12.7137C32.5907 12.5641 32.6334 12.5 32.8471 12.5H36.1591C36.3728 12.5 36.4369 12.5641 36.4369 12.7137V31.9017C36.4369 32.7564 36.7574 33.0556 37.3984 33.0556C37.5922 33.0509 37.7852 33.0295 37.9753 32.9914C38.1249 32.9914 38.1463 33.0342 38.1463 33.2051V35.7051Z" fill="black"/>
</svg>
