<svg width="52" height="50" viewBox="0 0 52 50" fill="none" xmlns="http://www.w3.org/2000/svg">
<path d="M15.7778 25.2136H20.8205C20.2222 22.8204 18.7906 17.6922 18.2564 15.2136C17.8291 17.6922 16.6325 21.9657 15.7778 25.2136Z" fill="black"/>
<path d="M42.0172 2.13672H10.3933C8.35311 2.13672 6.39654 2.94716 4.95396 4.38974C3.51137 5.83233 2.70093 7.7889 2.70093 9.82903V40.1709C2.70093 42.2111 3.51137 44.1676 4.95396 45.6102C6.39654 47.0528 8.35311 47.8632 10.3933 47.8632H42.0172C43.0274 47.8632 44.0276 47.6643 44.9609 47.2777C45.8942 46.8911 46.7422 46.3245 47.4565 45.6102C48.1708 44.8959 48.7374 44.0479 49.124 43.1147C49.5105 42.1814 49.7095 41.1811 49.7095 40.1709V9.82903C49.7095 8.81886 49.5105 7.81858 49.124 6.88531C48.7374 5.95203 48.1708 5.10404 47.4565 4.38974C46.7422 3.67545 45.8942 3.10884 44.9609 2.72226C44.0276 2.33569 43.0274 2.13672 42.0172 2.13672ZM27.3163 35.2137H23.8121C23.6411 35.2137 23.5557 35.2137 23.4702 35.0427L21.6753 28.6325L14.8377 28.7179L13.1283 35.1282C13.1283 35.2991 13.0428 35.2991 12.7864 35.2991H9.64538C9.47444 35.2991 9.38897 35.2137 9.47444 34.9573L15.5215 13.6752C15.6609 13.1167 15.7185 12.5409 15.6924 11.9658C15.6924 11.7949 15.7779 11.7949 15.8633 11.7949H20.3933C20.5642 11.7949 20.5642 11.7949 20.6497 11.9658L27.4873 34.9359C27.4873 35.1282 27.4873 35.2137 27.3163 35.2137ZM42.3591 34.2735C40.272 35.1543 38.0418 35.6467 35.7779 35.7265C32.7864 35.7265 29.4531 34.5299 29.4531 29.4017V18.2906C29.4485 18.2615 29.4497 18.2318 29.4567 18.2031C29.4636 18.1745 29.4761 18.1475 29.4935 18.1237C29.5108 18.0998 29.5327 18.0797 29.5579 18.0643C29.583 18.049 29.6109 18.0387 29.6401 18.0342H32.9574C32.9865 18.0296 33.0162 18.0308 33.0448 18.0378C33.0735 18.0447 33.1005 18.0572 33.1243 18.0746C33.1481 18.0919 33.1683 18.1138 33.1836 18.139C33.199 18.1641 33.2092 18.192 33.2138 18.2212C33.219 18.244 33.219 18.2677 33.2138 18.2906V29.0598C33.2138 31.1111 33.8975 32.2222 36.0343 32.2222C36.8521 32.2359 37.6649 32.0907 38.4274 31.7949V18.1197C38.4274 17.9487 38.5129 17.8632 38.5984 17.8632H42.1027C42.1318 17.8587 42.1615 17.8599 42.1901 17.8668C42.2188 17.8737 42.2458 17.8863 42.2696 17.9036C42.2934 17.921 42.3136 17.9429 42.3289 17.968C42.3443 17.9932 42.3545 18.0211 42.3591 18.0502C42.3643 18.0731 42.3643 18.0968 42.3591 18.1197L42.4445 31.7949C42.4445 31.9658 42.4445 32.735 42.53 34.0171C42.53 34.188 42.4445 34.188 42.3591 34.2735Z" fill="black"/>
</svg>
