<svg width="52" height="50" viewBox="0 0 52 50" fill="none" xmlns="http://www.w3.org/2000/svg">
<path d="M41.5811 2.13672H9.9572C7.91707 2.13672 5.96051 2.94716 4.51792 4.38974C3.07533 5.83233 2.26489 7.7889 2.26489 9.82903V40.1709C2.26489 42.2111 3.07533 44.1676 4.51792 45.6102C5.96051 47.0528 7.91707 47.8632 9.9572 47.8632H41.5811C42.5913 47.8632 43.5915 47.6643 44.5248 47.2777C45.4581 46.8911 46.3061 46.3245 47.0204 45.6102C47.7347 44.8959 48.3013 44.0479 48.6879 43.1147C49.0744 42.1814 49.2734 41.1811 49.2734 40.1709V9.82903C49.2734 8.81886 49.0744 7.81858 48.6879 6.88531C48.3013 5.95203 47.7347 5.10404 47.0204 4.38974C46.3061 3.67545 45.4581 3.10884 44.5248 2.72226C43.5915 2.33569 42.5913 2.13672 41.5811 2.13672ZM24.6046 16.9605C24.6046 17.2169 24.4764 17.2169 24.3802 17.1848C23.3386 16.7381 22.2118 16.5248 21.079 16.5598C17.2916 16.5598 14.7702 19.4391 14.7702 24.391C14.7702 30.5021 18.2317 32.3184 21.079 32.3184C22.1243 32.3626 23.1693 32.2234 24.1666 31.907C24.2948 31.8429 24.3963 31.8429 24.3963 32.0673V34.7382C24.407 34.8148 24.3896 34.8927 24.3474 34.9575C24.3052 35.0223 24.2409 35.0696 24.1666 35.0908C23.0087 35.4661 21.7928 35.6308 20.5768 35.5769C15.5287 35.5769 11.0683 32.2756 11.0683 24.5139C11.0843 17.8365 15.0266 13.3547 21.0469 13.3547C22.1875 13.2874 23.3303 13.4416 24.4123 13.8088C24.5725 13.8729 24.6046 13.969 24.6046 14.1613V16.9605ZM39.3856 35.0107C39.3856 35.2083 39.3215 35.2724 39.1612 35.2724H36.0896C35.9294 35.2724 35.8599 35.1709 35.8599 35.0107V25.2083C35.8599 23.2692 35.0533 22.2009 33.4988 22.2009C32.5445 22.1831 31.6195 22.5309 30.9134 23.1731V35.0427C30.9134 35.2083 30.8493 35.2724 30.7157 35.2724H27.6121C27.5803 35.2776 27.5477 35.2753 27.5169 35.2658C27.4861 35.2562 27.458 35.2397 27.4347 35.2174C27.4114 35.1952 27.3936 35.1678 27.3827 35.1375C27.3717 35.1072 27.368 35.0747 27.3717 35.0427V13.8889C27.3717 13.7553 27.4037 13.6912 27.596 13.6912H30.6997C30.7267 13.6866 30.7544 13.6884 30.7805 13.6967C30.8067 13.705 30.8304 13.7194 30.8498 13.7388C30.8692 13.7582 30.8836 13.7819 30.8919 13.808C30.9001 13.8342 30.902 13.8619 30.8973 13.8889V20.2991C31.9762 19.4577 33.3114 19.0127 34.6794 19.0385C36.7841 19.0385 39.3696 20.1068 39.3696 24.8291L39.3856 35.0107Z" fill="black"/>
</svg>
