<svg width="52" height="50" viewBox="0 0 52 50" fill="none" xmlns="http://www.w3.org/2000/svg">
<path d="M41.9916 2.13672H10.3676C8.32747 2.13672 6.3709 2.94716 4.92832 4.38974C3.48573 5.83233 2.67529 7.7889 2.67529 9.82903V40.1709C2.67529 42.2111 3.48573 44.1676 4.92832 45.6102C6.3709 47.0528 8.32747 47.8632 10.3676 47.8632H41.9916C43.0017 47.8632 44.002 47.6643 44.9353 47.2777C45.8686 46.8911 46.7166 46.3245 47.4309 45.6102C48.1452 44.8959 48.7118 44.0479 49.0983 43.1147C49.4849 42.1814 49.6839 41.1811 49.6839 40.1709V9.82903C49.6839 8.81886 49.4849 7.81858 49.0983 6.88531C48.7118 5.95203 48.1452 5.10404 47.4309 4.38974C46.7166 3.67545 45.8686 3.10884 44.9353 2.72226C44.002 2.33569 43.0017 2.13672 41.9916 2.13672ZM27.2907 35.1923H23.7864C23.6155 35.1923 23.53 35.1923 23.4446 35.0214L21.6497 28.6111L14.8121 28.6966L13.1027 35.1068C13.1027 35.2778 13.0172 35.2778 12.7608 35.2778H9.61974C9.4488 35.2778 9.36333 35.1923 9.4488 34.9359L15.4958 13.6752C15.6353 13.1167 15.6929 12.5409 15.6668 11.9658C15.6668 11.7949 15.7523 11.7949 15.8377 11.7949H20.3676C20.5386 11.7949 20.5386 11.7949 20.624 11.9658L27.4617 34.9359C27.4617 35.1068 27.4617 35.1923 27.2907 35.1923ZM42.5044 34.9573C42.509 34.9864 42.5077 35.0161 42.5008 35.0447C42.4939 35.0734 42.4814 35.1004 42.464 35.1242C42.4467 35.148 42.4248 35.1682 42.3996 35.1835C42.3745 35.1989 42.3465 35.2091 42.3174 35.2137C42.2946 35.2189 42.2708 35.2189 42.248 35.2137H39.0001C38.971 35.2182 38.9413 35.217 38.9126 35.2101C38.884 35.2032 38.857 35.1907 38.8332 35.1733C38.8094 35.1559 38.7892 35.1341 38.7739 35.1089C38.7585 35.0838 38.7483 35.0558 38.7437 35.0267C38.7385 35.0039 38.7385 34.9801 38.7437 34.9573V24.188C38.7437 22.1367 38.0599 21.0256 35.9232 21.0256C35.1053 21.012 34.2926 21.1571 33.53 21.453V35.1282C33.53 35.2991 33.4446 35.3846 33.3591 35.3846H29.8548C29.8257 35.3892 29.796 35.388 29.7673 35.381C29.7387 35.3741 29.7117 35.3616 29.6879 35.3442C29.6641 35.3269 29.6439 35.305 29.6286 35.2798C29.6132 35.2547 29.603 35.2268 29.5984 35.1976C29.5932 35.1748 29.5932 35.1511 29.5984 35.1282L29.5129 21.453C29.5129 21.282 29.5129 20.5128 29.4275 19.2308C29.4275 19.0598 29.5129 19.0598 29.5984 18.9744C31.6864 18.0965 33.9161 17.6042 36.1796 17.5214C39.1711 17.5214 42.5044 18.7179 42.5044 23.8462V34.9573Z" fill="black"/>
<path d="M15.7522 25.2136H20.795C20.1967 22.8204 18.7437 17.6922 18.2309 15.2136C17.8035 17.6922 16.6283 21.9657 15.7522 25.2136Z" fill="black"/>
</svg>
