<svg width="52" height="50" viewBox="0 0 52 50" fill="none" xmlns="http://www.w3.org/2000/svg">
<path d="M21.7521 25.1816C21.0884 24.9935 20.4014 24.9 19.7115 24.9038H17.3184V32.1528C17.938 32.2009 18.5203 32.1528 19.2949 32.1528C22.0299 32.1528 24.3109 31.1218 24.3109 28.4776C24.3109 26.8376 23.4722 25.6998 21.7521 25.1816ZM22.1581 21.7415C22.5966 21.3692 22.9432 20.9008 23.1712 20.3727C23.3991 19.8446 23.5021 19.271 23.4722 18.6966C23.4722 16.5598 21.9444 15.4915 19.4872 15.4915C18.6485 15.4915 17.8525 15.5342 17.3184 15.5556V21.6987H19.4231C20.3347 21.6516 21.2484 21.6659 22.1581 21.7415Z" fill="black"/>
<path d="M41.8375 2.13672H10.2136C8.17342 2.13672 6.21685 2.94716 4.77427 4.38974C3.33168 5.83233 2.52124 7.7889 2.52124 9.82903V40.1709C2.52124 42.2111 3.33168 44.1676 4.77427 45.6102C6.21685 47.0528 8.17342 47.8632 10.2136 47.8632H41.8375C42.8477 47.8632 43.8479 47.6643 44.7812 47.2777C45.7145 46.8911 46.5625 46.3245 47.2768 45.6102C47.9911 44.8959 48.5577 44.0479 48.9443 43.1147C49.3308 42.1814 49.5298 41.1811 49.5298 40.1709V9.82903C49.5298 8.81886 49.3308 7.81858 48.9443 6.88531C48.5577 5.95203 47.9911 5.10404 47.2768 4.38974C46.5625 3.67545 45.7145 3.10884 44.7812 2.72226C43.8479 2.33569 42.8477 2.13672 41.8375 2.13672ZM19.3375 35.4487C17.0565 35.4487 14.9892 35.406 13.8941 35.3846C13.8256 35.3778 13.7625 35.3443 13.7185 35.2913C13.6745 35.2383 13.6531 35.1701 13.6591 35.1015V12.5694C13.6591 12.3985 13.7018 12.3344 13.83 12.2917C14.7969 12.2489 17.4892 12.1848 19.5993 12.1848C26.0095 12.1848 27.1527 15.9241 27.1527 18.1891C27.1862 19.0925 27.0109 19.9915 26.6403 20.8161C26.2697 21.6407 25.7138 22.3687 25.0159 22.9434C26.3033 23.5684 28.221 25.1603 28.221 28.4562C28.1623 32.8205 24.674 35.4915 19.3375 35.4487ZM39.4604 21.266C39.4604 21.437 39.4604 21.4797 39.2894 21.4797C37.9699 21.4045 36.647 21.5471 35.3738 21.9017V35.2564C35.3738 35.4273 35.3097 35.4915 35.1334 35.4915H31.7574C31.5864 35.4915 31.517 35.4273 31.517 35.2564V21.7842C31.517 21.5438 31.517 20.9188 31.4102 19.7382C31.4102 19.5673 31.4743 19.5246 31.6078 19.4605C34.037 18.514 36.6183 18.018 39.2253 17.9968C39.3963 17.9968 39.4604 18.0395 39.4604 18.2105V21.266Z" fill="black"/>
</svg>
