<svg width="52" height="50" viewBox="0 0 52 50" fill="none" xmlns="http://www.w3.org/2000/svg">
<path d="M14.8503 15.032C14.1025 15.032 13.5469 15.0748 12.9272 15.0961V31.9765C13.5255 32.0192 13.9956 32.0406 14.7007 32.0406C18.6751 32.0406 21.6452 29.2414 21.6452 23.1944C21.7093 17.297 18.6537 15.032 14.8503 15.032Z" fill="black"/>
<path d="M41.453 2.13672H9.82903C7.7889 2.13672 5.83234 2.94716 4.38975 4.38974C2.94716 5.83233 2.13672 7.7889 2.13672 9.82903V40.1709C2.13672 42.2111 2.94716 44.1676 4.38975 45.6102C5.83234 47.0528 7.7889 47.8632 9.82903 47.8632H41.453C42.4632 47.8632 43.4634 47.6643 44.3967 47.2777C45.33 46.8911 46.178 46.3245 46.8923 45.6102C47.6066 44.8959 48.1732 44.0479 48.5598 43.1147C48.9463 42.1814 49.1453 41.1811 49.1453 40.1709V9.82903C49.1453 8.81886 48.9463 7.81858 48.5598 6.88531C48.1732 5.95203 47.6066 5.10404 46.8923 4.38974C46.178 3.67545 45.33 3.10884 44.3967 2.72226C43.4634 2.33569 42.4632 2.13672 41.453 2.13672ZM14.6368 35.4594C12.8205 35.4594 10.1923 35.4167 9.23074 35.3953C9.08117 35.3953 9.01706 35.2885 9.01706 35.1175V12.0192C9.01706 11.8483 9.0598 11.7628 9.27348 11.7414C10.0855 11.6987 12.4359 11.6346 14.8504 11.6346C22.0513 11.6346 25.641 16.2927 25.641 23.109C25.641 32.5855 19.4231 35.4594 14.6368 35.4594ZM42.265 35.1175C42.265 35.3312 42.2009 35.3953 42.0085 35.3953H38.6325C38.4188 35.3953 38.3547 35.2885 38.3547 35.1175V24.2415C38.3547 22.1902 37.5 21.0363 35.3846 21.0363C34.5785 21.037 33.7778 21.1668 33.0128 21.4209V35.1389C33.0128 35.2885 32.9487 35.3953 32.7991 35.3953H29.3803C29.2094 35.3953 29.1239 35.3312 29.1239 35.1389V21.4637C29.1239 21.25 29.1239 20.5021 29.0171 19.2628C29.0171 19.1132 29.0598 19.0919 29.188 19.0064C31.3246 18.1469 33.5956 17.6696 35.8974 17.5962C38.9103 17.5962 42.3077 18.7714 42.3077 23.9637L42.265 35.1175Z" fill="black"/>
</svg>
