<svg width="52" height="50" viewBox="0 0 52 50" fill="none" xmlns="http://www.w3.org/2000/svg">
<path d="M26.6665 26.6667C26.6665 30.7051 28.6323 32.3077 31.111 32.3077C31.6349 32.3138 32.1558 32.227 32.6494 32.0513V21.1966C32.2309 21.0863 31.8002 21.0288 31.3674 21.0256C28.6323 21.0256 26.6665 23.1624 26.6665 26.6667Z" fill="black"/>
<path d="M41.7093 2.13672H10.0853C8.04525 2.13672 6.08868 2.94716 4.64609 4.38974C3.2035 5.83233 2.39307 7.7889 2.39307 9.82903V40.1709C2.39307 42.2111 3.2035 44.1676 4.64609 45.6102C6.08868 47.0528 8.04525 47.8632 10.0853 47.8632H41.7093C42.7194 47.8632 43.7197 47.6643 44.653 47.2777C45.5863 46.8911 46.4343 46.3245 47.1486 45.6102C47.8628 44.8959 48.4295 44.0479 48.816 43.1147C49.2026 42.1814 49.4016 41.1811 49.4016 40.1709V9.82903C49.4016 8.81886 49.2026 7.81858 48.816 6.88531C48.4295 5.95203 47.8628 5.10404 47.1486 4.38974C46.4343 3.67545 45.5863 3.10884 44.653 2.72226C43.7197 2.33569 42.7194 2.13672 41.7093 2.13672ZM18.8888 12.1367V35.0427C18.8888 35.2137 18.8888 35.2991 18.6323 35.2991H15.3845C15.3616 35.3044 15.3379 35.3044 15.315 35.2991C15.2859 35.2946 15.258 35.2843 15.2328 35.269C15.2077 35.2536 15.1858 35.2335 15.1684 35.2097C15.1511 35.1859 15.1386 35.1589 15.1316 35.1302C15.1247 35.1016 15.1235 35.0718 15.1281 35.0427V12.1367C15.1228 12.1139 15.1228 12.0902 15.1281 12.0673C15.1326 12.0382 15.1429 12.0103 15.1582 11.9851C15.1736 11.96 15.1937 11.9381 15.2175 11.9207C15.2414 11.9033 15.2684 11.8908 15.297 11.8839C15.3256 11.877 15.3554 11.8758 15.3845 11.8803H18.7178C18.9529 11.8803 18.9529 11.9658 18.8888 12.1367ZM36.5811 34.359C34.8136 35.1863 32.8912 35.6305 30.94 35.6624C26.2392 35.6624 22.8204 32.7564 22.8204 26.7735C22.8204 21.7094 26.2392 17.6923 31.6238 17.6923H32.7349V12.0513C32.7375 12.0068 32.7563 11.9648 32.7878 11.9332C32.8193 11.9017 32.8613 11.8829 32.9058 11.8803H36.4101C36.5811 11.8803 36.5811 11.9658 36.5811 12.0513V32.0513C36.5601 32.7393 36.6175 33.4275 36.752 34.1026C36.752 34.2735 36.752 34.2735 36.5811 34.359Z" fill="black"/>
</svg>
