<svg width="52" height="50" viewBox="0 0 52 50" fill="none" xmlns="http://www.w3.org/2000/svg">
<path d="M20.3194 15.7051C19.8707 18.1624 18.781 22.2436 17.9103 25.4701H22.8462C22.2639 23.1624 20.875 18.1624 20.3622 15.7051H20.3194Z" fill="black"/>
<path d="M41.735 2.13675H10.1111C8.07098 2.13675 6.11441 2.94719 4.67183 4.38977C3.22924 5.83236 2.4188 7.78893 2.4188 9.82906V40.1709C2.4188 42.2111 3.22924 44.1676 4.67183 45.6102C6.11441 47.0528 8.07098 47.8632 10.1111 47.8632H41.735C42.7452 47.8632 43.7455 47.6643 44.6788 47.2777C45.612 46.8911 46.46 46.3245 47.1743 45.6102C47.8886 44.8959 48.4552 44.0479 48.8418 43.1147C49.2284 42.1814 49.4273 41.1811 49.4273 40.1709V9.82906C49.4273 8.81889 49.2284 7.81861 48.8418 6.88534C48.4552 5.95206 47.8886 5.10407 47.1743 4.38977C46.46 3.67548 45.612 3.10887 44.6788 2.72229C43.7455 2.33572 42.7452 2.13675 41.735 2.13675V2.13675ZM29.1656 35.3419H25.7254C25.5545 35.3419 25.4476 35.2778 25.4263 35.1282L23.7169 28.8462H17.0288L15.3835 35.0855C15.3811 35.1212 15.3711 35.1561 15.3544 35.1878C15.3376 35.2194 15.3143 35.2473 15.2862 35.2694C15.258 35.2916 15.2254 35.3075 15.1907 35.3164C15.1559 35.3252 15.1197 35.3266 15.0844 35.3205H12.0342C11.8205 35.3205 11.7991 35.2564 11.8205 35.0214L17.7126 14.3162C17.8604 13.7586 17.9323 13.1837 17.9263 12.6068C17.9263 12.4786 17.9904 12.3932 18.0972 12.3932H22.4562C22.5844 12.3932 22.6699 12.4359 22.6912 12.6068L29.3365 35.0427C29.3793 35.2564 29.3365 35.3419 29.1656 35.3419ZM40.063 21.3675C40.063 21.5385 39.9989 21.5812 39.828 21.5812C38.4971 21.5044 37.1625 21.6415 35.875 21.9872V35.1282C35.875 35.2991 35.8109 35.3632 35.64 35.3632H32.3707C32.1998 35.3632 32.1357 35.2991 32.1357 35.1282V21.859C32.1357 21.6239 32.1357 21.0043 32.0288 19.8291C32.0184 19.7699 32.0301 19.7089 32.0616 19.6577C32.0931 19.6065 32.1422 19.5687 32.1998 19.5513C34.6308 18.619 37.2084 18.127 39.812 18.0983C39.9829 18.0983 40.047 18.141 40.047 18.312L40.063 21.3675Z" fill="black"/>
</svg>
