<svg width="52" height="50" viewBox="0 0 52 50" fill="none" xmlns="http://www.w3.org/2000/svg">
<path d="M16.0556 25.2992H21.0769C20.4786 22.906 19.0256 17.7778 18.5128 15.2137C18.0855 17.6923 16.9103 21.9658 16.0556 25.2992Z" fill="black"/>
<path d="M35.6923 20.8333C33.641 20.8333 32.7863 22.6282 32.5299 24.5085H36.8889H38.4914V24.1667C38.4914 22.9701 37.9145 20.8333 35.6923 20.8333Z" fill="black"/>
<path d="M42.0171 2.13675H10.3932C8.35303 2.13675 6.39646 2.94719 4.95388 4.38977C3.51129 5.83236 2.70085 7.78893 2.70085 9.82906V40.1709C2.70085 42.2111 3.51129 44.1676 4.95388 45.6102C6.39646 47.0528 8.35303 47.8632 10.3932 47.8632H42.0171C43.0273 47.8632 44.0275 47.6643 44.9608 47.2777C45.8941 46.8911 46.7421 46.3245 47.4564 45.6102C48.1707 44.8959 48.7373 44.0479 49.1239 43.1147C49.5104 42.1814 49.7094 41.1811 49.7094 40.1709V9.82906C49.7094 8.81889 49.5104 7.81861 49.1239 6.88534C48.7373 5.95206 48.1707 5.10407 47.4564 4.38977C46.7421 3.67548 45.8941 3.10887 44.9608 2.72229C44.0275 2.33572 43.0273 2.13675 42.0171 2.13675V2.13675ZM27.4872 35.3632H23.9829C23.9166 35.3628 23.8513 35.3472 23.7921 35.3176C23.7328 35.2879 23.6811 35.2451 23.641 35.1923L21.9316 28.7179H15.094L13.3846 35.1282C13.3846 35.2991 13.2991 35.3846 13.0427 35.3846H9.88034C9.7094 35.3846 9.62393 35.2991 9.7094 35.0427L15.7778 13.8462C15.912 13.2867 15.9695 12.7117 15.9487 12.1367C15.9487 11.9658 16.0342 11.9658 16.1197 11.9658H20.5641C20.735 11.9658 20.735 11.9658 20.8205 12.1367L27.6581 35.1068C27.6581 35.2564 27.6581 35.3632 27.4872 35.3632ZM41.9103 27.0299C41.9089 27.0862 41.8859 27.1397 41.8462 27.1795C41.8064 27.2193 41.7528 27.2422 41.6966 27.2436C40.5056 27.3859 39.306 27.443 38.1068 27.4145H32.5299C32.5299 30.3205 33.9829 32.2863 37.1453 32.2863C38.3413 32.3296 39.5316 32.1032 40.6282 31.6239C40.7991 31.5385 40.8846 31.6239 40.8846 31.7949V34.4658C40.8805 34.6241 40.8199 34.7757 40.7137 34.8932C39.6026 35.4914 38.1496 35.6624 36.4402 35.6624C30.7991 35.6624 28.6624 31.4744 28.6624 26.859C28.6624 21.8162 31.3333 17.7137 35.8419 17.7137C40.4573 17.7137 42.0812 21.6453 42.0812 24.8077C42.0965 25.5522 42.0392 26.2965 41.9103 27.0299Z" fill="black"/>
</svg>
