<svg width="50" height="50" viewBox="0 0 50 50" fill="none" xmlns="http://www.w3.org/2000/svg">
<path d="M43.1819 37.7066L41.839 39.2045L43.1303 40.3926H34.8142C34.2976 40.8058 33.7811 41.219 33.2129 41.5289C32.5414 41.9421 31.8183 42.3554 31.0435 42.6653H43.4402L41.9423 44.1632L43.1819 45.5578L47.1592 41.5289L43.1819 37.7066ZM9.34929 24.5868L8.88441 23.3988C7.54144 29.1839 9.5559 35.2789 14.153 39.1012H18.2852C12.6551 36.312 9.6592 30.0103 11.1055 23.9153L9.34929 24.5868ZM14.9795 21.4876L14.153 19.6797L12.3968 20.4545C15.9609 13.8946 24.1737 11.5186 30.7336 15.1343C36.1055 18.0785 38.8431 24.2769 37.3452 30.2169L38.9464 29.5971L39.4629 30.9917C39.9795 29.1322 40.0828 27.2211 39.8761 25.3099C44.5249 23.6054 46.9526 18.4401 45.2997 13.7913C44.0084 10.2273 40.6509 7.85124 36.8286 7.85124C35.7439 7.85124 34.7109 8.05785 33.6778 8.41942L34.2976 6.61157L32.5414 5.88843L30.7336 11.2603L36.0022 13.0165L36.5187 11.1054L34.8658 10.5888L34.8142 10.4855C35.4857 10.2789 36.1571 10.1756 36.8286 10.1756C40.496 10.1756 43.4918 13.1715 43.4918 16.8388C43.4918 19.4731 41.8906 21.9008 39.4629 22.9339C37.2935 14.5145 28.7191 9.45248 20.2997 11.6219C15.9609 12.7583 12.3452 15.6508 10.279 19.6281L9.5559 17.7169L7.74805 18.2851L9.81416 23.5537L14.9795 21.4876Z" fill="black"/>
<path d="M32.4896 40.3926C34.8656 38.9463 36.8284 36.8802 38.1197 34.4525L38.8429 36.312L40.6507 35.7438L38.5846 30.4752L33.4193 32.4897L34.2458 34.2975L36.1053 33.5227C36.1053 33.5744 36.1053 33.5744 36.0536 33.5744C35.9503 33.6777 35.8987 33.8327 35.847 33.936C35.847 33.9876 35.847 33.9876 35.7954 33.9876C35.6921 34.0909 35.6404 34.2459 35.5888 34.3492L35.5371 34.4008C35.4854 34.5041 35.3821 34.6074 35.3305 34.7108V34.7624C35.2788 34.8657 35.1755 34.969 35.1239 35.0723C35.1239 35.124 35.1239 35.124 35.0722 35.124C34.9689 35.2273 34.9173 35.3306 34.814 35.4339L34.7623 35.4855C34.659 35.5889 34.6073 35.6922 34.504 35.7955L34.4524 35.8471C34.3491 35.9504 34.2974 36.0537 34.1941 36.157L34.1425 36.2087C34.0392 36.312 33.9359 36.4153 33.8842 36.5186L33.8326 36.5703C33.7292 36.6736 33.6259 36.7769 33.5226 36.8285L33.471 36.8802C33.3677 36.9835 33.2644 37.0351 33.1611 37.1384C33.0578 37.2417 32.9545 37.2934 32.8511 37.3967L32.7995 37.4484C32.6962 37.5517 32.5929 37.6033 32.4896 37.7066C32.4379 37.7066 32.4379 37.7066 32.4379 37.7583C32.3346 37.8616 32.2313 37.9132 32.128 38.0165C32.0247 38.1198 31.9214 38.1715 31.7664 38.2232C31.7148 38.2232 31.7148 38.2232 31.7148 38.2748C31.6115 38.3265 31.5082 38.4298 31.4049 38.4814C31.3532 38.4814 31.3532 38.4814 31.3532 38.5331C31.095 38.688 30.8883 38.7913 30.6301 38.9463H30.5784C30.4235 38.9979 30.3202 39.0496 30.2169 39.1529H30.1652C29.9069 39.2562 29.6487 39.4112 29.3904 39.5145H29.3388C29.2354 39.5661 29.0805 39.6178 28.9772 39.6694H28.9255C28.6673 39.7727 28.409 39.876 28.1507 39.9277C27.9958 39.9794 27.8925 39.9794 27.7375 40.031H27.6859C27.5309 40.0827 27.4276 40.0827 27.2726 40.1343C27.1177 40.186 27.0144 40.186 26.8594 40.2376C26.7045 40.2893 26.6011 40.2893 26.4462 40.2893H26.3945C26.2396 40.2893 26.1363 40.3409 25.9813 40.3409C25.8264 40.3409 25.6714 40.3926 25.5681 40.3926H2.47925V42.6653H25.7747C28.2024 42.4587 30.5268 41.6839 32.4896 40.3926Z" fill="black"/>
</svg>
