<svg width="38" height="50" viewBox="0 0 38 50" fill="none" xmlns="http://www.w3.org/2000/svg">
<path d="M31.123 26.2402C31.1035 22.6563 32.7246 19.9512 36.0059 17.959C34.1699 15.332 31.3965 13.8867 27.7344 13.6035C24.2676 13.3301 20.4785 15.625 19.0918 15.625C17.627 15.625 14.2676 13.7012 11.6309 13.7012C6.18164 13.7891 0.390625 18.0469 0.390625 26.709C0.390625 29.2676 0.859375 31.9108 1.79687 34.6387C3.04687 38.2227 7.55859 47.0117 12.2656 46.8652C14.7266 46.8066 16.4648 45.1172 19.668 45.1172C22.7734 45.1172 24.3848 46.8652 27.1289 46.8652C31.875 46.7969 35.957 38.8086 37.1484 35.2148C30.7812 32.2168 31.123 26.4258 31.123 26.2402ZM25.5957 10.2051C28.2617 7.04102 28.0176 4.16016 27.9395 3.125C25.5859 3.26172 22.8613 4.72656 21.3086 6.5332C19.5996 8.4668 18.5938 10.8594 18.8086 13.5547C21.3574 13.75 23.6816 12.4414 25.5957 10.2051Z" fill="black"/>
</svg>
