<svg width="50" height="50" viewBox="0 0 50 50" fill="none" xmlns="http://www.w3.org/2000/svg">
<path d="M24.8461 0.153809C22.6923 5.53842 21.3076 9.07689 18.8461 14.2307C20.3076 15.8461 22.1538 17.6923 25.1538 19.7692C21.923 18.4615 19.7692 17.1538 18.1538 15.7692C14.9999 22.3077 10.1538 31.5384 0.230713 49.3846C7.99994 44.8461 14.0769 42.0769 19.6923 41.0769C19.4615 40 19.3076 38.923 19.3076 37.7692V37.5384C19.4615 32.5384 21.9999 28.6923 25.0769 28.923C28.1538 29.1538 30.5384 33.4615 30.4615 38.4615C30.4615 39.3846 30.3076 40.3077 30.1538 41.1538C35.6923 42.2307 41.6923 45 49.3846 49.4615C47.8461 46.6923 46.5384 44.1538 45.2307 41.7692C43.2307 40.1538 41.0769 38.1538 36.7692 35.923C39.7692 36.6923 41.923 37.6153 43.5384 38.6153C30.3846 14 29.3076 10.7692 24.8461 0.153809Z" fill="black"/>
</svg>
