<svg width="51" height="50" viewBox="0 0 51 50" fill="none" xmlns="http://www.w3.org/2000/svg">
<path d="M25.75 0.78125C39.1289 0.78125 49.9688 11.6211 49.9688 25C49.9688 38.3789 39.1289 49.2188 25.75 49.2188C12.3711 49.2188 1.53125 38.3789 1.53125 25C1.53125 11.6211 12.3711 0.78125 25.75 0.78125ZM14.4219 29.2969H25.75V36.2207C25.75 37.2656 27.0195 37.793 27.752 37.0508L38.9141 25.8301C39.373 25.3711 39.373 24.6387 38.9141 24.1797L27.752 12.9492C27.0098 12.207 25.75 12.7344 25.75 13.7793V20.7031H14.4219C13.7773 20.7031 13.25 21.2305 13.25 21.875V28.125C13.25 28.7695 13.7773 29.2969 14.4219 29.2969Z" fill="black"/>
</svg>
