<svg width="51" height="50" viewBox="0 0 51 50" fill="none" xmlns="http://www.w3.org/2000/svg">
<path d="M1.53125 25C1.53125 11.6211 12.3711 0.78125 25.75 0.78125C39.1289 0.78125 49.9688 11.6211 49.9688 25C49.9688 38.3789 39.1289 49.2188 25.75 49.2188C12.3711 49.2188 1.53125 38.3789 1.53125 25ZM30.0469 36.3281V25H36.9707C38.0156 25 38.543 23.7305 37.8008 22.998L26.5801 11.8359C26.1211 11.377 25.3887 11.377 24.9297 11.8359L13.6992 22.998C12.957 23.7402 13.4844 25 14.5293 25H21.4531V36.3281C21.4531 36.9727 21.9805 37.5 22.625 37.5H28.875C29.5195 37.5 30.0469 36.9727 30.0469 36.3281Z" fill="black"/>
</svg>
