<svg width="51" height="50" viewBox="0 0 51 50" fill="none" xmlns="http://www.w3.org/2000/svg">
<path d="M25.75 0.78125C12.3653 0.78125 1.53125 11.6132 1.53125 25C1.53125 38.3847 12.3632 49.2188 25.75 49.2188C30.4525 49.2188 35.0607 47.8379 38.9734 45.2907C40.1458 44.5275 40.4017 42.9188 39.5156 41.8364L38.5218 40.6223C37.7727 39.7071 36.4535 39.4829 35.458 40.1214C32.5781 41.9685 29.1986 42.9688 25.75 42.9688C15.842 42.9688 7.78125 34.908 7.78125 25C7.78125 15.092 15.842 7.03125 25.75 7.03125C35.5292 7.03125 43.7188 12.6581 43.7188 22.6562C43.7188 26.4439 41.6589 30.4436 38.0381 30.8294C36.3438 30.7851 36.3867 29.5738 36.7221 27.8974L39.0104 16.0702C39.2903 14.624 38.1824 13.2812 36.7095 13.2812H32.3168C31.9925 13.2812 31.6795 13.4006 31.4375 13.6166C31.1956 13.8327 31.0417 14.1302 31.0051 14.4524L31.0041 14.4614C29.5688 12.7133 27.0541 12.335 25.1476 12.335C17.8644 12.335 11.6875 18.4125 11.6875 27.126C11.6875 33.5032 15.2798 37.4648 21.0625 37.4648C23.6977 37.4648 26.6649 35.9378 28.3858 33.7214C29.3157 37.0519 32.352 37.0518 35.2911 37.0518C45.9267 37.0518 49.9688 30.0584 49.9688 22.6562C49.9688 9.34111 39.2288 0.78125 25.75 0.78125ZM23.6328 30.5107C21.4601 30.5107 20.1104 28.9851 20.1104 26.5292C20.1104 22.1354 23.1161 19.4268 25.8359 19.4268C28.0129 19.4268 29.3126 20.9151 29.3126 23.4082C29.3126 27.8087 26.0045 30.5107 23.6328 30.5107Z" fill="black"/>
</svg>
