<svg width="39" height="50" viewBox="0 0 39 50" fill="none" xmlns="http://www.w3.org/2000/svg">
<g clip-path="url(#clip0)">
<path d="M10.2344 35.413C9.3857 34.5643 9.82808 34.8036 7.7812 34.2558C6.85249 34.0067 6.03609 33.5282 5.2978 32.955L0.867136 43.8183C0.438425 44.87 1.23921 46.0126 2.37397 45.9696L7.51949 45.7733L11.0586 49.5116C11.8398 50.3358 13.2109 50.079 13.6396 49.0272L18.7226 36.5643C17.6641 37.1542 16.4892 37.4999 15.2744 37.4999C13.3701 37.4999 11.581 36.7587 10.2344 35.413ZM38.1328 43.8183L33.7022 32.955C32.9639 33.5292 32.1475 34.0067 31.2188 34.2558C29.1611 34.8065 29.6123 34.5663 28.7656 35.413C27.4189 36.7587 25.6289 37.4999 23.7246 37.4999C22.5098 37.4999 21.335 37.1532 20.2764 36.5643L25.3594 49.0272C25.7881 50.079 27.1602 50.3358 27.9404 49.5116L31.4805 45.7733L36.626 45.9696C37.7608 46.0126 38.5615 44.869 38.1328 43.8183ZM26.4336 33.203C27.9258 31.6845 28.0967 31.8153 30.2217 31.2362C31.5781 30.8661 32.6387 29.787 33.002 28.4061C33.7324 25.6327 33.543 25.9677 35.5361 23.9384C36.5293 22.9276 36.917 21.454 36.5537 20.0731C35.8242 17.3017 35.8232 17.6884 36.5537 14.914C36.917 13.5331 36.5293 12.0595 35.5361 11.0487C33.543 9.01947 33.7324 9.35345 33.002 6.58099C32.6387 5.20013 31.5781 4.12103 30.2217 3.75091C27.499 3.00775 27.8271 3.20208 25.832 1.17181C24.8389 0.161066 23.3906 -0.234442 22.0342 0.135675C19.3125 0.877863 19.6924 0.878839 16.9658 0.135675C15.6094 -0.234442 14.1611 0.160089 13.168 1.17181C11.1748 3.20111 11.5029 3.00775 8.77925 3.75091C7.42281 4.12103 6.36226 5.20013 5.99898 6.58099C5.26948 9.35345 5.45796 9.01947 3.4648 11.0487C2.47163 12.0595 2.08296 13.5331 2.44722 14.914C3.17671 17.6835 3.17769 17.2968 2.44722 20.0722C2.08393 21.453 2.47163 22.9267 3.4648 23.9384C5.45796 25.9677 5.26851 25.6327 5.99898 28.4061C6.36226 29.787 7.42281 30.8661 8.77925 31.2362C10.9648 31.8319 11.1279 31.7382 12.5664 33.203C13.8584 34.5184 15.8711 34.7538 17.4238 33.7714C18.0447 33.3772 18.765 33.1679 19.5005 33.1679C20.236 33.1679 20.9562 33.3772 21.5771 33.7714C23.1289 34.7538 25.1416 34.5184 26.4336 33.203ZM10.2871 17.1835C10.2871 12.0048 14.4121 7.80657 19.5 7.80657C24.5879 7.80657 28.7129 12.0048 28.7129 17.1835C28.7129 22.3622 24.5879 26.5604 19.5 26.5604C14.4121 26.5604 10.2871 22.3622 10.2871 17.1835Z" fill="black"/>
</g>
<defs>
<clipPath id="clip0">
<rect width="39" height="50" fill="white"/>
</clipPath>
</defs>
</svg>
