<svg width="44" height="50" viewBox="0 0 44 50" fill="none" xmlns="http://www.w3.org/2000/svg">
<path d="M35.9375 9.375H31.25V5.46875C31.25 4.17432 30.2007 3.125 28.9062 3.125H2.34375C1.04932 3.125 0 4.17432 0 5.46875V44.5312C0 45.8257 1.04932 46.875 2.34375 46.875H28.9062C30.2007 46.875 31.25 45.8257 31.25 44.5312V40.4189L39.1217 36.9056C41.9332 35.6507 43.75 32.8504 43.75 29.7715V17.1875C43.75 12.8797 40.2453 9.375 35.9375 9.375ZM37.5 29.7715C37.4998 30.0733 37.4123 30.3685 37.248 30.6217C37.0838 30.8749 36.8498 31.0751 36.5743 31.1983L31.25 33.5747V15.625H35.9375C36.799 15.625 37.5 16.326 37.5 17.1875V29.7715ZM20.3125 37.5C19.4496 37.5 18.75 36.8004 18.75 35.9375V14.0625C18.75 13.1996 19.4496 12.5 20.3125 12.5C21.1754 12.5 21.875 13.1996 21.875 14.0625V35.9375C21.875 36.8004 21.1754 37.5 20.3125 37.5ZM10.9375 37.5C10.0746 37.5 9.375 36.8004 9.375 35.9375V14.0625C9.375 13.1996 10.0746 12.5 10.9375 12.5C11.8004 12.5 12.5 13.1996 12.5 14.0625V35.9375C12.5 36.8004 11.8004 37.5 10.9375 37.5Z" fill="black"/>
</svg>
