<svg width="52" height="50" viewBox="0 0 52 50" fill="none" xmlns="http://www.w3.org/2000/svg">
<path d="M35.359 21.9017C34.8772 21.8786 34.3966 21.968 33.9553 22.1627C33.514 22.3574 33.124 22.6521 32.8162 23.0235C32.1781 23.8291 31.8049 24.8125 31.7479 25.8387H36.6571C37.2687 25.8648 37.8814 25.8415 38.4893 25.7692C38.5159 25.6104 38.5267 25.4494 38.5214 25.2885C38.533 24.4455 38.2726 23.6213 37.7788 22.938C37.2981 22.2382 36.4808 21.9017 35.359 21.9017Z" fill="black"/>
<path d="M19.0342 21.5491C19.3541 21.264 19.6072 20.9116 19.7752 20.5173C19.9433 20.123 20.0222 19.6965 20.0064 19.2682C20.0064 17.0994 18.5997 16.0167 15.7863 16.0203C14.4989 16.0203 13.5961 16.0203 13.1154 16.0897V22.4359H15.9466C17.3639 22.4359 18.3931 22.1403 19.0342 21.5491Z" fill="black"/>
<path d="M19.7981 26.5972C18.9932 25.9598 17.7699 25.641 16.1282 25.641H13.094V32.9541C13.5961 33.0021 14.4829 33.0235 15.7649 33.0235C19.2621 33.0235 21.0124 31.7771 21.016 29.2842C21.043 28.7715 20.9465 28.2598 20.7346 27.7922C20.5226 27.3246 20.2014 26.9148 19.7981 26.5972V26.5972Z" fill="black"/>
<path d="M41.5556 2.13675H9.93163C7.8915 2.13675 5.93493 2.94719 4.49234 4.38977C3.04976 5.83236 2.23932 7.78893 2.23932 9.82906V40.1709C2.23932 42.2111 3.04976 44.1676 4.49234 45.6102C5.93493 47.0528 7.8915 47.8632 9.93163 47.8632H41.5556C42.5657 47.8632 43.566 47.6643 44.4993 47.2777C45.4326 46.8911 46.2805 46.3245 46.9948 45.6102C47.7091 44.8959 48.2757 44.0479 48.6623 43.1147C49.0489 42.1814 49.2479 41.1811 49.2479 40.1709V9.82906C49.2479 8.81889 49.0489 7.81861 48.6623 6.88534C48.2757 5.95206 47.7091 5.10407 46.9948 4.38977C46.2805 3.67548 45.4326 3.10887 44.4993 2.72229C43.566 2.33572 42.5657 2.13675 41.5556 2.13675V2.13675ZM31.0855 14.0438H39.4883V16.3782H31.0855V14.0438ZM22.9071 34.4231C21.1549 35.609 18.7012 36.2019 15.5459 36.2019C12.9177 36.2019 10.7507 36.1788 9.04487 36.1325C8.88462 36.1325 8.80449 36.0096 8.80449 35.8226V13.2532C8.80449 13.0449 8.87393 12.9327 9.01282 12.906C10.9074 12.849 13.224 12.8205 15.9626 12.8205C17.3918 12.7835 18.8183 12.9636 20.1934 13.3547C21.1687 13.6114 22.0576 14.1241 22.7682 14.8397C23.2763 15.3878 23.6751 16.0278 23.9434 16.7254C24.1788 17.3853 24.2963 18.0815 24.2906 18.782C24.3353 19.9122 23.9733 21.021 23.2703 21.907C22.603 22.716 21.722 23.3212 20.7276 23.6538V23.7233C22.0062 24.0275 23.183 24.661 24.141 25.5609C24.6259 26.0413 25.0028 26.6194 25.2469 27.2567C25.491 27.8941 25.5966 28.5761 25.5566 29.2575C25.6001 30.2742 25.3788 31.2848 24.9143 32.1903C24.4499 33.0958 23.7582 33.8652 22.9071 34.4231V34.4231ZM42.5438 28.1143C42.5388 28.1863 42.508 28.2541 42.4569 28.3052C42.4058 28.3562 42.3381 28.3871 42.266 28.3921C41.0839 28.5083 39.8959 28.5547 38.7083 28.531H31.7639C31.7461 29.1536 31.8548 29.7733 32.0834 30.3527C32.3121 30.9321 32.6559 31.459 33.094 31.9017C33.9594 32.7422 35.2219 33.1624 36.8814 33.1624C38.3524 33.1943 39.8122 32.8987 41.1549 32.297C41.2938 32.2543 41.3632 32.313 41.3632 32.4733V35.0641C41.3743 35.1457 41.3604 35.2287 41.3231 35.3022C41.2859 35.3757 41.2273 35.4361 41.1549 35.4754C39.5089 36.1856 37.7279 36.5283 35.9359 36.4797C34.553 36.5101 33.178 36.2631 31.8921 35.7532C30.8358 35.3437 29.9055 34.664 29.1944 33.782C28.5587 32.9724 28.0738 32.055 27.7628 31.0737C27.4463 30.0479 27.2896 28.9795 27.2981 27.906C27.2281 25.5966 28.0052 23.3413 29.4829 21.5652C30.9466 19.8486 32.9462 18.9904 35.4818 18.9904C37.8786 18.9904 39.6752 19.7026 40.8718 21.1271C42.0722 22.5319 42.7164 24.3277 42.6827 26.1752C42.6843 26.8241 42.6379 27.4723 42.5438 28.1143V28.1143Z" fill="black"/>
</svg>
