<svg width="45" height="50" viewBox="0 0 45 50" fill="none" xmlns="http://www.w3.org/2000/svg">
<path d="M22.6243 50C26.0735 50 28.8714 47.2021 28.8714 43.75H16.3772C16.3772 47.2021 19.1751 50 22.6243 50ZM43.6585 35.3799C41.7717 33.3525 38.2415 30.3027 38.2415 20.3125C38.2415 12.7246 32.9212 6.65039 25.7473 5.16016V3.125C25.7473 1.39941 24.3489 0 22.6243 0C20.8997 0 19.5012 1.39941 19.5012 3.125V5.16016C12.3274 6.65039 7.00715 12.7246 7.00715 20.3125C7.00715 30.3027 3.47687 33.3525 1.59016 35.3799C1.00422 36.0098 0.744452 36.7627 0.749335 37.5C0.760077 39.1016 2.01691 40.625 3.8841 40.625H41.3645C43.2317 40.625 44.4895 39.1016 44.4993 37.5C44.5042 36.7627 44.2444 36.0088 43.6585 35.3799Z" fill="black"/>
</svg>
