<svg width="63" height="50" viewBox="0 0 63 50" fill="none" xmlns="http://www.w3.org/2000/svg">
<path d="M39.5625 9.375C40.4896 9.375 41.3959 9.10008 42.1668 8.58502C42.9376 8.06995 43.5384 7.33786 43.8932 6.48133C44.248 5.6248 44.3408 4.6823 44.16 3.77302C43.9791 2.86373 43.5327 2.0285 42.8771 1.37294C42.2215 0.71738 41.3863 0.270939 40.477 0.0900711C39.5677 -0.0907971 38.6252 0.002031 37.7687 0.356817C36.9122 0.711603 36.1801 1.31241 35.665 2.08327C35.15 2.85412 34.875 3.7604 34.875 4.6875C34.875 5.9307 35.3689 7.12299 36.248 8.00207C37.1271 8.88114 38.3193 9.375 39.5625 9.375ZM39.1719 21.1914C39.7261 21.6352 40.4151 21.8763 41.125 21.875H47.375C48.2038 21.875 48.9987 21.5458 49.5848 20.9597C50.1708 20.3737 50.5 19.5788 50.5 18.75C50.5 17.9212 50.1708 17.1263 49.5848 16.5403C48.9987 15.9542 48.2038 15.625 47.375 15.625H42.2207L35.2657 10.0586C34.698 9.60287 33.9889 9.36004 33.261 9.37217C32.5332 9.3843 31.8325 9.65062 31.2803 10.125L20.3428 19.5C19.9765 19.8141 19.6878 20.2088 19.4995 20.6531C19.3113 21.0975 19.2284 21.5794 19.2576 22.0611C19.2867 22.5428 19.427 23.0112 19.6675 23.4296C19.908 23.848 20.2421 24.205 20.6436 24.4727L28.625 29.7969V40.625C28.625 41.4538 28.9543 42.2487 29.5403 42.8347C30.1264 43.4208 30.9212 43.75 31.75 43.75C32.5788 43.75 33.3737 43.4208 33.9598 42.8347C34.5458 42.2487 34.875 41.4538 34.875 40.625V28.125C34.875 27.6106 34.7479 27.1042 34.5051 26.6507C34.2624 26.1973 33.9114 25.8107 33.4834 25.5254L29.4444 22.833L35.1329 17.958L39.1719 21.1914ZM50.5 25C48.0278 25 45.611 25.7331 43.5554 27.1066C41.4998 28.4802 39.8976 30.4324 38.9515 32.7165C38.0055 35.0005 37.7579 37.5139 38.2402 39.9386C38.7225 42.3634 39.9131 44.5907 41.6612 46.3388C43.4094 48.087 45.6367 49.2775 48.0614 49.7598C50.4862 50.2421 52.9995 49.9946 55.2836 49.0485C57.5677 48.1024 59.5199 46.5002 60.8934 44.4446C62.2669 42.389 63 39.9723 63 37.5C63 34.1848 61.6831 31.0054 59.3389 28.6612C56.9947 26.317 53.8153 25 50.5 25ZM50.5 43.75C49.2639 43.75 48.0555 43.3834 47.0277 42.6967C45.9999 42.0099 45.1988 41.0338 44.7258 39.8918C44.2527 38.7497 44.129 37.4931 44.3701 36.2807C44.6113 35.0683 45.2066 33.9547 46.0806 33.0806C46.9547 32.2065 48.0683 31.6113 49.2807 31.3701C50.4931 31.1289 51.7498 31.2527 52.8918 31.7258C54.0339 32.1988 55.01 32.9999 55.6967 34.0277C56.3835 35.0555 56.75 36.2639 56.75 37.5C56.75 39.1576 56.0916 40.7473 54.9195 41.9194C53.7474 43.0915 52.1576 43.75 50.5 43.75ZM13 25C10.5278 25 8.11099 25.7331 6.05538 27.1066C3.99976 28.4802 2.39761 30.4324 1.45151 32.7165C0.505416 35.0005 0.257874 37.5139 0.74019 39.9386C1.2225 42.3634 2.41301 44.5907 4.16117 46.3388C5.90933 48.087 8.13661 49.2775 10.5614 49.7598C12.9862 50.2421 15.4995 49.9946 17.7836 49.0485C20.0677 48.1024 22.0199 46.5002 23.3934 44.4446C24.7669 42.389 25.5 39.9723 25.5 37.5C25.5 34.1848 24.1831 31.0054 21.8389 28.6612C19.4947 26.317 16.3153 25 13 25ZM13 43.75C11.7639 43.75 10.5555 43.3834 9.52769 42.6967C8.49988 42.0099 7.69881 41.0338 7.22576 39.8918C6.75271 38.7497 6.62894 37.4931 6.8701 36.2807C7.11125 35.0683 7.70651 33.9547 8.58059 33.0806C9.45467 32.2065 10.5683 31.6113 11.7807 31.3701C12.9931 31.1289 14.2498 31.2527 15.3918 31.7258C16.5339 32.1988 17.51 32.9999 18.1967 34.0277C18.8835 35.0555 19.25 36.2639 19.25 37.5C19.25 39.1576 18.5916 40.7473 17.4195 41.9194C16.2474 43.0915 14.6576 43.75 13 43.75Z" fill="black"/>
</svg>
