<svg width="50" height="50" viewBox="0 0 50 50" fill="none" xmlns="http://www.w3.org/2000/svg">
<path d="M40.625 4.6875C40.625 3.82422 39.9258 3.125 39.0625 3.125H32.8125C31.9492 3.125 31.25 3.82422 31.25 4.6875V9.375H40.625V4.6875ZM6.24121 15.624C5.99609 24.7891 0.337891 26.7793 0 39.4531V43.75C0 45.4756 1.39941 46.875 3.125 46.875H12.5C14.2256 46.875 15.625 45.4756 15.625 43.75V28.125H18.75V12.5H9.35937C7.6377 12.5 6.28809 13.9033 6.24121 15.624ZM43.7588 15.624C43.7119 13.9033 42.3623 12.5 40.6406 12.5H31.25V28.125H34.375V43.75C34.375 45.4756 35.7744 46.875 37.5 46.875H46.875C48.6006 46.875 50 45.4756 50 43.75V39.4531C49.6621 26.7793 44.0039 24.7891 43.7588 15.624ZM17.1875 3.125H10.9375C10.0742 3.125 9.375 3.82422 9.375 4.6875V9.375H18.75V4.6875C18.75 3.82422 18.0508 3.125 17.1875 3.125ZM21.875 28.125H28.125V12.5H21.875V28.125Z" fill="black"/>
</svg>
