<svg width="51" height="50" viewBox="0 0 51 50" fill="none" xmlns="http://www.w3.org/2000/svg">
<path d="M2.41797 3.125C2.21277 3.12242 2.00908 3.16028 1.81852 3.23643C1.62796 3.31258 1.45427 3.42552 1.30736 3.5688C1.16045 3.71208 1.0432 3.8829 0.962318 4.07149C0.881431 4.26009 0.838486 4.46278 0.835938 4.66797C0.837584 4.7594 0.844104 4.85067 0.855469 4.94141L7.48633 45.1855C7.56838 45.6792 7.82198 46.1282 8.20247 46.4533C8.58296 46.7784 9.06595 46.9589 9.56641 46.9629H41.373C41.747 46.9679 42.1103 46.8385 42.397 46.5984C42.6837 46.3583 42.8748 46.0233 42.9355 45.6543L49.5664 4.95117C49.6313 4.54341 49.5321 4.12656 49.2905 3.7917C49.049 3.45684 48.6847 3.23119 48.2773 3.16406C48.1866 3.15235 48.0953 3.14583 48.0039 3.14453L2.41797 3.125ZM30.3379 32.207H20.1816L17.4375 17.8516H32.7988L30.3379 32.207Z" fill="black"/>
</svg>
