<svg width="52" height="50" viewBox="0 0 52 50" fill="none" xmlns="http://www.w3.org/2000/svg">
<path d="M21.7521 25.1816C21.0884 24.9935 20.4014 24.9 19.7115 24.9038H17.3184V32.1528C17.938 32.2009 18.5203 32.1528 19.2949 32.1528C22.0299 32.1528 24.3109 31.1218 24.3109 28.4776C24.3109 26.8376 23.4722 25.6998 21.7521 25.1816Z" fill="black"/>
<path d="M22.1581 21.7415C22.5966 21.3692 22.9432 20.9008 23.1712 20.3727C23.3991 19.8446 23.5021 19.271 23.4722 18.6966C23.4722 16.5598 21.9444 15.4915 19.4872 15.4915C18.6485 15.4915 17.8525 15.5342 17.3184 15.5556V21.6987H19.4231C20.3347 21.6516 21.2484 21.6659 22.1581 21.7415V21.7415Z" fill="black"/>
<path d="M41.8376 2.13675H10.2137C8.17354 2.13675 6.21697 2.94719 4.77439 4.38977C3.3318 5.83236 2.52136 7.78893 2.52136 9.82906V40.1709C2.52136 42.2111 3.3318 44.1676 4.77439 45.6102C6.21697 47.0528 8.17354 47.8632 10.2137 47.8632H41.8376C42.8478 47.8632 43.848 47.6643 44.7813 47.2777C45.7146 46.8911 46.5626 46.3245 47.2769 45.6102C47.9912 44.8959 48.5578 44.0479 48.9444 43.1147C49.3309 42.1814 49.5299 41.1811 49.5299 40.1709V9.82906C49.5299 8.81889 49.3309 7.81861 48.9444 6.88534C48.5578 5.95206 47.9912 5.10407 47.2769 4.38977C46.5626 3.67548 45.7146 3.10887 44.7813 2.72229C43.848 2.33572 42.8478 2.13675 41.8376 2.13675V2.13675ZM19.3376 35.4487C17.0566 35.4487 14.9893 35.406 13.8942 35.3846C13.8257 35.3778 13.7626 35.3443 13.7186 35.2913C13.6746 35.2383 13.6532 35.1701 13.6592 35.1015V12.5694C13.6592 12.3985 13.7019 12.3344 13.8301 12.2917C14.797 12.2489 17.4893 12.1848 19.5994 12.1848C26.0096 12.1848 27.1528 15.9241 27.1528 18.1891C27.1863 19.0925 27.011 19.9915 26.6404 20.8161C26.2698 21.6407 25.7139 22.3687 25.016 22.9434C26.3034 23.5684 28.2211 25.1603 28.2211 28.4562C28.1624 32.8205 24.6741 35.4915 19.3376 35.4487ZM39.4605 21.266C39.4605 21.437 39.4605 21.4797 39.2895 21.4797C37.97 21.4045 36.6471 21.5471 35.3739 21.9017V35.2564C35.3739 35.4273 35.3098 35.4915 35.1335 35.4915H31.7575C31.5865 35.4915 31.5171 35.4273 31.5171 35.2564V21.7842C31.5171 21.5438 31.5171 20.9188 31.4103 19.7382C31.4103 19.5673 31.4744 19.5246 31.6079 19.4605C34.0371 18.514 36.6184 18.018 39.2254 17.9968C39.3964 17.9968 39.4605 18.0395 39.4605 18.2105V21.266Z" fill="black"/>
</svg>
