<svg width="45" height="50" viewBox="0 0 45 50" fill="none" xmlns="http://www.w3.org/2000/svg">
<g clip-path="url(#clip0)">
<path d="M0.5 45.3125C0.5 47.9004 2.59961 50 5.1875 50H39.5625C42.1504 50 44.25 47.9004 44.25 45.3125V18.75H0.5V45.3125ZM6.75 26.5625C6.75 25.7031 7.45312 25 8.3125 25H17.6875C18.5469 25 19.25 25.7031 19.25 26.5625V35.9375C19.25 36.7969 18.5469 37.5 17.6875 37.5H8.3125C7.45312 37.5 6.75 36.7969 6.75 35.9375V26.5625ZM39.5625 6.25H34.875V1.5625C34.875 0.703125 34.1719 0 33.3125 0H30.1875C29.3281 0 28.625 0.703125 28.625 1.5625V6.25H16.125V1.5625C16.125 0.703125 15.4219 0 14.5625 0H11.4375C10.5781 0 9.875 0.703125 9.875 1.5625V6.25H5.1875C2.59961 6.25 0.5 8.34961 0.5 10.9375V15.625H44.25V10.9375C44.25 8.34961 42.1504 6.25 39.5625 6.25Z" fill="black"/>
</g>
<defs>
<clipPath id="clip0">
<rect width="43.75" height="50" fill="white" transform="translate(0.5)"/>
</clipPath>
</defs>
</svg>
