<svg width="63" height="50" viewBox="0 0 63 50" fill="none" xmlns="http://www.w3.org/2000/svg">
<path d="M53.125 18.75H51.5625L40.9395 5.4707C40.3538 4.73885 39.611 4.14806 38.7661 3.74202C37.9213 3.33599 36.996 3.12512 36.0586 3.125H15.1689C12.6133 3.125 10.3154 4.68066 9.36621 7.05371L4.6875 18.9707C1.99609 19.668 0 22.0908 0 25V35.9375C0 36.8008 0.699219 37.5 1.5625 37.5H6.25C6.25 42.6777 10.4473 46.875 15.625 46.875C20.8027 46.875 25 42.6777 25 37.5H37.5C37.5 42.6777 41.6973 46.875 46.875 46.875C52.0527 46.875 56.25 42.6777 56.25 37.5H60.9375C61.8008 37.5 62.5 36.8008 62.5 35.9375V28.125C62.5 22.9473 58.3027 18.75 53.125 18.75ZM15.625 42.1875C13.04 42.1875 10.9375 40.085 10.9375 37.5C10.9375 34.915 13.04 32.8125 15.625 32.8125C18.21 32.8125 20.3125 34.915 20.3125 37.5C20.3125 40.085 18.21 42.1875 15.625 42.1875ZM22.6562 18.75H11.4189L15.1689 9.375H22.6562V18.75ZM27.3438 18.75V9.375H36.0586L43.5586 18.75H27.3438ZM46.875 42.1875C44.29 42.1875 42.1875 40.085 42.1875 37.5C42.1875 34.915 44.29 32.8125 46.875 32.8125C49.46 32.8125 51.5625 34.915 51.5625 37.5C51.5625 40.085 49.46 42.1875 46.875 42.1875Z" fill="black"/>
</svg>
