<svg width="50" height="50" viewBox="0 0 50 50" fill="none" xmlns="http://www.w3.org/2000/svg">
<g clip-path="url(#clip0)">
<path d="M44.7873 24.9918L49.2781 20.5968C50.6167 19.3295 49.9925 17.0774 48.2366 16.6574L42.1185 15.0959L43.8432 9.03975C44.3306 7.29776 42.688 5.65469 40.9466 6.14219L34.8925 7.86749L33.3316 1.74727C32.9185 0.0188545 30.6411 -0.613275 29.3936 0.705476L25 5.23106L20.6066 0.705573C19.3732 -0.598235 17.0864 -0.000872232 16.6686 1.74737L15.1076 7.86759L9.05344 6.14229C7.31155 5.6546 5.66956 7.29825 6.15686 9.03985L7.88157 15.096L1.76341 16.6575C0.00676547 17.0775 -0.616183 19.3301 0.721902 20.5968L5.21262 24.9918L0.721902 29.3867C-0.616769 30.654 0.00744925 32.9062 1.76331 33.3261L7.88147 34.8876L6.15677 40.9438C5.66936 42.6858 7.31194 44.3288 9.05335 43.8413L15.1074 42.116L16.6684 48.2362C17.1019 50.0502 19.3731 50.5817 20.6064 49.278L25 44.7858L29.3935 49.278C30.6142 50.5952 32.9078 50.0091 33.3315 48.2362L34.8924 42.116L40.9465 43.8413C42.6883 44.329 44.3304 42.6854 43.8431 40.9438L42.1184 34.8876L48.2365 33.3261C49.9931 32.906 50.616 30.6535 49.278 29.3867L44.7873 24.9918V24.9918Z" fill="black"/>
</g>
<defs>
<clipPath id="clip0">
<rect width="50" height="50" fill="white"/>
</clipPath>
</defs>
</svg>
