<svg width="50" height="50" viewBox="0 0 50 50" fill="none" xmlns="http://www.w3.org/2000/svg">
<path d="M7.22656 20.3125H6.25C5.8356 20.3125 5.43817 20.4771 5.14515 20.7701C4.85212 21.0632 4.6875 21.4606 4.6875 21.875V23.4375C4.6875 23.8519 4.85212 24.2493 5.14515 24.5424C5.43817 24.8354 5.8356 25 6.25 25H7.80664C7.79305 29.2142 7.27038 33.4112 6.25 37.5H18.75C17.7296 33.4112 17.207 29.2142 17.1934 25H18.75C19.1644 25 19.5618 24.8354 19.8549 24.5424C20.1479 24.2493 20.3125 23.8519 20.3125 23.4375V21.875C20.3125 21.4606 20.1479 21.0632 19.8549 20.7701C19.5618 20.4771 19.1644 20.3125 18.75 20.3125H17.7734L21.083 11.4863C21.1718 11.2498 21.2018 10.9952 21.1706 10.7445C21.1394 10.4938 21.0479 10.2544 20.9038 10.0468C20.7598 9.83923 20.5676 9.66967 20.3437 9.55266C20.1198 9.43565 19.8708 9.37469 19.6182 9.375H14.0625V6.25H16.4062C16.6135 6.25 16.8122 6.16769 16.9587 6.02118C17.1052 5.87466 17.1875 5.67595 17.1875 5.46875V3.90625C17.1875 3.69905 17.1052 3.50034 16.9587 3.35382C16.8122 3.20731 16.6135 3.125 16.4062 3.125H14.0625V0.78125C14.0625 0.57405 13.9802 0.375336 13.8337 0.228823C13.6872 0.08231 13.4885 0 13.2812 0H11.7188C11.5115 0 11.3128 0.08231 11.1663 0.228823C11.0198 0.375336 10.9375 0.57405 10.9375 0.78125V3.125H8.59375C8.38655 3.125 8.18784 3.20731 8.04132 3.35382C7.89481 3.50034 7.8125 3.69905 7.8125 3.90625V5.46875C7.8125 5.67595 7.89481 5.87466 8.04132 6.02118C8.18784 6.16769 8.38655 6.25 8.59375 6.25H10.9375V9.375H5.37988C5.12723 9.37469 4.87828 9.43565 4.65435 9.55266C4.43043 9.66967 4.23822 9.83923 4.0942 10.0468C3.95018 10.2544 3.85865 10.4938 3.82744 10.7445C3.79624 10.9952 3.8263 11.2498 3.91504 11.4863L7.22656 20.3125ZM24.1367 44.8809L21.875 43.75V42.1875C21.875 41.7731 21.7104 41.3757 21.4174 41.0826C21.1243 40.7896 20.7269 40.625 20.3125 40.625H4.6875C4.2731 40.625 3.87567 40.7896 3.58265 41.0826C3.28962 41.3757 3.125 41.7731 3.125 42.1875V43.75L0.864258 44.8809C0.604631 45.0105 0.386255 45.21 0.233605 45.4568C0.0809546 45.7036 6.426e-05 45.9881 0 46.2783V48.4375C0 48.8519 0.16462 49.2493 0.457646 49.5424C0.750671 49.8354 1.1481 50 1.5625 50H23.4375C23.8519 50 24.2493 49.8354 24.5424 49.5424C24.8354 49.2493 25 48.8519 25 48.4375V46.2783C25 45.9882 24.9193 45.7038 24.7668 45.457C24.6143 45.2102 24.3962 45.0107 24.1367 44.8809ZM33.1963 29.4727L32.875 37.5H45.25L44.9287 29.4717L47.3311 27.4414C47.6781 27.1477 47.957 26.7818 48.1481 26.3693C48.3392 25.9567 48.4379 25.5074 48.4375 25.0527V19.3359C48.4375 19.1805 48.3758 19.0315 48.2659 18.9216C48.156 18.8117 48.007 18.75 47.8516 18.75H45.2754C45.12 18.75 44.971 18.8117 44.8611 18.9216C44.7512 19.0315 44.6895 19.1805 44.6895 19.3359V21.875H42.2764V19.3359C42.2764 19.1805 42.2146 19.0315 42.1048 18.9216C41.9949 18.8117 41.8458 18.75 41.6904 18.75H36.4355C36.2801 18.75 36.1311 18.8117 36.0212 18.9216C35.9113 19.0315 35.8496 19.1805 35.8496 19.3359V21.875H33.4365V19.3359C33.4365 19.1805 33.3748 19.0315 33.2649 18.9216C33.155 18.8117 33.006 18.75 32.8506 18.75H30.2734C30.118 18.75 29.969 18.8117 29.8591 18.9216C29.7492 19.0315 29.6875 19.1805 29.6875 19.3359V25.0586C29.6883 25.5125 29.7879 25.9608 29.9795 26.3723C30.1711 26.7838 30.45 27.1486 30.7969 27.4414L33.1963 29.4727ZM37.5 29.6875C37.5 29.2731 37.6646 28.8757 37.9576 28.5826C38.2507 28.2896 38.6481 28.125 39.0625 28.125C39.4769 28.125 39.8743 28.2896 40.1674 28.5826C40.4604 28.8757 40.625 29.2731 40.625 29.6875V32.8125H37.5V29.6875ZM49.1367 44.8809L46.875 43.75V42.1875C46.875 41.7731 46.7104 41.3757 46.4174 41.0826C46.1243 40.7896 45.7269 40.625 45.3125 40.625H32.8125C32.3981 40.625 32.0007 40.7896 31.7076 41.0826C31.4146 41.3757 31.25 41.7731 31.25 42.1875V43.75L28.9893 44.8809C28.7296 45.0105 28.5113 45.21 28.3586 45.4568C28.206 45.7036 28.1251 45.9881 28.125 46.2783V48.4375C28.125 48.8519 28.2896 49.2493 28.5826 49.5424C28.8757 49.8354 29.2731 50 29.6875 50H48.4375C48.8519 50 49.2493 49.8354 49.5424 49.5424C49.8354 49.2493 50 48.8519 50 48.4375V46.2783C50 45.9882 49.9193 45.7038 49.7668 45.457C49.6143 45.2102 49.3962 45.0107 49.1367 44.8809Z" fill="black"/>
</svg>
