<svg width="50" height="50" viewBox="0 0 50 50" fill="none" xmlns="http://www.w3.org/2000/svg">
<path d="M0.78125 25C0.78125 11.6211 11.6211 0.78125 25 0.78125C38.3789 0.78125 49.2188 11.6211 49.2188 25C49.2188 38.3789 38.3789 49.2188 25 49.2188C11.6211 49.2188 0.78125 38.3789 0.78125 25ZM23.3398 13.877L10.1074 27.1094C9.18945 28.0273 9.18945 29.5117 10.1074 30.4199L11.7676 32.0801C12.6855 32.998 14.1699 32.998 15.0781 32.0801L25 22.1582L34.9219 32.0801C35.8398 32.998 37.3242 32.998 38.2324 32.0801L39.8926 30.4199C40.8105 29.502 40.8105 28.0176 39.8926 27.1094L26.6602 13.877C25.7422 12.959 24.2578 12.959 23.3398 13.877Z" fill="black"/>
</svg>
