<svg width="50" height="50" viewBox="0 0 50 50" fill="none" xmlns="http://www.w3.org/2000/svg">
<path d="M25 0.78125C38.3789 0.78125 49.2188 11.6211 49.2188 25C49.2188 38.3789 38.3789 49.2188 25 49.2188C11.6211 49.2188 0.78125 38.3789 0.78125 25C0.78125 11.6211 11.6211 0.78125 25 0.78125ZM36.123 23.3398L22.8906 10.1074C21.9727 9.18945 20.4883 9.18945 19.5801 10.1074L17.9199 11.7676C17.002 12.6855 17.002 14.1699 17.9199 15.0781L27.8418 25L17.9199 34.9219C17.002 35.8398 17.002 37.3242 17.9199 38.2324L19.5801 39.8926C20.498 40.8105 21.9824 40.8105 22.8906 39.8926L36.123 26.6602C37.041 25.7422 37.041 24.2578 36.123 23.3398Z" fill="black"/>
</svg>
