<svg width="38" height="50" viewBox="0 0 38 50" fill="none" xmlns="http://www.w3.org/2000/svg">
<path d="M32.8125 6.25H25C25 2.80273 22.1973 0 18.75 0C15.3027 0 12.5 2.80273 12.5 6.25H4.6875C2.09961 6.25 0 8.34961 0 10.9375V45.3125C0 47.9004 2.09961 50 4.6875 50H32.8125C35.4004 50 37.5 47.9004 37.5 45.3125V10.9375C37.5 8.34961 35.4004 6.25 32.8125 6.25ZM9.375 41.4062C8.07617 41.4062 7.03125 40.3613 7.03125 39.0625C7.03125 37.7637 8.07617 36.7188 9.375 36.7188C10.6738 36.7188 11.7188 37.7637 11.7188 39.0625C11.7188 40.3613 10.6738 41.4062 9.375 41.4062ZM9.375 32.0312C8.07617 32.0312 7.03125 30.9863 7.03125 29.6875C7.03125 28.3887 8.07617 27.3438 9.375 27.3438C10.6738 27.3438 11.7188 28.3887 11.7188 29.6875C11.7188 30.9863 10.6738 32.0312 9.375 32.0312ZM9.375 22.6562C8.07617 22.6562 7.03125 21.6113 7.03125 20.3125C7.03125 19.0137 8.07617 17.9688 9.375 17.9688C10.6738 17.9688 11.7188 19.0137 11.7188 20.3125C11.7188 21.6113 10.6738 22.6562 9.375 22.6562ZM18.75 3.90625C20.0488 3.90625 21.0938 4.95117 21.0938 6.25C21.0938 7.54883 20.0488 8.59375 18.75 8.59375C17.4512 8.59375 16.4062 7.54883 16.4062 6.25C16.4062 4.95117 17.4512 3.90625 18.75 3.90625ZM31.25 39.8438C31.25 40.2734 30.8984 40.625 30.4688 40.625H16.4062C15.9766 40.625 15.625 40.2734 15.625 39.8438V38.2812C15.625 37.8516 15.9766 37.5 16.4062 37.5H30.4688C30.8984 37.5 31.25 37.8516 31.25 38.2812V39.8438ZM31.25 30.4688C31.25 30.8984 30.8984 31.25 30.4688 31.25H16.4062C15.9766 31.25 15.625 30.8984 15.625 30.4688V28.9062C15.625 28.4766 15.9766 28.125 16.4062 28.125H30.4688C30.8984 28.125 31.25 28.4766 31.25 28.9062V30.4688ZM31.25 21.0938C31.25 21.5234 30.8984 21.875 30.4688 21.875H16.4062C15.9766 21.875 15.625 21.5234 15.625 21.0938V19.5312C15.625 19.1016 15.9766 18.75 16.4062 18.75H30.4688C30.8984 18.75 31.25 19.1016 31.25 19.5312V21.0938Z" fill="black"/>
</svg>
