<svg width="38" height="50" viewBox="0 0 38 50" fill="none" xmlns="http://www.w3.org/2000/svg">
<path d="M38 10.9375V45.3125C38 47.9014 35.9014 50 33.3125 50H5.1875C2.59863 50 0.5 47.9014 0.5 45.3125V10.9375C0.5 8.34863 2.59863 6.25 5.1875 6.25H13C13 2.80371 15.8037 0 19.25 0C22.6963 0 25.5 2.80371 25.5 6.25H33.3125C35.9014 6.25 38 8.34863 38 10.9375ZM19.25 3.90625C17.9556 3.90625 16.9062 4.95557 16.9062 6.25C16.9062 7.54443 17.9556 8.59375 19.25 8.59375C20.5444 8.59375 21.5938 7.54443 21.5938 6.25C21.5938 4.95557 20.5444 3.90625 19.25 3.90625ZM28.625 15.0391V13.0859C28.625 12.9305 28.5633 12.7815 28.4534 12.6716C28.3435 12.5617 28.1945 12.5 28.0391 12.5H10.4609C10.3055 12.5 10.1565 12.5617 10.0466 12.6716C9.93673 12.7815 9.875 12.9305 9.875 13.0859V15.0391C9.875 15.1945 9.93673 15.3435 10.0466 15.4534C10.1565 15.5633 10.3055 15.625 10.4609 15.625H28.0391C28.1945 15.625 28.3435 15.5633 28.4534 15.4534C28.5633 15.3435 28.625 15.1945 28.625 15.0391Z" fill="black"/>
</svg>
