<svg width="51" height="50" viewBox="0 0 51 50" fill="none" xmlns="http://www.w3.org/2000/svg">
<path d="M18.459 36.1426C17.7168 35.7129 16.7598 35.9668 16.3301 36.7285L10.0801 47.666C9.65037 48.418 9.91404 49.375 10.666 49.7949C10.9102 49.9316 11.1738 50 11.4375 50C11.9746 50 12.502 49.7168 12.7949 49.209L19.0449 38.2715C19.4746 37.5293 19.2109 36.5723 18.459 36.1426ZM27.834 36.1426C27.0918 35.7129 26.1348 35.9668 25.7051 36.7285L19.4551 47.666C19.0254 48.418 19.2891 49.375 20.041 49.7949C20.2852 49.9316 20.5488 50 20.8125 50C21.3496 50 21.877 49.7168 22.1699 49.209L28.4199 38.2715C28.8496 37.5293 28.5859 36.5723 27.834 36.1426ZM9.08396 36.1426C8.34177 35.7129 7.38474 35.9668 6.95506 36.7285L0.705057 47.666C0.27537 48.418 0.539042 49.375 1.29099 49.7949C1.53514 49.9316 1.79881 50 2.06248 50C2.59959 50 3.12693 49.7168 3.4199 49.209L9.6699 38.2715C10.0996 37.5293 9.83591 36.5723 9.08396 36.1426ZM46.584 36.1426C45.8418 35.7129 44.8848 35.9668 44.4551 36.7285L38.2051 47.666C37.7754 48.418 38.0391 49.375 38.791 49.7949C39.0352 49.9316 39.2988 50 39.5625 50C40.0996 50 40.6269 49.7168 40.9199 49.209L47.1699 38.2715C47.5996 37.5293 47.3359 36.5723 46.584 36.1426ZM37.209 36.1426C36.4668 35.7129 35.5098 35.9668 35.0801 36.7285L28.8301 47.666C28.4004 48.418 28.6641 49.375 29.416 49.7949C29.6602 49.9316 29.9238 50 30.1875 50C30.7246 50 31.252 49.7168 31.5449 49.209L37.7949 38.2715C38.2246 37.5293 37.9609 36.5723 37.209 36.1426ZM41.125 12.5C41.0664 12.5 41.0176 12.5195 40.9687 12.5195C41.0762 12.0117 41.125 11.4844 41.125 10.9375C41.125 6.62109 37.6289 3.125 33.3125 3.125C30.9102 3.125 28.791 4.22852 27.3555 5.9375C25.5391 2.42187 21.916 0 17.6875 0C11.6523 0 6.74998 4.89258 6.74998 10.9375C6.74998 11.6504 6.8281 12.334 6.95506 13.0078C3.21482 14.2383 0.499979 17.7246 0.499979 21.875C0.499979 27.0508 4.6992 31.25 9.87498 31.25H41.125C46.3008 31.25 50.5 27.0508 50.5 21.875C50.5 16.6992 46.3008 12.5 41.125 12.5Z" fill="black"/>
</svg>
