<svg width="64" height="50" viewBox="0 0 64 50" fill="none" xmlns="http://www.w3.org/2000/svg">
<g clip-path="url(#clip0)">
<path d="M56.9219 31.8066C56.9414 31.6211 57 31.4453 57 31.2598C57 27.8125 54.1973 25.0098 50.75 25.0098C49.5195 25.0098 48.3867 25.3809 47.4199 25.9863C45.7012 22.1973 41.9023 19.541 37.4688 19.541C31.4336 19.541 26.5312 24.4336 26.5312 30.4785C26.5312 30.7715 26.5996 31.0449 26.6191 31.3281C21.7754 31.6895 17.9375 35.6934 17.9375 40.6348C17.9375 45.8105 22.1367 50.0098 27.3125 50.0098H53.875C59.0508 50.0098 63.25 45.8105 63.25 40.6348C63.25 36.5234 60.5938 33.0762 56.9219 31.8066ZM14.8906 29.5996C10.623 25.332 10.623 18.3984 14.8906 14.1406C19.1582 9.87305 26.0918 9.87305 30.3594 14.1406C31.3066 15.0879 32.0098 16.1816 32.5371 17.334C33.4941 16.9727 34.5 16.748 35.5352 16.6016L38.4453 7.91992C38.8359 6.75781 37.7324 5.66406 36.5703 6.04492L27.9961 8.90625L23.9434 0.820312C23.4062 -0.273438 21.8437 -0.273438 21.2969 0.820312L17.2539 8.90625L8.66992 6.04492C7.51758 5.66406 6.41406 6.76758 6.79492 7.91992L9.65625 16.4941L1.57031 20.5469C0.476563 21.0937 0.476563 22.6465 1.57031 23.1934L9.65625 27.2363L6.79492 35.8105C6.4043 36.9727 7.50781 38.0664 8.66992 37.6855L16.1016 35.2148C16.6973 34.0039 17.4688 32.9004 18.4063 31.9434C17.127 31.416 15.9258 30.6348 14.8906 29.5996ZM14.4219 21.8652C14.4219 25.8496 17.2832 29.1699 21.0527 29.9023C21.834 29.4434 22.6445 29.043 23.5137 28.7598C24.041 24.4336 26.541 20.7031 30.0957 18.5059C28.8066 15.6641 25.9453 13.6719 22.625 13.6719C18.1035 13.6719 14.4219 17.3437 14.4219 21.8652Z" fill="black"/>
</g>
<defs>
<clipPath id="clip0">
<rect width="64" height="50" fill="white"/>
</clipPath>
</defs>
</svg>
