<svg width="64" height="50" viewBox="0 0 64 50" fill="none" xmlns="http://www.w3.org/2000/svg">
<g clip-path="url(#clip0)">
<path d="M27.9863 49.9512L22.0293 48.2227C21.4043 48.0469 21.0527 47.3926 21.2285 46.7676L34.5586 0.849641C34.7344 0.224641 35.3887 -0.126921 36.0137 0.0488599L41.9707 1.77738C42.5957 1.95316 42.9473 2.60745 42.7715 3.23245L29.4414 49.1504C29.2559 49.7754 28.6113 50.1368 27.9863 49.9512V49.9512ZM16.8535 38.9942L21.1016 34.4629C21.5508 33.9844 21.5215 33.2227 21.0234 32.7832L12.1758 25L21.0234 17.2168C21.5215 16.7774 21.5605 16.0157 21.1016 15.5371L16.8535 11.0059C16.4141 10.5371 15.6719 10.5078 15.1934 10.9571L1.12109 24.1407C0.623047 24.5996 0.623047 25.3907 1.12109 25.8496L15.1934 39.043C15.6719 39.4922 16.4141 39.4727 16.8535 38.9942V38.9942ZM48.8066 39.0528L62.8789 25.8594C63.377 25.4004 63.377 24.6094 62.8789 24.1504L48.8066 10.9473C48.3379 10.5078 47.5957 10.5274 47.1465 10.9961L42.8984 15.5274C42.4492 16.0059 42.4785 16.7676 42.9766 17.2071L51.8242 25L42.9766 32.7832C42.4785 33.2227 42.4394 33.9844 42.8984 34.4629L47.1465 38.9942C47.5859 39.4727 48.3281 39.4922 48.8066 39.0528V39.0528Z" fill="black"/>
</g>
<defs>
<clipPath id="clip0">
<rect width="62.5" height="50" fill="white" transform="translate(0.75)"/>
</clipPath>
</defs>
</svg>
