<svg width="57" height="50" viewBox="0 0 57 50" fill="none" xmlns="http://www.w3.org/2000/svg">
<path d="M0 42.1875C0 44.7754 2.09961 46.875 4.6875 46.875H51.5625C54.1504 46.875 56.25 44.7754 56.25 42.1875V25H0V42.1875ZM18.75 35.5469C18.75 34.9023 19.2773 34.375 19.9219 34.375H33.2031C33.8477 34.375 34.375 34.9023 34.375 35.5469V39.4531C34.375 40.0977 33.8477 40.625 33.2031 40.625H19.9219C19.2773 40.625 18.75 40.0977 18.75 39.4531V35.5469ZM6.25 35.5469C6.25 34.9023 6.77734 34.375 7.42188 34.375H14.4531C15.0977 34.375 15.625 34.9023 15.625 35.5469V39.4531C15.625 40.0977 15.0977 40.625 14.4531 40.625H7.42188C6.77734 40.625 6.25 40.0977 6.25 39.4531V35.5469ZM56.25 7.8125V12.5H0V7.8125C0 5.22461 2.09961 3.125 4.6875 3.125H51.5625C54.1504 3.125 56.25 5.22461 56.25 7.8125Z" fill="black"/>
</svg>
