<svg width="44" height="50" viewBox="0 0 44 50" fill="none" xmlns="http://www.w3.org/2000/svg">
<path d="M44 7.14287V11.6071C44 15.5413 34.2019 18.75 22.125 18.75C10.0481 18.75 0.25 15.5413 0.25 11.6071V7.14287C0.25 3.20869 10.0481 0 22.125 0C34.2019 0 44 3.20869 44 7.14287ZM44 17.1875V27.2321C44 31.1663 34.2019 34.375 22.125 34.375C10.0481 34.375 0.25 31.1663 0.25 27.2321V17.1875C4.94971 20.4241 13.5516 21.9309 22.125 21.9309C30.6984 21.9309 39.3002 20.4241 44 17.1875ZM44 32.8125V42.8571C44 46.7913 34.2019 50 22.125 50C10.0481 50 0.25 46.7913 0.25 42.8571V32.8125C4.94971 36.0491 13.5516 37.5559 22.125 37.5559C30.6984 37.5559 39.3002 36.0491 44 32.8125Z" fill="black"/>
</svg>
