<svg width="51" height="50" viewBox="0 0 51 50" fill="none" xmlns="http://www.w3.org/2000/svg">
<path d="M9.24609 47.0508H16.4434V39.8633H9.24609V47.0508ZM3.23047 33.8476V39.8633H9.24609V33.8476H3.23047ZM48.7578 17.2754C46.5117 10.0293 40.7109 4.2578 33.4648 1.98241C16.8535 -3.20314 1.53125 9.15037 1.53125 24.9902H10.8867C10.8867 15.0488 20.75 7.36327 31.209 11.1523C35.0859 12.5488 38.1914 15.6543 39.5879 19.5215C43.4063 29.9707 35.7109 39.8144 25.7793 39.834V39.8633H25.75V49.2187C41.6289 49.2187 53.9531 33.9062 48.7578 17.2754V17.2754ZM25.7793 39.834V30.5273H16.4434V39.8633H25.75V39.834H25.7793Z" fill="black"/>
</svg>
