<svg width="63" height="50" viewBox="0 0 63 50" fill="none" xmlns="http://www.w3.org/2000/svg">
<g clip-path="url(#clip0)">
<path d="M34.67 23.0762H28.2149V17.2754H34.67V23.0762ZM34.67 3.125H28.2149V9.05273H34.67V3.125ZM42.3067 17.2656H35.8517V23.0664H42.3067V17.2656V17.2656ZM27.0431 10.2246H20.588V16.0938H27.0431V10.2246ZM34.67 10.2246H28.2149V16.0938H34.67V10.2246ZM61.7013 19.9902C60.295 19.043 57.0528 18.7012 54.5626 19.1699C54.2403 16.8262 52.9317 14.7852 50.5489 12.9492L49.1817 12.041L48.2735 13.4082C46.4767 16.123 45.9884 20.5957 47.9122 23.5449C47.0626 24.0039 45.3927 24.6289 43.1857 24.5898H0.734481C-0.115128 29.5508 1.30089 35.9961 5.03136 40.4199C8.6544 44.707 14.0841 46.8848 21.1837 46.8848C36.5548 46.8848 47.9317 39.8047 53.254 26.9434C55.3439 26.9824 59.8556 26.9531 62.17 22.5293C62.3165 22.2852 62.8146 21.2402 63.0001 20.8594L61.7013 19.9902V19.9902ZM11.7892 17.2656H5.34386V23.0664H11.7989V17.2656H11.7892ZM19.4161 17.2656H12.961V23.0664H19.4161V17.2656ZM27.0431 17.2656H20.588V23.0664H27.0431V17.2656ZM19.4161 10.2246H12.961V16.0938H19.4161V10.2246Z" fill="black"/>
</g>
<defs>
<clipPath id="clip0">
<rect width="62.5" height="50" fill="white" transform="translate(0.5)"/>
</clipPath>
</defs>
</svg>
