<svg width="50" height="50" viewBox="0 0 50 50" fill="none" xmlns="http://www.w3.org/2000/svg">
<path d="M21.0938 0H28.9062C30.2051 0 31.25 1.04492 31.25 2.34375V18.75H39.8145C41.5527 18.75 42.4219 20.8496 41.1914 22.0801L26.3379 36.9434C25.6055 37.6758 24.4043 37.6758 23.6719 36.9434L8.79883 22.0801C7.56836 20.8496 8.4375 18.75 10.1758 18.75H18.75V2.34375C18.75 1.04492 19.7949 0 21.0938 0ZM50 36.7188V47.6562C50 48.9551 48.9551 50 47.6562 50H2.34375C1.04492 50 0 48.9551 0 47.6562V36.7188C0 35.4199 1.04492 34.375 2.34375 34.375H16.6699L21.4551 39.1602C23.418 41.123 26.582 41.123 28.5449 39.1602L33.3301 34.375H47.6562C48.9551 34.375 50 35.4199 50 36.7188ZM37.8906 45.3125C37.8906 44.2383 37.0117 43.3594 35.9375 43.3594C34.8633 43.3594 33.9844 44.2383 33.9844 45.3125C33.9844 46.3867 34.8633 47.2656 35.9375 47.2656C37.0117 47.2656 37.8906 46.3867 37.8906 45.3125ZM44.1406 45.3125C44.1406 44.2383 43.2617 43.3594 42.1875 43.3594C41.1133 43.3594 40.2344 44.2383 40.2344 45.3125C40.2344 46.3867 41.1133 47.2656 42.1875 47.2656C43.2617 47.2656 44.1406 46.3867 44.1406 45.3125Z" fill="black"/>
</svg>
