<svg width="57" height="50" viewBox="0 0 57 50" fill="none" xmlns="http://www.w3.org/2000/svg">
<path d="M39.8164 8.12499L48.625 16.9336C48.9961 17.3047 48.9961 17.9102 48.625 18.2813L27.2969 39.6094L18.2344 40.6152C17.0234 40.752 15.998 39.7266 16.1348 38.5156L17.1406 29.4531L38.4687 8.12499C38.8398 7.7539 39.4453 7.7539 39.8164 8.12499ZM55.6367 5.88867L50.8711 1.12305C49.3867 -0.361329 46.9746 -0.361329 45.4805 1.12305L42.0234 4.58007C41.6523 4.95117 41.6523 5.55664 42.0234 5.92773L50.832 14.7364C51.2031 15.1075 51.8086 15.1075 52.1797 14.7364L55.6367 11.2793C57.1211 9.78515 57.1211 7.37304 55.6367 5.88867ZM38 33.8086V43.75H6.75V12.5H29.1914C29.5039 12.5 29.7969 12.3731 30.0215 12.1582L33.9277 8.25195C34.6699 7.50976 34.1426 6.25 33.0977 6.25H5.1875C2.59961 6.25 0.5 8.3496 0.5 10.9375V45.3125C0.5 47.9004 2.59961 50 5.1875 50H39.5625C42.1504 50 44.25 47.9004 44.25 45.3125V29.9024C44.25 28.8574 42.9902 28.3399 42.248 29.0723L38.3418 32.9785C38.127 33.2031 38 33.4961 38 33.8086Z" fill="black"/>
</svg>
