<svg width="51" height="50" viewBox="0 0 51 50" fill="none" xmlns="http://www.w3.org/2000/svg">
<path d="M32.7812 25C32.7812 28.8867 29.6367 32.0312 25.75 32.0312C21.8633 32.0312 18.7188 28.8867 18.7188 25C18.7188 21.1133 21.8633 17.9688 25.75 17.9688C29.6367 17.9688 32.7812 21.1133 32.7812 25ZM42.9375 17.9688C39.0508 17.9688 35.9062 21.1133 35.9062 25C35.9062 28.8867 39.0508 32.0312 42.9375 32.0312C46.8242 32.0312 49.9688 28.8867 49.9688 25C49.9688 21.1133 46.8242 17.9688 42.9375 17.9688ZM8.5625 17.9688C4.67578 17.9688 1.53125 21.1133 1.53125 25C1.53125 28.8867 4.67578 32.0312 8.5625 32.0312C12.4492 32.0312 15.5938 28.8867 15.5938 25C15.5938 21.1133 12.4492 17.9688 8.5625 17.9688Z" fill="black"/>
</svg>
