<svg width="51" height="50" viewBox="0 0 51 50" fill="none" xmlns="http://www.w3.org/2000/svg">
<g clip-path="url(#clip0)">
<path d="M49.8027 18.6328C50.1836 18.3301 50.75 18.6133 50.75 19.0918V39.0625C50.75 41.6504 48.6504 43.75 46.0625 43.75H5.4375C2.84961 43.75 0.75 41.6504 0.75 39.0625V19.1016C0.75 18.6133 1.30664 18.3398 1.69727 18.6426C3.88477 20.3418 6.78516 22.5 16.7461 29.7363C18.8066 31.2402 22.2832 34.4043 25.75 34.3848C29.2363 34.4141 32.7812 31.1816 34.7637 29.7363C44.7246 22.5 47.6152 20.332 49.8027 18.6328ZM25.75 31.25C28.0156 31.2891 31.2773 28.3984 32.918 27.207C45.877 17.8027 46.8633 16.9824 49.8516 14.6387C50.418 14.1992 50.75 13.5156 50.75 12.793V10.9375C50.75 8.34961 48.6504 6.25 46.0625 6.25H5.4375C2.84961 6.25 0.75 8.34961 0.75 10.9375V12.793C0.75 13.5156 1.08203 14.1895 1.64844 14.6387C4.63672 16.9727 5.62305 17.8027 18.582 27.207C20.2227 28.3984 23.4844 31.2891 25.75 31.25Z" fill="black"/>
</g>
<defs>
<clipPath id="clip0">
<rect width="50" height="50" fill="white" transform="translate(0.75)"/>
</clipPath>
</defs>
</svg>
