<svg width="50" height="50" viewBox="0 0 50 50" fill="none" xmlns="http://www.w3.org/2000/svg">
<path d="M49.2188 25C49.2188 38.3786 38.3747 49.2188 25 49.2188C11.6253 49.2188 0.78125 38.3786 0.78125 25C0.78125 11.6292 11.6253 0.78125 25 0.78125C38.3747 0.78125 49.2188 11.6292 49.2188 25ZM25 29.8828C22.519 29.8828 20.5078 31.894 20.5078 34.375C20.5078 36.856 22.519 38.8672 25 38.8672C27.481 38.8672 29.4922 36.856 29.4922 34.375C29.4922 31.894 27.481 29.8828 25 29.8828ZM20.7351 13.7357L21.4595 27.017C21.4934 27.6385 22.0072 28.125 22.6296 28.125H27.3704C27.9928 28.125 28.5066 27.6385 28.5405 27.017L29.2649 13.7357C29.3016 13.0645 28.7671 12.5 28.0948 12.5H21.9051C21.2328 12.5 20.6984 13.0645 20.7351 13.7357Z" fill="black"/>
</svg>
