<svg width="44" height="50" viewBox="0 0 44 50" fill="none" xmlns="http://www.w3.org/2000/svg">
<path d="M20.7701 30.7924L11.7188 39.8438L14.9338 42.8739C16.4104 44.3505 15.3646 46.875 13.2766 46.875H2.33906C1.04463 46.875 0 45.8257 0 44.5312V33.5938C0 31.5057 2.51982 30.46 3.99629 31.9364L7.03125 35.1562L16.0826 26.1049C16.6928 25.4947 17.6821 25.4947 18.2923 26.1049L20.7701 28.5827C21.3804 29.1929 21.3804 30.1821 20.7701 30.7924ZM22.9799 19.2076L32.0312 10.1562L28.8162 7.12607C27.3396 5.64951 28.3854 3.125 30.4734 3.125H41.4109C42.7054 3.125 43.75 4.17432 43.75 5.46875V16.4062C43.75 18.4943 41.2302 19.54 39.7537 18.0636L36.7188 14.8438L27.6674 23.8951C27.0572 24.5053 26.0679 24.5053 25.4577 23.8951L22.9799 21.4173C22.3696 20.8071 22.3696 19.8179 22.9799 19.2076Z" fill="black"/>
</svg>
