<svg width="51" height="50" viewBox="0 0 51 50" fill="none" xmlns="http://www.w3.org/2000/svg">
<g clip-path="url(#clip0)">
<path d="M42.6875 31.25H39.5625C39.1481 31.25 38.7507 31.4146 38.4576 31.7076C38.1646 32.0007 38 32.3981 38 32.8125V43.75H6.75V12.5H20.8125C21.2269 12.5 21.6243 12.3354 21.9174 12.0424C22.2104 11.7493 22.375 11.3519 22.375 10.9375V7.8125C22.375 7.3981 22.2104 7.00067 21.9174 6.70765C21.6243 6.41462 21.2269 6.25 20.8125 6.25H5.1875C3.9443 6.25 2.75201 6.74386 1.87294 7.62294C0.99386 8.50201 0.5 9.6943 0.5 10.9375L0.5 45.3125C0.5 46.5557 0.99386 47.748 1.87294 48.6271C2.75201 49.5061 3.9443 50 5.1875 50H39.5625C40.8057 50 41.998 49.5061 42.8771 48.6271C43.7561 47.748 44.25 46.5557 44.25 45.3125V32.8125C44.25 32.3981 44.0854 32.0007 43.7924 31.7076C43.4993 31.4146 43.1019 31.25 42.6875 31.25ZM48.1562 0H35.6562C33.5693 0 32.5264 2.53027 33.9961 4.00391L37.4854 7.49316L13.6836 31.2861C13.4651 31.5039 13.2917 31.7626 13.1734 32.0475C13.0551 32.3324 12.9942 32.6378 12.9942 32.9463C12.9942 33.2548 13.0551 33.5602 13.1734 33.8451C13.2917 34.13 13.4651 34.3887 13.6836 34.6064L15.8975 36.8164C16.1152 37.0349 16.3739 37.2083 16.6588 37.3266C16.9437 37.4449 17.2491 37.5058 17.5576 37.5058C17.8661 37.5058 18.1715 37.4449 18.4564 37.3266C18.7413 37.2083 19 37.0349 19.2178 36.8164L43.0078 13.0195L46.4961 16.5039C47.9609 17.9688 50.5 16.9434 50.5 14.8438V2.34375C50.5 1.72215 50.2531 1.12601 49.8135 0.686468C49.374 0.24693 48.7779 0 48.1562 0V0Z" fill="black"/>
</g>
<defs>
<clipPath id="clip0">
<rect width="50" height="50" fill="white" transform="translate(0.5)"/>
</clipPath>
</defs>
</svg>
