<svg width="50" height="50" viewBox="0 0 50 50" fill="none" xmlns="http://www.w3.org/2000/svg">
<g clip-path="url(#clip0)">
<path d="M25.0118 24.0195C23.7179 24.0195 22.6681 25.0683 22.6681 26.3632C22.7794 33.4189 21.8731 40.2207 19.963 47.0224C19.6964 47.9716 20.1729 50 22.2208 50C23.2442 50 24.1847 49.3242 24.4757 48.289C25.797 43.6103 27.5069 36.0419 27.3546 26.3632C27.3556 25.0693 26.3067 24.0195 25.0118 24.0195ZM24.9278 16.038C18.9454 16.0312 14.7706 20.6347 14.8536 25.9101C14.9269 30.5918 14.4874 35.2763 13.5479 39.831C13.2853 41.0986 14.1017 42.3398 15.3683 42.6005C16.6427 42.8613 17.8751 42.0478 18.1378 40.7802C19.1476 35.8886 19.6192 30.8603 19.5411 25.8369C19.5011 23.3027 21.4864 20.7109 24.8585 20.7255C27.9161 20.7714 30.4396 23.2002 30.4855 26.1425C30.5606 30.8349 30.211 35.5498 29.4493 40.1611C29.2374 41.4365 30.1026 42.6435 31.379 42.8544C33.3292 43.1796 33.9972 41.3798 34.0724 40.9238C34.881 36.038 35.2501 31.04 35.173 26.0693C35.087 20.6201 30.4913 16.1201 24.9278 16.038ZM14.1183 14.1064C13.1124 13.2919 11.6407 13.4423 10.8214 14.4462C8.31939 17.5224 6.97467 21.4072 7.03717 25.3837C7.09478 29.0537 6.79596 32.7343 6.14752 36.3261C5.919 37.6005 6.76373 38.8193 8.03814 39.0498C10.0021 39.3916 10.6817 37.6035 10.7618 37.1591C11.464 33.2685 11.7872 29.2822 11.7247 25.3105C11.6788 22.3925 12.6231 19.6582 14.4591 17.4033C15.2745 16.3994 15.1222 14.9238 14.1183 14.1064ZM24.8087 8.01953C23.3038 7.97949 21.794 8.16015 20.338 8.50488C19.0792 8.8037 18.2999 10.0654 18.5968 11.3261C18.8956 12.5849 20.1593 13.3603 21.4181 13.0673C22.4972 12.8125 23.6124 12.6992 24.7384 12.707C32.1046 12.8173 38.1886 18.7128 38.3009 25.8496C38.3585 29.5488 38.1759 33.2822 37.756 36.9462C37.6095 38.2324 38.5323 39.3955 39.8175 39.5419C41.4503 39.7324 42.3087 38.3818 42.4132 37.4804C42.8569 33.5955 43.0491 29.686 42.9884 25.7763C42.836 16.1328 34.6808 8.16601 24.8087 8.01953ZM49.4249 19.8798C49.1456 18.6181 47.9103 17.8095 46.631 18.0957C45.3673 18.375 44.5685 19.625 44.8478 20.8896C45.3077 22.9804 45.3272 24.5429 45.3067 26.9052C45.296 28.2011 46.337 29.2578 47.631 29.2685H47.6505C48.9366 29.2685 49.9835 28.2324 49.9942 26.9443C50.0118 24.7783 50.0333 22.6367 49.4249 19.8798ZM45.5069 11.0205C40.7511 4.24413 32.9688 0.12597 24.6886 0.00194669C17.8731 -0.0800845 11.5694 2.43261 6.88092 7.12304C2.3526 11.6572 -0.0878321 17.6796 0.0137304 24.0869L0.00201172 26.1835C-0.0360742 27.4775 0.981504 28.5576 2.27545 28.5947C2.29791 28.5966 2.32232 28.5966 2.34576 28.5966C3.60748 28.5966 4.64947 27.5908 4.68658 26.3212L4.70221 24.0127C4.62115 18.8857 6.5733 14.0654 10.1983 10.4384C13.9835 6.64941 19.1183 4.61132 24.6202 4.69042C31.4024 4.79101 37.7774 8.16308 41.673 13.7128C42.4161 14.7734 43.8761 15.0263 44.9366 14.2851C45.9952 13.541 46.2511 12.0791 45.5069 11.0205Z" fill="black"/>
</g>
<defs>
<clipPath id="clip0">
<rect width="50" height="50" fill="white"/>
</clipPath>
</defs>
</svg>
