<svg width="51" height="50" viewBox="0 0 51 50" fill="none" xmlns="http://www.w3.org/2000/svg">
<g clip-path="url(#clip0)">
<path d="M34.3872 9.64686C29.1541 9.64686 24.8321 6.25009 18.2527 6.25009C15.8157 6.25009 13.6327 6.67821 11.6077 7.42323C11.8884 6.69029 12.0078 5.9055 11.9579 5.12226C11.7849 2.3453 9.5084 0.117861 6.72832 0.00477517C3.604 -0.122373 1.03125 2.37274 1.03125 5.46884C1.03125 7.32684 1.95869 8.96737 3.375 9.95565V47.6563C3.375 48.9508 4.42432 50.0001 5.71875 50.0001H7.28125C8.57568 50.0001 9.625 48.9508 9.625 47.6563V38.4376C12.3897 37.2595 15.8342 36.2772 20.8003 36.2772C26.0335 36.2772 30.3554 39.674 36.9348 39.674C41.6388 39.674 45.3983 38.0828 48.8981 35.684C49.7461 35.1028 50.25 34.1379 50.25 33.1099V9.36972C50.25 7.08524 47.88 5.57382 45.8081 6.53612C42.4548 8.09354 38.3419 9.64686 34.3872 9.64686V9.64686Z" fill="black"/>
</g>
<defs>
<clipPath id="clip0">
<rect width="50" height="50" fill="white" transform="translate(0.25)"/>
</clipPath>
</defs>
</svg>
