<svg width="44" height="50" viewBox="0 0 44 50" fill="none" xmlns="http://www.w3.org/2000/svg">
<g clip-path="url(#clip0)">
<path d="M42.1875 40.625H39.9014L27.1367 5.24316C26.9264 4.62533 26.528 4.08884 25.9973 3.70895C25.4667 3.32907 24.8304 3.12487 24.1777 3.125H19.5723C18.9196 3.12487 18.2833 3.32907 17.7527 3.70895C17.222 4.08884 16.8236 4.62533 16.6133 5.24316L3.84863 40.625H1.5625C1.1481 40.625 0.750671 40.7896 0.457646 41.0826C0.16462 41.3757 0 41.7731 0 42.1875L0 45.3125C0 45.7269 0.16462 46.1243 0.457646 46.4174C0.750671 46.7104 1.1481 46.875 1.5625 46.875H14.0625C14.4769 46.875 14.8743 46.7104 15.1674 46.4174C15.4604 46.1243 15.625 45.7269 15.625 45.3125V42.1875C15.625 41.7731 15.4604 41.3757 15.1674 41.0826C14.8743 40.7896 14.4769 40.625 14.0625 40.625H12.1504L14.4258 34.375H29.3242L31.5996 40.625H29.6875C29.2731 40.625 28.8757 40.7896 28.5826 41.0826C28.2896 41.3757 28.125 41.7731 28.125 42.1875V45.3125C28.125 45.7269 28.2896 46.1243 28.5826 46.4174C28.8757 46.7104 29.2731 46.875 29.6875 46.875H42.1875C42.6019 46.875 42.9993 46.7104 43.2924 46.4174C43.5854 46.1243 43.75 45.7269 43.75 45.3125V42.1875C43.75 41.7731 43.5854 41.3757 43.2924 41.0826C42.9993 40.7896 42.6019 40.625 42.1875 40.625ZM17.2705 26.5625L21.875 13.917L26.4795 26.5625H17.2705Z" fill="black"/>
</g>
<defs>
<clipPath id="clip0">
<rect width="43.75" height="50" fill="white"/>
</clipPath>
</defs>
</svg>
