<svg width="53" height="50" viewBox="0 0 53 50" fill="none" xmlns="http://www.w3.org/2000/svg">
<path d="M42.4017 2.13675H10.7778C8.73763 2.13675 6.78106 2.94719 5.33847 4.38977C3.89589 5.83236 3.08545 7.78893 3.08545 9.82906V40.1709C3.08545 42.2111 3.89589 44.1676 5.33847 45.6102C6.78106 47.0528 8.73763 47.8632 10.7778 47.8632H42.4017C43.4119 47.8632 44.4121 47.6643 45.3454 47.2777C46.2787 46.8911 47.1267 46.3245 47.841 45.6102C48.5553 44.8959 49.1219 44.0479 49.5085 43.1147C49.895 42.1814 50.094 41.1811 50.094 40.1709V9.82906C50.094 8.81889 49.895 7.81861 49.5085 6.88534C49.1219 5.95206 48.5553 5.10407 47.841 4.38977C47.1267 3.67548 46.2787 3.10887 45.3454 2.72229C44.4121 2.33572 43.4119 2.13675 42.4017 2.13675V2.13675ZM27.5085 15.2938H18.9615V22.1635H26.6271C26.8034 22.1635 26.8782 22.1955 26.8782 22.4092V25.1603C26.8782 25.3686 26.8034 25.406 26.6271 25.406H18.9508V35.0214C18.9508 35.235 18.8814 35.3045 18.7051 35.3045H15.313C15.1367 35.3045 15.0673 35.235 15.0673 35V12.0299C15.0673 11.875 15.1367 11.8056 15.313 11.8056H27.1773C27.3857 11.8056 27.4231 11.875 27.4604 12.0513L27.813 15.0053C27.8451 15.203 27.7436 15.2778 27.5085 15.2938ZM39.1805 20.9989C39.1805 21.1752 39.1111 21.2126 38.9348 21.2126C37.6062 21.1451 36.2763 21.317 35.0085 21.7201V35.1389C35.0085 35.3152 34.9391 35.3846 34.7628 35.3846L31.328 35.3045C31.1517 35.3045 31.0822 35.2297 31.0822 35.0534V21.5278C31.0822 21.282 31.0822 20.6464 30.9754 19.4391C30.9754 19.2628 31.0128 19.2308 31.1517 19.156C33.635 18.1948 36.272 17.6916 38.9348 17.6709C39.1111 17.6709 39.1805 17.7083 39.1805 17.8846V20.9989Z" fill="black"/>
</svg>
