<svg width="52" height="50" viewBox="0 0 52 50" fill="none" xmlns="http://www.w3.org/2000/svg">
<path d="M41.5556 2.13675H9.93163C7.8915 2.13675 5.93493 2.94719 4.49234 4.38977C3.04976 5.83236 2.23932 7.78893 2.23932 9.82906V40.1709C2.23932 42.2111 3.04976 44.1676 4.49234 45.6102C5.93493 47.0528 7.8915 47.8632 9.93163 47.8632H41.5556C42.5657 47.8632 43.566 47.6643 44.4993 47.2777C45.4326 46.8911 46.2805 46.3245 46.9948 45.6102C47.7091 44.8959 48.2757 44.0479 48.6623 43.1147C49.0489 42.1814 49.2479 41.1811 49.2479 40.1709V9.82906C49.2479 8.81889 49.0489 7.81861 48.6623 6.88534C48.2757 5.95206 47.7091 5.10407 46.9948 4.38977C46.2805 3.67548 45.4326 3.10887 44.4993 2.72229C43.566 2.33572 42.5657 2.13675 41.5556 2.13675V2.13675ZM25.2949 16.3034H16.8066V22.9701H24.4241C24.6004 22.9701 24.6645 23.0395 24.6645 23.2158V26.1218C24.6689 26.1544 24.6658 26.1876 24.6552 26.2188C24.6447 26.2499 24.6271 26.2783 24.6039 26.3015C24.5806 26.3248 24.5523 26.3424 24.5211 26.3529C24.4899 26.3634 24.4568 26.3666 24.4241 26.3622H16.8066V35.844C16.8066 36.0577 16.7479 36.1271 16.5662 36.1271H13.3611C13.2436 36.1271 13.1848 36.0203 13.1848 35.844V13.1517C13.1848 12.9434 13.2115 12.9113 13.3932 12.9113H24.9637C25.1453 12.9113 25.2041 12.9434 25.2361 13.1517L25.5032 15.9882C25.5353 16.1966 25.4765 16.3034 25.2949 16.3034ZM32.7735 36.6026C31.2083 36.6026 29.2318 36.453 27.9658 35.5342C27.906 35.4995 27.8576 35.4483 27.8263 35.3866C27.795 35.325 27.7823 35.2557 27.7895 35.187V31.9818C27.7895 31.8109 27.9071 31.7361 27.9979 31.8109C29.3927 32.8223 31.0834 33.3427 32.8056 33.2906C33.0399 33.3183 33.2775 33.2952 33.5022 33.2229C33.7268 33.1507 33.9333 33.0309 34.1076 32.8718C34.282 32.7127 34.42 32.518 34.5124 32.3008C34.6048 32.0837 34.6494 31.8492 34.6432 31.6132C34.6432 30.7051 34.312 30.1816 32.1859 29.1667C29.1517 27.7083 27.8803 26.4423 27.8803 23.8889C27.8803 21.0577 30.0171 18.6966 33.5 18.6966C35.3056 18.6966 36.5769 18.7447 37.4049 19.3002C37.469 19.357 37.5184 19.4285 37.5491 19.5084C37.5798 19.5884 37.5908 19.6745 37.5812 19.7596V22.6496C37.5812 22.8579 37.4637 22.9647 37.3141 22.8579C36.2457 22.1581 34.7447 21.9338 33.2062 21.9338C31.7532 21.9338 31.3739 22.8419 31.3739 23.5043C31.3739 24.3429 31.7532 24.8023 33.9754 25.8494C37.0203 27.3184 38.3184 28.6111 38.3184 31.1325C38.3184 34.6314 36.0427 36.6239 32.7895 36.6239L32.7735 36.6026Z" fill="black"/>
</svg>
