<svg width="50" height="50" viewBox="0 0 50 50" fill="none" xmlns="http://www.w3.org/2000/svg">
<path d="M25 0C11.25 0 0 11.25 0 25C0 38.75 11.25 50 25 50C38.75 50 50 38.75 50 25C50 11.25 38.75 0 25 0ZM11.0937 38.9062C7.34375 35.1562 5.39063 30.1562 5.39063 25.3906L24.8437 44.6875C19.8437 44.4531 14.8438 42.6562 11.0937 38.9062ZM29.2969 44.1406L5.85938 20.7031C7.89062 11.9531 15.7031 5.39063 25 5.39063C31.6406 5.39063 37.3437 8.59375 40.8594 13.4375L38.2031 15.7813C35.1563 11.6406 30.3906 8.90625 25 8.90625C18.0469 8.90625 12.1094 13.3594 9.84375 19.6094L30.3906 40.1563C35.5469 38.3594 39.5313 33.9063 40.7813 28.5156H32.1875V25H44.6875C44.6094 34.2969 38.0469 42.1094 29.2969 44.1406Z" fill="black"/>
</svg>
