<svg width="45" height="50" viewBox="0 0 45 50" fill="none" xmlns="http://www.w3.org/2000/svg">
<g clip-path="url(#clip0)">
<path d="M43.6749 23.0518L24.5782 3.95024C24.0495 3.42206 23.3328 3.12537 22.5855 3.12537C21.8382 3.12537 21.1215 3.42206 20.5929 3.95024L16.6221 7.91801L21.6534 12.9493C24.296 12.0567 26.7979 14.587 25.8907 17.2149L30.7403 22.0645C34.0831 20.9122 36.7149 25.0918 34.2042 27.6006C31.6173 30.1875 27.3477 27.3204 28.7354 23.9541L24.2091 19.4336V31.3331C26.6798 32.5577 26.3829 35.42 25.0958 36.7041C24.4669 37.3326 23.6142 37.6857 22.7252 37.6857C21.8361 37.6857 20.9834 37.3326 20.3546 36.7041C18.6387 34.9854 19.2735 32.1231 21.4532 31.2354V19.2237C19.422 18.3926 19.0509 16.2217 19.6329 14.8291L14.6729 9.86332L1.57527 22.9629C1.04685 23.4915 0.75 24.2082 0.75 24.9556C0.75 25.703 1.04685 26.4198 1.57527 26.9483L20.6778 46.0498C21.2063 46.578 21.9229 46.8746 22.67 46.8746C23.4171 46.8746 24.1337 46.578 24.6622 46.0498L43.6749 27.0371C44.2033 26.5086 44.5002 25.7918 44.5002 25.0445C44.5002 24.2971 44.2033 23.5803 43.6749 23.0518V23.0518Z" fill="black"/>
</g>
<defs>
<clipPath id="clip0">
<rect width="43.75" height="50" fill="white" transform="translate(0.75)"/>
</clipPath>
</defs>
</svg>
