<svg width="50" height="50" viewBox="0 0 50 50" fill="none" xmlns="http://www.w3.org/2000/svg">
<g clip-path="url(#clip0)">
<path d="M10.2735 2.43167C9.97077 1.56253 8.7403 1.56253 8.4278 2.43167L2.91022 19.502H15.8008C15.7911 19.502 10.2735 2.43167 10.2735 2.43167V2.43167ZM0.0879551 28.0957C-0.165951 28.877 0.117252 29.7461 0.781314 30.2442L24.9903 48.2129L2.90045 19.502L0.0879551 28.0957ZM15.7911 19.502L25.0001 48.2129L34.209 19.502H15.7911ZM49.9122 28.0957L47.0997 19.502L25.0001 48.2129L49.209 30.2442C49.8829 29.7461 50.1563 28.877 49.9122 28.0957V28.0957ZM41.5723 2.43167C41.2696 1.56253 40.0391 1.56253 39.7266 2.43167L34.1993 19.502H47.0899L41.5723 2.43167Z" fill="black"/>
</g>
<defs>
<clipPath id="clip0">
<rect width="50" height="50" fill="white"/>
</clipPath>
</defs>
</svg>
