<svg width="50" height="50" viewBox="0 0 50 50" fill="none" xmlns="http://www.w3.org/2000/svg">
<path d="M25.0938 0.78125C11.7178 0.78125 0.875 11.624 0.875 25C0.875 38.376 11.7178 49.2188 25.0938 49.2188C38.4697 49.2188 49.3125 38.376 49.3125 25C49.3125 11.624 38.4697 0.78125 25.0938 0.78125ZM23.9863 24.2412C23.7041 24.7119 23.1953 25 22.6465 25H22.6162C22.2021 25 21.8047 25.165 21.5117 25.458L20.959 26.0107C20.6543 26.3154 20.6543 26.8105 20.959 27.1152L21.5117 27.668C21.8047 27.9609 21.9697 28.3584 21.9697 28.7725V29.6875C21.9697 30.5508 21.2705 31.25 20.4072 31.25H19.8105C19.2187 31.25 18.6777 30.916 18.4131 30.3857L16.2041 25.9688C15.9658 25.4922 15.3301 25.3887 14.9531 25.7656L13.0518 27.666C12.7588 27.959 12.3613 28.124 11.9473 28.124H5.83691C5.67188 27.1045 5.5625 26.0664 5.5625 25C5.5625 14.2305 14.3242 5.46875 25.0938 5.46875C27.1943 5.46875 29.2148 5.81152 31.1123 6.42773L26.2139 10.1904C25.7148 10.5234 25.7617 11.2705 26.2979 11.5391L27.3555 12.0674C27.8848 12.332 28.2188 12.873 28.2188 13.4648V21.0938C28.2188 21.5254 27.8691 21.875 27.4375 21.875H27.1387C26.8428 21.875 26.5723 21.708 26.4404 21.4434C26.2881 21.1387 25.8584 21.1221 25.6826 21.4141L23.9863 24.2412ZM40.7188 35.0029C40.7188 35.417 40.5537 35.8145 40.2607 36.1074L39.3262 37.042C39.0332 37.335 38.6357 37.5 38.2217 37.5H36.7412C36.3271 37.5 35.9297 37.335 35.6367 37.042L34.3662 35.7715C34.047 35.4523 33.6506 35.2212 33.2156 35.1007C32.7805 34.9803 32.3217 34.9745 31.8838 35.084L29.8066 35.6035C29.6826 35.6348 29.5557 35.6504 29.4277 35.6504H28.418C28.0039 35.6504 27.6064 35.4854 27.3135 35.1924L26.1504 34.0293C26.004 33.8826 25.9218 33.6838 25.9219 33.4766V32.4805C25.9219 32.1611 26.1162 31.874 26.4131 31.7549L30.2549 30.2178C30.4482 30.1406 30.6318 30.04 30.8008 29.9199L33.1162 28.2705C33.2485 28.1763 33.4069 28.1257 33.5693 28.126H34.75C35.0654 28.126 35.3506 28.3154 35.4717 28.6074L35.9941 29.8623C36.0238 29.9334 36.0739 29.9942 36.138 30.0369C36.2021 30.0797 36.2774 30.1025 36.3545 30.1025H36.7256C36.8994 30.1025 37.0527 29.9873 37.1006 29.8213L37.5107 28.4082C37.5596 28.2412 37.7119 28.127 37.8857 28.127H38.4775C38.6934 28.127 38.8682 28.3018 38.8682 28.5176V29.7803C38.8682 29.9873 38.9502 30.1865 39.0967 30.333L40.2598 31.4961C40.5527 31.7891 40.7178 32.1865 40.7178 32.6006V35.0029H40.7188Z" fill="black"/>
</svg>
