<svg width="63" height="50" viewBox="0 0 63 50" fill="none" xmlns="http://www.w3.org/2000/svg">
<path d="M60.9629 14.961L33.7227 6.5918C32.2383 6.13574 30.6367 6.13574 29.1533 6.5918L1.91211 14.961C-0.386719 15.667 -0.386719 18.7071 1.91211 19.4131L6.66113 20.8721C5.61914 22.1602 4.97852 23.7315 4.91504 25.4522C3.97461 25.9913 3.3125 26.9639 3.3125 28.125C3.3125 29.1778 3.86719 30.0635 4.66602 30.6299L2.17285 41.8487C1.95605 42.8243 2.69824 43.75 3.69727 43.75H9.17676C10.1768 43.75 10.9189 42.8243 10.7021 41.8487L8.20898 30.6299C9.00781 30.0635 9.5625 29.1778 9.5625 28.125C9.5625 26.9952 8.93066 26.0498 8.0332 25.501C8.10742 24.0342 8.85742 22.7373 10.0537 21.9151L29.1523 27.7832C30.0371 28.0547 31.7344 28.3936 33.7217 27.7832L60.9629 19.4141C63.2627 18.7071 63.2627 15.668 60.9629 14.961ZM34.6396 30.7705C31.8535 31.626 29.4795 31.1534 28.2344 30.7705L14.0723 26.42L12.6875 37.5C12.6875 40.9522 21.082 43.75 31.4375 43.75C41.793 43.75 50.1875 40.9522 50.1875 37.5L48.8027 26.419L34.6396 30.7705Z" fill="black"/>
</svg>
