<svg width="50" height="50" viewBox="0 0 50 50" fill="none" xmlns="http://www.w3.org/2000/svg">
<path d="M6.79687 38.125L5 37.0313L25.3906 1.64062L27.1875 2.73438L6.79687 38.125Z" fill="black"/>
<path d="M4.53125 34.2188H45.3906V36.3281H4.53125V34.2188Z" fill="black"/>
<path d="M25.7813 47.1875L5.39062 35.3906L6.40625 33.5938L26.875 45.3906L25.7813 47.1875ZM43.5937 16.4062L23.125 4.60938L24.2188 2.8125L44.6875 14.6094L43.5937 16.4062Z" fill="black"/>
<path d="M6.40625 16.4062L5.3125 14.6094L25.8594 2.8125L26.9531 4.60938L6.40625 16.4062Z" fill="black"/>
<path d="M43.2031 38.125L22.7344 2.65625L24.5312 1.5625L45 36.9531L43.2031 38.125ZM6.17188 13.2031H8.28125V36.7969H6.17188V13.2031ZM41.7188 13.2031H43.8281V36.7969H41.7188V13.2031Z" fill="black"/>
<path d="M25.4687 46.3281L24.5312 44.6875L42.3438 34.4531L43.2813 36.0938L25.4687 46.3281Z" fill="black"/>
<path d="M46.6407 37.5C45.3907 39.6094 42.6564 40.3906 40.547 39.1406C38.4376 37.8906 37.6564 35.1562 38.9064 33.0469C40.1564 30.9375 42.8907 30.1563 45.0001 31.4063C47.1876 32.6563 47.8907 35.3906 46.6407 37.5ZM11.0939 16.9531C9.84387 19.0625 7.10949 19.8437 5.00012 18.5937C2.89074 17.3437 2.1095 14.6094 3.3595 12.5C4.6095 10.3906 7.34387 9.60937 9.45325 10.8594C11.5626 12.1094 12.2657 14.8438 11.0939 16.9531ZM3.3595 37.5C2.1095 35.3906 2.89074 32.6563 5.00012 31.4063C7.10949 30.1563 9.84387 30.9375 11.0939 33.0469C12.3439 35.1562 11.5626 37.8906 9.45325 39.1406C7.26575 40.3906 4.6095 39.6094 3.3595 37.5ZM38.9064 16.9531C37.6564 14.8438 38.4376 12.1094 40.547 10.8594C42.6564 9.60937 45.3907 10.3906 46.6407 12.5C47.8907 14.6094 47.1095 17.3437 45.0001 18.5937C42.8907 19.8437 40.1564 19.0625 38.9064 16.9531ZM25.0001 50C22.5001 50 20.547 47.9687 20.547 45.5469C20.547 43.0469 22.5782 41.0937 25.0001 41.0937C27.422 41.0937 29.4532 43.125 29.4532 45.5469C29.4532 47.9687 27.422 50 25.0001 50ZM25.0001 8.90625C22.5782 8.90625 20.547 6.95312 20.547 4.45312C20.547 2.03125 22.5782 0 25.0001 0C27.422 0 29.4532 2.03125 29.4532 4.45312C29.4532 6.95312 27.5001 8.90625 25.0001 8.90625Z" fill="black"/>
</svg>
