<svg width="50" height="50" viewBox="0 0 50 50" fill="none" xmlns="http://www.w3.org/2000/svg">
<path d="M46.6309 12.5C45.2149 10.0635 27.8448 0 25.0157 0C22.1866 0 4.80957 10.0381 3.40235 12.5C1.99512 14.9619 1.98731 35.0391 3.40235 37.5C4.81739 39.9609 22.1895 50 25.0157 50C27.8418 50 45.2149 39.9492 46.6299 37.5C48.045 35.0508 48.0469 14.9414 46.6309 12.5ZM30.8721 40.4512C30.4815 40.4512 26.877 36.958 27.1612 36.6729C27.2461 36.5879 27.7725 36.5283 28.875 36.4941C28.875 33.9326 28.9326 29.7959 28.9668 28.0645C28.9668 27.8691 28.9239 27.7295 28.9239 27.4932H21.1182C21.1182 28.1865 21.0733 31.0283 21.252 34.6104C21.2744 35.0537 21.0977 35.1963 20.6914 35.1904C19.7022 35.1904 18.7119 35.1797 17.7217 35.1826C17.3213 35.1826 17.1485 35.0332 17.1612 34.5859C17.251 31.3203 17.4541 26.3828 17.1465 13.8174V13.5078C16.2022 13.4736 15.5469 13.4102 15.461 13.3281C15.1758 13.043 18.834 9.5498 19.2198 9.5498C19.6055 9.5498 23.2403 13.0439 22.9571 13.3281C22.8721 13.4131 22.1856 13.4736 21.3194 13.5078V13.8164C21.083 16.3311 21.1241 21.5889 21.0625 24.1084H28.9004C28.9004 23.6641 28.9385 20.7158 28.7832 15.9404C28.7735 15.6094 28.876 15.4355 29.1944 15.4326C30.2754 15.4248 31.3575 15.4199 32.4395 15.4268C32.7774 15.4268 32.8858 15.5947 32.8789 15.9521C32.5196 34.6328 32.8125 33.3291 32.8125 36.4932C33.6787 36.5273 34.4551 36.5908 34.5401 36.6729C34.8213 36.957 31.2569 40.4512 30.8701 40.4512H30.8721Z" fill="black"/>
</svg>
