<svg width="45" height="50" viewBox="0 0 45 50" fill="none" xmlns="http://www.w3.org/2000/svg">
<path d="M43.7212 17.7841L44.4187 13.8778C44.547 13.1596 43.9947 12.5 43.2651 12.5H35.9595L37.3875 4.50283C37.5157 3.78457 36.9635 3.125 36.2339 3.125H32.2659C31.9908 3.125 31.7245 3.22178 31.5136 3.39837C31.3027 3.57496 31.1606 3.82012 31.1123 4.09092L29.6106 12.5H19.9783L21.4063 4.50283C21.5346 3.78457 20.9824 3.125 20.2527 3.125H16.2847C16.0097 3.125 15.7434 3.22178 15.5325 3.39837C15.3215 3.57496 15.1795 3.82012 15.1311 4.09092L13.6295 12.5H5.90524C5.63016 12.5 5.36385 12.5968 5.15294 12.7734C4.94203 12.95 4.79997 13.1951 4.75162 13.4659L4.05407 17.3722C3.92584 18.0904 4.47809 18.75 5.20768 18.75H12.5134L10.2812 31.25H2.557C2.28192 31.25 2.01561 31.3468 1.8047 31.5234C1.59379 31.7 1.45173 31.9451 1.40338 32.2159L0.705821 36.1222C0.577599 36.8404 1.12985 37.5 1.85944 37.5H9.1651L7.73707 45.4972C7.60885 46.2154 8.1611 46.875 8.89069 46.875H12.8587C13.1338 46.875 13.4001 46.7782 13.611 46.6016C13.8219 46.425 13.9639 46.1799 14.0123 45.9091L15.514 37.5H25.1463L23.7182 45.4972C23.5899 46.2154 24.1422 46.875 24.8719 46.875H28.8398C29.1149 46.875 29.3812 46.7782 29.5921 46.6016C29.803 46.425 29.9451 46.1799 29.9934 45.9091L31.4951 37.5H39.2193C39.4944 37.5 39.7607 37.4032 39.9716 37.2266C40.1825 37.05 40.3246 36.8049 40.3729 36.5341L41.0705 32.6278C41.1987 31.9096 40.6465 31.25 39.9169 31.25H32.6112L34.8433 18.75H42.5676C42.8426 18.75 43.1089 18.6532 43.3199 18.4766C43.5308 18.3 43.6728 18.0549 43.7212 17.7841ZM26.2624 31.25H16.6302L18.8623 18.75H28.4945L26.2624 31.25Z" fill="black"/>
</svg>
