<svg width="58" height="50" viewBox="0 0 58 50" fill="none" xmlns="http://www.w3.org/2000/svg">
<path d="M28.3174 14.4788L10.3125 29.3079V45.3128C10.3125 45.7272 10.4771 46.1246 10.7701 46.4176C11.0632 46.7107 11.4606 46.8753 11.875 46.8753L22.8183 46.847C23.2314 46.8449 23.6268 46.6794 23.9182 46.3866C24.2095 46.0938 24.373 45.6975 24.373 45.2845V35.9378C24.373 35.5234 24.5377 35.126 24.8307 34.8329C25.1237 34.5399 25.5211 34.3753 25.9355 34.3753H32.1855C32.5999 34.3753 32.9974 34.5399 33.2904 34.8329C33.5834 35.126 33.748 35.5234 33.748 35.9378V45.2776C33.7474 45.4832 33.7873 45.6869 33.8656 45.8771C33.9438 46.0672 34.0588 46.24 34.2039 46.3856C34.3491 46.5313 34.5216 46.6468 34.7115 46.7256C34.9013 46.8044 35.1049 46.845 35.3105 46.845L46.25 46.8753C46.6644 46.8753 47.0618 46.7107 47.3548 46.4176C47.6479 46.1246 47.8125 45.7272 47.8125 45.3128V29.2972L29.8115 14.4788C29.5999 14.3082 29.3362 14.2152 29.0644 14.2152C28.7926 14.2152 28.529 14.3082 28.3174 14.4788ZM56.7578 24.5579L48.5937 17.8284V4.302C48.5937 3.9912 48.4703 3.69313 48.2505 3.47336C48.0307 3.25359 47.7326 3.13013 47.4218 3.13013H41.9531C41.6423 3.13013 41.3442 3.25359 41.1245 3.47336C40.9047 3.69313 40.7812 3.9912 40.7812 4.302V11.3929L32.0381 4.19946C31.199 3.50901 30.1462 3.13151 29.0596 3.13151C27.9729 3.13151 26.9201 3.50901 26.081 4.19946L1.36133 24.5579C1.24266 24.656 1.14449 24.7765 1.07241 24.9125C1.00033 25.0486 0.955762 25.1975 0.941252 25.3507C0.926742 25.504 0.942573 25.6586 0.987841 25.8058C1.03311 25.9529 1.10693 26.0897 1.20508 26.2083L3.69531 29.2356C3.79319 29.3547 3.91359 29.4532 4.0496 29.5256C4.18562 29.5981 4.33459 29.643 4.48798 29.6577C4.64137 29.6725 4.79616 29.6569 4.94351 29.6118C5.09086 29.5667 5.22786 29.4929 5.34668 29.3948L28.3174 10.4749C28.529 10.3043 28.7926 10.2113 29.0644 10.2113C29.3362 10.2113 29.5999 10.3043 29.8115 10.4749L52.7832 29.3948C52.9018 29.493 53.0386 29.5668 53.1857 29.6121C53.3329 29.6573 53.4875 29.6732 53.6407 29.6586C53.794 29.6441 53.9429 29.5996 54.0789 29.5275C54.215 29.4554 54.3355 29.3572 54.4336 29.2386L56.9238 26.2112C57.0218 26.0919 57.0953 25.9544 57.1401 25.8067C57.1848 25.6589 57.1999 25.5037 57.1845 25.35C57.169 25.1964 57.1234 25.0473 57.0502 24.9114C56.977 24.7754 56.8776 24.6553 56.7578 24.5579Z" fill="black"/>
</svg>
