<svg width="57" height="50" viewBox="0 0 57 50" fill="none" xmlns="http://www.w3.org/2000/svg">
<g clip-path="url(#clip0)">
<path d="M46.875 40.625V42.1875C46.875 44.7764 44.7764 46.875 42.1875 46.875H4.6875C2.09863 46.875 0 44.7764 0 42.1875V17.1875C0 14.5986 2.09863 12.5 4.6875 12.5H6.25V32.8125C6.25 37.1203 9.75469 40.625 14.0625 40.625H46.875ZM56.25 32.8125V7.8125C56.25 5.22363 54.1514 3.125 51.5625 3.125H14.0625C11.4736 3.125 9.375 5.22363 9.375 7.8125V32.8125C9.375 35.4014 11.4736 37.5 14.0625 37.5H51.5625C54.1514 37.5 56.25 35.4014 56.25 32.8125ZM25 12.5C25 15.0889 22.9014 17.1875 20.3125 17.1875C17.7236 17.1875 15.625 15.0889 15.625 12.5C15.625 9.91113 17.7236 7.8125 20.3125 7.8125C22.9014 7.8125 25 9.91113 25 12.5ZM15.625 26.5625L21.0464 21.1411C21.504 20.6835 22.246 20.6835 22.7037 21.1411L26.5625 25L39.7964 11.7661C40.254 11.3085 40.996 11.3085 41.4537 11.7661L50 20.3125V31.25H15.625V26.5625Z" fill="black"/>
</g>
<defs>
<clipPath id="clip0">
<rect width="56.25" height="50" fill="white"/>
</clipPath>
</defs>
</svg>
