<svg width="63" height="50" viewBox="0 0 63 50" fill="none" xmlns="http://www.w3.org/2000/svg">
<g clip-path="url(#clip0)">
<path d="M46.5059 9.375C40.0508 9.375 35.002 13.4082 31.75 17.0508C28.498 13.4082 23.4492 9.375 16.9941 9.375C7.90234 9.375 0.5 16.3867 0.5 25C0.5 33.6133 7.90234 40.625 16.9941 40.625C23.4492 40.625 28.498 36.5918 31.75 32.9492C35.002 36.5918 40.0508 40.625 46.5059 40.625C55.5977 40.625 63 33.6133 63 25C63 16.3867 55.5977 9.375 46.5059 9.375ZM16.9941 31.25C13.0684 31.25 9.875 28.4473 9.875 25C9.875 21.5527 13.0684 18.75 16.9941 18.75C20.7246 18.75 24.1621 22.2754 26.1738 25C24.1816 27.6953 20.7148 31.25 16.9941 31.25V31.25ZM46.5059 31.25C42.7754 31.25 39.3379 27.7246 37.3262 25C39.3184 22.3047 42.7852 18.75 46.5059 18.75C50.4316 18.75 53.625 21.5527 53.625 25C53.625 28.4473 50.4316 31.25 46.5059 31.25Z" fill="black"/>
</g>
<defs>
<clipPath id="clip0">
<rect width="62.5" height="50" fill="white" transform="translate(0.5)"/>
</clipPath>
</defs>
</svg>
