<svg width="38" height="50" viewBox="0 0 38 50" fill="none" xmlns="http://www.w3.org/2000/svg">
<g clip-path="url(#clip0)">
<path d="M27.3731 30.5566C28.3302 29.9023 29.6583 29.3359 29.6583 29.3359C29.6583 29.3359 25.879 30.0195 22.1192 30.332C17.5196 30.7129 12.5782 30.791 10.0977 30.459C4.22859 29.6777 13.3204 27.5195 13.3204 27.5195C13.3204 27.5195 9.795 27.2852 5.44929 29.375C0.32234 31.8555 18.1446 32.9883 27.3731 30.5566ZM19.0333 27.4219C17.1778 23.252 10.918 19.5898 19.0333 13.1836C29.1563 5.19531 23.9649 0 23.9649 0C26.0645 8.25195 16.5821 10.752 13.1544 15.8789C10.8204 19.3848 14.297 23.1445 19.0333 27.4219V27.4219ZM30.2247 10.2148C30.2345 10.2148 13.1153 14.4922 21.2891 23.9063C23.7012 26.6797 20.6544 29.1797 20.6544 29.1797C20.6544 29.1797 26.7774 26.0156 23.9649 22.0605C21.338 18.3691 19.3262 16.5332 30.2247 10.2148V10.2148ZM29.629 36.6309C29.5756 36.7239 29.5099 36.8093 29.4337 36.8848C41.963 33.5938 37.3536 25.2734 31.3673 27.3828C31.0439 27.5016 30.7646 27.7163 30.5665 27.998C30.9161 27.8715 31.2753 27.7736 31.6407 27.7051C34.668 27.0703 39.0137 31.7578 29.629 36.6309V36.6309ZM34.2345 42.7148C34.2345 42.7148 35.6505 43.877 32.6817 44.7852C27.0274 46.4941 9.16609 47.0117 4.20515 44.8535C2.41804 44.082 5.76765 42.998 6.82234 42.7734C7.91609 42.5391 8.55086 42.5781 8.55086 42.5781C6.56843 41.1816 -4.27141 45.3223 3.04304 46.5039C22.9884 49.7461 39.4102 45.0488 34.2345 42.7148ZM12.4024 38.6719C4.71687 40.8203 17.0802 45.2539 26.8653 41.0645C25.911 40.6937 24.9897 40.2429 24.1114 39.7168C19.7462 40.5469 17.7247 40.6055 13.7598 40.1563C10.4884 39.7852 12.4024 38.6719 12.4024 38.6719V38.6719ZM29.961 48.1641C22.2755 49.6094 12.793 49.4434 7.17781 48.5156C7.17781 48.5059 8.33015 49.4629 14.2481 49.8437C23.252 50.4199 37.0802 49.5215 37.4024 45.2637C37.4024 45.2637 36.7774 46.875 29.961 48.1641V48.1641ZM25.7032 34.4727C19.922 35.5859 16.5723 35.5566 12.3438 35.1172C9.07234 34.7754 11.211 33.1934 11.211 33.1934C2.73445 36.0059 15.918 39.1895 27.7637 35.7227C26.9982 35.4523 26.2966 35.0268 25.7032 34.4727Z" fill="black"/>
</g>
<defs>
<clipPath id="clip0">
<rect width="37.5" height="50" fill="white" transform="translate(0.25)"/>
</clipPath>
</defs>
</svg>
