<svg width="38" height="50" viewBox="0 0 38 50" fill="none" xmlns="http://www.w3.org/2000/svg">
<g clip-path="url(#clip0)">
<path d="M27.3732 30.5566C28.3303 29.9023 29.6584 29.3359 29.6584 29.3359C29.6584 29.3359 25.8791 30.0195 22.1193 30.332C17.5197 30.7129 12.5783 30.791 10.0978 30.459C4.2287 29.6777 13.3205 27.5195 13.3205 27.5195C13.3205 27.5195 9.79511 27.2852 5.4494 29.375C0.322448 31.8555 18.1447 32.9883 27.3732 30.5566ZM19.0334 27.4219C17.1779 23.252 10.9181 19.5898 19.0334 13.1836C29.1564 5.19531 23.965 0 23.965 0C26.0646 8.25195 16.5822 10.752 13.1545 15.8789C10.8205 19.3848 14.2971 23.1445 19.0334 27.4219ZM30.2248 10.2148C30.2346 10.2148 13.1154 14.4922 21.2892 23.9063C23.7013 26.6797 20.6545 29.1797 20.6545 29.1797C20.6545 29.1797 26.7775 26.0156 23.965 22.0605C21.3381 18.3691 19.3263 16.5332 30.2248 10.2148ZM29.6291 36.6309C29.5757 36.7239 29.51 36.8093 29.4338 36.8848C41.9631 33.5938 37.3537 25.2734 31.3674 27.3828C31.044 27.5016 30.7647 27.7163 30.5666 27.998C30.9162 27.8715 31.2754 27.7736 31.6408 27.7051C34.6681 27.0703 39.0138 31.7578 29.6291 36.6309ZM34.2346 42.7148C34.2346 42.7148 35.6506 43.877 32.6818 44.7852C27.0275 46.4941 9.1662 47.0117 4.20526 44.8535C2.41815 44.082 5.76776 42.998 6.82245 42.7734C7.9162 42.5391 8.55097 42.5781 8.55097 42.5781C6.56854 41.1816 -4.2713 45.3223 3.04315 46.5039C22.9885 49.7461 39.4103 45.0488 34.2346 42.7148ZM12.4025 38.6719C4.71698 40.8203 17.0803 45.2539 26.8654 41.0645C25.9111 40.6937 24.9898 40.2429 24.1115 39.7168C19.7463 40.5469 17.7248 40.6055 13.7599 40.1563C10.4885 39.7852 12.4025 38.6719 12.4025 38.6719ZM29.9611 48.1641C22.2756 49.6094 12.7931 49.4434 7.17792 48.5156C7.17792 48.5059 8.33026 49.4629 14.2482 49.8437C23.2521 50.4199 37.0803 49.5215 37.4025 45.2637C37.4025 45.2637 36.7775 46.875 29.9611 48.1641ZM25.7033 34.4727C19.9221 35.5859 16.5724 35.5566 12.3439 35.1172C9.07245 34.7754 11.2111 33.1934 11.2111 33.1934C2.73456 36.0059 15.9181 39.1895 27.7638 35.7227C26.9983 35.4523 26.2967 35.0268 25.7033 34.4727Z" fill="black"/>
</g>
<defs>
<clipPath id="clip0">
<rect width="38" height="50" fill="white"/>
</clipPath>
</defs>
</svg>
