<svg width="40" height="50" viewBox="0 0 40 50" fill="none" xmlns="http://www.w3.org/2000/svg">
<g clip-path="url(#clip0)">
<path d="M0 0V50H20.0414V48.6772H1.32273V1.32273H38.5581V25H39.8808V0H0Z" fill="black"/>
<path d="M5.29882 15.6748C5.6463 15.465 5.82002 15.0241 5.82002 14.352V7.14292L4.82758 7.1096V5.35708H7.60538V14.6328C7.60538 15.3399 7.51734 15.8993 7.34122 16.3111C7.1683 16.7205 6.84594 17.0486 6.4397 17.2288C6.01546 17.4271 5.42862 17.5318 4.6791 17.5429L4.08162 15.9889C4.54594 15.9889 4.95166 15.8842 5.29882 15.6748ZM15.17 16.3278C14.4923 16.8517 13.6793 17.1135 12.7311 17.1131C12.1533 17.1165 11.5805 17.0069 11.0448 16.7904C10.5174 16.5773 10.0655 16.212 9.74678 15.7409C9.4101 15.2554 9.24174 14.6325 9.24174 13.8722V8.548C9.24174 7.41296 9.55318 6.5532 10.1761 5.96868C10.799 5.38416 11.6561 5.09208 12.7473 5.09244C13.8382 5.09244 14.6842 5.40116 15.2852 6.01868C15.8862 6.6362 16.1865 7.48484 16.1862 8.56464V13.8722C16.1865 14.986 15.8478 15.8046 15.17 16.3278ZM14.2523 8.0192C14.1835 7.73416 14.0129 7.48416 13.7725 7.31616C13.5301 7.14544 13.1774 7.06012 12.7145 7.06012C12.2515 7.06012 11.8991 7.14276 11.6574 7.30808C11.4179 7.46936 11.247 7.71404 11.1781 7.99444C11.1007 8.28636 11.0619 8.66936 11.0619 9.14344V13.5581C11.0619 14.0874 11.1966 14.5035 11.466 14.8066C11.7353 15.1096 12.1513 15.2611 12.714 15.2611C13.2321 15.2611 13.6374 15.1014 13.9296 14.7818C14.2219 14.4623 14.3678 14.0434 14.3675 13.5252V9.16012C14.3678 8.69712 14.3295 8.31684 14.2523 8.0192ZM22.42 13.9056H19.7584L19.1135 16.9313H17.0614L19.7731 5.35708H22.3362L25.2625 16.9313H23.0983L22.42 13.9056ZM22.5857 4.87776C22.4007 4.87808 22.2168 4.85016 22.0402 4.79496C21.8635 4.74008 21.632 4.65184 21.3458 4.53032C21.0916 4.4202 20.8766 4.33484 20.7008 4.27424C20.5252 4.2138 20.3407 4.18308 20.1549 4.18332C19.7471 4.18332 19.3448 4.3872 18.9478 4.79496L18.3033 3.7202C18.7993 3.14781 19.3229 2.86161 19.8741 2.86161C20.0645 2.86035 20.2541 2.88811 20.4362 2.94394C20.6123 2.99949 20.8437 3.08771 21.1306 3.20858C21.4168 3.31869 21.6372 3.39865 21.7917 3.44848C21.9468 3.49809 22.1087 3.52313 22.2715 3.52273C22.6793 3.52273 23.0596 3.32979 23.4125 2.94394L24.1069 4.01868C23.6328 4.5914 23.1257 4.87776 22.5857 4.87776ZM20.1882 11.9697H21.9902L21.0478 8.39848L20.1882 11.9697ZM31.5392 16.3278C30.8611 16.8517 30.0481 17.1135 29.1003 17.1131C28.5229 17.1164 27.9504 17.0068 27.415 16.7904C26.8876 16.5773 26.4357 16.212 26.117 15.7409C25.7803 15.2554 25.6119 14.6325 25.6119 13.8722V8.548C25.6119 7.41296 25.9234 6.5532 26.5463 5.96868C27.1692 5.38416 28.0263 5.09208 29.1175 5.09244C30.2084 5.09244 31.0544 5.40116 31.6554 6.01868C32.2564 6.6362 32.5567 7.48484 32.5564 8.56464V13.8722C32.5561 14.986 32.217 15.8046 31.5392 16.3278ZM30.6215 8.0192C30.5527 7.73416 30.3821 7.48416 30.1417 7.31616C29.8993 7.14544 29.5458 7.06012 29.0811 7.06012C28.6165 7.06012 28.2638 7.14276 28.0231 7.30808C27.7835 7.46944 27.6125 7.71408 27.5433 7.99444C27.4682 8.28772 27.4305 8.67004 27.4301 9.1414V13.5561C27.4301 14.0854 27.5648 14.5015 27.8342 14.8046C28.1035 15.1076 28.5197 15.2591 29.0827 15.2591C29.6008 15.2591 30.0059 15.0993 30.2978 14.7798C30.5897 14.4603 30.7359 14.0414 30.7362 13.5232V9.16012C30.7369 8.69712 30.6987 8.31684 30.6215 8.0192ZM11.0114 25.6944L9.0771 31.8121H7.68822L5.7867 25.7111V31.8121H3.96851V20.2379H5.7867L8.38266 27.8934L11.0089 20.2379H12.8271V31.8121H11.0089L11.0114 25.6944ZM15.5912 31.5656C15.5143 31.6454 15.4217 31.7086 15.3194 31.7512C15.2171 31.7939 15.1071 31.8151 14.9963 31.8136C14.7787 31.8084 14.5714 31.7196 14.4175 31.5657C14.2636 31.4117 14.1748 31.2045 14.1695 30.9869C14.168 30.876 14.1893 30.766 14.2319 30.6637C14.2746 30.5614 14.3377 30.4689 14.4175 30.3919C14.4919 30.3131 14.5816 30.2504 14.6811 30.2076C14.7807 30.1649 14.8879 30.143 14.9963 30.1434C15.2196 30.1446 15.4333 30.2339 15.5912 30.3918C15.749 30.5498 15.8381 30.7636 15.8392 30.9869C15.8397 31.0952 15.8179 31.2024 15.7753 31.302C15.7326 31.4016 15.67 31.4913 15.5912 31.5656ZM11.0114 39.9803L9.0771 46.098H7.68822L5.7867 39.9965V46.098H3.96851V34.5237H5.7867L8.38266 42.1792L11.0089 34.5237H12.8271V46.098H11.0089L11.0114 39.9803ZM21.1221 45.4944C20.4443 46.0184 19.6313 46.28 18.6831 46.2796C18.1054 46.2832 17.5325 46.1736 16.9968 45.9572C16.4695 45.744 16.0177 45.3784 15.6988 44.9076C15.3621 44.422 15.1938 43.7992 15.1938 43.0388V37.7146C15.1938 36.5796 15.505 35.7199 16.1276 35.1354C16.7501 34.5508 17.6072 34.2588 18.6988 34.2591C19.7901 34.2591 20.636 34.5678 21.2367 35.1854C21.8374 35.8029 22.1379 36.6515 22.1382 37.7313V43.0388C22.1389 44.1528 21.8001 44.9712 21.1221 45.4944ZM20.2044 37.1859C20.1359 36.901 19.9653 36.651 19.7251 36.4833C19.4827 36.3123 19.1291 36.2268 18.6645 36.2268C18.1998 36.2268 17.8463 36.3094 17.6039 36.4748C17.3643 36.636 17.1935 36.8807 17.1246 37.1611C17.0471 37.453 17.0086 37.836 17.0089 38.3101V42.7272C17.0089 43.2564 17.1436 43.6728 17.4129 43.9756C17.6823 44.2788 18.0985 44.4304 18.6614 44.4304C19.1793 44.4304 19.5843 44.2704 19.8766 43.9512C20.1689 43.6316 20.3148 43.2128 20.3145 42.6944V38.3268C20.3182 37.8638 20.2815 37.4835 20.2044 37.1859ZM25.2478 36.3591H22.8665V34.5237H29.5135V36.3591H27.0665V46.098H25.2483L25.2478 36.3591ZM34.1266 43.0724H31.4645L30.8195 46.098H28.7695L31.4811 34.5237H34.0438L36.9731 46.098H34.8044L34.1266 43.0724ZM31.8943 41.1372H33.6968L32.7544 37.5662L31.8943 41.1372Z" fill="black"/>
</g>
<defs>
<clipPath id="clip0">
<rect width="39.92" height="50" fill="white"/>
</clipPath>
</defs>
</svg>
