<svg width="44" height="50" viewBox="0 0 44 50" fill="none" xmlns="http://www.w3.org/2000/svg">
<g clip-path="url(#clip0)">
<path d="M0.1875 3.125V46.875H43.9375V3.125H0.1875ZM23.9961 37.2461C23.9961 41.5039 21.4961 43.4473 17.8535 43.4473C14.5625 43.4473 12.6582 41.748 11.6816 39.6875L15.0312 37.666C15.6758 38.8086 16.2617 39.7754 17.6777 39.7754C19.0254 39.7754 19.8848 39.248 19.8848 37.1875V23.2129H23.9961V37.2461V37.2461ZM33.7227 43.4473C29.9043 43.4473 27.4336 41.6309 26.2324 39.248L29.582 37.3145C30.4609 38.75 31.6133 39.8145 33.6348 39.8145C35.334 39.8145 36.4277 38.9648 36.4277 37.7832C36.4277 36.377 35.3145 35.8789 33.4297 35.0488L32.4043 34.6094C29.4355 33.3496 27.4727 31.7578 27.4727 28.4082C27.4727 25.3223 29.8262 22.9785 33.4883 22.9785C36.1055 22.9785 37.9805 23.8867 39.3281 26.2695L36.125 28.3203C35.4219 27.0605 34.6602 26.5625 33.4785 26.5625C32.2773 26.5625 31.5156 27.3242 31.5156 28.3203C31.5156 29.5508 32.2773 30.0488 34.0449 30.8203L35.0703 31.2598C38.5664 32.7539 40.5293 34.2871 40.5293 37.7246C40.5293 41.416 37.6191 43.4473 33.7227 43.4473V43.4473Z" fill="black"/>
</g>
<defs>
<clipPath id="clip0">
<rect width="43.75" height="50" fill="white" transform="translate(0.1875)"/>
</clipPath>
</defs>
</svg>
