<svg width="57" height="50" viewBox="0 0 57 50" fill="none" xmlns="http://www.w3.org/2000/svg">
<g clip-path="url(#clip0)">
<path d="M51.5625 43.75H4.6875C2.09863 43.75 0 41.6514 0 39.0625V10.9375C0 8.34863 2.09863 6.25 4.6875 6.25H51.5625C54.1514 6.25 56.25 8.34863 56.25 10.9375V39.0625C56.25 41.6514 54.1514 43.75 51.5625 43.75ZM12.5 17.5781V13.6719C12.5 13.0247 11.9753 12.5 11.3281 12.5H7.42188C6.77471 12.5 6.25 13.0247 6.25 13.6719V17.5781C6.25 18.2253 6.77471 18.75 7.42188 18.75H11.3281C11.9753 18.75 12.5 18.2253 12.5 17.5781ZM21.875 17.5781V13.6719C21.875 13.0247 21.3503 12.5 20.7031 12.5H16.7969C16.1497 12.5 15.625 13.0247 15.625 13.6719V17.5781C15.625 18.2253 16.1497 18.75 16.7969 18.75H20.7031C21.3503 18.75 21.875 18.2253 21.875 17.5781ZM31.25 17.5781V13.6719C31.25 13.0247 30.7253 12.5 30.0781 12.5H26.1719C25.5247 12.5 25 13.0247 25 13.6719V17.5781C25 18.2253 25.5247 18.75 26.1719 18.75H30.0781C30.7253 18.75 31.25 18.2253 31.25 17.5781ZM40.625 17.5781V13.6719C40.625 13.0247 40.1003 12.5 39.4531 12.5H35.5469C34.8997 12.5 34.375 13.0247 34.375 13.6719V17.5781C34.375 18.2253 34.8997 18.75 35.5469 18.75H39.4531C40.1003 18.75 40.625 18.2253 40.625 17.5781ZM50 17.5781V13.6719C50 13.0247 49.4753 12.5 48.8281 12.5H44.9219C44.2747 12.5 43.75 13.0247 43.75 13.6719V17.5781C43.75 18.2253 44.2747 18.75 44.9219 18.75H48.8281C49.4753 18.75 50 18.2253 50 17.5781ZM17.1875 26.9531V23.0469C17.1875 22.3997 16.6628 21.875 16.0156 21.875H12.1094C11.4622 21.875 10.9375 22.3997 10.9375 23.0469V26.9531C10.9375 27.6003 11.4622 28.125 12.1094 28.125H16.0156C16.6628 28.125 17.1875 27.6003 17.1875 26.9531ZM26.5625 26.9531V23.0469C26.5625 22.3997 26.0378 21.875 25.3906 21.875H21.4844C20.8372 21.875 20.3125 22.3997 20.3125 23.0469V26.9531C20.3125 27.6003 20.8372 28.125 21.4844 28.125H25.3906C26.0378 28.125 26.5625 27.6003 26.5625 26.9531ZM35.9375 26.9531V23.0469C35.9375 22.3997 35.4128 21.875 34.7656 21.875H30.8594C30.2122 21.875 29.6875 22.3997 29.6875 23.0469V26.9531C29.6875 27.6003 30.2122 28.125 30.8594 28.125H34.7656C35.4128 28.125 35.9375 27.6003 35.9375 26.9531ZM45.3125 26.9531V23.0469C45.3125 22.3997 44.7878 21.875 44.1406 21.875H40.2344C39.5872 21.875 39.0625 22.3997 39.0625 23.0469V26.9531C39.0625 27.6003 39.5872 28.125 40.2344 28.125H44.1406C44.7878 28.125 45.3125 27.6003 45.3125 26.9531ZM12.5 36.3281V32.4219C12.5 31.7747 11.9753 31.25 11.3281 31.25H7.42188C6.77471 31.25 6.25 31.7747 6.25 32.4219V36.3281C6.25 36.9753 6.77471 37.5 7.42188 37.5H11.3281C11.9753 37.5 12.5 36.9753 12.5 36.3281ZM40.625 36.3281V32.4219C40.625 31.7747 40.1003 31.25 39.4531 31.25H16.7969C16.1497 31.25 15.625 31.7747 15.625 32.4219V36.3281C15.625 36.9753 16.1497 37.5 16.7969 37.5H39.4531C40.1003 37.5 40.625 36.9753 40.625 36.3281ZM50 36.3281V32.4219C50 31.7747 49.4753 31.25 48.8281 31.25H44.9219C44.2747 31.25 43.75 31.7747 43.75 32.4219V36.3281C43.75 36.9753 44.2747 37.5 44.9219 37.5H48.8281C49.4753 37.5 50 36.9753 50 36.3281Z" fill="black"/>
</g>
<defs>
<clipPath id="clip0">
<rect width="56.25" height="50" fill="white"/>
</clipPath>
</defs>
</svg>
