<svg width="52" height="50" viewBox="0 0 52 50" fill="none" xmlns="http://www.w3.org/2000/svg">
<path d="M42.1453 2.13676H10.5214C9.51 2.13252 8.50781 2.32859 7.57263 2.71366C6.63744 3.09873 5.78776 3.66518 5.07262 4.38033C4.35747 5.09547 3.79102 5.94515 3.40595 6.88033C3.02088 7.81552 2.82481 8.81771 2.82905 9.82906V40.1709C2.82481 41.1823 3.02088 42.1845 3.40595 43.1197C3.79102 44.0549 4.35747 44.9045 5.07262 45.6197C5.78776 46.3348 6.63744 46.9013 7.57263 47.2863C8.50781 47.6714 9.51 47.8675 10.5214 47.8633H42.1453C43.1566 47.8675 44.1588 47.6714 45.094 47.2863C46.0292 46.9013 46.8789 46.3348 47.594 45.6197C48.3092 44.9045 48.8756 44.0549 49.2607 43.1197C49.6458 42.1845 49.8418 41.1823 49.8376 40.1709V9.82906C49.8418 8.81771 49.6458 7.81552 49.2607 6.88033C48.8756 5.94515 48.3092 5.09547 47.594 4.38033C46.8789 3.66518 46.0292 3.09873 45.094 2.71366C44.1588 2.32859 43.1566 2.13252 42.1453 2.13676V2.13676ZM26.9209 35.0962C26.9128 35.1736 26.8748 35.2449 26.8149 35.2948C26.7551 35.3447 26.6781 35.3692 26.6004 35.3632H14.9017V35.3098C14.6346 35.3098 14.5812 35.203 14.5812 34.9893V12.0192C14.5812 11.859 14.6346 11.7521 14.8483 11.7521H18.2137C18.3739 11.7521 18.4273 11.8056 18.4273 12.0192V31.7842H27.2414C27.4017 31.7842 27.4551 31.8376 27.4551 32.0513L26.9209 35.0962ZM38.8867 20.9402C38.8867 21.1004 38.8333 21.1538 38.6196 21.1538C37.2842 21.1004 35.3077 21.2607 34.5598 21.5812V35.0427C34.5598 35.203 34.5064 35.3098 34.2927 35.3098H30.9808C30.8205 35.3098 30.7137 35.2564 30.7137 35.0427V21.4744C30.7137 21.2073 30.7137 20.6197 30.6068 19.391C30.6068 19.2842 30.6602 19.1239 30.7671 19.1239C33.2715 18.1509 35.9328 17.644 38.6196 17.6282C38.7799 17.6282 38.8867 17.6816 38.8867 17.8419V20.9402Z" fill="black"/>
</svg>
