<svg width="36" height="50" viewBox="0 0 36 50" fill="none" xmlns="http://www.w3.org/2000/svg">
<g clip-path="url(#clip0)">
<path d="M10.1309 44.3692C10.1318 44.9835 10.3135 45.5851 10.6543 46.0968L12.3232 48.6056C12.6083 49.0344 12.995 49.3862 13.4489 49.6295C13.9028 49.8728 14.4098 50.0001 14.9248 50.0001H20.9512C21.4662 50.0001 21.9732 49.8728 22.427 49.6295C22.8809 49.3862 23.2676 49.0344 23.5527 48.6056L25.2217 46.0968C25.5624 45.585 25.7444 44.9841 25.7451 44.3692L25.749 40.6241H10.126L10.1309 44.3692ZM0.75 17.1866C0.75 21.5196 2.35645 25.4728 5.00391 28.4933C6.61719 30.3341 9.14062 34.1798 10.1025 37.4239C10.1064 37.4493 10.1094 37.4747 10.1133 37.5001H25.7617C25.7656 37.4747 25.7686 37.4503 25.7725 37.4239C26.7344 34.1798 29.2578 30.3341 30.8711 28.4933C33.5186 25.4728 35.125 21.5196 35.125 17.1866C35.125 7.67587 27.4014 -0.0301902 17.8838 -0.000893303C7.92187 0.0293801 0.75 8.10165 0.75 17.1866ZM17.9375 9.37411C13.6299 9.37411 10.125 12.879 10.125 17.1866C10.125 18.0499 9.42578 18.7491 8.5625 18.7491C7.69922 18.7491 7 18.0499 7 17.1866C7 11.1554 11.9063 6.24911 17.9375 6.24911C18.8008 6.24911 19.5 6.94833 19.5 7.81161C19.5 8.67489 18.8008 9.37411 17.9375 9.37411Z" fill="black"/>
</g>
<defs>
<clipPath id="clip0">
<rect width="36" height="50" fill="white"/>
</clipPath>
</defs>
</svg>
