<svg width="45" height="50" viewBox="0 0 45 50" fill="none" xmlns="http://www.w3.org/2000/svg">
<g clip-path="url(#clip0)">
<path d="M10.4805 43.75H1.41016V14.541H10.4805V43.75ZM5.94043 10.5566C3.04004 10.5566 0.6875 8.1543 0.6875 5.25391C0.6875 3.86074 1.24093 2.52464 2.22605 1.53952C3.21116 0.554409 4.54727 0.000976562 5.94043 0.000976562C7.33359 0.000976562 8.6697 0.554409 9.65481 1.53952C10.6399 2.52464 11.1934 3.86074 11.1934 5.25391C11.1934 8.1543 8.83984 10.5566 5.94043 10.5566ZM44.4277 43.75H35.377V29.5312C35.377 26.1426 35.3086 21.7969 30.6611 21.7969C25.9453 21.7969 25.2227 25.4785 25.2227 29.2871V43.75H16.1621V14.541H24.8613V18.5254H24.9883C26.1992 16.2305 29.1572 13.8086 33.5703 13.8086C42.75 13.8086 44.4375 19.8535 44.4375 27.7051V43.75H44.4277Z" fill="black"/>
</g>
<defs>
<clipPath id="clip0">
<rect width="43.75" height="50" fill="white" transform="translate(0.6875)"/>
</clipPath>
</defs>
</svg>
