<svg width="63" height="50" viewBox="0 0 63 50" fill="none" xmlns="http://www.w3.org/2000/svg">
<g clip-path="url(#clip0)">
<path d="M22 31.25H25.125V9.375H22C20.2744 9.375 18.875 10.7744 18.875 12.5V28.125C18.875 29.8506 20.2744 31.25 22 31.25ZM56.375 28.125V12.5C56.375 10.7744 54.9756 9.375 53.25 9.375H50.125V31.25H53.25C54.9756 31.25 56.375 29.8506 56.375 28.125ZM61.0625 37.5H12.625V1.5625C12.625 0.699219 11.9258 0 11.0625 0H1.6875C0.824219 0 0.125 0.699219 0.125 1.5625V4.6875C0.125 5.55078 0.824219 6.25 1.6875 6.25H6.375V42.1875C6.375 43.0508 7.07422 43.75 7.9375 43.75H16.0371C15.8623 44.2412 15.75 44.7617 15.75 45.3125C15.75 47.9014 17.8486 50 20.4375 50C23.0264 50 25.125 47.9014 25.125 45.3125C25.125 44.7617 25.0127 44.2412 24.8379 43.75H44.1621C43.9873 44.2412 43.875 44.7617 43.875 45.3125C43.875 47.9014 45.9736 50 48.5625 50C51.1514 50 53.25 47.9014 53.25 45.3125C53.25 44.7617 53.1377 44.2412 52.9629 43.75H61.0625C61.9258 43.75 62.625 43.0508 62.625 42.1875V39.0625C62.625 38.1992 61.9258 37.5 61.0625 37.5ZM47 9.375V4.6875C47 2.09863 44.9014 0 42.3125 0H32.9375C30.3486 0 28.25 2.09863 28.25 4.6875V31.25H47V9.375ZM42.3125 9.375H32.9375V4.6875H42.3125V9.375Z" fill="black"/>
</g>
<defs>
<clipPath id="clip0">
<rect width="62.5" height="50" fill="white" transform="translate(0.125)"/>
</clipPath>
</defs>
</svg>
