<svg width="57" height="50" viewBox="0 0 57 50" fill="none" xmlns="http://www.w3.org/2000/svg">
<g clip-path="url(#clip0)">
<path d="M16.25 43.75C13.75 43.75 11.25 41.5625 10 40.625C3.75 36.25 1.875 34.6875 0.625 33.75V46.875C0.625 48.6006 2.02441 50 3.75 50H28.75C30.4756 50 31.875 48.6006 31.875 46.875V33.75C30.625 34.6875 28.75 36.25 22.5 40.625C21.25 41.5625 18.75 43.75 16.25 43.75ZM28.75 25H3.75C2.02441 25 0.625 26.3994 0.625 28.125V29.6875C3.125 31.5625 2.8125 31.5625 11.875 38.125C12.8125 38.75 14.6875 40.625 16.25 40.625C17.8125 40.625 19.6875 38.75 20.625 38.4375C29.6875 31.875 29.375 31.875 31.875 30V28.125C31.875 26.3994 30.4756 25 28.75 25ZM53.75 15.625H22.5C20.7744 15.625 19.375 17.0244 19.375 18.75V21.875H28.75C31.9932 21.875 34.667 24.3574 34.9717 27.5215L35 27.5V40.625H53.75C55.4756 40.625 56.875 39.2256 56.875 37.5V18.75C56.875 17.0244 55.4756 15.625 53.75 15.625ZM50.625 28.125H44.375V21.875H50.625V28.125ZM16.25 18.75C16.25 15.3037 19.0537 12.5 22.5 12.5H44.375V3.125C44.375 1.39941 42.9756 0 41.25 0H10C8.27441 0 6.875 1.39941 6.875 3.125V21.875H16.25V18.75Z" fill="black"/>
</g>
<defs>
<clipPath id="clip0">
<rect width="56.25" height="50" fill="white" transform="translate(0.625)"/>
</clipPath>
</defs>
</svg>
