<svg width="44" height="50" viewBox="0 0 44 50" fill="none" xmlns="http://www.w3.org/2000/svg">
<path d="M32.4735 23.7813C32.775 23.7421 33.0803 23.7421 33.3817 23.7813C33.5439 23.4072 33.5722 22.7627 33.4257 22.0615C33.2079 21.0195 32.913 20.3877 32.3046 20.4863C31.6962 20.585 31.6728 21.3398 31.8905 22.3828C32.0136 22.9688 32.2314 23.4707 32.4765 23.7813H32.4735ZM27.2431 24.6094C27.6796 24.8047 27.9462 24.9277 28.0517 24.8174C28.2362 24.6279 27.7118 23.9004 26.8681 23.5391C26.3809 23.3372 25.8499 23.2642 25.3264 23.3272C24.8028 23.3901 24.3043 23.5869 23.8788 23.8984C23.5859 24.1113 23.3114 24.4082 23.3505 24.5879C23.4335 24.9531 24.3271 24.3232 25.5575 24.248C26.2411 24.2051 26.8075 24.4189 27.2431 24.6104V24.6094ZM26.3642 25.1104C25.4784 25.249 24.8993 25.748 25.0487 26.0967C25.1366 26.1299 25.163 26.1758 25.5575 26.0176C26.1403 25.7976 26.7701 25.732 27.3857 25.8271C27.6708 25.8604 27.8066 25.8779 27.8681 25.7793C28.0107 25.5625 27.3105 24.998 26.3651 25.1104H26.3642ZM31.6542 26.7803C31.9843 26.1094 30.5898 25.4199 30.2577 26.0967C29.9257 26.7734 31.3241 27.4521 31.6562 26.7773L31.6542 26.7803ZM33.1835 24.7812C32.4355 24.7686 32.4071 26.3242 33.1581 26.3369C33.9091 26.3496 33.9374 24.793 33.1855 24.7783L33.1835 24.7812ZM11.8173 32.4863C11.6884 32.5166 11.2314 32.6279 10.9901 32.2568C10.4823 31.4756 12.0751 30.2666 11.2831 28.7637C10.3944 27.0576 8.56632 27.4414 7.86027 28.2227C7.00968 29.1602 7.0087 30.5215 7.37198 30.5742C7.78898 30.6299 7.77042 29.9424 8.09269 29.4385C8.18274 29.2995 8.29943 29.1798 8.43603 29.0862C8.57263 28.9927 8.72641 28.9271 8.88851 28.8933C9.0506 28.8595 9.21778 28.8582 9.38039 28.8894C9.54299 28.9206 9.6978 28.9838 9.83585 29.0752C10.9677 29.8164 9.96964 30.8096 10.0585 31.8701C10.1943 33.499 11.8573 33.4688 12.1659 32.749C12.1859 32.7135 12.1947 32.6728 12.1912 32.6322C12.1877 32.5917 12.1721 32.5531 12.1464 32.5215C12.1493 32.6084 12.2128 32.3945 11.8193 32.4834L11.8173 32.4863ZM41.0868 30.8193C40.7597 29.6738 40.8359 29.9189 40.4247 28.8154C40.664 28.457 41.9179 26.4717 40.1249 24.5918C39.1093 23.5254 36.8144 22.9766 36.1112 22.7813C35.9648 21.6689 36.5653 17.0488 34.0097 14.6758C36.04 12.5713 37.3066 10.2529 37.3036 8.26465C37.2978 4.44043 32.6015 3.28418 26.8134 5.67969L25.5878 6.2002C25.5819 6.19531 23.37 4.02539 23.3368 3.9961C16.7401 -1.75781 -3.89169 21.1729 2.70499 26.7432L4.1464 27.9648C3.7574 29.0086 3.62022 30.1295 3.74601 31.2363C4.07413 34.498 7.26163 37.1367 10.3407 37.1328C15.9784 50.127 36.5028 50.1484 41.8144 37.4258C41.9843 36.9893 42.704 35.0225 42.704 33.2871C42.704 31.5518 41.7187 30.8193 41.0898 30.8193H41.0868ZM10.2275 35.5225C7.99894 35.4629 5.59269 33.457 5.35343 31.0781C4.75089 25.0908 12.6054 23.7275 13.5566 29.874C13.9999 32.7686 13.1005 35.5859 10.2245 35.5195L10.2275 35.5225ZM8.41984 24.3701C6.93937 24.6582 5.63468 25.4971 4.83585 26.6602C4.35929 26.2627 3.46866 25.4883 3.31339 25.1953C2.04288 22.7686 4.70402 18.0664 6.56534 15.4092C11.1659 8.84375 18.37 3.875 21.7069 4.77637C22.2489 4.92969 24.0448 7.01172 24.0448 7.01172C24.0448 7.01172 20.7099 8.86133 17.6191 11.4404C13.453 14.6484 10.3056 19.3105 8.41984 24.3701ZM31.748 34.248C31.748 34.248 28.2577 34.7656 24.9599 33.5576C25.5663 31.5889 27.5966 34.1533 34.3739 32.209C35.8671 31.7813 37.828 30.9395 39.3544 29.7334C39.6829 30.4921 39.9164 31.2885 40.0497 32.1045C40.4071 32.04 41.4413 32.0537 41.1669 33.8721C40.8456 35.8125 40.0214 37.3877 38.6347 38.8369C37.7685 39.7755 36.7374 40.547 35.5927 41.1133C34.955 41.4474 34.2906 41.7276 33.6064 41.9512C28.3808 43.6582 23.0302 41.7812 21.3017 37.752C21.1615 37.4444 21.0456 37.1264 20.955 36.8008C20.2196 34.1445 20.8437 30.958 22.7948 28.9521C22.915 28.8242 23.037 28.6738 23.037 28.4844C23.02 28.3212 22.9547 28.1669 22.8495 28.041C22.1659 27.0518 19.8036 25.3652 20.2782 22.1006C20.62 19.7568 22.6698 18.1055 24.5819 18.2031L25.0702 18.2314C25.8984 18.2803 26.622 18.3867 27.3046 18.415C28.4462 18.4639 29.4726 18.2988 30.6874 17.2861C31.0976 16.9443 31.4267 16.6475 31.9823 16.5527C32.207 16.4971 32.4406 16.4878 32.6689 16.5254C32.8972 16.563 33.1155 16.6468 33.3105 16.7715C34.287 17.4199 34.4237 18.9912 34.4745 20.1396C34.5028 20.7959 34.5819 22.3857 34.6093 22.8379C34.6708 23.8799 34.9442 24.0264 35.4989 24.2051C35.8105 24.3076 36.0995 24.3838 36.5253 24.5039C37.8153 24.8662 38.5761 25.2344 39.0644 25.7061C39.3134 25.95 39.4759 26.2685 39.5273 26.6133C39.6796 27.7236 38.6659 29.0937 35.9814 30.3398C31.4198 32.457 26.8329 31.751 26.1689 31.6758C24.2011 31.4111 23.08 33.9531 24.2597 35.6943C26.4706 38.957 36.2128 37.6475 39.0419 33.6094C39.1093 33.5117 39.0536 33.4541 38.9706 33.5117C34.8915 36.3027 29.4921 37.2432 26.4257 36.0508C25.9599 35.8701 24.9872 35.4219 24.8691 34.4229C29.1269 35.7402 31.8026 34.4951 31.8026 34.4951C31.8026 34.4951 32.0009 34.2227 31.748 34.248V34.248ZM16.9169 15.3809C18.5517 13.4912 20.5653 11.8477 22.3691 10.9248C22.3827 10.9167 22.3986 10.9134 22.4143 10.9154C22.43 10.9174 22.4446 10.9246 22.4558 10.9358C22.467 10.9469 22.4741 10.9615 22.4761 10.9772C22.4781 10.9929 22.4748 11.0088 22.4667 11.0225C22.3241 11.2822 22.0478 11.8369 21.9599 12.2578C21.9564 12.2723 21.9574 12.2875 21.9627 12.3014C21.9681 12.3153 21.9775 12.3272 21.9898 12.3356C22.0021 12.3439 22.0167 12.3484 22.0316 12.3483C22.0465 12.3482 22.061 12.3435 22.0732 12.335C23.1952 11.5703 25.1474 10.751 26.8583 10.6455C26.8744 10.6444 26.8905 10.6485 26.9041 10.6573C26.9177 10.666 26.9281 10.6789 26.9338 10.694C26.9395 10.7091 26.9402 10.7257 26.9357 10.7412C26.9313 10.7568 26.9219 10.7705 26.9091 10.7803C26.6262 10.9983 26.373 11.2524 26.1562 11.5361C26.1483 11.5469 26.1436 11.5597 26.1425 11.573C26.1414 11.5863 26.1439 11.5997 26.1498 11.6117C26.1558 11.6236 26.1649 11.6337 26.1761 11.6409C26.1874 11.6481 26.2004 11.652 26.2138 11.6523C27.4159 11.6611 29.1103 12.082 30.2177 12.7012C30.2919 12.7432 30.2392 12.8877 30.1552 12.8691C23.3632 11.3125 18.1357 14.6787 17.0204 15.4893C17.0056 15.4988 16.9878 15.5028 16.9702 15.5004C16.9527 15.498 16.9366 15.4895 16.9249 15.4763C16.9131 15.4631 16.9064 15.4462 16.906 15.4285C16.9056 15.4108 16.9116 15.3936 16.9228 15.3799L16.9169 15.3809Z" fill="black"/>
</svg>
