<svg width="57" height="50" viewBox="0 0 57 50" fill="none" xmlns="http://www.w3.org/2000/svg">
<path d="M28.75 0C21.9541 0 16.4453 5.50879 16.4453 12.3047C16.4453 17.7988 24.4873 27.8125 27.5684 31.4473C28.1924 32.1836 29.3086 32.1836 29.9316 31.4473C33.0127 27.8125 41.0547 17.7988 41.0547 12.3047C41.0547 5.50879 35.5459 0 28.75 0ZM28.75 16.4062C26.4844 16.4062 24.6484 14.5703 24.6484 12.3047C24.6484 10.0391 26.4844 8.20312 28.75 8.20312C31.0156 8.20312 32.8516 10.0391 32.8516 12.3047C32.8516 14.5703 31.0156 16.4062 28.75 16.4062ZM2.58984 21.0889C2.00994 21.3208 1.51282 21.7212 1.16261 22.2383C0.812391 22.7555 0.625139 23.3657 0.625 23.9902V48.4355C0.625 49.541 1.74121 50.2969 2.76758 49.8867L16.25 43.75V20.9883C15.3867 19.4277 14.6807 17.9082 14.1748 16.4551L2.58984 21.0889ZM28.75 35.124C27.376 35.124 26.0762 34.5205 25.1846 33.4678C23.2646 31.2021 21.2227 28.6221 19.375 25.9756V43.749L38.125 49.999V25.9766C36.2773 28.6221 34.2363 31.2031 32.3154 33.4688C31.4238 34.5205 30.124 35.124 28.75 35.124ZM54.7324 15.7383L41.25 21.875V50L54.9102 44.5361C55.4901 44.3043 55.9873 43.904 56.3376 43.3868C56.6878 42.8696 56.875 42.2594 56.875 41.6348V17.1895C56.875 16.084 55.7588 15.3281 54.7324 15.7383Z" fill="black"/>
</svg>
