<svg width="64" height="50" viewBox="0 0 64 50" fill="none" xmlns="http://www.w3.org/2000/svg">
<path d="M58.9258 5.77148H5.44922C2.95898 5.77148 0.9375 7.79297 0.9375 10.2735V39.7168C0.9375 42.2071 2.95898 44.2285 5.44922 44.2285H58.9355C61.4258 44.2285 63.4473 42.2071 63.4375 39.7266V10.2735C63.4375 7.79297 61.416 5.77148 58.9258 5.77148ZM33.9941 35.2149H27.9883V23.4961L21.9824 31.0059L15.9766 23.4961V35.2149H9.95117V14.7852H15.957L21.9629 22.295L27.9687 14.7852H33.9746V35.2149H33.9941ZM47.207 35.5176L38.1934 25H44.1992V14.7852H50.2051V25H56.2109L47.207 35.5176Z" fill="black"/>
</svg>
