<svg width="38" height="50" viewBox="0 0 38 50" fill="none" xmlns="http://www.w3.org/2000/svg">
<path d="M36.7031 6.25H28.9883C27.9434 6.25 27.4258 7.50977 28.1582 8.25195L29.8086 9.90234L21.9277 17.7832C19.7598 16.416 17.1914 15.625 14.4375 15.625C6.67383 15.625 0.375 21.9238 0.375 29.6875C0.375 37.4512 6.67383 43.75 14.4375 43.75C22.2012 43.75 28.5 37.4512 28.5 29.6875C28.5 26.9336 27.709 24.3652 26.3418 22.1973L34.2227 14.3164L35.873 15.9668C36.6152 16.709 37.875 16.1816 37.875 15.1367V7.42188C37.875 6.77734 37.3477 6.25 36.7031 6.25ZM14.4375 37.5C10.1309 37.5 6.625 33.9941 6.625 29.6875C6.625 25.3809 10.1309 21.875 14.4375 21.875C18.7441 21.875 22.25 25.3809 22.25 29.6875C22.25 33.9941 18.7441 37.5 14.4375 37.5Z" fill="black"/>
</svg>
