<svg width="51" height="50" viewBox="0 0 51 50" fill="none" xmlns="http://www.w3.org/2000/svg">
<path d="M7.41992 13.8965C7.47852 13.3203 7.25391 12.7441 6.82422 12.3535L2.41992 7.04102V6.25H16.1113L26.6972 29.4629L36.0039 6.25H49.0605V7.04102L45.291 10.6543C44.9687 10.8984 44.8027 11.3086 44.8711 11.709V38.2715C44.8027 38.6719 44.9687 39.082 45.291 39.3262L48.9726 42.9395V43.7305H30.4472V42.9395L34.2656 39.2383C34.6367 38.8672 34.6367 38.75 34.6367 38.1836V16.7187L24.0214 43.6621H22.5859L10.2421 16.7187V34.7754C10.1347 35.5371 10.3886 36.2988 10.9257 36.8457L15.8867 42.8613V43.6523H1.82422V42.8711L6.78516 36.8457C7.3125 36.2988 7.55664 35.5273 7.41992 34.7754V13.8965Z" fill="black"/>
</svg>
