<svg width="51" height="50" viewBox="0 0 51 50" fill="none" xmlns="http://www.w3.org/2000/svg">
<path d="M7.41998 13.8965C7.47858 13.3203 7.25397 12.7441 6.82428 12.3535L2.41998 7.04102V6.25H16.1114L26.6973 29.4629L36.004 6.25H49.0606V7.04102L45.2911 10.6543C44.9688 10.8984 44.8028 11.3086 44.8712 11.709V38.2715C44.8028 38.6719 44.9688 39.082 45.2911 39.3262L48.9727 42.9395V43.7305H30.4473V42.9395L34.2657 39.2383C34.6368 38.8672 34.6368 38.75 34.6368 38.1836V16.7187L24.0215 43.6621H22.586L10.2422 16.7187V34.7754C10.1348 35.5371 10.3887 36.2988 10.9258 36.8457L15.8868 42.8613V43.6523H1.82428V42.8711L6.78522 36.8457C7.31256 36.2988 7.5567 35.5273 7.41998 34.7754V13.8965Z" fill="black"/>
</svg>
