<svg width="101" height="50" viewBox="0 0 101 50" fill="none" xmlns="http://www.w3.org/2000/svg">
<path d="M14.125 4.29163L15.0333 5.99997C15.2293 6.30235 15.4585 6.58186 15.7167 6.8333C16.4801 7.58817 17.1927 8.3927 17.85 9.24163C19.351 11.2466 20.48 13.5046 21.1833 15.9083C21.6275 17.385 21.8631 18.9164 21.8833 20.4583C21.9523 22.648 21.5715 24.8286 20.7645 26.8653C19.9576 28.902 18.7416 30.7517 17.1917 32.3C16.6755 32.8192 16.1181 33.2957 15.525 33.725C15.2083 33.725 15.0583 33.475 14.925 33.2583C14.6842 32.8492 14.5283 32.3957 14.4667 31.925C14.3396 31.3791 14.2891 30.8181 14.3167 30.2583V30C14.3167 29.95 14.0167 4.39163 14.125 4.2583V4.29163Z" fill="black"/>
<path d="M14.125 4.24171C14.125 4.16671 14.05 4.24171 14.0083 4.24171C14.0168 4.60611 13.9055 4.96323 13.6917 5.25837C13.452 5.5718 13.1718 5.85203 12.8583 6.09171C11.2291 7.532 9.87643 9.25748 8.86666 11.1834C7.52437 13.7692 6.74075 16.6084 6.56666 19.5167C6.58049 21.4798 6.80681 23.4357 7.24166 25.35C8.16476 28.1438 9.76849 30.6639 11.9083 32.6834C12.4366 33.1842 12.993 33.6544 13.575 34.0917C13.7417 34.0917 13.7583 33.9417 13.8 33.8334C13.8667 33.5917 13.925 33.35 13.9667 33.1084C14.1333 32.1834 14.225 31.25 14.3333 30.325L14.1333 4.24171H14.125Z" fill="black"/>
<path d="M15.0333 34.9167C15.0967 34.5072 15.2566 34.1187 15.5 33.7834C15.2791 33.6806 15.0957 33.5117 14.975 33.3C14.8681 33.1045 14.7761 32.9011 14.7 32.6917C14.4792 31.909 14.3478 31.1039 14.3083 30.2917V29.8083C14.2224 30.0774 14.1857 30.3597 14.2 30.6417C14.1446 31.4815 14.0332 32.3167 13.8667 33.1417C13.8411 33.4825 13.7385 33.813 13.5667 34.1084C13.5595 34.1497 13.5595 34.192 13.5667 34.2334C13.8644 35.2094 14.027 36.2215 14.05 37.2417V37.6084C14.05 38.0584 14.05 37.9667 14.4083 38.1084C14.5705 38.1469 14.7253 38.2116 14.8667 38.3C14.9833 38.3 15 38.2084 15 38.1334L14.9583 37.5V35.7834C14.9597 35.504 14.9848 35.2252 15.0333 34.95V34.9167Z" fill="black"/>
<path d="M29.125 27.1583V28.925C29.1168 28.9942 29.1168 29.0641 29.125 29.1333C29.1314 29.2256 29.1673 29.3134 29.2273 29.3839C29.2872 29.4544 29.3682 29.5038 29.4583 29.525C29.6361 29.5739 29.8171 29.6101 30 29.6333C30.1 29.6333 30.1333 29.6916 30.15 29.8C30.15 30.2 30.15 30.2416 29.7417 30.225C28.848 30.1708 27.9519 30.1708 27.0583 30.225H26.9667C26.6917 30.225 26.6667 30.225 26.6667 29.9333C26.6667 29.8833 26.6667 29.825 26.6667 29.775C26.6652 29.7574 26.6677 29.7398 26.6741 29.7234C26.6804 29.707 26.6903 29.6923 26.7031 29.6803C26.716 29.6682 26.7313 29.6593 26.7481 29.654C26.7649 29.6488 26.7826 29.6474 26.8 29.65C26.9917 29.65 27.1667 29.5833 27.3417 29.55C27.451 29.5298 27.5505 29.4738 27.6244 29.3908C27.6984 29.3078 27.7426 29.2025 27.75 29.0916C27.7674 28.8141 27.7674 28.5358 27.75 28.2583V25.1583C27.7536 25.0677 27.7312 24.978 27.6854 24.8997C27.6396 24.8214 27.5724 24.7579 27.4917 24.7166C27.283 24.601 27.0622 24.5088 26.8333 24.4416C26.7647 24.4257 26.6978 24.4034 26.6333 24.375C26.4667 24.2916 26.4583 24.1416 26.6333 24.0416C26.6923 24.0072 26.7574 23.9845 26.825 23.975C27.5673 23.8819 28.2969 23.7058 29 23.45C29.1333 23.4083 29.175 23.45 29.1833 23.5583C29.1958 23.6468 29.1958 23.7365 29.1833 23.825C29.1711 23.9719 29.1711 24.1197 29.1833 24.2666C29.1787 24.2954 29.1825 24.3249 29.1943 24.3516C29.2062 24.3782 29.2255 24.4008 29.25 24.4166C29.3083 24.4166 29.3667 24.4166 29.425 24.4166C29.663 24.2302 29.9136 24.0603 30.175 23.9083C30.5546 23.6814 30.9726 23.526 31.4083 23.45C31.6599 23.4132 31.9164 23.4322 32.1598 23.5057C32.4032 23.5791 32.6274 23.7052 32.8167 23.875C32.9877 24.0222 33.1365 24.1934 33.2583 24.3833C33.375 24.55 33.3917 24.5583 33.5417 24.4416C33.9761 24.1086 34.4489 23.8288 34.95 23.6083C35.4361 23.383 35.9889 23.3473 36.5 23.5083C36.7578 23.6019 36.9928 23.7491 37.1896 23.9401C37.3864 24.1312 37.5404 24.3617 37.6417 24.6166C37.8209 25.0264 37.9118 25.4694 37.9083 25.9166V29.0333C37.9027 29.1285 37.9281 29.223 37.9807 29.3027C38.0333 29.3823 38.1102 29.4427 38.2 29.475C38.4236 29.5579 38.6555 29.6165 38.8917 29.65C39.05 29.65 39.05 29.65 39.05 29.8416C39.05 30.225 38.9917 30.25 38.6167 30.225C37.6842 30.1666 36.7491 30.1666 35.8167 30.225C35.625 30.225 35.625 30.225 35.6167 30.05V30C35.6167 29.6833 35.6167 29.6833 35.9083 29.6166L36.2083 29.5333C36.3097 29.5091 36.4001 29.4516 36.4651 29.3701C36.53 29.2885 36.5658 29.1876 36.5667 29.0833L36.6083 28.25V25.9666C36.5997 25.7638 36.5575 25.5639 36.4833 25.375C36.3643 25.0727 36.146 24.8198 35.8644 24.6578C35.5828 24.4958 35.2545 24.4343 34.9333 24.4833C34.477 24.5355 34.0427 24.7081 33.675 24.9833C33.6315 25.0054 33.596 25.0407 33.5736 25.084C33.5512 25.1274 33.5429 25.1767 33.55 25.225C33.6096 25.9679 33.6235 26.7137 33.5917 27.4583V29.075C33.5835 29.1343 33.5876 29.1947 33.6035 29.2524C33.6194 29.3101 33.6469 29.364 33.6844 29.4108C33.7218 29.4576 33.7683 29.4962 33.8211 29.5245C33.874 29.5527 33.932 29.5699 33.9917 29.575L34.525 29.6916C34.6083 29.6916 34.6583 29.7416 34.6583 29.8333V29.9166C34.6583 30.2416 34.6583 30.2583 34.2917 30.2583C33.3667 30.2083 32.4333 30.2583 31.5167 30.2583C31.2 30.2583 31.175 30.2583 31.1917 29.9166C31.2083 29.575 31.1917 29.7166 31.4 29.6833L31.7833 29.6166C32.125 29.5416 32.25 29.4166 32.2667 29.0583V28.275V25.9333C32.248 25.6401 32.1625 25.355 32.0167 25.1C31.9165 24.8963 31.7609 24.7249 31.5679 24.6055C31.3748 24.4862 31.152 24.4236 30.925 24.425C30.4443 24.4157 29.9716 24.5491 29.5667 24.8083C29.4337 24.869 29.3234 24.9702 29.2515 25.0974C29.1797 25.2247 29.1499 25.3714 29.1667 25.5166V27.1833L29.125 27.1583ZM51.0333 27.225V28.8916C51.0251 29.0082 51.0251 29.1251 51.0333 29.2416C51.0384 29.3181 51.0678 29.3909 51.1173 29.4494C51.1668 29.5079 51.2338 29.549 51.3083 29.5666C51.5091 29.6249 51.7161 29.6584 51.925 29.6666C52.0417 29.6666 52.0667 29.725 52.0833 29.825V29.9C52.0833 30.3083 52.025 30.3583 51.625 30.3333C50.7425 30.2792 49.8575 30.2792 48.975 30.3333H48.6333C48.6103 30.3358 48.5871 30.3294 48.5686 30.3155C48.55 30.3016 48.5374 30.2811 48.5333 30.2583C48.4917 30.0971 48.4917 29.9279 48.5333 29.7666C48.5333 29.7 48.5833 29.6833 48.6583 29.6666L49.1333 29.575C49.1922 29.5708 49.2495 29.5549 49.3021 29.5282C49.3547 29.5015 49.4014 29.4645 49.4395 29.4194C49.4775 29.3744 49.5062 29.3222 49.5237 29.2659C49.5413 29.2096 49.5474 29.1503 49.5417 29.0916V28.1083V25.2333C49.5473 25.1424 49.5247 25.0519 49.477 24.9744C49.4293 24.8968 49.3587 24.8359 49.275 24.8C49.0593 24.6933 48.8365 24.6014 48.6083 24.525C48.5397 24.5022 48.4728 24.4744 48.4083 24.4416C48.3753 24.4238 48.3476 24.3973 48.3284 24.365C48.3091 24.3328 48.2989 24.2959 48.2989 24.2583C48.2989 24.2207 48.3091 24.1838 48.3284 24.1516C48.3476 24.1193 48.3753 24.0928 48.4083 24.075C48.4728 24.0166 48.5549 23.9815 48.6417 23.975C49.3802 23.8726 50.1045 23.6853 50.8 23.4166C50.8833 23.4166 50.9167 23.4166 50.95 23.475C50.9789 23.5501 50.9789 23.6332 50.95 23.7083V24.2583C50.95 24.325 50.95 24.425 50.95 24.45C50.95 24.475 51.0667 24.3916 51.125 24.3666C51.4953 24.0768 51.9014 23.836 52.3333 23.65C52.6902 23.464 53.0896 23.3749 53.4917 23.3916C53.8452 23.411 54.1869 23.5258 54.4804 23.7239C54.7739 23.922 55.0082 24.196 55.1583 24.5166C55.3353 24.882 55.44 25.2782 55.4667 25.6833V26.5166V29.0916C55.4633 29.1792 55.4893 29.2654 55.5407 29.3364C55.5921 29.4074 55.6658 29.4591 55.75 29.4833C55.9537 29.5509 56.1628 29.601 56.375 29.6333C56.5583 29.6333 56.575 29.6916 56.5833 29.8666V29.925C56.5833 30.325 56.5333 30.3333 56.1417 30.3083C55.2729 30.2583 54.4021 30.2583 53.5333 30.3083H53.2C53.125 30.3083 53.0833 30.3083 53.0667 30.2333C53.0376 30.0791 53.0376 29.9208 53.0667 29.7666C53.0667 29.6916 53.0667 29.6583 53.1917 29.65L53.725 29.5666C53.8068 29.5499 53.8814 29.5079 53.9382 29.4467C53.995 29.3854 54.0312 29.3079 54.0417 29.225V28.9V26.4916C54.0461 26.212 54.0209 25.9327 53.9667 25.6583C53.9099 25.3711 53.7614 25.1102 53.5434 24.9148C53.3255 24.7194 53.05 24.6001 52.7583 24.575C52.2417 24.523 51.7231 24.6526 51.2917 24.9416C51.1929 25.0025 51.1122 25.0887 51.058 25.1913C51.0038 25.2938 50.978 25.4091 50.9833 25.525V27.2833L51.0333 27.225Z" fill="black"/>
<path d="M85.0917 23.9333C84.9788 23.1016 84.6385 22.3172 84.1083 21.6666C83.6368 21.0834 83.0265 20.6279 82.3333 20.3416C81.5961 20.0617 80.8135 19.9205 80.025 19.925C79.7 19.925 75.2583 19.9833 74.9333 19.925C74.8988 19.9147 74.8618 19.9166 74.8285 19.9302C74.7952 19.9439 74.7675 19.9685 74.75 20C74.6888 20.0851 74.6384 20.1774 74.6 20.275C74.4583 20.5833 74.4583 20.5583 74.7917 20.6083C75.0724 20.6399 75.3508 20.69 75.625 20.7583C75.742 20.788 75.8485 20.8498 75.9324 20.9366C76.0162 21.0235 76.0743 21.132 76.1 21.25C76.1 21.375 76.15 25.4666 76.15 27.375L76.1 28.7416C76.0934 28.8437 76.0738 28.9445 76.0417 29.0416C76.0234 29.1109 75.9901 29.1752 75.9439 29.23C75.8978 29.2847 75.8401 29.3285 75.775 29.3583C75.6189 29.4261 75.4529 29.4683 75.2833 29.4833C74.975 29.4833 74.925 29.5333 74.825 29.875V30.0083C74.825 30.1583 74.825 30.1833 74.9583 30.1833H78.4417H79.8L80.6667 30.075C81.7167 29.8922 82.6966 29.4253 83.5 28.725C83.9679 28.3169 84.3478 27.8179 84.6167 27.2583C84.9269 26.6093 85.0972 25.9023 85.1167 25.1833C85.1795 24.769 85.1795 24.3476 85.1167 23.9333H85.0917ZM83.425 25.6C83.401 26.3418 83.2011 27.0673 82.8417 27.7166C82.6277 28.1353 82.3242 28.5017 81.9526 28.7898C81.581 29.0779 81.1505 29.2805 80.6917 29.3833C80.2744 29.4835 79.8427 29.5089 79.4167 29.4583C79.1082 29.4346 78.8035 29.3759 78.5083 29.2833C78.2877 29.2236 78.095 29.0882 77.964 28.9008C77.833 28.7135 77.772 28.4861 77.7917 28.2583V21.25C77.7917 20.8333 77.9833 20.7416 78.2833 20.725C78.7379 20.6834 79.1954 20.6834 79.65 20.725C80.1339 20.7675 80.6087 20.8827 81.0583 21.0666C81.3975 21.1998 81.7106 21.3916 81.9833 21.6333C82.5968 22.1591 83.0406 22.8552 83.2583 23.6333C83.4267 24.2659 83.4887 24.922 83.4417 25.575L83.425 25.6ZM94.775 26.7416C94.779 26.675 94.779 26.6082 94.775 26.5416C94.7242 26.239 94.6123 25.95 94.4461 25.6921C94.2799 25.4342 94.0629 25.2129 93.8083 25.0416C93.4669 24.8095 93.0896 24.6349 92.6917 24.525C92.6277 24.4972 92.5605 24.4776 92.4917 24.4666C92.496 24.4462 92.5062 24.4274 92.521 24.4126C92.5358 24.3978 92.5545 24.3877 92.575 24.3833C92.8088 24.2732 93.0273 24.1332 93.225 23.9666C93.5778 23.6727 93.8311 23.2768 93.95 22.8333C94.0413 22.4166 94.0113 21.9824 93.8636 21.5822C93.7159 21.182 93.4567 20.8325 93.1167 20.575C92.5888 20.1999 91.9558 20.0015 91.3083 20.0083C90.05 20.0083 88.8083 20.0083 87.525 20.0083C87.1617 20.0372 86.7966 20.0372 86.4333 20.0083C86.3958 19.9925 86.3546 19.9881 86.3146 19.9955C86.2746 20.0029 86.2377 20.0218 86.2083 20.05C86.1126 20.1994 86.0395 20.3623 85.9917 20.5333C85.9917 20.6083 85.9917 20.6583 86.0917 20.6666L86.925 20.7833C87.062 20.7878 87.193 20.8403 87.2951 20.9318C87.3972 21.0232 87.4638 21.1476 87.4833 21.2833C87.4955 21.4775 87.4955 21.6724 87.4833 21.8666V24.0416V28.3333C87.4803 28.5882 87.4524 28.8422 87.4 29.0916C87.388 29.1723 87.3535 29.2479 87.3004 29.3098C87.2473 29.3717 87.1779 29.4174 87.1 29.4416C86.8745 29.5214 86.6388 29.5691 86.4 29.5833C86.3356 29.5761 86.2707 29.5912 86.2161 29.6261C86.1615 29.661 86.1205 29.7135 86.1 29.775C86.0502 29.8782 86.0138 29.9875 85.9917 30.1C85.9917 30.2416 85.9917 30.2916 86.1417 30.275C86.2917 30.2583 90.0833 30.3583 90.8083 30.275C91.2403 30.2418 91.6676 30.1636 92.0833 30.0416C92.8136 29.8278 93.4746 29.4254 94 28.875C94.4422 28.43 94.701 27.8351 94.725 27.2083C94.7415 27.0532 94.7415 26.8967 94.725 26.7416H94.775ZM89.1333 21.975V21.05C89.1286 21.014 89.1316 20.9775 89.1419 20.9428C89.1522 20.9081 89.1698 20.8759 89.1933 20.8484C89.2169 20.8209 89.246 20.7987 89.2787 20.7832C89.3115 20.7676 89.3471 20.7592 89.3833 20.7583C89.6601 20.725 89.9399 20.725 90.2167 20.7583C90.4987 20.7758 90.778 20.8232 91.05 20.9C91.4083 20.9918 91.7271 21.1974 91.9585 21.4859C92.1899 21.7744 92.3214 22.1303 92.3333 22.5C92.3532 22.8258 92.3049 23.1521 92.1917 23.4583C92.112 23.6621 91.9812 23.842 91.8119 23.9806C91.6426 24.1193 91.4405 24.212 91.225 24.25C90.5792 24.3031 89.9308 24.317 89.2833 24.2916C89.1083 24.2916 89.1 24.2916 89.1 24.1V22.9916C89.075 22.6504 89.075 22.3078 89.1 21.9666L89.1333 21.975ZM92.9167 28.2333C92.8278 28.4816 92.6854 28.7073 92.4997 28.8945C92.3139 29.0817 92.0893 29.2258 91.8417 29.3166C91.5767 29.4218 91.2933 29.4728 91.0083 29.4666C90.6486 29.4707 90.289 29.4456 89.9333 29.3916C89.7295 29.3395 89.5474 29.2245 89.4127 29.0629C89.2781 28.9014 89.1978 28.7014 89.1833 28.4916C89.125 27.8916 89.1833 27.2916 89.1833 26.825V25.3C89.1833 25.1083 89.1833 25.05 89.4083 25.05H90.5L91.2417 25.1333C91.7631 25.2242 92.2435 25.4746 92.6167 25.85C92.9093 26.1686 93.0855 26.5768 93.1167 27.0083C93.1614 27.4084 93.1129 27.8134 92.975 28.1916L92.9167 28.2333Z" fill="black"/>
<path d="M63.35 24.7167L63.65 24.7584C63.8336 24.7866 64.0211 24.7448 64.1754 24.6415C64.3297 24.5381 64.4396 24.3806 64.4833 24.2C64.55 23.9857 64.55 23.7561 64.4833 23.5417C64.4167 23.5417 64.3833 23.5917 64.35 23.6167C64.1831 23.7535 63.9808 23.8402 63.7667 23.8667C63.348 23.9184 62.9231 23.8727 62.525 23.7334L61.95 23.5417C61.5533 23.4078 61.1346 23.3513 60.7167 23.375C60.1317 23.4375 59.5651 23.616 59.05 23.9C58.7773 24.0411 58.5357 24.2355 58.3396 24.4717C58.1435 24.7079 57.9968 24.9811 57.9083 25.275C57.8114 25.6333 57.7887 26.0077 57.8417 26.375C57.8764 26.7661 58.0219 27.1391 58.261 27.4505C58.5 27.7619 58.8229 27.9988 59.1917 28.1334L59.3167 28.1834C59.425 28.2417 59.4333 28.3 59.3167 28.375L59.025 28.575L58.325 29.0084C58.2897 29.0208 58.2576 29.0406 58.2307 29.0666C58.2039 29.0926 58.183 29.1242 58.1696 29.159C58.1561 29.1939 58.1504 29.2313 58.1527 29.2685C58.1551 29.3058 58.1655 29.3422 58.1833 29.375C58.2542 29.5923 58.384 29.7856 58.5583 29.9334C58.7154 30.0725 58.896 30.1826 59.0917 30.2584C59.225 30.3167 59.225 30.35 59.0917 30.45L58.425 30.925C58.1994 31.0908 57.9901 31.2778 57.8 31.4834C57.68 31.6206 57.594 31.7841 57.5491 31.9608C57.5043 32.1374 57.5017 32.3222 57.5417 32.5C57.6294 32.9161 57.8485 33.293 58.1667 33.575C58.4663 33.8578 58.8336 34.0587 59.2333 34.1584C60.0162 34.36 60.8384 34.3514 61.6169 34.1333C62.3953 33.9153 63.1024 33.4956 63.6667 32.9167C64.1109 32.4716 64.3751 31.878 64.4083 31.25C64.4199 30.8704 64.3014 30.4983 64.0726 30.1952C63.8437 29.8921 63.5182 29.6762 63.15 29.5834L62.525 29.4667L60.6083 29.2917C60.4015 29.2935 60.1977 29.2419 60.0167 29.1417C59.9664 29.1153 59.9223 29.0785 59.8874 29.0337C59.8525 28.9889 59.8275 28.9372 59.8141 28.882C59.8007 28.8269 59.7992 28.7695 59.8097 28.7136C59.8202 28.6578 59.8424 28.6049 59.875 28.5584C59.9207 28.496 59.9794 28.4444 60.047 28.407C60.1146 28.3696 60.1896 28.3473 60.2667 28.3417H60.6417C61.378 28.265 62.0689 27.9488 62.6083 27.4417C62.8974 27.1437 63.0917 26.7667 63.1667 26.3584C63.2958 25.8554 63.2958 25.328 63.1667 24.825C63.1667 24.7 63.1667 24.6834 63.3 24.7084L63.35 24.7167ZM60.5 30.55H60.7083C61.2025 30.5566 61.6944 30.6181 62.175 30.7334C62.3287 30.7816 62.4791 30.8401 62.625 30.9084C62.8338 31.0176 63.0026 31.1901 63.1074 31.4012C63.2122 31.6122 63.2475 31.851 63.2083 32.0834C63.1776 32.3287 63.085 32.5622 62.9392 32.7619C62.7934 32.9616 62.5993 33.121 62.375 33.225C62.0696 33.3834 61.7349 33.477 61.3917 33.5C61.2668 33.5084 61.1415 33.5084 61.0167 33.5C60.6098 33.5111 60.2056 33.4314 59.8333 33.2667C59.5718 33.1629 59.3358 33.0037 59.1417 32.8C59.0219 32.6871 58.9264 32.5508 58.8612 32.3996C58.7959 32.2485 58.7623 32.0855 58.7623 31.9209C58.7623 31.7562 58.7959 31.5933 58.8612 31.4421C58.9264 31.2909 59.0219 31.1547 59.1417 31.0417C59.3128 30.8556 59.524 30.7109 59.7594 30.6185C59.9947 30.5261 60.248 30.4884 60.5 30.5084V30.55ZM61.825 26.9167C61.732 27.1775 61.5467 27.3953 61.3041 27.5289C61.0616 27.6625 60.7785 27.7026 60.5083 27.6417C60.2782 27.6105 60.0595 27.5226 59.8719 27.3859C59.6842 27.2491 59.5335 27.0678 59.4333 26.8584C59.1261 26.2892 59.0514 25.6231 59.225 25C59.2662 24.7707 59.3772 24.5596 59.5427 24.3956C59.7082 24.2316 59.9203 24.1225 60.15 24.0834C60.4653 24.0109 60.7958 24.0473 61.0878 24.1864C61.3798 24.3256 61.6161 24.5595 61.7583 24.85C61.9402 25.2376 62.0232 25.6642 62 26.0917C61.9897 26.3774 61.9305 26.6593 61.825 26.925V26.9167ZM47.175 26.0834C47.0804 25.467 46.8147 24.8896 46.4083 24.4167C46.1064 24.0795 45.7344 23.8123 45.3184 23.6338C44.9024 23.4553 44.4525 23.3699 44 23.3834C43.2098 23.3812 42.4352 23.6037 41.7667 24.025C41.1091 24.4352 40.6346 25.0828 40.4417 25.8334C40.2623 26.5021 40.2623 27.2063 40.4417 27.875C40.5902 28.6676 41.0409 29.3714 41.6986 29.8378C42.3563 30.3043 43.1696 30.4969 43.9667 30.375C44.464 30.3287 44.9477 30.1872 45.3917 29.9584C46.0485 29.6527 46.5787 29.1284 46.8917 28.475C47.1504 27.9088 47.2676 27.2883 47.2333 26.6667L47.175 26.075V26.0834ZM45.5083 28.6667C45.4243 28.928 45.2661 29.1593 45.0531 29.3324C44.84 29.5054 44.5813 29.6129 44.3083 29.6417C43.8074 29.7131 43.2984 29.5844 42.8917 29.2834C42.5837 29.0686 42.3322 28.7828 42.1583 28.45C41.6982 27.505 41.586 26.4279 41.8417 25.4084C41.9227 25.0894 42.0933 24.8002 42.3333 24.575C42.5257 24.3816 42.7655 24.2421 43.0288 24.1705C43.292 24.0988 43.5694 24.0975 43.8333 24.1667C44.3491 24.277 44.8061 24.5737 45.1167 25C45.4164 25.4432 45.605 25.952 45.6667 26.4834C45.7033 26.7206 45.7228 26.9601 45.725 27.2C45.7476 27.6983 45.6741 28.1963 45.5083 28.6667ZM72.5667 26.1667C72.4929 25.4894 72.2003 24.8545 71.7333 24.3584C71.434 24.0369 71.0695 23.783 70.6643 23.6134C70.2591 23.4439 69.8224 23.3626 69.3833 23.375C68.6228 23.3674 67.8753 23.5723 67.225 23.9667C66.8608 24.1656 66.5426 24.4392 66.2913 24.7694C66.04 25.0997 65.8612 25.4793 65.7667 25.8834C65.533 26.8102 65.6333 27.7898 66.05 28.65C66.225 29.0381 66.4864 29.3811 66.8143 29.6526C67.1421 29.9241 67.5278 30.1171 67.9417 30.2167C68.8617 30.4676 69.8421 30.3666 70.6917 29.9334C71.4536 29.5888 72.0513 28.9612 72.3583 28.1834C72.5378 27.6982 72.6254 27.1839 72.6167 26.6667C72.6348 26.5061 72.6348 26.344 72.6167 26.1834L72.5667 26.1667ZM70.9583 28.5C70.8955 28.7941 70.7418 29.061 70.519 29.2629C70.2962 29.4648 70.0155 29.5915 69.7167 29.625C69.2336 29.6975 68.7412 29.5811 68.3417 29.3C67.9815 29.0664 67.6931 28.7376 67.5083 28.35C67.3069 27.9484 67.1799 27.5136 67.1333 27.0667C67.057 26.5258 67.0768 25.9757 67.1917 25.4417C67.2203 25.3337 67.2565 25.2279 67.3 25.125C67.4398 24.7473 67.7189 24.4375 68.08 24.2593C68.4412 24.0811 68.8569 24.0479 69.2417 24.1667C69.7888 24.2915 70.2665 24.6229 70.575 25.0917C70.8688 25.5548 71.0514 26.0796 71.1083 26.625C71.1328 26.841 71.1328 27.0591 71.1083 27.275C71.1213 27.7062 71.065 28.1367 70.9417 28.55L70.9583 28.5Z" fill="black"/>
</svg>
