<svg width="63" height="50" viewBox="0 0 63 50" fill="none" xmlns="http://www.w3.org/2000/svg">
<g clip-path="url(#clip0)">
<path d="M50.0879 18.75C48.6328 18.7402 47.2461 18.9746 45.9472 19.4238L42.7344 14.0625H50.7812C52.0801 14.0625 53.125 13.0176 53.125 11.7188V8.59375C53.125 7.29492 52.0801 6.25 50.7812 6.25H46.3574C45.6933 6.25 45.0586 6.5332 44.6191 7.02148L40.957 11.0937L38.7305 7.38281C38.3008 6.67969 37.539 6.25 36.7187 6.25H28.9062C28.0469 6.25 27.3437 6.95312 27.3437 7.8125V9.375C27.3437 10.2344 28.0469 10.9375 28.9062 10.9375H35.3906L37.2656 14.0625H22.2559C20.5273 11.8066 17.8711 10.1562 12.5 10.1562H7.08008C5.76172 10.1562 4.6582 11.2305 4.6875 12.5488C4.70703 13.8184 5.75195 14.8438 7.03125 14.8438H12.5C14.8926 14.8438 16.2793 15.9082 17.168 17.2656L16.0644 19.2676C14.7949 18.8867 13.4375 18.7109 12.0312 18.7598C5.45898 18.9941 0.156254 24.375 3.62224e-06 30.957C-0.156246 37.998 5.49805 43.75 12.5 43.75C18.3203 43.75 23.2129 39.7656 24.6094 34.375H32.832C34.1699 34.375 35.2344 33.2617 35.1758 31.9238C34.9707 27.3242 36.8848 22.7734 40.664 19.7168L41.8847 21.748C39.1894 24.0625 37.4805 27.5 37.5098 31.3379C37.5586 38.1348 43.0957 43.6914 49.8926 43.75C56.8847 43.8184 62.5683 38.1348 62.5097 31.1426C62.4414 24.3457 56.8847 18.7988 50.0879 18.75V18.75ZM12.5 39.0625C8.19336 39.0625 4.6875 35.5566 4.6875 31.25C4.6875 26.9434 8.19336 23.4375 12.5 23.4375C12.9102 23.4375 13.3203 23.4668 13.7207 23.5352L9.66797 30.8984C8.80859 32.4609 9.94141 34.375 11.7187 34.375H19.6582C18.4473 37.1289 15.6934 39.0625 12.5 39.0625ZM57.8027 31.6797C57.5879 35.6445 54.3847 38.8477 50.4297 39.0527C45.9277 39.2969 42.1875 35.7031 42.1875 31.25C42.1875 29.1602 43.0078 27.2656 44.3457 25.8691L49.1699 33.916C49.6094 34.6582 50.5762 34.8926 51.3183 34.4531L52.6562 33.6523C53.3984 33.2129 53.6328 32.2461 53.1933 31.5039L48.4472 23.6035C48.9551 23.4961 49.4726 23.4473 50 23.4473C54.4531 23.4375 58.0371 27.1777 57.8027 31.6797Z" fill="black"/>
</g>
<defs>
<clipPath id="clip0">
<rect width="62.5" height="50" fill="white"/>
</clipPath>
</defs>
</svg>
