<svg width="38" height="50" viewBox="0 0 38 50" fill="none" xmlns="http://www.w3.org/2000/svg">
<path d="M0.5 34.375C0.5 38.519 2.1462 42.4933 5.07646 45.4235C8.00671 48.3538 11.981 50 16.125 50H22.375C24.4269 50 26.4587 49.5958 28.3544 48.8106C30.2501 48.0254 31.9726 46.8745 33.4235 45.4235C34.8745 43.9726 36.0254 42.2501 36.8106 40.3544C37.5958 38.4587 38 36.4269 38 34.375V21.875H0.5V34.375ZM17.6875 0H16.125C11.981 0 8.00671 1.6462 5.07646 4.57646C2.1462 7.50671 0.5 11.481 0.5 15.625V18.75H17.6875V0ZM22.375 0H20.8125V18.75H38V15.625C38 13.5731 37.5958 11.5413 36.8106 9.64557C36.0254 7.74986 34.8745 6.02737 33.4235 4.57646C31.9726 3.12554 30.2501 1.97461 28.3544 1.18938C26.4587 0.404153 24.4269 0 22.375 0Z" fill="black"/>
</svg>
