<svg width="97" height="50" viewBox="0 0 97 50" fill="none" xmlns="http://www.w3.org/2000/svg">
<g clip-path="url(#clip0)">
<path d="M0.666626 45.4173H3.8358V32.9022L8.74557 43.8045C9.32452 45.1203 10.1178 45.5902 11.6741 45.5902C13.2305 45.5902 13.9899 45.124 14.5689 43.8045L19.4636 32.9022V45.4248H22.6328V32.9248C22.6328 31.703 22.1441 31.1128 21.129 30.8083C18.7193 30.0564 17.1027 30.7068 16.3734 32.3346L11.5689 43.1053L6.91851 32.3308C6.2155 30.703 4.56888 30.0526 2.17039 30.8045C1.16287 31.109 0.666626 31.6992 0.666626 32.9173V45.4173ZM25.2832 35.2293H28.4523V42.1278C28.426 42.5037 28.5726 43.3797 30.3095 43.4098C31.1967 43.4098 37.1516 43.4098 37.2042 43.4098V35.1955H40.3809C40.3809 35.1955 40.3809 46.3947 40.3809 46.4436C40.3809 49.203 36.9523 49.8045 35.3659 49.8496H25.3546V47.718H35.3809C37.4223 47.5 37.1817 46.4887 37.1817 46.1466V45.312H30.4448C27.3095 45.2857 25.3132 43.9173 25.2869 42.3421C25.2869 42.203 25.3546 35.297 25.2869 35.2293H25.2832Z" fill="black"/>
<path d="M42.8283 45.4173H51.941C52.9496 45.4269 53.9485 45.2192 54.8696 44.8083C56.2418 44.1804 56.911 43.327 56.911 42.2067V39.891C56.911 38.9774 56.1591 38.124 54.6553 37.5526C53.7866 37.2376 52.8688 37.0798 51.9448 37.0865H48.1027C46.8207 37.0865 46.223 36.7105 46.0614 35.8458C46.0337 35.7533 46.0222 35.6566 46.0275 35.5601V34.1203C46.0231 34.03 46.0346 33.9397 46.0614 33.8534C46.2117 33.203 46.5463 33.0188 47.6741 32.9135C47.7681 32.9135 47.8884 32.9135 47.9824 32.9135H57.035V30.7819H48.1328C47.271 30.7391 46.4077 30.8279 45.5726 31.0451C43.6929 31.6353 42.8546 32.5752 42.8546 34.1992V36.0489C42.8546 37.4737 44.4749 38.6804 47.1854 38.9774C47.4899 38.9774 47.7944 39.015 48.0989 39.015H51.3922C51.5042 39.01 51.6164 39.0176 51.7268 39.0376C52.7343 39.1203 53.1629 39.3007 53.4674 39.6654C53.5455 39.7369 53.6077 39.8241 53.6498 39.9212C53.6919 40.0184 53.713 40.1234 53.7117 40.2293V42.0789C53.6941 42.2299 53.644 42.3753 53.5648 42.5051C53.4856 42.6349 53.3793 42.746 53.2531 42.8308C52.8661 43.1217 52.395 43.2787 51.911 43.2782C51.7907 43.2782 51.6967 43.3007 51.5764 43.3007H42.8245V45.4135L42.8283 45.4173ZM76.6892 41.7293C76.6892 43.9022 78.3057 45.1128 81.5764 45.3684C81.8809 45.391 82.1854 45.406 82.4899 45.406H90.7606V43.2932H82.4223C80.5614 43.2932 79.8621 42.8271 79.8621 41.7068V30.7857H76.6892V41.7293ZM58.9335 41.8383V34.3195C58.9335 32.406 60.2794 31.2443 62.9373 30.8759C63.2212 30.8351 63.5076 30.815 63.7944 30.8158H69.8095C70.1063 30.8151 70.4027 30.8352 70.6967 30.8759C73.3546 31.2519 74.7004 32.4022 74.7004 34.3195V41.8383C74.7004 43.391 74.129 44.2218 72.8207 44.7669L75.9448 47.5865H72.2606L69.7343 45.3045L67.1929 45.4662H63.8095C63.1737 45.463 62.5413 45.3732 61.9298 45.1992C59.9072 44.6504 58.9223 43.5902 58.9223 41.8383H58.9335ZM62.3583 41.6504C62.3657 41.7613 62.3859 41.8711 62.4185 41.9774C62.6065 42.8534 63.426 43.3421 64.6741 43.3421H67.5538L64.9223 40.9549H68.6027L70.9035 43.0376C71.1044 42.9382 71.2806 42.7951 71.4192 42.6189C71.5577 42.4426 71.6551 42.2376 71.7042 42.0188C71.7226 41.9234 71.7277 41.826 71.7192 41.7293V34.5C71.7234 34.4038 71.7133 34.3075 71.6892 34.2143C71.5012 33.3985 70.6816 32.9323 69.4561 32.9323H64.6817C63.2719 32.9323 62.3583 33.5413 62.3583 34.5V41.6428V41.6504Z" fill="black"/>
<path d="M93.5238 27.2783C91.5764 27.2256 90.0839 27.4061 88.8132 27.9437C88.4373 28.094 87.8734 28.0978 87.817 28.5527C88.0125 28.7595 88.0463 29.0715 88.1929 29.3271C88.5322 29.8951 88.9628 30.4031 89.4674 30.8309C89.9653 31.233 90.4836 31.6095 91.02 31.9587C91.9711 32.5414 93.0388 32.8722 93.9561 33.4625C94.4974 33.8083 95.035 34.2407 95.5613 34.6279C95.8245 34.8196 96.0012 35.1166 96.3395 35.2369V35.1805C96.1591 34.9549 96.114 34.6429 95.9636 34.4061L95.2418 33.6843C94.5271 32.7329 93.6714 31.8962 92.7042 31.2031C91.9523 30.658 90.2493 29.9211 89.9335 29.0414L89.8771 28.985C90.439 28.8983 90.9943 28.7726 91.5388 28.6091C92.3734 28.3835 93.1177 28.4437 93.9786 28.2331L95.1441 27.8986V27.6768C94.708 27.2294 94.3922 26.6392 93.9222 26.2369C92.665 25.1419 91.3321 24.137 89.9335 23.2294C89.1591 22.7407 88.2042 22.4211 87.3847 22.0076C87.1102 21.8685 86.6328 21.7971 86.441 21.564C86.055 20.9675 85.7217 20.3386 85.4448 19.6843C84.7493 18.3459 84.0651 16.8835 83.4486 15.4737C83.0313 14.5113 82.7531 13.564 82.2305 12.7031C79.7155 8.56773 77.005 6.06773 72.8095 3.61284C71.9185 3.09029 70.8433 2.88352 69.708 2.6166L67.8771 2.50382C67.5012 2.34968 67.1253 1.8948 66.7681 1.67299C65.3771 0.793294 61.8132 -1.11648 60.7832 1.39104C60.1328 2.98126 61.7531 4.51134 62.3207 5.33089C62.7863 5.89593 63.1991 6.50248 63.5538 7.14292C63.7456 7.56021 63.7794 7.9775 63.9298 8.41735C64.2903 9.53156 64.7158 10.6237 65.2042 11.688C65.4626 12.2104 65.7592 12.713 66.0914 13.1918C66.2982 13.47 66.6478 13.594 66.7004 14.0226C66.3583 14.5038 66.3245 15.2444 66.1478 15.8534C65.2794 18.5828 65.6065 21.9775 66.8659 24.0001C67.2418 24.6204 68.1629 25.9512 69.4185 25.4399C70.5125 24.9963 70.2644 23.6128 70.5801 22.3948C70.6516 22.1166 70.6065 21.9136 70.7456 21.7294V21.8046L71.7456 23.8008C72.6071 25.0606 73.6746 26.1663 74.9035 27.0715C75.4786 27.5076 75.9373 28.2595 76.6779 28.5113V28.4587H76.6215C76.4786 28.2331 76.2456 28.1392 76.0689 27.9587C75.6074 27.5113 75.1802 27.0301 74.7907 26.5189C73.7792 25.1065 72.8781 23.6184 72.0952 22.0677C71.7192 21.3159 71.3696 20.5001 71.0425 19.7407C70.9185 19.4474 70.9185 19.0076 70.6666 18.8534C70.2907 19.4098 69.7794 19.861 69.5012 20.5189C69.0576 21.5677 69.0012 22.8459 68.8395 24.1768C68.7418 24.2106 68.7831 24.1768 68.7268 24.2294C67.9561 24.0452 67.6854 23.2519 67.3959 22.5677C66.6394 20.4837 66.5618 18.2137 67.1741 16.0828C67.3395 15.5715 68.0877 13.9549 67.7832 13.4813C67.6403 13.0076 67.1628 12.7294 66.8997 12.3534C66.5505 11.8683 66.2531 11.3479 66.0125 10.8008C65.4185 9.45495 65.1403 7.94743 64.5087 6.58653C64.1595 5.92492 63.7519 5.29585 63.2907 4.70683C62.8283 4.06773 62.3132 3.57901 61.9598 2.82713C61.832 2.55269 61.6591 2.11284 61.8471 1.83089C61.8651 1.75166 61.905 1.67906 61.9621 1.62127C62.0192 1.56348 62.0914 1.5228 62.1704 1.50382C62.4899 1.2557 63.3884 1.58277 63.723 1.72562C64.5558 2.05188 65.3542 2.45989 66.1065 2.94367C66.4824 3.17675 66.832 3.64668 67.2681 3.7745H67.7681C68.5463 3.95495 69.4223 3.83089 70.1478 4.05269C71.3814 4.44695 72.5562 5.00588 73.6403 5.71435C76.8625 7.76754 79.4828 10.6382 81.2343 14.0339C81.52 14.5828 81.6441 15.1091 81.8997 15.6955C82.4072 16.8685 83.0501 18.0903 83.5613 19.2407C84.0094 20.3919 84.5858 21.4891 85.2794 22.5113C85.6553 23.0151 87.1102 23.2858 87.7719 23.564C88.339 23.7512 88.8939 23.9734 89.4335 24.2294C90.2756 24.7369 91.0877 25.3572 91.8734 25.891C92.2493 26.1692 93.4749 26.7783 93.535 27.2783H93.5238Z" fill="black"/>
<path fill-rule="evenodd" clip-rule="evenodd" d="M68.7644 6.16167C68.4276 6.15611 68.0915 6.19402 67.7644 6.27445V6.33084H67.8208C68.0519 6.68305 68.3109 7.01619 68.5952 7.32708L69.1516 8.49249L69.208 8.4361C69.388 8.29167 69.5281 8.10358 69.615 7.88973C69.7018 7.67588 69.7326 7.44337 69.7042 7.2143C69.5651 7.07144 69.5463 6.89099 69.426 6.71806C69.2681 6.48497 68.9561 6.34212 68.7606 6.16167H68.7644Z" fill="black"/>
<path fill-rule="evenodd" clip-rule="evenodd" d="M92.2343 43.2331C92.2336 43.6959 92.3702 44.1485 92.6268 44.5336C92.8835 44.9187 93.2486 45.219 93.6761 45.3965C94.1035 45.5739 94.574 45.6206 95.0279 45.5305C95.4818 45.4403 95.8988 45.2176 96.2261 44.8903C96.5533 44.5631 96.7761 44.1461 96.8662 43.6921C96.9563 43.2382 96.9097 42.7677 96.7323 42.3403C96.5548 41.9128 96.2545 41.5477 95.8694 41.291C95.4843 41.0344 95.0317 40.8978 94.5689 40.8985C94.2612 40.8945 93.9558 40.9521 93.6707 41.068C93.3856 41.1839 93.1267 41.3557 92.9091 41.5733C92.6915 41.7909 92.5197 42.0499 92.4038 42.3349C92.2879 42.62 92.2303 42.9254 92.2343 43.2331V43.2331ZM96.3696 43.2331C96.363 43.5907 96.2508 43.9384 96.0473 44.2325C95.8438 44.5266 95.5579 44.7541 95.2256 44.8864C94.8933 45.0186 94.5293 45.0498 94.1793 44.9759C93.8293 44.9021 93.509 44.7266 93.2584 44.4713C93.0078 44.2161 92.8382 43.8925 92.7709 43.5412C92.7035 43.19 92.7414 42.8266 92.8798 42.4968C93.0181 42.167 93.2508 41.8854 93.5487 41.6873C93.8465 41.4892 94.1962 41.3835 94.5538 41.3835C94.7967 41.3804 95.0377 41.4263 95.2625 41.5183C95.4872 41.6104 95.6912 41.7469 95.862 41.9195C96.0329 42.0921 96.1672 42.2974 96.257 42.5231C96.3468 42.7488 96.3902 42.9903 96.3847 43.2331H96.3696ZM95.1854 44.5677H95.708L94.9561 43.3948C95.3659 43.3534 95.6779 43.1542 95.6779 42.6654C95.6779 42.1767 95.3358 41.9136 94.6741 41.9136H93.6328V44.579H94.0839V43.4248H94.5012L95.2005 44.579L95.1854 44.5677ZM94.0576 43.0414V42.2895H94.5726C94.8433 42.2895 95.1666 42.3384 95.1666 42.6654C95.1666 43.0414 94.8734 43.0714 94.535 43.0714L94.0576 43.0414Z" fill="black"/>
</g>
<defs>
<clipPath id="clip0">
<rect width="96.2406" height="50" fill="white" transform="translate(0.666626)"/>
</clipPath>
</defs>
</svg>
