<svg width="57" height="50" viewBox="0 0 57 50" fill="none" xmlns="http://www.w3.org/2000/svg">
<path d="M53.9062 6.25H8.59375C7.29932 6.25 6.25 7.29932 6.25 8.59375V9.375H2.34375C1.04932 9.375 0 10.4243 0 11.7188V38.2812C0 41.3016 2.44844 43.75 5.46875 43.75H51.5625C54.1514 43.75 56.25 41.6514 56.25 39.0625V8.59375C56.25 7.29932 55.2007 6.25 53.9062 6.25ZM5.46875 39.0625C5.26155 39.0625 5.06284 38.9802 4.91632 38.8337C4.76981 38.6872 4.6875 38.4885 4.6875 38.2812V14.0625H6.25V38.2812C6.25 38.4885 6.16769 38.6872 6.02118 38.8337C5.87466 38.9802 5.67595 39.0625 5.46875 39.0625ZM28.5156 37.5H13.6719C13.0247 37.5 12.5 36.9753 12.5 36.3281V35.5469C12.5 34.8997 13.0247 34.375 13.6719 34.375H28.5156C29.1628 34.375 29.6875 34.8997 29.6875 35.5469V36.3281C29.6875 36.9753 29.1628 37.5 28.5156 37.5ZM48.8281 37.5H33.9844C33.3372 37.5 32.8125 36.9753 32.8125 36.3281V35.5469C32.8125 34.8997 33.3372 34.375 33.9844 34.375H48.8281C49.4753 34.375 50 34.8997 50 35.5469V36.3281C50 36.9753 49.4753 37.5 48.8281 37.5ZM28.5156 28.125H13.6719C13.0247 28.125 12.5 27.6003 12.5 26.9531V26.1719C12.5 25.5247 13.0247 25 13.6719 25H28.5156C29.1628 25 29.6875 25.5247 29.6875 26.1719V26.9531C29.6875 27.6003 29.1628 28.125 28.5156 28.125ZM48.8281 28.125H33.9844C33.3372 28.125 32.8125 27.6003 32.8125 26.9531V26.1719C32.8125 25.5247 33.3372 25 33.9844 25H48.8281C49.4753 25 50 25.5247 50 26.1719V26.9531C50 27.6003 49.4753 28.125 48.8281 28.125ZM48.8281 18.75H13.6719C13.0247 18.75 12.5 18.2253 12.5 17.5781V13.6719C12.5 13.0247 13.0247 12.5 13.6719 12.5H48.8281C49.4753 12.5 50 13.0247 50 13.6719V17.5781C50 18.2253 49.4753 18.75 48.8281 18.75Z" fill="black"/>
</svg>
