<svg width="44" height="50" viewBox="0 0 44 50" fill="none" xmlns="http://www.w3.org/2000/svg">
<path d="M22.0622 49.6093C21.4079 49.6093 20.7439 49.4336 20.1677 49.1015L14.1423 45.5371C13.2439 45.0293 13.6833 44.8535 13.9763 44.7558C15.1775 44.3359 15.4216 44.248 16.7009 43.5156C16.8376 43.4375 17.0134 43.4668 17.1501 43.5547L21.779 46.2988C21.945 46.3965 22.1794 46.3965 22.3357 46.2988L40.3728 35.8886C40.5388 35.791 40.6462 35.5957 40.6462 35.4004V14.58C40.6462 14.375 40.5388 14.1894 40.363 14.082L22.3357 3.68164C22.1696 3.58398 21.945 3.58398 21.779 3.68164L3.76148 14.0918C3.58569 14.1894 3.47827 14.3847 3.47827 14.5898V35.4004C3.47827 35.5957 3.58569 35.791 3.76148 35.8789L8.70288 38.7304C11.3884 40.0683 13.029 38.4961 13.029 36.9043V16.3574C13.029 16.0644 13.2634 15.8398 13.5564 15.8398H15.8415C16.1247 15.8398 16.3689 16.0644 16.3689 16.3574V36.914C16.3689 40.4883 14.4157 42.539 11.0271 42.539C9.98218 42.539 9.16187 42.539 6.87671 41.4062L2.15015 38.6816C0.978271 38.0078 0.255615 36.748 0.255615 35.3906V14.58C0.255615 13.2324 0.978271 11.9629 2.15015 11.289L20.1677 0.878907C21.3103 0.234375 22.8239 0.234375 23.9567 0.878907L41.9939 11.2988C43.1657 11.9726 43.8884 13.2324 43.8884 14.5898V35.4004C43.8884 36.748 43.1657 38.0078 41.9939 38.6914L23.9567 49.1015C23.3806 49.4336 22.7263 49.6093 22.0622 49.6093ZM36.6228 29.0918C36.6228 25.1953 33.986 24.1601 28.4489 23.4277C22.8435 22.6855 22.2771 22.3047 22.2771 20.9961C22.2771 19.9121 22.7556 18.4668 26.906 18.4668C30.6071 18.4668 31.9743 19.2675 32.5407 21.7675C32.5896 22.0019 32.8044 22.1777 33.0485 22.1777H35.3923C35.5388 22.1777 35.6755 22.1191 35.7731 22.0117C35.8708 21.9043 35.9196 21.7578 35.9099 21.6113C35.5485 17.3047 32.6872 15.3027 26.906 15.3027C21.7595 15.3027 18.6931 17.4707 18.6931 21.1133C18.6931 25.0586 21.7497 26.1523 26.6814 26.6406C32.5896 27.2168 33.0485 28.0859 33.0485 29.248C33.0485 31.2597 31.4274 32.1191 27.6286 32.1191C22.8532 32.1191 21.8083 30.9179 21.4567 28.5449C21.4177 28.291 21.2028 28.1054 20.9392 28.1054H18.6052C18.3122 28.1054 18.0876 28.3398 18.0876 28.623C18.0876 31.6601 19.738 35.2832 27.6384 35.2832C33.3415 35.2734 36.6228 33.0175 36.6228 29.0918Z" fill="black"/>
</svg>
