<svg width="51" height="50" viewBox="0 0 51 50" fill="none" xmlns="http://www.w3.org/2000/svg">
<g clip-path="url(#clip0)">
<path d="M20.2012 0.488408C10.4941 2.38294 2.67187 10.1857 0.757811 19.8634C-2.85547 38.1251 13.6191 51.7384 26.0312 49.8146C30.0547 49.1896 32.0273 44.4825 30.1816 40.8595C27.9258 36.4259 31.1484 31.2501 36.1289 31.2501H43.9121C47.4082 31.2501 50.2402 28.3595 50.25 24.8732C50.2012 9.48255 36.1973 -2.62683 20.2012 0.488408ZM9.625 31.2501C7.89648 31.2501 6.5 29.8536 6.5 28.1251C6.5 26.3966 7.89648 25.0001 9.625 25.0001C11.3535 25.0001 12.75 26.3966 12.75 28.1251C12.75 29.8536 11.3535 31.2501 9.625 31.2501ZM12.75 18.7501C11.0215 18.7501 9.625 17.3536 9.625 15.6251C9.625 13.8966 11.0215 12.5001 12.75 12.5001C14.4785 12.5001 15.875 13.8966 15.875 15.6251C15.875 17.3536 14.4785 18.7501 12.75 18.7501ZM25.25 12.5001C23.5215 12.5001 22.125 11.1036 22.125 9.37513C22.125 7.64661 23.5215 6.25013 25.25 6.25013C26.9785 6.25013 28.375 7.64661 28.375 9.37513C28.375 11.1036 26.9785 12.5001 25.25 12.5001ZM37.75 18.7501C36.0215 18.7501 34.625 17.3536 34.625 15.6251C34.625 13.8966 36.0215 12.5001 37.75 12.5001C39.4785 12.5001 40.875 13.8966 40.875 15.6251C40.875 17.3536 39.4785 18.7501 37.75 18.7501Z" fill="black"/>
</g>
<defs>
<clipPath id="clip0">
<rect width="50" height="50" fill="white" transform="translate(0.25)"/>
</clipPath>
</defs>
</svg>
