<svg width="51" height="50" viewBox="0 0 51 50" fill="none" xmlns="http://www.w3.org/2000/svg">
<g clip-path="url(#clip0)">
<path d="M20.2012 0.488287C10.4941 2.38282 2.6719 10.1856 0.757842 19.8633C-2.85544 38.125 13.6191 51.7383 26.0312 49.8145C30.0547 49.1895 32.0273 44.4824 30.1816 40.8594C27.9258 36.4258 31.1484 31.25 36.1289 31.25H43.9121C47.4082 31.25 50.2402 28.3594 50.25 24.8731C50.2012 9.48243 36.1973 -2.62695 20.2012 0.488287ZM9.62503 31.25C7.89651 31.25 6.50003 29.8535 6.50003 28.125C6.50003 26.3965 7.89651 25 9.62503 25C11.3535 25 12.75 26.3965 12.75 28.125C12.75 29.8535 11.3535 31.25 9.62503 31.25ZM12.75 18.75C11.0215 18.75 9.62503 17.3535 9.62503 15.625C9.62503 13.8965 11.0215 12.5 12.75 12.5C14.4785 12.5 15.875 13.8965 15.875 15.625C15.875 17.3535 14.4785 18.75 12.75 18.75ZM25.25 12.5C23.5215 12.5 22.125 11.1035 22.125 9.37501C22.125 7.64649 23.5215 6.25001 25.25 6.25001C26.9785 6.25001 28.375 7.64649 28.375 9.37501C28.375 11.1035 26.9785 12.5 25.25 12.5ZM37.75 18.75C36.0215 18.75 34.625 17.3535 34.625 15.625C34.625 13.8965 36.0215 12.5 37.75 12.5C39.4785 12.5 40.875 13.8965 40.875 15.625C40.875 17.3535 39.4785 18.75 37.75 18.75Z" fill="black"/>
</g>
<defs>
<clipPath id="clip0">
<rect width="51" height="50" fill="white"/>
</clipPath>
</defs>
</svg>
