<svg width="44" height="50" viewBox="0 0 44 50" fill="none" xmlns="http://www.w3.org/2000/svg">
<path d="M12.9082 17.1875H16.7256C16.8711 14.5479 17.3643 12.1729 18.1133 10.3115C15.4072 11.6045 13.4238 14.1387 12.9082 17.1875ZM12.9082 20.3125C13.4248 23.3613 15.4072 25.8955 18.1133 27.1885C17.3633 25.3271 16.8711 22.9521 16.7256 20.3125H12.9082ZM22.125 27.9971C22.876 27.2695 24.1533 24.6357 24.4131 20.3125H19.8359C20.0967 24.6348 21.374 27.2695 22.125 27.9971ZM19.8369 17.1875H24.4141C24.1543 12.8652 22.877 10.2305 22.126 9.50293C21.374 10.2305 20.0967 12.8652 19.8369 17.1875ZM26.1367 27.1885C28.8428 25.8955 30.8262 23.3613 31.3418 20.3125H27.5244C27.3789 22.9521 26.8867 25.3271 26.1367 27.1885ZM40.875 0H6.5C3.04785 0 0.25 2.79785 0.25 6.25V43.75C0.25 47.2021 3.04785 50 6.5 50H40.875C42.6006 50 44 48.6006 44 46.875V3.125C44 1.39941 42.6006 0 40.875 0ZM33.0625 40.625H11.1875C10.3281 40.625 9.625 39.9219 9.625 39.0625C9.625 38.2031 10.3281 37.5 11.1875 37.5H33.0625C33.9219 37.5 34.625 38.2031 34.625 39.0625C34.625 39.9219 33.9219 40.625 33.0625 40.625ZM22.125 31.25C15.2217 31.25 9.625 25.6533 9.625 18.75C9.625 11.8467 15.2217 6.25 22.125 6.25C29.0283 6.25 34.625 11.8467 34.625 18.75C34.625 25.6533 29.0283 31.25 22.125 31.25ZM26.1367 10.3115C26.8867 12.1729 27.3789 14.5479 27.5244 17.1875H31.3418C30.8262 14.1387 28.8428 11.6045 26.1367 10.3115Z" fill="black"/>
</svg>
