<svg width="44" height="50" viewBox="0 0 44 50" fill="none" xmlns="http://www.w3.org/2000/svg">
<path d="M12.5 17.9688C12.5 14.9532 14.9533 12.5 17.9688 12.5H31.25V5.46875C31.25 4.17432 30.2007 3.125 28.9062 3.125H21.0342C19.9518 1.25879 17.9333 0 15.625 0C13.3167 0 11.2982 1.25879 10.2158 3.125H2.34375C1.04932 3.125 0 4.17432 0 5.46875V38.2812C0 39.5757 1.04932 40.625 2.34375 40.625H12.5V17.9688ZM15.625 3.90625C16.9194 3.90625 17.9688 4.95557 17.9688 6.25C17.9688 7.54443 16.9194 8.59375 15.625 8.59375C14.3306 8.59375 13.2812 7.54443 13.2812 6.25C13.2812 4.95557 14.3306 3.90625 15.625 3.90625ZM33.5938 28.125H43.75V47.6562C43.75 48.9507 42.7007 50 41.4062 50H17.9688C16.6743 50 15.625 48.9507 15.625 47.6562V17.9688C15.625 16.6743 16.6743 15.625 17.9688 15.625H31.25V25.7812C31.25 27.0703 32.3047 28.125 33.5938 28.125ZM43.75 24.4083V25H34.375V15.625H34.9667C35.5883 15.625 36.1844 15.8719 36.6239 16.3114L43.0635 22.751C43.503 23.1905 43.75 23.7867 43.75 24.4083Z" fill="black"/>
</svg>
