<svg width="38" height="50" viewBox="0 0 38 50" fill="none" xmlns="http://www.w3.org/2000/svg">
<g clip-path="url(#clip0)">
<path d="M11.3164 28.8964C10.9746 30.7714 9.6172 39.5117 9.21681 41.9824C9.18751 42.1582 9.11915 42.2265 8.92384 42.2265H1.63868C0.896497 42.2265 0.359387 41.582 0.457044 40.8691L6.1797 4.55074C6.32618 3.61324 7.16603 2.90035 8.13283 2.90035C23.0059 2.90035 24.2559 2.53902 28.0547 4.01363C33.9238 6.28902 34.461 11.7773 32.3516 17.7148C30.252 23.8281 25.2715 26.455 18.6699 26.5332C14.4317 26.6015 11.8828 25.8496 11.3164 28.8964V28.8964ZM35.3106 14.8437C35.1348 14.7168 35.0664 14.6679 35.0176 14.9707C34.8223 16.0839 34.5195 17.1679 34.1582 18.2519C30.2617 29.3652 19.461 28.3984 14.1875 28.3984C13.5918 28.3984 13.2012 28.7207 13.1231 29.3164C10.916 43.0273 10.4766 45.8886 10.4766 45.8886C10.3789 46.582 10.8184 47.1484 11.5117 47.1484H17.7129C18.5527 47.1484 19.2461 46.5332 19.4121 45.6933C19.4805 45.166 19.3047 46.289 20.8184 36.7773C21.2676 34.6289 22.2149 34.8535 23.6797 34.8535C30.6133 34.8535 36.0235 32.041 37.6348 23.8867C38.2695 20.4882 38.084 16.914 35.3106 14.8437V14.8437Z" fill="black"/>
</g>
<defs>
<clipPath id="clip0">
<rect width="37.5" height="50" fill="white" transform="translate(0.4375)"/>
</clipPath>
</defs>
</svg>
