<svg width="51" height="50" viewBox="0 0 51 50" fill="none" xmlns="http://www.w3.org/2000/svg">
<path d="M25.75 0.78125C12.3711 0.78125 1.53125 11.6211 1.53125 25C1.53125 38.3789 12.3711 49.2188 25.75 49.2188C39.1289 49.2188 49.9688 38.3789 49.9688 25C49.9688 11.6211 39.1289 0.78125 25.75 0.78125ZM39.8125 27.7344C39.8125 28.3789 39.2852 28.9062 38.6406 28.9062H29.6562V37.8906C29.6562 38.5352 29.1289 39.0625 28.4844 39.0625H23.0156C22.3711 39.0625 21.8438 38.5352 21.8438 37.8906V28.9062H12.8594C12.2148 28.9062 11.6875 28.3789 11.6875 27.7344V22.2656C11.6875 21.6211 12.2148 21.0938 12.8594 21.0938H21.8438V12.1094C21.8438 11.4648 22.3711 10.9375 23.0156 10.9375H28.4844C29.1289 10.9375 29.6562 11.4648 29.6562 12.1094V21.0938H38.6406C39.2852 21.0938 39.8125 21.6211 39.8125 22.2656V27.7344Z" fill="black"/>
</svg>
