<svg width="39" height="50" viewBox="0 0 39 50" fill="none" xmlns="http://www.w3.org/2000/svg">
<path d="M33.5625 0H5.4375C2.84961 0 0.75 2.09961 0.75 4.6875V45.3125C0.75 47.9004 2.84961 50 5.4375 50H33.5625C36.1504 50 38.25 47.9004 38.25 45.3125V4.6875C38.25 2.09961 36.1504 0 33.5625 0ZM19.5 12.5C22.9473 12.5 25.75 15.3027 25.75 18.75C25.75 22.1973 22.9473 25 19.5 25C16.0527 25 13.25 22.1973 13.25 18.75C13.25 15.3027 16.0527 12.5 19.5 12.5ZM30.4375 35.625C30.4375 36.6602 29.4609 37.5 28.25 37.5H10.75C9.53906 37.5 8.5625 36.6602 8.5625 35.625V33.75C8.5625 30.6445 11.502 28.125 15.125 28.125H15.6133C16.8145 28.623 18.123 28.9062 19.5 28.9062C20.877 28.9062 22.1953 28.623 23.3867 28.125H23.875C27.498 28.125 30.4375 30.6445 30.4375 33.75V35.625Z" fill="black"/>
</svg>
