<svg width="51" height="50" viewBox="0 0 51 50" fill="none" xmlns="http://www.w3.org/2000/svg">
<path d="M32.2402 21.3672C32.2402 23.3691 30.6094 25 28.6074 25H21.7422V17.7344H28.6074C30.6094 17.7344 32.2402 19.3652 32.2402 21.3672ZM49.5938 25C49.5938 38.3789 38.7539 49.2188 25.375 49.2188C11.9961 49.2188 1.15625 38.3789 1.15625 25C1.15625 11.6211 11.9961 0.78125 25.375 0.78125C38.7539 0.78125 49.5938 11.6211 49.5938 25ZM37.084 21.3672C37.084 16.6895 33.2852 12.8906 28.6074 12.8906H16.8984V37.1094H21.7422V29.8438H28.6074C33.2852 29.8438 37.084 26.0449 37.084 21.3672Z" fill="black"/>
</svg>
