<svg width="45" height="50" viewBox="0 0 45 50" fill="none" xmlns="http://www.w3.org/2000/svg">
<path d="M43.3243 19.5802C42.5724 16.5626 41.1466 14.2873 38.1095 14.2873H34.1935V18.9162C34.1935 22.5099 31.1466 25.5373 27.67 25.5373H17.2403C14.3888 25.5373 12.0255 27.9787 12.0255 30.84V40.7814C12.0255 43.6134 14.4864 45.2736 17.2403 46.0841C20.5411 47.0509 23.7149 47.2267 27.67 46.0841C30.297 45.3224 32.8849 43.7892 32.8849 40.7814V36.8068H22.4649V35.4787H38.1095C41.1466 35.4787 42.2696 33.3595 43.3243 30.1857C44.4181 26.9142 44.3692 23.7697 43.3243 19.5802ZM28.3243 39.4533C29.4083 39.4533 30.2872 40.3419 30.2872 41.4357C30.2872 42.5392 29.4083 43.4279 28.3243 43.4279C27.2501 43.4279 26.3614 42.5294 26.3614 41.4357C26.3712 40.3322 27.2501 39.4533 28.3243 39.4533ZM16.7618 24.2287H27.1915C30.0919 24.2287 32.4064 21.8361 32.4064 18.9259V8.97474C32.4064 6.14271 30.0235 4.02356 27.1915 3.54504C23.6954 2.96887 19.8966 2.99818 16.7618 3.55482C12.3477 4.33607 11.547 5.96692 11.547 8.9845V12.9591H21.9864V14.2873H7.63094C4.59382 14.2873 1.93757 16.1134 1.10749 19.5802C0.150464 23.5548 0.111402 26.0353 1.10749 30.1857C1.84968 33.2716 3.61726 35.4787 6.65437 35.4787H10.2384V30.713C10.2384 27.2658 13.2169 24.2287 16.7618 24.2287ZM16.1075 10.3029C15.0235 10.3029 14.1446 9.4142 14.1446 8.32045C14.1544 7.21693 15.0235 6.32826 16.1075 6.32826C17.1817 6.32826 18.0704 7.2267 18.0704 8.32045C18.0704 9.4142 17.1915 10.3029 16.1075 10.3029Z" fill="black"/>
</svg>
