<svg width="50" height="50" viewBox="0 0 50 50" fill="none" xmlns="http://www.w3.org/2000/svg">
<path d="M49.2188 25C49.2188 38.3786 38.3747 49.2188 25 49.2188C11.6253 49.2188 0.78125 38.3786 0.78125 25C0.78125 11.6292 11.6253 0.78125 25 0.78125C38.3747 0.78125 49.2188 11.6292 49.2188 25ZM25.6499 8.78906C20.3279 8.78906 16.9336 11.031 14.2682 15.0154C13.9229 15.5316 14.0384 16.2278 14.5333 16.6031L17.9219 19.1725C18.4302 19.5579 19.1544 19.4662 19.5493 18.9652C21.2938 16.7525 22.49 15.4694 25.1453 15.4694C27.1403 15.4694 29.608 16.7534 29.608 18.688C29.608 20.1505 28.4007 20.9016 26.4309 22.006C24.1336 23.2938 21.0938 24.8966 21.0938 28.9062V29.2969C21.0938 29.944 21.6185 30.4688 22.2656 30.4688H27.7344C28.3815 30.4688 28.9062 29.944 28.9062 29.2969V29.1667C28.9062 26.3872 37.0299 26.2715 37.0299 18.75C37.0299 13.0857 31.1544 8.78906 25.6499 8.78906V8.78906ZM25 33.0078C22.5229 33.0078 20.5078 35.0229 20.5078 37.5C20.5078 39.977 22.5229 41.9922 25 41.9922C27.4771 41.9922 29.4922 39.977 29.4922 37.5C29.4922 35.0229 27.4771 33.0078 25 33.0078Z" fill="black"/>
</svg>
