<svg width="40" height="50" viewBox="0 0 40 50" fill="none" xmlns="http://www.w3.org/2000/svg">
<g clip-path="url(#clip0)">
<path d="M36.4531 22.7051L36.0917 22.0703C36.1015 17.5391 34.0019 15.6934 31.5507 14.2871C32.2929 14.0918 33.0546 13.9356 33.2695 12.9981C34.5488 12.6758 34.8124 12.0801 34.9394 11.4551C35.2714 11.2305 36.3847 10.6055 36.2675 9.53128C36.8925 9.1016 37.2441 8.54496 37.0585 7.76371C37.7324 7.03128 37.9082 6.42581 37.6249 5.86917C38.4355 4.86331 38.0742 4.34574 37.7324 3.82816C38.3378 2.73441 37.8007 1.56253 36.1113 1.75785C35.4374 0.771518 33.9726 0.996128 33.748 0.996128C33.4941 0.683628 33.1621 0.41019 32.1367 0.537143C31.4726 -0.0585599 30.7304 0.048862 29.9589 0.332065C29.0507 -0.380826 28.4453 0.195346 27.7519 0.41019C26.6484 0.0586276 26.3945 0.537143 25.8574 0.742221C24.6562 0.488315 24.2851 1.03519 23.7089 1.61136L23.0351 1.6016C21.2187 2.65628 20.3203 4.80472 19.998 5.90824C19.6757 4.80472 18.7773 2.65628 16.9609 1.6016L16.2871 1.61136C15.7109 1.03519 15.3398 0.488315 14.1386 0.742221C13.5917 0.546909 13.3476 0.0586276 12.2441 0.41019C11.7949 0.273471 11.3749 -0.0194974 10.8867 -0.00973179C10.6328 3.38307e-05 10.3496 0.0879245 10.0371 0.332065C9.26557 0.0390963 8.52339 -0.0585599 7.85932 0.537143C6.83393 0.41019 6.49214 0.673862 6.248 0.996128C6.02339 0.996128 4.55854 0.771518 3.88471 1.75785C2.19526 1.56253 1.66792 2.73441 2.27339 3.82816C1.93159 4.3555 1.57026 4.87308 2.38081 5.86917C2.09761 6.42581 2.27339 7.03128 2.94721 7.76371C2.77143 8.54496 3.123 9.1016 3.73823 9.53128C3.62104 10.6055 4.73432 11.2305 5.06636 11.4551C5.19331 12.0801 5.45698 12.6661 6.73628 12.9981C6.95112 13.9258 7.71284 14.0918 8.45503 14.2871C6.00386 15.6934 3.90425 17.5391 3.91401 22.0703L3.55268 22.7051C0.740183 24.3848 -1.78911 29.8047 2.16596 34.1993C2.41987 35.5762 2.85932 36.5625 3.24018 37.6563C3.81636 42.0703 7.58589 44.1309 8.57222 44.375C10.0273 45.4688 11.58 46.5039 13.6699 47.2266C15.6523 49.2383 17.8007 50 19.9492 50H20.0468C22.205 50 24.3437 49.2383 26.3164 47.2266C28.416 46.5039 29.9589 45.4688 31.414 44.375C32.4101 44.1309 36.1699 42.0703 36.746 37.6563C37.1269 36.5625 37.5664 35.5762 37.8203 34.1993C41.7851 29.795 39.2558 24.3848 36.4531 22.7051V22.7051ZM34.2851 21.9239C34.1386 23.75 24.6269 15.5664 26.2675 15.293C30.7304 14.5606 34.4316 17.168 34.2851 21.9239V21.9239ZM30.0859 31.0157C27.6933 32.5586 24.246 31.5625 22.3906 28.7891C20.5351 26.0157 20.9648 22.5196 23.3574 20.9766C25.7499 19.4336 29.1972 20.4297 31.0527 23.2032C32.9082 25.9766 32.4785 29.4727 30.0859 31.0157ZM23.455 2.86136C23.5332 3.27152 23.6308 3.52542 23.7382 3.60355C24.2656 3.03714 24.6953 2.46097 25.3789 1.9141C25.3789 2.23636 25.2128 2.57816 25.623 2.83207C25.9843 2.34378 26.4824 1.90433 27.1367 1.53324C26.8242 2.08011 27.0781 2.24613 27.2539 2.47074C27.7519 2.04105 28.2304 1.61136 29.1484 1.26957C28.8945 1.5723 28.5429 1.87503 28.914 2.2266C29.4316 1.90433 29.9492 1.58207 31.1699 1.35746C30.8964 1.66019 30.3203 1.97269 30.6718 2.27542C31.3164 2.03128 32.039 1.84574 32.83 1.74808C32.4492 2.06058 32.1367 2.36332 32.4492 2.60746C33.1425 2.39261 34.0996 2.10941 35.0273 2.35355L34.4414 2.94925C34.373 3.02738 35.8183 3.00785 36.7753 3.02738C36.4238 3.51566 36.0722 3.97464 35.8671 4.80472C35.9648 4.90238 36.4335 4.84378 36.8828 4.80472C36.4238 5.77152 35.6328 6.00589 35.4472 6.42582C35.7304 6.64066 36.1113 6.58206 36.541 6.43558C36.2089 7.10941 35.5253 7.57816 34.9785 8.12503C35.1152 8.22269 35.3593 8.28128 35.9257 8.21292C35.4179 8.75003 34.8124 9.23831 34.0898 9.67777C34.2167 9.82425 34.6562 9.82425 35.0664 9.83402C34.4121 10.4688 33.5722 10.8008 32.7812 11.2207C33.1718 11.4844 33.455 11.4258 33.7578 11.4258C33.2011 11.8848 32.2539 12.1192 31.3749 12.4024C31.541 12.666 31.707 12.7344 32.0683 12.8028C31.1406 13.3203 29.8027 13.086 29.4316 13.3496C29.5195 13.6133 29.7832 13.7793 30.0859 13.916C28.582 14.0039 24.4902 13.8575 23.6992 10.7618C25.2324 9.0723 28.0351 7.09964 32.8496 4.64847C29.0996 5.89847 25.7207 7.57816 22.8886 9.87308C19.539 8.32035 21.8339 4.4141 23.455 2.86136V2.86136ZM20.0957 14.0528C22.4589 14.0235 25.3789 15.7911 25.3691 17.4414C25.3593 18.9063 23.3183 20.0879 20.1152 20.0684C16.9804 20.0293 14.871 18.584 14.8808 17.1582C14.8808 15.9961 17.4394 13.9844 20.0957 14.0528ZM8.08393 12.8028C8.44526 12.7344 8.61128 12.6563 8.77729 12.4024C7.89839 12.1289 6.95112 11.8848 6.39448 11.4258C6.69721 11.4258 6.98042 11.4942 7.37104 11.2207C6.58003 10.8008 5.74018 10.4688 5.08589 9.83402C5.49604 9.82425 5.9355 9.83402 6.06245 9.67777C5.33979 9.23831 4.73432 8.75003 4.22651 8.21292C4.79292 8.28128 5.03706 8.22269 5.17378 8.12503C4.6269 7.57816 3.93354 7.10941 3.61128 6.43558C4.0312 6.58206 4.42182 6.63089 4.70503 6.42582C4.51948 6.01566 3.72846 5.77152 3.26948 4.80472C3.7187 4.84378 4.18745 4.90238 4.28511 4.80472C4.08003 3.97464 3.7187 3.50589 3.3769 3.02738C4.33393 3.01761 5.77925 3.02738 5.71089 2.94925L5.12495 2.35355C6.05268 2.10941 7.00971 2.39261 7.70307 2.60746C8.01557 2.36332 7.69331 2.06058 7.32221 1.74808C8.11323 1.8555 8.82612 2.03128 9.48042 2.27542C9.82222 1.97269 9.25581 1.66019 8.98237 1.35746C10.2031 1.58207 10.7207 1.90433 11.2382 2.2266C11.6093 1.87503 11.2578 1.5723 11.0039 1.26957C11.9218 1.6016 12.4003 2.04105 12.8984 2.47074C13.0644 2.24613 13.3281 2.08011 13.0156 1.53324C13.6699 1.90433 14.1679 2.34378 14.5292 2.83207C14.9296 2.57816 14.7734 2.2266 14.7734 1.9141C15.457 2.46097 15.8867 3.03714 16.414 3.60355C16.5214 3.52542 16.6093 3.27152 16.6972 2.86136C18.3183 4.4141 20.6132 8.32035 17.2832 9.87308C14.4511 7.57816 11.0722 5.89847 7.32221 4.64847C12.1367 7.08988 14.9394 9.0723 16.4726 10.7618C15.6914 13.8672 11.5898 14.0039 10.0859 13.916C10.3886 13.7793 10.6523 13.6035 10.7402 13.3496C10.3496 13.0762 9.02143 13.3106 8.08393 12.8028V12.8028ZM13.9531 15.1563C15.5937 15.4297 6.08198 23.6036 5.9355 21.7871C5.78901 17.0313 9.49995 14.4141 13.9531 15.1563ZM3.85542 33.3985C1.54096 31.5625 0.798777 26.2012 5.08589 23.7989C7.67378 23.1153 5.96479 34.3262 3.85542 33.3985ZM12.7421 42.9883C11.4433 43.7598 8.26948 43.4473 6.02339 40.2637C4.50971 37.5879 4.70503 34.8731 5.76948 34.0723C7.36128 33.1153 9.82221 34.4043 11.7167 36.5723C13.3671 38.5254 14.1191 41.9727 12.7421 42.9883V42.9883ZM10.164 31.2989C7.77143 29.7559 7.34175 26.2598 9.19722 23.4864C11.0527 20.7129 14.4999 19.7168 16.8925 21.2598C19.2851 22.8028 19.7148 26.2989 17.8593 29.0723C15.9941 31.8457 12.5468 32.8418 10.164 31.2989V31.2989ZM20.1445 48.4375C17.2734 48.5547 14.4609 46.1231 14.4999 45.2832C14.4609 44.043 17.996 43.0762 20.291 43.1348C22.6054 43.0371 25.7207 43.8672 25.7304 44.9805C25.7792 46.0547 22.9179 48.4864 20.1445 48.4375V48.4375ZM25.8964 36.2403C25.916 39.1407 23.3378 41.4942 20.1542 41.5137C16.9707 41.5332 14.373 39.1895 14.3535 36.2989V36.2403C14.3339 33.3399 16.9121 30.9864 20.0957 30.9668C23.2792 30.9473 25.8769 33.291 25.8964 36.1817V36.2403V36.2403ZM33.9238 40.4102C31.4531 43.7891 28.1035 43.9161 26.8632 42.9786C25.5644 41.7676 26.5507 38.0078 28.3378 35.9473C30.3789 33.6719 32.5664 32.1875 34.0898 33.3496C35.1152 34.3555 35.7207 38.1446 33.9238 40.4102ZM36.1601 33.2618C34.0605 34.1797 32.3515 22.9786 34.9296 23.6621C39.2167 26.0743 38.4746 31.4356 36.1601 33.2618Z" fill="black"/>
</g>
<defs>
<clipPath id="clip0">
<rect width="39.7461" height="50" fill="white" transform="translate(0.125)"/>
</clipPath>
</defs>
</svg>
