<svg width="51" height="50" viewBox="0 0 51 50" fill="none" xmlns="http://www.w3.org/2000/svg">
<path d="M41.7109 17.3049C41.1836 17.1292 40.6563 16.9632 40.1289 16.8069C40.2168 16.4456 40.2949 16.0842 40.373 15.7229C41.5742 9.90259 40.7832 5.22485 38.1172 3.68189C35.5488 2.20728 31.3594 3.74048 27.1211 7.43189C26.7012 7.79322 26.291 8.17408 25.9004 8.55494C25.6367 8.30103 25.3633 8.04713 25.0898 7.80298C20.6465 3.85767 16.1934 2.19752 13.5273 3.75025C10.9688 5.23463 10.207 9.63891 11.2812 15.1467C11.3887 15.6936 11.5059 16.2307 11.6426 16.7776C11.0176 16.9534 10.4023 17.1487 9.82617 17.3538C4.61133 19.1604 0.871094 22.012 0.871094 24.9612C0.871094 28.0081 4.85547 31.0647 10.2754 32.9202C10.7148 33.0667 11.1543 33.2131 11.6035 33.3401C11.457 33.926 11.3301 34.5022 11.2129 35.0979C10.1875 40.5178 10.9883 44.8147 13.5469 46.2893C16.1836 47.8128 20.6172 46.2503 24.9336 42.471C25.2754 42.1682 25.6172 41.8557 25.959 41.5237C26.3887 41.9436 26.8379 42.344 27.2871 42.7346C31.4668 46.3284 35.5977 47.7835 38.1465 46.3089C40.7832 44.7854 41.6426 40.1663 40.5293 34.5413C40.4414 34.1116 40.3438 33.6721 40.2363 33.2229C40.5488 33.135 40.8516 33.0374 41.1543 32.9397C46.7891 31.0745 50.8711 28.0569 50.8711 24.9612C50.8711 22.0022 47.0234 19.1311 41.7109 17.3049ZM28.498 9.01392C32.1309 5.84985 35.5195 4.60962 37.0625 5.49829C38.7129 6.44555 39.3477 10.2737 38.3125 15.303C38.2441 15.635 38.1758 15.9573 38.0879 16.2796C35.9199 15.7913 33.7227 15.4397 31.5156 15.2444C30.2461 13.428 28.8594 11.6897 27.3555 10.0589C27.7363 9.69751 28.1074 9.35572 28.498 9.01392ZM17.1992 30.0296C17.6973 30.8792 18.2051 31.7288 18.7422 32.5589C17.2187 32.3928 15.7051 32.1487 14.2109 31.8264C14.6406 30.4202 15.1777 28.9651 15.8027 27.4807C16.252 28.3401 16.7109 29.1897 17.1992 30.0296ZM14.2402 18.2815C15.6465 17.969 17.1406 17.7151 18.6934 17.5198C18.1758 18.3303 17.668 19.1604 17.1895 20.0003C16.7109 20.8303 16.2422 21.6799 15.8027 22.5393C15.1875 21.0842 14.6699 19.6585 14.2402 18.2815ZM16.916 25.01C17.5605 23.6624 18.2637 22.344 19.0059 21.0452C19.748 19.7464 20.5488 18.4866 21.3887 17.2464C22.8535 17.1389 24.3477 17.0803 25.8711 17.0803C27.3945 17.0803 28.8984 17.1389 30.3535 17.2464C31.1836 18.4768 31.9746 19.7366 32.7266 21.0256C33.4785 22.3147 34.1816 23.6331 34.8457 24.971C34.1914 26.3186 33.4883 27.6467 32.7363 28.9553C31.9941 30.2542 31.2031 31.5139 30.373 32.7639C28.918 32.8714 27.4043 32.9202 25.8711 32.9202C24.3379 32.9202 22.8535 32.8714 21.418 32.7835C20.5684 31.5432 19.7676 30.2737 19.0156 28.9749C18.2637 27.676 17.5703 26.3577 16.916 25.01ZM34.5527 30.01C35.0508 29.1506 35.5195 28.2815 35.9785 27.4026C36.6035 28.8186 37.1504 30.2542 37.6289 31.7288C36.1152 32.0706 34.582 32.3342 33.0391 32.51C33.5664 31.6897 34.0645 30.8499 34.5527 30.01ZM35.959 22.5393C35.5 21.6799 35.0312 20.8206 34.543 19.9807C34.0645 19.1506 33.5664 18.3303 33.0488 17.5198C34.6211 17.7151 36.125 17.9788 37.5312 18.301C37.082 19.7464 36.5547 21.1526 35.959 22.5393ZM25.8906 11.553C26.916 12.6663 27.8828 13.8382 28.7812 15.0491C26.8477 14.9612 24.9043 14.9612 22.9707 15.0491C23.9277 13.7893 24.9141 12.6174 25.8906 11.553ZM14.5625 5.56666C16.2031 4.60963 19.8457 5.97681 23.6836 9.37525C23.9277 9.59009 24.1719 9.82446 24.4258 10.0589C22.9121 11.6897 21.5156 13.428 20.2363 15.2444C18.0293 15.4397 15.8418 15.7815 13.6738 16.26C13.5469 15.762 13.4395 15.2542 13.332 14.7464C12.4141 10.0198 13.0195 6.45533 14.5625 5.56666ZM12.1699 31.3089C11.7598 31.1917 11.3594 31.0647 10.959 30.928C8.87891 30.2737 6.51562 29.2385 4.80664 27.8811C3.82031 27.1975 3.15625 26.1428 2.9707 24.9612C2.9707 23.1741 6.05664 20.8889 10.5098 19.3362C11.0664 19.1409 11.6328 18.9651 12.1992 18.7991C12.8633 20.9182 13.6641 22.9983 14.5918 25.01C13.6543 27.051 12.8437 29.1604 12.1699 31.3089ZM23.5566 40.8792C21.9453 42.3538 20.0801 43.5256 18.0488 44.3264C16.9648 44.844 15.7148 44.8928 14.6016 44.4534C13.0488 43.5549 12.4043 40.1077 13.2832 35.469C13.3906 34.9221 13.5078 34.3753 13.6445 33.8381C15.832 34.3069 18.0391 34.6292 20.2754 34.7952C21.5645 36.6213 22.9805 38.3694 24.4941 40.01C24.1816 40.3128 23.8691 40.6057 23.5566 40.8792ZM25.9492 38.5061C24.9531 37.4319 23.957 36.2405 22.9902 34.9612C23.9277 35.0003 24.8945 35.0198 25.8711 35.0198C26.877 35.0198 27.8633 35.0003 28.8398 34.9514C27.9414 36.1917 26.9746 37.3733 25.9492 38.5061ZM38.7129 41.4358C38.625 42.6272 38.0391 43.7405 37.1016 44.4924C35.5488 45.3909 32.2383 44.219 28.6641 41.1526C28.2539 40.801 27.8437 40.4202 27.4238 40.0296C28.918 38.3792 30.2949 36.6311 31.5449 34.7952C33.7813 34.6096 36.0078 34.2678 38.2051 33.7698C38.3027 34.1702 38.3906 34.5706 38.4688 34.9612C38.9473 37.0706 39.0254 39.2678 38.7129 41.4358ZM40.4902 30.9378C40.2168 31.0256 39.9434 31.1135 39.6602 31.1917C38.9766 29.0628 38.1367 26.9827 37.1699 24.9612C38.1074 22.969 38.8984 20.9182 39.5625 18.8186C40.0703 18.9651 40.5586 19.1214 41.0273 19.2776C45.5781 20.8401 48.7715 23.1643 48.7715 24.9417C48.7715 26.8557 45.3633 29.3264 40.4902 30.9378ZM25.8711 29.4729C28.3418 29.4729 30.3437 27.471 30.3437 25.0003C30.3437 22.5296 28.3418 20.5276 25.8711 20.5276C23.4004 20.5276 21.3984 22.5296 21.3984 25.0003C21.3984 27.471 23.4004 29.4729 25.8711 29.4729Z" fill="black"/>
</svg>
