<svg width="38" height="50" viewBox="0 0 38 50" fill="none" xmlns="http://www.w3.org/2000/svg">
<g clip-path="url(#clip0)">
<path d="M35 0.312201L31.25 4.6872L25.9375 0.312201C25.6677 0.107838 25.3385 -0.00276251 25 -0.00276251C24.6615 -0.00276251 24.3323 0.107838 24.0625 0.312201L18.75 4.6872L13.4375 0.312201C13.1677 0.107838 12.8385 -0.00276251 12.5 -0.00276251C12.1615 -0.00276251 11.8323 0.107838 11.5625 0.312201L6.25 4.6872L2.5 0.312201C1.46484 -0.459284 0 0.273138 0 1.5622V48.4372C0 49.7263 1.46484 50.4587 2.5 49.6872L6.25 45.3122L11.5625 49.6872C11.8323 49.8916 12.1615 50.0022 12.5 50.0022C12.8385 50.0022 13.1677 49.8916 13.4375 49.6872L18.75 45.3122L24.0625 49.6872C24.3323 49.8916 24.6615 50.0022 25 50.0022C25.3385 50.0022 25.6677 49.8916 25.9375 49.6872L31.25 45.3122L35 49.6872C36.0254 50.4587 37.5 49.7263 37.5 48.4372V1.5622C37.5 0.273138 36.0352 -0.459284 35 0.312201ZM31.25 35.156C31.25 35.5857 30.8984 35.9372 30.4688 35.9372H7.03125C6.60156 35.9372 6.25 35.5857 6.25 35.156V33.5935C6.25 33.1638 6.60156 32.8122 7.03125 32.8122H30.4688C30.8984 32.8122 31.25 33.1638 31.25 33.5935V35.156ZM31.25 25.781C31.25 26.2107 30.8984 26.5622 30.4688 26.5622H7.03125C6.60156 26.5622 6.25 26.2107 6.25 25.781V24.2185C6.25 23.7888 6.60156 23.4372 7.03125 23.4372H30.4688C30.8984 23.4372 31.25 23.7888 31.25 24.2185V25.781ZM31.25 16.406C31.25 16.8357 30.8984 17.1872 30.4688 17.1872H7.03125C6.60156 17.1872 6.25 16.8357 6.25 16.406V14.8435C6.25 14.4138 6.60156 14.0622 7.03125 14.0622H30.4688C30.8984 14.0622 31.25 14.4138 31.25 14.8435V16.406Z" fill="black"/>
</g>
<defs>
<clipPath id="clip0">
<rect width="38" height="50" fill="white"/>
</clipPath>
</defs>
</svg>
