<svg width="51" height="50" viewBox="0 0 51 50" fill="none" xmlns="http://www.w3.org/2000/svg">
<path d="M43.869 19.8731C42.4042 19.8731 41.1151 20.4786 40.1679 21.4259C36.6815 19.0138 31.9843 17.461 26.7792 17.295L29.4843 5.10751L38.0976 7.04111C38.0976 9.15048 39.8163 10.8692 41.9257 10.8692C44.0741 10.8692 45.8026 9.10165 45.8026 6.99228C45.8026 4.8829 44.0839 3.11533 41.9257 3.11533C40.4218 3.11533 39.123 4.02353 38.4784 5.26376L28.9667 3.15439C28.4882 3.02744 28.0194 3.36923 27.8925 3.84775L24.9237 17.2852C19.7577 17.5001 15.1093 19.0528 11.6132 21.4649C10.6659 20.4786 9.32803 19.8731 7.86319 19.8731C2.4335 19.8731 0.656157 27.1583 5.62686 29.6485C5.45108 30.42 5.37295 31.2403 5.37295 32.0606C5.37295 40.2442 14.5917 46.8751 25.9101 46.8751C37.2773 46.8751 46.496 40.2442 46.496 32.0606C46.496 31.2403 46.4081 30.381 46.1933 29.6095C51.0663 27.1095 49.2694 19.8731 43.869 19.8731V19.8731ZM13.5077 30.1661C13.5077 28.0177 15.2265 26.2892 17.3847 26.2892C19.494 26.2892 21.2128 28.0079 21.2128 30.1661C21.2128 32.2755 19.494 33.9942 17.3847 33.9942C15.2362 34.004 13.5077 32.2755 13.5077 30.1661V30.1661ZM34.4355 39.297C30.8808 42.8517 20.8515 42.8517 17.2968 39.297C16.9062 38.9552 16.9062 38.3497 17.2968 37.9591C17.6386 37.6173 18.244 37.6173 18.5858 37.9591C21.3007 40.7423 30.3046 40.7911 33.1366 37.9591C33.4784 37.6173 34.0839 37.6173 34.4257 37.9591C34.8261 38.3497 34.8261 38.9552 34.4355 39.297ZM34.3573 34.004C32.248 34.004 30.5292 32.2853 30.5292 30.1759C30.5292 28.0274 32.248 26.2989 34.3573 26.2989C36.5058 26.2989 38.2343 28.0177 38.2343 30.1759C38.2245 32.2755 36.5058 34.004 34.3573 34.004Z" fill="black"/>
</svg>
