<svg width="51" height="50" viewBox="0 0 51 50" fill="none" xmlns="http://www.w3.org/2000/svg">
<path d="M43.8691 19.873C42.4043 19.873 41.1152 20.4785 40.168 21.4258C36.6816 19.0137 31.9844 17.4609 26.7793 17.2949L29.4844 5.10741L38.0977 7.04101C38.0977 9.15038 39.8164 10.8691 41.9258 10.8691C44.0742 10.8691 45.8027 9.10155 45.8027 6.99218C45.8027 4.8828 44.084 3.11523 41.9258 3.11523C40.4219 3.11523 39.1231 4.02343 38.4785 5.26366L28.9668 3.15429C28.4883 3.02734 28.0195 3.36913 27.8926 3.84765L24.9238 17.2851C19.7578 17.5 15.1094 19.0527 11.6133 21.4648C10.666 20.4785 9.32809 19.873 7.86325 19.873C2.43356 19.873 0.656218 27.1582 5.62692 29.6484C5.45114 30.4199 5.37301 31.2402 5.37301 32.0605C5.37301 40.2441 14.5918 46.875 25.9102 46.875C37.2774 46.875 46.4961 40.2441 46.4961 32.0605C46.4961 31.2402 46.4082 30.3809 46.1934 29.6094C51.0664 27.1094 49.2695 19.873 43.8691 19.873ZM13.5078 30.166C13.5078 28.0176 15.2266 26.2891 17.3848 26.2891C19.4941 26.2891 21.2129 28.0078 21.2129 30.166C21.2129 32.2754 19.4941 33.9941 17.3848 33.9941C15.2363 34.0039 13.5078 32.2754 13.5078 30.166ZM34.4356 39.2969C30.8809 42.8516 20.8516 42.8516 17.2969 39.2969C16.9063 38.9551 16.9063 38.3496 17.2969 37.959C17.6387 37.6172 18.2441 37.6172 18.5859 37.959C21.3008 40.7422 30.3047 40.791 33.1367 37.959C33.4785 37.6172 34.084 37.6172 34.4258 37.959C34.8262 38.3496 34.8262 38.9551 34.4356 39.2969ZM34.3574 34.0039C32.2481 34.0039 30.5293 32.2852 30.5293 30.1758C30.5293 28.0273 32.2481 26.2988 34.3574 26.2988C36.5059 26.2988 38.2344 28.0176 38.2344 30.1758C38.2246 32.2754 36.5059 34.0039 34.3574 34.0039Z" fill="black"/>
</svg>
