<svg width="51" height="50" viewBox="0 0 51 50" fill="none" xmlns="http://www.w3.org/2000/svg">
<path d="M34.2227 27.8867C37.5088 27.8867 42.2637 27.209 42.2637 23.2968C42.2852 22.6386 42.3477 23.1191 40.2246 13.8984C39.7734 12.0283 39.377 11.1797 36.0928 9.53809C33.5449 8.23535 27.9951 6.08398 26.3535 6.08398C24.8242 6.08398 24.3809 8.05371 22.5576 8.05371C20.7998 8.05371 19.5 6.58301 17.8584 6.58301C16.2822 6.58301 15.2549 7.65723 14.4619 9.86621C11.7764 17.4394 11.8955 17.1191 11.9111 17.5097C11.9111 19.9316 21.4463 27.872 34.2227 27.872V27.8867ZM42.7656 24.8867C43.2197 27.0351 43.2197 27.2646 43.2197 27.5478C43.2197 31.2256 39.0859 33.2666 33.6494 33.2666C21.3701 33.2744 10.6113 26.0742 10.6113 21.3203C10.6103 20.658 10.7453 20.0025 11.0078 19.3945C6.58984 19.6152 0.871094 20.4033 0.871094 25.4521C0.871094 33.7207 20.4639 43.9092 35.9775 43.9092C47.8711 43.9092 50.8711 38.5302 50.8711 34.2822C50.8711 30.9414 47.9814 27.1484 42.7725 24.8838" fill="black"/>
</svg>
