<svg width="53" height="50" viewBox="0 0 53 50" fill="none" xmlns="http://www.w3.org/2000/svg">
<g clip-path="url(#clip0)">
<path d="M36.3524 34.7746C38.2787 34.5697 39.7541 32.9098 39.6926 30.9016C39.6311 28.8934 37.9508 27.2951 35.9631 27.2951H35.8197C33.75 27.3566 32.1516 29.0984 32.2131 31.168C32.2746 32.1721 32.6844 33.0328 33.2787 33.6475C31.0041 38.1148 27.541 41.3934 22.3361 44.1189C18.791 45.9836 15.1229 46.6598 11.4549 46.1885C8.44261 45.7787 6.10655 44.4467 4.65163 42.2541C2.52048 38.9754 2.31556 35.4508 4.11884 31.9057C5.38933 29.3648 7.39753 27.5 8.66802 26.5574C8.40163 25.6967 7.99179 24.2213 7.80736 23.1557C-1.86477 30.1639 -0.860667 39.6516 2.06966 44.1189C4.28278 47.459 8.74999 49.5287 13.6885 49.5287C15.0205 49.5287 16.3524 49.3852 17.6844 49.0574C26.209 47.3975 32.6844 42.3156 36.3524 34.7746ZM48.0942 26.4959C43.0123 20.5533 35.5533 17.2746 27.0082 17.2746H25.9426C25.3483 16.0656 24.0779 15.2664 22.6639 15.2664H22.5205C20.4508 15.3484 18.8524 17.0902 18.9344 19.1598C18.9959 21.168 20.6762 22.7664 22.6639 22.7664H22.8074C24.2828 22.7049 25.5533 21.7623 26.0861 20.4918H27.2951C32.377 20.4918 37.1721 21.9672 41.5164 24.8361C44.8565 27.0492 47.2541 29.918 48.5861 33.3811C49.7131 36.1885 49.6516 38.9139 48.4426 41.25C46.5779 44.7951 43.4426 46.7213 39.3033 46.7213C36.6393 46.7213 34.0983 45.9221 32.7664 45.3279C32.0287 46.0041 30.6967 47.0697 29.7541 47.7254C32.6229 49.0574 35.5533 49.7951 38.3606 49.7951C44.7746 49.7951 49.5082 46.25 51.3115 42.7254C53.2377 38.8525 53.0942 32.1721 48.0942 26.4959ZM14.1803 35.9221C14.2418 37.9303 15.9221 39.5287 17.9098 39.5287H18.0533C20.1229 39.4672 21.7213 37.7254 21.6598 35.6557C21.5983 33.6475 19.918 32.0492 17.9303 32.0492H17.7869C17.6434 32.0492 17.459 32.0492 17.3156 32.1107C14.5697 27.5615 13.4426 22.623 13.8524 17.2951C14.1188 13.2992 15.4508 9.81557 17.7869 6.94672C19.7131 4.46721 23.4631 3.27869 26.0041 3.21721C33.0738 3.07377 36.0861 11.9057 36.291 15.4303C37.1516 15.6352 38.627 16.1066 39.6311 16.4344C38.8115 5.61475 32.1516 0 25.7377 0C19.7336 0 14.1803 4.34426 11.9877 10.7582C8.91392 19.3033 10.9221 27.5205 14.6516 33.9959C14.3238 34.4467 14.1188 35.1844 14.1803 35.9221Z" fill="black"/>
</g>
<defs>
<clipPath id="clip0">
<rect width="52.459" height="50" fill="white"/>
</clipPath>
</defs>
</svg>
