<svg width="57" height="50" viewBox="0 0 57 50" fill="none" xmlns="http://www.w3.org/2000/svg">
<path d="M56.4756 39.3232L42.8242 8.07324C42.3388 6.96191 41.2812 6.25 40.1172 6.25H30.5869L30.8262 8.51172C30.875 8.97266 30.5127 9.375 30.0488 9.375H27.2012C26.7373 9.375 26.375 8.97266 26.4238 8.51172L26.6631 6.25H17.1328C15.9678 6.25 14.9101 6.96191 14.4248 8.07324L0.773394 39.3232C-0.129926 41.3926 1.31148 43.75 3.48238 43.75H22.7051L23.7119 34.2109C23.7959 33.416 24.4658 32.8125 25.2656 32.8125H31.9844C32.7842 32.8125 33.4541 33.416 33.5381 34.2109L34.5449 43.75H53.7676C55.9385 43.75 57.3799 41.3926 56.4756 39.3232ZM25.9297 13.1992C25.9499 13.0072 26.0406 12.8295 26.1841 12.7004C26.3277 12.5713 26.5139 12.4999 26.707 12.5H30.5439C30.9433 12.5 31.2793 12.8018 31.3213 13.1992L31.7705 17.4551C31.8437 18.1475 31.3008 18.75 30.6054 18.75H26.6465C25.9502 18.75 25.4082 18.1475 25.4814 17.4551L25.9297 13.1992ZM31.3242 29.6875H25.9248C24.9971 29.6875 24.2734 28.8838 24.3711 27.9609L24.8662 23.2734C24.9502 22.4785 25.6201 21.875 26.4199 21.875H30.8291C31.6289 21.875 32.2988 22.4785 32.3828 23.2734L32.8779 27.9609C32.9756 28.8838 32.2519 29.6875 31.3242 29.6875Z" fill="black"/>
</svg>
