<svg width="57" height="50" viewBox="0 0 57 50" fill="none" xmlns="http://www.w3.org/2000/svg">
<g clip-path="url(#clip0)">
<path d="M56.4757 39.3232L42.8243 8.07324C42.3389 6.96191 41.2813 6.25 40.1173 6.25H30.587L30.8263 8.51172C30.8751 8.97266 30.5128 9.375 30.0489 9.375H27.2013C26.7374 9.375 26.3751 8.97266 26.4239 8.51172L26.6632 6.25H17.1329C15.9679 6.25 14.9102 6.96191 14.4249 8.07324L0.773516 39.3232C-0.129804 41.3926 1.3116 43.75 3.4825 43.75H22.7052L23.712 34.2109C23.796 33.416 24.4659 32.8125 25.2657 32.8125H31.9845C32.7843 32.8125 33.4542 33.416 33.5382 34.2109L34.545 43.75H53.7677C55.9386 43.75 57.38 41.3926 56.4757 39.3232ZM25.9298 13.1992C25.95 13.0072 26.0407 12.8295 26.1842 12.7004C26.3278 12.5713 26.514 12.4999 26.7071 12.5H30.544C30.9434 12.5 31.2794 12.8018 31.3214 13.1992L31.7706 17.4551C31.8438 18.1475 31.3009 18.75 30.6055 18.75H26.6466C25.9503 18.75 25.4083 18.1475 25.4815 17.4551L25.9298 13.1992V13.1992ZM31.3243 29.6875H25.9249C24.9972 29.6875 24.2735 28.8838 24.3712 27.9609L24.8663 23.2734C24.9503 22.4785 25.6202 21.875 26.42 21.875H30.8292C31.629 21.875 32.2989 22.4785 32.3829 23.2734L32.878 27.9609C32.9757 28.8838 32.252 29.6875 31.3243 29.6875V29.6875Z" fill="black"/>
</g>
<defs>
<clipPath id="clip0">
<rect width="56.25" height="50" fill="white" transform="translate(0.5)"/>
</clipPath>
</defs>
</svg>
