<svg width="64" height="50" viewBox="0 0 64 50" fill="none" xmlns="http://www.w3.org/2000/svg">
<path d="M3.875 21.875H7V40.625H3.875C3.46448 40.6255 3.0579 40.545 2.67853 40.3881C2.29917 40.2313 1.95448 40.0011 1.66419 39.7108C1.37391 39.4205 1.14375 39.0758 0.986875 38.6965C0.830003 38.3171 0.749509 37.9105 0.750002 37.5V25C0.749509 24.5895 0.830003 24.1829 0.986875 23.8035C1.14375 23.4242 1.37391 23.0795 1.66419 22.7892C1.95448 22.4989 2.29917 22.2687 2.67853 22.1119C3.0579 21.955 3.46448 21.8745 3.875 21.875ZM53.875 17.1875V43.75C53.8733 45.4071 53.2143 46.9959 52.0426 48.1676C50.8708 49.3394 49.2821 49.9984 47.625 50H16.375C14.7179 49.9984 13.1291 49.3394 11.9574 48.1676C10.7856 46.9959 10.1266 45.4071 10.125 43.75V17.1875C10.1246 16.1615 10.3265 15.1454 10.719 14.1974C11.1115 13.2494 11.6869 12.388 12.4125 11.6625C13.138 10.937 13.9994 10.3615 14.9474 9.96901C15.8954 9.57652 16.9114 9.37467 17.9375 9.375H28.875V3.125C28.875 2.2962 29.2042 1.50134 29.7903 0.915291C30.3763 0.32924 31.1712 0 32 0C32.8288 0 33.6236 0.32924 34.2097 0.915291C34.7957 1.50134 35.125 2.2962 35.125 3.125V9.375H46.0625C47.0885 9.37467 48.1046 9.57652 49.0526 9.96901C50.0006 10.3615 50.862 10.937 51.5875 11.6625C52.313 12.388 52.8885 13.2494 53.281 14.1974C53.6735 15.1454 53.8753 16.1615 53.875 17.1875ZM26.5312 25C26.5312 24.2274 26.3021 23.4722 25.8729 22.8298C25.4437 22.1874 24.8336 21.6868 24.1198 21.3911C23.4061 21.0954 22.6206 21.0181 21.8629 21.1688C21.1052 21.3195 20.4091 21.6916 19.8628 22.2379C19.3165 22.7842 18.9445 23.4802 18.7938 24.2379C18.6431 24.9957 18.7204 25.7811 19.0161 26.4949C19.3117 27.2086 19.8124 27.8187 20.4548 28.2479C21.0972 28.6772 21.8524 28.9062 22.625 28.9062C23.138 28.9063 23.6459 28.8053 24.1199 28.609C24.5938 28.4127 25.0245 28.125 25.3872 27.7622C25.7499 27.3995 26.0377 26.9688 26.234 26.4949C26.4303 26.021 26.5313 25.513 26.5312 25ZM25.75 37.5H19.5V40.625H25.75V37.5ZM35.125 37.5H28.875V40.625H35.125V37.5ZM45.2812 25C45.2812 24.2274 45.0521 23.4722 44.6229 22.8298C44.1937 22.1874 43.5836 21.6868 42.8698 21.3911C42.1561 21.0954 41.3706 21.0181 40.6129 21.1688C39.8552 21.3195 39.1591 21.6916 38.6128 22.2379C38.0665 22.7842 37.6945 23.4802 37.5438 24.2379C37.3931 24.9957 37.4704 25.7811 37.7661 26.4949C38.0617 27.2086 38.5624 27.8187 39.2048 28.2479C39.8472 28.6772 40.6024 28.9062 41.375 28.9062C41.888 28.9063 42.3959 28.8053 42.8699 28.609C43.3438 28.4127 43.7745 28.125 44.1372 27.7622C44.4999 27.3995 44.7877 26.9688 44.984 26.4949C45.1803 26.021 45.2813 25.513 45.2812 25ZM44.5 37.5H38.25V40.625H44.5V37.5ZM63.25 25V37.5C63.2505 37.9105 63.17 38.3171 63.0131 38.6965C62.8562 39.0758 62.6261 39.4205 62.3358 39.7108C62.0455 40.0011 61.7008 40.2313 61.3214 40.3881C60.9421 40.545 60.5355 40.6255 60.125 40.625H57V21.875H60.125C60.5355 21.8745 60.9421 21.955 61.3214 22.1119C61.7008 22.2687 62.0455 22.4989 62.3358 22.7892C62.6261 23.0795 62.8562 23.4242 63.0131 23.8035C63.17 24.1829 63.2505 24.5895 63.25 25Z" fill="black"/>
</svg>
