<svg width="41" height="50" viewBox="0 0 41 50" fill="none" xmlns="http://www.w3.org/2000/svg">
<path d="M26.8125 9.375C29.4014 9.375 31.5 7.27637 31.5 4.6875C31.5 2.09863 29.4014 0 26.8125 0C24.2236 0 22.125 2.09863 22.125 4.6875C22.125 7.27637 24.2236 9.375 26.8125 9.375ZM11.3525 31.0029L9.90723 34.374H3.375C1.64941 34.374 0.25 35.7734 0.25 37.499C0.25 39.2246 1.64941 40.624 3.375 40.624H10.9385C12.8184 40.624 14.5107 39.5068 15.2461 37.7832L16.1045 35.7793L15.0625 35.1641C13.3711 34.165 12.127 32.6865 11.3525 31.0029ZM37.75 21.874H33.4502L30.9053 16.6738C29.6846 14.1787 27.4434 12.3545 24.8721 11.6992L17.9307 9.63477C15.167 8.9707 12.2891 9.58105 10.0361 11.3086L6.16211 14.2783C4.79199 15.3281 4.53223 17.2891 5.58398 18.6592C6.63574 20.0293 8.5957 20.2861 9.96484 19.2373L13.8408 16.2676C14.5898 15.6924 15.5439 15.4863 16.3086 15.668L17.7441 16.0947L14.0859 24.6289C12.8535 27.5078 13.958 30.8799 16.6543 32.4717L24.9531 37.3711L22.2705 45.9385C21.7549 47.585 22.6719 49.3379 24.3184 49.8535C24.6299 49.9512 24.9443 49.998 25.2539 49.998C26.583 49.998 27.8154 49.1416 28.2344 47.8057L31.3242 37.9365C31.9014 35.9082 31.042 33.7295 29.2109 32.625L23.2305 29.0957L26.2881 21.4512L28.2676 25.4971C29.0488 27.0928 30.7012 28.123 32.4775 28.123H37.75C39.4756 28.123 40.875 26.7236 40.875 24.998C40.875 23.2725 39.4756 21.874 37.75 21.874Z" fill="black"/>
</svg>
