<svg width="51" height="50" viewBox="0 0 51 50" fill="none" xmlns="http://www.w3.org/2000/svg">
<g clip-path="url(#clip0)">
<path d="M50.5312 24.3898L48.4003 23.0705C48.3837 22.8752 48.3671 22.6867 48.3466 22.4963L50.1747 20.7873C50.2639 20.7039 50.3304 20.5991 50.3678 20.4828C50.4051 20.3665 50.4122 20.2427 50.3884 20.1229C50.3645 20.0031 50.3105 19.8914 50.2314 19.7983C50.1523 19.7053 50.0508 19.6339 49.9365 19.591L47.5927 18.7121C47.54 18.5285 47.4872 18.343 47.4296 18.1613L48.8945 16.1272C48.9657 16.0279 49.0104 15.9121 49.0244 15.7907C49.0384 15.6693 49.0211 15.5463 48.9743 15.4335C48.9274 15.3206 48.8525 15.2216 48.7567 15.1458C48.6609 15.0699 48.5473 15.0198 48.4267 15.0002L45.9443 14.5949C45.8564 14.426 45.7695 14.258 45.6777 14.092L46.7206 11.8049C46.7713 11.6936 46.7927 11.5712 46.7827 11.4493C46.7728 11.3274 46.7319 11.2101 46.6639 11.1085C46.596 11.0068 46.5031 10.9243 46.3943 10.8686C46.2854 10.8129 46.1641 10.7859 46.0419 10.7902L43.5204 10.8791C43.4039 10.7346 43.2864 10.5913 43.1679 10.4494L43.7421 7.9924C43.7699 7.87339 43.7669 7.74927 43.7333 7.63176C43.6998 7.51425 43.6368 7.40724 43.5504 7.32083C43.464 7.23442 43.357 7.17147 43.2395 7.13792C43.122 7.10438 42.9978 7.10135 42.8788 7.12912L40.4218 7.70822C40.2805 7.58908 40.1373 7.47156 39.9921 7.35568L40.081 4.83419C40.0862 4.71158 40.0599 4.58969 40.0045 4.48015C39.9492 4.37062 39.8667 4.2771 39.7649 4.20853C39.6631 4.13996 39.5455 4.09863 39.4232 4.08849C39.3009 4.07835 39.178 4.09973 39.0663 4.1506L36.7792 5.19845C36.6132 5.10666 36.4443 5.01876 36.2763 4.93185L35.871 2.44943C35.8514 2.32882 35.8013 2.21523 35.7255 2.11941C35.6496 2.02358 35.5506 1.9487 35.4378 1.90186C35.3249 1.85501 35.2019 1.83776 35.0806 1.85172C34.9592 1.86568 34.8433 1.91041 34.7441 1.98166L32.707 3.44357C32.5253 3.38595 32.3408 3.33322 32.1562 3.28048L31.2773 0.936737C31.2344 0.822382 31.163 0.720861 31.07 0.641779C30.9769 0.562698 30.8652 0.508672 30.7454 0.484814C30.6256 0.460956 30.5018 0.468056 30.3855 0.505441C30.2692 0.542826 30.1644 0.60926 30.081 0.698456L28.372 2.52658C28.1816 2.50607 27.9902 2.48947 27.7978 2.47287L26.4814 0.340057C26.417 0.23608 26.3272 0.150265 26.2204 0.0907513C26.1136 0.0312381 25.9933 0 25.871 0C25.7487 0 25.6285 0.0312381 25.5217 0.0907513C25.4149 0.150265 25.325 0.23608 25.2607 0.340057L23.9413 2.47091C23.746 2.48751 23.5575 2.50412 23.3671 2.52462L21.6581 0.696503C21.5747 0.607307 21.4699 0.540873 21.3536 0.503488C21.2374 0.466103 21.1135 0.459003 20.9937 0.482861C20.8739 0.506719 20.7622 0.560745 20.6691 0.639826C20.5761 0.718908 20.5047 0.820429 20.4618 0.934784L19.5829 3.27853C19.3984 3.33224 19.2128 3.384 19.0302 3.44259L16.997 1.97775C16.8977 1.9065 16.7819 1.86178 16.6605 1.84781C16.5391 1.83385 16.4162 1.85111 16.3033 1.89795C16.1905 1.9448 16.0914 2.01968 16.0156 2.1155C15.9398 2.21132 15.8897 2.32492 15.87 2.44552L15.4648 4.92697C15.2958 5.01486 15.1279 5.10177 14.9609 5.19357L12.6757 4.15548C12.564 4.10462 12.4412 4.08323 12.3189 4.09337C12.1966 4.10352 12.0789 4.14485 11.9771 4.21341C11.8754 4.28198 11.7929 4.3755 11.7375 4.48504C11.6822 4.59457 11.6559 4.71647 11.6611 4.83908L11.7509 7.35958C11.6054 7.4758 11.4579 7.59298 11.3193 7.71212L8.86325 7.12912C8.74425 7.10135 8.62012 7.10438 8.50262 7.13792C8.38511 7.17147 8.27809 7.23442 8.19168 7.32083C8.10527 7.40724 8.04232 7.51425 8.00877 7.63176C7.97523 7.74927 7.9722 7.87339 7.99997 7.9924L8.57907 10.4494C8.45895 10.591 8.34177 10.7356 8.22556 10.8801L5.70505 10.7912C5.58293 10.7875 5.46186 10.8148 5.3531 10.8705C5.24434 10.9261 5.15142 11.0084 5.08298 11.1096C5.01518 11.2113 4.97447 11.3286 4.96473 11.4505C4.95499 11.5723 4.97653 11.6947 5.02731 11.8059L6.06833 14.092C5.97653 14.258 5.88962 14.427 5.80173 14.5959L3.32028 15.0002C3.19968 15.0198 3.08608 15.0699 2.99026 15.1458C2.89444 15.2216 2.81956 15.3206 2.77271 15.4335C2.72587 15.5463 2.70861 15.6693 2.72257 15.7907C2.73654 15.9121 2.78126 16.0279 2.85251 16.1272L4.31735 18.1604C4.25974 18.343 4.207 18.5285 4.15329 18.7131L1.80954 19.592C1.69519 19.6349 1.59366 19.7062 1.51458 19.7993C1.4355 19.8924 1.38148 20.0041 1.35762 20.1239C1.33376 20.2436 1.34086 20.3675 1.37824 20.4838C1.41563 20.6001 1.48206 20.7049 1.57126 20.7883L3.39938 22.4973C3.37888 22.6877 3.36227 22.8791 3.34567 23.0715L1.21091 24.3898C1.10693 24.4542 1.02112 24.544 0.961601 24.6509C0.902088 24.7577 0.87085 24.8779 0.87085 25.0002C0.87085 25.1225 0.902088 25.2427 0.961601 25.3495C1.02112 25.4564 1.10693 25.5462 1.21091 25.6106L3.34177 26.9299C3.35837 27.1252 3.37497 27.3127 3.39548 27.5031L1.56735 29.2121C1.47816 29.2955 1.41172 29.4003 1.37434 29.5166C1.33695 29.6329 1.32985 29.7568 1.35371 29.8765C1.37757 29.9963 1.43159 30.108 1.51068 30.2011C1.58976 30.2942 1.69128 30.3655 1.80563 30.4084L4.14938 31.2873C4.2031 31.4719 4.25485 31.6565 4.31345 31.8391L2.8486 33.8732C2.77736 33.9725 2.73263 34.0883 2.71867 34.2097C2.7047 34.3311 2.72196 34.4541 2.76881 34.5669C2.81565 34.6798 2.89053 34.7788 2.98635 34.8546C3.08218 34.9305 3.19577 34.9806 3.31638 35.0002L5.7988 35.4055C5.88669 35.5734 5.9736 35.7424 6.0654 35.9074L5.02731 38.1955C4.97653 38.3067 4.95499 38.429 4.96473 38.5509C4.97447 38.6727 5.01518 38.7901 5.08298 38.8918C5.14942 38.995 5.24194 39.0788 5.35118 39.1347C5.46043 39.1906 5.5825 39.2166 5.70505 39.2102L8.22751 39.1213C8.34274 39.2658 8.45993 39.4091 8.57907 39.551L7.99997 42.008C7.9722 42.127 7.97523 42.2511 8.00877 42.3686C8.04232 42.4862 8.10527 42.5932 8.19168 42.6796C8.27809 42.766 8.38511 42.8289 8.50262 42.8625C8.62012 42.896 8.74425 42.8991 8.86325 42.8713L11.3202 42.2922C11.4622 42.4113 11.6057 42.5288 11.7509 42.6447L11.6611 45.1662C11.6567 45.2884 11.6837 45.4097 11.7394 45.5186C11.7951 45.6274 11.8777 45.7202 11.9793 45.7882C12.0809 45.8562 12.1983 45.8971 12.3201 45.907C12.442 45.917 12.5644 45.8956 12.6757 45.8449L14.9638 44.802C15.1288 44.8938 15.2978 44.9807 15.4657 45.0686L15.871 47.551C15.8906 47.6716 15.9406 47.7853 16.0165 47.8812C16.0923 47.977 16.1914 48.0519 16.3043 48.0987C16.4172 48.1455 16.5403 48.1626 16.6617 48.1484C16.7831 48.1343 16.8988 48.0893 16.998 48.0178L19.0322 46.5529C19.2138 46.6115 19.3993 46.6633 19.5839 46.717L20.4628 49.0607C20.5059 49.1749 20.5774 49.2762 20.6705 49.3551C20.7635 49.4341 20.8752 49.488 20.9949 49.5118C21.1145 49.5357 21.2383 49.5286 21.3545 49.4914C21.4707 49.4542 21.5756 49.388 21.6591 49.299L23.3681 47.4709C23.5585 47.4914 23.7509 47.508 23.9423 47.5246L25.2616 49.6555C25.326 49.7595 25.4158 49.8453 25.5227 49.9048C25.6295 49.9643 25.7497 49.9955 25.872 49.9955C25.9943 49.9955 26.1145 49.9643 26.2213 49.9048C26.3282 49.8453 26.418 49.7595 26.4824 49.6555L27.8017 47.5246C27.997 47.508 28.1855 47.4914 28.3759 47.4699L30.0849 49.299C30.1684 49.388 30.2733 49.4542 30.3895 49.4914C30.5057 49.5286 30.6295 49.5357 30.7492 49.5118C30.8688 49.488 30.9805 49.4341 31.0736 49.3551C31.1666 49.2762 31.2381 49.1749 31.2812 49.0607L32.1601 46.717C32.3447 46.6633 32.5292 46.6115 32.7118 46.5529L34.745 48.0178C34.8442 48.0893 34.96 48.1343 35.0814 48.1484C35.2028 48.1626 35.3258 48.1455 35.4387 48.0987C35.5516 48.0519 35.6507 47.977 35.7266 47.8812C35.8024 47.7853 35.8525 47.6716 35.872 47.551L36.2773 45.0686C36.4452 44.9807 36.6142 44.8938 36.7802 44.802L39.0673 45.8449C39.1786 45.8956 39.301 45.917 39.4229 45.907C39.5448 45.8971 39.6621 45.8562 39.7637 45.7882C39.8654 45.7202 39.9479 45.6274 40.0036 45.5186C40.0593 45.4097 40.0863 45.2884 40.082 45.1662L39.9931 42.6447C40.1376 42.5282 40.2809 42.4107 40.4228 42.2922L42.8788 42.8713C42.9978 42.8991 43.122 42.896 43.2395 42.8625C43.357 42.8289 43.464 42.766 43.5504 42.6796C43.6368 42.5932 43.6998 42.4862 43.7333 42.3686C43.7669 42.2511 43.7699 42.127 43.7421 42.008L43.163 39.551C43.2822 39.4097 43.3997 39.2665 43.5156 39.1213L46.037 39.2102C46.1594 39.2156 46.2812 39.1892 46.3902 39.1333C46.4993 39.0775 46.592 38.9943 46.6591 38.8918C46.7271 38.7902 46.7679 38.6729 46.7779 38.551C46.7878 38.4292 46.7664 38.3068 46.7158 38.1955L45.6728 35.9084C45.7646 35.7424 45.8515 35.5734 45.9394 35.4055L48.4218 35.0002C48.5424 34.9806 48.656 34.9305 48.7518 34.8546C48.8477 34.7788 48.9225 34.6798 48.9694 34.5669C49.0162 34.4541 49.0335 34.3311 49.0195 34.2097C49.0055 34.0883 48.9608 33.9725 48.8896 33.8732L47.4247 31.8391C47.4824 31.6565 47.5351 31.4719 47.5878 31.2873L49.9316 30.4084C50.0459 30.3655 50.1474 30.2942 50.2265 30.2011C50.3056 30.108 50.3596 29.9963 50.3835 29.8765C50.4074 29.7568 50.4003 29.6329 50.3629 29.5166C50.3255 29.4003 50.2591 29.2955 50.1699 29.2121L48.3417 27.5031C48.3622 27.3127 48.3788 27.1213 48.3954 26.9299L50.5263 25.6106C50.6303 25.5462 50.7161 25.4564 50.7756 25.3495C50.8351 25.2427 50.8664 25.1225 50.8664 25.0002C50.8664 24.8779 50.8351 24.7577 50.7756 24.6509C50.7161 24.544 50.6303 24.4542 50.5263 24.3898H50.5312ZM35.7851 36.9953C35.4328 36.9197 35.065 36.9871 34.7624 37.1827C34.4599 37.3783 34.2474 37.686 34.1718 38.0383L33.4257 41.5217C31.0252 42.6091 28.4183 43.1656 25.7831 43.1531C23.1478 43.1406 20.5463 42.5595 18.1562 41.4494L17.4101 37.967C17.3731 37.7929 17.3021 37.6279 17.2013 37.4813C17.1005 37.3346 16.9718 37.2093 16.8225 37.1125C16.6732 37.0156 16.5063 36.9491 16.3313 36.9168C16.1563 36.8844 15.9767 36.8869 15.8027 36.924L12.7255 37.5842C12.1548 36.9952 11.6243 36.3684 11.1376 35.7082H26.0956C26.2636 35.7082 26.3779 35.6799 26.3779 35.5217V30.2297C26.3779 30.0764 26.2636 30.0432 26.0956 30.0432H21.7177L21.7226 26.6887H26.457C26.8876 26.6887 28.7675 26.8137 29.3661 29.215C29.5527 29.9523 29.9687 32.3537 30.2509 33.1213C30.5331 33.9826 31.6767 35.7053 32.8974 35.7053H40.6171C40.0998 36.3985 39.5339 37.0541 38.9238 37.6672L35.7851 36.9953ZM38.3017 40.3635C38.3017 40.6576 38.2145 40.9452 38.0512 41.1898C37.8879 41.4345 37.6557 41.6252 37.3841 41.738C37.1124 41.8508 36.8134 41.8805 36.5248 41.8235C36.2363 41.7665 35.9711 41.6252 35.7628 41.4176C35.5544 41.2099 35.4123 40.9452 35.3543 40.6568C35.2963 40.3684 35.3251 40.0693 35.437 39.7973C35.5489 39.5253 35.7389 39.2925 35.983 39.1284C36.2271 38.9643 36.5144 38.8762 36.8085 38.8752H36.8515C37.2388 38.8861 37.6065 39.0478 37.8765 39.3257C38.1464 39.6037 38.2972 39.976 38.2968 40.3635H38.3017ZM16.2685 40.2971C16.2683 40.5913 16.1809 40.879 16.0173 41.1236C15.8536 41.3681 15.6212 41.5588 15.3493 41.6713C15.0774 41.7838 14.7782 41.8132 14.4896 41.7557C14.201 41.6983 13.9359 41.5566 13.7278 41.3485C13.5197 41.1404 13.378 40.8753 13.3206 40.5867C13.2631 40.2981 13.2925 39.9989 13.405 39.727C13.5175 39.4551 13.7082 39.2227 13.9528 39.059C14.1973 38.8954 14.485 38.808 14.7792 38.8078H14.8232C15.2096 38.8205 15.576 38.983 15.8448 39.2609C16.1136 39.5388 16.2638 39.9104 16.2636 40.2971H16.2685ZM7.66501 22.8664L10.871 21.4406C11.0339 21.3685 11.181 21.2649 11.3038 21.1358C11.4266 21.0068 11.5228 20.8548 11.5868 20.6885C11.6509 20.5223 11.6815 20.345 11.677 20.1669C11.6725 19.9888 11.6329 19.8134 11.5605 19.6506L10.8993 18.1643H13.4931V29.8566H8.25876C7.61252 27.5866 7.41091 25.213 7.66501 22.8664ZM6.5654 19.3449C6.56527 19.1495 6.60364 18.9559 6.67831 18.7753C6.75299 18.5947 6.86251 18.4306 7.00062 18.2923C7.13873 18.154 7.30272 18.0442 7.48324 17.9693C7.66376 17.8944 7.85726 17.8558 8.0527 17.8557H8.09763C8.39005 17.8639 8.67356 17.9582 8.91272 18.1266C9.15188 18.2951 9.33608 18.5303 9.44232 18.8029C9.54855 19.0755 9.5721 19.3733 9.51002 19.6592C9.44794 19.9451 9.30298 20.2063 9.09327 20.4103C8.88355 20.6142 8.61838 20.7519 8.33088 20.806C8.04339 20.8601 7.74633 20.8282 7.47682 20.7145C7.20731 20.6007 6.9773 20.41 6.81555 20.1663C6.6538 19.9225 6.56747 19.6365 6.56735 19.3439L6.5654 19.3449ZM21.7177 21.7365L21.7226 18.2873H27.9003C28.2206 18.2873 30.1533 18.6555 30.1533 20.1057C30.1533 21.3059 28.6699 21.7365 27.4501 21.7365H21.7177ZM39.8359 29.9523C38.8788 30.0627 37.8212 29.55 37.6874 28.967C37.123 25.7941 36.1845 25.1193 34.7021 23.9475C36.5439 22.7805 38.4579 21.0529 38.4579 18.7463C38.4579 16.2541 36.7499 14.6848 35.5868 13.9143C33.9501 12.84 32.1415 12.6223 31.6542 12.6223H12.2304C14.9162 9.62146 18.5164 7.58984 22.4736 6.84201L24.7656 9.24435C24.8881 9.37334 25.035 9.47683 25.1977 9.54885C25.3604 9.62086 25.5358 9.66 25.7136 9.66399C25.8915 9.66798 26.0685 9.63676 26.2342 9.57211C26.4 9.50747 26.5514 9.41068 26.6796 9.28732L29.2441 6.84591C31.8564 7.33525 34.3309 8.38739 36.4957 9.92926C38.6606 11.4711 40.4638 13.4657 41.7802 15.7746L40.0224 19.7365C39.8796 20.066 39.8721 20.4385 40.0017 20.7735C40.1312 21.1084 40.3874 21.3789 40.7148 21.5266L44.0927 23.0236C44.198 24.0797 44.2111 25.143 44.1318 26.2014H42.249C42.0624 26.2014 41.9863 26.3254 41.9863 26.507V27.3684C41.9843 29.3947 40.8427 29.842 39.8359 29.9523ZM24.3085 5.88009C24.3093 5.48639 24.466 5.10904 24.7444 4.83065C25.0228 4.55226 25.4002 4.39552 25.7939 4.39474H25.8378C26.1304 4.40281 26.4141 4.49698 26.6535 4.66547C26.8928 4.83396 27.0772 5.06928 27.1835 5.34201C27.2898 5.61474 27.3133 5.91275 27.2511 6.19877C27.1889 6.4848 27.0437 6.74612 26.8337 6.95006C26.6238 7.15399 26.3583 7.29149 26.0706 7.34534C25.7829 7.39919 25.4857 7.367 25.2162 7.2528C24.9467 7.1386 24.7168 6.94747 24.5554 6.70331C24.3939 6.45915 24.3081 6.1728 24.3085 5.88009ZM43.5312 20.8986C43.3357 20.8986 43.1422 20.8601 42.9616 20.7853C42.7811 20.7106 42.617 20.6009 42.4788 20.4627C42.3406 20.3245 42.231 20.1605 42.1562 19.9799C42.0814 19.7993 42.0429 19.6058 42.0429 19.4104C42.0429 19.2149 42.0814 19.0214 42.1562 18.8408C42.231 18.6602 42.3406 18.4962 42.4788 18.358C42.617 18.2198 42.7811 18.1102 42.9616 18.0354C43.1422 17.9606 43.3357 17.9221 43.5312 17.9221H43.5742C43.9689 17.9278 44.3452 18.09 44.6202 18.3732C44.8953 18.6563 45.0466 19.0371 45.0409 19.4318C45.0352 19.8266 44.873 20.2028 44.5898 20.4779C44.3067 20.753 43.9259 20.9043 43.5312 20.8986Z" fill="black"/>
</g>
<defs>
<clipPath id="clip0">
<rect width="51" height="50" fill="white"/>
</clipPath>
</defs>
</svg>
