<svg width="51" height="50" viewBox="0 0 51 50" fill="none" xmlns="http://www.w3.org/2000/svg">
<g clip-path="url(#clip0)">
<path d="M50.5313 24.3896L48.4004 23.0703C48.3838 22.875 48.3672 22.6865 48.3467 22.4961L50.1748 20.7871C50.264 20.7037 50.3305 20.5989 50.3679 20.4826C50.4052 20.3663 50.4123 20.2425 50.3885 20.1227C50.3646 20.0029 50.3106 19.8912 50.2315 19.7981C50.1524 19.7051 50.0509 19.6337 49.9366 19.5908L47.5928 18.7119C47.5401 18.5283 47.4873 18.3428 47.4297 18.1611L48.8946 16.127C48.9658 16.0277 49.0105 15.9119 49.0245 15.7905C49.0385 15.6691 49.0212 15.5461 48.9744 15.4333C48.9275 15.3204 48.8526 15.2214 48.7568 15.1456C48.661 15.0697 48.5474 15.0196 48.4268 15L45.9444 14.5947C45.8565 14.4258 45.7696 14.2578 45.6778 14.0918L46.7207 11.8047C46.7714 11.6934 46.7928 11.571 46.7828 11.4491C46.7729 11.3272 46.732 11.2099 46.664 11.1083C46.5961 11.0066 46.5032 10.9241 46.3944 10.8684C46.2855 10.8127 46.1642 10.7857 46.042 10.79L43.5205 10.8789C43.404 10.7344 43.2865 10.5911 43.168 10.4492L43.7422 7.99219C43.77 7.87318 43.767 7.74906 43.7334 7.63155C43.6999 7.51404 43.6369 7.40703 43.5505 7.32062C43.4641 7.23421 43.3571 7.17126 43.2396 7.13771C43.1221 7.10417 42.9979 7.10114 42.8789 7.12891L40.4219 7.70801C40.2806 7.58887 40.1374 7.47135 39.9922 7.35547L40.0811 4.83398C40.0863 4.71137 40.06 4.58948 40.0046 4.47994C39.9493 4.37041 39.8668 4.27689 39.765 4.20832C39.6632 4.13975 39.5456 4.09842 39.4233 4.08828C39.301 4.07814 39.1781 4.09952 39.0664 4.15039L36.7793 5.19824C36.6133 5.10645 36.4444 5.01855 36.2764 4.93164L35.8711 2.44922C35.8515 2.32861 35.8014 2.21502 35.7256 2.1192C35.6497 2.02337 35.5507 1.94849 35.4379 1.90165C35.325 1.8548 35.202 1.83755 35.0807 1.85151C34.9593 1.86547 34.8434 1.9102 34.7442 1.98145L32.7071 3.44336C32.5254 3.38574 32.3409 3.33301 32.1563 3.28027L31.2774 0.936523C31.2345 0.822168 31.1631 0.720647 31.0701 0.641565C30.977 0.562484 30.8653 0.508458 30.7455 0.4846C30.6257 0.460742 30.5019 0.467842 30.3856 0.505227C30.2693 0.542612 30.1645 0.609046 30.0811 0.698242L28.3721 2.52637C28.1817 2.50586 27.9903 2.48926 27.7979 2.47266L26.4815 0.339843C26.4171 0.235866 26.3273 0.150051 26.2205 0.0905377C26.1137 0.0310245 25.9934 -0.000213623 25.8711 -0.000213623C25.7488 -0.000213623 25.6286 0.0310245 25.5218 0.0905377C25.415 0.150051 25.3251 0.235866 25.2608 0.339843L23.9414 2.4707C23.7461 2.4873 23.5576 2.50391 23.3672 2.52441L21.6582 0.696289C21.5748 0.607093 21.47 0.540659 21.3537 0.503274C21.2375 0.465889 21.1136 0.458789 20.9938 0.482647C20.874 0.506505 20.7623 0.560531 20.6692 0.639612C20.5762 0.718694 20.5048 0.820215 20.4619 0.93457L19.583 3.27832C19.3985 3.33203 19.2129 3.38379 19.0303 3.44238L16.9971 1.97754C16.8978 1.90629 16.782 1.86157 16.6606 1.8476C16.5392 1.83364 16.4163 1.8509 16.3034 1.89774C16.1906 1.94459 16.0915 2.01947 16.0157 2.11529C15.9399 2.21111 15.8898 2.32471 15.8701 2.44531L15.4649 4.92676C15.2959 5.01465 15.128 5.10156 14.961 5.19336L12.6758 4.15527C12.5641 4.10441 12.4413 4.08302 12.319 4.09316C12.1967 4.10331 12.079 4.14464 11.9772 4.2132C11.8755 4.28177 11.793 4.37529 11.7376 4.48483C11.6823 4.59436 11.656 4.71626 11.6612 4.83887L11.751 7.35937C11.6055 7.47559 11.458 7.59277 11.3194 7.71191L8.86331 7.12891C8.74431 7.10114 8.62018 7.10417 8.50268 7.13771C8.38517 7.17126 8.27815 7.23421 8.19174 7.32062C8.10533 7.40703 8.04238 7.51404 8.00883 7.63155C7.97529 7.74906 7.97226 7.87318 8.00003 7.99219L8.57913 10.4492C8.45901 10.5908 8.34183 10.7354 8.22562 10.8799L5.70511 10.791C5.58299 10.7873 5.46192 10.8146 5.35316 10.8703C5.2444 10.9259 5.15148 11.0082 5.08304 11.1094C5.01524 11.2111 4.97453 11.3284 4.96479 11.4503C4.95505 11.5721 4.97659 11.6945 5.02737 11.8057L6.06839 14.0918C5.97659 14.2578 5.88968 14.4268 5.80179 14.5957L3.32034 15C3.19974 15.0196 3.08614 15.0697 2.99032 15.1456C2.8945 15.2214 2.81962 15.3204 2.77277 15.4333C2.72593 15.5461 2.70867 15.6691 2.72263 15.7905C2.7366 15.9119 2.78132 16.0277 2.85257 16.127L4.31741 18.1602C4.2598 18.3428 4.20706 18.5283 4.15335 18.7129L1.8096 19.5918C1.69525 19.6347 1.59372 19.706 1.51464 19.7991C1.43556 19.8922 1.38154 20.0039 1.35768 20.1237C1.33382 20.2434 1.34092 20.3673 1.3783 20.4836C1.41569 20.5999 1.48212 20.7047 1.57132 20.7881L3.39944 22.4971C3.37894 22.6875 3.36233 22.8789 3.34573 23.0713L1.21097 24.3896C1.10699 24.454 1.02118 24.5438 0.961662 24.6507C0.902149 24.7575 0.870911 24.8777 0.870911 25C0.870911 25.1223 0.902149 25.2425 0.961662 25.3493C1.02118 25.4562 1.10699 25.546 1.21097 25.6104L3.34183 26.9297C3.35843 27.125 3.37503 27.3125 3.39554 27.5029L1.56741 29.2119C1.47822 29.2953 1.41178 29.4001 1.3744 29.5164C1.33701 29.6327 1.32991 29.7566 1.35377 29.8763C1.37763 29.9961 1.43165 30.1078 1.51074 30.2009C1.58982 30.294 1.69134 30.3653 1.80569 30.4082L4.14944 31.2871C4.20316 31.4717 4.25491 31.6563 4.31351 31.8389L2.84866 33.873C2.77742 33.9723 2.73269 34.0881 2.71873 34.2095C2.70476 34.3309 2.72202 34.4539 2.76887 34.5667C2.81571 34.6796 2.89059 34.7786 2.98641 34.8544C3.08224 34.9303 3.19583 34.9804 3.31644 35L5.79886 35.4053C5.88675 35.5732 5.97366 35.7422 6.06546 35.9072L5.02737 38.1953C4.97659 38.3065 4.95505 38.4288 4.96479 38.5507C4.97453 38.6725 5.01524 38.7899 5.08304 38.8916C5.14948 38.9948 5.242 39.0786 5.35124 39.1345C5.46049 39.1904 5.58256 39.2164 5.70511 39.21L8.22757 39.1211C8.3428 39.2656 8.45999 39.4089 8.57913 39.5508L8.00003 42.0078C7.97226 42.1268 7.97529 42.2509 8.00883 42.3684C8.04238 42.486 8.10533 42.593 8.19174 42.6794C8.27815 42.7658 8.38517 42.8287 8.50268 42.8623C8.62018 42.8958 8.74431 42.8989 8.86331 42.8711L11.3203 42.292C11.4623 42.4111 11.6058 42.5286 11.751 42.6445L11.6612 45.166C11.6568 45.2882 11.6838 45.4095 11.7395 45.5184C11.7952 45.6272 11.8778 45.72 11.9794 45.788C12.081 45.856 12.1984 45.8969 12.3202 45.9068C12.4421 45.9168 12.5645 45.8954 12.6758 45.8447L14.9639 44.8018C15.1289 44.8936 15.2979 44.9805 15.4658 45.0684L15.8711 47.5508C15.8907 47.6714 15.9407 47.7851 16.0166 47.881C16.0924 47.9768 16.1915 48.0517 16.3044 48.0985C16.4173 48.1453 16.5404 48.1624 16.6618 48.1482C16.7832 48.1341 16.8989 48.0891 16.9981 48.0176L19.0323 46.5527C19.2139 46.6113 19.3994 46.6631 19.584 46.7168L20.4629 49.0605C20.506 49.1747 20.5775 49.276 20.6706 49.3549C20.7636 49.4339 20.8753 49.4878 20.995 49.5116C21.1146 49.5355 21.2384 49.5284 21.3546 49.4912C21.4708 49.454 21.5757 49.3878 21.6592 49.2988L23.3682 47.4707C23.5586 47.4912 23.751 47.5078 23.9424 47.5244L25.2617 49.6553C25.3261 49.7593 25.4159 49.8451 25.5228 49.9046C25.6296 49.9641 25.7498 49.9953 25.8721 49.9953C25.9944 49.9953 26.1146 49.9641 26.2214 49.9046C26.3283 49.8451 26.4181 49.7593 26.4825 49.6553L27.8018 47.5244C27.9971 47.5078 28.1856 47.4912 28.376 47.4697L30.085 49.2988C30.1685 49.3878 30.2734 49.454 30.3896 49.4912C30.5058 49.5284 30.6296 49.5355 30.7493 49.5116C30.8689 49.4878 30.9806 49.4339 31.0737 49.3549C31.1667 49.276 31.2382 49.1747 31.2813 49.0605L32.1602 46.7168C32.3448 46.6631 32.5293 46.6113 32.7119 46.5527L34.7451 48.0176C34.8443 48.0891 34.9601 48.1341 35.0815 48.1482C35.2029 48.1624 35.3259 48.1453 35.4388 48.0985C35.5517 48.0517 35.6508 47.9768 35.7267 47.881C35.8025 47.7851 35.8526 47.6714 35.8721 47.5508L36.2774 45.0684C36.4453 44.9805 36.6143 44.8936 36.7803 44.8018L39.0674 45.8447C39.1787 45.8954 39.3011 45.9168 39.423 45.9068C39.5449 45.8969 39.6622 45.856 39.7638 45.788C39.8655 45.72 39.948 45.6272 40.0037 45.5184C40.0594 45.4095 40.0864 45.2882 40.0821 45.166L39.9932 42.6445C40.1377 42.528 40.281 42.4105 40.4229 42.292L42.8789 42.8711C42.9979 42.8989 43.1221 42.8958 43.2396 42.8623C43.3571 42.8287 43.4641 42.7658 43.5505 42.6794C43.6369 42.593 43.6999 42.486 43.7334 42.3684C43.767 42.2509 43.77 42.1268 43.7422 42.0078L43.1631 39.5508C43.2823 39.4095 43.3998 39.2663 43.5157 39.1211L46.0371 39.21C46.1595 39.2154 46.2813 39.189 46.3903 39.1331C46.4994 39.0773 46.5921 38.9941 46.6592 38.8916C46.7272 38.79 46.768 38.6727 46.778 38.5508C46.7879 38.429 46.7665 38.3066 46.7159 38.1953L45.6729 35.9082C45.7647 35.7422 45.8516 35.5732 45.9395 35.4053L48.4219 35C48.5425 34.9804 48.6561 34.9303 48.7519 34.8544C48.8478 34.7786 48.9226 34.6796 48.9695 34.5667C49.0163 34.4539 49.0336 34.3309 49.0196 34.2095C49.0056 34.0881 48.9609 33.9723 48.8897 33.873L47.4248 31.8389C47.4825 31.6563 47.5352 31.4717 47.5879 31.2871L49.9317 30.4082C50.046 30.3653 50.1475 30.294 50.2266 30.2009C50.3057 30.1078 50.3597 29.9961 50.3836 29.8763C50.4075 29.7566 50.4004 29.6327 50.363 29.5164C50.3256 29.4001 50.2592 29.2953 50.17 29.2119L48.3418 27.5029C48.3623 27.3125 48.3789 27.1211 48.3955 26.9297L50.5264 25.6104C50.6304 25.546 50.7162 25.4562 50.7757 25.3493C50.8352 25.2425 50.8665 25.1223 50.8665 25C50.8665 24.8777 50.8352 24.7575 50.7757 24.6507C50.7162 24.5438 50.6304 24.454 50.5264 24.3896H50.5313ZM35.7852 36.9951C35.4329 36.9195 35.0651 36.9869 34.7625 37.1825C34.46 37.3781 34.2475 37.6858 34.1719 38.0381L33.4258 41.5215C31.0253 42.6089 28.4184 43.1654 25.7832 43.1529C23.1479 43.1404 20.5464 42.5593 18.1563 41.4492L17.4102 37.9668C17.3732 37.7927 17.3022 37.6277 17.2014 37.4811C17.1006 37.3344 16.9719 37.2091 16.8226 37.1123C16.6733 37.0154 16.5064 36.9489 16.3314 36.9166C16.1564 36.8842 15.9768 36.8867 15.8028 36.9238L12.7256 37.584C12.1549 36.995 11.6244 36.3682 11.1377 35.708H26.0957C26.2637 35.708 26.378 35.6797 26.378 35.5215V30.2295C26.378 30.0762 26.2637 30.043 26.0957 30.043H21.7178L21.7227 26.6885H26.4571C26.8877 26.6885 28.7676 26.8135 29.3662 29.2148C29.5528 29.9521 29.9688 32.3535 30.251 33.1211C30.5332 33.9824 31.6768 35.7051 32.8975 35.7051H40.6172C40.0999 36.3983 39.534 37.0539 38.9239 37.667L35.7852 36.9951ZM38.3018 40.3633C38.3018 40.6574 38.2146 40.945 38.0513 41.1896C37.888 41.4343 37.6558 41.625 37.3842 41.7378C37.1125 41.8506 36.8135 41.8803 36.5249 41.8233C36.2364 41.7663 35.9712 41.625 35.7629 41.4174C35.5545 41.2097 35.4124 40.945 35.3544 40.6566C35.2964 40.3682 35.3252 40.0691 35.4371 39.7971C35.549 39.5251 35.739 39.2923 35.9831 39.1282C36.2272 38.9641 36.5145 38.876 36.8086 38.875H36.8516C37.2389 38.8859 37.6066 39.0476 37.8766 39.3255C38.1465 39.6035 38.2973 39.9758 38.2969 40.3633H38.3018ZM16.2686 40.2969C16.2684 40.5911 16.181 40.8788 16.0174 41.1234C15.8537 41.3679 15.6213 41.5586 15.3494 41.6711C15.0775 41.7836 14.7783 41.813 14.4897 41.7555C14.2011 41.6981 13.936 41.5564 13.7279 41.3483C13.5198 41.1402 13.3781 40.8751 13.3207 40.5865C13.2632 40.2979 13.2926 39.9987 13.4051 39.7268C13.5176 39.4549 13.7083 39.2225 13.9529 39.0588C14.1974 38.8952 14.4851 38.8078 14.7793 38.8076H14.8233C15.2097 38.8203 15.5761 38.9828 15.8449 39.2607C16.1137 39.5386 16.2639 39.9102 16.2637 40.2969H16.2686ZM7.66507 22.8662L10.8711 21.4404C11.034 21.3683 11.1811 21.2647 11.3039 21.1356C11.4267 21.0066 11.5229 20.8546 11.5869 20.6883C11.651 20.5221 11.6816 20.3448 11.6771 20.1667C11.6726 19.9886 11.633 19.8132 11.5606 19.6504L10.8994 18.1641H13.4932V29.8564H8.25882C7.61258 27.5864 7.41097 25.2128 7.66507 22.8662V22.8662ZM6.56546 19.3447C6.56533 19.1493 6.6037 18.9557 6.67837 18.7751C6.75305 18.5945 6.86257 18.4304 7.00068 18.2921C7.13879 18.1538 7.30278 18.044 7.4833 17.9691C7.66382 17.8942 7.85732 17.8556 8.05276 17.8555H8.09769C8.39011 17.8637 8.67362 17.958 8.91278 18.1264C9.15194 18.2949 9.33614 18.5301 9.44238 18.8027C9.54861 19.0753 9.57216 19.3731 9.51008 19.659C9.448 19.9449 9.30304 20.2061 9.09333 20.4101C8.88361 20.614 8.61844 20.7517 8.33094 20.8058C8.04345 20.8599 7.74639 20.828 7.47688 20.7143C7.20737 20.6005 6.97736 20.4098 6.81561 20.1661C6.65386 19.9223 6.56753 19.6363 6.56741 19.3437L6.56546 19.3447ZM21.7178 21.7363L21.7227 18.2871H27.9004C28.2207 18.2871 30.1534 18.6553 30.1534 20.1055C30.1534 21.3057 28.67 21.7363 27.4502 21.7363H21.7178ZM39.836 29.9521C38.8789 30.0625 37.8213 29.5498 37.6875 28.9668C37.1231 25.7939 36.1846 25.1191 34.7022 23.9473C36.544 22.7803 38.458 21.0527 38.458 18.7461C38.458 16.2539 36.75 14.6846 35.5869 13.9141C33.9502 12.8398 32.1416 12.6221 31.6543 12.6221H12.2305C14.9163 9.62125 18.5165 7.58963 22.4737 6.8418L24.7657 9.24414C24.8882 9.37313 25.0351 9.47662 25.1978 9.54864C25.3605 9.62065 25.5359 9.65979 25.7137 9.66378C25.8916 9.66777 26.0686 9.63655 26.2343 9.5719C26.4001 9.50726 26.5515 9.41047 26.6797 9.28711L29.2442 6.8457C31.8565 7.33504 34.331 8.38718 36.4958 9.92905C38.6607 11.4709 40.4639 13.4655 41.7803 15.7744L40.0225 19.7363C39.8797 20.0658 39.8722 20.4383 40.0018 20.7733C40.1313 21.1082 40.3875 21.3787 40.7149 21.5264L44.0928 23.0234C44.1981 24.0795 44.2112 25.1428 44.1319 26.2012H42.2491C42.0625 26.2012 41.9864 26.3252 41.9864 26.5068V27.3682C41.9844 29.3945 40.8428 29.8418 39.836 29.9521ZM24.3086 5.87988C24.3094 5.48618 24.4661 5.10883 24.7445 4.83044C25.0229 4.55205 25.4003 4.39531 25.794 4.39453H25.8379C26.1305 4.4026 26.4142 4.49677 26.6536 4.66526C26.8929 4.83375 27.0773 5.06907 27.1836 5.3418C27.2899 5.61453 27.3134 5.91254 27.2512 6.19856C27.189 6.48459 27.0438 6.74591 26.8338 6.94985C26.6239 7.15378 26.3584 7.29128 26.0707 7.34513C25.783 7.39898 25.4858 7.36679 25.2163 7.25259C24.9468 7.13839 24.7169 6.94726 24.5555 6.7031C24.394 6.45894 24.3082 6.17259 24.3086 5.87988V5.87988ZM43.5313 20.8984C43.3358 20.8984 43.1423 20.8599 42.9617 20.7851C42.7812 20.7104 42.6171 20.6007 42.4789 20.4625C42.3407 20.3243 42.2311 20.1603 42.1563 19.9797C42.0815 19.7991 42.043 19.6056 42.043 19.4102C42.043 19.2147 42.0815 19.0212 42.1563 18.8406C42.2311 18.66 42.3407 18.496 42.4789 18.3578C42.6171 18.2196 42.7812 18.11 42.9617 18.0352C43.1423 17.9604 43.3358 17.9219 43.5313 17.9219H43.5743C43.969 17.9276 44.3453 18.0898 44.6203 18.373C44.8954 18.6561 45.0467 19.0369 45.041 19.4316C45.0353 19.8264 44.8731 20.2026 44.5899 20.4777C44.3068 20.7528 43.926 20.9041 43.5313 20.8984V20.8984Z" fill="black"/>
</g>
<defs>
<clipPath id="clip0">
<rect width="50" height="50" fill="white" transform="translate(0.871094)"/>
</clipPath>
</defs>
</svg>
