<svg width="64" height="50" viewBox="0 0 64 50" fill="none" xmlns="http://www.w3.org/2000/svg">
<path d="M30.3476 37.004C30.3183 37.0626 30.289 37.1094 30.3476 37.004V37.004ZM54.6767 28.5079C52.7125 28.5072 50.7746 28.9583 49.0126 29.8262C48.4364 28.6641 47.8407 27.6485 47.7431 26.8868C47.6259 25.9981 47.4989 25.4708 47.6357 24.4161C47.7724 23.3614 48.3876 21.8673 48.3778 21.7598C48.3681 21.6524 48.2411 21.1153 46.9814 21.1055C45.7216 21.0958 44.6376 21.3497 44.5116 21.6817C44.2891 22.2885 44.1161 22.9123 43.9941 23.5469C43.7694 24.6895 41.4755 28.7716 40.1767 30.9005C39.747 30.0704 39.3857 29.338 39.3075 28.752C39.1903 27.8634 39.0634 27.336 39.2001 26.2813C39.3368 25.2266 39.9521 23.7325 39.9423 23.6251C39.9325 23.5177 39.8056 22.9805 38.5468 22.9708C37.288 22.961 36.203 23.2149 36.0761 23.5469C35.9491 23.879 35.8124 24.6602 35.5585 25.4122C35.3046 26.1641 32.2489 32.961 31.4491 34.7286C31.039 35.627 30.6874 36.3497 30.4335 36.838C30.3944 36.9161 30.3652 36.9649 30.3456 37.004C30.3749 36.9552 30.3944 36.9063 30.3944 36.9259C30.1796 37.3458 30.0527 37.5802 30.0527 37.5802V37.5899C29.8866 37.9024 29.7011 38.1856 29.6132 38.1856C29.5546 38.1856 29.4277 37.3653 29.6425 36.2423C30.1015 33.879 31.1855 30.2071 31.1757 30.0801C31.1659 30.0118 31.3808 29.377 30.4628 29.0352C29.5741 28.713 29.2519 29.2501 29.1737 29.2501C29.0956 29.2501 29.037 29.4454 29.037 29.4454C29.037 29.4454 30.0234 25.3048 27.1435 25.3048C25.3466 25.3048 22.8466 27.2774 21.6181 29.0645C20.8466 29.4844 19.1767 30.3926 17.4189 31.3594C16.745 31.7305 16.0517 32.1114 15.3974 32.4727C15.3486 32.4239 15.3095 32.3751 15.2607 32.3262C11.7655 28.5958 5.3124 25.9591 5.58584 20.9493C5.68349 19.1231 6.31826 14.3282 17.995 8.50789C27.5653 3.74226 35.2167 5.05085 36.5341 7.96101C38.4286 12.1114 32.4433 19.836 22.5048 20.9493C18.7167 21.3692 16.7255 19.9044 16.2275 19.3575C15.7099 18.7813 15.6318 18.752 15.4364 18.8594C15.1142 19.0352 15.3193 19.543 15.4364 19.8458C15.7294 20.6173 16.9501 21.9844 19.0292 22.668C20.8554 23.2637 25.2968 23.5958 30.6669 21.5157C36.7001 19.1915 41.3964 12.7169 40.0194 7.29695C38.6171 1.78914 29.4843 -0.0175043 20.8486 3.0489C15.703 4.87507 10.1386 7.74617 6.13564 11.4864C1.38076 15.9395 0.620013 19.8165 0.932513 21.4376C2.04482 27.1895 9.97255 30.9395 13.1454 33.713C12.9892 33.8009 12.8427 33.879 12.706 33.9571C11.1152 34.7481 5.07119 37.9122 3.55849 41.252C1.84951 45.0411 3.8417 47.7559 5.14931 48.127C9.23037 49.2598 13.4091 47.2188 15.6542 43.8692C17.8993 40.5196 17.6269 36.1446 16.5917 34.1524C16.5819 34.1231 16.5624 34.1036 16.5527 34.0743C16.9628 33.8302 17.3827 33.586 17.8027 33.3419C18.6122 32.8634 19.4032 32.4239 20.0966 32.043C19.706 33.0977 19.4228 34.3673 19.2763 36.2032C19.1005 38.3516 19.9892 41.1348 21.1415 42.2286C21.6493 42.7071 22.2636 42.7169 22.6444 42.7169C23.9921 42.7169 24.5976 41.6036 25.2704 40.2755C26.1005 38.6544 26.8329 36.7696 26.8329 36.7696C26.8329 36.7696 25.915 41.8673 28.4247 41.8673C29.3417 41.8673 30.2597 40.6856 30.6708 40.0802V40.0899C30.6708 40.0899 30.6903 40.0509 30.7392 39.9727C30.8368 39.8262 30.8857 39.7384 30.8857 39.7384V39.7091C31.2568 39.0743 32.0673 37.6192 33.287 35.2169C34.8691 32.1114 36.3818 28.2344 36.3818 28.2344C36.5279 29.0867 36.7302 29.9284 36.9872 30.754C37.2607 31.6817 37.8368 32.6973 38.2958 33.6837C37.9247 34.1915 37.7001 34.4844 37.7001 34.4844C37.7008 34.4919 37.7043 34.4989 37.7099 34.504C37.4169 34.8946 37.0849 35.3145 36.7431 35.7247C35.4941 37.2091 34.0087 38.9083 33.8134 39.3966C33.579 39.9727 33.6376 40.4024 34.0868 40.7344C34.4189 40.9884 35.0048 41.0274 35.6191 40.9786C36.7421 40.9005 37.5331 40.627 37.914 40.4512C38.6161 40.1995 39.2797 39.8511 39.8857 39.4161C41.1064 38.5176 41.8486 37.2286 41.7802 35.5294C41.7411 34.5919 41.4384 33.6544 41.0673 32.7755C41.1747 32.6192 41.2919 32.4532 41.3993 32.2872C43.3319 29.4649 44.8261 26.3673 44.8261 26.3673C44.9723 27.2195 45.1745 28.0612 45.4316 28.8868C45.6659 29.6778 46.1239 30.5469 46.5439 31.3966C44.7284 32.8712 43.6054 34.5802 43.2148 35.7032C42.4921 37.7833 43.0585 38.7208 44.123 38.9356C44.6015 39.0333 45.2851 38.8087 45.7929 38.5938C46.5471 38.3426 47.2582 37.977 47.9013 37.5098C49.122 36.6114 50.3027 35.3516 50.2245 33.6426C50.1952 32.8712 49.9804 32.0997 49.6972 31.3575C51.2304 30.713 53.2216 30.3614 55.7607 30.6544C61.1982 31.2891 62.2626 34.6876 62.0575 36.1036C61.8525 37.5196 60.7099 38.3106 60.329 38.545C59.9482 38.7794 59.831 38.8673 59.8603 39.043C59.9091 39.2969 60.0849 39.2872 60.4071 39.2286C60.8564 39.1505 63.2577 38.0762 63.3652 35.4493C63.5214 32.129 60.329 28.4766 54.6737 28.5059L54.6767 28.5079ZM12.7646 42.6387C10.9687 44.6016 8.44912 45.3438 7.36611 44.7188C6.204 44.043 6.66298 41.1544 8.8788 39.0626C10.2265 37.793 11.9638 36.6212 13.1161 35.8985C13.3798 35.7423 13.7607 35.5079 14.2294 35.2247C14.3075 35.1759 14.3466 35.1563 14.3466 35.1563C14.4345 35.0977 14.5321 35.0489 14.6298 34.9903C15.4394 37.9591 14.6591 40.5762 12.7646 42.6368V42.6387ZM25.8857 33.713C25.2607 35.2462 23.9433 39.1524 23.1425 38.9473C22.4589 38.7716 22.039 35.793 23.0058 32.8634C23.4941 31.3887 24.5292 29.6309 25.1444 28.9473C26.1298 27.8438 27.2138 27.4923 27.4677 27.9317C27.8095 28.5079 26.2763 32.7559 25.8857 33.713ZM36.7255 38.8887C36.4618 39.0255 36.2177 39.1134 36.1005 39.045C36.0126 38.9962 36.2079 38.8106 36.2079 38.8106C36.2079 38.8106 37.5653 37.3555 38.1025 36.6915C38.415 36.3009 38.7763 35.8419 39.1659 35.3341C39.1659 35.3829 39.1757 35.4317 39.1757 35.4903C39.163 37.2384 37.4843 38.42 36.7226 38.8887H36.7255ZM45.0829 36.9844C44.8876 36.8477 44.9169 36.3887 45.5712 34.963C45.8251 34.4063 46.4101 33.4688 47.4267 32.5704C47.5418 32.9105 47.6043 33.2661 47.6122 33.6251C47.6025 35.8223 46.0302 36.6426 45.0839 36.9844H45.0829Z" fill="black"/>
</svg>
