<svg width="45" height="50" viewBox="0 0 45 50" fill="none" xmlns="http://www.w3.org/2000/svg">
<g clip-path="url(#clip0)">
<path d="M43.2521 12.6896L35.0604 4.49795C34.1814 3.61887 32.9891 3.12501 31.7459 3.125H5.5625C2.97363 3.125 0.875 5.22363 0.875 7.8125V42.1875C0.875 44.7764 2.97363 46.875 5.5625 46.875H39.9375C42.5264 46.875 44.625 44.7764 44.625 42.1875V16.0041C44.625 14.7609 44.1311 13.5686 43.2521 12.6896V12.6896ZM22.75 40.625C19.2982 40.625 16.5 37.8268 16.5 34.375C16.5 30.9232 19.2982 28.125 22.75 28.125C26.2018 28.125 29 30.9232 29 34.375C29 37.8268 26.2018 40.625 22.75 40.625ZM32.125 10.8867V20.7031C32.125 21.3503 31.6003 21.875 30.9531 21.875H8.29688C7.64971 21.875 7.125 21.3503 7.125 20.7031V10.5469C7.125 9.89971 7.64971 9.375 8.29688 9.375H30.6133C30.9241 9.375 31.2222 9.49844 31.4419 9.71826L31.7817 10.0581C31.8906 10.1669 31.9769 10.2961 32.0358 10.4383C32.0947 10.5804 32.125 10.7328 32.125 10.8867V10.8867Z" fill="black"/>
</g>
<defs>
<clipPath id="clip0">
<rect width="43.75" height="50" fill="white" transform="translate(0.875)"/>
</clipPath>
</defs>
</svg>
