<svg width="51" height="50" viewBox="0 0 51 50" fill="none" xmlns="http://www.w3.org/2000/svg">
<g clip-path="url(#clip0)">
<path d="M49.9414 43.2324L40.2051 33.4961C39.7656 33.0566 39.1699 32.8125 38.5449 32.8125H36.9531C39.6484 29.3652 41.25 25.0293 41.25 20.3125C41.25 9.0918 32.1582 0 20.9375 0C9.7168 0 0.625 9.0918 0.625 20.3125C0.625 31.5332 9.7168 40.625 20.9375 40.625C25.6543 40.625 29.9902 39.0234 33.4375 36.3281V37.9199C33.4375 38.5449 33.6816 39.1406 34.1211 39.5801L43.8574 49.3164C44.7754 50.2344 46.2598 50.2344 47.168 49.3164L49.9316 46.5527C50.8496 45.6348 50.8496 44.1504 49.9414 43.2324ZM20.9375 32.8125C14.0332 32.8125 8.4375 27.2266 8.4375 20.3125C8.4375 13.4082 14.0234 7.8125 20.9375 7.8125C27.8418 7.8125 33.4375 13.3984 33.4375 20.3125C33.4375 27.2168 27.8516 32.8125 20.9375 32.8125Z" fill="black"/>
</g>
<defs>
<clipPath id="clip0">
<rect width="50" height="50" fill="white" transform="translate(0.625)"/>
</clipPath>
</defs>
</svg>
