<svg width="44" height="50" viewBox="0 0 44 50" fill="none" xmlns="http://www.w3.org/2000/svg">
<g clip-path="url(#clip0)">
<path d="M31.6905 44.8216C31.1905 44.5002 30.5239 44.6549 30.2024 45.1549C29.512 46.2383 27.2024 45.643 25.7143 45.2383C25.6786 45.2264 4.17863 39.2383 4.17863 39.2383C3.6072 39.0835 3.01196 39.4168 2.8572 39.9883C2.70244 40.5597 3.03577 41.1549 3.6072 41.3097L7.44053 42.3811C7.23815 42.6073 7.0953 42.8811 7.00006 43.2025C6.67863 44.3454 7.3453 45.5359 8.50006 45.8573C9.64292 46.1787 10.8334 45.5121 11.1548 44.3573C11.2382 44.0478 11.2501 43.7264 11.2024 43.4287L22.0596 46.4525C21.8572 46.6787 21.7143 46.9525 21.6191 47.274C21.2977 48.4168 21.9643 49.6073 23.1191 49.9287C24.262 50.2502 25.4524 49.5835 25.7739 48.4287C25.8572 48.1311 25.8691 47.8335 25.8334 47.5359C25.8453 47.5359 25.8453 47.5359 25.8572 47.5359C27.4405 47.9764 30.6191 48.5121 32.0358 46.3097C32.3334 45.8097 32.1905 45.143 31.6905 44.8216ZM20.1429 9.60731C20.7262 10.0002 21.381 10.274 22.0715 10.4049H22.0834C23.7858 10.7383 25.5715 10.1906 26.7977 8.96445C28.0358 7.72636 28.5834 5.89302 28.2262 4.16683C27.8691 2.48826 26.6905 1.05969 25.1072 0.404928C23.4882 -0.273644 21.6072 -0.0831677 20.1548 0.893023C18.7024 1.86921 17.8215 3.54778 17.8334 5.29778C17.8334 7.01207 18.7262 8.65493 20.1429 9.60731Z" fill="black"/>
<path d="M43.2501 8.9049C43.143 7.72633 42.1072 6.86918 40.9287 6.97633L31.4287 7.85728C30.893 7.9168 29.2858 8.53585 27.893 9.02395C27.6906 9.32157 27.4644 9.60728 27.2025 9.85728C25.8811 11.1787 23.9406 11.7739 22.1072 11.4168H22.0953C21.3572 11.2739 20.643 10.9763 20.012 10.5597C19.6787 10.3335 19.3811 10.0835 19.1192 9.79776C15.9763 9.52395 12.3334 9.22633 9.92868 9.61918L1.95249 12.3216C1.14296 12.5954 0.642963 13.4406 0.821534 14.2978C1.02392 15.2263 1.92868 15.8097 2.85725 15.6192L10.5953 13.9763L16.5477 14.7739L14.2144 23.512C13.2025 27.6311 16.762 30.6311 16.762 30.6311L12.3453 37.6192C11.7501 38.5597 11.9763 39.8097 12.893 40.4763C13.8453 41.1787 15.1787 40.9644 15.8811 40.012L21.8453 31.8811C22.1787 31.4287 22.3334 30.8692 22.2977 30.3216L25.3334 30.893L19.9882 39.2382C19.3811 40.1906 19.6192 41.4644 20.5477 42.1311C21.512 42.8216 22.8453 42.5954 23.5239 41.6311L31.4644 30.5239C31.643 30.2739 31.7858 29.9763 31.8573 29.6549C32.1668 28.3454 31.3453 27.0358 30.0358 26.7263L29.9168 26.7025L24.8215 25.512L27.2263 16.5239C27.3334 16.0954 27.393 15.6787 27.4049 15.262C27.4644 15.2382 27.5239 15.2025 27.5715 15.1787L32.4525 12.5001L41.4287 11.2144C42.5477 11.0478 43.3572 10.0359 43.2501 8.9049Z" fill="black"/>
</g>
<defs>
<clipPath id="clip0">
<rect width="43.8095" height="50" fill="white"/>
</clipPath>
</defs>
</svg>
