<svg width="51" height="50" viewBox="0 0 51 50" fill="none" xmlns="http://www.w3.org/2000/svg">
<path d="M42.8126 9.375C45.4005 9.375 47.5001 7.27539 47.5001 4.6875C47.5001 2.09961 45.4005 0 42.8126 0C40.2247 0 38.1251 2.09961 38.1251 4.6875C38.1251 7.27539 40.2247 9.375 42.8126 9.375ZM45.6251 24.375C46.1915 24.7949 46.8458 25 47.5001 25C48.4473 25 49.3848 24.5703 50.0001 23.75C51.0352 22.373 50.7618 20.4102 49.3751 19.375L38.4962 11.2207C37.1485 10.2148 35.6544 9.42383 34.0626 8.89648L27.8419 6.82617L25.293 1.73828C24.5216 0.195312 22.6466 -0.429688 21.1036 0.341797C19.5606 1.11328 18.9356 2.98828 19.7071 4.53125L22.5489 10.2051C23.1055 11.3184 24.0723 12.1484 25.254 12.5488L26.8555 13.0859L22.8321 15.0977C20.7032 16.1621 19.3751 18.3008 19.3751 20.6836V25.8691L12.1388 28.2813C10.4981 28.8281 9.61919 30.5957 10.1661 32.2363C10.3321 32.7441 10.6446 33.1543 11.0157 33.4961L7.23638 32.1191C6.28911 31.7773 5.53716 31.084 5.10747 30.166C4.5606 28.9941 3.16411 28.4863 1.99224 29.0332C0.820366 29.5801 0.312554 30.9766 0.859428 32.1484C1.81646 34.1992 3.50591 35.752 5.63481 36.5234L41.2598 49.4824C42.2071 49.8242 43.1837 50 44.1602 50C45.3809 50 46.5919 49.7363 47.7247 49.1992C48.8965 48.6523 49.4044 47.2559 48.8575 46.084C48.3106 44.9121 46.9141 44.4043 45.7423 44.9512C44.8341 45.3809 43.8087 45.4199 42.8614 45.0781L33.9942 41.8457C34.8438 41.4453 35.5177 40.6934 35.7325 39.707L37.8712 29.7461C38.252 27.9688 37.5587 26.1133 36.1036 25.0195L31.0255 21.2109L37.4708 18.2324L45.6251 24.375ZM31.5235 29.4238L29.5997 38.4082C29.4532 39.1016 29.5899 39.7656 29.8731 40.3613L13.3302 34.3457C13.5938 34.3262 13.8575 34.3066 14.1114 34.2187L22.4122 31.4453C24.3263 30.8105 25.6153 29.0234 25.6153 27.002V25L31.5235 29.4238Z" fill="black"/>
</svg>
