<svg width="45" height="50" viewBox="0 0 45 50" fill="none" xmlns="http://www.w3.org/2000/svg">
<g clip-path="url(#clip0)">
<path d="M42.5897 19.8242C42.5897 8.87698 33.7127 3.22033e-05 22.7654 3.22033e-05C11.8182 -0.019499 2.9412 8.84769 2.92166 19.7852C2.91417 23.9805 4.23876 28.07 6.70459 31.4642C9.17041 34.8584 12.6502 37.3822 16.6424 38.6719V48.6035C16.6424 48.9739 16.7895 49.3291 17.0514 49.591C17.3133 49.8529 17.6685 50 18.0389 50H27.4529C27.8233 50 28.1785 49.8529 28.4404 49.591C28.7023 49.3291 28.8494 48.9739 28.8494 48.6035V38.6817C32.8379 37.3927 36.3158 34.8737 38.7842 31.486C41.2526 28.0983 42.5848 24.0159 42.5897 19.8242ZM16.0662 19.8242C16.0662 10.957 29.4744 10.957 29.4744 19.8242C29.4647 28.6035 16.0662 28.711 16.0662 19.8242Z" fill="black"/>
</g>
<defs>
<clipPath id="clip0">
<rect width="45" height="50" fill="white"/>
</clipPath>
</defs>
</svg>
