<svg width="64" height="50" viewBox="0 0 64 50" fill="none" xmlns="http://www.w3.org/2000/svg">
<path d="M58.4965 20.3363C55.2866 18.8316 50.9938 17.9688 46.7188 17.9688H18.821C18.3374 17.3286 17.7873 16.799 17.1882 16.4062H37.3438C23.0036 13.4519 22.0511 3.125 10.0003 3.125H10V15.625H8.4375V3.125C5.84863 3.125 3.75 5.92324 3.75 9.375V15.625C1.48467 15.625 0.625 16.6047 0.625 17.9688V21.875C0.625 23.2405 1.48623 24.2188 3.75 24.2188V25.7812C1.48467 25.7812 0.625 26.7609 0.625 28.125V32.0312C0.625 33.3968 1.48623 34.375 3.75 34.375V40.625C3.75 44.0768 5.84863 46.875 8.4375 46.875V34.375H10V46.875H10.0003C22.0511 46.875 23.0036 36.5481 37.3438 33.5938H17.1881C17.7872 33.201 18.3373 32.6714 18.8209 32.0312H46.7188C50.9938 32.0312 55.2866 31.1684 58.4965 29.6637C61.3947 28.3052 63.125 26.5617 63.125 25C63.125 23.4383 61.3947 21.6948 58.4965 20.3363ZM48.2812 28.9062C48.074 28.9062 47.8753 28.8239 47.7288 28.6774C47.5823 28.5309 47.5 28.3322 47.5 28.125V21.875C47.5 21.6678 47.5823 21.4691 47.7288 21.3226C47.8753 21.1761 48.074 21.0938 48.2812 21.0938C51.3974 21.0938 51.4006 28.9062 48.2812 28.9062Z" fill="black"/>
</svg>
