<svg width="52" height="50" viewBox="0 0 52 50" fill="none" xmlns="http://www.w3.org/2000/svg">
<path d="M32.9316 20.187C32.3405 20.189 31.7526 20.2735 31.1848 20.438V30.9402C31.5482 31.0489 31.9283 31.0905 32.3066 31.063C34.5555 31.063 36.9327 29.4605 36.9327 25.3098C36.9327 21.9391 35.4316 20.187 32.9316 20.187Z" fill="black"/>
<path d="M42.1196 2.13675H10.4957C8.45559 2.13675 6.49902 2.94719 5.05643 4.38977C3.61384 5.83236 2.80341 7.78893 2.80341 9.82906V40.1709C2.80341 42.2111 3.61384 44.1676 5.05643 45.6102C6.49902 47.0528 8.45559 47.8632 10.4957 47.8632H42.1196C43.1298 47.8632 44.1301 47.6643 45.0634 47.2777C45.9966 46.8911 46.8446 46.3245 47.5589 45.6102C48.2732 44.8959 48.8398 44.0479 49.2264 43.1147C49.613 42.1814 49.812 41.1811 49.812 40.1709V9.82906C49.812 8.81889 49.613 7.81861 49.2264 6.88534C48.8398 5.95206 48.2732 5.10407 47.5589 4.38977C46.8446 3.67548 45.9966 3.10887 45.0634 2.72229C44.1301 2.33572 43.1298 2.13675 42.1196 2.13675V2.13675ZM17.3066 34.188C15.5378 34.369 13.755 34.0213 12.1837 33.1891C12.1068 33.1297 12.0443 33.0537 12.0009 32.9667C11.9574 32.8798 11.9341 32.7842 11.9327 32.687V29.4391C11.9327 29.3109 12.0555 29.188 12.1837 29.3109C13.665 30.2954 15.4052 30.8178 17.1837 30.812C19.6837 30.812 20.6827 29.562 20.6827 28.0609C20.6827 26.8109 20.0577 25.6891 17.6805 24.3216L16.4305 23.6966C12.953 21.688 11.9327 19.6902 11.9327 17.1902C11.9327 13.6859 14.3098 10.9348 18.9305 10.9348C20.4655 10.9023 21.9929 11.1578 23.4337 11.688C23.5566 11.8109 23.6848 11.8109 23.6848 12.062V15.187C23.6848 15.3152 23.5566 15.438 23.4337 15.3152C22.0824 14.6196 20.5781 14.2743 19.0587 14.3109C16.4305 14.3109 15.5598 15.812 15.5598 16.9391C15.5598 18.1891 16.1848 19.188 18.5566 20.438L19.6837 21.063C23.5566 23.1998 24.5555 25.3365 24.5555 27.8098C24.5555 31.5598 21.8098 34.188 17.3066 34.188ZM32.0555 34.188C31.7594 34.2086 31.4624 34.1649 31.1848 34.0598V38.6859C31.1799 38.7508 31.1519 38.8119 31.1058 38.8579C31.0597 38.904 30.9987 38.932 30.9337 38.937L27.8087 39.188C27.5577 39.188 27.5577 39.188 27.5577 38.937V20.0641C27.5741 19.4367 27.533 18.809 27.4348 18.1891C27.4348 18.1891 27.3066 18.0609 27.4348 18.0609C29.3111 17.3402 31.301 16.9603 33.3109 16.9391C38.0652 16.9391 40.688 20.438 40.688 25.0641C40.6827 31.1859 36.4573 34.188 32.0555 34.188Z" fill="black"/>
</svg>
