<svg width="50" height="50" viewBox="0 0 50 50" fill="none" xmlns="http://www.w3.org/2000/svg">
<g clip-path="url(#clip0)">
<path d="M24.8398 0.78125C11.4707 0.78125 0.621094 11.6309 0.621094 25C0.621094 38.3691 11.4707 49.2188 24.8398 49.2188C38.209 49.2188 49.0586 38.3691 49.0586 25C49.0586 11.6309 38.209 0.78125 24.8398 0.78125ZM34.6738 36.416C34.2637 36.416 34.0098 36.2891 33.6289 36.0645C27.5352 32.3926 20.4453 32.2363 13.4434 33.6719C13.0625 33.7695 12.5645 33.9258 12.2813 33.9258C11.334 33.9258 10.7383 33.1738 10.7383 32.3828C10.7383 31.377 11.334 30.8984 12.0664 30.7422C20.0645 28.9746 28.2383 29.1309 35.2109 33.3008C35.8066 33.6816 36.1582 34.0234 36.1582 34.9121C36.1582 35.8008 35.4648 36.416 34.6738 36.416V36.416ZM37.3008 30.0098C36.793 30.0098 36.4512 29.7852 36.0996 29.5996C29.9961 25.9863 20.8945 24.5313 12.7988 26.7285C12.3301 26.8555 12.0762 26.9824 11.6367 26.9824C10.5918 26.9824 9.74219 26.1328 9.74219 25.0879C9.74219 24.043 10.25 23.3496 11.2559 23.0664C13.9707 22.3047 16.7441 21.7383 20.8066 21.7383C27.1445 21.7383 33.2676 23.3105 38.0918 26.1816C38.8828 26.6504 39.1953 27.2559 39.1953 28.1055C39.1855 29.1602 38.3652 30.0098 37.3008 30.0098V30.0098ZM40.3281 22.5684C39.8203 22.5684 39.5078 22.4414 39.0684 22.1875C32.1152 18.0371 19.6836 17.041 11.6367 19.2871C11.2852 19.3848 10.8457 19.541 10.377 19.541C9.08789 19.541 8.10156 18.5352 8.10156 17.2363C8.10156 15.9082 8.92188 15.1563 9.80078 14.9023C13.2383 13.8965 17.0859 13.418 21.2754 13.418C28.4043 13.418 35.875 14.9023 41.334 18.0859C42.0957 18.5254 42.5937 19.1309 42.5937 20.293C42.5937 21.6211 41.5195 22.5684 40.3281 22.5684V22.5684Z" fill="black"/>
</g>
<defs>
<clipPath id="clip0">
<rect width="48.4375" height="50" fill="white" transform="translate(0.621094)"/>
</clipPath>
</defs>
</svg>
