<svg width="38" height="50" viewBox="0 0 38 50" fill="none" xmlns="http://www.w3.org/2000/svg">
<g clip-path="url(#clip0)">
<path d="M28.3885 30.3711L9.27717 26.3379L8.47639 30.1758L27.5877 34.1797L28.3885 30.3711ZM33.369 21.875L18.3787 9.3457L15.8885 12.3535L30.8787 24.8828L33.369 21.875ZM30.3221 25.752L12.617 17.4805L10.9862 21.0449L28.6815 29.2969L30.3221 25.752ZM25.5858 3.125L22.4608 5.46875L34.1112 21.123L37.2362 18.7793L25.5858 3.125ZM27.5877 35.1562H8.05647V39.0332H27.5877V35.1562ZM31.4647 42.9688H4.16975V31.25H0.263495V46.875H35.3709V31.25H31.4647V42.9688Z" fill="black"/>
</g>
<defs>
<clipPath id="clip0">
<rect width="37.5" height="50" fill="white"/>
</clipPath>
</defs>
</svg>
