<svg width="38" height="50" viewBox="0 0 38 50" fill="none" xmlns="http://www.w3.org/2000/svg">
<g clip-path="url(#clip0)">
<path d="M15.666 15.0977C15.666 12.9199 17.4824 12.0801 20.3926 12.0801C24.6309 12.0801 30.0117 13.3789 34.25 15.6641V2.54883C29.6309 0.703125 25.0215 0 20.4023 0C9.10352 0 1.57422 5.89844 1.57422 15.7617C1.57422 31.1816 22.7461 28.6816 22.7461 35.332C22.7461 37.9102 20.5098 38.7402 17.4043 38.7402C12.7949 38.7402 6.83789 36.8359 2.16016 34.2969V46.8457C6.97154 48.9214 12.1545 49.9979 17.3945 50.0098C28.9766 50.0098 36.9551 45.0293 36.9551 35.0098C36.9551 18.3887 15.666 21.3672 15.666 15.0977V15.0977Z" fill="black"/>
</g>
<defs>
<clipPath id="clip0">
<rect width="37.5" height="50" fill="white" transform="translate(0.5)"/>
</clipPath>
</defs>
</svg>
