<svg width="38" height="50" viewBox="0 0 38 50" fill="none" xmlns="http://www.w3.org/2000/svg">
<path d="M32.9375 15.625H4.8125C2.22363 15.625 0.125 17.7236 0.125 20.3125V42.1875C0.125 44.7764 2.22363 46.875 4.8125 46.875H6.375V48.4375C6.375 49.3008 7.07422 50 7.9375 50H11.0625C11.9258 50 12.625 49.3008 12.625 48.4375V46.875H25.125V48.4375C25.125 49.3008 25.8242 50 26.6875 50H29.8125C30.6758 50 31.375 49.3008 31.375 48.4375V46.875H32.9375C35.5264 46.875 37.625 44.7764 37.625 42.1875V20.3125C37.625 17.7236 35.5264 15.625 32.9375 15.625ZM31.375 36.7188C31.375 37.1504 31.0254 37.5 30.5938 37.5H7.15625C6.72461 37.5 6.375 37.1504 6.375 36.7188V35.1562C6.375 34.7246 6.72461 34.375 7.15625 34.375H30.5938C31.0254 34.375 31.375 34.7246 31.375 35.1562V36.7188ZM31.375 27.3438C31.375 27.7754 31.0254 28.125 30.5938 28.125H7.15625C6.72461 28.125 6.375 27.7754 6.375 27.3438V25.7812C6.375 25.3496 6.72461 25 7.15625 25H30.5938C31.0254 25 31.375 25.3496 31.375 25.7812V27.3438ZM14.1875 4.6875H23.5625V12.5H28.25V4.6875C28.25 2.09863 26.1514 0 23.5625 0H14.1875C11.5986 0 9.5 2.09863 9.5 4.6875V12.5H14.1875V4.6875Z" fill="black"/>
</svg>
