<svg width="50" height="50" viewBox="0 0 50 50" fill="none" xmlns="http://www.w3.org/2000/svg">
<g clip-path="url(#clip0)">
<path d="M29.5379 11.1172C32.578 11.7118 35.5284 9.72615 36.1118 6.68598C36.7064 3.64582 34.7207 0.695407 31.6806 0.112055C28.6404 -0.482516 25.69 1.50312 25.1066 4.54329C24.5121 7.58345 26.4977 10.5226 29.5379 11.1172ZM36.1454 44.1551C36.583 43.6391 36.8185 42.9548 36.7512 42.2256L35.8874 31.9384C35.8425 31.355 35.5957 30.7829 35.1694 30.3117L35.0012 30.1323L32.7575 27.7091L34.9675 17.1863L47.4311 16.6815C48.5753 16.6366 49.5177 15.7167 49.5625 14.55C49.6186 13.3272 48.6539 12.2839 47.4311 12.239C47.4311 12.239 33.6325 11.6669 33.0267 11.7006C31.5908 11.7903 26.1387 11.8128 24.7476 12.4971L9.87216 19.3627C9.07566 19.7553 8.68302 20.6864 8.97469 21.5502C9.30003 22.4814 10.3209 22.975 11.252 22.6496L22.0104 18.8915C22.0104 18.8915 20.2603 26.5424 20.2379 27.3501L19.7891 33.307L14.8419 41.0925C14.2473 42.0349 14.3034 43.2352 14.9428 44.099C6.29352 44.5702 0.269287 45.6584 0.269287 46.9148C0.269287 48.62 11.3418 49.9999 25.0057 49.9999C38.6696 49.9999 49.742 48.62 49.742 46.9148C49.7308 45.7145 44.2114 44.6712 36.1454 44.1551ZM19.3965 43.9083L25.3646 36.078C25.6114 35.7526 25.7909 35.3488 25.8582 34.9113L25.8919 34.6644L26.5089 30.7156L29.9305 33.8792L31.4562 42.8875C31.5235 43.2801 31.6693 43.6279 31.8825 43.942C29.6949 43.8635 27.3839 43.8186 24.9832 43.8186C23.0761 43.8298 21.2027 43.8522 19.3965 43.9083Z" fill="black"/>
</g>
<defs>
<clipPath id="clip0">
<rect width="50" height="50" fill="white"/>
</clipPath>
</defs>
</svg>
