<svg width="63" height="50" viewBox="0 0 63 50" fill="none" xmlns="http://www.w3.org/2000/svg">
<path d="M18.5166 30.3302C18.8623 30.6486 20.0078 31.2502 21.875 31.2502C23.7422 31.2502 24.8887 30.6486 25.2334 30.3302C26.7979 28.8878 28.6025 28.1252 30.4541 28.1252H32.0459C33.8975 28.1252 35.7031 28.8878 37.2666 30.3302C37.6123 30.6486 38.7578 31.2502 40.625 31.2502C42.4922 31.2502 43.6387 30.6486 43.9834 30.3302C45.4346 28.9914 47.0967 28.2677 48.8066 28.1662L37.7871 20.2951L39.5449 19.0392C39.9004 18.7873 40.3535 18.6955 40.7773 18.7843L50.5771 20.8869C53.1074 21.4269 55.6006 19.8156 56.1436 17.2853C56.6855 14.7541 55.0742 12.2619 52.542 11.7189L42.7422 9.61641C39.7412 8.97383 36.5879 9.62813 34.0937 11.4113L26.2793 16.9943C25.2656 17.716 24.3887 18.5998 23.6699 19.6252L16.9678 29.1994C17.502 29.5148 18.0244 29.8761 18.5166 30.3302ZM60.9375 34.3752H59.375C56.832 34.3752 54.9023 33.5529 53.8975 32.6271C53.0283 31.8253 51.9775 31.2502 50.7949 31.2502H49.2031C48.0205 31.2502 46.9697 31.8253 46.1006 32.6271C45.0977 33.5529 43.168 34.3752 40.625 34.3752C38.082 34.3752 36.1523 33.5529 35.1475 32.6271C34.2783 31.8253 33.2275 31.2502 32.0449 31.2502H30.4531C29.2705 31.2502 28.2197 31.8253 27.3506 32.6271C26.3477 33.5529 24.418 34.3752 21.875 34.3752C19.332 34.3752 17.4023 33.5529 16.3975 32.6271C15.5283 31.8253 14.4775 31.2502 13.2949 31.2502H11.7031C10.5205 31.2502 9.46973 31.8253 8.60059 32.6271C7.59766 33.5529 5.66797 34.3752 3.125 34.3752H1.5625C0.699219 34.3752 0 35.0744 0 35.9377V39.0627C0 39.9259 0.699219 40.6252 1.5625 40.6252H3.125C6.89648 40.6252 10.2266 39.4347 12.5 37.5158C14.7734 39.4357 18.1035 40.6252 21.875 40.6252C25.6465 40.6252 28.9766 39.4347 31.25 37.5158C33.5234 39.4357 36.8535 40.6252 40.625 40.6252C44.3965 40.6252 47.7266 39.4347 50 37.5158C52.2734 39.4357 55.6035 40.6252 59.375 40.6252H60.9375C61.8008 40.6252 62.5 39.9259 62.5 39.0627V35.9377C62.5 35.0744 61.8008 34.3752 60.9375 34.3752ZM10.9375 25.0002C15.252 25.0002 18.75 21.5021 18.75 17.1877C18.75 12.8732 15.252 9.3752 10.9375 9.3752C6.62305 9.3752 3.125 12.8732 3.125 17.1877C3.125 21.5021 6.62305 25.0002 10.9375 25.0002Z" fill="black"/>
</svg>
