<svg width="63" height="50" viewBox="0 0 63 50" fill="none" xmlns="http://www.w3.org/2000/svg">
<g clip-path="url(#clip0)">
<path d="M25.1934 26.6573L6.21462 45.6362C5.29929 46.5515 3.81531 46.5515 2.90007 45.6362L0.6864 43.4226C-0.22737 42.5088 -0.229127 41.0279 0.682494 40.1119L15.7237 25L0.682591 9.88821C-0.22903 8.97229 -0.227272 7.49133 0.686498 6.57756L2.90007 4.36399C3.8154 3.44866 5.29939 3.44866 6.21462 4.36399L25.1934 23.3428C26.1088 24.258 26.1088 25.742 25.1934 26.6573ZM62.5 44.5313V41.4063C62.5 40.1118 61.4507 39.0625 60.1562 39.0625H30.4687C29.1743 39.0625 28.125 40.1118 28.125 41.4063V44.5313C28.125 45.8257 29.1743 46.875 30.4687 46.875H60.1562C61.4507 46.875 62.5 45.8257 62.5 44.5313Z" fill="black"/>
</g>
<defs>
<clipPath id="clip0">
<rect width="62.5" height="50" fill="white"/>
</clipPath>
</defs>
</svg>
