<svg width="44" height="50" viewBox="0 0 44 50" fill="none" xmlns="http://www.w3.org/2000/svg">
<path d="M38.5605 3.125H5.72846C2.70112 3.125 0.249945 5.57617 0.249945 8.59375C0.24018 8.59375 0.249945 8.20312 0.249945 41.4062C0.249945 44.4238 2.70112 46.875 5.7187 46.875H38.5508C41.5586 46.8555 43.9902 44.4141 43.9902 41.4062V8.59375C44 5.58594 41.5683 3.14453 38.5605 3.125ZM19.4883 36.2598C19.4687 37.6953 18.3066 38.8574 16.8613 38.8574H8.7851C7.33979 38.8672 6.15815 37.7051 6.14838 36.2598V11.4355C6.14838 9.99023 7.32026 8.80859 8.77534 8.80859H16.8711C18.3164 8.80859 19.498 9.98047 19.498 11.4355V36.2598H19.4883ZM38.3457 25.3223C38.3457 26.7676 37.1738 27.9492 35.7187 27.9492H27.8086C26.3633 27.9492 25.1816 26.7773 25.1816 25.3223V11.4453C25.1816 10 26.3535 8.81836 27.7988 8.81836H35.7187C37.164 8.81836 38.3457 9.99023 38.3457 11.4453V25.3223Z" fill="black"/>
</svg>
