<svg width="50" height="50" viewBox="0 0 50 50" fill="none" xmlns="http://www.w3.org/2000/svg">
<path d="M0 25V50H50V0H0V25ZM40.3125 23.0469C41.5625 23.3594 42.5781 23.9062 43.4375 24.8437C43.9062 25.3125 44.6094 26.25 44.6094 26.4844C44.6094 26.5625 42.4219 28.0469 41.0937 28.8281C41.0156 28.8281 40.8594 28.6719 40.625 28.3594C40 27.4219 39.2969 27.0313 38.2812 26.9531C36.7969 26.875 35.7812 27.6562 35.7812 28.9844C35.7812 29.375 35.8594 29.6094 36.0156 29.9219C36.3281 30.625 36.9531 31.0156 38.9062 31.875C42.5 33.4375 43.9844 34.4531 45 35.8594C46.0937 37.5 46.3281 40.0781 45.5469 41.9531C44.7656 44.0625 42.8125 45.4687 40 45.9375C39.1406 46.0937 37.1094 46.0937 36.1719 45.9375C34.1406 45.5469 32.2656 44.6094 31.0937 43.2813C30.625 42.7344 29.7656 41.4844 29.7656 41.3281C29.7656 41.3281 30 41.1719 30.2344 41.0156L32.1094 39.9219L33.5156 39.0625L33.8281 39.5312C34.2187 40.1562 35.1563 41.0938 35.7031 41.3281C37.2656 42.1875 39.4531 42.0312 40.5469 41.0937C41.0156 40.7031 41.1719 40.2344 41.1719 39.6094C41.1719 39.0625 41.0938 38.75 40.7813 38.3594C40.3906 37.8125 39.6094 37.3437 37.3437 36.3281C34.7656 35.2344 33.6719 34.5312 32.6562 33.4375C32.0312 32.8125 31.4844 31.7969 31.25 30.9375C31.0937 30.2344 31.0156 28.4375 31.1719 27.7344C31.7188 25.2344 33.5938 23.5156 36.3281 22.9687C37.3437 22.7344 39.4531 22.8125 40.3125 23.0469ZM28.5937 25.0781V27.1094H22.1094V45.625H17.5V27.1094H10.9375V25.0781L11.0156 23.0469C11.0156 23.0469 15 22.9687 19.7656 23.0469H28.5156L28.5937 25.0781Z" fill="black"/>
</svg>
