<svg width="49" height="50" viewBox="0 0 49 50" fill="none" xmlns="http://www.w3.org/2000/svg">
<g clip-path="url(#clip0)">
<path d="M24.2188 0.78125C10.8398 0.78125 0 11.6211 0 25C0 38.3789 10.8398 49.2188 24.2188 49.2188C37.5977 49.2188 48.4375 38.3789 48.4375 25C48.4375 11.6211 37.5977 0.78125 24.2188 0.78125ZM29.3652 9.86328C30.2246 8.37891 32.1289 7.86133 33.6133 8.7207C35.1074 9.58008 35.6152 11.4844 34.7559 12.9785C33.8965 14.4629 31.9922 14.9805 30.5078 14.1211C29.0137 13.252 28.5059 11.3477 29.3652 9.86328ZM8.53516 28.1152C6.81641 28.1152 5.41992 26.7188 5.41992 25C5.41992 23.2812 6.81641 21.8848 8.53516 21.8848C10.2539 21.8848 11.6504 23.2812 11.6504 25C11.6504 26.7188 10.2539 28.1152 8.53516 28.1152ZM11.2793 28.418C13.457 26.6699 13.4668 23.3496 11.2793 21.5918C12.1191 18.3887 14.1211 15.6641 16.7969 13.8672L19.1113 17.7344C14.082 21.2793 14.082 28.7207 19.1113 32.2656L16.7969 36.1328C14.1211 34.3457 12.1289 31.6113 11.2793 28.418ZM33.6133 41.2793C32.1191 42.1387 30.2246 41.6309 29.3652 40.1367C28.5059 38.6426 29.0137 36.7383 30.5078 35.8789C31.9922 35.0195 33.8965 35.5273 34.7559 37.0215C35.6152 38.5156 35.1074 40.4199 33.6133 41.2793ZM33.6426 34.4922C31.0352 33.4863 28.1641 35.1367 27.7344 37.9102C27.2266 38.0469 22.959 39.3066 18.291 36.9922L20.4883 33.0566C26.0547 35.6445 32.5391 31.9141 33.0762 25.791L37.5781 25.8594C37.3535 29.2285 35.8887 32.2559 33.6426 34.4922V34.4922ZM33.0664 24.209C32.5391 18.1543 26.1035 14.3262 20.4785 16.9434L18.2812 13.0078C22.959 10.6934 27.2168 11.9531 27.7246 12.0898C28.1543 14.8535 31.0254 16.5137 33.6328 15.5078C35.8887 17.7441 37.3438 20.7715 37.5586 24.1504L33.0664 24.209Z" fill="black"/>
</g>
<defs>
<clipPath id="clip0">
<rect width="48.4375" height="50" fill="white"/>
</clipPath>
</defs>
</svg>
