<svg width="51" height="50" viewBox="0 0 51 50" fill="none" xmlns="http://www.w3.org/2000/svg">
<path d="M49.1875 12.5001V14.0626C49.1875 14.2698 49.1052 14.4686 48.9587 14.6151C48.8122 14.7616 48.6135 14.8439 48.4062 14.8439H46.0625V16.0158C46.0625 16.6629 45.5378 17.1876 44.8906 17.1876H6.60938C5.96221 17.1876 5.4375 16.6629 5.4375 16.0158V14.8439H3.09375C2.88655 14.8439 2.68784 14.7616 2.54132 14.6151C2.39481 14.4686 2.3125 14.2698 2.3125 14.0626V12.5001C2.3125 12.3456 2.35835 12.1945 2.44424 12.066C2.53013 11.9375 2.6522 11.8374 2.79502 11.7783L25.4513 3.18452C25.6425 3.10532 25.8575 3.10532 26.0487 3.18452L48.705 11.7783C48.8478 11.8374 48.9699 11.9375 49.0558 12.066C49.1417 12.1945 49.1875 12.3456 49.1875 12.5001V12.5001ZM46.8438 42.1876H4.65625C3.36182 42.1876 2.3125 43.237 2.3125 44.5314V46.0939C2.3125 46.3011 2.39481 46.4998 2.54132 46.6463C2.68784 46.7928 2.88655 46.8751 3.09375 46.8751H48.4062C48.6135 46.8751 48.8122 46.7928 48.9587 46.6463C49.1052 46.4998 49.1875 46.3011 49.1875 46.0939V44.5314C49.1875 43.237 48.1382 42.1876 46.8438 42.1876ZM10.125 18.7501V37.5001H6.60938C5.96221 37.5001 5.4375 38.0249 5.4375 38.672V40.6251H46.0625V38.672C46.0625 38.0249 45.5378 37.5001 44.8906 37.5001H41.375V18.7501H35.125V37.5001H28.875V18.7501H22.625V37.5001H16.375V18.7501H10.125Z" fill="black"/>
</svg>
