<svg width="45" height="50" viewBox="0 0 45 50" fill="none" xmlns="http://www.w3.org/2000/svg">
<g clip-path="url(#clip0)">
<path d="M38.4277 30.1073L40.7617 23.9941C41.1523 22.9687 40.4004 21.8749 39.2969 21.8749H33.584C34.6582 20.0292 35.3223 17.9101 35.3223 15.6249V15.5956C39.1504 14.8339 41.5723 13.7304 41.5723 12.4999C41.5723 11.2011 38.9062 10.0487 34.7266 9.27726C33.8281 6.07414 32.0898 2.85148 30.7617 1.19133C29.834 0.0292161 28.2324 -0.332112 26.9043 0.331951L24.209 1.67961C23.3301 2.11906 22.2949 2.11906 21.416 1.67961L18.7207 0.331951C17.3926 -0.332112 15.791 0.0292161 14.8633 1.19133C13.5449 2.85148 11.7969 6.07414 10.8984 9.27726C6.72852 10.0487 4.0625 11.2011 4.0625 12.4999C4.0625 13.7304 6.48437 14.8339 10.3125 15.5956V15.6249C10.3125 17.9101 10.9766 20.0292 12.0508 21.8749H6.43555C5.3125 21.8749 4.56055 23.0175 5 24.0527L7.51953 29.9316C3.60352 32.2069 0.9375 36.3964 0.9375 41.2499V45.6249C0.9375 48.037 2.90039 49.9999 5.3125 49.9999H40.3125C42.7246 49.9999 44.6875 48.037 44.6875 45.6249V41.2499C44.6875 36.5234 42.168 32.4218 38.4277 30.1073V30.1073ZM18.125 46.8749L14.0625 28.1249L18.9062 31.2499L21.25 35.1562L18.125 46.8749ZM27.5 46.8749L24.375 35.1562L26.7188 31.2499L31.5625 28.1249L27.5 46.8749ZM31.5723 17.7245C31.1914 18.8866 30.8887 20.1269 29.9609 20.9862C28.9746 21.8945 25.2734 23.1737 23.7109 18.5448C23.4375 17.7245 22.207 17.7245 21.9238 18.5448C20.2637 23.4472 16.4551 21.7089 15.6738 20.9862C14.7461 20.1269 14.4336 18.8866 14.0625 17.7245C13.9844 17.4804 13.4473 17.1679 13.4473 17.1581V16.1034C16.2109 16.455 19.4043 16.6698 22.8223 16.6698C26.2402 16.6698 29.4336 16.4648 32.1973 16.1034V17.1581C32.1875 17.1679 31.6504 17.4706 31.5723 17.7245Z" fill="black"/>
</g>
<defs>
<clipPath id="clip0">
<rect width="43.75" height="50" fill="white" transform="translate(0.9375)"/>
</clipPath>
</defs>
</svg>
