<svg width="45" height="50" viewBox="0 0 45 50" fill="none" xmlns="http://www.w3.org/2000/svg">
<path d="M22.3125 25C29.2168 25 34.8125 19.4043 34.8125 12.5C34.8125 5.5957 29.2168 0 22.3125 0C15.4082 0 9.8125 5.5957 9.8125 12.5C9.8125 19.4043 15.4082 25 22.3125 25ZM31.0625 28.125H29.4316C27.2637 29.1211 24.8516 29.6875 22.3125 29.6875C19.7734 29.6875 17.3711 29.1211 15.1934 28.125H13.5625C6.31641 28.125 0.4375 34.0039 0.4375 41.25V45.3125C0.4375 47.9004 2.53711 50 5.125 50H39.5C42.0879 50 44.1875 47.9004 44.1875 45.3125V41.25C44.1875 34.0039 38.3086 28.125 31.0625 28.125Z" fill="black"/>
</svg>
