<svg width="63" height="50" viewBox="0 0 63 50" fill="none" xmlns="http://www.w3.org/2000/svg">
<g clip-path="url(#clip0)">
<path d="M9.5625 21.875C13.0098 21.875 15.8125 19.0723 15.8125 15.625C15.8125 12.1777 13.0098 9.375 9.5625 9.375C6.11523 9.375 3.3125 12.1777 3.3125 15.625C3.3125 19.0723 6.11523 21.875 9.5625 21.875ZM53.3125 21.875C56.7598 21.875 59.5625 19.0723 59.5625 15.625C59.5625 12.1777 56.7598 9.375 53.3125 9.375C49.8652 9.375 47.0625 12.1777 47.0625 15.625C47.0625 19.0723 49.8652 21.875 53.3125 21.875ZM56.4375 25H50.1875C48.4687 25 46.916 25.6934 45.7832 26.8164C49.7187 28.9746 52.5117 32.8711 53.1172 37.5H59.5625C61.291 37.5 62.6875 36.1035 62.6875 34.375V31.25C62.6875 27.8027 59.8848 25 56.4375 25ZM31.4375 25C37.4824 25 42.375 20.1074 42.375 14.0625C42.375 8.01758 37.4824 3.125 31.4375 3.125C25.3926 3.125 20.5 8.01758 20.5 14.0625C20.5 20.1074 25.3926 25 31.4375 25ZM38.9375 28.125H38.127C36.0957 29.1016 33.8398 29.6875 31.4375 29.6875C29.0352 29.6875 26.7891 29.1016 24.748 28.125H23.9375C17.7266 28.125 12.6875 33.1641 12.6875 39.375V42.1875C12.6875 44.7754 14.7871 46.875 17.375 46.875H45.5C48.0879 46.875 50.1875 44.7754 50.1875 42.1875V39.375C50.1875 33.1641 45.1484 28.125 38.9375 28.125ZM17.0918 26.8164C15.959 25.6934 14.4063 25 12.6875 25H6.4375C2.99023 25 0.1875 27.8027 0.1875 31.25V34.375C0.1875 36.1035 1.58398 37.5 3.3125 37.5H9.74805C10.3633 32.8711 13.1563 28.9746 17.0918 26.8164Z" fill="black"/>
</g>
<defs>
<clipPath id="clip0">
<rect width="62.5" height="50" fill="white" transform="translate(0.1875)"/>
</clipPath>
</defs>
</svg>
