<svg width="50" height="50" viewBox="0 0 50 50" fill="none" xmlns="http://www.w3.org/2000/svg">
<g clip-path="url(#clip0)">
<path d="M24.9688 0.78125C11.5898 0.78125 0.75 11.6211 0.75 25C0.75 38.3789 11.5898 49.2188 24.9688 49.2188C38.3477 49.2188 49.1875 38.3789 49.1875 25C49.1875 11.6211 38.3477 0.78125 24.9688 0.78125ZM24.9688 10.1562C29.7148 10.1562 33.5625 14.0039 33.5625 18.75C33.5625 23.4961 29.7148 27.3438 24.9688 27.3438C20.2227 27.3438 16.375 23.4961 16.375 18.75C16.375 14.0039 20.2227 10.1562 24.9688 10.1562ZM24.9688 43.75C19.2363 43.75 14.0996 41.1523 10.6621 37.0898C12.498 33.6328 16.0918 31.25 20.2812 31.25C20.5156 31.25 20.75 31.2891 20.9746 31.3574C22.2441 31.7676 23.5723 32.0312 24.9688 32.0312C26.3652 32.0312 27.7031 31.7676 28.9629 31.3574C29.1875 31.2891 29.4219 31.25 29.6562 31.25C33.8457 31.25 37.4395 33.6328 39.2754 37.0898C35.8379 41.1523 30.7012 43.75 24.9688 43.75Z" fill="black"/>
</g>
<defs>
<clipPath id="clip0">
<rect width="48.4375" height="50" fill="white" transform="translate(0.75)"/>
</clipPath>
</defs>
</svg>
