<svg width="45" height="50" viewBox="0 0 45 50" fill="none" xmlns="http://www.w3.org/2000/svg">
<g clip-path="url(#clip0)">
<path d="M22.5625 25C29.4668 25 35.0625 19.4043 35.0625 12.5C35.0625 5.5957 29.4668 0 22.5625 0C15.6582 0 10.0625 5.5957 10.0625 12.5C10.0625 19.4043 15.6582 25 22.5625 25ZM31.918 28.1836L27.25 46.875L24.125 33.5938L27.25 28.125H17.875L21 33.5938L17.875 46.875L13.207 28.1836C6.24414 28.5156 0.6875 34.209 0.6875 41.25V45.3125C0.6875 47.9004 2.78711 50 5.375 50H39.75C42.3379 50 44.4375 47.9004 44.4375 45.3125V41.25C44.4375 34.209 38.8809 28.5156 31.918 28.1836V28.1836Z" fill="black"/>
</g>
<defs>
<clipPath id="clip0">
<rect width="43.75" height="50" fill="white" transform="translate(0.6875)"/>
</clipPath>
</defs>
</svg>
