<svg width="44" height="50" viewBox="0 0 44 50" fill="none" xmlns="http://www.w3.org/2000/svg">
<g clip-path="url(#clip0)">
<path d="M43.918 15C43.7227 19.2578 40.7539 25.0879 34.9922 32.4902C29.0449 40.2246 24.0156 44.0918 19.8945 44.0918C17.3457 44.0918 15.1875 41.7383 13.4199 37.0313C9.98242 24.4141 8.51758 17.0215 5.67578 17.0215C5.34375 17.0215 4.20117 17.7149 2.23828 19.082L0.1875 16.4258C5.22656 12.002 10.041 7.08009 13.0586 6.80665C16.4668 6.47462 18.5566 8.80861 19.3477 13.7891C22.1504 31.5137 23.3906 34.1895 28.4883 26.1621C30.3144 23.2715 31.3008 21.0742 31.4375 19.5606C31.9062 15.0781 27.9414 15.3809 25.2559 16.5332C27.4043 9.4922 31.5156 6.07423 37.5801 6.26955C42.0527 6.38673 44.1719 9.30666 43.918 15V15Z" fill="black"/>
</g>
<defs>
<clipPath id="clip0">
<rect width="43.75" height="50" fill="white" transform="translate(0.1875)"/>
</clipPath>
</defs>
</svg>
