<svg width="50" height="50" viewBox="0 0 50 50" fill="none" xmlns="http://www.w3.org/2000/svg">
<mask id="mask0" mask-type="alpha" maskUnits="userSpaceOnUse" x="0" y="0" width="50" height="50">
<path fill-rule="evenodd" clip-rule="evenodd" d="M35.4492 49.668C36.2305 49.9805 37.1289 49.961 37.9297 49.5703L48.2227 44.6094C49.2969 44.0821 50 42.9883 50 41.7969V8.20316C50 7.01175 49.3164 5.89847 48.2227 5.39066L37.9297 0.429721C36.8945 -0.078092 35.6641 0.0586268 34.7461 0.722689C34.6094 0.820346 34.4922 0.918002 34.375 1.03519L14.668 19.0235L6.09377 12.5C5.29299 11.8946 4.17971 11.9336 3.43752 12.6172L0.683613 15.1368C-0.214824 15.9571 -0.234355 17.3828 0.683613 18.2227L8.12502 25L0.683613 31.7969C-0.214824 32.6172 -0.214824 34.043 0.683613 34.8828L3.43752 37.3828C4.17971 38.0664 5.29299 38.1055 6.09377 37.5L14.668 30.9766L34.375 48.9649C34.6875 49.2774 35.0586 49.5118 35.4492 49.668ZM37.5 13.6524L22.5586 25L37.5195 36.3477V13.6524H37.5Z" fill="white"/>
</mask>
<g mask="url(#mask0)">
<path d="M48.2227 5.39087L37.9297 0.429937C36.7383 -0.136469 35.3125 0.0979061 34.375 1.03541L0.644531 31.7971C-0.253906 32.6174 -0.253906 34.0432 0.644531 34.8831L3.39844 37.3831C4.14062 38.0667 5.25391 38.1057 6.05469 37.5003L46.6797 6.67994C48.0469 5.64478 50 6.62134 50 8.32056V8.20337C50 7.01197 49.3164 5.91822 48.2227 5.39087Z" fill="black"/>
<path d="M48.2227 44.6092L37.9297 49.5701C36.7383 50.1365 35.3125 49.9022 34.375 48.9647L0.644531 18.2029C-0.253906 17.3826 -0.253906 15.9569 0.644531 15.117L3.39844 12.617C4.14062 11.9334 5.25391 11.8944 6.05469 12.4998L46.6797 43.3201C48.0469 44.3553 50 43.3787 50 41.6795V41.7967C50 42.9881 49.3164 44.0819 48.2227 44.6092Z" fill="black"/>
<path d="M37.9297 49.5706C36.7383 50.137 35.3125 49.9026 34.375 48.9651C35.5273 50.1174 37.5 49.2971 37.5 47.676V2.344C37.5 0.703375 35.5273 -0.0974063 34.375 1.05494C35.3125 0.117437 36.7383 -0.116938 37.9297 0.449469L48.2227 5.41041C49.2969 5.93775 50 7.0315 50 8.22291V41.8167C50 43.0081 49.3164 44.1213 48.2227 44.6292L37.9297 49.5706Z" fill="black"/>
<g opacity="0.25">
<path opacity="0.25" fill-rule="evenodd" clip-rule="evenodd" d="M35.4297 49.668C36.211 49.9805 37.1094 49.961 37.9102 49.5703L48.2031 44.6094C49.2774 44.0821 49.9805 42.9883 49.9805 41.7969V8.20316C49.9805 7.01175 49.2969 5.89847 48.2031 5.39066L37.9102 0.429721C36.875 -0.078092 35.6446 0.0586268 34.7266 0.722689C34.5899 0.820346 34.4727 0.918002 34.3555 1.03519L14.6485 19.0235L6.05471 12.5C5.25393 11.8946 4.14064 11.9336 3.39846 12.6172L0.644551 15.1368C-0.253887 15.9571 -0.273418 17.3828 0.644551 18.2227L8.08596 25L0.644551 31.7969C-0.253887 32.6172 -0.253887 34.043 0.644551 34.8828L3.39846 37.3828C4.14064 38.0664 5.25393 38.1055 6.05471 37.5L14.6485 30.9766L34.3555 48.9649C34.668 49.2774 35.0391 49.5118 35.4297 49.668ZM37.4805 13.6524L22.5196 25L37.4805 36.3477V13.6524V13.6524Z" fill="black"/>
</g>
</g>
</svg>
