<svg width="32" height="50" viewBox="0 0 32 50" fill="none" xmlns="http://www.w3.org/2000/svg">
<g clip-path="url(#clip0)">
<path d="M20.3125 9.375C22.9004 9.375 25 7.27539 25 4.6875C25 2.09961 22.9004 0 20.3125 0C17.7246 0 15.625 2.09961 15.625 4.6875C15.625 7.27539 17.7246 9.375 20.3125 9.375ZM29.541 23.9355L27.2656 22.7832L26.3183 19.9121C24.8828 15.5566 20.8789 12.5098 16.3379 12.5C12.8222 12.4902 10.8789 13.4863 7.22655 14.9609C5.11718 15.8105 3.38867 17.4219 2.37304 19.4727L1.71875 20.8008C0.95703 22.3438 1.57226 24.2187 3.10546 24.9902C4.6289 25.7617 6.48437 25.1367 7.25585 23.5938L7.91015 22.2656C8.25194 21.582 8.81835 21.0449 9.52147 20.7617L12.1386 19.707L10.6543 25.6348C10.1465 27.666 10.6933 29.8242 12.1094 31.377L17.959 37.7637C18.6621 38.5352 19.1601 39.4629 19.414 40.4687L21.2011 47.627C21.6211 49.2969 23.3203 50.3223 24.9902 49.9023C26.6601 49.4824 27.6855 47.7832 27.2656 46.1133L25.0976 37.4219C24.8437 36.416 24.3457 35.4785 23.6425 34.7168L19.1992 29.8633L20.8789 23.1543L21.416 24.7656C21.9336 26.3379 23.0468 27.6367 24.5117 28.3789L26.7871 29.5312C28.3105 30.3027 30.166 29.6777 30.9375 28.1348C31.6894 26.6016 31.0742 24.707 29.541 23.9355ZM7.18749 37.6758C6.87499 38.4668 6.40624 39.1797 5.80077 39.7754L0.917968 44.668C-0.302734 45.8887 -0.302734 47.8711 0.917968 49.0918C2.13867 50.3125 4.11132 50.3125 5.33202 49.0918L11.1328 43.291C11.7285 42.6953 12.1972 41.9824 12.5195 41.1914L13.8379 37.8906C8.43749 32.002 10.0586 33.8086 9.20897 32.6465L7.18749 37.6758Z" fill="black"/>
</g>
<defs>
<clipPath id="clip0">
<rect width="32" height="50" fill="white"/>
</clipPath>
</defs>
</svg>
