<svg width="51" height="50" viewBox="0 0 51 50" fill="none" xmlns="http://www.w3.org/2000/svg">
<g clip-path="url(#clip0)">
<path d="M45.2891 12.5H8.0625C7.19922 12.5 6.5 11.8008 6.5 10.9375C6.5 10.0742 7.19922 9.375 8.0625 9.375H45.5625C46.4258 9.375 47.125 8.67578 47.125 7.8125C47.125 5.22363 45.0264 3.125 42.4375 3.125H6.5C3.04785 3.125 0.25 5.92285 0.25 9.375V40.625C0.25 44.0771 3.04785 46.875 6.5 46.875H45.2891C48.0254 46.875 50.25 44.7725 50.25 42.1875V17.1875C50.25 14.6025 48.0254 12.5 45.2891 12.5ZM40.875 32.8125C39.1494 32.8125 37.75 31.4131 37.75 29.6875C37.75 27.9619 39.1494 26.5625 40.875 26.5625C42.6006 26.5625 44 27.9619 44 29.6875C44 31.4131 42.6006 32.8125 40.875 32.8125Z" fill="black"/>
</g>
<defs>
<clipPath id="clip0">
<rect width="50" height="50" fill="white" transform="translate(0.25)"/>
</clipPath>
</defs>
</svg>
