<svg width="45" height="50" viewBox="0 0 45 50" fill="none" xmlns="http://www.w3.org/2000/svg">
<path d="M38.1348 9.48242C34.043 5.38086 28.5937 3.125 22.8027 3.125C10.8496 3.125 1.12305 12.8516 1.12305 24.8047C1.12305 28.623 2.11914 32.3535 4.01367 35.6445L0.9375 46.875L12.4316 43.8574C15.5957 45.5859 19.1602 46.4941 22.793 46.4941H22.8027C34.7461 46.4941 44.6875 36.7676 44.6875 24.8145C44.6875 19.0234 42.2266 13.584 38.1348 9.48242ZM22.8027 42.8418C19.5605 42.8418 16.3867 41.9727 13.623 40.332L12.9687 39.9414L6.15234 41.7285L7.96875 35.0781L7.53906 34.3945C5.73242 31.5234 4.78516 28.2129 4.78516 24.8047C4.78516 14.873 12.8711 6.78711 22.8125 6.78711C27.627 6.78711 32.1484 8.66211 35.5469 12.0703C38.9453 15.4785 41.0352 20 41.0254 24.8145C41.0254 34.7559 32.7344 42.8418 22.8027 42.8418ZM32.6855 29.3457C32.1484 29.0723 29.4824 27.7637 28.9844 27.5879C28.4863 27.4023 28.125 27.3145 27.7637 27.8613C27.4023 28.4082 26.3672 29.6191 26.0449 29.9902C25.7324 30.3516 25.4102 30.4004 24.873 30.127C21.6895 28.5352 19.5996 27.2852 17.5 23.6816C16.9434 22.7246 18.0566 22.793 19.0918 20.7227C19.2676 20.3613 19.1797 20.0488 19.043 19.7754C18.9062 19.502 17.8223 16.8359 17.373 15.752C16.9336 14.6973 16.4844 14.8438 16.1523 14.8242C15.8398 14.8047 15.4785 14.8047 15.1172 14.8047C14.7559 14.8047 14.1699 14.9414 13.6719 15.4785C13.1738 16.0254 11.7773 17.334 11.7773 20C11.7773 22.666 13.7207 25.2441 13.9844 25.6055C14.2578 25.9668 17.8027 31.4355 23.2422 33.7891C26.6797 35.2734 28.0273 35.4004 29.7461 35.1465C30.791 34.9902 32.9492 33.8379 33.3984 32.5684C33.8477 31.2988 33.8477 30.2148 33.7109 29.9902C33.584 29.7461 33.2227 29.6094 32.6855 29.3457Z" fill="black"/>
</svg>
